<?xml version="1.0" encoding="UTF-8"?>
<!DOCTYPE svg PUBLIC "-//W3C//DTD SVG 1.1//EN" "http://www.w3.org/Graphics/SVG/1.1/DTD/svg11.dtd">
<!-- Creator: CorelDRAW -->
<svg xmlns="http://www.w3.org/2000/svg" xml:space="preserve" width="176.827mm" height="257.565mm" version="1.1" style="shape-rendering:geometricPrecision; text-rendering:geometricPrecision; image-rendering:optimizeQuality; fill-rule:evenodd; clip-rule:evenodd"
viewBox="0 0 7567.09 11022.17"
 xmlns:xlink="http://www.w3.org/1999/xlink"
 xmlns:xodm="http://www.corel.com/coreldraw/odm/2003">
 <defs>
  <style type="text/css">
   <![CDATA[
    .str1 {stroke:#592D3D;stroke-width:135.87;stroke-miterlimit:22.9256}
    .str4 {stroke:white;stroke-width:271.74;stroke-miterlimit:22.9256}
    .str3 {stroke:white;stroke-width:181.16;stroke-miterlimit:22.9256}
    .str6 {stroke:#592D3D;stroke-width:170.43;stroke-miterlimit:22.9256}
    .str7 {stroke:#592D3D;stroke-width:101.45;stroke-miterlimit:22.9256}
    .str8 {stroke:#C46565;stroke-width:101.45;stroke-miterlimit:22.9256}
    .str5 {stroke:#592D3D;stroke-width:90.58;stroke-miterlimit:22.9256}
    .str0 {stroke:#592D3D;stroke-width:152.17;stroke-miterlimit:22.9256}
    .str2 {stroke:#592D3D;stroke-width:135.87;stroke-linecap:square;stroke-miterlimit:22.9256}
    .fil3 {fill:none;fill-rule:nonzero}
    .fil12 {fill:#592D3D}
    .fil8 {fill:black;fill-rule:nonzero}
    .fil0 {fill:#592D3D;fill-rule:nonzero}
    .fil9 {fill:#61DAFB;fill-rule:nonzero}
    .fil2 {fill:#67B7D6;fill-rule:nonzero}
    .fil1 {fill:#85C5E5;fill-rule:nonzero}
    .fil15 {fill:#C46565;fill-rule:nonzero}
    .fil14 {fill:#D67070;fill-rule:nonzero}
    .fil11 {fill:#E2495B;fill-rule:nonzero}
    .fil7 {fill:#E2E2E2;fill-rule:nonzero}
    .fil13 {fill:#F28195;fill-rule:nonzero}
    .fil5 {fill:#F3AB98;fill-rule:nonzero}
    .fil4 {fill:#FDD2B2;fill-rule:nonzero}
    .fil6 {fill:white;fill-rule:nonzero}
    .fil10 {fill:black;fill-rule:nonzero;fill-opacity:0.101961}
   ]]>
  </style>
 </defs>
 <g id="Capa_x0020_1">
  <metadata id="CorelCorpID_0Corel-Layer"/>
  <g id="_2762856947536">
   <g>
    <path class="fil0 str0" d="M274.77 5009.84c2325.99,988.5 4706.5,1002.58 7049.99,0 222.3,-95.11 221.03,-1773.72 0,-1696.87 -2288.58,796.76 -4708.91,805.26 -7049.99,0 -278.48,-96.25 -251.34,1589.46 0,1696.87z"/>
   </g>
   <path class="fil1" d="M3865.88 1211.45c-1881.12,0 -3406.15,1524.92 -3406.15,3406.15l0 1850.43c107.34,119.11 287.25,221.58 520.83,307.86l150.82 -450.29 163.72 548.69c1729.63,460.15 5284.33,286.23 5976.92,-406.25l-0 -1850.43c0,-1881.24 -1525.03,-3406.15 -3406.15,-3406.15z"/>
   <path class="fil2" d="M935.16 6758.68c14.95,5.77 30,11.32 45.29,17.21l150.93 -450.3 163.72 548.69c512.01,135.87 1183.77,216.83 1894.03,244.9l308.88 -296.88 -2642.79 -1988.68c0,0 -69.52,1148.67 79.94,1925.05z"/>
   <path class="fil2" d="M5173.52 5098.01l286.57 1933.43c394.02,-49.14 754.3,-116.28 1054.24,-200.75l-0 0c0,0 374.66,-417.69 334.24,-1997.06 -40.42,-1579.37 -1675.05,264.38 -1675.05,264.38z"/>
   <path class="fil3 str1" d="M3865.88 1211.45c-1881.12,0 -3406.15,1524.92 -3406.15,3406.15l0 1850.43c107.34,119.11 287.25,221.58 520.83,307.86l150.82 -450.29 163.72 548.69c1729.63,460.15 5284.33,286.23 5976.92,-406.25l-0 -1850.43c0,-1881.24 -1525.03,-3406.15 -3406.15,-3406.15z"/>
   <path class="fil4" d="M5091.99 7429.76c1027.63,0 815.22,1293.48 825.07,2731.89l-825.07 0 0 -2731.89z"/>
   <path class="fil5" d="M5349.47 8258l-257.47 431.73 128.85 1471.92 359.6 0c8.72,-2041.11 -230.98,-1903.65 -230.98,-1903.65z"/>
   <path class="fil4" d="M826.24 4500.4c0,-1668.03 1352.25,-3020.28 3020.28,-3020.28 1668.03,0 3020.28,1352.25 3020.28,3020.28 0,0.67 0,2.14 0,2.88 0,908.96 -410.69,1770.44 -1116.88,2342.31 -62.03,50.38 -126,98.25 -191.9,143.61 -681.16,432.4 -1541.67,432.4 -2318.51,363.22 -75.41,-11.32 -150.59,-25.59 -225.21,-42.01 -298.12,-65.67 -586.73,-167.01 -853.38,-314.76 -65.9,-40.61 -129.79,-84.47 -191.69,-131.57 -62.06,-47.16 -121.92,-98.2 -178.76,-151.45 -53.99,-50.07 -106.08,-102.1 -156.27,-156.06 -518.75,-556.84 -807.97,-1290.74 -807.97,-2052.2 0,-1.1 0,-2.94 0,-4.04l-0 0.08z"/>
   <path class="fil5" d="M1237.92 6023.06c7.93,13.59 15.74,27.17 23.89,40.53 4.87,8.15 9.96,16.08 15.06,24.23 7.47,12.11 14.95,24.23 22.65,36.12 5.43,8.61 11.32,16.98 16.53,25.36 7.47,11.32 14.95,22.65 22.65,33.97 5.77,8.61 11.32,17.21 17.67,25.82 7.47,11.32 14.95,21.74 22.65,32.61 6.12,8.72 12.45,17.32 18.68,26.04 6.23,8.72 15.17,20.95 22.65,31.36 7.48,10.42 13.02,17.32 19.59,25.93 6.56,8.61 15.51,20.38 23.44,30.57 7.93,10.19 13.48,17.1 20.27,25.59 6.79,8.49 15.97,19.93 24,29.78 8.04,9.85 13.93,16.87 20.95,25.25 7.02,8.38 16.3,19.48 24.57,29.1 8.26,9.62 14.38,16.64 21.63,24.91l25.14 28.31c7.36,8.26 14.83,16.3 22.65,24.46 9.74,10.64 19.59,21.17 29.44,31.59l13.7 14.49c14.61,15.17 29.33,30.35 44.27,45.29l2.94 3.06c14.61,14.49 29.44,28.87 44.27,43.14l17.89 16.98c10.76,10.08 21.51,20.16 32.38,30.12l13.13 12c11.32,10.64 23.66,21.06 35.55,31.47 36.98,32.22 74.72,63.13 113.22,92.72 61.82,47.1 125.72,90.96 191.69,131.57 266.64,147.19 554.8,249.09 853.38,314.76 74.62,16.42 149.8,30.57 225.21,42.01 476.68,42.46 985.06,58.65 1463.77,-34.87 -761.21,-224.07 -4416.79,-1540.43 -2115.95,-5562.86l0 0c-30.8,14.15 -61.14,28.76 -91.26,43.93l-6.68 3.28c-13.81,6.91 -27.63,14.04 -41.33,21.29l-11.32 6c-42.57,22.65 -84.69,46.08 -126.02,70.54l-10.19 6c-13.13,7.81 -26.16,15.74 -39.18,23.78l-9.85 6.12c-40.46,25.29 -80.28,51.44 -119.45,78.47l-12.23 8.49c-12.34,8.61 -24.46,17.21 -36.57,25.93l-7.47 5.32c-24.68,18.04 -49.06,36.31 -73.14,54.8l-7.02 5.43c-11.32,8.83 -22.65,17.89 -33.97,27.06l-13.25 10.64c-11.32,9.17 -22.65,18.34 -33.97,27.74l0 0c-23.89,19.81 -47.44,40.2 -70.65,60.8l-12.91 11.32 -30.46 27.74 -14.72 13.36c-32.3,30.19 -63.9,61.03 -94.77,92.5l-15.62 15.97c-8.94,9.29 -17.89,18.57 -26.72,27.97 -5.21,5.55 -10.42,11.32 -15.51,16.76 -15.55,16.6 -30.88,33.44 -45.97,50.5 -5.1,5.77 -10.3,11.32 -15.4,17.44 -8.04,9.17 -15.97,18.46 -23.89,27.74l-17.1 20.27c-7.7,9.17 -15.4,18.34 -22.65,27.63 -6.12,7.47 -12.23,15.06 -18.23,22.65 -12.11,15.06 -24,30.12 -35.78,45.29 -6.12,7.93 -12.23,15.85 -18.23,23.89 -6,8.04 -13.59,18 -20.27,27.17 -6.68,9.17 -12.11,16.42 -18,24.68 -5.89,8.27 -12.8,17.55 -19.02,26.38 -10.72,15.09 -21.28,30.38 -31.7,45.85 -5.66,8.26 -11.32,16.76 -16.87,25.14 -5.55,8.38 -12.45,18.79 -18.57,28.31l-16.87 26.16 -19.02 30.68c-4.87,7.81 -9.74,15.62 -14.49,23.44 -10.08,16.53 -19.81,33.17 -29.55,49.82l-13.81 24.46c-6.12,10.76 -12.23,21.63 -18.23,32.5 -4.53,8.26 -9.06,16.53 -13.48,24.79 -7.24,13.48 -14.38,27.06 -21.51,40.65l-13.59 26.49c-7.24,14.49 -14.49,28.87 -21.63,43.48 -3.74,7.81 -7.59,15.74 -11.32,23.66 -5.89,12.34 -11.32,24.79 -17.32,37.25 -3.51,7.47 -6.91,14.95 -10.3,22.65 -8.37,18.64 -16.56,37.5 -24.56,56.6 -2.49,5.89 -4.87,11.89 -7.36,17.78 -6,14.38 -11.89,28.76 -17.67,43.25 -3.06,7.59 -6,15.17 -8.94,22.65 -5.66,14.27 -11.32,28.65 -16.42,43.02 -2.38,6.23 -4.75,12.45 -7.02,18.68 -7.1,19.85 -14.08,39.7 -20.95,59.56l-6.34 19.25c-4.98,15.09 -9.85,30.19 -14.61,45.29l-6.8 21.63c-5.32,17.44 -10.53,34.87 -15.51,52.42 -1.13,3.74 -2.26,7.47 -3.28,11.32 -5.89,20.83 -11.55,41.74 -16.98,62.72 -1.81,6.68 -3.4,13.48 -5.1,20.16 -3.96,15.74 -7.81,31.47 -11.32,47.33l-4.75 19.81c-4.87,21.51 -9.62,43.02 -14.04,64.65l-1.7 8.72c-3.85,19.25 -7.62,38.5 -11.32,57.75 -1.25,6.91 -2.38,13.7 -3.62,20.61 -2.94,16.87 -5.77,33.97 -8.38,50.95 -0.91,5.77 -1.93,11.32 -2.72,17.21 -3.4,22.08 -6.45,44.27 -9.4,66.58l-1.7 14.72c-2.26,18 -4.3,36.12 -6.23,54.24 -0.68,6.8 -1.47,13.59 -2.15,20.49 -1.81,19.02 -3.51,38.15 -5.1,57.29 0,3.96 -0.68,7.81 -0.91,11.32 -1.66,22.64 -3.12,45.47 -4.41,68.49 0,6 0,12.11 -0.79,18.11 -0.76,17.82 -1.44,35.6 -2.04,53.33 0,6.68 0,13.36 0,20.04 0,23.21 -0.91,46.53 -0.91,69.86 0,0 0,0.79 0,1.13 0,25.14 0,50.05 0.91,74.95 0,8.61 0.68,17.21 0.91,25.82 0.56,16.64 1.13,33.29 1.93,49.93 0,10.08 1.25,20.04 1.81,30.12 0.91,15.06 1.7,30.12 2.83,45.29 0.79,11.32 1.81,21.4 2.72,32.04 1.25,14.27 2.38,28.53 3.85,42.69 1.02,11.32 2.38,21.97 3.51,32.95 1.58,13.7 3.06,27.51 4.75,41.21 1.36,11.32 2.94,22.65 4.42,33.4 1.81,13.36 3.62,26.84 5.66,40.2 1.7,11.32 3.51,22.65 5.32,33.97 2.04,13.13 4.19,26.38 6.45,39.52 2.04,11.32 4.08,22.65 6.23,33.97 2.38,13.02 4.87,26.04 7.36,38.95 2.49,12.91 4.64,22.65 7.02,33.97 2.72,12.91 5.43,25.7 8.38,38.5 2.94,12.8 4.98,22.65 7.7,33.17 2.94,12.8 6.12,25.48 9.29,38.04 3.17,12.57 5.55,22.08 8.38,32.95 3.4,12.68 6.8,25.25 10.3,37.82 2.94,11.32 6,21.74 9.17,32.5 3.62,12.57 7.36,25.02 11.32,37.48 3.96,12.46 6.57,21.4 9.96,32.16 3.39,10.75 7.93,24.79 12,37.14 4.08,12.34 7.02,21.17 10.64,31.7 4.3,12.34 8.61,24.68 13.02,37.03 3.74,10.3 7.36,20.72 11.32,31.03l14.04 37.03c3.96,10.08 7.81,20.27 11.32,30.35 4.98,12.34 10.08,24.79 15.17,37.14 4.08,9.74 8.04,19.59 12.23,29.33 5.32,12.68 11.32,25.14 16.42,37.71 4.19,9.29 8.26,18.68 12.45,27.97 5.89,13.13 12.11,26.04 18.11,38.95l12.23 26.04c6.91,14.27 14.04,28.31 21.17,42.46 3.62,7.13 7.02,14.38 10.76,21.51 21.73,42.34 44.38,84.12 67.93,125.33 3.28,5.32 7.47,12.23 11.55,19.14z"/>
   <path class="fil3 str1" d="M826.24 4500.4c0,-1668.03 1352.25,-3020.28 3020.28,-3020.28 1668.03,0 3020.28,1352.25 3020.28,3020.28 0,0.67 0,2.14 0,2.88 0,908.96 -410.69,1770.44 -1116.88,2342.31 -62.03,50.38 -126,98.25 -191.9,143.61 -681.16,432.4 -1541.67,432.4 -2318.51,363.22 -75.41,-11.32 -150.59,-25.59 -225.21,-42.01 -298.12,-65.67 -586.73,-167.01 -853.38,-314.76 -65.9,-40.61 -129.79,-84.47 -191.69,-131.57 -62.06,-47.16 -121.92,-98.2 -178.76,-151.45 -53.99,-50.07 -106.08,-102.1 -156.27,-156.06 -518.75,-556.84 -807.97,-1290.74 -807.97,-2052.2 0,-1.1 0,-2.94 0,-4.04l-0 0.08z"/>
   <path class="fil4" d="M2557.11 7429.76c-1027.74,0 -815.22,1293.48 -825.07,2731.89l825.07 0 0 -2731.89z"/>
   <path class="fil5" d="M2343.23 8258l257.81 431.73 -128.96 1471.92 -359.26 0c-9.17,-2041.11 230.41,-1903.65 230.41,-1903.65z"/>
   <path class="fil4" d="M5199.22 10954.23l-2705.4 0c-82.99,-0.06 -150.24,-67.37 -150.24,-150.36 0,0 0,0 0,0l-0 -3223.74c0,-0 0,-0 0,-0 0,-82.99 67.26,-150.31 150.25,-150.36l2640.74 0c148.21,0 215.13,86.73 215.13,225.09l0 3148.56c0,0.14 0,0.31 0,0.45 0,83.03 -67.34,150.36 -150.36,150.36 -0.04,0 -0.07,0 -0.11,0z"/>
   <path class="fil5" d="M5307.69 7519.21c-11.27,-13.83 -20.86,-29.12 -28.42,-45.28 -27.16,-21.29 -59.54,-35.03 -93.74,-39.75 -16.55,-2.57 -33.32,-3.85 -50.05,-3.85 -0.28,0 -0.64,0 -0.92,0l-2640.74 0c-82.76,0.05 -149.93,67.02 -150.24,149.79 328.35,117.98 943.05,183.88 1502.95,183.88 713.99,0.01 1181.84,-105.85 1461.17,-244.78z"/>
   <path class="fil3 str2" d="M5091.99 7429.76c1027.63,0 815.22,1293.48 825.07,2731.89l-567.6 0"/>
   <path class="fil3 str2" d="M2557.11 7429.76c-1027.74,0 -815.22,1293.48 -825.07,2731.89l566.92 0"/>
   <line class="fil3 str1" x1="2493.82" y1="7430.9" x2="5134.56" y2= "7429.76" />
   <path class="fil5" d="M2493.82 10954.23l1320.43 0c-1235.85,0 -1142.55,-2617.54 -1470.68,-2617.54l0 2466.72c0,0.14 0,0.31 0,0.45 0,82.99 67.26,150.31 150.25,150.36l-0.01 0z"/>
   <path class="fil0" d="M2275.63 8586.13c-2.15,-41.55 -1.25,-83.11 0.56,-124.55 1.81,-41.44 5.32,-83.22 9.74,-124.55 2.26,-20.83 4.53,-41.55 7.36,-62.39 2.83,-20.84 5.55,-41.55 9.62,-62.39 7.98,-43.07 21.72,-85.03 40.65,-124.54 18.94,39.52 32.68,81.47 40.68,124.53 4.08,20.83 7.02,41.55 9.62,62.39 2.61,20.84 5.1,41.55 7.36,62.39 4.3,41.55 7.7,83.11 9.62,124.55 1.93,41.44 2.83,83.11 0.68,124.55l-135.91 0.02z"/>
   <path class="fil3 str1" d="M5349.47 8689.73l0 90.58c2.94,384.96 2.94,781.25 0,1163.39 0,32.5 0,64.76 0,96.58l0 763.25c0,0.09 0,0.22 0,0.33 0,82.99 -67.26,150.31 -150.25,150.36l-2705.4 0c-82.99,-0.06 -150.24,-67.37 -150.24,-150.36 0,0 0,0 0,0l-0 -658.97c0,-28.42 0,-57.4 0,-86.62 -2.83,-394.81 -2.83,-791.1 0,-1192.26l0 -279.89"/>
   <path class="fil0" d="M5281.53 8689.73c-2.15,-47.21 -1.13,-94.54 0.68,-141.87 1.81,-47.33 5.32,-94.54 9.62,-141.87 2.26,-23.66 4.64,-47.33 7.36,-70.99 2.72,-23.66 5.55,-47.21 9.62,-70.88 7.82,-48.69 21.61,-96.44 40.65,-141.9 19.04,45.46 32.82,93.21 40.67,141.87 4.08,23.66 7.02,47.33 9.62,70.88 2.61,23.55 5.1,47.33 7.36,70.99 4.3,47.33 7.81,94.54 9.62,141.87 1.81,47.33 2.83,94.66 0.68,141.87l-135.89 0.03z"/>
   <path class="fil3 str1" d="M3869.95 8790.05c0,433.29 -351.42,784.62 -784.76,784.62 -433.34,0 -784.76,-351.42 -784.76,-784.76 0,-123.79 29.32,-245.94 85.46,-356.21"/>
   <g>
    <path class="fil4" d="M2385.91 8433.73c42.91,-83.72 100.51,-159.23 169.86,-222.71l-169.86 222.71zm0 0l0 0 0 0z"/>
   </g>
   <path class="fil0" d="M2325.34 8402.82c9.95,-23.55 22.82,-45.8 38.27,-66.14 15.26,-20.32 32.55,-39.35 51.28,-56.59 9.51,-8.61 19.13,-16.98 29.21,-24.79 10,-8.08 20.64,-15.4 31.82,-21.76 24.15,-13.92 51.4,-21.71 79.26,-22.63 -2.9,26.47 -9.64,52.5 -19.8,77.1 -4.42,11.32 -9.4,21.29 -14.61,31.36l-14.72 30.23c-9.62,19.93 -19.13,39.52 -28.87,58.76 -9.32,19.35 -19.87,38.41 -31.25,56.64l-120.6 -62.18z"/>
   <g>
    <path class="fil4" d="M3725.71 8336.69c93.8,132.11 144.25,290.25 144.25,452.3 0,0.19 0,0.38 0,0.57l-144.25 -452.88zm0 0l0 0 0 0z"/>
   </g>
   <path class="fil0" d="M3725.71 8336.69c38.66,20.91 72.27,50.12 98.4,85.47 12.99,17.17 24.73,35.36 35.08,54.24 10.53,18.91 20.04,38.38 28.87,58.31 17.33,39.91 30.58,81.89 39.19,124.56 7.27,35.87 11.05,72.49 11.05,109.12 0,7.1 -0.13,14.4 -0.4,21.43l-135.9 0.01c-2.15,-36.8 -4.08,-73.37 -7.93,-110.17 -3.85,-36.8 -8.72,-73.37 -15.85,-110.28l-5.66 -27.63 -6.57 -27.74c-4.75,-18.46 -9.85,-36.91 -14.61,-55.82 -10.61,-39.87 -19.39,-80.76 -25.73,-121.52l0.03 0.02z"/>
   <g>
    <path class="fil4" d="M5450.35 8790.05c0,-0.31 0,-0.6 0,-0.89 0,-216.85 -90.03,-423.96 -248.4,-572l248.4 572.89zm0 0l0 0 0 0z"/>
   </g>
   <path class="fil0" d="M5382.41 8790.05c-1.82,-48.67 -6.71,-97.48 -14.25,-145.54 -7.96,-48.67 -19.85,-96.9 -35.36,-143.56 -3.85,-11.32 -8.38,-23.44 -12.57,-35.21 -4.19,-11.78 -9.51,-23.21 -14.15,-34.99 -4.64,-11.78 -10.64,-22.65 -15.62,-34.53l-16.53 -33.97c-22.65,-46.42 -47.21,-92.73 -72.01,-144.36 52.46,22.38 99.67,55.65 138.37,97.52 9.4,10.64 19.25,21.06 27.97,32.27 8.72,11.21 17.44,22.65 25.48,33.97 8.04,11.32 16.19,23.66 23.44,36.01 7.24,12.34 14.83,24.68 21.29,37.59 26.95,51.11 47.58,105.61 61.17,161.84 12.36,50.06 18.62,101.77 18.62,153.41 0,6.49 -0.16,13.15 -0.31,19.56l-135.52 0.01z"/>
   <path class="fil3 str1" d="M3880.49 8790.05c0.03,3 -0.06,6.35 -0.06,9.42 0,433.34 351.42,784.76 784.76,784.76 433.34,0 784.76,-351.42 784.76,-784.76 0,-3.06 -0.09,-6.42 -0.09,-9.39"/>
   <g>
    <path class="fil4" d="M4025.07 8336.69c-93.68,131.95 -144.14,290.19 -144.14,452.15 0,0.19 0,0.57 0,0.76l144.14 -452.91zm0 0l0 0 0 0z"/>
   </g>
   <path class="fil0" d="M4025.07 8336.69c-6.39,40.85 -15.03,81.74 -25.69,121.77 -4.75,18.91 -9.85,37.36 -14.61,55.82l-6.45 27.74 -5.66 27.63c-7.13,36.91 -12.34,73.6 -15.97,110.28 -3.62,36.68 -5.66,73.37 -7.81,110.17l-136.34 -0.05c-0.27,-7.36 -0.46,-14.96 -0.46,-22.37 0,-36.32 3.77,-72.63 11.11,-108.17 8.57,-42.71 21.75,-84.66 39.14,-124.57 8.72,-19.93 18.23,-39.4 28.76,-58.31 10.4,-18.81 22.18,-37.05 35.11,-54.19 26.25,-35.42 60.08,-64.76 98.85,-85.73l0.02 -0.01z"/>
   <line class="fil3 str1" x1="2526.77" y1="8322.32" x2="2526.77" y2= "7429.76" />
   <line class="fil3 str1" x1="5165.14" y1="8322.32" x2="5165.14" y2= "7429.76" />
   <path class="fil6 str1" d="M3512.5 9004.27l610.28 0 0 223.05c-200.86,-68.5 -404.33,-66.8 -610.28,0l0 -223.05z"/>
   <path class="fil6 str1" d="M5410.16 8790.05c0,-0.26 0,-0.83 0,-1.12 0,-198.37 -75.51,-389.39 -210.97,-534.21 -47.78,-51.18 -501.25,70.09 -767.78,308.65 -261.66,234.26 -489.47,616.96 -456.86,665.2 145.85,216.43 389.87,346.25 650.85,346.25 433.34,0 784.76,-351.42 784.76,-784.76 0,0 0,0 0,0l0 -0.01z"/>
   <path class="fil6" d="M4957.37 8445.05c-69.3,41.55 -137.57,81.3 -203.81,124.55 -65.29,41.5 -128.2,88.14 -187.26,138 -58.31,50.5 -114.47,105.53 -169.84,161.46 -55.37,55.94 -109.71,113.22 -167.01,170.63 34.83,-72.97 77.27,-142.08 126.61,-205.81 49.14,-64.61 105.29,-124.73 166.58,-178.09 62.41,-52.84 131.67,-97.62 205.49,-132.83 72.63,-35.66 149.91,-61.96 229.28,-77.88l-0.05 -0.03z"/>
   <path class="fil6 str1" d="M2282.88 8790.05c0,-0.26 0,-0.83 0,-1.12 0,-198.37 75.51,-389.39 210.97,-534.21 47.78,-51.18 501.25,70.09 767.78,308.65 261.66,234.26 489.47,616.96 456.86,665.2 -145.85,216.43 -389.87,346.25 -650.85,346.25 -433.34,0 -784.76,-351.42 -784.76,-784.76 0,0 0,0 0,0l-0 -0.01z"/>
   <path class="fil7" d="M3345.5 9470.08c-533.68,-0 -966.48,-432.81 -966.48,-966.49 0,-0.03 0,-0.03 0,-0.03 0,-32.84 1.79,-66.03 5.02,-98.63 -66.26,117.48 -101.04,250.27 -101.04,385.16 0,433.34 351.42,784.76 784.76,784.76 143.33,0 284.17,-39.38 406.71,-113.63 -42.61,5.77 -85.84,8.85 -128.95,8.85l-0.02 0z"/>
   <path class="fil3 str1" d="M2282.88 8790.05c0,-0.26 0,-0.83 0,-1.12 0,-198.37 75.51,-389.39 210.97,-534.21 47.78,-51.18 501.25,70.09 767.78,308.65 261.66,234.26 489.47,616.96 456.86,665.2 -145.85,216.43 -389.87,346.25 -650.85,346.25 -433.34,0 -784.76,-351.42 -784.76,-784.76 0,0 0,0 0,0l-0 -0.01z"/>
   <path class="fil6" d="M2735.66 8445.05c79.36,15.91 156.65,42.22 229.32,77.74 73.77,35.24 142.92,80.13 205.31,132.96 61.04,53.41 116.9,113.22 165.86,177.88 49.47,63.75 91.91,132.87 126.61,205.71 -57.29,-56.61 -111.41,-114.7 -167.01,-170.63 -55.59,-55.94 -111.41,-110.96 -169.84,-161.46 -58.92,-49.73 -121.83,-96.38 -187.09,-137.89 -66.05,-43.01 -133.98,-82.75 -203.16,-124.31z"/>
   <path class="fil5" d="M5859.66 9101.31c2.38,-420.18 -13.7,-793.37 -87.52,-1080.05 -114.02,-287.14 -319.07,-458.34 -680.14,-458.34l258.04 1523.11c0,0 254.98,115.94 509.63,15.29z"/>
   <path class="fil3 str2" d="M5957.15 8981.74c-12.88,10.65 -27,19.94 -41.88,27.52"/>
   <path class="fil5" d="M1877.65 8009.02c-77.33,289.52 -90.58,669.5 -87.64,1098.28 225.32,96.69 570.88,-24.35 570.88,-24.35l196.22 -1497.29c-349.52,-0.34 -557.86,157.04 -679.46,423.35z"/>
   <path class="fil6" d="M5134.56 7429.76l-613.79 0 0 1.13c0,-0.03 0,0.23 0,0.23 0,50.86 -5.55,101.71 -16.31,151.35 -5.17,24.17 -11.82,48.25 -19.66,71.66 -25.08,70.21 -63.62,135.06 -113.28,190.62 -15.86,17.75 -32.85,34.6 -50.91,50.13 -284.99,206.07 -737.89,217.39 -1013.14,-6.57 -29.66,-25.81 -56.72,-54.73 -80.55,-86.02 -49.54,-65.14 -84.74,-140.13 -103.02,-219.82 -5.3,-24.6 -9.44,-49.62 -12.12,-74.63 -2.65,-25.08 -4.17,-50.63 -4.17,-75.93 0,-0.34 0,-0.68 0,-1.01l0 -1.13 -613.8 -0.01c-82.99,0.05 -150.24,67.37 -150.24,150.36 0,0 0,0 0,0l0 3223.29c0,0.14 0,0.31 0,0.45 0,82.99 67.26,150.31 150.25,150.36l2705.39 0c82.99,-0.06 150.25,-67.37 150.25,-150.36 0,0 0,0 0,0l0 -3149.01c0,-138.36 -66.69,-225.09 -214.9,-225.09z"/>
   <path class="fil6" d="M5091.99 7429.76c719.43,0 831.07,634.06 836.73,1507.82 -210.6,131.57 -553.78,14.83 -553.78,14.83l-282.95 -1522.65z"/>
   <path class="fil7" d="M5349.47 8258l-257.47 431.73 128.85 1471.92 131.45 0 0 -1196.22 195.65 32.72c-64.19,-817.15 -198.48,-740.15 -198.48,-740.15z"/>
   <path class="fil6" d="M2557.11 7429.76c-699.51,0 -858.59,609.15 -870.13,1445.43 215.13,224.86 656.7,51.86 656.7,51.86l213.43 -1497.29z"/>
   <path class="fil7" d="M2343.23 8258l0 669.5 -195.99 48.8c64.19,-793.93 195.99,-718.3 195.99,-718.3z"/>
   <path class="fil3 str2" d="M5091.99 7429.76c763.25,0 888.25,637.34 893.34,1514.73 -296.65,140.74 -610.4,7.93 -610.4,7.93"/>
   <path class="fil3 str2" d="M2557.11 7429.76c-756.23,0 -906.7,619.34 -914.41,1480.08 233.7,167.35 700.41,17.67 700.41,17.67"/>
   <path class="fil7" d="M2493.82 10954.23l1320.43 0c-1235.85,0 -1142.55,-2617.54 -1470.68,-2617.54l0 2466.72c0,0.14 0,0.31 0,0.45 0,82.99 67.26,150.31 150.25,150.36l-0.01 0z"/>
   <path class="fil0" d="M2275.63 8586.13c-2.15,-41.55 -1.25,-83.11 0.56,-124.55 1.81,-41.44 5.32,-83.22 9.74,-124.55 2.26,-20.83 4.53,-41.55 7.36,-62.39 2.83,-20.84 5.55,-41.55 9.62,-62.39 7.98,-43.07 21.72,-85.03 40.65,-124.54 18.91,39.45 32.64,81.41 40.56,124.52 4.19,20.83 7.13,41.55 9.74,62.39 2.6,20.84 5.1,41.55 7.36,62.39 4.3,41.55 7.7,83.11 9.62,124.55 1.93,41.44 2.83,83.11 0.68,124.55l-135.9 0.02z"/>
   <path class="fil3 str1" d="M5349.47 8689.73l0 90.58c2.94,384.96 2.94,781.25 0,1163.39 0,32.5 0,64.76 0,96.58l0 763.25c0,0.09 0,0.22 0,0.33 0,82.99 -67.26,150.31 -150.25,150.36l-2705.4 0c-82.99,-0.06 -150.24,-67.37 -150.24,-150.36 0,0 0,0 0,0l-0 -658.97c0,-28.42 0,-57.4 0,-86.62 -2.83,-394.81 -2.83,-791.1 0,-1192.26l0 -279.89"/>
   <path class="fil0" d="M5281.53 8689.73c-2.15,-47.21 -1.13,-94.54 0.68,-141.87 1.81,-47.33 5.32,-94.54 9.62,-141.87 2.26,-23.66 4.64,-47.33 7.36,-70.99 2.72,-23.66 5.55,-47.21 9.74,-70.88 7.78,-48.62 21.43,-96.5 40.51,-141.89 19.06,45.45 32.85,93.2 40.69,141.86 4.08,23.66 7.02,47.33 9.62,70.88 2.61,23.55 5.1,47.33 7.36,70.99 4.3,47.33 7.81,94.54 9.62,141.87 1.81,47.33 2.83,94.66 0.68,141.87l-135.89 0.03z"/>
   <line class="fil3 str1" x1="2493.82" y1="7430.9" x2="5134.56" y2= "7429.76" />
   <path class="fil3 str1" d="M4520.77 7430.9c0,-0.03 0,0.23 0,0.23 0,50.86 -5.55,101.71 -16.31,151.35 -5.17,24.17 -11.82,48.25 -19.66,71.66 -25.08,70.21 -63.62,135.06 -113.28,190.62 -15.86,17.75 -32.85,34.6 -50.91,50.13 -284.99,206.07 -737.89,217.39 -1013.14,-6.57 -29.66,-25.81 -56.72,-54.73 -80.55,-86.02 -49.54,-65.14 -84.74,-140.13 -103.02,-219.82 -5.3,-24.6 -9.44,-49.62 -12.12,-74.63 -2.65,-25.08 -4.17,-50.63 -4.17,-75.93 0,-0.34 0,-0.68 0,-1.01"/>
   <path class="fil0" d="M3885.01 8218.6c-48.89,9.74 -98.8,14.8 -148.7,14.8 -19.8,0 -39.78,-0.92 -59.48,-2.39 -70.23,-4.86 -139.69,-19.24 -206.06,-42.48 -66.88,-22.93 -129.91,-55.98 -186.84,-97.86l-21.06 -15.97c-6.91,-5.43 -13.59,-11.32 -20.27,-17.21 -13.45,-11.41 -26.11,-23.89 -37.74,-37.13 -23.2,-26.15 -43.68,-54.69 -60.89,-85.04 24.13,24.28 49.73,47.35 76.31,68.97 6.57,5.43 13.25,10.76 19.81,15.85 6.56,5.09 13.93,9.29 20.83,14.04 6.91,4.75 13.81,9.51 20.95,13.93l21.63 13.13c57.68,34.04 119.02,62.53 182.31,84.43 63.38,22.21 129.04,39.25 195.28,50.41 67.47,10.93 135.66,18.61 203.85,22.45l0.07 0.07z"/>
   <path class="fil3 str2" d="M1670.67 8944.49c12.88,11.7 26.85,22.28 41.68,31.37"/>
   <path class="fil0" d="M5824.56 8833.41c-23.56,14.08 -49.53,23.78 -76.54,28.53 -25.04,4.89 -50.51,7.39 -76.03,7.39 -1.83,0 -3.71,-0.05 -5.49,-0.05 -27.26,-0.51 -54.51,-3.56 -81.27,-8.95 -13.36,-2.38 -26.38,-6.34 -39.52,-9.85 -13.13,-3.51 -25.7,-8.72 -38.15,-14.04 13.7,0 26.95,2.04 40.31,3.17l39.85 3.28c13.25,0 26.38,2.26 39.63,2.38 13.24,0.12 26.27,1.25 39.4,1.36 26.4,0.46 52.81,-0.25 79.23,-2.14 26.38,-1.81 52.76,-5.55 78.59,-11.08l-0.01 -0.02z"/>
   <path class="fil8 str3" d="M4603.76 9231.29c0,-100.32 -125.68,-195.43 -318.27,-254.42 44.5,-196.33 24.68,-352.47 -62.39,-402.51 -17.71,-11.77 -38.55,-18.05 -59.83,-18.05 -3,0 -6.03,0.13 -9.01,0.37 -90.58,1.47 -195.99,60.57 -308.31,165.53 -112.65,-104.38 -237.21,-166.09 -308.42,-164.28 -35.78,1.02 -49.48,5.89 -69.75,17.67 -86.85,49.93 -106.21,205.84 -61.48,401.61 -192.48,59.22 -317.03,154.1 -317.03,254.08 0,99.98 125.68,195.43 318.27,254.42 -44.5,196.33 -24.68,352.47 62.39,402.51 20.22,11.37 43.05,17.35 66.25,17.35 1.04,0 2.14,-0.02 3.17,-0.03 84.92,0 195.99,-60.57 308.43,-165.53 112.32,104.4 223.51,164.29 308.43,164.29 0.95,0.01 1.97,0.03 2.96,0.03 23.37,0 46.37,-5.99 66.78,-17.36 86.73,-50.05 106.21,-205.96 61.37,-401.61 191.46,-58.99 316.46,-154.1 316.46,-254.07zm-449.73 -605.64l0 0c0.68,-0.03 1.4,-0.03 2.09,-0.03 11.49,0 22.83,2.78 33.02,8.07 42.01,24.12 60.24,115.83 46.08,233.7 -3.4,28.98 -8.94,59.56 -15.74,90.58 -64.4,-15.48 -130.03,-27.25 -196.03,-34.05 -39.25,-53.95 -82.57,-105.89 -128.45,-154.16 100.51,-92.81 194.83,-143.99 259.03,-144.1zm-581.07 763.71c14.49,24.68 29.32,48.76 44.5,72.24 -43.82,-6.45 -86.17,-14.49 -126.58,-24.35 11.32,-39.85 25.59,-80.96 41.67,-121.94 12.68,24.69 25.92,49.37 40.42,74.05zm-82.99 -364.02c40.42,-9.51 82.99,-17.89 127.15,-24.35 -15.06,23.78 -30.23,48.12 -44.39,73.14 -14.16,25.02 -27.51,49.37 -40.2,74.05 -16.24,-40.11 -30.52,-81.21 -42.58,-122.79l0.01 -0.06zm78.69 206.86c19.13,-41.33 40.76,-82.77 63.97,-123.19 23.21,-40.42 48.69,-81.18 74.39,-117.87 45.97,-4.08 92.62,-6.23 139.49,-6.23 46.88,0 93.18,2.15 138.93,5.89 25.59,36.69 50.61,75.98 74.73,117.3 24.12,41.33 45.29,81.52 64.2,122.85 -19.48,41.44 -40.76,82.77 -63.97,123.19 -23.21,40.42 -48.69,81.18 -74.39,117.98 -45.97,3.96 -92.62,6.12 -139.49,6.12 -46.88,0 -93.18,-2.15 -138.93,-5.89 -25.59,-36.69 -50.61,-75.86 -74.73,-117.3 -24.12,-41.44 -44.72,-81.52 -64.2,-122.85zm551.41 156.25c14.15,-24.68 27.4,-49.7 40.08,-74.39 16.13,40.13 30.57,81.39 42.63,122.96 -40.42,9.85 -82.99,18.23 -127.15,24.68 15.12,-23.89 30.18,-48.24 44.44,-73.26zm0 -315.22c-14.15,-24.68 -29.33,-48.8 -44.5,-72.24 43.93,6.41 86.13,14.53 126.59,24.34 -11.32,39.85 -25.59,80.96 -41.67,121.94 -13.02,-24.68 -26.27,-49.37 -40.76,-74.05l0.34 0zm-188.63 -155.35c-27.85,-1.13 -56.61,-2.15 -84.92,-2.15 -28.31,0 -57.75,0.68 -85.82,2.15 26.51,-34.28 55,-67.45 84.95,-98.72 30.23,31.3 58.84,64.34 85.72,98.65l0.07 0.07zm-429.46 -283.06c9.98,-5.32 21.12,-8.11 32.42,-8.11 1.04,0 2.1,0.03 3.14,0.08l0 0c63.86,0 158.52,50.95 259.29,143.91 -45.77,48.09 -88.71,99.97 -127.53,154 -66,6.67 -131.83,18.27 -196.24,33.97 -7.13,-30.8 -12.34,-60.8 -16.08,-89.45 -14.56,-118 3.33,-209.71 44.99,-234.05l0 -0.34zm-77.79 783.86c-30.57,-9.62 -59.56,-20.16 -86.39,-31.47 -109.38,-46.65 -180.03,-107.79 -180.03,-156.25 0,-48.46 70.65,-109.94 180.03,-156.25 26.49,-11.32 55.48,-21.63 85.48,-31.14 18.84,63.78 42.35,127.26 69.48,188.02 -27.07,60.69 -50.2,123.73 -68.62,187.5l0.05 -0.41zm114.58 417.91c-0.37,-0 -0.78,0 -1.16,0 -11.73,0 -23.32,-2.85 -33.71,-8.28 -42.01,-24.12 -60.24,-115.83 -46.08,-233.7 3.4,-29.1 8.94,-59.56 15.74,-90.58 64.26,15.58 130.34,27.02 196.06,33.92 39.33,54.19 82.35,106.14 128.47,154.45 -100.68,93.35 -195.11,144.52 -259.31,144.52l0 -0.34zm308.31 -193.5c-30.07,-31.43 -59.05,-64.69 -85.82,-98.91 27.85,1.25 56.61,2.15 84.92,2.15 28.31,0 57.75,-0.56 85.82,-2.15 -26.34,34.39 -54.88,67.92 -84.89,99.25l-0.03 -0.34zm343.98 183.99c-9.97,5.32 -21.11,8.11 -32.42,8.11 -1.04,0 -2.1,-0.03 -3.14,-0.08 -63.86,0 -158.52,-50.95 -259.29,-143.91 45.77,-48.09 88.71,-99.97 127.53,-154 66,-6.68 131.83,-18.27 196.24,-33.97 6.92,29.63 12.46,59.73 16.12,89.84 14.52,118.29 -3.38,209.89 -45.04,234.35l0 -0.34zm163.95 -439.88c-26.61,11.32 -55.59,21.51 -85.6,31.14 -18.7,-63.94 -42.33,-127.39 -69.42,-188.11 26.84,-60.63 49.84,-123.39 68.03,-187.05 30.57,9.62 59.56,20.04 86.73,31.47 109.38,46.65 180.03,107.79 180.03,156.25 0,48.46 -70.51,110.33 -179.78,156.64l0 -0.34z"/>
   <circle class="fil8 str4" cx="3846.18" cy="9231.29" r="141.08"/>
   <path class="fil9" d="M4603.76 9231.29c0,-100.32 -125.68,-195.43 -318.27,-254.42 44.5,-196.33 24.68,-352.47 -62.39,-402.51 -17.71,-11.77 -38.55,-18.05 -59.83,-18.05 -3,0 -6.03,0.13 -9.01,0.37 -90.58,1.47 -195.99,60.57 -308.31,165.53 -112.65,-104.38 -237.21,-166.09 -308.42,-164.28 -35.78,1.02 -49.48,5.89 -69.75,17.67 -86.85,49.93 -106.21,205.84 -61.48,401.61 -192.48,59.22 -317.03,154.1 -317.03,254.08 0,99.98 125.68,195.43 318.27,254.42 -44.5,196.33 -24.68,352.47 62.39,402.51 20.22,11.37 43.05,17.35 66.25,17.35 1.04,0 2.14,-0.02 3.17,-0.03 84.92,0 195.99,-60.57 308.43,-165.53 112.32,104.4 223.51,164.29 308.43,164.29 0.95,0.01 1.97,0.03 2.96,0.03 23.37,0 46.37,-5.99 66.78,-17.36 86.73,-50.05 106.21,-205.96 61.37,-401.61 191.46,-58.99 316.46,-154.1 316.46,-254.07zm-449.73 -605.64l0 0c0.68,-0.03 1.4,-0.03 2.09,-0.03 11.49,0 22.83,2.78 33.02,8.07 42.01,24.12 60.24,115.83 46.08,233.7 -3.4,28.98 -8.94,59.56 -15.74,90.58 -64.4,-15.48 -130.03,-27.25 -196.03,-34.05 -39.25,-53.95 -82.57,-105.89 -128.45,-154.16 100.51,-92.81 194.83,-143.99 259.03,-144.1zm-581.07 763.71c14.49,24.68 29.32,48.76 44.5,72.24 -43.82,-6.45 -86.17,-14.49 -126.58,-24.35 11.32,-39.85 25.59,-80.96 41.67,-121.94 12.68,24.69 25.92,49.37 40.42,74.05zm-82.99 -364.02c40.42,-9.51 82.99,-17.89 127.15,-24.35 -15.06,23.78 -30.23,48.12 -44.39,73.14 -14.16,25.02 -27.51,49.37 -40.2,74.05 -16.24,-40.11 -30.52,-81.21 -42.58,-122.79l0.01 -0.06zm78.69 206.86c19.13,-41.33 40.76,-82.77 63.97,-123.19 23.21,-40.42 48.69,-81.18 74.39,-117.87 45.97,-4.08 92.62,-6.23 139.49,-6.23 46.88,0 93.18,2.15 138.93,5.89 25.59,36.69 50.61,75.98 74.73,117.3 24.12,41.33 45.29,81.52 64.2,122.85 -19.48,41.44 -40.76,82.77 -63.97,123.19 -23.21,40.42 -48.69,81.18 -74.39,117.98 -45.97,3.96 -92.62,6.12 -139.49,6.12 -46.88,0 -93.18,-2.15 -138.93,-5.89 -25.59,-36.69 -50.61,-75.86 -74.73,-117.3 -24.12,-41.44 -44.72,-81.52 -64.2,-122.85zm551.41 156.25c14.15,-24.68 27.4,-49.7 40.08,-74.39 16.13,40.13 30.57,81.39 42.63,122.96 -40.42,9.85 -82.99,18.23 -127.15,24.68 15.12,-23.89 30.18,-48.24 44.44,-73.26zm0 -315.22c-14.15,-24.68 -29.33,-48.8 -44.5,-72.24 43.93,6.41 86.13,14.53 126.59,24.34 -11.32,39.85 -25.59,80.96 -41.67,121.94 -13.02,-24.68 -26.27,-49.37 -40.76,-74.05l0.34 0zm-188.63 -155.35c-27.85,-1.13 -56.61,-2.15 -84.92,-2.15 -28.31,0 -57.75,0.68 -85.82,2.15 26.51,-34.28 55,-67.45 84.95,-98.72 30.23,31.3 58.84,64.34 85.72,98.65l0.07 0.07zm-429.46 -283.06c9.98,-5.32 21.12,-8.11 32.42,-8.11 1.04,0 2.1,0.03 3.14,0.08l0 0c63.86,0 158.52,50.95 259.29,143.91 -45.77,48.09 -88.71,99.97 -127.53,154 -66,6.67 -131.83,18.27 -196.24,33.97 -7.13,-30.8 -12.34,-60.8 -16.08,-89.45 -14.56,-118 3.33,-209.71 44.99,-234.05l0 -0.34zm-77.79 783.86c-30.57,-9.62 -59.56,-20.16 -86.39,-31.47 -109.38,-46.65 -180.03,-107.79 -180.03,-156.25 0,-48.46 70.65,-109.94 180.03,-156.25 26.49,-11.32 55.48,-21.63 85.48,-31.14 18.84,63.78 42.35,127.26 69.48,188.02 -27.07,60.69 -50.2,123.73 -68.62,187.5l0.05 -0.41zm114.58 417.91c-0.37,-0 -0.78,0 -1.16,0 -11.73,0 -23.32,-2.85 -33.71,-8.28 -42.01,-24.12 -60.24,-115.83 -46.08,-233.7 3.4,-29.1 8.94,-59.56 15.74,-90.58 64.26,15.58 130.34,27.02 196.06,33.92 39.33,54.19 82.35,106.14 128.47,154.45 -100.68,93.35 -195.11,144.52 -259.31,144.52l0 -0.34zm308.31 -193.5c-30.07,-31.43 -59.05,-64.69 -85.82,-98.91 27.85,1.25 56.61,2.15 84.92,2.15 28.31,0 57.75,-0.56 85.82,-2.15 -26.34,34.39 -54.88,67.92 -84.89,99.25l-0.03 -0.34zm343.98 183.99c-9.97,5.32 -21.11,8.11 -32.42,8.11 -1.04,0 -2.1,-0.03 -3.14,-0.08 -63.86,0 -158.52,-50.95 -259.29,-143.91 45.77,-48.09 88.71,-99.97 127.53,-154 66,-6.68 131.83,-18.27 196.24,-33.97 6.92,29.63 12.46,59.73 16.12,89.84 14.52,118.29 -3.38,209.89 -45.04,234.35l0 -0.34zm163.95 -439.88c-26.61,11.32 -55.59,21.51 -85.6,31.14 -18.7,-63.94 -42.33,-127.39 -69.42,-188.11 26.84,-60.63 49.84,-123.39 68.03,-187.05 30.57,9.62 59.56,20.04 86.73,31.47 109.38,46.65 180.03,107.79 180.03,156.25 0,48.46 -70.51,110.33 -179.78,156.64l0 -0.34z"/>
   <circle class="fil9" cx="3846.18" cy="9231.29" r="141.08"/>
   <path class="fil10" d="M3018.62 9727.21c335.96,-0 634.92,-214.17 743.01,-532.2 -144.13,246.59 -408.43,398.22 -694.03,398.22 -253.6,0 -492.59,-119.84 -644.22,-322.99l-0.55 166.78c144.25,176.97 349.75,290.19 595.79,290.19z"/>
   <path class="fil10" d="M4674.42 9727.21c-335.95,-0 -634.92,-214.17 -743,-532.2 144.13,246.59 408.43,398.22 694.03,398.22 253.6,0 492.59,-119.84 644.22,-322.99l0 166.67c-143.7,177.08 -349.21,290.3 -595.24,290.3z"/>
   <g>
    <path class="fil6" d="M2793.52 9525.44c-306.94,-114.52 -510.5,-407.78 -510.5,-735.44 0,-198 74.94,-388.81 209.59,-533.9l300.91 1269.34zm0 0l0 0 0 0z"/>
   </g>
   <path class="fil0" d="M2793.52 9525.44c-133.76,-21.8 -257.53,-85.31 -353.34,-181.2l-18.34 -18.11c-6,-6.12 -11.32,-12.8 -17.32,-19.13 -6,-6.34 -11.32,-13.02 -16.76,-19.59 -5.76,-6.41 -11.2,-13.25 -16.22,-20.25 -10.19,-13.93 -20.49,-27.85 -30.35,-42.12l-26.84 -44.5c-33.82,-60.8 -59.48,-126.23 -75.98,-193.95 -13.09,-57.76 -19.72,-117.13 -19.72,-176.4 0,-10.24 0.2,-20.67 0.59,-30.8 3.01,-69.12 16.12,-137.61 38.54,-202.99 2.94,-8.04 5.55,-16.19 8.61,-24.23l9.96 -23.78c6.23,-15.85 14.27,-31.03 21.63,-46.31 15.6,-29.98 33.75,-59.14 53.67,-86.45 9.62,-13.7 20.61,-26.61 31.14,-39.52 10.53,-12.91 21.97,-25.25 33.97,-36.57 23.35,-23.29 48.97,-44.63 76.17,-63.27 -65.56,113.22 -112.09,228.6 -132.02,347.26 -9,50.96 -13.64,102.88 -13.64,154.69 0,7.34 0.21,14.79 0.33,22.02 2.1,58.64 9.7,117.37 22.57,174.57 13.89,56.76 33.55,112.61 58.02,165.78 25.05,53.75 55.81,105.05 91.41,152.56 36.11,49.05 77.28,94.6 122.48,135.33 47.27,42.4 98.3,81.82 151.39,116.96l0.06 -0.02z"/>
   <g>
    <path class="fil6" d="M4900.08 9525.44c306.72,-114.65 510.08,-407.81 510.08,-735.28 0,-198.09 -74.94,-389 -209.69,-534.09l-300.39 1269.37zm0 0l0 0 0 0z"/>
   </g>
   <path class="fil0" d="M4900.08 9525.44c53,-34.89 103.71,-74.16 151.08,-116.45 45.25,-40.77 86.42,-86.31 122.45,-135.34 35.67,-47.53 66.42,-98.83 91.49,-152.55 24.45,-53.21 44.11,-109.06 57.96,-165.92 12.91,-57.11 20.51,-115.83 22.62,-174.44 0.27,-8.02 0.38,-16.22 0.38,-24.32 0,-51.28 -4.53,-102.65 -13.39,-153.06 -19.93,-118.66 -66.46,-233.7 -132.02,-347.26 27.23,18.59 52.85,39.93 76.23,63.25 12.23,11.32 22.65,24.23 33.97,36.57 11.32,12.34 21.51,25.82 31.14,39.52 19.89,27.29 38.04,56.44 53.66,86.44 7.36,15.29 15.4,30.46 21.63,46.31l9.96 23.78c3.06,8.04 5.66,16.19 8.61,24.23 22.39,65.36 35.5,133.85 38.51,202.95 0.39,10.16 0.59,20.59 0.59,30.82 0,59.27 -6.63,118.63 -19.69,176.44 -16.53,67.68 -42.19,133.11 -76.05,193.96l-26.8 44.46c-9.85,14.27 -20.16,28.19 -30.35,42.12 -5.02,6.98 -10.47,13.82 -16.18,20.26 -5.55,6.57 -11.32,13.13 -16.76,19.59 -5.43,6.45 -11.32,13.02 -17.32,19.13l-18.34 18.11c-95.8,95.96 -219.57,159.47 -353.37,181.35l-0.01 0.04z"/>
   <path class="fil5" d="M1258.19 5370.2c-11.32,-321.11 203.81,-592.85 490.04,-719.66 29.9,-12.28 61.02,-22.54 92.4,-30.56 62.38,-15.46 126.73,-23.4 191.08,-23.4 98.02,0 195.46,18.29 286.8,53.7 34.83,13.29 68.8,29.24 101.4,47.17 334.35,179.8 484.49,602.92 355.07,944.97 -13.09,34.29 -29.03,67.97 -47.36,99.85 -45.14,94.01 -113.47,175.19 -198.28,235.81 -28.18,20.75 -58.05,39.89 -88.87,56.64 -310.01,147.19 -728.94,101.9 -978.83,-129.08 -24.91,-26.43 -48.2,-54.9 -69.19,-84.62 -23.92,-33.85 -45.18,-70.09 -63.03,-107.58 -37.87,-76.8 -60,-160.69 -64.47,-246.2 -4,-32.14 -6.3,-64.78 -6.72,-97.1l-0.04 0.04z"/>
   <path class="fil6 str1" d="M1239.74 5162.43c-11.32,-321.11 203.81,-592.85 490.04,-719.66 29.95,-12.2 60.92,-22.61 92.31,-30.61 62.33,-15.43 126.78,-23.36 191.12,-23.36 98.12,0 195.46,18.19 286.9,53.7 34.58,13.38 68.4,29.2 100.93,47.1 334.35,179.91 484.49,602.92 355.07,944.97 -12.9,34.47 -28.89,68.08 -47.26,99.88 -15.65,30.65 -33.57,60.3 -53.34,88.37 -19.55,27.81 -41.13,54.4 -64.32,79.21 -25,24.77 -52.2,47.88 -80.63,68.72 -28.29,20.8 -58.05,39.79 -88.87,56.62 -310.01,147.19 -728.94,101.9 -978.72,-129.08 -25.03,-26.34 -48.27,-54.78 -69.18,-84.52 -24.01,-33.93 -45.31,-70.13 -63.18,-107.6 -38.13,-76.99 -60.26,-161.37 -64.64,-247.2 -3.98,-31.91 -6.15,-64.34 -6.24,-96.57l0 0.02z"/>
   <path class="fil11" d="M2419.88 5078.65l0 64.2c-0.63,1.41 -1.13,2.89 -1.47,4.41 -3.2,25.63 -10.61,50.65 -21.75,73.93 -24.47,50.7 -57.4,97.12 -97.26,136.91 -81.82,82.71 -174.38,155.12 -274.59,214.39 -1.68,1.25 -3.79,1.96 -5.96,1.96 -2.17,0 -4.28,-0.71 -6,-2.04 -79.94,-47.69 -155.53,-103.53 -224.89,-165.6 -49.71,-43.83 -93.32,-94.68 -128.76,-150.72 -27.63,-43.59 -42.39,-94.22 -42.39,-145.84 0,-21.43 2.55,-42.83 7.57,-63.66 36.46,-162.14 237.77,-228.37 364.02,-119.68 10.76,9.17 20.27,19.93 31.03,30.57 0.64,-1.09 1.37,-2.16 2.14,-3.17 56.61,-62.95 125.68,-90.58 208.79,-77.11 91.15,15.29 150.82,69.75 179.91,157.38 3.97,14.47 7.23,29.23 9.63,44.03l-0.01 0.02z"/>
   <path class="fil5" d="M4796.36 5278.94c4.87,-171.31 75.52,-340.69 170.97,-467.96 24.4,-34.15 51.37,-66.57 80.56,-96.56 148.84,-154.93 354.63,-242.65 569.48,-242.65 161.45,0 319.14,49.64 451.48,141.88 25.66,17.84 50.58,37.39 73.98,58.05 305.71,242.87 341.04,714.9 173.46,1055.6 -16.24,26.94 -34.5,53.12 -54.13,77.67 -26.08,32.77 -54.98,63.76 -85.77,92.06 -229.51,201.88 -586.62,250.57 -876.48,140.62 -41.31,-15.49 -81.44,-34.62 -119.51,-56.61 -202.67,-122.06 -343.86,-352.02 -378.51,-591.37 -3.8,-30.12 -5.81,-60.57 -5.81,-90.92 0,-6.53 0.09,-13.39 0.26,-19.83l0.01 0.02z"/>
   <path class="fil6 str1" d="M4858.52 5148.73c4.75,-160.22 72.69,-318.73 164.4,-437.73 23.48,-32.03 49.72,-62.36 77.71,-90.55 145.42,-145.42 342.99,-227.28 548.71,-227.28 154.46,0 305.69,46.24 433.71,132.47 24.6,16.74 48.53,34.98 71.11,54.28 294.39,227.24 328.35,668.82 166.9,987.55 -15.66,25.38 -33.08,49.67 -52.05,72.63 -25.21,30.72 -53.02,59.58 -82.55,86.06 -220.93,189.56 -564.57,234.85 -843.44,131.82 -39.62,-14.58 -78.33,-32.55 -115.12,-53.38 -194.97,-114.13 -330.84,-329.26 -364.24,-553.1 -3.64,-27.38 -5.43,-55.19 -5.43,-82.84 0,-6.62 0.15,-13.39 0.31,-19.94l0 0.01z"/>
   <path class="fil11" d="M6056.56 5058.83l0 63.41c-0.56,1.43 -1.01,2.91 -1.36,4.41 -3.17,25.28 -10.42,49.93 -21.4,72.92 -24.22,50.07 -56.78,95.91 -96.14,135.21 -81.02,81.88 -172.54,153.09 -271.74,211.53 -1.65,1.22 -3.63,1.85 -5.65,1.85 -2.02,0 -4.01,-0.62 -5.66,-1.79 -78.81,-47.05 -153.6,-102.17 -222.07,-163.44 -49,-43.33 -91.88,-93.59 -126.97,-148.84 -27.12,-43 -41.51,-92.85 -41.51,-143.69 0,-21.27 2.53,-42.48 7.51,-63.15 36.01,-160.1 235.4,-225.43 359.49,-118.21 10.64,9.06 20.04,19.7 30.57,30.23 0.68,-1.13 1.47,-2.15 2.15,-3.17 55.48,-62.16 124.55,-89.9 206.18,-76.09 90.58,15.06 149,68.84 177.65,155.35 3.8,14.28 6.82,28.84 8.92,43.46l0.02 0.02z"/>
   <path class="fil12" d="M946.71 4377.33c63.86,179.24 236.64,272.42 378.17,305.03 147.87,-229.17 641.42,-327.45 1011.89,-197.46 314.76,56.61 -122.39,-289.52 -820.54,-101.9 -26.16,9.62 -164.85,33.4 -342.85,-104.05 -24.79,-19.13 52.99,155.23 141.53,226.45 -128.51,-2.61 -149.57,-2.49 -368.21,-128.06z"/>
   <path class="fil12" d="M6351.17 4505.27c88.54,-70.76 166.33,-245.13 141.53,-226.45 -177.99,137.45 -317.03,113.22 -342.85,104.05 -698.15,-187.95 -1135.42,158.52 -820.65,101.9 370.58,-129.98 864.13,-31.7 1012.01,197.46 141.53,-32.61 314.31,-125.79 378.17,-305.03 -218.64,125.68 -239.7,125.57 -368.21,128.06z"/>
   <circle class="fil0" cx="3843.12" cy="6118.73" r="610.85"/>
   <path class="fil13" d="M3746.99 6350.39c-159.31,-38.15 -312.73,11.32 -378.74,111.75 101.52,153.68 273.61,246.26 457.82,246.26 47.29,0 94.58,-6.16 140.26,-18.22 23.04,-6.05 45.81,-13.69 67.91,-22.63 15.29,-136 -107.56,-274.25 -287.25,-317.16z"/>
   <path class="fil0" d="M3604.78 6221.43l9.06 0 7.36 0c4.87,0 9.51,0 14.15,0.68 9.28,0.66 18.54,2.02 27.64,3.95 18.46,3.61 36.57,9.44 53.67,17.31 35.96,16.13 66.59,42.29 88.09,75.31 20.27,31.26 31.21,67.78 31.35,105.07 -0.04,34.33 -10.7,67.85 -30.46,95.9 -14.72,-31.25 -25.36,-58.88 -37.48,-82.54 -5.33,-11.21 -11.5,-22.13 -18.33,-32.51 -6.35,-9.16 -13.78,-17.58 -22.09,-25.01 -15.82,-13.81 -34.47,-24.1 -54.58,-30.12 -10.55,-3.22 -21.39,-5.85 -32.25,-7.8 -5.55,-0.79 -11.32,-1.81 -16.64,-2.49l-8.26 -0.79 -3.74 0c-0.91,0 -2.94,0 -2.15,0l-5.34 -116.97z"/>
   <circle class="fil3 str5" cx="3843.12" cy="6118.73" r="610.85"/>
   <rect class="fil5" x="1471.39" y="3526.89" width="4973.3" height="726.34"/>
   <path class="fil1" d="M6224.24 6398.74c-35.55,43.93 -72.2,86.84 -109.94,128.74 -28.31,31.36 29.21,-12.68 109.94,-128.74zm169.84 -3584.14c-345.34,-616.06 -945.43,-1040.2 -1639.27,-1235.4l-71.9 -19.36c-257.02,-71.11 -527.86,-79.26 -807.52,-79.26 -302.2,0 -593.98,31.03 -869.23,113.22l-48.23 14.38c-366.02,124.2 -707.27,314.4 -1005.87,559.77 -33.08,27.03 -65.47,54.66 -97.17,82.9 -320.88,268.23 -569.97,607.91 -741.29,995.25 -16.6,37.14 -32.3,74.62 -47.1,112.43 -44.14,112.55 -79.95,228.77 -106.65,346.45 -362.89,1433.33 201.99,2312.64 703.35,2851.59 49.48,53.21 -655.91,-1153.2 -197.24,-2445.66 87.52,-3.28 229.17,-5.77 409.76,-7.59l175.5 -573.03 197.46 570.43c310.24,-1.47 677.99,-1.7 1062.96,-1.36l139.49 -592.85 157.6 593.08c842.06,1.58 1714.68,5.89 2211.06,8.72l149.46 -590.69 169.84 592.5 92.96 0.56c567.15,1204.94 201.66,1987.67 -7.81,2288.06 433.87,-535.26 671.42,-1204.61 671.42,-1894.15 0,-1.1 0,-2.94 0,-4.04 0,-978.63 -501.59,-1685.95 -501.59,-1685.95z"/>
   <path class="fil3 str1" d="M6224.24 6398.74c-35.55,43.93 -72.2,86.84 -109.94,128.74 -28.31,31.36 29.21,-12.68 109.94,-128.74zm169.84 -3584.14c-345.34,-616.06 -945.43,-1040.2 -1639.27,-1235.4l-71.9 -19.36c-257.02,-71.11 -527.86,-79.26 -807.52,-79.26 -302.2,0 -593.98,31.03 -869.23,113.22l-48.23 14.38c-366.02,124.2 -707.27,314.4 -1005.87,559.77 -33.08,27.03 -65.47,54.66 -97.17,82.9 -320.88,268.23 -569.97,607.91 -741.29,995.25 -16.6,37.14 -32.3,74.62 -47.1,112.43 -44.14,112.55 -79.95,228.77 -106.65,346.45 -362.89,1433.33 201.99,2312.64 703.35,2851.59 49.48,53.21 -655.91,-1153.2 -197.24,-2445.66 87.52,-3.28 229.17,-5.77 409.76,-7.59l175.5 -573.03 197.46 570.43c310.24,-1.47 677.99,-1.7 1062.96,-1.36l139.49 -592.85 157.6 593.08c842.06,1.58 1714.68,5.89 2211.06,8.72l149.46 -590.69 169.84 592.5 92.96 0.56c567.15,1204.94 201.66,1987.67 -7.81,2288.06 433.87,-535.26 671.42,-1204.61 671.42,-1894.15 0,-1.1 0,-2.94 0,-4.04 0,-978.63 -501.59,-1685.95 -501.59,-1685.95z"/>
   <path class="fil1" d="M4799.31 1420.68l-73.26 -19.7c-285.44,-79.26 -576.65,-85.48 -850.66,-85.48 -346.36,0 -646.18,39.52 -916.1,120.47l-48.23 14.38 -5.55 1.7c-384.63,131.2 -743.63,331.01 -1057.85,588.85 -33.97,27.85 -67.94,56.61 -100.09,85.48 -335.49,281.03 -599.3,635.31 -783.97,1052.99 -17.67,39.52 -33.97,79.82 -50.05,119.68 -47.33,121.04 -241.06,676.74 -268.91,799.93l821.22 11.32c87.52,-3.28 229.17,-5.77 409.76,-7.59l175.5 -573.03 197.46 570.43c310.24,-1.47 677.99,-1.7 1062.96,-1.36l139.49 -592.85 157.71 593.68c842.06,1.58 1714.68,5.89 2211.06,8.72l149.46 -590.69 169.84 592.5 92.96 0.56 827.79 389.72c0,-975.88 -467.62,-1687.05 -526.27,-1773.11 -354.62,-627.27 -970.23,-1091.49 -1734.27,-1306.62zm1881.35 3614.71c-35.89,-293.48 -126.47,-625.68 -300.16,-994.57l-44.04 -93.64 -73.48 0 -303.21 -1060.12 -267.67 1056.39c-457.77,-2.49 -1212.19,-6.12 -1957.21,-7.81l-293.82 -1104.74 -259.74 1103.95c-310.24,0 -583.68,0 -816.24,1.02l-323.37 -935.35 -287.82 939.77c-129.64,1.7 -228.26,3.85 -294.39,6.34l-111.3 4.3 -37.25 104.84c-162.36,458.45 -205.38,954.15 -127.94,1474.98 -180.03,-452.9 -254.3,-1034.76 -63.97,-1784.77l1.02 -4.3c24.84,-109.5 58.72,-218.27 99.72,-322.93 13.59,-34.99 28.42,-70.43 44.27,-105.87 164.63,-372.06 399,-686.94 696.45,-935.58l3.74 -3.28c30,-26.61 61.03,-53.1 92.16,-78.69 282.41,-232.13 604.99,-412.3 951.12,-530.79l45.86 -13.59c239.13,-71.79 508.04,-106.77 822.02,-106.77 251.58,0 517.78,5.77 763.7,73.82l72.24 19.36c682.07,192.48 1228.83,603.15 1539.86,1157.5l4.19 7.47 4.98 7.13c4.75,6.68 471.13,675.16 471.13,1590.81 -0.1,179.55 -17.52,359 -50.97,534.97l0.15 0.14z"/>
   <path class="fil3 str1" d="M6224.24 6398.74c-35.55,43.93 -72.2,86.84 -109.94,128.74 -28.31,31.36 29.21,-12.68 109.94,-128.74zm-4561.04 157.84c49.48,53.21 -655.91,-1153.2 -197.24,-2445.66 87.52,-3.28 229.17,-5.77 409.76,-7.59l175.5 -573.03 197.46 570.43c310.24,-1.47 677.99,-1.7 1062.96,-1.36l139.49 -592.85 157.6 593.08c842.06,1.58 1714.68,5.89 2211.06,8.72l149.46 -590.69 169.84 592.5 92.96 0.56c567.15,1204.94 201.66,1987.67 -7.81,2288.06"/>
   <path class="fil0" d="M1406.29 4079.77c2.04,-8.49 3.74,-14.95 6,-21.97 2.26,-7.02 4.53,-13.59 7.02,-20.16 5.21,-13.25 11.32,-26.16 17.1,-38.72 12.61,-25.28 27.28,-49.61 43.63,-72.66 16.1,-23.43 34.67,-45.37 55.2,-65.12 22.4,-21.22 49.62,-36.8 79.27,-45.31 -0.01,1.37 0.03,2.88 0.03,4.29 0,27.85 -3.3,55.62 -9.86,82.66 -3.17,12.91 -6.68,25.48 -10.53,37.59l-11.32 36.8c-7.57,24.39 -15.12,48.52 -22.67,72.37 -3.74,12 -7.7,23.66 -11.32,35.44 -1.93,5.77 -4.19,11.32 -6.34,17.32 -2.15,6 -4.42,11.32 -6.34,15.85l-129.87 -38.38z"/>
   <path class="fil0" d="M6231.94 4042.75c10.47,-0.82 20.97,-1.25 31.47,-1.25 13.01,0 26.17,0.68 39.09,1.93 23.57,2.05 47.41,5.32 70.66,9.77 11.32,2.26 23.55,4.53 35.33,7.24 11.85,2.46 23.7,5.76 35.19,9.71 25.92,8.75 49.98,22.55 70.65,40.53 -20.69,17.94 -44.72,31.8 -70.66,40.63 -11.51,3.95 -23.34,7.17 -35.22,9.62 -11.32,2.83 -23.55,5.1 -35.33,7.36 -23.55,4.38 -47.09,7.63 -70.64,9.74 -12.75,1.19 -25.62,1.87 -38.44,1.87 -10.69,0 -21.48,-0.48 -32.13,-1.31l0.02 -135.87z"/>
   <path class="fil6" d="M3221.97 3957.72c2.67,-53.89 8.46,-107.96 16.84,-161.29 8.15,-53.21 18.11,-106.09 29.55,-158.52 11.44,-52.43 24.35,-104.73 38.95,-156.59 14.44,-52.07 32.33,-103.92 52.41,-153.95 -2.55,53.89 -8.56,107.98 -17.12,161.35 -8.11,53.23 -17.94,106.07 -29.49,158.53 -11.55,52.46 -24.53,104.66 -38.95,156.59 -14.58,52 -32.38,103.7 -52.27,153.89l0.07 -0.02z"/>
   <path class="fil6" d="M5748.7 3957.72c2.67,-53.89 8.45,-107.96 16.84,-161.29 8.25,-53.26 18.11,-106.11 29.58,-158.57 11.47,-52.46 24.27,-104.62 38.38,-156.48 14.52,-52.11 31.86,-103.6 51.76,-153.81 -2.54,54.03 -8.55,107.94 -16.93,161.31 -8.28,53.27 -18.11,106.15 -29.51,158.61 -11.32,52.54 -24.46,104.73 -39.06,156.59 -14.19,51.78 -31.47,103.65 -50.99,153.65l-0.07 -0.01z"/>
   <g>
    <path class="fil1" d="M874.93 4141.03c22.66,-148.58 66.55,-293.67 129.41,-430.26l-129.41 430.26zm0 0l0 0 0 0z"/>
   </g>
   <path class="fil0" d="M807.56 4132.54c1.02,-11.32 2.04,-20.95 3.62,-30.91 1.59,-9.96 3.28,-19.48 5.21,-29.21 3.96,-19.25 8.49,-38.27 13.93,-56.61 10.65,-37.58 23.89,-74.57 39.29,-110.37 14.93,-36.09 32.84,-71.17 53.21,-104.43 21.35,-34.56 49.02,-64.97 81.4,-89.53 0.62,10.86 0.97,21.95 0.97,32.9 0,28.46 -2.23,57.06 -6.42,85.17 -2.83,18.46 -5.77,36.8 -9.4,54.8 -3.62,18 -6.57,36.12 -9.4,54.12l-18.46 107.45 -9.4 52.99c-1.36,8.83 -3.17,17.67 -4.75,26.27 -1.58,8.6 -3.4,17.78 -4.98,24.79l-134.83 -17.43z"/>
   <g>
    <path class="fil1" d="M6896.01 4455.12c0,0 -5.21,-235.28 -94.77,-539.29l94.77 539.29zm0 0l0 0 0 0z"/>
   </g>
   <path class="fil0" d="M6828.07 4456.47l-2.72 -31.25c-0.91,-11.32 -1.81,-21.85 -2.49,-32.72l-5.1 -66.12 -10.3 -133.61c-3.4,-44.72 -8.04,-89.56 -11.32,-135.08 -0.91,-22.65 -1.81,-45.97 -1.13,-69.52 0.17,-24.23 2.21,-48.49 5.7,-72.43 30.8,37.08 55.99,78.77 74.5,123.29 9.13,21.48 17.46,43.81 24.51,66.14 7.59,22.65 14.04,45.29 20.49,67.94 12.71,45.05 23.07,91.3 30.49,137.7 3.74,23.21 7.13,46.65 9.17,70.31 1.21,11.82 2.11,23.72 2.72,35.72 0.68,12.11 0.91,23.44 0.79,37.14l-135.31 2.49z"/>
   <path class="fil6" d="M3922.38 1505.6c-160.94,9.4 -321.89,28.3 -480.78,55.89 -39.4,7.7 -79.26,16.08 -118.21,23.32 -38.95,7.24 -78.12,18.23 -117.19,27.29l-116.17 30.8c-38.5,11.32 -76.65,23.55 -114.92,35.33 -152.74,48.9 -302.47,108.96 -446.54,178.16 -145.21,70.3 -286.71,150.2 -421.95,237.79 120.39,-110.11 254.5,-206.2 397.24,-284.79 142.93,-79.95 294.45,-146.01 450.21,-196.32 39.4,-11.32 78.58,-23.66 117.98,-34.53 39.4,-10.87 79.26,-20.61 119.45,-29.44 40.2,-8.83 80.39,-15.85 120.58,-22.65 40.2,-6.8 81.07,-12.11 121.6,-17.21 86.03,-10.5 173.75,-15.75 260.69,-15.75 75.9,0 152.59,4.2 227.97,12.08l0.03 0.03z"/>
   <path class="fil0" d="M2796.81 4215.53l-1365.95 0c-62.95,0 -125.91,-0.91 -188.86,0l-2.71 0c-59.22,0 -115.94,52.08 -113.22,113.22 1.03,62.1 51.13,112.2 113.22,113.23l1365.95 0c62.84,0 125.91,0.91 188.86,0l2.72 0c59.22,0 115.94,-52.08 113.22,-113.22 -1.07,-62.09 -51.14,-112.15 -113.21,-113.24l-0.01 0.01z"/>
   <path class="fil0" d="M6409.03 4215.53l-1365.95 0c-62.95,0 -125.91,-0.91 -188.86,0l-2.72 0c-59.22,0 -115.94,52.08 -113.22,113.22 1.02,62.1 51.13,112.2 113.22,113.23l1365.95 0c62.95,0 125.91,0.91 188.86,0l2.71 0c59.22,0 115.94,-52.08 113.22,-113.22 -1.07,-62.09 -51.14,-112.15 -113.22,-113.24l-0.01 0.01z"/>
   <g>
    <circle class="fil14" cx="3649.11" cy="687.32" r="602.1"/>
    <path class="fil15" d="M3649.11 1289.43c0.05,0 0.2,0 0.27,0 332.4,0 601.97,-269.57 601.97,-601.97 0,-41.89 -4.41,-83.86 -13.08,-124.8 -390.33,-60.49 -795.11,-25.36 -1189.12,76.09 -1.27,15.98 -2.16,32.08 -2.16,48.44 0.02,-0.01 0.02,0.14 0.02,0.14 0,332.48 269.63,602.1 602.1,602.1 0,0 0,0 0,0l-0 0z"/>
    <circle class="fil3 str6" cx="3649.11" cy="687.32" r="602.1"/>
    <path class="fil14" d="M463.85 4060.4c0,-0.4 0,-1.58 0,-1.98 0,-244.45 28,-488.91 82.8,-727.04 10.99,-47.02 22.92,-93.57 35.77,-139.64 36.78,-409.6 253.63,-747.43 543.51,-1049.12 60.36,-48.31 72.41,-156.86 132.77,-217.23 205.18,-180.96 386.14,-362.05 615.42,-507.25 941.2,-603.37 2184.08,-929.15 3185.65,-374.09 205.05,108.55 434.33,168.92 603.25,313.73 325.91,277.47 555.06,603.37 880.96,868.79 289.51,240.94 337.83,627.47 440.54,964.66 12.93,45.99 24.81,92.49 35.63,139.49 54.93,238.28 82.93,482.74 82.93,727.19 0,0.39 0,1.57 0,1.97l-6639.24 0.52z"/>
    <path class="fil15" d="M546.78 3331.22c-54.93,238.29 -82.93,482.74 -82.93,727.19 0,0.39 0,1.57 0,1.97l1052.53 0.01c-19.78,-1022.87 -282.28,-1877.07 1049.25,-2918.33 -955.15,362.56 -1825.46,1158.81 -2018.85,2189.15z"/>
    <path class="fil15" d="M691.09 2766.78c-58.43,134.89 -95.35,278.53 -108.73,424.88 -12.81,46.03 -24.67,92.55 -35.58,139.56 -54.93,238.29 -82.93,482.74 -82.93,727.19 0,0.39 0,1.57 0,1.97l2536.87 0.01c267.3,-21 540.07,-31.24 808.99,-31.24 268.93,0 541.7,10.24 809.35,30.73l2484.03 0.51c-0,-0.4 -0,-1.58 -0,-1.98 0,-244.45 -28,-488.91 -82.8,-727.04 -10.99,-47.02 -22.92,-93.57 -35.77,-139.64 -43.88,-144.18 -77.99,-297.25 -125.03,-443.84 -2052.96,-759.6 -4129,-743.49 -6168.39,18.9z"/>
    <path class="fil3 str0" d="M463.85 4060.4c0,-0.4 0,-1.58 0,-1.98 0,-244.45 28,-488.91 82.8,-727.04 10.99,-47.02 22.92,-93.57 35.77,-139.64 36.78,-409.6 253.63,-747.43 543.51,-1049.12 60.36,-48.31 72.41,-156.86 132.77,-217.23 205.18,-180.96 386.14,-362.05 615.42,-507.25 941.2,-603.37 2184.08,-929.15 3185.65,-374.09 205.05,108.55 434.33,168.92 603.25,313.73 325.91,277.47 555.06,603.37 880.96,868.79 289.51,240.94 337.83,627.47 440.54,964.66 12.93,45.99 24.81,92.49 35.63,139.49 54.93,238.28 82.93,482.74 82.93,727.19 0,0.39 0,1.57 0,1.97l-6639.24 0.52z"/>
    <path class="fil14" d="M274.77 3214.56c2325.99,-989.13 4706.5,-1002.58 7049.99,0 222.3,95.11 221.03,1773.72 0,1696.87 -2288.58,-796.76 -4708.91,-805.26 -7049.99,0 -278.48,95.74 -251.34,-1589.97 0,-1696.87z"/>
    <path class="fil0" d="M6944.83 4321.37c10.48,41 16.29,83.25 17.1,125.55 1.14,41.47 -1.4,82.68 -3.3,124.02l-4.57 61.76c-2.03,20.55 -4.06,41.09 -6.59,61.5 -5.07,40.96 -11.28,81.67 -20.16,121.87l-99.8 -17.88c5.58,-40.2 12.68,-80.02 20.8,-119.84l12.68 -59.73 12.68 -59.6c9.38,-39.69 17.37,-79.51 28.15,-119.2 10.64,-40.71 25.17,-80.46 43.04,-118.46l-0.03 0.01z"/>
    <path class="fil0" d="M6926.82 3037.53c19.42,79.16 35.17,160.04 46.02,240.93 5.45,40.45 9.89,81.03 13.82,121.61 3.93,40.58 6.21,81.42 8.37,122.12 3.3,81.42 4.69,162.83 0.76,244.11 -3.43,81.2 -14.05,162.81 -31.04,242.3 -12.68,-81.03 -21.18,-161.05 -29.42,-240.94 -8.24,-79.89 -15.35,-159.15 -26,-238.15 -4.95,-39.57 -10.53,-78.88 -16.48,-118.19 -5.96,-39.31 -12.68,-78.5 -19.27,-117.55 -13.57,-78.24 -29.17,-155.85 -45.52,-233.46l98.76 -22.77z"/>
    <path class="fil3 str7" d="M5897.99 2777.95c95.87,543.64 85.09,1134.84 0,1759.26"/>
    <path class="fil3 str7" d="M5002.83 2595.46c65.31,544.02 57.95,1135.6 0,1760.53"/>
    <path class="fil0" d="M4186.92 3215.07c15.3,86.71 25.47,174.43 30.01,262.15 5.07,87.5 6.59,175 8.24,262.63l0 131.38c0,43.75 0,87.5 -1.52,131.25 -1.9,87.5 -5.07,175 -11.03,262.37l-101.45 -5.07c2.79,-87.12 7.23,-174.11 11.92,-261.11l15.35 -260.85c5.83,-86.99 10.4,-174.11 17.12,-261.23 6.72,-87.12 16.65,-174.15 31.36,-261.52z"/>
    <path class="fil0" d="M4213.3 2497.44c2.32,24.07 3.59,48.63 3.59,72.92 0,2.45 0,5.17 0,7.61 0,13.44 -0.63,26.88 -1.01,40.32l-1.69 40.45c-2.16,26.88 -4.06,53.89 -8.62,80.91 -4.6,28.27 -13.56,55.69 -26.36,81.27 -15.2,-24.41 -26.77,-50.98 -34.26,-78.74 -7.23,-26.38 -11.79,-52.75 -16.61,-79.26l-6.21 -39.57c-1.65,-13.32 -3.55,-26.5 -4.95,-39.69 -2.9,-26.02 -4.43,-52.33 -4.43,-78.56 0,-0.34 0,-0.85 0,-1.19l100.57 -6.47z"/>
    <path class="fil3 str7" d="M3348.82 2494.52c4.44,545.29 3.93,1137.12 0,1762.69"/>
    <path class="fil3 str7" d="M2532.4 2577.33c-26.12,545.29 -23.21,1137.88 0,1764.08"/>
    <path class="fil0" d="M1644.59 3661.19c14.94,69.97 26.93,141.64 34.42,212.82 7.99,70.89 13.82,141.65 20.93,212.41l19.15 212.16c5.96,70.64 11.79,141.39 15.85,212.28l-101.45 8.12c-7.36,-71.14 -11.79,-142.54 -14.96,-213.93 -1.65,-35.76 -2.54,-71.52 -3.55,-107.28l-1.27 -107.28c0,-71.52 0.63,-143.17 4.44,-214.69 3.35,-71.92 12.62,-143.97 26.46,-214.57l-0 -0.03z"/>
    <path class="fil0" d="M1734.75 2754.87c-3.17,46.29 -8.12,92.32 -13.32,138.35l-8.37 69.11 -9.13 69.11c-6.85,46.16 -12.05,92.32 -20.29,138.6 -7.88,46.98 -19.88,93.52 -35.53,138.48 -13.13,-46.05 -21.67,-93.49 -25.29,-141.27 -3.8,-47.18 -4.06,-94.09 -4.82,-141.27l0 -70.51c0.76,-23.59 1.4,-47.05 2.54,-70.51 2.54,-47.05 6.21,-93.97 12.68,-140.63l101.53 10.52z"/>
    <path class="fil3 str7" d="M775.8 3011.91c-86.99,545.29 -77.23,1139.41 0,1766.49"/>
    <path class="fil0" d="M6966.89 4205.59c26.26,0 47.55,-21.29 47.55,-47.55 0,-26.26 -21.29,-47.56 -47.56,-47.56 -26.26,0 -47.55,21.3 -47.55,47.56 0.34,26.11 21.44,47.21 47.55,47.55l0 0z"/>
    <path class="fil3 str8" d="M7032.96 3023.71c126.81,543.26 112.23,1134.08 0,1758.12"/>
    <path class="fil3 str8" d="M6052.96 2752.58c95.87,543.64 85.09,1134.84 0,1759.39"/>
    <path class="fil3 str8" d="M5157.41 2568.07c65.31,544.02 57.95,1135.6 0,1760.53"/>
    <path class="fil3 str8" d="M4316.39 2471.31c34.75,544.28 30.94,1136.36 0,1761.67"/>
    <path class="fil3 str8" d="M3501.5 2462.94c4.31,544.66 3.93,1137.12 0,1762.69"/>
    <path class="fil3 str8" d="M2684.07 2543.72c-26.12,545.29 -23.21,1137.88 0,1764.08"/>
    <path class="fil3 str8" d="M1835.32 2714.54c-56.56,545.29 -50.72,1138.65 0,1765.35"/>
    <path class="fil3 str8" d="M926.45 2976.28c-86.99,545.29 -77.23,1139.41 0,1766.49"/>
    <path class="fil3 str0" d="M274.77 3214.56c2325.99,-989.13 4706.5,-1002.58 7049.99,0 222.3,95.11 221.03,1773.72 0,1696.87 -2288.58,-796.76 -4708.91,-805.26 -7049.99,0 -278.48,95.74 -251.34,-1589.97 0,-1696.87z"/>
    <path class="fil0" d="M2828.89 2292.51c161.47,-33.58 325.89,-58.52 489.8,-72.77 41.21,-3.55 82.3,-7.1 123.52,-9.89l123.64 -7.1c41.34,-1.78 82.55,-2.54 123.9,-3.8l123.9 -1.65c164.85,0 330.35,7.99 494.57,23.34 163.75,14.61 328.48,39.72 489.2,73.87 -164.85,-3.68 -329.71,-10.02 -493.04,-14.33 -163.33,-4.31 -327.68,-6.21 -491.4,-6.59l-122.64 -0.09c-40.96,0 -81.92,1.52 -122.88,1.4l-122.75 1.78c-40.96,1.4 -81.92,2.03 -123.01,2.54 -163.59,4.19 -327.68,10.02 -492.8,13.31z"/>
    <path class="fil6" d="M1821.37 1659.84c89.37,-71.26 184.93,-136.96 283.91,-194.41 98.66,-58.59 200.49,-112.1 304.35,-160.54 25.36,-12.68 52.38,-23.59 78.62,-35.25 26.25,-11.67 52.38,-23.59 79.13,-33.86 53.51,-20.93 106.52,-42.86 161.05,-60.87 107.68,-38.44 218.88,-70.69 330.41,-95.22 -26.25,11.54 -52.75,22.57 -79.26,33.35 -26.51,10.78 -53.13,20.8 -79.26,32.46 -52.63,22.06 -105.38,43.37 -157.63,66.2l-39.19 16.87c-12.68,5.45 -26.38,10.78 -39.31,16.74l-77.99 34.62c-26.12,11.16 -51.87,23.21 -77.86,34.87 -26,11.67 -51.87,23.34 -77.35,35.89l-77.35 35.89c-25.36,12.68 -50.72,25.36 -76.72,38.04 -50.72,24.6 -101.45,50.72 -152.81,76.09 -101.37,51.09 -202.32,103.97 -302.75,159.14z"/>
   </g>
  </g>
 </g>
</svg>
