<?xml version="1.0" encoding="UTF-8"?>
<!DOCTYPE svg PUBLIC "-//W3C//DTD SVG 1.1//EN" "http://www.w3.org/Graphics/SVG/1.1/DTD/svg11.dtd">
<!-- Creator: CorelDRAW -->
<svg xmlns="http://www.w3.org/2000/svg" xml:space="preserve" width="176.827mm" height="259.558mm" version="1.1" style="shape-rendering:geometricPrecision; text-rendering:geometricPrecision; image-rendering:optimizeQuality; fill-rule:evenodd; clip-rule:evenodd"
viewBox="0 0 3848.66 5649.32"
 xmlns:xlink="http://www.w3.org/1999/xlink"
 xmlns:xodm="http://www.corel.com/coreldraw/odm/2003">
 <defs>
  <style type="text/css">
   <![CDATA[
    .str5 {stroke:#592D3D;stroke-width:34.55;stroke-miterlimit:22.9256}
    .str1 {stroke:#592D3D;stroke-width:69.1;stroke-miterlimit:22.9256}
    .str4 {stroke:white;stroke-width:138.21;stroke-miterlimit:22.9256}
    .str3 {stroke:white;stroke-width:92.14;stroke-miterlimit:22.9256}
    .str6 {stroke:#592D3D;stroke-width:86.68;stroke-miterlimit:22.9256}
    .str7 {stroke:#592D3D;stroke-width:51.6;stroke-miterlimit:22.9256}
    .str8 {stroke:#C46565;stroke-width:51.6;stroke-miterlimit:22.9256}
    .str0 {stroke:#592D3D;stroke-width:77.4;stroke-miterlimit:22.9256}
    .str2 {stroke:#592D3D;stroke-width:69.1;stroke-linecap:square;stroke-miterlimit:22.9256}
    .fil3 {fill:none;fill-rule:nonzero}
    .fil11 {fill:#592D3D}
    .fil8 {fill:black;fill-rule:nonzero}
    .fil0 {fill:#592D3D;fill-rule:nonzero}
    .fil9 {fill:#61DAFB;fill-rule:nonzero}
    .fil2 {fill:#67B7D6;fill-rule:nonzero}
    .fil1 {fill:#85C5E5;fill-rule:nonzero}
    .fil14 {fill:#C46565;fill-rule:nonzero}
    .fil13 {fill:#D67070;fill-rule:nonzero}
    .fil7 {fill:#E2E2E2;fill-rule:nonzero}
    .fil12 {fill:#F28195;fill-rule:nonzero}
    .fil5 {fill:#F3AB98;fill-rule:nonzero}
    .fil4 {fill:#FDD2B2;fill-rule:nonzero}
    .fil6 {fill:white;fill-rule:nonzero}
    .fil10 {fill:black;fill-rule:nonzero;fill-opacity:0.101961}
   ]]>
  </style>
 </defs>
 <g id="Capa_x0020_1">
  <metadata id="CorelCorpID_0Corel-Layer"/>
  <g id="_2762860503488">
   <g>
    <path class="fil0 str0" d="M139.75 2548.03c1183.01,502.76 2393.75,509.92 3585.66,0 113.06,-48.37 112.42,-902.12 0,-863.04 -1163.98,405.24 -2394.98,409.56 -3585.66,0 -141.63,-48.95 -127.83,808.41 0,863.04z"/>
   </g>
   <path class="fil1" d="M1938.17 659.54c-956.75,0 -1732.39,775.58 -1732.39,1732.39l0 941.14c54.59,60.58 146.1,112.7 264.9,156.58l76.71 -229.02 83.27 279.07c879.7,234.03 2687.64,145.58 3039.9,-206.62l-0 -941.14c0,-956.81 -775.64,-1732.39 -1732.39,-1732.39z"/>
   <path class="fil2" d="M447.59 3480.89c7.6,2.94 15.26,5.76 23.03,8.75l76.76 -229.02 83.27 279.07c260.41,69.1 602.07,110.28 963.31,124.56l157.1 -150.99 -1344.13 -1011.46c0,0 -35.36,584.22 40.66,979.09z"/>
   <path class="fil2" d="M2603.24 2636.26l145.75 983.35c200.4,-24.99 383.64,-59.14 536.19,-102.1l-0 0c0,0 190.56,-212.44 170,-1015.72 -20.56,-803.28 -851.94,134.46 -851.94,134.46z"/>
   <path class="fil3 str1" d="M1938.17 659.54c-956.75,0 -1732.39,775.58 -1732.39,1732.39l0 941.14c54.59,60.58 146.1,112.7 264.9,156.58l76.71 -229.02 83.27 279.07c879.7,234.03 2687.64,145.58 3039.9,-206.62l-0 -941.14c0,-956.81 -775.64,-1732.39 -1732.39,-1732.39z"/>
   <path class="fil4" d="M2561.78 3822.2c522.66,0 414.63,657.87 419.64,1389.46l-419.64 0 0 -1389.46z"/>
   <path class="fil5" d="M2692.73 4243.45l-130.95 219.58 65.53 748.63 182.89 0c4.43,-1038.12 -117.48,-968.21 -117.48,-968.21z"/>
   <path class="fil4" d="M392.19 2332.32c0,-848.37 687.76,-1536.13 1536.13,-1536.13 848.37,0 1536.13,687.76 1536.13,1536.13 0,0.34 0,1.09 0,1.46 0,462.3 -208.88,900.46 -568.05,1191.31 -31.55,25.62 -64.08,49.97 -97.6,73.04 -346.44,219.92 -784.1,219.92 -1179.21,184.74 -38.35,-5.76 -76.59,-13.02 -114.54,-21.36 -151.63,-33.4 -298.41,-84.94 -434.03,-160.09 -33.52,-20.66 -66.01,-42.96 -97.49,-66.92 -31.56,-23.99 -62.01,-49.95 -90.92,-77.03 -27.46,-25.47 -53.95,-51.93 -79.48,-79.38 -263.84,-283.21 -410.94,-656.48 -410.94,-1043.76 0,-0.56 0,-1.5 0,-2.06l-0 0.04z"/>
   <path class="fil5" d="M601.58 3106.75c4.03,6.91 8.01,13.82 12.15,20.62 2.48,4.15 5.07,8.18 7.66,12.32 3.8,6.16 7.6,12.32 11.52,18.37 2.76,4.38 5.76,8.64 8.41,12.9 3.8,5.76 7.6,11.52 11.52,17.28 2.94,4.38 5.76,8.75 8.98,13.13 3.8,5.76 7.6,11.06 11.52,16.59 3.11,4.43 6.33,8.81 9.5,13.24 3.17,4.43 7.72,10.65 11.52,15.95 3.8,5.3 6.62,8.81 9.96,13.19 3.34,4.38 7.89,10.37 11.92,15.55 4.03,5.18 6.85,8.7 10.31,13.02 3.45,4.32 8.12,10.14 12.21,15.15 4.09,5.01 7.08,8.58 10.65,12.84 3.57,4.26 8.29,9.91 12.5,14.8 4.2,4.89 7.31,8.46 11,12.67l12.78 14.4c3.74,4.2 7.54,8.29 11.52,12.44 4.95,5.41 9.96,10.77 14.97,16.07l6.97 7.37c7.43,7.72 14.92,15.43 22.52,23.03l1.5 1.55c7.43,7.37 14.97,14.68 22.52,21.94l9.1 8.64c5.47,5.13 10.94,10.25 16.47,15.32l6.68 6.11c5.76,5.41 12.04,10.71 18.08,16.01 18.81,16.39 38,32.11 57.58,47.16 31.44,23.96 63.94,46.26 97.49,66.92 135.62,74.86 282.18,126.69 434.03,160.09 37.95,8.35 76.19,15.55 114.54,21.36 242.44,21.6 501.01,29.83 744.48,-17.74 -387.16,-113.96 -2246.4,-783.47 -1076.18,-2829.3l0 0c-15.66,7.2 -31.1,14.63 -46.41,22.34l-3.4 1.67c-7.03,3.51 -14.05,7.14 -21.02,10.83l-5.76 3.05c-21.65,11.52 -43.08,23.44 -64.09,35.88l-5.18 3.05c-6.68,3.97 -13.3,8.01 -19.93,12.09l-5.01 3.11c-20.58,12.86 -40.83,26.16 -60.76,39.91l-6.22 4.32c-6.28,4.38 -12.44,8.75 -18.6,13.19l-3.8 2.71c-12.55,9.17 -24.95,18.47 -37.2,27.87l-3.57 2.76c-5.76,4.49 -11.52,9.1 -17.28,13.76l-6.74 5.41c-5.76,4.66 -11.52,9.33 -17.28,14.11l0 0c-12.15,10.08 -24.13,20.44 -35.93,30.92l-6.56 5.76 -15.49 14.11 -7.49 6.8c-16.43,15.36 -32.5,31.04 -48.2,47.05l-7.95 8.12c-4.55,4.72 -9.1,9.44 -13.59,14.22 -2.65,2.82 -5.3,5.76 -7.89,8.52 -7.91,8.44 -15.7,17.01 -23.38,25.68 -2.59,2.94 -5.24,5.76 -7.83,8.87 -4.09,4.66 -8.12,9.39 -12.15,14.11l-8.7 10.31c-3.92,4.66 -7.83,9.33 -11.52,14.05 -3.11,3.8 -6.22,7.66 -9.27,11.52 -6.16,7.66 -12.21,15.32 -18.2,23.03 -3.11,4.03 -6.22,8.06 -9.27,12.15 -3.05,4.09 -6.91,9.16 -10.31,13.82 -3.4,4.66 -6.16,8.35 -9.16,12.55 -2.99,4.21 -6.51,8.93 -9.67,13.42 -5.45,7.68 -10.82,15.45 -16.12,23.32 -2.88,4.2 -5.76,8.52 -8.58,12.78 -2.82,4.26 -6.33,9.56 -9.44,14.4l-8.58 13.3 -9.67 15.61c-2.48,3.97 -4.95,7.95 -7.37,11.92 -5.13,8.41 -10.08,16.87 -15.03,25.34l-7.03 12.44c-3.11,5.47 -6.22,11 -9.27,16.53 -2.3,4.2 -4.61,8.41 -6.85,12.61 -3.68,6.85 -7.31,13.76 -10.94,20.67l-6.91 13.47c-3.68,7.37 -7.37,14.68 -11,22.11 -1.9,3.97 -3.86,8.01 -5.76,12.04 -2.99,6.28 -5.76,12.61 -8.81,18.95 -1.78,3.8 -3.51,7.6 -5.24,11.52 -4.26,9.48 -8.42,19.07 -12.49,28.79 -1.27,2.99 -2.48,6.05 -3.74,9.04 -3.05,7.31 -6.05,14.63 -8.98,22 -1.55,3.86 -3.05,7.72 -4.55,11.52 -2.88,7.26 -5.76,14.57 -8.35,21.88 -1.21,3.17 -2.42,6.33 -3.57,9.5 -3.61,10.1 -7.16,20.19 -10.65,30.29l-3.23 9.79c-2.53,7.68 -5.01,15.36 -7.43,23.03l-3.46 11c-2.71,8.87 -5.36,17.74 -7.89,26.66 -0.58,1.9 -1.15,3.8 -1.67,5.76 -2.99,10.6 -5.87,21.23 -8.64,31.9 -0.92,3.4 -1.73,6.85 -2.59,10.25 -2.02,8.01 -3.97,16.01 -5.76,24.07l-2.42 10.08c-2.48,10.94 -4.89,21.88 -7.14,32.88l-0.86 4.43c-1.96,9.79 -3.87,19.58 -5.76,29.37 -0.63,3.51 -1.21,6.97 -1.84,10.48 -1.5,8.58 -2.94,17.28 -4.26,25.91 -0.46,2.94 -0.98,5.76 -1.38,8.75 -1.73,11.23 -3.28,22.52 -4.78,33.86l-0.86 7.49c-1.15,9.16 -2.19,18.37 -3.17,27.59 -0.35,3.46 -0.75,6.91 -1.09,10.42 -0.92,9.67 -1.78,19.41 -2.59,29.14 0,2.02 -0.35,3.97 -0.46,5.76 -0.84,11.51 -1.59,23.13 -2.24,34.84 0,3.05 0,6.16 -0.4,9.21 -0.39,9.06 -0.73,18.1 -1.04,27.13 0,3.4 0,6.8 0,10.19 0,11.81 -0.46,23.67 -0.46,35.53 0,0 0,0.4 0,0.58 0,12.78 0,25.45 0.46,38.12 0,4.38 0.35,8.75 0.46,13.13 0.29,8.46 0.58,16.93 0.98,25.4 0,5.13 0.63,10.19 0.92,15.32 0.46,7.66 0.86,15.32 1.44,23.03 0.4,5.76 0.92,10.88 1.38,16.3 0.63,7.26 1.21,14.51 1.96,21.71 0.52,5.76 1.21,11.17 1.78,16.76 0.81,6.97 1.55,13.99 2.42,20.96 0.69,5.76 1.5,11.52 2.25,16.99 0.92,6.8 1.84,13.65 2.88,20.44 0.86,5.76 1.78,11.52 2.71,17.28 1.04,6.68 2.13,13.42 3.28,20.1 1.04,5.76 2.07,11.52 3.17,17.28 1.21,6.62 2.48,13.24 3.74,19.81 1.27,6.57 2.36,11.52 3.57,17.28 1.38,6.56 2.76,13.07 4.26,19.58 1.5,6.51 2.53,11.52 3.92,16.87 1.5,6.51 3.11,12.96 4.72,19.35 1.61,6.39 2.82,11.23 4.26,16.76 1.73,6.45 3.46,12.84 5.24,19.23 1.5,5.76 3.05,11.06 4.66,16.53 1.84,6.39 3.74,12.73 5.76,19.06 2.02,6.34 3.34,10.88 5.07,16.35 1.73,5.47 4.03,12.61 6.11,18.89 2.07,6.28 3.57,10.77 5.41,16.12 2.19,6.28 4.38,12.55 6.62,18.83 1.9,5.24 3.74,10.54 5.76,15.78l7.14 18.83c2.02,5.13 3.97,10.31 5.76,15.43 2.53,6.28 5.13,12.61 7.72,18.89 2.07,4.95 4.09,9.96 6.22,14.92 2.71,6.45 5.76,12.78 8.35,19.18 2.13,4.72 4.2,9.5 6.33,14.22 2.99,6.68 6.16,13.24 9.21,19.81l6.22 13.24c3.51,7.26 7.14,14.4 10.77,21.6 1.84,3.63 3.57,7.31 5.47,10.94 11.05,21.53 22.57,42.78 34.55,63.74 1.67,2.71 3.8,6.22 5.87,9.73z"/>
   <path class="fil3 str1" d="M392.19 2332.32c0,-848.37 687.76,-1536.13 1536.13,-1536.13 848.37,0 1536.13,687.76 1536.13,1536.13 0,0.34 0,1.09 0,1.46 0,462.3 -208.88,900.46 -568.05,1191.31 -31.55,25.62 -64.08,49.97 -97.6,73.04 -346.44,219.92 -784.1,219.92 -1179.21,184.74 -38.35,-5.76 -76.59,-13.02 -114.54,-21.36 -151.63,-33.4 -298.41,-84.94 -434.03,-160.09 -33.52,-20.66 -66.01,-42.96 -97.49,-66.92 -31.56,-23.99 -62.01,-49.95 -90.92,-77.03 -27.46,-25.47 -53.95,-51.93 -79.48,-79.38 -263.84,-283.21 -410.94,-656.48 -410.94,-1043.76 0,-0.56 0,-1.5 0,-2.06l-0 0.04z"/>
   <path class="fil4" d="M1272.52 3822.2c-522.72,0 -414.63,657.87 -419.64,1389.46l419.64 0 0 -1389.46z"/>
   <path class="fil5" d="M1163.74 4243.45l131.12 219.58 -65.59 748.63 -182.72 0c-4.66,-1038.12 117.19,-968.21 117.19,-968.21z"/>
   <path class="fil4" d="M2616.31 5614.77l-1375.98 0c-42.21,-0.03 -76.42,-34.26 -76.42,-76.48 0,0 0,0 0,0l-0 -1639.61c0,-0 0,-0 0,-0 0,-42.21 34.21,-76.45 76.42,-76.48l1343.09 0c75.38,0 109.42,44.11 109.42,114.48l0 1601.37c0,0.07 0,0.16 0,0.23 0,42.23 -34.25,76.48 -76.48,76.48 -0.02,0 -0.04,0 -0.06,0z"/>
   <path class="fil5" d="M2671.48 3867.7c-5.73,-7.03 -10.61,-14.81 -14.45,-23.03 -13.81,-10.83 -30.28,-17.82 -47.68,-20.22 -8.42,-1.31 -16.95,-1.96 -25.45,-1.96 -0.14,0 -0.32,0 -0.47,0l-1343.1 0c-42.09,0.03 -76.26,34.09 -76.42,76.18 167,60.01 479.64,93.52 764.41,93.52 363.14,0 601.09,-53.84 743.16,-124.5z"/>
   <path class="fil3 str2" d="M2561.78 3822.2c522.66,0 414.63,657.87 419.64,1389.46l-288.68 0"/>
   <path class="fil3 str2" d="M1272.52 3822.2c-522.72,0 -414.63,657.87 -419.64,1389.46l288.34 0"/>
   <line class="fil3 str1" x1="1240.33" y1="3822.78" x2="2583.43" y2= "3822.2" />
   <path class="fil5" d="M1240.33 5614.77l671.58 0c-628.56,0 -581.11,-1331.29 -748,-1331.29l0 1254.59c0,0.07 0,0.16 0,0.23 0,42.21 34.21,76.45 76.42,76.48l-0 0z"/>
   <path class="fil0" d="M1129.36 4410.34c-1.09,-21.13 -0.63,-42.27 0.29,-63.35 0.92,-21.08 2.71,-42.33 4.95,-63.35 1.15,-10.6 2.3,-21.13 3.74,-31.73 1.44,-10.6 2.82,-21.13 4.89,-31.73 4.06,-21.91 11.05,-43.25 20.67,-63.34 9.63,20.1 16.62,41.44 20.69,63.33 2.07,10.6 3.57,21.13 4.89,31.73 1.33,10.6 2.59,21.13 3.74,31.73 2.19,21.13 3.92,42.27 4.89,63.35 0.98,21.08 1.44,42.27 0.35,63.35l-69.12 0.01z"/>
   <path class="fil3 str1" d="M2692.73 4463.03l0 46.07c1.5,195.79 1.5,397.35 0,591.7 0,16.53 0,32.94 0,49.12l0 388.19c0,0.05 0,0.11 0,0.17 0,42.21 -34.21,76.45 -76.42,76.48l-1375.98 0c-42.21,-0.03 -76.42,-34.26 -76.42,-76.48 0,0 0,0 0,0l-0 -335.15c0,-14.45 0,-29.2 0,-44.05 -1.44,-200.8 -1.44,-402.36 0,-606.39l0 -142.35"/>
   <path class="fil0" d="M2658.18 4463.03c-1.09,-24.01 -0.58,-48.09 0.35,-72.16 0.92,-24.07 2.71,-48.09 4.89,-72.16 1.15,-12.04 2.36,-24.07 3.74,-36.11 1.38,-12.03 2.82,-24.01 4.89,-36.05 3.98,-24.77 10.99,-49.05 20.67,-72.17 9.68,23.12 16.69,47.41 20.68,72.16 2.07,12.04 3.57,24.07 4.89,36.05 1.33,11.98 2.59,24.07 3.74,36.11 2.19,24.07 3.97,48.09 4.89,72.16 0.92,24.07 1.44,48.14 0.35,72.16l-69.12 0.02z"/>
   <path class="fil3 str1" d="M1940.24 4514.05c0,220.37 -178.73,399.06 -399.13,399.06 -220.4,0 -399.14,-178.74 -399.14,-399.14 0,-62.96 14.91,-125.09 43.46,-181.17"/>
   <g>
    <path class="fil4" d="M1185.45 4332.83c21.82,-42.58 51.12,-80.99 86.39,-113.27l-86.39 113.27zm0 0l0 0 0 0z"/>
   </g>
   <path class="fil0" d="M1154.64 4317.11c5.06,-11.98 11.61,-23.29 19.47,-33.64 7.76,-10.33 16.56,-20.02 26.08,-28.78 4.84,-4.38 9.73,-8.64 14.86,-12.61 5.09,-4.11 10.5,-7.83 16.18,-11.07 12.28,-7.08 26.14,-11.04 40.31,-11.51 -1.47,13.46 -4.9,26.7 -10.07,39.21 -2.25,5.76 -4.78,10.83 -7.43,15.95l-7.49 15.37c-4.89,10.14 -9.73,20.1 -14.68,29.89 -4.74,9.84 -10.11,19.53 -15.89,28.81l-61.34 -31.63z"/>
   <g>
    <path class="fil4" d="M1866.88 4283.47c47.71,67.19 73.37,147.62 73.37,230.04 0,0.1 0,0.19 0,0.29l-73.37 -230.34zm0 0l0 0 0 0z"/>
   </g>
   <path class="fil0" d="M1866.88 4283.47c19.66,10.64 36.76,25.49 50.05,43.47 6.61,8.73 12.58,17.98 17.84,27.59 5.36,9.62 10.19,19.52 14.68,29.66 8.81,20.3 15.56,41.65 19.93,63.35 3.7,18.24 5.62,36.87 5.62,55.5 0,3.61 -0.07,7.32 -0.2,10.9l-69.12 0c-1.09,-18.72 -2.07,-37.32 -4.03,-56.03 -1.96,-18.72 -4.43,-37.32 -8.06,-56.09l-2.88 -14.05 -3.34 -14.11c-2.42,-9.39 -5.01,-18.77 -7.43,-28.39 -5.4,-20.28 -9.86,-41.08 -13.09,-61.8l0.02 0.01z"/>
   <g>
    <path class="fil4" d="M2744.04 4514.05c0,-0.16 0,-0.3 0,-0.45 0,-110.29 -45.79,-215.63 -126.34,-290.92l126.34 291.37zm0 0l0 0 0 0z"/>
   </g>
   <path class="fil0" d="M2709.49 4514.05c-0.93,-24.75 -3.41,-49.58 -7.25,-74.02 -4.05,-24.75 -10.09,-49.28 -17.98,-73.02 -1.96,-5.76 -4.26,-11.92 -6.39,-17.91 -2.13,-5.99 -4.84,-11.81 -7.2,-17.8 -2.36,-5.99 -5.41,-11.52 -7.95,-17.56l-8.41 -17.28c-11.52,-23.61 -24.01,-47.16 -36.63,-73.42 26.68,11.38 50.69,28.3 70.38,49.6 4.78,5.41 9.79,10.71 14.22,16.41 4.43,5.7 8.87,11.52 12.96,17.28 4.09,5.76 8.24,12.04 11.92,18.31 3.68,6.28 7.54,12.55 10.83,19.12 13.71,26 24.2,53.72 31.11,82.31 6.29,25.46 9.47,51.76 9.47,78.02 0,3.3 -0.08,6.69 -0.16,9.95l-68.93 0z"/>
   <path class="fil3 str1" d="M1945.6 4514.05c0.02,1.53 -0.03,3.23 -0.03,4.79 0,220.4 178.74,399.14 399.14,399.14 220.4,0 399.14,-178.74 399.14,-399.14 0,-1.56 -0.05,-3.26 -0.05,-4.78"/>
   <g>
    <path class="fil4" d="M2019.14 4283.47c-47.65,67.11 -73.31,147.59 -73.31,229.96 0,0.1 0,0.29 0,0.39l73.31 -230.35zm0 0l0 0 0 0z"/>
   </g>
   <path class="fil0" d="M2019.14 4283.47c-3.25,20.77 -7.65,41.57 -13.07,61.93 -2.42,9.62 -5.01,19 -7.43,28.39l-3.28 14.11 -2.88 14.05c-3.63,18.77 -6.28,37.43 -8.12,56.09 -1.84,18.66 -2.88,37.32 -3.97,56.03l-69.34 -0.03c-0.13,-3.74 -0.24,-7.61 -0.24,-11.38 0,-18.47 1.92,-36.94 5.65,-55.02 4.36,-21.72 11.06,-43.06 19.91,-63.36 4.43,-10.14 9.27,-20.04 14.63,-29.66 5.29,-9.57 11.28,-18.84 17.86,-27.56 13.35,-18.02 30.56,-32.94 50.28,-43.6l0.01 -0z"/>
   <line class="fil3 str1" x1="1257.09" y1="4276.16" x2="1257.09" y2= "3822.2" />
   <line class="fil3 str1" x1="2598.98" y1="4276.16" x2="2598.98" y2= "3822.2" />
   <path class="fil6 str1" d="M1758.44 4623.01l310.39 0 0 113.45c-102.16,-34.84 -205.64,-33.98 -310.39,0l0 -113.45z"/>
   <path class="fil6 str1" d="M2723.6 4514.05c0,-0.13 0,-0.42 0,-0.57 0,-100.89 -38.4,-198.05 -107.3,-271.7 -24.3,-26.03 -254.94,35.65 -390.5,156.98 -133.08,119.15 -248.95,313.79 -232.36,338.32 74.18,110.08 198.29,176.11 331.03,176.11 220.4,0 399.14,-178.74 399.14,-399.14 0,0 0,0 0,0l0 -0z"/>
   <path class="fil6" d="M2493.31 4338.59c-35.24,21.13 -69.97,41.35 -103.66,63.35 -33.21,21.11 -65.2,44.83 -95.24,70.19 -29.66,25.68 -58.22,53.67 -86.38,82.12 -28.16,28.45 -55.8,57.59 -84.94,86.78 17.71,-37.11 39.3,-72.26 64.4,-104.67 25,-32.86 53.55,-63.44 84.72,-90.58 31.74,-26.87 66.97,-49.65 104.51,-67.56 36.94,-18.13 76.25,-31.51 116.61,-39.61l-0.03 -0.02z"/>
   <path class="fil6 str1" d="M1133.05 4514.05c0,-0.13 0,-0.42 0,-0.57 0,-100.89 38.4,-198.05 107.3,-271.7 24.3,-26.03 254.94,35.65 390.5,156.98 133.08,119.15 248.95,313.79 232.36,338.32 -74.18,110.08 -198.29,176.11 -331.03,176.11 -220.4,0 -399.14,-178.74 -399.14,-399.14 0,0 0,0 0,0l-0 -0z"/>
   <path class="fil7" d="M1673.5 4859.92c-271.43,-0 -491.56,-220.13 -491.56,-491.56 0,-0.02 0,-0.02 0,-0.02 0,-16.7 0.91,-33.58 2.55,-50.16 -33.7,59.75 -51.39,127.29 -51.39,195.9 0,220.4 178.74,399.14 399.14,399.14 72.9,0 144.53,-20.03 206.85,-57.79 -21.67,2.94 -43.66,4.5 -65.58,4.5l-0.01 0z"/>
   <path class="fil3 str1" d="M1133.05 4514.05c0,-0.13 0,-0.42 0,-0.57 0,-100.89 38.4,-198.05 107.3,-271.7 24.3,-26.03 254.94,35.65 390.5,156.98 133.08,119.15 248.95,313.79 232.36,338.32 -74.18,110.08 -198.29,176.11 -331.03,176.11 -220.4,0 -399.14,-178.74 -399.14,-399.14 0,0 0,0 0,0l-0 -0z"/>
   <path class="fil6" d="M1363.34 4338.59c40.36,8.09 79.67,21.47 116.63,39.54 37.52,17.92 72.69,40.76 104.42,67.62 31.04,27.16 59.45,57.59 84.36,90.47 25.16,32.42 46.75,67.58 64.39,104.63 -29.14,-28.79 -56.67,-58.33 -84.94,-86.78 -28.28,-28.45 -56.67,-56.43 -86.38,-82.12 -29.97,-25.3 -61.96,-49.02 -95.15,-70.13 -33.59,-21.88 -68.14,-42.09 -103.33,-63.22z"/>
   <path class="fil5" d="M2952.22 4672.36c1.21,-213.71 -6.97,-403.51 -44.51,-549.32 -57.99,-146.04 -162.28,-233.11 -345.92,-233.11l131.24 774.66c0,0 129.69,58.97 259.2,7.77z"/>
   <path class="fil3 str2" d="M3001.8 4611.55c-6.55,5.42 -13.73,10.14 -21.3,13.99"/>
   <path class="fil5" d="M926.95 4116.82c-39.33,147.25 -46.07,340.51 -44.57,558.59 114.6,49.18 290.35,-12.38 290.35,-12.38l99.8 -761.53c-177.77,-0.17 -283.73,79.87 -345.58,215.32z"/>
   <path class="fil6" d="M2583.43 3822.2l-312.18 0 0 0.58c0,-0.02 0,0.12 0,0.12 0,25.87 -2.83,51.73 -8.3,76.98 -2.63,12.29 -6.01,24.54 -10,36.45 -12.76,35.71 -32.36,68.69 -57.61,96.95 -8.07,9.03 -16.71,17.6 -25.89,25.5 -144.95,104.81 -375.29,110.57 -515.29,-3.34 -15.08,-13.13 -28.85,-27.84 -40.97,-43.75 -25.2,-33.13 -43.1,-71.27 -52.4,-111.8 -2.7,-12.51 -4.8,-25.23 -6.16,-37.96 -1.35,-12.76 -2.12,-25.75 -2.12,-38.62 0,-0.17 0,-0.34 0,-0.51l0 -0.58 -312.18 -0.01c-42.21,0.03 -76.42,34.26 -76.42,76.47 0,0 0,0 0,0l0 1639.38c0,0.07 0,0.16 0,0.23 0,42.21 34.21,76.45 76.42,76.48l1375.98 0c42.21,-0.03 76.42,-34.26 76.42,-76.48 0,0 0,0 0,0l0 -1601.61c0,-70.37 -33.92,-114.48 -109.3,-114.48z"/>
   <path class="fil6" d="M2561.78 3822.2c365.91,0 422.69,322.49 425.57,766.88 -107.11,66.92 -281.66,7.54 -281.66,7.54l-143.91 -774.43z"/>
   <path class="fil7" d="M2692.73 4243.45l-130.95 219.58 65.53 748.63 66.86 0 0 -608.4 99.51 16.64c-32.65,-415.6 -100.95,-376.44 -100.95,-376.44z"/>
   <path class="fil6" d="M1272.52 3822.2c-355.77,0 -436.68,309.82 -442.55,735.15 109.42,114.37 334,26.37 334,26.37l108.55 -761.53z"/>
   <path class="fil7" d="M1163.74 4243.45l0 340.51 -99.68 24.82c32.65,-403.8 99.68,-365.33 99.68,-365.33z"/>
   <path class="fil3 str2" d="M2561.78 3822.2c388.19,0 451.77,324.16 454.36,770.4 -150.88,71.58 -310.45,4.03 -310.45,4.03"/>
   <path class="fil3 str2" d="M1272.52 3822.2c-384.62,0 -461.15,315 -465.07,752.77 118.86,85.11 356.23,8.98 356.23,8.98"/>
   <path class="fil7" d="M1240.33 5614.77l671.58 0c-628.56,0 -581.11,-1331.29 -748,-1331.29l0 1254.59c0,0.07 0,0.16 0,0.23 0,42.21 34.21,76.45 76.42,76.48l-0 0z"/>
   <path class="fil0" d="M1129.36 4410.34c-1.09,-21.13 -0.63,-42.27 0.29,-63.35 0.92,-21.08 2.71,-42.33 4.95,-63.35 1.15,-10.6 2.3,-21.13 3.74,-31.73 1.44,-10.6 2.82,-21.13 4.89,-31.73 4.06,-21.91 11.05,-43.25 20.67,-63.34 9.62,20.07 16.6,41.41 20.63,63.33 2.13,10.6 3.63,21.13 4.95,31.73 1.32,10.6 2.59,21.13 3.74,31.73 2.19,21.13 3.92,42.27 4.89,63.35 0.98,21.08 1.44,42.27 0.35,63.35l-69.12 0.01z"/>
   <path class="fil3 str1" d="M2692.73 4463.03l0 46.07c1.5,195.79 1.5,397.35 0,591.7 0,16.53 0,32.94 0,49.12l0 388.19c0,0.05 0,0.11 0,0.17 0,42.21 -34.21,76.45 -76.42,76.48l-1375.98 0c-42.21,-0.03 -76.42,-34.26 -76.42,-76.48 0,0 0,0 0,0l-0 -335.15c0,-14.45 0,-29.2 0,-44.05 -1.44,-200.8 -1.44,-402.36 0,-606.39l0 -142.35"/>
   <path class="fil0" d="M2658.18 4463.03c-1.09,-24.01 -0.58,-48.09 0.35,-72.16 0.92,-24.07 2.71,-48.09 4.89,-72.16 1.15,-12.04 2.36,-24.07 3.74,-36.11 1.38,-12.03 2.82,-24.01 4.95,-36.05 3.96,-24.73 10.9,-49.08 20.6,-72.17 9.7,23.12 16.71,47.4 20.7,72.15 2.07,12.04 3.57,24.07 4.89,36.05 1.33,11.98 2.59,24.07 3.74,36.11 2.19,24.07 3.97,48.09 4.89,72.16 0.92,24.07 1.44,48.14 0.35,72.16l-69.12 0.02z"/>
   <line class="fil3 str1" x1="1240.33" y1="3822.78" x2="2583.43" y2= "3822.2" />
   <path class="fil3 str1" d="M2271.25 3822.78c0,-0.02 0,0.12 0,0.12 0,25.87 -2.83,51.73 -8.3,76.98 -2.63,12.29 -6.01,24.54 -10,36.45 -12.76,35.71 -32.36,68.69 -57.61,96.95 -8.07,9.03 -16.71,17.6 -25.89,25.5 -144.95,104.81 -375.29,110.57 -515.29,-3.34 -15.08,-13.13 -28.85,-27.84 -40.97,-43.75 -25.2,-33.13 -43.1,-71.27 -52.4,-111.8 -2.7,-12.51 -4.8,-25.23 -6.16,-37.96 -1.35,-12.76 -2.12,-25.75 -2.12,-38.62 0,-0.17 0,-0.34 0,-0.51"/>
   <path class="fil0" d="M1947.9 4223.41c-24.87,4.95 -50.25,7.53 -75.63,7.53 -10.07,0 -20.23,-0.47 -30.25,-1.22 -35.72,-2.47 -71.05,-9.78 -104.8,-21.61 -34.01,-11.66 -66.07,-28.47 -95.03,-49.77l-10.71 -8.12c-3.51,-2.76 -6.91,-5.76 -10.31,-8.75 -6.84,-5.8 -13.28,-12.15 -19.19,-18.88 -11.8,-13.3 -22.22,-27.82 -30.97,-43.25 12.27,12.35 25.3,24.08 38.81,35.08 3.34,2.76 6.74,5.47 10.08,8.06 3.34,2.59 7.08,4.72 10.6,7.14 3.51,2.42 7.03,4.84 10.65,7.08l11 6.68c29.34,17.31 60.54,31.8 92.73,42.94 32.23,11.29 65.63,19.96 99.32,25.64 34.31,5.56 69,9.47 103.68,11.42l0.03 0.04z"/>
   <path class="fil3 str2" d="M821.68 4592.6c6.55,5.95 13.66,11.33 21.2,15.96"/>
   <path class="fil0" d="M2934.37 4536.11c-11.98,7.16 -25.19,12.09 -38.93,14.51 -12.74,2.49 -25.69,3.76 -38.67,3.76 -0.93,0 -1.88,-0.02 -2.79,-0.02 -13.86,-0.26 -27.73,-1.81 -41.34,-4.55 -6.8,-1.21 -13.42,-3.23 -20.1,-5.01 -6.68,-1.78 -13.07,-4.43 -19.41,-7.14 6.97,0 13.71,1.04 20.5,1.61l20.27 1.67c6.74,0 13.42,1.15 20.15,1.21 6.74,0.06 13.36,0.63 20.04,0.69 13.43,0.24 26.86,-0.13 40.3,-1.09 13.42,-0.92 26.83,-2.83 39.97,-5.63l-0.01 -0.01z"/>
   <path class="fil8 str3" d="M2313.46 4738.47c0,-51.02 -63.92,-99.39 -161.88,-129.4 22.63,-99.86 12.55,-179.27 -31.73,-204.72 -9.01,-5.99 -19.61,-9.18 -30.43,-9.18 -1.53,0 -3.06,0.07 -4.58,0.19 -46.07,0.75 -99.68,30.81 -156.81,84.19 -57.3,-53.09 -120.64,-84.47 -156.87,-83.55 -18.2,0.52 -25.16,2.99 -35.47,8.98 -44.17,25.4 -54.02,104.69 -31.27,204.26 -97.9,30.12 -161.24,78.38 -161.24,129.23 0,50.85 63.92,99.39 161.88,129.4 -22.63,99.86 -12.55,179.27 31.73,204.72 10.29,5.78 21.89,8.83 33.69,8.83 0.53,0 1.09,-0.01 1.61,-0.02 43.19,0 99.68,-30.81 156.87,-84.19 57.13,53.1 113.68,83.56 156.87,83.56 0.49,0.01 1,0.02 1.51,0.02 11.89,0 23.58,-3.05 33.96,-8.83 44.11,-25.45 54.02,-104.75 31.21,-204.26 97.38,-30 160.95,-78.37 160.95,-129.22zm-228.73 -308.03l0 0c0.35,-0.01 0.71,-0.02 1.06,-0.02 5.84,0 11.61,1.41 16.79,4.1 21.36,12.27 30.64,58.91 23.44,118.86 -1.73,14.74 -4.55,30.29 -8.01,46.07 -32.75,-7.87 -66.13,-13.86 -99.7,-17.32 -19.96,-27.44 -41.99,-53.86 -65.33,-78.41 51.12,-47.2 99.09,-73.23 131.74,-73.29zm-295.54 388.42c7.37,12.55 14.91,24.8 22.63,36.74 -22.29,-3.28 -43.82,-7.37 -64.38,-12.38 5.76,-20.27 13.02,-41.18 21.19,-62.02 6.45,12.56 13.19,25.11 20.56,37.66zm-42.21 -185.14c20.56,-4.84 42.21,-9.1 64.67,-12.38 -7.66,12.09 -15.37,24.47 -22.57,37.2 -7.2,12.73 -13.99,25.11 -20.44,37.66 -8.26,-20.4 -15.53,-41.31 -21.66,-62.45l0.01 -0.03zm40.02 105.21c9.73,-21.02 20.73,-42.1 32.54,-62.66 11.81,-20.56 24.76,-41.29 37.83,-59.95 23.38,-2.07 47.11,-3.17 70.95,-3.17 23.84,0 47.39,1.09 70.66,2.99 13.02,18.66 25.74,38.64 38.01,59.66 12.27,21.02 23.03,41.46 32.65,62.48 -9.91,21.08 -20.73,42.1 -32.54,62.66 -11.81,20.56 -24.76,41.29 -37.83,60.01 -23.38,2.02 -47.11,3.11 -70.95,3.11 -23.84,0 -47.39,-1.09 -70.66,-2.99 -13.02,-18.66 -25.74,-38.58 -38.01,-59.66 -12.27,-21.08 -22.75,-41.46 -32.65,-62.48zm280.45 79.47c7.2,-12.55 13.94,-25.28 20.39,-37.83 8.2,20.41 15.55,41.4 21.68,62.54 -20.56,5.01 -42.21,9.27 -64.67,12.55 7.69,-12.15 15.35,-24.53 22.6,-37.26zm0 -160.32c-7.2,-12.55 -14.92,-24.82 -22.63,-36.74 22.34,3.26 43.8,7.39 64.38,12.38 -5.76,20.27 -13.02,41.18 -21.19,62.02 -6.62,-12.55 -13.36,-25.11 -20.73,-37.66l0.17 0zm-95.94 -79.01c-14.17,-0.58 -28.79,-1.09 -43.19,-1.09 -14.4,0 -29.37,0.35 -43.65,1.09 13.48,-17.43 27.97,-34.3 43.21,-50.21 15.37,15.92 29.93,32.73 43.6,50.18l0.03 0.03zm-218.43 -143.97c5.07,-2.71 10.74,-4.13 16.49,-4.13 0.53,0 1.07,0.02 1.6,0.04l0 0c32.48,0 80.62,25.91 131.87,73.19 -23.28,24.46 -45.12,50.85 -64.86,78.32 -33.57,3.39 -67.05,9.29 -99.81,17.28 -3.63,-15.66 -6.28,-30.92 -8.18,-45.49 -7.41,-60.02 1.69,-106.66 22.88,-119.04l0 -0.17zm-39.56 398.67c-15.55,-4.89 -30.29,-10.25 -43.94,-16.01 -55.63,-23.73 -91.56,-54.82 -91.56,-79.47 0,-24.65 35.93,-55.92 91.56,-79.47 13.47,-5.76 28.22,-11 43.48,-15.84 9.58,32.44 21.54,64.73 35.34,95.63 -13.77,30.87 -25.53,62.93 -34.9,95.36l0.02 -0.21zm58.28 212.55c-0.19,-0 -0.4,0 -0.59,0 -5.97,0 -11.86,-1.45 -17.15,-4.21 -21.36,-12.27 -30.64,-58.91 -23.44,-118.86 1.73,-14.8 4.55,-30.29 8.01,-46.07 32.68,7.92 66.29,13.74 99.71,17.25 20,27.56 41.88,53.98 65.34,78.55 -51.21,47.48 -99.23,73.51 -131.89,73.51l0 -0.17zm156.81 -98.42c-15.29,-15.98 -30.03,-32.9 -43.65,-50.31 14.17,0.63 28.79,1.09 43.19,1.09 14.4,0 29.37,-0.29 43.65,-1.09 -13.39,17.49 -27.91,34.54 -43.18,50.48l-0.01 -0.17zm174.95 93.58c-5.07,2.71 -10.74,4.12 -16.49,4.12 -0.53,0 -1.07,-0.02 -1.6,-0.04 -32.48,0 -80.62,-25.91 -131.87,-73.19 23.28,-24.46 45.12,-50.85 64.86,-78.32 33.57,-3.4 67.05,-9.29 99.81,-17.28 3.52,15.07 6.34,30.38 8.2,45.69 7.38,60.17 -1.72,106.75 -22.91,119.19l0 -0.17zm83.38 -223.72c-13.53,5.76 -28.28,10.94 -43.54,15.84 -9.51,-32.52 -21.53,-64.79 -35.31,-95.68 13.65,-30.83 25.35,-62.76 34.6,-95.14 15.55,4.89 30.29,10.19 44.11,16.01 55.63,23.73 91.56,54.82 91.56,79.47 0,24.65 -35.86,56.11 -91.44,79.67l0 -0.17z"/>
   <circle class="fil8 str4" cx="1928.15" cy="4738.47" r="71.75"/>
   <path class="fil9" d="M2313.46 4738.47c0,-51.02 -63.92,-99.39 -161.88,-129.4 22.63,-99.86 12.55,-179.27 -31.73,-204.72 -9.01,-5.99 -19.61,-9.18 -30.43,-9.18 -1.53,0 -3.06,0.07 -4.58,0.19 -46.07,0.75 -99.68,30.81 -156.81,84.19 -57.3,-53.09 -120.64,-84.47 -156.87,-83.55 -18.2,0.52 -25.16,2.99 -35.47,8.98 -44.17,25.4 -54.02,104.69 -31.27,204.26 -97.9,30.12 -161.24,78.38 -161.24,129.23 0,50.85 63.92,99.39 161.88,129.4 -22.63,99.86 -12.55,179.27 31.73,204.72 10.29,5.78 21.89,8.83 33.69,8.83 0.53,0 1.09,-0.01 1.61,-0.02 43.19,0 99.68,-30.81 156.87,-84.19 57.13,53.1 113.68,83.56 156.87,83.56 0.49,0.01 1,0.02 1.51,0.02 11.89,0 23.58,-3.05 33.96,-8.83 44.11,-25.45 54.02,-104.75 31.21,-204.26 97.38,-30 160.95,-78.37 160.95,-129.22zm-228.73 -308.03l0 0c0.35,-0.01 0.71,-0.02 1.06,-0.02 5.84,0 11.61,1.41 16.79,4.1 21.36,12.27 30.64,58.91 23.44,118.86 -1.73,14.74 -4.55,30.29 -8.01,46.07 -32.75,-7.87 -66.13,-13.86 -99.7,-17.32 -19.96,-27.44 -41.99,-53.86 -65.33,-78.41 51.12,-47.2 99.09,-73.23 131.74,-73.29zm-295.54 388.42c7.37,12.55 14.91,24.8 22.63,36.74 -22.29,-3.28 -43.82,-7.37 -64.38,-12.38 5.76,-20.27 13.02,-41.18 21.19,-62.02 6.45,12.56 13.19,25.11 20.56,37.66zm-42.21 -185.14c20.56,-4.84 42.21,-9.1 64.67,-12.38 -7.66,12.09 -15.37,24.47 -22.57,37.2 -7.2,12.73 -13.99,25.11 -20.44,37.66 -8.26,-20.4 -15.53,-41.31 -21.66,-62.45l0.01 -0.03zm40.02 105.21c9.73,-21.02 20.73,-42.1 32.54,-62.66 11.81,-20.56 24.76,-41.29 37.83,-59.95 23.38,-2.07 47.11,-3.17 70.95,-3.17 23.84,0 47.39,1.09 70.66,2.99 13.02,18.66 25.74,38.64 38.01,59.66 12.27,21.02 23.03,41.46 32.65,62.48 -9.91,21.08 -20.73,42.1 -32.54,62.66 -11.81,20.56 -24.76,41.29 -37.83,60.01 -23.38,2.02 -47.11,3.11 -70.95,3.11 -23.84,0 -47.39,-1.09 -70.66,-2.99 -13.02,-18.66 -25.74,-38.58 -38.01,-59.66 -12.27,-21.08 -22.75,-41.46 -32.65,-62.48zm280.45 79.47c7.2,-12.55 13.94,-25.28 20.39,-37.83 8.2,20.41 15.55,41.4 21.68,62.54 -20.56,5.01 -42.21,9.27 -64.67,12.55 7.69,-12.15 15.35,-24.53 22.6,-37.26zm0 -160.32c-7.2,-12.55 -14.92,-24.82 -22.63,-36.74 22.34,3.26 43.8,7.39 64.38,12.38 -5.76,20.27 -13.02,41.18 -21.19,62.02 -6.62,-12.55 -13.36,-25.11 -20.73,-37.66l0.17 0zm-95.94 -79.01c-14.17,-0.58 -28.79,-1.09 -43.19,-1.09 -14.4,0 -29.37,0.35 -43.65,1.09 13.48,-17.43 27.97,-34.3 43.21,-50.21 15.37,15.92 29.93,32.73 43.6,50.18l0.03 0.03zm-218.43 -143.97c5.07,-2.71 10.74,-4.13 16.49,-4.13 0.53,0 1.07,0.02 1.6,0.04l0 0c32.48,0 80.62,25.91 131.87,73.19 -23.28,24.46 -45.12,50.85 -64.86,78.32 -33.57,3.39 -67.05,9.29 -99.81,17.28 -3.63,-15.66 -6.28,-30.92 -8.18,-45.49 -7.41,-60.02 1.69,-106.66 22.88,-119.04l0 -0.17zm-39.56 398.67c-15.55,-4.89 -30.29,-10.25 -43.94,-16.01 -55.63,-23.73 -91.56,-54.82 -91.56,-79.47 0,-24.65 35.93,-55.92 91.56,-79.47 13.47,-5.76 28.22,-11 43.48,-15.84 9.58,32.44 21.54,64.73 35.34,95.63 -13.77,30.87 -25.53,62.93 -34.9,95.36l0.02 -0.21zm58.28 212.55c-0.19,-0 -0.4,0 -0.59,0 -5.97,0 -11.86,-1.45 -17.15,-4.21 -21.36,-12.27 -30.64,-58.91 -23.44,-118.86 1.73,-14.8 4.55,-30.29 8.01,-46.07 32.68,7.92 66.29,13.74 99.71,17.25 20,27.56 41.88,53.98 65.34,78.55 -51.21,47.48 -99.23,73.51 -131.89,73.51l0 -0.17zm156.81 -98.42c-15.29,-15.98 -30.03,-32.9 -43.65,-50.31 14.17,0.63 28.79,1.09 43.19,1.09 14.4,0 29.37,-0.29 43.65,-1.09 -13.39,17.49 -27.91,34.54 -43.18,50.48l-0.01 -0.17zm174.95 93.58c-5.07,2.71 -10.74,4.12 -16.49,4.12 -0.53,0 -1.07,-0.02 -1.6,-0.04 -32.48,0 -80.62,-25.91 -131.87,-73.19 23.28,-24.46 45.12,-50.85 64.86,-78.32 33.57,-3.4 67.05,-9.29 99.81,-17.28 3.52,15.07 6.34,30.38 8.2,45.69 7.38,60.17 -1.72,106.75 -22.91,119.19l0 -0.17zm83.38 -223.72c-13.53,5.76 -28.28,10.94 -43.54,15.84 -9.51,-32.52 -21.53,-64.79 -35.31,-95.68 13.65,-30.83 25.35,-62.76 34.6,-95.14 15.55,4.89 30.29,10.19 44.11,16.01 55.63,23.73 91.56,54.82 91.56,79.47 0,24.65 -35.86,56.11 -91.44,79.67l0 -0.17z"/>
   <circle class="fil9" cx="1928.15" cy="4738.47" r="71.75"/>
   <path class="fil10" d="M1507.25 4990.7c170.87,-0 322.92,-108.93 377.9,-270.68 -73.3,125.41 -207.73,202.54 -352.99,202.54 -128.98,0 -250.53,-60.95 -327.65,-164.27l-0.28 84.82c73.37,90.01 177.89,147.59 303.02,147.59z"/>
   <path class="fil10" d="M2349.4 4990.7c-170.87,-0 -322.92,-108.93 -377.89,-270.68 73.3,125.41 207.73,202.54 352.99,202.54 128.98,0 250.53,-60.95 327.65,-164.27l0 84.77c-73.09,90.06 -177.61,147.65 -302.74,147.65z"/>
   <g>
    <path class="fil6" d="M1392.76 4888.08c-156.11,-58.25 -259.64,-207.4 -259.64,-374.05 0,-100.7 38.12,-197.75 106.6,-271.55l153.04 645.59zm0 0l0 0 0 0z"/>
   </g>
   <path class="fil0" d="M1392.76 4888.08c-68.03,-11.09 -130.98,-43.39 -179.71,-92.16l-9.33 -9.21c-3.05,-3.11 -5.76,-6.51 -8.81,-9.73 -3.05,-3.22 -5.76,-6.62 -8.52,-9.96 -2.93,-3.26 -5.7,-6.74 -8.25,-10.3 -5.18,-7.08 -10.42,-14.17 -15.43,-21.42l-13.65 -22.63c-17.2,-30.92 -30.25,-64.2 -38.65,-98.64 -6.66,-29.38 -10.03,-59.57 -10.03,-89.72 0,-5.21 0.1,-10.51 0.3,-15.67 1.53,-35.16 8.2,-69.99 19.6,-103.24 1.5,-4.09 2.82,-8.24 4.38,-12.32l5.07 -12.09c3.17,-8.06 7.26,-15.78 11,-23.55 7.94,-15.25 17.17,-30.08 27.3,-43.97 4.89,-6.97 10.48,-13.53 15.84,-20.1 5.36,-6.56 11.17,-12.84 17.28,-18.6 11.88,-11.85 24.91,-22.7 38.74,-32.18 -33.34,57.59 -57.01,116.27 -67.15,176.62 -4.58,25.92 -6.94,52.33 -6.94,78.68 0,3.73 0.11,7.52 0.17,11.2 1.07,29.82 4.93,59.69 11.48,88.79 7.06,28.87 17.06,57.27 29.51,84.32 12.74,27.34 28.38,53.43 46.49,77.59 18.36,24.95 39.3,48.11 62.3,68.83 24.04,21.56 49.99,41.61 77,59.48l0.03 -0.01z"/>
   <g>
    <path class="fil6" d="M2464.17 4888.08c156,-58.31 259.43,-207.41 259.43,-373.97 0,-100.75 -38.12,-197.85 -106.65,-271.64l-152.78 645.61zm0 0l0 0 0 0z"/>
   </g>
   <path class="fil0" d="M2464.17 4888.08c26.96,-17.75 52.75,-37.72 76.84,-59.23 23.01,-20.74 43.95,-43.9 62.28,-68.83 18.14,-24.17 33.78,-50.26 46.53,-77.59 12.44,-27.06 22.44,-55.47 29.48,-84.39 6.56,-29.05 10.43,-58.91 11.5,-88.72 0.14,-4.08 0.19,-8.25 0.19,-12.37 0,-26.08 -2.3,-52.21 -6.81,-77.85 -10.14,-60.35 -33.8,-118.86 -67.15,-176.62 13.85,9.45 26.88,20.31 38.77,32.17 6.22,5.76 11.52,12.32 17.28,18.6 5.76,6.28 10.94,13.13 15.84,20.1 10.11,13.88 19.34,28.71 27.29,43.97 3.74,7.77 7.83,15.49 11,23.55l5.07 12.09c1.55,4.09 2.88,8.24 4.38,12.32 11.39,33.24 18.05,68.07 19.58,103.22 0.2,5.17 0.3,10.47 0.3,15.68 0,30.14 -3.37,60.34 -10.01,89.74 -8.41,34.42 -21.46,67.7 -38.68,98.65l-13.63 22.61c-5.01,7.26 -10.25,14.34 -15.43,21.42 -2.56,3.55 -5.32,7.03 -8.23,10.31 -2.82,3.34 -5.76,6.68 -8.52,9.96 -2.76,3.28 -5.76,6.62 -8.81,9.73l-9.33 9.21c-48.73,48.81 -111.68,81.11 -179.73,92.24l-0 0.02z"/>
   <path class="fil5" d="M611.89 2726.96c-5.76,-163.32 103.66,-301.53 249.24,-366.02 15.21,-6.25 31.04,-11.47 47,-15.54 31.57,-7.8 64.15,-11.79 96.73,-11.79 50.05,0 99.76,9.35 146.36,27.51 17.59,6.74 34.88,14.8 51.4,23.92 170.05,91.5 246.41,306.65 180.59,480.62 -6.64,17.48 -14.75,34.61 -24.08,50.83 -22.96,47.82 -57.71,89.1 -100.84,119.93 -14.34,10.55 -29.53,20.29 -45.2,28.81 -157.67,74.86 -370.74,51.83 -497.84,-65.65 -12.71,-13.49 -24.49,-27.92 -35.16,-43.01 -12.2,-17.24 -23.01,-35.67 -32.09,-54.74 -19.31,-39.16 -30.45,-81.9 -32.64,-125.51 -2.07,-16.34 -3.24,-32.94 -3.45,-49.38l-0.02 0.02z"/>
   <path class="fil6" d="M602.5 2621.29c-5.76,-163.32 103.66,-301.53 249.24,-366.02 15.23,-6.2 30.98,-11.5 46.95,-15.57 31.7,-7.85 64.48,-11.88 97.21,-11.88 49.9,0 99.41,9.25 145.92,27.31 17.59,6.81 34.79,14.85 51.34,23.96 170.05,91.5 246.41,306.71 180.59,480.62 -6.56,17.53 -14.69,34.62 -24.04,50.8 -7.96,15.59 -17.07,30.67 -27.13,44.95 -9.94,14.14 -20.92,27.67 -32.72,40.29 -12.72,12.6 -26.55,24.35 -41.01,34.95 -14.39,10.58 -29.53,20.24 -45.2,28.8 -157.67,74.86 -370.74,51.83 -497.78,-65.59 -12.66,-13.46 -24.52,-27.95 -35.18,-43.07 -12.22,-17.23 -23.05,-35.64 -32.14,-54.7 -19.35,-38.99 -30.56,-81.63 -32.87,-125.13 -2.08,-16.43 -3.18,-33.13 -3.18,-49.72l0 0.02z"/>
   <circle class="fil0" cx="998.35" cy="2572.97" r="70.49"/>
   <path class="fil4 str5" d="M1349.69 2810.29c9.36,-16.18 17.49,-33.28 24.06,-50.79 6.11,-16.19 11.12,-32.88 14.81,-49.76 -393.43,-44.63 -731.35,119.84 -731.35,119.84l6.33 10.08c2.36,3.57 4.72,7.14 7.2,10.6 10.67,15.12 22.52,29.62 35.2,43.06 127.04,117.25 340.11,140.28 497.78,65.59 15.66,-8.54 30.8,-18.2 45.18,-28.78 14.47,-10.61 28.31,-22.36 41.04,-34.95 11.78,-12.62 22.76,-26.15 32.68,-40.31 10.01,-14.15 19.17,-29.14 27.07,-44.58l0 0.02z"/>
   <path class="fil3 str1" d="M602.5 2621.29c-5.76,-163.32 103.66,-301.53 249.24,-366.02 15.23,-6.2 30.98,-11.5 46.95,-15.57 31.7,-7.85 64.48,-11.88 97.21,-11.88 49.9,0 99.41,9.25 145.92,27.31 17.59,6.81 34.79,14.85 51.34,23.96 170.05,91.5 246.41,306.71 180.59,480.62 -6.56,17.53 -14.69,34.62 -24.04,50.8 -7.96,15.59 -17.07,30.67 -27.13,44.95 -9.94,14.14 -20.92,27.67 -32.72,40.29 -12.72,12.6 -26.55,24.35 -41.01,34.95 -14.39,10.58 -29.53,20.24 -45.2,28.8 -157.67,74.86 -370.74,51.83 -497.78,-65.59 -12.66,-13.46 -24.52,-27.95 -35.18,-43.07 -12.22,-17.23 -23.05,-35.64 -32.14,-54.7 -19.35,-38.99 -30.56,-81.63 -32.87,-125.13 -2.08,-16.43 -3.18,-33.13 -3.18,-49.72l0 0.02z"/>
   <path class="fil4" d="M2411.42 2680.55c2.48,-87.13 38.41,-173.28 86.96,-238.01 12.41,-17.37 26.13,-33.85 40.97,-49.11 75.72,-78.88 180.43,-123.59 289.81,-123.59 82.02,0 162.22,25.15 229.48,72.01 13.03,9.11 25.7,19.05 37.61,29.56 155.49,123.52 173.45,363.6 88.22,536.88 -8.26,13.7 -17.54,27.01 -27.53,39.5 -13.27,16.67 -27.96,32.43 -43.62,46.83 -116.73,102.68 -298.36,127.44 -445.78,71.52 -21.01,-7.88 -41.42,-17.61 -60.78,-28.79 -103.08,-62.08 -174.89,-179.04 -192.51,-300.78 -1.93,-15.31 -2.95,-30.75 -2.95,-46.19 0,-3.27 0.04,-6.59 0.13,-9.82l0 -0.02z"/>
   <path class="fil6 str1" d="M2443.04 2614.49c2.42,-81.49 36.97,-162.11 83.62,-222.63 11.94,-16.29 25.29,-31.72 39.52,-46.05 73.95,-73.9 174.39,-115.49 278.97,-115.49 78.6,0 155.52,23.57 220.68,67.47 12.52,8.48 24.69,17.76 36.17,27.57 149.73,115.58 167,340.16 84.88,502.27 -7.96,12.91 -16.82,25.26 -26.47,36.94 -12.82,15.62 -26.97,30.3 -41.98,43.77 -112.35,96.06 -287.13,119.26 -428.96,66.92 -20.22,-7.51 -39.86,-16.65 -58.57,-27.34 -99.16,-58.05 -168.27,-167.46 -185.26,-281.31 -1.84,-13.96 -2.75,-28.06 -2.75,-42.13 0,-3.33 0.08,-6.69 0.16,-9.98l-0 -0.01z"/>
   <circle class="fil0" cx="2845.16" cy="2624.8" r="70.49"/>
   <path class="fil0" d="M3188.67 3012.48c-58.91,28.79 -117.02,55 -180.48,73.08 -30.91,9 -62.73,15.43 -94.76,18.99 -21.46,1.7 -43.19,2.59 -64.71,2.59 -12.3,0 -25,-0.4 -37.2,-0.89 -39.1,-0.75 -78.64,-4.61 -117.26,-10.99 -11.11,-1.78 -23.78,2.94 -26.61,15.09 -2.36,10.42 3.17,24.65 15.09,26.61 37.23,6.27 75.46,10.31 113.22,12.04 18.37,0.75 36.68,0.35 55.05,0.92 5.08,0.19 10.47,0.3 15.64,0.3 12.16,0 24.43,-0.55 36.53,-1.48 69.1,-5.76 136.02,-24.65 200.17,-50.45 36.4,-14.68 72.1,-31.1 107.28,-48.49 6.57,-3.9 10.62,-11 10.62,-18.67 0,-3.82 -1.01,-7.57 -2.92,-10.87 -4,-6.56 -11.14,-10.56 -18.82,-10.56 -3.75,0 -7.45,0.96 -10.72,2.78l-0.11 0z"/>
   <path class="fil0" d="M1152.69 3066.09c-65.48,12.44 -129,21.88 -196.14,22.06 -1.69,0.02 -3.5,0.02 -5.18,0.02 -31.01,0 -62.15,-2.69 -92.7,-7.87 -70.4,-14.69 -139.36,-37.28 -204.82,-66.99 -3.25,-1.83 -6.93,-2.77 -10.66,-2.77 -7.68,0 -14.82,3.98 -18.86,10.51 -5.47,9.33 -2.88,24.59 7.72,29.54 33.45,15.46 68.01,29.33 102.92,40.89 16.76,5.76 33.8,9.79 50.56,14.97 16.81,5.35 34.06,9.97 51.31,13.56 68.82,13.94 139.48,13.65 209.1,5.76 39.62,-4.38 78.95,-10.83 118.11,-18.25 11.52,-2.13 17.97,-15.95 15.09,-26.55 -2.79,-9.39 -11.4,-15.81 -21.16,-15.81 -1.84,0 -3.68,0.23 -5.46,0.69l0.17 0.23z"/>
   <g>
    <path class="fil11" d="M453.47 2240.93c32.48,91.16 120.36,138.55 192.34,155.14 75.21,-116.56 326.23,-166.54 514.65,-100.43 160.09,28.79 -62.25,-147.25 -417.33,-51.83 -13.3,4.89 -83.85,16.99 -174.37,-52.92 -12.61,-9.73 26.95,78.95 71.98,115.17 -65.36,-1.33 -76.07,-1.27 -187.27,-65.13z"/>
    <path class="fil11" d="M3202.2 2306c45.03,-35.99 84.59,-124.67 71.98,-115.17 -90.53,69.91 -161.24,57.59 -174.37,52.92 -355.08,-95.59 -577.48,80.62 -417.39,51.83 188.48,-66.11 439.5,-16.12 514.71,100.43 71.98,-16.59 159.86,-63.98 192.34,-155.14 -111.2,63.92 -121.91,63.87 -187.27,65.13z"/>
   </g>
   <path class="fil0 str1" d="M2151.24 3286.76c-89.55,0 -144.66,-73.48 -210.08,-73.48 -65.42,0 -149.27,73.48 -237.43,73.48 -88.17,0 -136.65,-63.98 -136.65,-152.66 0,-95.88 96.46,-265.24 360.55,-265.24 264.09,0 376.56,159.75 376.56,261.79 -0.23,94.27 -63.35,156.12 -152.95,156.12z"/>
   <path class="fil12" d="M1992.48 3226.35c-26.26,-70.55 -115.98,-116.61 -217.97,-107.57 -85.17,7.72 -155.08,52.35 -183.36,109.99 22.57,36.05 60.52,57.99 112.35,57.99 88.4,0 172.18,-73.48 237.66,-73.48 17.83,0.61 35.37,5.08 51.31,13.08l-0 -0z"/>
   <path class="fil0" d="M1669.53 3073.23l5.01 -2.02 4.2 -1.44c2.71,-0.92 5.41,-1.61 8.12,-2.3 5.39,-1.39 10.9,-2.43 16.41,-3.06 6.11,-0.8 12.31,-1.23 18.48,-1.23 5.06,0 10.12,0.27 15.15,0.82 23.42,2.23 45.76,11.22 64.21,25.81 17.44,13.79 30.55,32.35 37.71,53.38 3.46,10.25 5.24,21.05 5.24,31.88 0,9.55 -1.39,19.08 -4.09,28.23 -14.4,-14.86 -25.68,-28.45 -37.03,-39.62 -5.15,-5.3 -10.74,-10.3 -16.59,-14.85 -5.31,-4.01 -11.13,-7.35 -17.27,-9.91 -10.6,-4.39 -22.01,-6.68 -33.5,-6.68 -1.01,0 -2.06,0.02 -3.06,0.05 -6.58,0.18 -13.24,0.77 -19.76,1.73 -3.28,0.58 -6.68,1.09 -9.91,1.78l-4.84 1.09 -2.25 0.46c-0.52,0 -1.67,0.46 -1.27,0l-24.98 -64.16z"/>
   <rect class="fil5" x="720.32" y="1837.18" width="2529.45" height="369.42"/>
   <path class="fil1" d="M3137.65 3297.82c-18.08,22.34 -36.72,44.17 -55.92,65.48 -14.4,15.95 14.86,-6.45 55.92,-65.48zm86.38 -1822.91c-175.64,-313.33 -480.85,-529.05 -833.74,-628.33l-36.57 -9.85c-130.72,-36.16 -268.47,-40.31 -410.71,-40.31 -153.7,0 -302.1,15.78 -442.1,57.59l-24.53 7.31c-186.16,63.17 -359.72,159.9 -511.59,284.7 -16.82,13.75 -33.3,27.8 -49.42,42.16 -163.2,136.42 -289.89,309.18 -377.02,506.19 -8.44,18.89 -16.43,37.95 -23.95,57.18 -22.45,57.24 -40.66,116.35 -54.25,176.21 -184.57,729 102.73,1176.22 357.73,1450.33 25.16,27.06 -333.6,-586.52 -100.32,-1243.88 44.51,-1.67 116.56,-2.94 208.41,-3.86l89.26 -291.45 100.43 290.12c157.79,-0.75 344.83,-0.86 540.63,-0.69l70.95 -301.53 80.16 301.64c428.27,0.81 872.1,2.99 1124.56,4.43l76.01 -300.43 86.38 301.35 47.28 0.29c288.45,612.84 102.56,1010.94 -3.97,1163.72 220.67,-272.24 341.49,-612.67 341.49,-963.38 0,-0.56 0,-1.49 0,-2.05 0,-497.74 -255.11,-857.48 -255.11,-857.48z"/>
   <path class="fil3 str1" d="M3137.65 3297.82c-18.08,22.34 -36.72,44.17 -55.92,65.48 -14.4,15.95 14.86,-6.45 55.92,-65.48zm86.38 -1822.91c-175.64,-313.33 -480.85,-529.05 -833.74,-628.33l-36.57 -9.85c-130.72,-36.16 -268.47,-40.31 -410.71,-40.31 -153.7,0 -302.1,15.78 -442.1,57.59l-24.53 7.31c-186.16,63.17 -359.72,159.9 -511.59,284.7 -16.82,13.75 -33.3,27.8 -49.42,42.16 -163.2,136.42 -289.89,309.18 -377.02,506.19 -8.44,18.89 -16.43,37.95 -23.95,57.18 -22.45,57.24 -40.66,116.35 -54.25,176.21 -184.57,729 102.73,1176.22 357.73,1450.33 25.16,27.06 -333.6,-586.52 -100.32,-1243.88 44.51,-1.67 116.56,-2.94 208.41,-3.86l89.26 -291.45 100.43 290.12c157.79,-0.75 344.83,-0.86 540.63,-0.69l70.95 -301.53 80.16 301.64c428.27,0.81 872.1,2.99 1124.56,4.43l76.01 -300.43 86.38 301.35 47.28 0.29c288.45,612.84 102.56,1010.94 -3.97,1163.72 220.67,-272.24 341.49,-612.67 341.49,-963.38 0,-0.56 0,-1.49 0,-2.05 0,-497.74 -255.11,-857.48 -255.11,-857.48z"/>
   <path class="fil1" d="M2412.92 765.95l-37.26 -10.02c-145.18,-40.31 -293.29,-43.48 -432.65,-43.48 -176.16,0 -328.65,20.1 -465.93,61.27l-24.53 7.31 -2.82 0.86c-195.63,66.73 -378.21,168.35 -538.03,299.49 -17.28,14.17 -34.55,28.79 -50.91,43.48 -170.63,142.93 -304.81,323.12 -398.73,535.56 -8.98,20.1 -17.28,40.6 -25.45,60.87 -24.07,61.56 -122.6,344.2 -136.77,406.85l417.68 5.76c44.51,-1.67 116.56,-2.94 208.41,-3.86l89.26 -291.45 100.43 290.12c157.79,-0.75 344.83,-0.86 540.63,-0.69l70.95 -301.53 80.21 301.95c428.27,0.81 872.1,2.99 1124.56,4.43l76.01 -300.43 86.38 301.35 47.28 0.29 421.02 198.21c0,-496.34 -237.83,-858.04 -267.66,-901.81 -180.36,-319.03 -493.46,-555.14 -882.06,-664.55zm956.86 1838.46c-18.25,-149.27 -64.32,-318.23 -152.66,-505.84l-22.4 -47.62 -37.37 0 -154.22 -539.18 -136.14 537.28c-232.82,-1.27 -616.53,-3.11 -995.45,-3.97l-149.44 -561.88 -132.1 561.47c-157.79,0 -296.86,0 -415.14,0.52l-164.47 -475.72 -146.39 477.97c-65.94,0.86 -116.1,1.96 -149.73,3.23l-56.61 2.19 -18.95 53.32c-82.58,233.17 -104.46,485.29 -65.07,750.18 -91.56,-230.35 -129.34,-526.29 -32.54,-907.74l0.52 -2.19c12.63,-55.69 29.87,-111.01 50.72,-164.25 6.91,-17.8 14.45,-35.82 22.52,-53.84 83.73,-189.23 202.94,-349.38 354.22,-475.84l1.9 -1.67c15.26,-13.53 31.04,-27.01 46.88,-40.02 143.63,-118.06 307.7,-209.7 483.74,-269.96l23.32 -6.91c121.62,-36.51 258.39,-54.3 418.08,-54.3 127.96,0 263.34,2.94 388.42,37.55l36.74 9.85c346.9,97.9 624.99,306.77 783.18,588.71l2.13 3.8 2.53 3.63c2.42,3.4 239.62,343.39 239.62,809.1 -0.05,91.32 -8.91,182.59 -25.92,272.09l0.08 0.07z"/>
   <path class="fil3 str1" d="M3137.65 3297.82c-18.08,22.34 -36.72,44.17 -55.92,65.48 -14.4,15.95 14.86,-6.45 55.92,-65.48zm-2319.77 80.28c25.16,27.06 -333.6,-586.52 -100.32,-1243.88 44.51,-1.67 116.56,-2.94 208.41,-3.86l89.26 -291.45 100.43 290.12c157.79,-0.75 344.83,-0.86 540.63,-0.69l70.95 -301.53 80.16 301.64c428.27,0.81 872.1,2.99 1124.56,4.43l76.01 -300.43 86.38 301.35 47.28 0.29c288.45,612.84 102.56,1010.94 -3.97,1163.72"/>
   <path class="fil0" d="M687.21 2118.38c1.04,-4.32 1.9,-7.6 3.05,-11.17 1.15,-3.57 2.3,-6.91 3.57,-10.25 2.65,-6.74 5.76,-13.3 8.7,-19.7 6.41,-12.86 13.88,-25.23 22.19,-36.95 8.19,-11.92 17.63,-23.07 28.07,-33.12 11.39,-10.79 25.23,-18.72 40.32,-23.04 -0,0.7 0.02,1.46 0.02,2.18 0,14.17 -1.68,28.29 -5.01,42.04 -1.61,6.56 -3.4,12.96 -5.36,19.12l-5.76 18.72c-3.85,12.41 -7.69,24.68 -11.53,36.81 -1.9,6.11 -3.92,12.04 -5.76,18.02 -0.98,2.94 -2.13,5.76 -3.23,8.81 -1.09,3.05 -2.25,5.76 -3.23,8.06l-66.05 -19.52z"/>
   <path class="fil0" d="M3141.56 2099.55c5.33,-0.42 10.67,-0.64 16.01,-0.64 6.62,0 13.31,0.34 19.88,0.98 11.99,1.04 24.11,2.71 35.94,4.97 5.76,1.15 11.98,2.3 17.97,3.68 6.03,1.25 12.05,2.93 17.9,4.94 13.19,4.45 25.42,11.47 35.93,20.62 -10.52,9.12 -22.75,16.17 -35.94,20.67 -5.85,2.01 -11.87,3.65 -17.91,4.89 -5.76,1.44 -11.98,2.59 -17.97,3.74 -11.98,2.23 -23.95,3.88 -35.93,4.95 -6.48,0.61 -13.03,0.95 -19.55,0.95 -5.44,0 -10.93,-0.25 -16.34,-0.66l0.01 -69.1z"/>
   <path class="fil6" d="M1610.67 2056.3c1.36,-27.41 4.3,-54.91 8.57,-82.03 4.15,-27.06 9.21,-53.96 15.03,-80.62 5.82,-26.66 12.38,-53.27 19.81,-79.64 7.34,-26.48 16.44,-52.86 26.66,-78.3 -1.3,27.41 -4.35,54.92 -8.71,82.07 -4.13,27.07 -9.13,53.95 -15,80.63 -5.87,26.68 -12.48,53.23 -19.81,79.64 -7.42,26.45 -16.47,52.74 -26.58,78.27l0.04 -0.01z"/>
   <path class="fil6" d="M2895.78 2056.3c1.36,-27.41 4.3,-54.91 8.56,-82.03 4.2,-27.09 9.21,-53.97 15.05,-80.65 5.84,-26.68 12.34,-53.21 19.52,-79.59 7.38,-26.5 16.2,-52.69 26.33,-78.23 -1.29,27.48 -4.35,54.9 -8.61,82.04 -4.21,27.1 -9.21,53.99 -15.01,80.67 -5.76,26.72 -12.44,53.27 -19.87,79.64 -7.22,26.34 -16.01,52.72 -25.94,78.15l-0.04 -0z"/>
   <g>
    <path class="fil1" d="M416.96 2149.54c11.53,-75.57 33.85,-149.36 65.82,-218.83l-65.82 218.83zm0 0l0 0 0 0z"/>
   </g>
   <path class="fil0" d="M382.69 2145.22c0.52,-5.76 1.04,-10.65 1.84,-15.72 0.81,-5.07 1.67,-9.91 2.65,-14.86 2.02,-9.79 4.32,-19.46 7.08,-28.79 5.42,-19.11 12.15,-37.93 19.98,-56.13 7.59,-18.36 16.7,-36.2 27.06,-53.11 10.86,-17.58 24.93,-33.04 41.4,-45.54 0.32,5.52 0.49,11.16 0.49,16.73 0,14.47 -1.14,29.02 -3.26,43.32 -1.44,9.39 -2.94,18.72 -4.78,27.87 -1.84,9.16 -3.34,18.37 -4.78,27.53l-9.39 54.65 -4.78 26.95c-0.69,4.49 -1.61,8.98 -2.42,13.36 -0.81,4.37 -1.73,9.04 -2.53,12.61l-68.57 -8.87z"/>
   <g>
    <path class="fil1" d="M3479.31 2309.28c0,0 -2.65,-119.66 -48.2,-274.29l48.2 274.29zm0 0l0 0 0 0z"/>
   </g>
   <path class="fil0" d="M3444.76 2309.97l-1.38 -15.9c-0.46,-5.76 -0.92,-11.11 -1.27,-16.64l-2.59 -33.63 -5.24 -67.95c-1.73,-22.75 -4.09,-45.55 -5.76,-68.7 -0.46,-11.52 -0.92,-23.38 -0.58,-35.36 0.09,-12.32 1.13,-24.66 2.9,-36.84 15.66,18.86 28.48,40.06 37.89,62.71 4.64,10.93 8.88,22.28 12.46,33.64 3.86,11.52 7.14,23.03 10.42,34.55 6.46,22.91 11.73,46.43 15.51,70.03 1.9,11.81 3.63,23.73 4.66,35.76 0.61,6.01 1.08,12.06 1.38,18.17 0.35,6.16 0.46,11.92 0.4,18.89l-68.82 1.27z"/>
   <path class="fil6" d="M1966.91 809.14c-81.86,4.78 -163.71,14.39 -244.53,28.43 -20.04,3.92 -40.31,8.18 -60.12,11.86 -19.81,3.68 -39.73,9.27 -59.6,13.88l-59.08 15.66c-19.58,5.76 -38.99,11.98 -58.45,17.97 -77.69,24.87 -153.84,55.42 -227.11,90.61 -73.86,35.76 -145.82,76.39 -214.61,120.94 61.23,-56 129.44,-104.87 202.04,-144.85 72.69,-40.66 149.76,-74.26 228.98,-99.85 20.04,-5.76 39.97,-12.04 60.01,-17.56 20.04,-5.53 40.31,-10.48 60.76,-14.97 20.44,-4.49 40.89,-8.06 61.33,-11.52 20.44,-3.46 41.23,-6.16 61.85,-8.75 43.76,-5.34 88.37,-8.01 132.59,-8.01 38.6,0 77.61,2.14 115.94,6.14l0.01 0.02z"/>
   <path class="fil0" d="M1509.61 2338.82l-74.86 -25.28 -179.67 -60.7 -216.53 -73.19 -187.1 -63.35c-30.35,-10.25 -60.52,-21.19 -91.05,-30.75l-1.27 -0.46c-4.97,-1.37 -10.14,-2.07 -15.31,-2.07 -31.82,0 -57.62,25.8 -57.62,57.62 0,25.92 17.31,48.66 42.3,55.54l74.86 25.28 179.67 60.7 216.53 73.14 187.1 63.35c30.29,10.25 60.47,21.13 91.05,30.75l1.27 0.46c4.98,1.37 10.15,2.07 15.32,2.07 31.82,0 57.62,-25.8 57.62,-57.62 0,-25.92 -17.31,-48.66 -42.3,-55.54l-0.01 0.06z"/>
   <path class="fil0" d="M3063.82 2066.84l-73.25 29.37 -175.87 70.89 -211.98 85.46 -183.18 74c-29.72,11.98 -59.41,23.96 -89.09,35.93l-1.27 0.46c-14.45,5.76 -26.26,12.5 -34.55,26.49 -5.09,8.87 -7.77,18.93 -7.77,29.17 0,5.14 0.68,10.27 2.01,15.23 4,14.52 13.52,26.93 26.49,34.55 12.78,6.8 30.29,11.52 44.34,5.76l73.31 -29.54 175.87 -70.89 212.03 -85.57 183.18 -73.83c29.66,-11.98 59.43,-23.9 89.09,-35.93l1.27 -0.52c14.45,-5.76 26.26,-12.5 34.55,-26.43 5.16,-8.81 7.89,-18.87 7.89,-29.1 0,-20.47 -10.88,-39.43 -28.56,-49.74 -12.78,-6.74 -30.35,-11.52 -44.4,-5.76l-0.12 0z"/>
   <g>
    <circle class="fil13" cx="1855.96" cy="349.58" r="306.23"/>
    <path class="fil14" d="M1855.96 655.81c0.02,0 0.1,0 0.13,0 169.06,0 306.17,-137.1 306.17,-306.17 0,-21.31 -2.24,-42.65 -6.65,-63.47 -198.52,-30.76 -404.4,-12.9 -604.79,38.7 -0.64,8.13 -1.1,16.32 -1.1,24.64 0.01,-0 0.01,0.07 0.01,0.07 0,169.1 137.13,306.23 306.23,306.23 0,0 0,0 0,0l-0 0z"/>
    <circle class="fil3 str6" cx="1855.96" cy="349.58" r="306.23"/>
    <path class="fil13" d="M235.91 2065.14c0,-0.2 0,-0.81 0,-1.01 0,-124.33 14.24,-248.66 42.11,-369.78 5.59,-23.92 11.66,-47.59 18.19,-71.02 18.7,-208.33 129,-380.15 276.43,-533.59 30.7,-24.57 36.83,-79.78 67.53,-110.48 104.36,-92.04 196.4,-184.14 313.01,-257.99 478.7,-306.88 1110.84,-472.57 1620.24,-190.27 104.29,55.21 220.9,85.91 306.81,159.57 165.76,141.12 282.3,306.88 448.06,441.87 147.25,122.54 171.82,319.13 224.06,490.63 6.58,23.39 12.62,47.04 18.12,70.95 27.94,121.19 42.18,245.52 42.18,369.85 0,0.2 0,0.8 0,1l-3376.75 0.26z"/>
    <path class="fil14" d="M278.09 1694.28c-27.94,121.19 -42.18,245.52 -42.18,369.85 0,0.2 0,0.8 0,1l535.32 0c-10.06,-520.24 -143.57,-954.69 533.65,-1484.28 -485.8,184.4 -928.44,589.38 -1026.8,1113.42z"/>
    <path class="fil14" d="M351.49 1407.2c-29.72,68.61 -48.5,141.66 -55.3,216.1 -6.52,23.41 -12.55,47.07 -18.1,70.98 -27.94,121.19 -42.18,245.52 -42.18,369.85 0,0.2 0,0.8 0,1l1290.27 0c135.95,-10.68 274.68,-15.89 411.46,-15.89 136.78,0 275.51,5.21 411.64,15.63l1263.39 0.26c-0,-0.2 -0,-0.81 -0,-1.01 0,-124.33 -14.24,-248.66 -42.11,-369.78 -5.59,-23.92 -11.66,-47.59 -18.19,-71.02 -22.32,-73.33 -39.67,-151.18 -63.59,-225.74 -1044.15,-386.34 -2100.03,-378.14 -3137.28,9.61z"/>
    <path class="fil3 str0" d="M235.91 2065.14c0,-0.2 0,-0.81 0,-1.01 0,-124.33 14.24,-248.66 42.11,-369.78 5.59,-23.92 11.66,-47.59 18.19,-71.02 18.7,-208.33 129,-380.15 276.43,-533.59 30.7,-24.57 36.83,-79.78 67.53,-110.48 104.36,-92.04 196.4,-184.14 313.01,-257.99 478.7,-306.88 1110.84,-472.57 1620.24,-190.27 104.29,55.21 220.9,85.91 306.81,159.57 165.76,141.12 282.3,306.88 448.06,441.87 147.25,122.54 171.82,319.13 224.06,490.63 6.58,23.39 12.62,47.04 18.12,70.95 27.94,121.19 42.18,245.52 42.18,369.85 0,0.2 0,0.8 0,1l-3376.75 0.26z"/>
    <path class="fil13" d="M139.75 1634.94c1183.01,-503.08 2393.75,-509.92 3585.66,0 113.06,48.37 112.42,902.12 0,863.04 -1163.98,-405.24 -2394.98,-409.56 -3585.66,0 -141.63,48.7 -127.83,-808.67 0,-863.04z"/>
    <path class="fil0" d="M3532.18 2197.87c5.33,20.86 8.28,42.34 8.7,63.85 0.58,21.09 -0.71,42.05 -1.68,63.08l-2.32 31.41c-1.03,10.45 -2.06,20.9 -3.35,31.28 -2.58,20.83 -5.74,41.54 -10.26,61.98l-50.76 -9.09c2.84,-20.45 6.45,-40.7 10.58,-60.95l6.45 -30.38 6.45 -30.31c4.77,-20.19 8.84,-40.44 14.32,-60.63 5.41,-20.71 12.8,-40.92 21.89,-60.25l-0.02 0.01z"/>
    <path class="fil0" d="M3523.02 1544.9c9.88,40.26 17.89,81.4 23.41,122.54 2.77,20.57 5.03,41.21 7.03,61.85 2,20.64 3.16,41.41 4.26,62.11 1.68,41.41 2.39,82.81 0.39,124.16 -1.74,41.3 -7.15,82.81 -15.79,123.23 -6.45,-41.21 -10.77,-81.91 -14.96,-122.54 -4.19,-40.63 -7.8,-80.94 -13.22,-121.13 -2.52,-20.12 -5.35,-40.12 -8.38,-60.11 -3.03,-19.99 -6.45,-39.92 -9.8,-59.79 -6.9,-39.8 -14.84,-79.27 -23.15,-118.74l50.23 -11.58z"/>
    <path class="fil3 str7" d="M2999.75 1412.88c48.76,276.5 43.28,577.19 0,894.77"/>
    <path class="fil3 str7" d="M2544.47 1320.06c33.22,276.69 29.47,577.57 0,895.42"/>
    <path class="fil0" d="M2129.49 1635.2c7.78,44.1 12.95,88.72 15.26,133.33 2.58,44.5 3.35,89.01 4.19,133.57l0 66.82c0,22.25 0,44.5 -0.77,66.76 -0.97,44.5 -2.58,89.01 -5.61,133.44l-51.6 -2.58c1.42,-44.31 3.68,-88.56 6.06,-132.8l7.8 -132.67c2.97,-44.24 5.29,-88.56 8.71,-132.87 3.42,-44.31 8.47,-88.57 15.95,-133.01z"/>
    <path class="fil0" d="M2142.91 1270.21c1.18,12.24 1.82,24.73 1.82,37.09 0,1.24 0,2.63 0,3.87 0,6.84 -0.32,13.67 -0.52,20.51l-0.86 20.57c-1.1,13.67 -2.06,27.41 -4.39,41.15 -2.34,14.38 -6.9,28.33 -13.41,41.33 -7.73,-12.41 -13.62,-25.93 -17.43,-40.05 -3.68,-13.42 -6,-26.83 -8.45,-40.31l-3.16 -20.12c-0.84,-6.77 -1.81,-13.48 -2.52,-20.19 -1.47,-13.23 -2.25,-26.62 -2.25,-39.96 0,-0.17 0,-0.43 0,-0.61l51.15 -3.29z"/>
    <path class="fil3 str7" d="M1703.23 1268.73c2.26,277.34 2,578.35 0,896.51"/>
    <path class="fil3 str7" d="M1287.99 1310.84c-13.29,277.34 -11.8,578.73 0,897.22"/>
    <path class="fil0" d="M836.45 1862.1c7.6,35.59 13.7,72.04 17.51,108.24 4.06,36.05 7.03,72.04 10.64,108.03l9.74 107.9c3.03,35.93 6,71.91 8.06,107.97l-51.6 4.13c-3.74,-36.18 -6,-72.5 -7.61,-108.81 -0.84,-18.19 -1.29,-36.38 -1.81,-54.57l-0.64 -54.57c0,-36.38 0.32,-72.82 2.26,-109.19 1.7,-36.58 6.42,-73.22 13.46,-109.13l-0 -0.02z"/>
    <path class="fil0" d="M882.31 1401.14c-1.61,23.54 -4.13,46.95 -6.77,70.37l-4.26 35.15 -4.64 35.15c-3.48,23.48 -6.13,46.95 -10.32,70.5 -4.01,23.9 -10.11,47.56 -18.07,70.43 -6.68,-23.42 -11.02,-47.55 -12.86,-71.85 -1.93,-23.99 -2.06,-47.86 -2.45,-71.85l0 -35.86c0.39,-12 0.71,-23.93 1.29,-35.86 1.29,-23.93 3.16,-47.79 6.45,-71.53l51.64 5.35z"/>
    <path class="fil3 str7" d="M394.58 1531.87c-44.24,277.34 -39.28,579.51 0,898.45"/>
    <path class="fil0" d="M3543.4 2138.99c13.36,0 24.19,-10.83 24.19,-24.19 0,-13.36 -10.83,-24.19 -24.19,-24.19 -13.36,0 -24.19,10.83 -24.19,24.19 0.17,13.28 10.9,24.01 24.19,24.19l0 0z"/>
    <path class="fil3 str8" d="M3577 1537.87c64.5,276.31 57.08,576.8 0,894.19"/>
    <path class="fil3 str8" d="M3078.57 1399.98c48.76,276.5 43.28,577.19 0,894.84"/>
    <path class="fil3 str8" d="M2623.09 1306.14c33.22,276.69 29.47,577.57 0,895.42"/>
    <path class="fil3 str8" d="M2195.34 1256.92c17.67,276.82 15.74,577.96 0,896"/>
    <path class="fil3 str8" d="M1780.88 1252.67c2.19,277.02 2,578.35 0,896.51"/>
    <path class="fil3 str8" d="M1365.13 1293.75c-13.29,277.34 -11.8,578.73 0,897.22"/>
    <path class="fil3 str8" d="M933.45 1380.63c-28.76,277.34 -25.8,579.12 0,897.87"/>
    <path class="fil3 str8" d="M471.2 1513.75c-44.24,277.34 -39.28,579.51 0,898.45"/>
    <path class="fil3 str0" d="M139.75 1634.94c1183.01,-503.08 2393.75,-509.92 3585.66,0 113.06,48.37 112.42,902.12 0,863.04 -1163.98,-405.24 -2394.98,-409.56 -3585.66,0 -141.63,48.7 -127.83,-808.67 0,-863.04z"/>
    <path class="fil0" d="M1438.79 1165.98c82.12,-17.08 165.75,-29.76 249.11,-37.01 20.96,-1.81 41.86,-3.61 62.82,-5.03l62.89 -3.61c21.03,-0.9 41.99,-1.29 63.01,-1.93l63.01 -0.84c83.85,0 168.02,4.06 251.54,11.87 83.28,7.43 167.07,20.2 248.81,37.57 -83.85,-1.87 -167.69,-5.1 -250.76,-7.29 -83.07,-2.19 -166.66,-3.16 -249.93,-3.35l-62.38 -0.05c-20.83,0 -41.66,0.77 -62.5,0.71l-62.43 0.9c-20.83,0.71 -41.66,1.03 -62.56,1.29 -83.2,2.13 -166.66,5.1 -250.64,6.77z"/>
    <path class="fil6" d="M926.36 844.21c45.45,-36.24 94.06,-69.66 144.4,-98.88 50.18,-29.8 101.97,-57.02 154.79,-81.65 12.9,-6.45 26.64,-12 39.99,-17.93 13.35,-5.93 26.64,-12 40.25,-17.22 27.22,-10.64 54.18,-21.8 81.91,-30.96 54.77,-19.55 111.32,-35.95 168.05,-48.43 -13.35,5.87 -26.83,11.48 -40.31,16.96 -13.48,5.48 -27.02,10.58 -40.31,16.51 -26.77,11.22 -53.6,22.06 -80.17,33.67l-19.93 8.58c-6.45,2.77 -13.42,5.48 -19.99,8.51l-39.67 17.61c-13.29,5.68 -26.38,11.8 -39.6,17.74 -13.22,5.93 -26.38,11.87 -39.34,18.25l-39.34 18.25c-12.9,6.45 -25.8,12.9 -39.02,19.35 -25.8,12.51 -51.6,25.8 -77.72,38.7 -51.56,25.99 -102.9,52.88 -153.98,80.94z"/>
   </g>
  </g>
 </g>
</svg>
