<?xml version="1.0" encoding="UTF-8"?>
<!DOCTYPE svg PUBLIC "-//W3C//DTD SVG 1.1//EN" "http://www.w3.org/Graphics/SVG/1.1/DTD/svg11.dtd">
<!-- Creator: CorelDRAW -->
<svg xmlns="http://www.w3.org/2000/svg" xml:space="preserve" width="176.827mm" height="259.151mm" version="1.1" style="shape-rendering:geometricPrecision; text-rendering:geometricPrecision; image-rendering:optimizeQuality; fill-rule:evenodd; clip-rule:evenodd"
viewBox="0 0 81452.17 119373.1"
 xmlns:xlink="http://www.w3.org/1999/xlink"
 xmlns:xodm="http://www.corel.com/coreldraw/odm/2003">
 <defs>
  <style type="text/css">
   <![CDATA[
    .str5 {stroke:#592D3D;stroke-width:731.25;stroke-miterlimit:22.9256}
    .str1 {stroke:#592D3D;stroke-width:1462.5;stroke-miterlimit:22.9256}
    .str4 {stroke:white;stroke-width:2925.01;stroke-miterlimit:22.9256}
    .str3 {stroke:white;stroke-width:1949.99;stroke-miterlimit:22.9256}
    .str6 {stroke:#592D3D;stroke-width:1834.56;stroke-miterlimit:22.9256}
    .str7 {stroke:#592D3D;stroke-width:1092.02;stroke-miterlimit:22.9256}
    .str8 {stroke:#C46565;stroke-width:1092.02;stroke-miterlimit:22.9256}
    .str0 {stroke:#592D3D;stroke-width:1638.01;stroke-miterlimit:22.9256}
    .str2 {stroke:#592D3D;stroke-width:1462.5;stroke-linecap:square;stroke-miterlimit:22.9256}
    .fil3 {fill:none;fill-rule:nonzero}
    .fil11 {fill:#592D3D}
    .fil8 {fill:black;fill-rule:nonzero}
    .fil0 {fill:#592D3D;fill-rule:nonzero}
    .fil9 {fill:#61DAFB;fill-rule:nonzero}
    .fil2 {fill:#67B7D6;fill-rule:nonzero}
    .fil1 {fill:#85C5E5;fill-rule:nonzero}
    .fil14 {fill:#C46565;fill-rule:nonzero}
    .fil13 {fill:#D67070;fill-rule:nonzero}
    .fil7 {fill:#E2E2E2;fill-rule:nonzero}
    .fil12 {fill:#F28195;fill-rule:nonzero}
    .fil5 {fill:#F3AB98;fill-rule:nonzero}
    .fil4 {fill:#FDD2B2;fill-rule:nonzero}
    .fil6 {fill:white;fill-rule:nonzero}
    .fil10 {fill:black;fill-rule:nonzero;fill-opacity:0.101961}
   ]]>
  </style>
 </defs>
 <g id="Capa_x0020_1">
  <metadata id="CorelCorpID_0Corel-Layer"/>
  <g id="_2762717688720">
   <g>
    <path class="fil0 str0" d="M2957.58 53925.89c25036.93,10640.22 50660.8,10791.72 75886.08,0 2392.84,-1023.75 2379.21,-19092.3 0,-18265.14 -24634.25,8576.31 -50686.73,8667.79 -75886.08,0 -2997.51,-1036.05 -2705.43,17108.96 0,18265.14z"/>
   </g>
   <path class="fil1" d="M41535.83 13770.53c-20248.39,0 -36663.78,16414.19 -36663.78,36663.78l0 19918.07c1155.4,1282.12 3091.99,2385.1 5606.25,3313.78l1623.4 -4846.95 1762.33 5906.08c18617.71,4953.03 56880.48,3081.03 64335.61,-4372.91l-0.05 -19918.07c0,-20249.63 -16415.38,-36663.78 -36663.78,-36663.78z"/>
   <path class="fil2" d="M9989.62 73480.94c160.9,62.14 322.95,121.88 487.49,185.27l1624.6 -4846.99 1762.33 5906.08c5511.22,1462.5 12742.08,2333.93 20387.32,2636.15l3324.75 -3195.58 -28446.94 -21406.19c0,0 -748.3,12364.27 860.46,20721.28z"/>
   <path class="fil2" d="M55611.25 55605.45l3084.66 20811.47c4241.26,-528.94 8119.32,-1251.67 11347.84,-2160.87l-0.05 0c0,0 4032.87,-4495.99 3597.76,-21496.38 -435.11,-17000.39 -18030.22,2845.78 -18030.22,2845.78z"/>
   <path class="fil3 str1" d="M41535.83 13770.53c-20248.39,0 -36663.78,16414.19 -36663.78,36663.78l0 19918.07c1155.4,1282.12 3091.99,2385.1 5606.25,3313.78l1623.4 -4846.95 1762.33 5906.08c18617.71,4953.03 56880.48,3081.03 64335.61,-4372.91l-0.05 -19918.07c0,-20249.63 -16415.38,-36663.78 -36663.78,-36663.78z"/>
   <path class="fil4" d="M54733.75 80704.47c11061.42,0 8775.03,13923.05 8881.07,29406.11l-8881.07 0 0 -29406.11z"/>
   <path class="fil5" d="M57505.18 89619.67l-2771.44 4647.13 1386.96 15843.79 3870.73 0c93.83,-21970.51 -2486.26,-20490.91 -2486.26,-20490.91z"/>
   <path class="fil4" d="M8817.18 49172.87c0,-17954.68 14555.59,-32510.26 32510.26,-32510.26 17954.68,0 32510.26,14555.59 32510.26,32510.26 0.05,7.19 0.05,23.03 0.05,30.95 0,9784 -4420.63,19057.01 -12022.07,25212.66 -667.73,542.26 -1356.24,1057.52 -2065.56,1545.83 -7332.01,4654.4 -16594.52,4654.4 -24956.41,3909.75 -811.68,-121.88 -1620.96,-275.46 -2424.12,-452.16 -3208.99,-706.89 -6315.58,-1797.66 -9185.73,-3388.13 -709.33,-437.14 -1397.1,-909.19 -2063.35,-1416.21 -667.96,-507.66 -1312.39,-1057.06 -1924.15,-1630.22 -581.13,-538.98 -1141.86,-1098.97 -1682.13,-1679.88 -5583.82,-5993.83 -8697,-13893.52 -8697,-22089.9 0,-11.88 0,-31.65 0,-43.53l-0.05 0.83z"/>
   <path class="fil5" d="M13248.54 65562.69c85.31,146.25 169.42,292.5 257.17,436.31 52.42,87.75 107.24,173.06 162.1,260.81 80.43,130.4 160.9,260.81 243.77,388.77 58.5,92.63 121.88,182.82 177.94,273.02 80.43,121.88 160.9,243.77 243.77,365.65 62.14,92.63 121.88,185.27 190.15,277.9 80.43,121.88 160.9,234 243.77,351 65.82,93.83 134.04,186.46 201.11,280.29 67.07,93.83 163.29,225.48 243.77,337.6 80.47,112.12 140.17,186.46 210.83,279.1 70.66,92.63 166.98,219.4 252.29,329.08 85.31,109.68 145.05,184.02 218.16,275.46 73.1,91.44 171.86,214.52 258.37,320.55 86.51,106.04 149.89,181.58 225.48,271.77 75.59,90.19 175.5,209.63 264.45,313.23 88.95,103.6 154.77,179.14 232.8,268.13l270.57 304.71c79.23,88.95 159.65,175.5 243.77,263.25 104.79,114.56 210.83,227.92 316.87,340.04l147.45 156.02c157.21,163.29 315.67,326.63 476.52,487.49l31.69 32.89c157.21,156.02 316.87,310.79 476.52,464.36l192.54 182.82c115.8,108.48 231.56,216.96 348.56,324.19l141.37 129.21c121.88,114.56 254.73,226.68 382.69,338.79 398.08,346.86 804.31,679.52 1218.69,998 665.43,507.02 1353.24,979.07 2063.35,1416.21 2870.15,1584.39 5971.9,2681.24 9185.73,3388.13 803.16,176.7 1612.39,329.08 2424.12,452.16 5130.97,457.04 10603.18,631.3 15756.04,-375.37 -8193.67,-2411.91 -47542.32,-16581.17 -22776.06,-59878.59l0 0c-331.52,152.33 -658.15,309.54 -982.3,472.88l-71.9 35.33c-148.69,74.35 -297.38,151.13 -444.83,229.12l-121.88 64.58c-458.24,243.77 -911.64,496.05 -1356.47,759.3l-109.68 64.58c-141.37,84.11 -281.54,169.42 -421.71,255.93l-106.04 65.82c-435.48,272.19 -864.1,553.73 -1285.81,844.61l-131.65 91.39c-132.85,92.63 -263.25,185.27 -393.66,279.1l-80.43 57.3c-265.69,194.16 -528.11,390.8 -787.27,589.84l-75.54 58.5c-121.88,95.07 -243.77,192.54 -365.65,291.3l-142.61 114.56c-121.88,98.71 -243.77,197.43 -365.65,298.58l0 0c-257.17,213.27 -510.66,432.67 -760.5,654.47l-138.93 121.88 -327.83 298.58 -158.46 143.86c-347.73,324.98 -687.77,656.91 -1020.07,995.7l-168.18 171.86c-96.27,99.96 -192.54,199.87 -287.62,301.02 -56.06,59.7 -112.12,121.88 -166.98,180.38 -167.39,178.73 -332.35,359.94 -494.86,543.55 -54.86,62.14 -110.92,121.88 -165.74,187.71 -86.55,98.71 -171.86,198.67 -257.17,298.58l-184.02 218.16c-82.87,98.71 -165.74,197.43 -243.77,297.38 -65.82,80.43 -131.65,162.1 -196.23,243.77 -130.4,162.1 -258.37,324.19 -385.13,487.49 -65.82,85.31 -131.65,170.62 -196.23,257.17 -64.58,86.55 -146.25,193.79 -218.16,292.5 -71.9,98.71 -130.4,176.7 -193.79,265.69 -63.38,88.99 -137.73,188.9 -204.75,283.98 -115.34,162.46 -229.07,327 -341.19,493.57 -60.94,88.95 -121.88,180.38 -181.58,270.57 -59.7,90.19 -134.04,202.31 -199.87,304.71l-181.58 281.54 -204.75 330.27c-52.42,84.11 -104.79,168.18 -156.02,252.29 -108.48,177.94 -213.27,357.08 -318.11,536.27l-148.69 263.25c-65.82,115.8 -131.65,232.8 -196.23,349.8 -48.73,88.95 -97.52,177.94 -145.05,266.89 -77.98,145.05 -154.77,291.3 -231.56,437.55l-146.25 285.18c-77.98,156.02 -156.02,310.79 -232.8,468 -40.21,84.11 -81.67,169.42 -121.88,254.73 -63.38,132.85 -121.88,266.89 -186.46,400.98 -37.77,80.43 -74.35,160.9 -110.92,243.77 -90.15,200.6 -178.26,403.7 -264.4,609.28 -26.81,63.38 -52.42,127.96 -79.23,191.35 -64.58,154.77 -127.96,309.54 -190.15,465.56 -32.89,81.67 -64.58,163.29 -96.27,243.77 -60.94,153.57 -121.88,308.35 -176.7,463.12 -25.61,67.02 -51.18,134.04 -75.54,201.11 -76.37,213.69 -151.55,427.37 -225.48,641.06l-68.27 207.19c-53.62,162.46 -106.04,324.98 -157.21,487.49l-73.15 232.8c-57.3,187.71 -113.36,375.37 -166.98,564.27 -12.21,40.21 -24.37,80.43 -35.33,121.88 -63.38,224.24 -124.32,449.3 -182.82,675.15 -19.48,71.9 -36.57,145.05 -54.86,216.96 -42.65,169.42 -84.11,338.79 -121.88,509.46l-51.18 213.27c-52.42,231.56 -103.6,463.12 -151.13,695.92l-18.29 93.83c-41.41,207.19 -81.99,414.38 -121.84,621.58 -13.4,74.35 -25.61,147.45 -39.02,221.79 -31.69,181.58 -62.14,365.65 -90.19,548.43 -9.77,62.14 -20.73,121.88 -29.25,185.27 -36.57,237.64 -69.46,476.52 -101.15,716.65l-18.29 158.46c-24.37,193.79 -46.29,388.77 -67.02,583.8 -7.32,73.15 -15.85,146.25 -23.17,220.6 -19.48,204.75 -37.77,410.7 -54.86,616.69 0,42.65 -7.32,84.11 -9.77,121.88 -17.83,243.67 -33.63,489.47 -47.45,737.24 0,64.58 0,130.4 -8.52,194.99 -8.15,191.76 -15.48,383.15 -21.97,574.08 0,71.9 0,143.81 0,215.71 0,249.85 -9.77,500.89 -9.77,751.98 0,0 0,8.52 0,12.21 0,270.57 0,538.71 9.77,806.8 0,92.63 7.32,185.27 9.77,277.9 6.08,179.14 12.21,358.33 20.73,537.46 0,108.48 13.4,215.71 19.48,324.19 9.77,162.1 18.29,324.19 30.45,487.49 8.52,121.88 19.48,230.36 29.25,344.92 13.4,153.57 25.61,307.15 41.46,459.48 10.96,121.88 25.61,236.44 37.77,354.64 17.04,147.45 32.89,296.14 51.18,443.63 14.65,121.88 31.69,243.77 47.54,359.52 19.48,143.81 39.02,288.86 60.94,432.67 18.29,121.88 37.77,243.77 57.3,365.65 21.93,141.37 45.1,283.98 69.46,425.35 21.93,121.88 43.9,243.77 67.02,365.65 25.61,140.17 52.42,280.29 79.23,419.27 26.81,138.97 49.98,243.77 75.54,365.65 29.25,138.93 58.5,276.66 90.19,414.38 31.69,137.73 53.62,243.77 82.87,357.08 31.69,137.73 65.82,274.21 99.96,409.5 34.13,135.29 59.7,237.64 90.19,354.64 36.57,136.49 73.15,271.77 110.92,407.06 31.69,121.88 64.58,234 98.71,349.8 39.02,135.29 79.23,269.33 121.88,403.42 42.65,134.09 70.71,230.36 107.24,346.12 36.53,115.76 85.31,266.89 129.21,399.74 43.9,132.85 75.54,227.92 114.56,341.24 46.29,132.85 92.63,265.69 140.17,398.54 40.21,110.92 79.23,223.04 121.88,333.96l151.13 398.54c42.65,108.48 84.11,218.16 121.88,326.63 53.62,132.85 108.48,266.89 163.29,399.74 43.9,104.79 86.55,210.83 131.65,315.67 57.3,136.49 121.88,270.57 176.7,405.86 45.1,99.96 88.95,201.11 134.04,301.02 63.38,141.37 130.4,280.29 194.99,419.27l131.65 280.29c74.35,153.57 151.13,304.71 227.92,457.04 39.02,76.79 75.54,154.77 115.8,231.56 233.95,455.7 477.67,905.42 731.21,1349.01 35.33,57.3 80.43,131.65 124.28,205.99z"/>
   <path class="fil3 str1" d="M8817.18 49172.87c0,-17954.68 14555.59,-32510.26 32510.26,-32510.26 17954.68,0 32510.26,14555.59 32510.26,32510.26 0.05,7.19 0.05,23.03 0.05,30.95 0,9784 -4420.63,19057.01 -12022.07,25212.66 -667.73,542.26 -1356.24,1057.52 -2065.56,1545.83 -7332.01,4654.4 -16594.52,4654.4 -24956.41,3909.75 -811.68,-121.88 -1620.96,-275.46 -2424.12,-452.16 -3208.99,-706.89 -6315.58,-1797.66 -9185.73,-3388.13 -709.33,-437.14 -1397.1,-909.19 -2063.35,-1416.21 -667.96,-507.66 -1312.39,-1057.06 -1924.15,-1630.22 -581.13,-538.98 -1141.86,-1098.97 -1682.13,-1679.88 -5583.82,-5993.83 -8697,-13893.52 -8697,-22089.9 0,-11.88 0,-31.65 0,-43.53l-0.05 0.83z"/>
   <path class="fil4" d="M27448.24 80704.47c-11062.62,0 -8775.03,13923.05 -8881.07,29406.11l8881.07 0 0 -29406.11z"/>
   <path class="fil5" d="M25146.05 89619.67l2775.07 4647.13 -1388.16 15843.79 -3867.09 0c-98.71,-21970.51 2480.18,-20490.91 2480.18,-20490.91z"/>
   <path class="fil4" d="M55887.91 118641.85l-29120.94 0c-893.26,-0.6 -1617.23,-725.17 -1617.23,-1618.52 0,0 0,0 0,0l-0.05 -34700.33c0.05,-0.05 0.05,-0.05 0.05,-0.05 0,-893.35 723.97,-1617.92 1617.32,-1618.52l28424.92 0.05c1595.35,0 2315.64,933.56 2315.64,2422.88l0 33891.1c0,1.52 0,3.32 0,4.88 0,893.72 -724.8,1618.52 -1618.52,1618.52 -0.41,0 -0.78,0 -1.2,0z"/>
   <path class="fil5" d="M57055.47 81667.28c-121.28,-148.88 -224.51,-313.41 -305.91,-487.44 -292.36,-229.21 -640.92,-377.07 -1009.01,-427.88 -178.17,-27.68 -358.65,-41.46 -538.71,-41.46 -2.99,0 -6.86,0 -9.9,0l-28424.97 0.05c-890.86,0.55 -1613.87,721.39 -1617.23,1612.35 3534.38,1269.96 10150.98,1979.24 16177.74,1979.24 7685.41,0.09 12721.3,-1139.42 15727.98,-2634.86z"/>
   <path class="fil3 str2" d="M54733.75 80704.47c11061.42,0 8775.03,13923.05 8881.07,29406.11l-6109.63 0"/>
   <path class="fil3 str2" d="M27448.24 80704.47c-11062.62,0 -8775.03,13923.05 -8881.07,29406.11l6102.31 0"/>
   <line class="fil3 str1" x1="26766.97" y1="80716.68" x2="55191.98" y2= "80704.47" />
   <path class="fil5" d="M26766.97 118641.85l14213.11 0c-13302.67,0 -12298.45,-28175.17 -15830.38,-28175.17l0 26551.76c0.05,1.52 0.05,3.32 0.05,4.88 0,893.35 723.97,1617.92 1617.32,1618.52l-0.09 0z"/>
   <path class="fil0" d="M24418.44 93151.61c-23.17,-447.27 -13.4,-894.55 6.08,-1340.62 19.48,-446.08 57.3,-895.79 104.79,-1340.62 24.37,-224.24 48.73,-447.27 79.23,-671.55 30.49,-224.28 59.7,-447.27 103.6,-671.55 85.86,-463.63 233.77,-915.23 437.55,-1340.58 203.88,425.35 351.78,876.95 437.92,1340.39 43.9,224.24 75.54,447.27 103.6,671.55 28.05,224.28 54.86,447.27 79.23,671.55 46.29,447.27 82.87,894.55 103.6,1340.62 20.73,446.08 30.45,894.55 7.32,1340.62l-1462.92 0.18z"/>
   <path class="fil3 str1" d="M57505.18 94266.8l0 975.02c31.69,4143.75 31.69,8409.43 0,12522.68 0,349.8 0,697.12 0,1039.6l0 8215.64c0,1.01 0,2.4 0,3.59 0,893.35 -723.97,1617.92 -1617.32,1618.52l-29120.89 0c-893.26,-0.6 -1617.23,-725.17 -1617.23,-1618.52 0,0 0,0 0,0l-0.05 -7093.13c0,-305.91 0,-617.89 0,-932.36 -30.45,-4249.79 -30.45,-8515.42 0,-12833.47l0 -3012.76"/>
   <path class="fil0" d="M56773.93 94266.8c-23.17,-508.21 -12.21,-1017.67 7.32,-1527.09 19.53,-509.41 57.3,-1017.67 103.6,-1527.09 24.37,-254.73 49.98,-509.46 79.23,-764.14 29.25,-254.68 59.7,-508.21 103.6,-762.94 84.2,-524.15 232.57,-1038.08 437.51,-1527.45 204.93,489.37 353.3,1003.3 437.74,1527.09 43.9,254.73 75.54,509.46 103.6,762.94 28.05,253.49 54.86,509.46 79.23,764.14 46.29,509.46 84.11,1017.67 103.6,1527.09 19.48,509.41 30.45,1018.87 7.32,1527.09l-1462.74 0.37z"/>
   <path class="fil3 str1" d="M41579.73 95346.61c0,4663.94 -3782.66,8445.63 -8447.15,8445.63 -4664.49,0 -8447.2,-3782.71 -8447.2,-8447.2 0,-1332.42 315.58,-2647.29 919.88,-3834.3"/>
   <g>
    <path class="fil4" d="M25605.49 91511.16c461.88,-901.13 1081.89,-1713.96 1828.34,-2397.22l-1828.34 2397.22zm0 0l0 0 0 0z"/>
   </g>
   <path class="fil0" d="M24953.46 91178.45c107.05,-253.53 245.65,-492.97 411.99,-711.95 164.31,-218.71 350.4,-423.6 551.97,-609.14 102.4,-92.63 205.95,-182.82 314.43,-266.89 107.65,-86.97 222.21,-165.78 342.48,-234.23 259.93,-149.8 553.22,-233.72 853.18,-243.54 -31.18,284.95 -103.73,565.06 -213.09,829.87 -47.54,121.88 -101.15,229.12 -157.21,337.6l-158.46 325.39c-103.6,214.52 -205.95,425.35 -310.79,632.54 -100.33,208.25 -213.87,413.42 -336.35,609.69l-1298.15 -669.34z"/>
   <g>
    <path class="fil4" d="M40027.03 90466.68c1009.66,1422.06 1552.7,3124.28 1552.7,4868.6 0,2.07 0,4.1 0,6.17l-1552.7 -4874.77zm0 0l0 0 0 0z"/>
   </g>
   <path class="fil0" d="M40027.03 90466.68c416.09,225.11 777.96,539.54 1059.22,919.97 139.8,184.85 266.2,380.57 377.63,583.8 113.36,203.55 215.71,413.14 310.79,627.66 186.51,429.54 329.21,881.42 421.89,1340.71 78.26,386.1 118.98,780.31 118.98,1174.56 0,76.42 -1.43,155 -4.28,230.68l-1462.78 0.09c-23.17,-396.1 -43.9,-789.75 -85.31,-1185.85 -41.41,-396.1 -93.83,-789.75 -170.62,-1187.05l-60.94 -297.38 -70.71 -298.58c-51.18,-198.67 -106.04,-397.29 -157.21,-600.85 -114.24,-429.17 -208.76,-869.35 -276.98,-1308.01l0.32 0.23z"/>
   <g>
    <path class="fil4" d="M58591.08 95346.61c0,-3.36 0,-6.45 0,-9.54 0,-2334.2 -969.08,-4563.52 -2673.74,-6157.03l2673.74 6166.57zm0 0l0 0 0 0z"/>
   </g>
   <path class="fil0" d="M57859.82 95346.61c-19.62,-523.83 -72.18,-1049.23 -153.34,-1566.61 -85.68,-523.83 -213.64,-1043.05 -380.62,-1545.28 -41.46,-121.88 -90.19,-252.29 -135.29,-379.05 -45.1,-126.77 -102.4,-249.85 -152.33,-376.61 -49.93,-126.77 -114.56,-243.77 -168.18,-371.73l-177.94 -365.65c-243.77,-499.69 -508.21,-998.14 -775.15,-1553.89 564.69,240.91 1072.81,599.01 1489.45,1049.69 101.15,114.56 207.19,226.68 301.02,347.36 93.83,120.69 187.71,243.77 274.21,365.65 86.51,121.88 174.3,254.73 252.29,387.58 77.98,132.85 159.65,265.69 229.12,404.62 290.06,550.18 512.18,1136.84 658.38,1742.02 133.08,538.8 200.47,1095.43 200.47,1651.27 0,69.88 -1.7,141.51 -3.36,210.55l-1458.73 0.09z"/>
   <path class="fil3 str1" d="M41693.09 95346.61c0.37,32.29 -0.64,68.4 -0.64,101.38 0,4664.49 3782.71,8447.2 8447.2,8447.2 4664.49,0 8447.2,-3782.71 8447.2,-8447.2 0,-32.98 -1.01,-69.09 -1.01,-101.06"/>
   <g>
    <path class="fil4" d="M43249.42 90466.68c-1008.41,1420.36 -1551.5,3123.63 -1551.5,4866.89 0,2.07 0,6.17 0,8.2l1551.5 -4875.09zm0 0l0 0 0 0z"/>
   </g>
   <path class="fil0" d="M43249.42 90466.68c-68.82,439.67 -161.82,879.85 -276.52,1310.77 -51.18,203.55 -106.04,402.18 -157.21,600.85l-69.46 298.58 -60.94 297.38c-76.79,397.29 -132.85,792.19 -171.86,1187.05 -39.02,394.85 -60.94,789.75 -84.11,1185.85l-1467.53 -0.55c-2.86,-79.23 -4.97,-161.04 -4.97,-240.77 0,-390.94 40.58,-781.83 119.58,-1164.38 92.26,-459.76 234.14,-911.27 421.34,-1340.9 93.83,-214.52 196.23,-424.15 309.54,-627.66 111.93,-202.45 238.7,-398.81 377.95,-583.34 282.55,-381.31 646.68,-697.07 1064.01,-922.78l0.18 -0.09z"/>
   <line class="fil3 str1" x1="27121.66" y1="90311.91" x2="27121.66" y2= "80704.47" />
   <line class="fil3 str1" x1="55521.06" y1="90311.91" x2="55521.06" y2= "80704.47" />
   <path class="fil6 str1" d="M37732.12 97652.48l6569.07 0 0 2400.95c-2162.07,-737.33 -4352.18,-719.05 -6569.07,0l0 -2400.95z"/>
   <path class="fil6 str1" d="M58158.45 95346.61c0,-2.81 0,-8.98 0,-12.07 0,-2135.26 -812.78,-4191.38 -2270.91,-5750.2 -514.3,-550.87 -5395.42,754.42 -8264.37,3322.3 -2816.53,2521.59 -5268.66,6640.97 -4917.66,7160.19 1569.88,2329.69 4196.54,3727.06 7005.74,3727.06 4664.49,0 8447.2,-3782.71 8447.2,-8447.2 0,0 0,0 0,0l0 -0.09z"/>
   <path class="fil6" d="M53284.65 91633.05c-745.9,447.27 -1480.79,875.06 -2193.76,1340.62 -702.83,446.67 -1379.96,948.76 -2015.63,1485.4 -627.66,543.55 -1232.14,1135.87 -1828.15,1737.96 -596.01,602.09 -1180.97,1218.74 -1797.66,1836.68 374.91,-785.42 831.72,-1529.39 1362.87,-2215.31 528.99,-695.51 1133.38,-1342.56 1793.05,-1916.96 671.74,-568.74 1417.32,-1050.75 2211.86,-1429.8 781.78,-383.8 1613.68,-666.9 2467.97,-838.26l-0.55 -0.32z"/>
   <path class="fil6 str1" d="M24496.43 95346.61c0.05,-2.81 0.05,-8.98 0.05,-12.07 0,-2135.26 812.78,-4191.38 2270.91,-5750.2 514.3,-550.87 5395.42,754.42 8264.37,3322.3 2816.53,2521.59 5268.66,6640.97 4917.66,7160.19 -1569.88,2329.69 -4196.54,3727.06 -7005.74,3727.06 -4664.49,0 -8447.2,-3782.71 -8447.2,-8447.2 0,0 0,0 0,0l-0.05 -0.09z"/>
   <path class="fil7" d="M35934.46 102666.41c-5744.53,-0.05 -10403.22,-4658.73 -10403.22,-10403.32 0,-0.32 0,-0.32 0,-0.32 0,-353.44 19.3,-710.75 53.99,-1061.62 -713.24,1264.53 -1087.6,2693.86 -1087.6,4145.91 0,4664.49 3782.71,8447.2 8447.2,8447.2 1542.79,0 3058.78,-423.87 4377.8,-1223.11 -458.7,62.14 -923.98,95.26 -1387.97,95.26l-0.18 0z"/>
   <path class="fil3 str1" d="M24496.43 95346.61c0.05,-2.81 0.05,-8.98 0.05,-12.07 0,-2135.26 812.78,-4191.38 2270.91,-5750.2 514.3,-550.87 5395.42,754.42 8264.37,3322.3 2816.53,2521.59 5268.66,6640.97 4917.66,7160.19 -1569.88,2329.69 -4196.54,3727.06 -7005.74,3727.06 -4664.49,0 -8447.2,-3782.71 -8447.2,-8447.2 0,0 0,0 0,0l-0.05 -0.09z"/>
   <path class="fil6" d="M29370.23 91633.05c854.24,171.31 1686.19,454.41 2468.43,836.83 794.08,379.28 1538.42,862.53 2209.93,1431.14 657,574.87 1258.26,1218.74 1785.32,1914.66 532.54,686.2 989.34,1430.17 1362.82,2214.3 -616.69,-609.37 -1199.25,-1234.58 -1797.66,-1836.68 -598.41,-602.09 -1199.25,-1194.37 -1828.15,-1737.96 -634.24,-535.35 -1311.37,-1037.43 -2013.83,-1484.25 -710.94,-462.98 -1442.19,-890.77 -2186.85,-1338.04z"/>
   <path class="fil5" d="M62996.88 98696.97c25.61,-4522.8 -147.45,-8539.83 -942.08,-11625.69 -1227.31,-3090.79 -3434.47,-4933.55 -7321.05,-4933.55l2777.52 16394.7c0,0 2744.63,1247.99 5485.61,164.54z"/>
   <path class="fil3 str2" d="M64046.24 97409.96c-138.65,114.61 -290.66,214.61 -450.82,296.19"/>
   <path class="fil5" d="M20134.52 86939.63c-832.41,3116.36 -975.02,7206.49 -943.33,11821.92 2425.32,1040.8 6144.96,-262.05 6144.96,-262.05l2112.09 -16116.8c-3762.25,-3.64 -6004.79,1690.43 -7313.72,4556.93z"/>
   <path class="fil6" d="M55191.98 80704.47l-6606.88 0 0 12.21c0,-0.32 0,2.49 0,2.49 0,547.41 -59.79,1094.78 -175.59,1629.12 -55.69,260.12 -127.27,519.36 -211.61,771.37 -269.98,755.76 -684.82,1453.75 -1219.34,2051.84 -170.71,191.02 -353.58,372.47 -547.97,539.58 -3067.62,2218.12 -7942.62,2340.01 -10905.4,-70.71 -319.22,-277.81 -610.52,-589.15 -867.09,-925.92 -533.23,-701.17 -912.19,-1508.34 -1108.88,-2366.13 -57.07,-264.77 -101.66,-534.06 -130.45,-803.34 -28.51,-269.98 -44.87,-545.02 -44.87,-817.3 0,-3.64 0,-7.28 0,-10.87l0 -12.21 -6606.93 -0.14c-893.26,0.55 -1617.23,725.13 -1617.23,1618.47 0,0 0,0 0,0l0 34695.5c0,1.52 0,3.32 0,4.88 0,893.35 723.97,1617.92 1617.32,1618.52l29120.84 0c893.3,-0.6 1617.28,-725.17 1617.28,-1618.52 0,0 0,0 0,0l0 -33895.98c0,-1489.31 -717.85,-2422.88 -2313.2,-2422.88z"/>
   <path class="fil6" d="M54733.75 80704.47c7743.95,0 8945.65,6825.04 9006.59,16230.16 -2266.91,1416.21 -5960.94,159.65 -5960.94,159.65l-3045.65 -16389.82z"/>
   <path class="fil7" d="M57505.18 89619.67l-2771.44 4647.13 1386.96 15843.79 1414.92 0 0 -12876.12 2106.01 352.2c-690.99,-8795.76 -2136.45,-7966.99 -2136.45,-7966.99z"/>
   <path class="fil6" d="M27448.24 80704.47c-7529.48,0 -9241.83,6556.9 -9366.11,15558.61 2315.64,2420.43 7068.76,558.19 7068.76,558.19l2297.35 -16116.8z"/>
   <path class="fil7" d="M25146.05 89619.67l0 7206.49 -2109.65 525.3c690.99,-8545.91 2109.65,-7731.79 2109.65,-7731.79z"/>
   <path class="fil3 str2" d="M54733.75 80704.47c8215.64,0 9561.14,6860.37 9615.96,16304.51 -3193.14,1514.92 -6570.31,85.31 -6570.31,85.31"/>
   <path class="fil3 str2" d="M27448.24 80704.47c-8140.05,0 -9759.77,6666.58 -9842.68,15931.54 2515.55,1801.35 7539.25,190.15 7539.25,190.15"/>
   <path class="fil7" d="M26766.97 118641.85l14213.11 0c-13302.67,0 -12298.45,-28175.17 -15830.38,-28175.17l0 26551.76c0.05,1.52 0.05,3.32 0.05,4.88 0,893.35 723.97,1617.92 1617.32,1618.52l-0.09 0z"/>
   <path class="fil0" d="M24418.44 93151.61c-23.17,-447.27 -13.4,-894.55 6.08,-1340.62 19.48,-446.08 57.3,-895.79 104.79,-1340.62 24.37,-224.24 48.73,-447.27 79.23,-671.55 30.49,-224.28 59.7,-447.27 103.6,-671.55 85.86,-463.63 233.77,-915.23 437.55,-1340.58 203.55,424.66 351.32,876.31 436.59,1340.35 45.1,224.24 76.79,447.27 104.79,671.55 28.01,224.28 54.86,447.27 79.23,671.55 46.29,447.27 82.87,894.55 103.6,1340.62 20.73,446.08 30.45,894.55 7.32,1340.62l-1462.78 0.23z"/>
   <path class="fil3 str1" d="M57505.18 94266.8l0 975.02c31.69,4143.75 31.69,8409.43 0,12522.68 0,349.8 0,697.12 0,1039.6l0 8215.64c0,1.01 0,2.4 0,3.59 0,893.35 -723.97,1617.92 -1617.32,1618.52l-29120.89 0c-893.26,-0.6 -1617.23,-725.17 -1617.23,-1618.52 0,0 0,0 0,0l-0.05 -7093.13c0,-305.91 0,-617.89 0,-932.36 -30.45,-4249.79 -30.45,-8515.42 0,-12833.47l0 -3012.76"/>
   <path class="fil0" d="M56773.93 94266.8c-23.17,-508.21 -12.21,-1017.67 7.32,-1527.09 19.53,-509.41 57.3,-1017.67 103.6,-1527.09 24.37,-254.73 49.98,-509.46 79.23,-764.14 29.25,-254.68 59.7,-508.21 104.79,-762.94 83.79,-523.32 230.68,-1038.72 436.03,-1527.32 205.21,489.24 353.58,1003.16 438.01,1526.95 43.9,254.73 75.54,509.46 103.6,762.94 28.05,253.49 54.86,509.46 79.23,764.14 46.29,509.46 84.11,1017.67 103.6,1527.09 19.48,509.41 30.45,1018.87 7.32,1527.09l-1462.74 0.37z"/>
   <line class="fil3 str1" x1="26766.97" y1="80716.68" x2="55191.98" y2= "80704.47" />
   <path class="fil3 str1" d="M48585.1 80716.68c0,-0.32 0,2.49 0,2.49 0,547.41 -59.79,1094.78 -175.59,1629.12 -55.69,260.12 -127.27,519.36 -211.61,771.37 -269.98,755.76 -684.82,1453.75 -1219.34,2051.84 -170.71,191.02 -353.58,372.47 -547.97,539.58 -3067.62,2218.12 -7942.62,2340.01 -10905.4,-70.71 -319.22,-277.81 -610.52,-589.15 -867.09,-925.92 -533.23,-701.17 -912.19,-1508.34 -1108.88,-2366.13 -57.07,-264.77 -101.66,-534.06 -130.45,-803.34 -28.51,-269.98 -44.87,-545.02 -44.87,-817.3 0,-3.64 0,-7.28 0,-10.87"/>
   <path class="fil0" d="M41741.82 89195.52c-526.27,104.84 -1063.46,159.33 -1600.65,159.33 -213.09,0 -428.16,-9.9 -640.23,-25.75 -755.94,-52.33 -1503.59,-207.05 -2218.03,-457.27 -719.87,-246.81 -1398.38,-602.55 -2011.12,-1053.37l-226.68 -171.86c-74.35,-58.5 -146.25,-121.88 -218.16,-185.27 -144.82,-122.85 -281.03,-257.17 -406.23,-399.64 -249.75,-281.49 -470.21,-588.69 -655.43,-915.41 259.75,261.32 535.35,509.64 821.35,742.35 70.71,58.5 142.61,115.8 213.27,170.62 70.66,54.82 149.89,99.96 224.24,151.13 74.35,51.18 148.69,102.4 225.48,149.89l232.8 141.37c620.84,366.43 1281.15,673.03 1962.43,908.83 682.2,239.02 1388.94,422.45 2102,542.58 726.23,117.6 1460.25,200.33 2194.22,241.69l0.74 0.78z"/>
   <path class="fil3 str2" d="M17906.63 97008.98c138.6,125.89 289.05,239.8 448.61,337.69"/>
   <path class="fil0" d="M62619.07 95813.37c-253.58,151.55 -533.13,255.97 -823.89,307.15 -269.56,52.6 -543.68,79.55 -818.36,79.55 -19.72,0 -39.89,-0.51 -59.1,-0.51 -293.42,-5.53 -586.8,-38.37 -874.83,-96.32 -143.81,-25.61 -283.98,-68.27 -425.35,-106.04 -141.37,-37.77 -276.66,-93.83 -410.7,-151.13 147.45,0 290.06,21.93 433.87,34.13l428.99 35.33c142.61,0 283.98,24.37 426.54,25.61 142.57,1.24 282.74,13.4 424.15,14.65 284.21,4.97 568.47,-2.67 852.86,-22.99 283.93,-19.44 567.87,-59.79 845.95,-119.21l-0.14 -0.23z"/>
   <path class="fil8 str3" d="M49478.45 100096.09c0,-1079.81 -1352.83,-2103.57 -3425.9,-2738.55 478.96,-2113.33 265.69,-3793.99 -671.55,-4332.65 -190.66,-126.67 -414.98,-194.25 -644.01,-194.25 -32.29,0 -64.86,1.43 -97.01,3.96 -975.02,15.85 -2109.65,652.02 -3318.67,1781.81 -1212.61,-1123.57 -2553.28,-1787.76 -3319.86,-1768.27 -385.13,10.96 -532.58,63.38 -750.74,190.15 -934.81,537.46 -1143.2,2215.68 -661.79,4322.93 -2071.87,637.42 -3412.5,1658.73 -3412.5,2734.91 0,1076.17 1352.83,2103.57 3425.9,2738.55 -478.96,2113.33 -265.69,3793.99 671.55,4332.65 217.69,122.34 463.35,186.79 713.1,186.79 11.19,0 23.08,-0.18 34.09,-0.37 914.08,0 2109.65,-652.02 3319.91,-1781.81 1209.02,1123.71 2405.83,1768.41 3319.91,1768.41 10.27,0.14 21.24,0.32 31.88,0.32 251.55,0 499.14,-64.49 718.77,-186.83 933.56,-538.71 1143.2,-2216.93 660.55,-4322.93 2060.87,-634.93 3406.37,-1658.69 3406.37,-2734.81zm-4840.87 -6519.13l0 0c7.32,-0.28 15.06,-0.37 22.48,-0.37 123.68,0 245.7,29.89 355.38,86.88 452.16,259.61 648.38,1246.79 496.05,2515.51 -36.57,311.99 -96.27,641.06 -169.42,975.02 -693.16,-166.66 -1399.63,-293.28 -2110.06,-366.52 -422.49,-580.67 -888.74,-1139.79 -1382.63,-1659.38 1081.93,-999.02 2097.16,-1549.89 2788.2,-1551.13zm-6254.64 8220.52c155.97,265.69 315.62,524.84 478.96,777.55 -471.64,-69.46 -927.48,-156.02 -1362.55,-262.05 121.88,-428.99 275.46,-871.42 448.52,-1312.62 136.44,265.74 279.05,531.43 435.07,797.12zm-893.35 -3918.32c435.11,-102.4 893.35,-192.54 1368.67,-262.05 -162.1,255.93 -325.39,517.98 -477.77,787.31 -152.38,269.33 -296.14,531.38 -432.67,797.08 -174.81,-431.8 -328.57,-874.19 -458.37,-1321.74l0.14 -0.6zm847.01 2226.65c205.95,-444.83 438.75,-890.91 688.6,-1326.02 249.85,-435.11 524.06,-873.86 800.72,-1268.72 494.81,-43.9 996.94,-67.02 1501.52,-67.02 504.58,0 1003.02,23.17 1495.39,63.38 275.46,394.9 544.79,817.81 804.4,1262.64 259.61,444.83 487.49,877.5 691.04,1322.33 -209.63,446.08 -438.75,890.91 -688.6,1326.02 -249.85,435.11 -524.06,873.86 -800.72,1269.96 -494.81,42.65 -996.94,65.82 -1501.52,65.82 -504.58,0 -1003.02,-23.17 -1495.39,-63.38 -275.46,-394.9 -544.79,-816.56 -804.4,-1262.64 -259.61,-446.08 -481.41,-877.5 -691.04,-1322.38zm5935.33 1681.9c152.33,-265.69 294.94,-535.02 431.43,-800.72 173.61,431.93 329.08,876.07 458.88,1323.58 -435.11,106.04 -893.35,196.23 -1368.67,265.69 162.74,-257.17 324.84,-519.22 478.37,-788.55zm0 -3393.01c-152.33,-265.69 -315.67,-525.3 -478.96,-777.55 472.88,69.05 927.07,156.38 1362.59,262.01 -121.88,428.99 -275.46,871.42 -448.52,1312.62 -140.17,-265.69 -282.74,-531.38 -438.75,-797.08l3.64 0zm-2030.42 -1672.14c-299.83,-12.21 -609.37,-23.17 -914.08,-23.17 -304.71,0 -621.58,7.32 -923.8,23.17 285.32,-368.97 592,-726 914.45,-1062.63 325.39,336.95 633.37,692.61 922.69,1061.89l0.74 0.74zm-4622.76 -3046.89c107.37,-57.3 227.32,-87.34 349.02,-87.34 11.24,0 22.62,0.37 33.76,0.83l0 0c687.4,0 1706.27,548.43 2790.97,1549.06 -492.69,517.61 -954.84,1076.08 -1372.68,1657.63 -710.39,71.81 -1419.07,196.64 -2112.32,365.65 -76.79,-331.52 -132.85,-654.47 -173.06,-962.81 -156.75,-1270.15 35.84,-2257.32 484.31,-2519.33l0 -3.69zm-837.29 8437.43c-329.08,-103.6 -641.06,-216.96 -929.92,-338.79 -1177.33,-502.13 -1937.83,-1160.24 -1937.83,-1681.9 0,-521.67 760.5,-1183.41 1937.83,-1681.9 285.18,-121.88 597.21,-232.8 920.16,-335.16 202.82,686.53 455.89,1369.83 747.88,2023.88 -291.4,653.27 -540.32,1331.87 -738.62,2018.26l0.51 -4.38zm1233.39 4498.43c-3.96,-0.05 -8.38,0.05 -12.48,0.05 -126.31,0 -251.04,-30.63 -362.89,-89.09 -452.16,-259.61 -648.38,-1246.79 -496.05,-2515.51 36.57,-313.23 96.27,-641.06 169.42,-975.02 691.68,167.72 1402.99,290.84 2110.34,365.1 423.37,583.3 886.44,1142.5 1382.86,1662.46 -1083.73,1004.78 -2100.16,1555.64 -2791.2,1555.64l0 -3.64zm3318.67 -2082.84c-323.64,-338.29 -635.63,-696.34 -923.8,-1064.66 299.83,13.4 609.37,23.17 914.08,23.17 304.71,0 621.58,-6.08 923.8,-23.17 -283.47,370.21 -590.76,731.07 -913.8,1068.3l-0.28 -3.64zm3702.6 1980.44c-107.33,57.26 -227.28,87.29 -348.97,87.29 -11.24,0 -22.62,-0.37 -33.76,-0.83 -687.4,0 -1706.27,-548.43 -2790.97,-1549.06 492.69,-517.61 954.84,-1076.08 1372.68,-1657.63 710.39,-71.86 1419.07,-196.69 2112.32,-365.7 74.48,318.9 134.14,642.95 173.52,967.05 156.25,1273.32 -36.34,2259.31 -484.81,2522.56l0 -3.69zm1764.73 -4734.83c-286.42,121.88 -598.41,231.56 -921.4,335.16 -201.25,-688.28 -455.61,-1371.25 -747.19,-2024.84 288.91,-652.58 536.5,-1328.18 732.31,-2013.42 329.08,103.6 641.06,215.71 933.56,338.79 1177.33,502.13 1937.83,1160.24 1937.83,1681.9 0,521.67 -758.98,1187.6 -1935.11,1686.05l0 -3.64z"/>
   <circle class="fil8 str4" cx="41323.8" cy="100096.09" r="1518.56"/>
   <path class="fil9" d="M49478.45 100096.09c0,-1079.81 -1352.83,-2103.57 -3425.9,-2738.55 478.96,-2113.33 265.69,-3793.99 -671.55,-4332.65 -190.66,-126.67 -414.98,-194.25 -644.01,-194.25 -32.29,0 -64.86,1.43 -97.01,3.96 -975.02,15.85 -2109.65,652.02 -3318.67,1781.81 -1212.61,-1123.57 -2553.28,-1787.76 -3319.86,-1768.27 -385.13,10.96 -532.58,63.38 -750.74,190.15 -934.81,537.46 -1143.2,2215.68 -661.79,4322.93 -2071.87,637.42 -3412.5,1658.73 -3412.5,2734.91 0,1076.17 1352.83,2103.57 3425.9,2738.55 -478.96,2113.33 -265.69,3793.99 671.55,4332.65 217.69,122.34 463.35,186.79 713.1,186.79 11.19,0 23.08,-0.18 34.09,-0.37 914.08,0 2109.65,-652.02 3319.91,-1781.81 1209.02,1123.71 2405.83,1768.41 3319.91,1768.41 10.27,0.14 21.24,0.32 31.88,0.32 251.55,0 499.14,-64.49 718.77,-186.83 933.56,-538.71 1143.2,-2216.93 660.55,-4322.93 2060.87,-634.93 3406.37,-1658.69 3406.37,-2734.81zm-4840.87 -6519.13l0 0c7.32,-0.28 15.06,-0.37 22.48,-0.37 123.68,0 245.7,29.89 355.38,86.88 452.16,259.61 648.38,1246.79 496.05,2515.51 -36.57,311.99 -96.27,641.06 -169.42,975.02 -693.16,-166.66 -1399.63,-293.28 -2110.06,-366.52 -422.49,-580.67 -888.74,-1139.79 -1382.63,-1659.38 1081.93,-999.02 2097.16,-1549.89 2788.2,-1551.13zm-6254.64 8220.52c155.97,265.69 315.62,524.84 478.96,777.55 -471.64,-69.46 -927.48,-156.02 -1362.55,-262.05 121.88,-428.99 275.46,-871.42 448.52,-1312.62 136.44,265.74 279.05,531.43 435.07,797.12zm-893.35 -3918.32c435.11,-102.4 893.35,-192.54 1368.67,-262.05 -162.1,255.93 -325.39,517.98 -477.77,787.31 -152.38,269.33 -296.14,531.38 -432.67,797.08 -174.81,-431.8 -328.57,-874.19 -458.37,-1321.74l0.14 -0.6zm847.01 2226.65c205.95,-444.83 438.75,-890.91 688.6,-1326.02 249.85,-435.11 524.06,-873.86 800.72,-1268.72 494.81,-43.9 996.94,-67.02 1501.52,-67.02 504.58,0 1003.02,23.17 1495.39,63.38 275.46,394.9 544.79,817.81 804.4,1262.64 259.61,444.83 487.49,877.5 691.04,1322.33 -209.63,446.08 -438.75,890.91 -688.6,1326.02 -249.85,435.11 -524.06,873.86 -800.72,1269.96 -494.81,42.65 -996.94,65.82 -1501.52,65.82 -504.58,0 -1003.02,-23.17 -1495.39,-63.38 -275.46,-394.9 -544.79,-816.56 -804.4,-1262.64 -259.61,-446.08 -481.41,-877.5 -691.04,-1322.38zm5935.33 1681.9c152.33,-265.69 294.94,-535.02 431.43,-800.72 173.61,431.93 329.08,876.07 458.88,1323.58 -435.11,106.04 -893.35,196.23 -1368.67,265.69 162.74,-257.17 324.84,-519.22 478.37,-788.55zm0 -3393.01c-152.33,-265.69 -315.67,-525.3 -478.96,-777.55 472.88,69.05 927.07,156.38 1362.59,262.01 -121.88,428.99 -275.46,871.42 -448.52,1312.62 -140.17,-265.69 -282.74,-531.38 -438.75,-797.08l3.64 0zm-2030.42 -1672.14c-299.83,-12.21 -609.37,-23.17 -914.08,-23.17 -304.71,0 -621.58,7.32 -923.8,23.17 285.32,-368.97 592,-726 914.45,-1062.63 325.39,336.95 633.37,692.61 922.69,1061.89l0.74 0.74zm-4622.76 -3046.89c107.37,-57.3 227.32,-87.34 349.02,-87.34 11.24,0 22.62,0.37 33.76,0.83l0 0c687.4,0 1706.27,548.43 2790.97,1549.06 -492.69,517.61 -954.84,1076.08 -1372.68,1657.63 -710.39,71.81 -1419.07,196.64 -2112.32,365.65 -76.79,-331.52 -132.85,-654.47 -173.06,-962.81 -156.75,-1270.15 35.84,-2257.32 484.31,-2519.33l0 -3.69zm-837.29 8437.43c-329.08,-103.6 -641.06,-216.96 -929.92,-338.79 -1177.33,-502.13 -1937.83,-1160.24 -1937.83,-1681.9 0,-521.67 760.5,-1183.41 1937.83,-1681.9 285.18,-121.88 597.21,-232.8 920.16,-335.16 202.82,686.53 455.89,1369.83 747.88,2023.88 -291.4,653.27 -540.32,1331.87 -738.62,2018.26l0.51 -4.38zm1233.39 4498.43c-3.96,-0.05 -8.38,0.05 -12.48,0.05 -126.31,0 -251.04,-30.63 -362.89,-89.09 -452.16,-259.61 -648.38,-1246.79 -496.05,-2515.51 36.57,-313.23 96.27,-641.06 169.42,-975.02 691.68,167.72 1402.99,290.84 2110.34,365.1 423.37,583.3 886.44,1142.5 1382.86,1662.46 -1083.73,1004.78 -2100.16,1555.64 -2791.2,1555.64l0 -3.64zm3318.67 -2082.84c-323.64,-338.29 -635.63,-696.34 -923.8,-1064.66 299.83,13.4 609.37,23.17 914.08,23.17 304.71,0 621.58,-6.08 923.8,-23.17 -283.47,370.21 -590.76,731.07 -913.8,1068.3l-0.28 -3.64zm3702.6 1980.44c-107.33,57.26 -227.28,87.29 -348.97,87.29 -11.24,0 -22.62,-0.37 -33.76,-0.83 -687.4,0 -1706.27,-548.43 -2790.97,-1549.06 492.69,-517.61 954.84,-1076.08 1372.68,-1657.63 710.39,-71.86 1419.07,-196.69 2112.32,-365.7 74.48,318.9 134.14,642.95 173.52,967.05 156.25,1273.32 -36.34,2259.31 -484.81,2522.56l0 -3.69zm1764.73 -4734.83c-286.42,121.88 -598.41,231.56 -921.4,335.16 -201.25,-688.28 -455.61,-1371.25 -747.19,-2024.84 288.91,-652.58 536.5,-1328.18 732.31,-2013.42 329.08,103.6 641.06,215.71 933.56,338.79 1177.33,502.13 1937.83,1160.24 1937.83,1681.9 0,521.67 -758.98,1187.6 -1935.11,1686.05l0 -3.64z"/>
   <circle class="fil9" cx="41323.8" cy="100096.09" r="1518.56"/>
   <path class="fil10" d="M32415.92 105434.21c3616.23,-0.05 6834.3,-2305.28 7997.71,-5728.55 -1551.41,2654.25 -4396.31,4286.41 -7470.52,4286.41 -2729.79,0 -5302.19,-1289.91 -6934.35,-3476.66l-5.94 1795.17c1552.7,1904.9 3764.74,3123.63 6413.1,3123.63z"/>
   <path class="fil10" d="M50238.95 105434.21c-3616.19,-0.05 -6834.25,-2305.28 -7997.67,-5728.55 1551.41,2654.25 4396.31,4286.41 7470.52,4286.41 2729.79,0 5302.19,-1289.91 6934.35,-3476.66l0 1794.02c-1546.8,1906.05 -3758.84,3124.79 -6407.2,3124.79z"/>
   <g>
    <path class="fil6" d="M29993 103262.38c-3303.93,-1232.7 -5495.01,-4389.31 -5495.01,-7916.27 0,-2131.25 806.7,-4185.11 2256.03,-5746.93l3238.98 13663.2zm0 0l0 0 0 0z"/>
   </g>
   <path class="fil0" d="M29993 103262.38c-1439.8,-234.69 -2772.03,-918.27 -3803.34,-1950.41l-197.43 -194.99c-64.58,-65.82 -121.88,-137.73 -186.46,-205.95 -64.58,-68.22 -121.88,-140.17 -180.38,-210.83 -61.95,-69 -120.55,-142.66 -174.58,-217.92 -109.68,-149.89 -220.6,-299.83 -326.63,-453.4l-288.86 -478.96c-364.08,-654.42 -640.28,-1358.72 -817.9,-2087.67 -140.91,-621.76 -212.26,-1260.75 -212.26,-1898.72 0,-110.18 2.12,-222.44 6.31,-331.56 32.38,-744.06 173.52,-1481.21 414.8,-2184.96 31.69,-86.55 59.7,-174.3 92.63,-260.81l107.24 -255.93c67.02,-170.62 153.57,-333.96 232.8,-498.45 167.95,-322.72 363.3,-636.59 577.68,-930.57 103.6,-147.45 221.79,-286.42 335.16,-425.35 113.36,-138.93 236.44,-271.77 365.65,-393.66 251.32,-250.72 527.1,-480.44 819.92,-681.04 -705.64,1218.74 -1206.58,2460.65 -1421.05,3737.93 -96.87,548.52 -146.85,1107.4 -146.85,1665.14 0,79 2.3,159.19 3.5,237.04 22.57,631.2 104.43,1263.33 242.94,1879.1 149.52,610.94 361.14,1212.15 624.48,1784.49 269.65,578.6 600.71,1130.76 983.95,1642.11 388.63,528.02 831.81,1018.23 1318.42,1456.65 508.81,456.39 1058.07,880.73 1629.58,1258.91l0.69 -0.18z"/>
   <g>
    <path class="fil6" d="M52667.95 103262.38c3301.53,-1234.08 5490.54,-4389.68 5490.54,-7914.57 0,-2132.26 -806.7,-4187.19 -2257.09,-5748.96l-3233.45 13663.53zm0 0l0 0 0 0z"/>
   </g>
   <path class="fil0" d="M52667.95 103262.38c570.49,-375.6 1116.34,-798.27 1626.26,-1253.42 487.03,-438.84 930.2,-929.05 1318.1,-1456.79 383.94,-511.62 714.99,-1063.78 984.83,-1642.01 263.2,-572.7 474.82,-1173.92 623.93,-1785.91 138.93,-614.71 220.78,-1246.84 243.44,-1877.72 2.9,-86.28 4.05,-174.58 4.05,-261.73 0,-551.93 -48.78,-1104.96 -144.09,-1647.59 -214.52,-1277.24 -715.41,-2515.51 -1421.05,-3737.93 293.05,200.1 568.83,429.82 820.52,680.81 131.65,121.88 243.77,260.81 365.65,393.66 121.88,132.85 231.56,277.9 335.16,425.35 214.06,293.7 409.41,607.57 577.63,930.48 79.23,164.54 165.74,327.83 232.8,498.45l107.24 255.93c32.89,86.55 60.94,174.3 92.63,260.81 240.96,703.57 382.09,1440.72 414.48,2184.54 4.19,109.35 6.31,221.61 6.31,331.79 0,637.97 -71.35,1276.96 -211.94,1899.18 -177.94,728.49 -454.14,1432.79 -818.59,2087.81l-288.45 478.55c-106.04,153.57 -216.96,303.46 -326.63,453.4 -54.08,75.08 -112.67,148.74 -174.21,218.11 -59.7,70.71 -121.88,141.37 -180.38,210.83 -58.5,69.46 -121.88,140.17 -186.46,205.95l-197.43 194.99c-1031.22,1032.97 -2363.5,1716.54 -3803.71,1952.06l-0.09 0.41z"/>
   <path class="fil5" d="M13466.7 57524.99c-121.88,-3456.39 2193.76,-6381.4 5274.78,-7746.39 321.84,-132.2 656.86,-242.66 994.64,-328.94 668.19,-165.04 1357.67,-249.43 2047.18,-249.43 1059.27,0 2111.21,197.89 3097.56,582.24 372.37,142.66 738.12,313.32 1087.92,506.33 3598.96,1936.59 5215.04,6489.88 3822,10171.71 -140.63,370.03 -312.22,732.54 -509.55,1075.76 -485.83,1011.96 -1221.32,1885.78 -2134.2,2538.26 -303.42,223.31 -624.89,429.4 -956.69,609.69 -3336.95,1584.39 -7846.35,1096.9 -10536.12,-1389.4 -268.96,-285.55 -518.26,-590.81 -744.15,-910.35 -258.14,-364.91 -486.93,-754.97 -679.11,-1158.53 -408.67,-828.72 -644.38,-1733.4 -690.86,-2656.28 -43.71,-345.89 -68.5,-697.17 -73.01,-1045.08l-0.41 0.41z"/>
   <path class="fil6 str1" d="M13268.07 55288.58c-121.88,-3456.39 2193.76,-6381.4 5274.78,-7746.39 322.4,-131.28 655.71,-243.35 993.67,-329.44 670.96,-166.06 1364.62,-251.46 2057.23,-251.46 1056.14,0 2103.93,195.81 3088.17,578.05 372.19,144.09 736.23,314.38 1086.45,507.06 3598.96,1936.59 5215.04,6491.08 3822,10171.71 -138.88,370.95 -310.93,732.77 -508.68,1075.07 -168.5,329.9 -361.32,649.12 -574.13,951.25 -210.42,299.32 -442.71,585.6 -692.38,852.58 -269.1,266.66 -561.92,515.4 -867.92,739.73 -304.48,223.87 -624.89,428.34 -956.55,609.42 -3336.95,1584.39 -7846.35,1096.9 -10534.92,-1388.16 -268,-284.76 -518.9,-591.59 -744.47,-911.59 -258.64,-364.64 -487.85,-754.38 -680.31,-1157.71 -409.46,-825.22 -646.82,-1727.6 -695.65,-2648.22 -43.94,-347.82 -67.3,-701.08 -67.3,-1052.22l0 0.32z"/>
   <circle class="fil0" cx="21645.76" cy="55362.93" r="1491.75"/>
   <path class="fil5" d="M51551.57 56542.69c52.42,-1843.95 812.92,-3667.23 1840.31,-5037.1 262.61,-367.58 552.99,-716.47 867.18,-1039.37 1602.54,-1669.37 3818.68,-2615.56 6133.4,-2615.56 1735.8,0 3433.18,532.26 4856.67,1524.09 275.83,192.77 544.01,403.19 795.88,625.58 3290.66,2614.22 3670.91,7695.22 1867.12,11362.44 -174.76,289.92 -371.32,571.74 -582.7,836 -280.75,352.75 -591.82,686.34 -923.24,991 -2470.41,2173.03 -6314.38,2697.09 -9434.38,1513.68 -444.65,-166.7 -876.67,-372.65 -1286.41,-609.32 -2181.55,-1313.81 -3701.36,-3789.11 -4074.29,-6365.56 -40.81,-324.05 -62.37,-650.87 -62.37,-977.64 0,-69.28 0.92,-139.53 2.81,-207.88l0 -0.37z"/>
   <path class="fil6 str1" d="M52220.68 55144.77c51.18,-1724.56 782.43,-3430.78 1769.65,-4711.71 252.75,-344.74 535.16,-671.23 836.46,-974.65 1565.13,-1564.07 3690.76,-2444.29 5904.1,-2444.29 1663.57,0 3291.44,498.77 4670.43,1427.96 264.91,179.51 522.49,375.83 765.57,583.57 3168.78,2446.05 3534.38,7199.16 1796.46,10629.99 -168.55,273.15 -356.02,534.61 -560.27,781.78 -271.31,330.64 -570.72,641.34 -888.56,926.38 -2377.78,2032.9 -6076.7,2524.03 -9078.49,1416.21 -427.97,-158.92 -843.51,-352.38 -1239.65,-578.55 -2098.68,-1228.5 -3561.19,-3544.14 -3920.71,-5953.62 -38.97,-295.54 -58.27,-593.94 -58.27,-891.55 0,-70.43 1.66,-141.69 3.36,-211.25l-0.09 -0.28z"/>
   <circle class="fil0" cx="60731.22" cy="55362.93" r="1491.75"/>
   <g>
    <path class="fil11" d="M10113.95 47238.72c687.4,1929.31 2547.2,2932.33 4070.65,3283.33 1591.71,-2466.77 6904.22,-3524.66 10892,-2125.49 3388.13,609.37 -1317.45,-3116.36 -8832.33,-1096.9 -281.54,103.6 -1774.49,359.52 -3690.39,-1120.03 -266.89,-205.95 570.4,1670.89 1523.45,2437.52 -1383.28,-28.05 -1609.95,-26.85 -3963.37,-1378.44z"/>
    <path class="fil11" d="M68287.51 48615.92c953.05,-761.7 1790.34,-2638.59 1523.45,-2437.52 -1915.9,1479.55 -3412.5,1218.74 -3690.39,1120.03 -7514.83,-2023.14 -12221.66,1706.27 -8833.53,1096.9 3988.98,-1399.12 9301.53,-341.24 10893.24,2125.49 1523.45,-351 3383.25,-1354.03 4070.65,-3283.33 -2353.46,1352.83 -2580.13,1351.63 -3963.41,1378.44z"/>
   </g>
   <path class="fil0" d="M34397.61 64024.59c0,-2303.43 13859.66,-1957.32 13859.66,0 0,3826.56 -3103.23,6929.79 -6929.83,6929.79 -3826.56,0 -6929.79,-3103.23 -6929.79,-6929.83l-0.05 0.05z"/>
   <path class="fil12" d="M40718.07 66601.04c-2065.79,-121.88 -3867.09,822.64 -4466.74,2220.57 1307.69,1382.49 3129.21,2165.94 5032.77,2165.94 1003.35,0 1995.73,-218.29 2906.08,-638.76 272.65,-125.06 539.68,-271.77 793.48,-432.49 -112.07,-1719.91 -1942.67,-3171.45 -4265.59,-3315.26z"/>
   <path class="fil3 str5" d="M34397.61 64024.59c0,-2303.43 13859.66,-1957.32 13859.66,0 0,3826.56 -3103.23,6929.79 -6929.83,6929.79 -3826.56,0 -6929.79,-3103.23 -6929.79,-6929.83l-0.05 0.05z"/>
   <path class="fil0" d="M38660.8 65316.48c54.86,-13.4 76.79,-19.48 112.12,-25.61l91.39 -17.04c59.7,-10.96 121.88,-17.04 177.94,-21.93 88.26,-9.17 177.99,-13.63 266.75,-13.63 28.19,0 57.67,0.64 85.59,1.29 237.82,4.93 475.51,38.42 705.78,98.67 482.56,122.21 920.66,380.76 1261.35,743.74 320.23,344.6 535.48,774.87 619,1238.18 21.6,121.51 32.66,245.65 32.66,369.24 0,308.12 -67.85,613.38 -198.39,892.2 -252.29,-357.08 -446.08,-677.63 -648.38,-945.77 -90.7,-128.33 -191.3,-251.32 -298.67,-365.88 -98.11,-100.56 -208.8,-189.23 -328.89,-263.11 -227.46,-136.16 -481.73,-223.22 -744.79,-254.78 -137.87,-17.55 -277.9,-27.64 -416.6,-28.93 -71.9,0 -143.81,0 -214.52,6.08l-103.6 7.32 -47.54 0c-12.21,0 -36.57,0 -28.05,0l-323.13 -1420.03z"/>
   <rect class="fil5" x="15761.61" y="38694.01" width="53532.56" height="7818.3"/>
   <path class="fil1" d="M66921.27 69606.52c-382.69,472.88 -777.18,934.76 -1183.41,1385.72 -304.71,337.6 314.43,-136.53 1183.41,-1385.72zm1828.15 -38579.68c-3717.2,-6631.25 -10176.64,-11196.71 -17645.13,-13297.83l-773.91 -208.39c-2766.55,-765.39 -5681.84,-853.14 -8692.16,-853.14 -3252.84,0 -6393.56,333.96 -9356.39,1218.74l-519.18 154.77c-3939.83,1336.94 -7613.09,3384.17 -10827.19,6025.38 -356.02,290.98 -704.67,588.41 -1045.91,892.29 -3453.95,2887.24 -6135.2,6543.5 -7979.2,10712.86 -178.73,399.74 -347.73,803.16 -506.97,1210.22 -475.14,1211.51 -860.55,2462.44 -1148.03,3729.23 -3906.15,15428.34 2174.18,24893.21 7570.85,30694.5 532.58,572.8 -7060.24,-12413 -2123.05,-26325.09 942.08,-35.33 2466.77,-62.14 4410.68,-81.67l1889.05 -6168.13 2125.49 6140.08c3339.39,-15.85 7297.92,-18.29 11441.67,-14.65l1501.52 -6381.4 1696.46 6383.89c9063.89,17.04 18456.81,63.38 23799.81,93.83l1608.76 -6358.23 1828.15 6377.72 1000.58 6.08c6104.75,12970 2170.63,21395.27 -84.07,24628.63 4670.16,-5761.53 7227.22,-12966.41 7227.22,-20388.65 0,-11.84 0,-31.6 0,-43.48 0,-10534 -5399.06,-18147.54 -5399.06,-18147.54z"/>
   <path class="fil3 str1" d="M66921.27 69606.52c-382.69,472.88 -777.18,934.76 -1183.41,1385.72 -304.71,337.6 314.43,-136.53 1183.41,-1385.72zm1828.15 -38579.68c-3717.2,-6631.25 -10176.64,-11196.71 -17645.13,-13297.83l-773.91 -208.39c-2766.55,-765.39 -5681.84,-853.14 -8692.16,-853.14 -3252.84,0 -6393.56,333.96 -9356.39,1218.74l-519.18 154.77c-3939.83,1336.94 -7613.09,3384.17 -10827.19,6025.38 -356.02,290.98 -704.67,588.41 -1045.91,892.29 -3453.95,2887.24 -6135.2,6543.5 -7979.2,10712.86 -178.73,399.74 -347.73,803.16 -506.97,1210.22 -475.14,1211.51 -860.55,2462.44 -1148.03,3729.23 -3906.15,15428.34 2174.18,24893.21 7570.85,30694.5 532.58,572.8 -7060.24,-12413 -2123.05,-26325.09 942.08,-35.33 2466.77,-62.14 4410.68,-81.67l1889.05 -6168.13 2125.49 6140.08c3339.39,-15.85 7297.92,-18.29 11441.67,-14.65l1501.52 -6381.4 1696.46 6383.89c9063.89,17.04 18456.81,63.38 23799.81,93.83l1608.76 -6358.23 1828.15 6377.72 1000.58 6.08c6104.75,12970 2170.63,21395.27 -84.07,24628.63 4670.16,-5761.53 7227.22,-12966.41 7227.22,-20388.65 0,-11.84 0,-31.6 0,-43.48 0,-10534 -5399.06,-18147.54 -5399.06,-18147.54z"/>
   <path class="fil1" d="M51583.26 16022.74l-788.55 -212.07c-3072.46,-853.14 -6207.1,-920.16 -9156.48,-920.16 -3728.17,0 -6955.44,425.35 -9860.92,1296.77l-519.18 154.77 -59.7 18.29c-4140.2,1412.2 -8004.39,3562.94 -11386.72,6338.38 -365.65,299.83 -731.25,609.37 -1077.37,920.16 -3611.17,3024.97 -6450.87,6838.44 -8438.68,11334.44 -190.15,425.35 -365.65,859.22 -538.71,1288.2 -509.46,1302.85 -2594.74,7284.47 -2894.56,8610.49l8839.61 121.88c942.08,-35.33 2466.77,-62.14 4410.68,-81.67l1889.05 -6168.13 2125.49 6140.08c3339.39,-15.85 7297.92,-18.29 11441.67,-14.65l1501.52 -6381.4 1697.61 6390.39c9063.89,17.04 18456.81,63.38 23799.81,93.83l1608.76 -6358.23 1828.15 6377.72 1000.58 6.08 8910.36 4194.97c0,-10504.42 -5033.46,-18159.43 -5664.75,-19085.71 -3817.16,-6751.89 -10443.53,-11748.77 -18667.69,-14064.41zm20250.83 38908.76c-386.33,-3159.01 -1361.35,-6734.85 -3230.92,-10705.54l-474.08 -1007.91 -790.95 0 -3263.8 -11411.18 -2881.2 11370.96c-4927.42,-26.81 -13047.98,-65.82 -21067.39,-84.11l-3162.65 -11891.39 -2795.8 11882.86c-3339.39,0 -6282.69,0 -8785.99,10.96l-3480.81 -10068.11 -3098.07 10115.65c-1395.48,18.29 -2457.01,41.46 -3168.78,68.27l-1198.06 46.29 -400.98 1128.55c-1747.64,4934.74 -2210.75,10270.47 -1377.15,15876.72 -1937.83,-4875 -2737.3,-11138.21 -688.6,-19211.23l10.96 -46.29c267.35,-1178.66 632.08,-2349.4 1073.36,-3476.06 146.25,-376.61 305.91,-758.06 476.52,-1139.56 1772.05,-4004.82 4294.88,-7394.19 7496.55,-10070.56l40.21 -35.33c322.95,-286.42 656.91,-571.6 992.06,-847.06 3039.85,-2498.65 6512.08,-4438 10237.81,-5713.44l493.61 -146.25c2574.01,-772.71 5468.57,-1149.28 8848.18,-1149.28 2708.05,0 5573.36,62.14 8220.47,794.64l777.55 208.39c7341.77,2071.87 13227.12,6492.32 16575.04,12459.34l45.1 80.43 53.62 76.79c51.18,71.9 5071.23,7267.43 5071.23,17123.51 -1.06,1932.63 -188.58,3864.28 -548.66,5758.4l1.61 1.52z"/>
   <path class="fil3 str1" d="M66921.27 69606.52c-382.69,472.88 -777.18,934.76 -1183.41,1385.72 -304.71,337.6 314.43,-136.53 1183.41,-1385.72zm-49095.07 1698.95c532.58,572.8 -7060.24,-12413 -2123.05,-26325.09 942.08,-35.33 2466.77,-62.14 4410.68,-81.67l1889.05 -6168.13 2125.49 6140.08c3339.39,-15.85 7297.92,-18.29 11441.67,-14.65l1501.52 -6381.4 1696.46 6383.89c9063.89,17.04 18456.81,63.38 23799.81,93.83l1608.76 -6358.23 1828.15 6377.72 1000.58 6.08c6104.75,12970 2170.63,21395.27 -84.07,24628.63"/>
   <path class="fil0" d="M15060.85 44645.18c21.93,-91.39 40.21,-160.9 64.58,-236.44 24.37,-75.54 48.73,-146.25 75.54,-216.96 56.06,-142.61 121.88,-281.54 184.02,-416.83 135.7,-272.14 293.65,-533.96 469.66,-782.11 173.34,-252.24 373.16,-488.32 594.17,-700.99 241.14,-228.38 534.06,-396.1 853.27,-487.67 -0.09,14.79 0.37,30.95 0.37,46.16 0,299.83 -35.51,598.73 -106.08,889.76 -34.13,138.93 -71.9,274.21 -113.36,404.62l-121.88 396.1c-81.44,262.56 -162.74,522.22 -244,778.97 -40.21,129.21 -82.87,254.73 -121.88,381.45 -20.73,62.14 -45.1,121.88 -68.27,186.46 -23.17,64.58 -47.54,121.88 -68.27,170.62l-1397.88 -413.14z"/>
   <path class="fil0" d="M67004.14 44246.69c112.72,-8.8 225.76,-13.5 338.75,-13.5 140.08,0 281.72,7.28 420.79,20.82 253.67,22.02 510.29,57.26 760.59,105.16 121.88,24.37 253.49,48.73 380.25,77.98 127.59,26.44 255.1,62.05 378.82,104.56 279.05,94.15 537.97,242.75 760.46,436.31 -222.67,193.1 -481.41,342.25 -760.55,437.37 -123.91,42.47 -251.18,77.2 -379.15,103.6 -121.88,30.45 -253.49,54.86 -380.25,79.23 -253.44,47.17 -506.92,82.08 -760.41,104.84 -137.22,12.85 -275.73,20.13 -413.74,20.13 -115.11,0 -231.24,-5.21 -345.8,-14.05l0.23 -1462.46z"/>
   <path class="fil6" d="M34604.8 43331.37c28.79,-580.12 91.02,-1162.13 181.3,-1736.07 87.75,-572.8 194.99,-1141.95 318.11,-1706.27 123.13,-564.32 262.05,-1127.35 419.27,-1685.54 155.42,-560.5 348.01,-1118.64 564.18,-1657.17 -27.45,580.03 -92.13,1162.31 -184.3,1736.81 -87.34,572.93 -193.14,1141.77 -317.47,1706.46 -124.32,564.69 -264.08,1126.52 -419.27,1685.5 -156.94,559.76 -348.56,1116.25 -562.62,1656.48l0.78 -0.18z"/>
   <path class="fil6" d="M61802.51 43331.37c28.74,-580.12 90.97,-1162.13 181.26,-1736.07 88.81,-573.26 194.94,-1142.18 318.43,-1706.87 123.5,-564.69 261.22,-1126.15 413.14,-1684.34 156.25,-560.86 342.94,-1115.1 557.18,-1655.6 -27.32,581.59 -92.03,1161.9 -182.23,1736.3 -89.09,573.44 -194.99,1142.55 -317.65,1707.24 -121.88,565.52 -263.25,1127.35 -420.46,1685.54 -152.7,557.36 -338.79,1115.65 -548.89,1653.9l-0.78 -0.09z"/>
   <g>
    <path class="fil1" d="M9341.24 45304.53c243.95,-1599.27 716.33,-3161.04 1392.95,-4631.28l-1392.95 4631.28zm0 0l0 0 0 0z"/>
   </g>
   <path class="fil0" d="M8616.07 45213.14c10.96,-121.88 21.93,-225.48 39.02,-332.71 17.09,-107.24 35.33,-209.63 56.06,-314.43 42.65,-207.19 91.39,-411.94 149.89,-609.37 114.65,-404.48 257.12,-802.7 422.91,-1188.01 160.71,-388.5 353.49,-766.12 572.75,-1124.03 229.76,-371.96 527.61,-699.33 876.21,-963.73 6.68,116.86 10.46,236.26 10.46,354.13 0,306.32 -24.04,614.16 -69.09,916.75 -30.45,198.67 -62.14,396.1 -101.15,589.88 -39.02,193.79 -70.71,388.77 -101.15,582.56l-198.67 1156.6 -101.15 570.4c-14.65,95.07 -34.13,190.15 -51.18,282.74 -17.04,92.59 -36.57,191.35 -53.62,266.89l-1451.27 -187.66z"/>
   <g>
    <path class="fil1" d="M74152.13 48685.38c0,0 -56.06,-2532.55 -1020.11,-5804.92l1020.11 5804.92zm0 0l0 0 0 0z"/>
   </g>
   <path class="fil0" d="M73420.88 48699.98l-29.25 -336.4c-9.77,-121.88 -19.48,-235.2 -26.81,-352.2l-54.86 -711.77 -110.92 -1438.14c-36.57,-481.41 -86.55,-964.06 -121.88,-1453.98 -9.77,-243.77 -19.48,-494.81 -12.21,-748.3 1.84,-260.76 23.81,-521.99 61.31,-779.66 331.52,399.09 602.69,847.84 801.91,1327.13 98.3,231.24 187.98,471.59 263.8,711.95 81.67,243.77 151.13,487.49 220.6,731.25 136.76,484.95 248.33,982.71 328.25,1482.17 40.21,249.85 76.79,502.13 98.71,756.86 12.99,127.18 22.76,255.33 29.25,384.54 7.32,130.4 9.77,252.29 8.52,399.74l-1456.42 26.81z"/>
   <path class="fil6" d="M42144 16936.82c-1732.39,101.15 -3464.78,304.62 -5175.15,601.58 -424.15,82.87 -853.14,173.06 -1272.4,251.04 -419.27,77.98 -840.93,196.23 -1261.39,293.7l-1250.43 331.52c-414.38,121.88 -825.08,253.49 -1237.03,380.25 -1644.13,526.32 -3255.74,1172.86 -4806.5,1917.75 -1563.06,756.73 -3086.14,1616.72 -4541.87,2559.54 1295.85,-1185.25 2739.47,-2219.51 4275.9,-3065.5 1538.46,-860.55 3169.42,-1571.67 4846.07,-2113.15 424.15,-121.88 845.81,-254.73 1269.96,-371.73 424.15,-117 853.14,-221.79 1285.81,-316.87 432.67,-95.07 865.3,-170.62 1297.97,-243.77 432.67,-73.15 872.62,-130.4 1308.93,-185.27 926.05,-112.99 1870.26,-169.51 2806.03,-169.51 817.02,0 1642.47,45.23 2453.83,130.04l0.28 0.37z"/>
   <path class="fil0" d="M53623.44 44367.33c1341.91,-340.22 2709.94,-614.76 4082.67,-808.87l-324.19 42.65c1606.31,-212.07 3234.55,-274.21 4844.55,-58.5l-324.19 -43.9c398.54,56.06 797.08,121.88 1196.81,173.06l-324.19 -43.9c1210.95,163.34 2417.76,413.23 3595,742.08 609.37,169.42 1352.83,-210.83 1499.08,-853.14 24.92,-99.4 37.96,-202.82 37.96,-306.5 0,-550.96 -363.25,-1036.33 -891.83,-1191.56 -1379.08,-376.84 -2795.66,-654.47 -4215.84,-825.31l324.19 43.9c-1002.56,-177.62 -2026,-269.1 -3045.19,-269.1 -342.57,0 -689.38,10.64 -1029.83,29.8 -1352.28,89.5 -2705.93,274.9 -4031.58,554.74 -684.96,137.73 -1364.99,296.14 -2042.62,463.12 -619.13,152.33 -1050.56,884.83 -853.14,1499.08 153.62,528.94 638.99,892.24 1189.95,892.24 103.69,0 207.1,-13.04 307.47,-38.65l4.93 -1.24z"/>
   <path class="fil0" d="M15263.16 44370.97c1165.31,-339.02 2361.84,-592.19 3564.41,-754.93l-324.19 43.9c1023.25,-134.32 2061.88,-201.25 3094.71,-201.25 1058.99,0 2120.89,72.73 3168.27,212.4l-324.19 -42.65c1209.62,161.68 2411.68,412.54 3587.72,741.57 609.37,170.62 1352.83,-210.83 1499.08,-853.14 26.62,-99.45 39.66,-202.86 39.66,-306.55 0,-550.96 -363.3,-1036.33 -891.83,-1191.56 -1759.8,-485.87 -3568.88,-807.12 -5388.1,-939 -544.33,-34.41 -1099.02,-53.02 -1647.54,-53.02 -2376.86,0 -4750.58,337.78 -7031.4,994.73 -305.08,86.83 -566.35,287.2 -730.98,559.11 -107.56,187.85 -164.17,400.93 -164.17,617.34 0,108.39 14.28,216.59 42.19,321.15 201.11,622.77 842.17,1040.8 1499.08,853.14l7.28 -1.24z"/>
   <g>
    <circle class="fil13" cx="39279.02" cy="7398.34" r="6481.03"/>
    <path class="fil14" d="M39279.01 13879.38c0.51,0 2.12,0 2.86,0 3578,0 6479.66,-2901.66 6479.66,-6479.66 0,-450.91 -47.45,-902.65 -140.77,-1343.29 -4201.47,-651.1 -8558.58,-273.02 -12799.66,819 -13.63,172 -23.22,345.34 -23.22,521.43 0.18,-0.09 0.18,1.47 0.18,1.47 0,3578.78 2902.25,6481.04 6480.99,6481.04 0,0 0,0 0,0l-0.05 0z"/>
    <circle class="fil3 str6" cx="39279.02" cy="7398.34" r="6481.03"/>
    <path class="fil13" d="M4992.83 43706.09c0.05,-4.33 0.05,-17.04 0.05,-21.28 0,-2631.31 301.35,-5262.58 891.23,-7825.9 118.34,-506.14 246.67,-1007.17 385,-1503.13 395.87,-4408.98 2730.02,-8045.34 5850.39,-11292.7 649.72,-520.05 779.43,-1688.49 1429.16,-2338.26 2208.59,-1947.87 4156.46,-3897.08 6624.39,-5460 10131.08,-6494.67 23509.48,-10001.37 34290.28,-4026.75 2207.21,1168.44 4675.13,1818.2 6493.34,3377.03 3508.08,2986.64 5974.62,6494.67 9482.7,9351.65 3116.31,2593.49 3636.36,6754.05 4742.02,10383.6 139.2,495.04 267.07,995.52 383.57,1501.52 591.31,2564.89 892.66,5196.2 892.66,7827.46 0,4.24 0,16.95 0,21.19l-71464.76 5.57z"/>
    <path class="fil14" d="M5885.53 35857.3c-591.31,2564.93 -892.66,5196.2 -892.66,7827.51 0,4.24 0,16.95 0,21.19l11329.46 0.09c-212.9,-11010.15 -3038.46,-20204.82 11294.08,-31412.85 -10281.25,3902.56 -19649.25,12473.39 -21730.89,23564.06z"/>
    <path class="fil14" d="M7438.92 29781.67c-628.9,1451.96 -1026.38,2998.11 -1170.42,4573.43 -137.91,495.5 -265.6,996.25 -382.97,1502.21 -591.31,2564.93 -892.66,5196.2 -892.66,7827.51 0,4.24 0,16.95 0,21.19l27306.88 0.09c2877.2,-226.08 5813.31,-336.31 8708.01,-336.31 2894.75,0 5830.81,110.23 8711.83,330.78l26738.04 5.53c-0.05,-4.33 -0.05,-17.04 -0.05,-21.28 0,-2631.31 -301.35,-5262.58 -891.23,-7825.9 -118.34,-506.14 -246.67,-1007.17 -385,-1503.13 -472.29,-1552.01 -839.5,-3199.59 -1345.87,-4777.53 -22098.1,-8176.35 -44444.58,-8002.96 -66396.57,203.41z"/>
    <path class="fil3 str0" d="M4992.83 43706.09c0.05,-4.33 0.05,-17.04 0.05,-21.28 0,-2631.31 301.35,-5262.58 891.23,-7825.9 118.34,-506.14 246.67,-1007.17 385,-1503.13 395.87,-4408.98 2730.02,-8045.34 5850.39,-11292.7 649.72,-520.05 779.43,-1688.49 1429.16,-2338.26 2208.59,-1947.87 4156.46,-3897.08 6624.39,-5460 10131.08,-6494.67 23509.48,-10001.37 34290.28,-4026.75 2207.21,1168.44 4675.13,1818.2 6493.34,3377.03 3508.08,2986.64 5974.62,6494.67 9482.7,9351.65 3116.31,2593.49 3636.36,6754.05 4742.02,10383.6 139.2,495.04 267.07,995.52 383.57,1501.52 591.31,2564.89 892.66,5196.2 892.66,7827.46 0,4.24 0,16.95 0,21.19l-71464.76 5.57z"/>
    <path class="fil13" d="M2957.58 34601.48c25036.93,-10647.04 50660.8,-10791.72 75886.08,0 2392.84,1023.75 2379.21,19092.3 0,18265.14 -24634.25,-8576.31 -50686.73,-8667.79 -75886.08,0 -2997.51,1030.57 -2705.43,-17114.44 0,-18265.14z"/>
    <path class="fil0" d="M74754.13 46515.25c112.81,441.38 175.32,896.07 184.02,1351.4 12.3,446.35 -15.02,889.99 -35.47,1334.96l-49.15 664.74c-21.83,221.15 -43.67,442.25 -70.98,662.02 -54.58,440.92 -121.47,879.07 -217.05,1311.79l-1074.24 -192.45c60.07,-432.72 136.49,-861.33 223.87,-1289.95l136.49 -642.9 136.49 -641.57c101.02,-427.24 187.02,-855.85 303.05,-1283.09 114.51,-438.2 270.94,-866.03 463.3,-1275.07l-0.32 0.14z"/>
    <path class="fil0" d="M74560.29 32695.94c209.08,852.08 378.59,1722.72 495.41,2593.36 58.68,435.43 106.45,872.25 148.78,1309.02 42.33,436.77 66.88,876.35 90.1,1314.5 35.47,876.35 50.49,1752.66 8.2,2627.63 -36.9,874 -151.23,1752.47 -334.14,2608.1 -136.49,-872.25 -227.97,-1733.54 -316.68,-2593.49 -88.72,-859.95 -165.18,-1713.09 -279.83,-2563.46 -53.25,-425.9 -113.32,-849.04 -177.44,-1272.17 -64.12,-423.14 -136.49,-844.94 -207.47,-1265.35 -146.07,-842.22 -313.97,-1677.57 -490.02,-2512.97l1063.09 -245.15z"/>
    <path class="fil3 str7" d="M63485.98 29901.8c1031.95,5851.77 915.92,12215.44 0,18936.7"/>
    <path class="fil3 str7" d="M53850.44 27937.53c702.97,5855.87 623.79,12223.64 0,18950.38"/>
    <path class="fil0" d="M45068 34606.96c164.72,933.33 274.17,1877.58 323.04,2821.83 54.58,941.85 70.98,1883.71 88.72,2826.94l0 1414.14c0,470.95 0,941.85 -16.4,1412.8 -20.5,941.85 -54.58,1883.71 -118.75,2824.18l-1092.02 -54.58c30.03,-937.75 77.8,-1874.17 128.33,-2810.54l165.18 -2807.83c62.78,-936.37 111.93,-1874.17 184.3,-2811.92 72.37,-937.75 179.23,-1874.54 337.6,-2815.01z"/>
    <path class="fil0" d="M45351.93 26882.41c24.92,259.06 38.6,523.42 38.6,784.87 0,26.35 0,55.6 0,81.95 0,144.68 -6.82,289.37 -10.92,434.05l-18.15 435.43c-23.22,289.37 -43.67,580.12 -92.82,870.87 -49.47,304.29 -145.93,599.47 -283.75,874.79 -163.57,-262.7 -288.17,-548.75 -368.83,-847.56 -77.8,-283.93 -126.95,-567.82 -178.82,-853.14l-66.88 -425.9c-17.73,-143.35 -38.23,-285.27 -53.25,-427.24 -31.18,-280.06 -47.72,-563.31 -47.72,-845.63 0,-3.64 0,-9.17 0,-12.85l1082.53 -69.65z"/>
    <path class="fil3 str7" d="M36046.67 26850.99c47.77,5869.5 42.33,12239.99 0,18973.55"/>
    <path class="fil3 str7" d="M27258.79 27742.36c-281.17,5869.5 -249.8,12248.19 0,18988.56"/>
    <path class="fil0" d="M17702.39 39409.05c160.85,753.13 289.88,1524.64 370.49,2290.77 86,763.04 148.78,1524.69 225.25,2286.39l206.13 2283.67c64.17,760.32 126.95,1521.97 170.62,2285.01l-1092.02 87.38c-79.18,-765.75 -126.95,-1534.27 -161.08,-2302.74 -17.73,-384.95 -27.32,-769.85 -38.23,-1154.8l-13.63 -1154.8c0,-769.85 6.82,-1541.09 47.77,-2310.94 36.02,-774.14 135.89,-1549.7 284.76,-2309.61l-0.05 -0.32z"/>
    <path class="fil0" d="M18672.89 29653.38c-34.13,498.22 -87.38,993.72 -143.35,1489.22l-90.1 743.92 -98.3 743.92c-73.7,496.88 -129.67,993.72 -218.39,1491.94 -84.85,505.73 -213.96,1006.62 -382.46,1490.65 -141.32,-495.69 -233.22,-1006.34 -272.23,-1520.64 -40.95,-507.8 -43.67,-1012.84 -51.87,-1520.64l0 -758.94c8.2,-253.9 15.02,-506.42 27.32,-758.94 27.32,-506.42 66.88,-1011.45 136.49,-1513.77l1092.89 113.27z"/>
    <path class="fil3 str7" d="M8350.74 32420.21c-936.37,5869.5 -831.3,12264.59 0,19014.5"/>
    <path class="fil0" d="M74991.63 45269.02c282.64,0.05 511.85,-229.16 511.85,-511.85 0,-282.64 -229.21,-511.9 -511.9,-511.9 -282.64,0 -511.85,229.26 -511.85,511.9 3.64,281.08 230.73,508.17 511.85,511.85l0.05 0z"/>
    <path class="fil3 str8" d="M75702.8 32547.16c1364.99,5847.67 1208.05,12207.24 0,18924.44"/>
    <path class="fil3 str8" d="M65154.02 29628.78c1031.95,5851.77 915.92,12215.44 0,18938.08"/>
    <path class="fil3 str8" d="M55514.38 27642.72c702.97,5855.87 623.79,12223.64 0,18950.38"/>
    <path class="fil3 str8" d="M46461.64 26601.19c374.03,5858.59 333.08,12231.79 0,18962.63"/>
    <path class="fil3 str8" d="M37690.15 26511.14c46.43,5862.69 42.33,12239.99 0,18973.55"/>
    <path class="fil3 str8" d="M28891.31 27380.62c-281.17,5869.5 -249.8,12248.19 0,18988.56"/>
    <path class="fil3 str8" d="M19755.33 29219.28c-608.77,5869.5 -545.99,12256.39 0,19002.24"/>
    <path class="fil3 str8" d="M9972.35 32036.64c-936.37,5869.5 -831.3,12264.59 0,19014.5"/>
    <path class="fil3 str0" d="M2957.58 34601.48c25036.93,-10647.04 50660.8,-10791.72 75886.08,0 2392.84,1023.75 2379.21,19092.3 0,18265.14 -24634.25,-8576.31 -50686.73,-8667.79 -75886.08,0 -2997.51,1030.57 -2705.43,-17114.44 0,-18265.14z"/>
    <path class="fil0" d="M30450.13 24676.53c1738.05,-361.41 3507.85,-629.91 5272.2,-783.35 443.63,-38.23 885.89,-76.42 1329.52,-106.45l1330.9 -76.42c444.97,-19.12 888.6,-27.32 1333.62,-40.95l1333.62 -17.73c1774.49,0 3555.84,86 5323.52,251.18 1762.61,157.31 3535.81,427.56 5265.75,795.19 -1774.49,-39.57 -3549.03,-107.83 -5307.12,-154.27 -1758.09,-46.43 -3527.19,-66.88 -5289.38,-70.98l-1320.12 -0.97c-440.92,0 -881.79,16.4 -1322.7,15.02l-1321.32 19.12c-440.92,15.02 -881.79,21.83 -1324.04,27.32 -1760.86,45.05 -3527.19,107.83 -5304.45,143.3z"/>
    <path class="fil6" d="M19605.21 17866.56c961.98,-767.04 1990.62,-1474.25 3056.01,-2092.65 1061.99,-630.65 2158.06,-1206.67 3276.01,-1728.1 273.02,-136.49 563.77,-253.9 846.32,-379.47 282.55,-125.57 563.77,-253.9 851.75,-364.45 576.02,-225.25 1146.6,-461.37 1733.54,-655.2 1159.09,-413.74 2356.04,-760.92 3556.58,-1024.9 -282.55,124.23 -567.82,242.98 -853.14,359.02 -285.32,116.03 -571.92,223.87 -853.14,349.44 -566.48,237.5 -1134.3,466.85 -1696.69,712.55l-421.8 181.53c-136.49,58.68 -283.93,116.03 -423.14,180.2l-839.5 372.65c-281.17,120.13 -558.29,249.8 -838.12,375.37 -279.83,125.57 -558.29,251.18 -832.64,386.29l-832.64 386.29c-273.02,136.49 -545.99,273.02 -825.82,409.5 -545.99,264.82 -1092.02,545.99 -1644.82,819 -1091.19,549.95 -2177.73,1119.15 -3258.78,1712.95z"/>
   </g>
  </g>
 </g>
</svg>
