<?xml version="1.0" encoding="UTF-8"?>
<!DOCTYPE svg PUBLIC "-//W3C//DTD SVG 1.1//EN" "http://www.w3.org/Graphics/SVG/1.1/DTD/svg11.dtd">
<!-- Creator: CorelDRAW -->
<svg xmlns="http://www.w3.org/2000/svg" xml:space="preserve" width="176.827mm" height="257.74mm" version="1.1" style="shape-rendering:geometricPrecision; text-rendering:geometricPrecision; image-rendering:optimizeQuality; fill-rule:evenodd; clip-rule:evenodd"
viewBox="0 0 3703.71 5398.46"
 xmlns:xlink="http://www.w3.org/1999/xlink"
 xmlns:xodm="http://www.corel.com/coreldraw/odm/2003">
 <defs>
  <style type="text/css">
   <![CDATA[
    .str5 {stroke:#592D3D;stroke-width:33.25;stroke-miterlimit:22.9256}
    .str1 {stroke:#592D3D;stroke-width:66.5;stroke-miterlimit:22.9256}
    .str4 {stroke:white;stroke-width:133;stroke-miterlimit:22.9256}
    .str3 {stroke:white;stroke-width:88.67;stroke-miterlimit:22.9256}
    .str6 {stroke:#592D3D;stroke-width:83.42;stroke-miterlimit:22.9256}
    .str7 {stroke:#592D3D;stroke-width:49.66;stroke-miterlimit:22.9256}
    .str8 {stroke:#C46565;stroke-width:49.66;stroke-miterlimit:22.9256}
    .str9 {stroke:#592D3D;stroke-width:110.84;stroke-miterlimit:22.9256}
    .str0 {stroke:#592D3D;stroke-width:74.48;stroke-miterlimit:22.9256}
    .str2 {stroke:#592D3D;stroke-width:66.5;stroke-linecap:square;stroke-miterlimit:22.9256}
    .fil14 {fill:none}
    .fil3 {fill:none;fill-rule:nonzero}
    .fil17 {fill:#592D3D}
    .fil20 {fill:#E2E2E2}
    .fil21 {fill:#F3AB98}
    .fil18 {fill:#FDD2B2}
    .fil19 {fill:white}
    .fil8 {fill:black;fill-rule:nonzero}
    .fil0 {fill:#592D3D;fill-rule:nonzero}
    .fil9 {fill:#61DAFB;fill-rule:nonzero}
    .fil2 {fill:#67B7D6;fill-rule:nonzero}
    .fil1 {fill:#85C5E5;fill-rule:nonzero}
    .fil13 {fill:#C46565;fill-rule:nonzero}
    .fil12 {fill:#D67070;fill-rule:nonzero}
    .fil7 {fill:#E2E2E2;fill-rule:nonzero}
    .fil11 {fill:#F28195;fill-rule:nonzero}
    .fil5 {fill:#F3AB98;fill-rule:nonzero}
    .fil16 {fill:#F3AB98;fill-rule:nonzero}
    .fil4 {fill:#FDD2B2;fill-rule:nonzero}
    .fil15 {fill:#FDD2B2;fill-rule:nonzero}
    .fil6 {fill:white;fill-rule:nonzero}
    .fil10 {fill:black;fill-rule:nonzero;fill-opacity:0.101961}
   ]]>
  </style>
 </defs>
 <g id="Capa_x0020_1">
  <metadata id="CorelCorpID_0Corel-Layer"/>
  <g id="_2325157845760">
   <g>
    <path class="fil0 str0" d="M134.48 2452.06c1138.45,483.82 2303.59,490.71 3450.61,0 108.8,-46.55 108.18,-868.15 0,-830.53 -1120.14,389.97 -2304.77,394.13 -3450.61,0 -136.3,-47.11 -123.02,777.96 0,830.53z"/>
   </g>
   <path class="fil1" d="M1869.24 596.61c-920.71,0 -1667.14,746.37 -1667.14,1667.14l0 905.69c52.54,58.3 140.6,108.45 254.92,150.68l73.82 -220.4 80.13 268.56c846.57,225.22 2586.41,140.1 2925.4,-198.84l-0 -905.69c0,-920.77 -746.42,-1667.14 -1667.14,-1667.14z"/>
   <path class="fil2" d="M434.81 3311.7c7.32,2.83 14.68,5.54 22.17,8.42l73.87 -220.4 80.13 268.56c250.6,66.5 579.39,106.13 927.03,119.87l151.18 -145.31 -1293.51 -973.36c0,0 -34.03,562.22 39.13,942.22z"/>
   <path class="fil2" d="M2509.27 2498.88l140.26 946.32c192.85,-24.05 369.19,-56.91 516,-98.26l-0 0c0,0 183.38,-204.44 163.59,-977.46 -19.78,-773.02 -819.85,129.4 -819.85,129.4z"/>
   <path class="fil3 str1" d="M1869.24 596.61c-920.71,0 -1667.14,746.37 -1667.14,1667.14l0 905.69c52.54,58.3 140.6,108.45 254.92,150.68l73.82 -220.4 80.13 268.56c846.57,225.22 2586.41,140.1 2925.4,-198.84l-0 -905.69c0,-920.77 -746.42,-1667.14 -1667.14,-1667.14z"/>
   <path class="fil4" d="M381.49 2206.39c0,-816.42 661.86,-1478.27 1478.27,-1478.27 816.42,0 1478.27,661.86 1478.27,1478.27 0,0.33 0,1.05 0,1.41 0,444.89 -201.01,866.54 -546.65,1146.44 -30.36,24.66 -61.67,48.09 -93.92,70.29 -333.39,211.64 -754.57,211.64 -1134.79,177.78 -36.91,-5.54 -73.71,-12.53 -110.23,-20.56 -145.92,-32.14 -287.18,-81.74 -417.68,-154.06 -32.25,-19.88 -63.53,-41.34 -93.82,-64.4 -30.37,-23.08 -59.68,-48.07 -87.49,-74.13 -26.42,-24.51 -51.92,-49.97 -76.49,-76.39 -253.9,-272.55 -395.46,-631.75 -395.46,-1004.45 0,-0.54 0,-1.44 0,-1.98l-0 0.04z"/>
   <path class="fil5" d="M582.99 2951.65c3.88,6.65 7.7,13.3 11.69,19.84 2.38,3.99 4.88,7.87 7.37,11.86 3.66,5.93 7.32,11.86 11.08,17.68 2.66,4.21 5.54,8.31 8.09,12.41 3.66,5.54 7.32,11.08 11.08,16.63 2.83,4.21 5.54,8.42 8.65,12.64 3.66,5.54 7.32,10.64 11.08,15.96 2.99,4.27 6.1,8.48 9.14,12.75 3.05,4.27 7.43,10.25 11.08,15.35 3.66,5.1 6.37,8.48 9.59,12.69 3.21,4.21 7.59,9.98 11.47,14.96 3.88,4.99 6.6,8.37 9.92,12.53 3.32,4.16 7.81,9.75 11.75,14.58 3.93,4.82 6.82,8.26 10.25,12.36 3.44,4.1 7.98,9.53 12.02,14.24 4.04,4.71 7.04,8.15 10.59,12.19l12.3 13.86c3.6,4.04 7.26,7.98 11.08,11.97 4.77,5.21 9.59,10.36 14.41,15.46l6.7 7.09c7.15,7.43 14.35,14.85 21.67,22.17l1.44 1.5c7.15,7.09 14.41,14.13 21.67,21.12l8.76 8.31c5.27,4.93 10.53,9.87 15.85,14.74l6.43 5.88c5.54,5.21 11.58,10.31 17.4,15.41 18.1,15.77 36.57,30.9 55.42,45.38 30.26,23.05 61.53,44.52 93.82,64.4 130.51,72.04 271.55,121.92 417.68,154.06 36.52,8.03 73.32,14.96 110.23,20.56 233.31,20.78 482.14,28.71 716.44,-17.07 -372.57,-109.67 -2161.79,-753.96 -1035.65,-2722.74l0 0c-15.07,6.93 -29.93,14.08 -44.67,21.5l-3.27 1.61c-6.76,3.38 -13.52,6.87 -20.23,10.42l-5.54 2.94c-20.84,11.08 -41.45,22.56 -61.68,34.53l-4.99 2.94c-6.43,3.82 -12.8,7.7 -19.18,11.64l-4.82 2.99c-19.8,12.38 -39.29,25.18 -58.47,38.41l-5.99 4.16c-6.04,4.21 -11.97,8.42 -17.9,12.69l-3.66 2.61c-12.08,8.83 -24.01,17.77 -35.8,26.82l-3.44 2.66c-5.54,4.32 -11.08,8.76 -16.63,13.25l-6.48 5.21c-5.54,4.49 -11.08,8.98 -16.63,13.58l0 0c-11.69,9.7 -23.22,19.67 -34.58,29.76l-6.32 5.54 -14.91 13.58 -7.21 6.54c-15.81,14.78 -31.27,29.87 -46.38,45.28l-7.65 7.81c-4.38,4.55 -8.76,9.09 -13.08,13.69 -2.55,2.71 -5.1,5.54 -7.59,8.2 -7.61,8.13 -15.11,16.37 -22.5,24.72 -2.49,2.83 -5.04,5.54 -7.54,8.54 -3.94,4.49 -7.81,9.03 -11.69,13.58l-8.37 9.92c-3.77,4.49 -7.54,8.98 -11.08,13.52 -2.99,3.66 -5.99,7.37 -8.92,11.08 -5.93,7.37 -11.75,14.74 -17.51,22.17 -2.99,3.88 -5.99,7.76 -8.92,11.69 -2.94,3.94 -6.65,8.81 -9.92,13.3 -3.27,4.49 -5.93,8.03 -8.81,12.08 -2.88,4.05 -6.26,8.59 -9.31,12.91 -5.24,7.39 -10.42,14.87 -15.51,22.44 -2.77,4.04 -5.54,8.2 -8.26,12.3 -2.71,4.1 -6.1,9.2 -9.09,13.86l-8.26 12.8 -9.31 15.02c-2.38,3.82 -4.77,7.65 -7.09,11.47 -4.93,8.09 -9.7,16.24 -14.46,24.38l-6.76 11.97c-2.99,5.27 -5.99,10.59 -8.92,15.91 -2.22,4.04 -4.43,8.09 -6.6,12.14 -3.55,6.6 -7.04,13.25 -10.53,19.9l-6.65 12.97c-3.55,7.09 -7.09,14.13 -10.59,21.28 -1.83,3.82 -3.71,7.7 -5.54,11.58 -2.88,6.04 -5.54,12.14 -8.48,18.23 -1.72,3.66 -3.38,7.32 -5.04,11.08 -4.1,9.12 -8.11,18.36 -12.02,27.7 -1.22,2.88 -2.38,5.82 -3.6,8.7 -2.94,7.04 -5.82,14.08 -8.65,21.17 -1.5,3.71 -2.94,7.43 -4.38,11.08 -2.77,6.98 -5.54,14.02 -8.03,21.06 -1.16,3.05 -2.33,6.1 -3.44,9.14 -3.47,9.72 -6.89,19.43 -10.25,29.15l-3.1 9.42c-2.44,7.39 -4.82,14.78 -7.15,22.17l-3.33 10.59c-2.61,8.54 -5.15,17.07 -7.59,25.66 -0.56,1.83 -1.11,3.66 -1.61,5.54 -2.88,10.2 -5.65,20.43 -8.31,30.7 -0.89,3.27 -1.66,6.6 -2.49,9.87 -1.94,7.7 -3.82,15.41 -5.54,23.17l-2.33 9.7c-2.38,10.53 -4.71,21.06 -6.87,31.64l-0.83 4.27c-1.88,9.42 -3.73,18.84 -5.54,28.26 -0.61,3.38 -1.16,6.7 -1.77,10.09 -1.44,8.26 -2.83,16.63 -4.1,24.94 -0.44,2.83 -0.94,5.54 -1.33,8.42 -1.66,10.81 -3.16,21.67 -4.6,32.59l-0.83 7.21c-1.11,8.81 -2.11,17.68 -3.05,26.55 -0.33,3.33 -0.72,6.65 -1.05,10.03 -0.89,9.31 -1.72,18.67 -2.49,28.04 0,1.94 -0.33,3.82 -0.44,5.54 -0.81,11.08 -1.53,22.26 -2.16,33.52 0,2.94 0,5.93 -0.39,8.87 -0.37,8.72 -0.7,17.42 -1,26.1 0,3.27 0,6.54 0,9.81 0,11.36 -0.44,22.78 -0.44,34.19 0,0 0,0.39 0,0.56 0,12.3 0,24.5 0.44,36.69 0,4.21 0.33,8.42 0.44,12.64 0.28,8.15 0.56,16.29 0.94,24.44 0,4.93 0.61,9.81 0.89,14.74 0.44,7.37 0.83,14.74 1.38,22.17 0.39,5.54 0.89,10.47 1.33,15.68 0.61,6.98 1.16,13.97 1.89,20.89 0.5,5.54 1.16,10.75 1.72,16.13 0.77,6.7 1.5,13.47 2.33,20.17 0.67,5.54 1.44,11.08 2.16,16.35 0.89,6.54 1.77,13.13 2.77,19.67 0.83,5.54 1.72,11.08 2.61,16.63 1,6.43 2.05,12.91 3.16,19.34 1,5.54 2,11.08 3.05,16.63 1.16,6.37 2.38,12.75 3.6,19.06 1.22,6.32 2.27,11.08 3.44,16.63 1.33,6.32 2.66,12.58 4.1,18.84 1.44,6.26 2.44,11.08 3.77,16.24 1.44,6.26 2.99,12.47 4.55,18.62 1.55,6.15 2.71,10.81 4.1,16.13 1.66,6.21 3.33,12.36 5.04,18.51 1.44,5.54 2.94,10.64 4.49,15.91 1.77,6.15 3.6,12.25 5.54,18.34 1.94,6.1 3.22,10.47 4.88,15.74 1.66,5.26 3.88,12.14 5.88,18.18 2,6.04 3.44,10.36 5.21,15.52 2.11,6.04 4.21,12.08 6.37,18.12 1.83,5.04 3.6,10.14 5.54,15.19l6.87 18.12c1.94,4.93 3.82,9.92 5.54,14.85 2.44,6.04 4.93,12.14 7.43,18.18 2,4.77 3.94,9.59 5.99,14.35 2.61,6.21 5.54,12.3 8.03,18.45 2.05,4.55 4.04,9.14 6.1,13.69 2.88,6.43 5.93,12.75 8.87,19.06l5.99 12.75c3.38,6.98 6.87,13.86 10.36,20.78 1.77,3.49 3.44,7.04 5.27,10.53 10.64,20.72 21.72,41.17 33.25,61.34 1.61,2.61 3.66,5.99 5.65,9.37z"/>
   <path class="fil3 str1" d="M381.49 2206.39c0,-816.42 661.86,-1478.27 1478.27,-1478.27 816.42,0 1478.27,661.86 1478.27,1478.27 0,0.33 0,1.05 0,1.41 0,444.89 -201.01,866.54 -546.65,1146.44 -30.36,24.66 -61.67,48.09 -93.92,70.29 -333.39,211.64 -754.57,211.64 -1134.79,177.78 -36.91,-5.54 -73.71,-12.53 -110.23,-20.56 -145.92,-32.14 -287.18,-81.74 -417.68,-154.06 -32.25,-19.88 -63.53,-41.34 -93.82,-64.4 -30.37,-23.08 -59.68,-48.07 -87.49,-74.13 -26.42,-24.51 -51.92,-49.97 -76.49,-76.39 -253.9,-272.55 -395.46,-631.75 -395.46,-1004.45 0,-0.54 0,-1.44 0,-1.98l-0 0.04z"/>
   <path class="fil3" d="M1250.17 4256.85l-63.12 720.43 -175.84 0c-4.49,-999.02 112.78,-931.74 112.78,-931.74"/>
   <path class="fil4" d="M2521.85 5365.21l-1324.16 0c-40.62,-0.03 -73.54,-32.97 -73.54,-73.6 0,0 0,0 0,0l-0 -1577.86c0,-0 0,-0 0,-0 0,-40.62 32.92,-73.57 73.54,-73.6l1292.51 0c72.54,0 105.29,42.45 105.29,110.17l0 1541.06c0,0.07 0,0.15 0,0.22 0,40.64 -32.96,73.6 -73.6,73.6 -0.02,0 -0.04,0 -0.05,0z"/>
   <path class="fil5" d="M2574.94 3683.94c-5.51,-6.77 -10.21,-14.25 -13.91,-22.16 -13.29,-10.42 -29.14,-17.15 -45.88,-19.46 -8.1,-1.26 -16.31,-1.89 -24.5,-1.89 -0.14,0 -0.31,0 -0.45,0l-1292.51 0c-40.51,0.03 -73.38,32.8 -73.54,73.32 160.71,57.75 461.57,90 735.62,90 349.46,0 578.45,-51.81 715.17,-119.81z"/>
   <path class="fil3 str2" d="M2469.36 3640.16c203.42,42.02 258.93,64.16 310.03,158.89 45.61,84.56 97.02,222.51 99.29,554.56l-224.31 5.53"/>
   <line class="fil3 str1" x1="1197.69" y1="3640.71" x2="2490.2" y2= "3640.16" />
   <path class="fil5" d="M1197.69 5365.21l646.28 0c-604.89,0 -559.22,-1281.15 -719.82,-1281.15l0 1207.33c0,0.07 0,0.15 0,0.22 0,40.62 32.92,73.57 73.54,73.6l-0 0z"/>
   <path class="fil0" d="M1090.9 4206.14c-1.05,-20.34 -0.61,-40.68 0.28,-60.96 0.89,-20.28 2.61,-40.73 4.77,-60.96 1.11,-10.2 2.22,-20.34 3.6,-30.54 1.39,-10.2 2.71,-20.34 4.71,-30.54 3.9,-21.08 10.63,-41.62 19.9,-60.96 9.27,19.34 16,39.88 19.91,60.95 2,10.2 3.44,20.34 4.71,30.54 1.28,10.2 2.49,20.34 3.6,30.54 2.11,20.34 3.77,40.68 4.71,60.96 0.94,20.28 1.38,40.68 0.33,60.96l-66.52 0.01z"/>
   <path class="fil3 str1" d="M2595.38 4256.85l0 44.34c1.44,188.42 1.44,382.38 0,569.42 0,15.91 0,31.7 0,47.27l0 373.57c0,0.05 0,0.11 0,0.16 0,40.62 -32.92,73.57 -73.54,73.6l-1324.15 0c-40.62,-0.03 -73.54,-32.97 -73.54,-73.6 0,0 0,0 0,0l-0 -322.53c0,-13.91 0,-28.1 0,-42.4 -1.38,-193.24 -1.38,-387.2 0,-583.55l0 -136.99"/>
   <path class="fil0" d="M2562.13 4256.85c-1.05,-23.11 -0.56,-46.27 0.33,-69.44 0.89,-23.16 2.61,-46.27 4.71,-69.44 1.11,-11.58 2.27,-23.17 3.6,-34.75 1.33,-11.58 2.71,-23.11 4.71,-34.69 3.83,-23.83 10.58,-47.2 19.89,-69.45 9.32,22.25 16.07,45.62 19.9,69.44 2,11.58 3.44,23.17 4.71,34.69 1.28,11.53 2.49,23.17 3.6,34.75 2.11,23.17 3.82,46.27 4.71,69.44 0.89,23.16 1.38,46.33 0.33,69.44l-66.51 0.02z"/>
   <path class="fil3 str1" d="M1871.24 4305.95c0,212.07 -172,384.03 -384.1,384.03 -212.1,0 -384.1,-172 -384.1,-384.1 0,-60.59 14.35,-120.38 41.83,-174.35"/>
   <g>
    <path class="fil4" d="M1144.88 4131.55c21,-40.98 49.19,-77.94 83.14,-109l-83.14 109zm0 0l0 0 0 0z"/>
   </g>
   <path class="fil0" d="M1115.23 4116.42c4.87,-11.53 11.17,-22.42 18.73,-32.37 7.47,-9.94 15.93,-19.26 25.1,-27.7 4.66,-4.21 9.36,-8.31 14.3,-12.14 4.89,-3.95 10.1,-7.54 15.57,-10.65 11.82,-6.81 25.16,-10.63 38.79,-11.07 -1.42,12.96 -4.72,25.69 -9.69,37.74 -2.16,5.54 -4.6,10.42 -7.15,15.35l-7.21 14.8c-4.71,9.75 -9.36,19.34 -14.13,28.76 -4.56,9.47 -9.72,18.8 -15.29,27.72l-59.03 -30.44z"/>
   <g>
    <path class="fil4" d="M1800.64 4084.05c45.91,64.66 70.6,142.06 70.6,221.38 0,0.09 0,0.19 0,0.28l-70.6 -221.66zm0 0l0 0 0 0z"/>
   </g>
   <path class="fil0" d="M1800.64 4084.05c18.92,10.24 35.37,24.53 48.16,41.83 6.36,8.41 12.1,17.31 17.17,26.55 5.15,9.26 9.81,18.79 14.13,28.54 8.48,19.53 14.97,40.08 19.18,60.96 3.56,17.56 5.41,35.48 5.41,53.41 0,3.47 -0.06,7.05 -0.19,10.49l-66.51 0c-1.05,-18.01 -2,-35.91 -3.88,-53.92 -1.88,-18.01 -4.27,-35.91 -7.76,-53.98l-2.77 -13.52 -3.22 -13.58c-2.33,-9.03 -4.82,-18.07 -7.15,-27.32 -5.19,-19.51 -9.49,-39.53 -12.59,-59.48l0.01 0.01z"/>
   <g>
    <path class="fil4" d="M2644.76 4305.95c0,-0.15 0,-0.29 0,-0.43 0,-106.14 -44.06,-207.51 -121.58,-279.97l121.58 280.4zm0 0l0 0 0 0z"/>
   </g>
   <path class="fil0" d="M2611.51 4305.95c-0.89,-23.82 -3.28,-47.71 -6.97,-71.24 -3.9,-23.82 -9.71,-47.43 -17.31,-70.27 -1.89,-5.54 -4.1,-11.47 -6.15,-17.24 -2.05,-5.76 -4.66,-11.36 -6.93,-17.12 -2.27,-5.76 -5.21,-11.08 -7.65,-16.9l-8.09 -16.63c-11.08,-22.72 -23.11,-45.39 -35.25,-70.66 25.68,10.95 48.78,27.24 67.73,47.73 4.6,5.21 9.42,10.31 13.69,15.79 4.27,5.49 8.54,11.08 12.47,16.63 3.93,5.54 7.93,11.58 11.47,17.62 3.55,6.04 7.26,12.08 10.42,18.4 13.19,25.02 23.29,51.69 29.94,79.21 6.05,24.5 9.12,49.81 9.12,75.08 0,3.18 -0.08,6.43 -0.15,9.57l-66.33 0z"/>
   <path class="fil3 str1" d="M1876.39 4305.95c0.02,1.47 -0.03,3.11 -0.03,4.61 0,212.1 172,384.1 384.1,384.1 212.1,0 384.1,-172 384.1,-384.1 0,-1.5 -0.05,-3.14 -0.05,-4.6"/>
   <g>
    <path class="fil4" d="M1947.16 4084.05c-45.85,64.58 -70.55,142.03 -70.55,221.3 0,0.09 0,0.28 0,0.37l70.55 -221.68zm0 0l0 0 0 0z"/>
   </g>
   <path class="fil0" d="M1947.16 4084.05c-3.13,19.99 -7.36,40.01 -12.57,59.6 -2.33,9.26 -4.82,18.29 -7.15,27.32l-3.16 13.58 -2.77 13.52c-3.49,18.07 -6.04,36.02 -7.81,53.98 -1.77,17.95 -2.77,35.91 -3.82,53.92l-66.73 -0.03c-0.13,-3.6 -0.23,-7.32 -0.23,-10.95 0,-17.78 1.85,-35.55 5.44,-52.95 4.2,-20.91 10.65,-41.44 19.16,-60.97 4.27,-9.75 8.92,-19.29 14.08,-28.54 5.09,-9.21 10.85,-18.13 17.19,-26.53 12.85,-17.34 29.41,-31.7 48.38,-41.96l0.01 -0z"/>
   <line class="fil3 str1" x1="1213.82" y1="4077.02" x2="1213.82" y2= "3640.16" />
   <line class="fil3 str1" x1="2505.16" y1="4077.02" x2="2505.16" y2= "3640.16" />
   <path class="fil6 str1" d="M1696.28 4410.8l298.7 0 0 109.17c-98.31,-33.53 -197.9,-32.7 -298.7,0l0 -109.17z"/>
   <path class="fil6 str1" d="M2625.09 4305.95c0,-0.13 0,-0.41 0,-0.55 0,-97.09 -36.96,-190.59 -103.26,-261.47 -23.39,-25.05 -245.34,34.3 -375.79,151.07 -128.07,114.66 -239.57,301.97 -223.61,325.58 71.38,105.93 190.82,169.47 318.56,169.47 212.1,0 384.1,-172 384.1,-384.1 0,0 0,0 0,0l0 -0z"/>
   <path class="fil6" d="M2403.47 4137.09c-33.92,20.34 -67.33,39.79 -99.75,60.96 -31.96,20.31 -62.75,43.14 -91.65,67.54 -28.54,24.72 -56.03,51.65 -83.13,79.03 -27.1,27.38 -53.7,55.42 -81.74,83.52 17.05,-35.71 37.82,-69.54 61.97,-100.73 24.05,-31.63 51.54,-61.05 81.53,-87.17 30.54,-25.86 64.45,-47.78 100.58,-65.01 35.55,-17.45 73.38,-30.32 112.22,-38.12l-0.03 -0.01z"/>
   <path class="fil6 str1" d="M1094.44 4305.95c0,-0.13 0,-0.41 0,-0.55 0,-97.09 36.96,-190.59 103.26,-261.47 23.39,-25.05 245.34,34.3 375.79,151.07 128.07,114.66 239.57,301.97 223.61,325.58 -71.38,105.93 -190.82,169.47 -318.56,169.47 -212.1,0 -384.1,-172 -384.1,-384.1 0,0 0,0 0,0l-0 -0z"/>
   <path class="fil7" d="M1614.54 4638.79c-261.21,-0 -473.04,-211.84 -473.04,-473.05 0,-0.01 0,-0.01 0,-0.01 0,-16.07 0.88,-32.32 2.45,-48.27 -32.43,57.5 -49.45,122.49 -49.45,188.52 0,212.1 172,384.1 384.1,384.1 70.15,0 139.09,-19.27 199.06,-55.62 -20.86,2.83 -42.01,4.33 -63.11,4.33l-0.01 0z"/>
   <path class="fil3 str1" d="M1094.44 4305.95c0,-0.13 0,-0.41 0,-0.55 0,-97.09 36.96,-190.59 103.26,-261.47 23.39,-25.05 245.34,34.3 375.79,151.07 128.07,114.66 239.57,301.97 223.61,325.58 -71.38,105.93 -190.82,169.47 -318.56,169.47 -212.1,0 -384.1,-172 -384.1,-384.1 0,0 0,0 0,0l-0 -0z"/>
   <path class="fil6" d="M1316.06 4137.09c38.84,7.79 76.67,20.66 112.24,38.05 36.11,17.25 69.95,39.22 100.49,65.08 29.87,26.14 57.21,55.42 81.18,87.06 24.21,31.2 44.99,65.03 61.97,100.69 -28.04,-27.71 -54.53,-56.14 -81.74,-83.52 -27.21,-27.38 -54.53,-54.31 -83.13,-79.03 -28.84,-24.34 -59.63,-47.17 -91.57,-67.49 -32.33,-21.05 -65.58,-40.5 -99.44,-60.84z"/>
   <path class="fil6" d="M2490.2 3640.16l-300.42 0 0 0.56c0,-0.01 0,0.11 0,0.11 0,24.89 -2.72,49.78 -7.98,74.08 -2.53,11.83 -5.79,23.62 -9.62,35.08 -12.28,34.37 -31.14,66.1 -55.44,93.3 -7.76,8.69 -16.08,16.94 -24.92,24.54 -139.49,100.86 -361.16,106.4 -495.88,-3.22 -14.52,-12.63 -27.76,-26.79 -39.43,-42.1 -24.25,-31.88 -41.48,-68.59 -50.42,-107.59 -2.6,-12.04 -4.62,-24.28 -5.93,-36.53 -1.3,-12.28 -2.04,-24.78 -2.04,-37.16 0,-0.17 0,-0.33 0,-0.49l0 -0.56 -300.42 -0.01c-40.62,0.03 -73.54,32.97 -73.54,73.59 0,0 0,0 0,0l0 1577.64c0,0.07 0,0.15 0,0.22 0,40.62 32.92,73.57 73.54,73.6l1324.15 0c40.62,-0.03 73.54,-32.97 73.54,-73.6 0,0 0,0 0,0l0 -1541.28c0,-67.72 -32.64,-110.17 -105.18,-110.17z"/>
   <path class="fil6" d="M2469.36 3640.16c352.12,0 406.77,310.34 409.54,738 -103.08,64.4 -271.05,7.26 -271.05,7.26l-138.49 -745.26z"/>
   <path class="fil7" d="M2595.38 4045.54l-126.02 211.31 63.07 720.43 64.34 0 0 -585.49 95.76 16.01c-31.42,-399.95 -97.15,-362.27 -97.15,-362.27z"/>
   <path class="fil6" d="M1228.67 3640.16c-342.37,0 -420.23,298.15 -425.89,707.46 105.29,110.06 321.42,25.38 321.42,25.38l104.46 -732.85z"/>
   <path class="fil7" d="M1123.98 4045.54l0 327.69 -95.93 23.89c31.42,-388.59 95.93,-351.57 95.93,-351.57z"/>
   <path class="fil3 str2" d="M2469.36 3640.16c355.19,0 496.56,525.59 409.32,713.46 -13.21,28.45 -111.99,29.8 -282.8,23.07"/>
   <path class="fil3 str2" d="M1179.84 3642.63c-376.62,0.55 -454.72,611.93 -376.99,700.21 77.74,88.28 321.08,30.39 321.08,30.39"/>
   <path class="fil7" d="M1197.69 5365.21l646.28 0c-604.89,0 -559.22,-1281.15 -719.82,-1281.15l0 1207.33c0,0.07 0,0.15 0,0.22 0,40.62 32.92,73.57 73.54,73.6l-0 0z"/>
   <path class="fil0" d="M1090.9 4206.14c-1.05,-20.34 -0.61,-40.68 0.28,-60.96 0.89,-20.28 2.61,-40.73 4.77,-60.96 1.11,-10.2 2.22,-20.34 3.6,-30.54 1.39,-10.2 2.71,-20.34 4.71,-30.54 3.9,-21.08 10.63,-41.62 19.9,-60.96 9.26,19.31 15.98,39.85 19.85,60.95 2.05,10.2 3.49,20.34 4.77,30.54 1.27,10.2 2.49,20.34 3.6,30.54 2.11,20.34 3.77,40.68 4.71,60.96 0.94,20.28 1.38,40.68 0.33,60.96l-66.51 0.01z"/>
   <path class="fil3 str1" d="M2595.38 4256.85l0 44.34c1.44,188.42 1.44,382.38 0,569.42 0,15.91 0,31.7 0,47.27l0 373.57c0,0.05 0,0.11 0,0.16 0,40.62 -32.92,73.57 -73.54,73.6l-1324.15 0c-40.62,-0.03 -73.54,-32.97 -73.54,-73.6 0,0 0,0 0,0l-0 -322.53c0,-13.91 0,-28.1 0,-42.4 -1.38,-193.24 -1.38,-387.2 0,-583.55l0 -136.99"/>
   <path class="fil0" d="M2562.13 4256.85c-1.05,-23.11 -0.56,-46.27 0.33,-69.44 0.89,-23.16 2.61,-46.27 4.71,-69.44 1.11,-11.58 2.27,-23.17 3.6,-34.75 1.33,-11.58 2.71,-23.11 4.77,-34.69 3.81,-23.8 10.49,-47.23 19.83,-69.45 9.33,22.25 16.08,45.61 19.92,69.43 2,11.58 3.44,23.17 4.71,34.69 1.28,11.53 2.49,23.17 3.6,34.75 2.11,23.17 3.82,46.27 4.71,69.44 0.89,23.16 1.38,46.33 0.33,69.44l-66.51 0.02z"/>
   <line class="fil3 str1" x1="1197.69" y1="3640.71" x2="2490.2" y2= "3640.16" />
   <path class="fil3 str1" d="M2189.78 3640.71c0,-0.01 0,0.11 0,0.11 0,24.89 -2.72,49.78 -7.98,74.08 -2.53,11.83 -5.79,23.62 -9.62,35.08 -12.28,34.37 -31.14,66.1 -55.44,93.3 -7.76,8.69 -16.08,16.94 -24.92,24.54 -139.49,100.86 -361.16,106.4 -495.88,-3.22 -14.52,-12.63 -27.76,-26.79 -39.43,-42.1 -24.25,-31.88 -41.48,-68.59 -50.42,-107.59 -2.6,-12.04 -4.62,-24.28 -5.93,-36.53 -1.3,-12.28 -2.04,-24.78 -2.04,-37.16 0,-0.17 0,-0.33 0,-0.49"/>
   <path class="fil0" d="M1878.61 4026.25c-23.93,4.77 -48.36,7.24 -72.78,7.24 -9.69,0 -19.47,-0.45 -29.11,-1.17 -34.37,-2.38 -68.37,-9.41 -100.86,-20.79 -32.73,-11.22 -63.59,-27.4 -91.45,-47.9l-10.31 -7.81c-3.38,-2.66 -6.65,-5.54 -9.92,-8.42 -6.59,-5.59 -12.78,-11.69 -18.47,-18.17 -11.36,-12.8 -21.38,-26.77 -29.8,-41.62 11.81,11.88 24.34,23.17 37.35,33.76 3.22,2.66 6.48,5.27 9.7,7.76 3.21,2.49 6.82,4.55 10.2,6.87 3.38,2.33 6.76,4.66 10.25,6.82l10.59 6.43c28.23,16.66 58.26,30.6 89.23,41.33 31.02,10.87 63.16,19.21 95.58,24.67 33.02,5.35 66.4,9.11 99.77,10.99l0.03 0.04z"/>
   <path class="fil8 str3" d="M2230.4 4521.91c0,-49.1 -61.51,-95.65 -155.78,-124.52 21.78,-96.1 12.08,-172.52 -30.54,-197.01 -8.67,-5.76 -18.87,-8.83 -29.28,-8.83 -1.47,0 -2.95,0.06 -4.41,0.18 -44.34,0.72 -95.93,29.65 -150.9,81.02 -55.14,-51.09 -116.1,-81.29 -150.96,-80.41 -17.51,0.5 -24.22,2.88 -34.14,8.65 -42.51,24.44 -51.98,100.75 -30.09,196.57 -94.21,28.98 -155.17,75.42 -155.17,124.36 0,48.93 61.51,95.65 155.78,124.52 -21.78,96.1 -12.08,172.52 30.54,197.01 9.9,5.56 21.07,8.49 32.43,8.49 0.51,0 1.05,-0.01 1.55,-0.02 41.56,0 95.93,-29.65 150.96,-81.02 54.98,51.1 109.4,80.41 150.96,80.41 0.47,0.01 0.97,0.01 1.45,0.01 11.44,0 22.7,-2.93 32.68,-8.5 42.45,-24.5 51.98,-100.81 30.04,-196.57 93.71,-28.87 154.89,-75.42 154.89,-124.35zm-220.12 -296.43l0 0c0.33,-0.01 0.68,-0.02 1.02,-0.02 5.62,0 11.17,1.36 16.16,3.95 20.56,11.8 29.48,56.69 22.56,114.38 -1.66,14.19 -4.38,29.15 -7.7,44.34 -31.52,-7.58 -63.64,-13.34 -95.95,-16.67 -19.21,-26.4 -40.41,-51.83 -62.87,-75.45 49.2,-45.43 95.36,-70.47 126.78,-70.53zm-284.4 373.79c7.09,12.08 14.35,23.87 21.78,35.36 -21.45,-3.16 -42.17,-7.09 -61.96,-11.92 5.54,-19.51 12.53,-39.62 20.39,-59.69 6.2,12.08 12.69,24.16 19.78,36.25zm-40.62 -178.17c19.78,-4.66 40.62,-8.76 62.23,-11.92 -7.37,11.64 -14.8,23.55 -21.72,35.8 -6.93,12.25 -13.47,24.16 -19.67,36.24 -7.95,-19.63 -14.94,-39.75 -20.84,-60.1l0.01 -0.03zm38.51 101.25c9.36,-20.23 19.95,-40.51 31.31,-60.3 11.36,-19.78 23.83,-39.74 36.41,-57.69 22.5,-2 45.33,-3.05 68.28,-3.05 22.94,0 45.61,1.05 68,2.88 12.53,17.96 24.77,37.19 36.58,57.41 11.8,20.23 22.17,39.9 31.42,60.13 -9.53,20.28 -19.95,40.51 -31.31,60.3 -11.36,19.78 -23.83,39.74 -36.41,57.75 -22.5,1.94 -45.33,2.99 -68.28,2.99 -22.94,0 -45.61,-1.05 -68,-2.88 -12.53,-17.96 -24.77,-37.13 -36.58,-57.41 -11.8,-20.28 -21.89,-39.9 -31.42,-60.13zm269.89 76.48c6.93,-12.08 13.41,-24.33 19.62,-36.41 7.89,19.64 14.96,39.84 20.87,60.18 -19.78,4.82 -40.62,8.92 -62.23,12.08 7.4,-11.69 14.77,-23.61 21.75,-35.86zm0 -154.28c-6.93,-12.08 -14.35,-23.89 -21.78,-35.36 21.5,3.14 42.15,7.11 61.96,11.91 -5.54,19.51 -12.53,39.62 -20.39,59.69 -6.37,-12.08 -12.86,-24.16 -19.95,-36.24l0.17 0zm-92.33 -76.03c-13.63,-0.56 -27.71,-1.05 -41.56,-1.05 -13.86,0 -28.26,0.33 -42.01,1.05 12.97,-16.78 26.92,-33.01 41.58,-48.32 14.8,15.32 28.8,31.49 41.96,48.29l0.03 0.03zm-210.2 -138.55c4.88,-2.61 10.34,-3.97 15.87,-3.97 0.51,0 1.03,0.02 1.54,0.04l0 0c31.26,0 77.59,24.94 126.91,70.44 -22.4,23.54 -43.42,48.93 -62.42,75.37 -32.3,3.27 -64.53,8.94 -96.05,16.63 -3.49,-15.07 -6.04,-29.76 -7.87,-43.78 -7.13,-57.75 1.63,-102.64 22.02,-114.56l0 -0.17zm-38.07 383.66c-14.96,-4.71 -29.15,-9.87 -42.28,-15.41 -53.53,-22.83 -88.12,-52.76 -88.12,-76.48 0,-23.72 34.58,-53.81 88.12,-76.48 12.97,-5.54 27.16,-10.59 41.84,-15.24 9.22,31.22 20.73,62.29 34.01,92.03 -13.25,29.7 -24.57,60.56 -33.59,91.77l0.02 -0.2zm56.08 204.55c-0.18,-0 -0.38,0 -0.57,0 -5.74,0 -11.42,-1.39 -16.5,-4.05 -20.56,-11.8 -29.48,-56.69 -22.56,-114.38 1.66,-14.24 4.38,-29.15 7.7,-44.34 31.45,7.63 63.8,13.22 95.96,16.6 19.25,26.52 40.31,51.95 62.88,75.59 -49.28,45.69 -95.5,70.74 -126.92,70.74l0 -0.17zm150.9 -94.71c-14.72,-15.38 -28.9,-31.66 -42.01,-48.41 13.63,0.61 27.71,1.05 41.56,1.05 13.86,0 28.26,-0.28 42.01,-1.05 -12.89,16.83 -26.86,33.24 -41.55,48.58l-0.01 -0.17zm168.36 90.05c-4.88,2.6 -10.33,3.97 -15.87,3.97 -0.51,0 -1.03,-0.02 -1.54,-0.04 -31.26,0 -77.59,-24.94 -126.91,-70.44 22.4,-23.54 43.42,-48.93 62.42,-75.37 32.3,-3.27 64.53,-8.94 96.05,-16.63 3.39,14.5 6.1,29.24 7.89,43.97 7.1,57.9 -1.65,102.73 -22.04,114.7l0 -0.17zm80.24 -215.3c-13.02,5.54 -27.21,10.53 -41.9,15.24 -9.15,-31.3 -20.72,-62.35 -33.98,-92.07 13.14,-29.67 24.4,-60.39 33.3,-91.55 14.96,4.71 29.15,9.81 42.45,15.41 53.53,22.83 88.12,52.76 88.12,76.48 0,23.72 -34.51,54 -87.99,76.67l0 -0.17z"/>
   <circle class="fil8 str4" cx="1859.6" cy="4521.91" r="69.05"/>
   <path class="fil9" d="M2230.4 4521.91c0,-49.1 -61.51,-95.65 -155.78,-124.52 21.78,-96.1 12.08,-172.52 -30.54,-197.01 -8.67,-5.76 -18.87,-8.83 -29.28,-8.83 -1.47,0 -2.95,0.06 -4.41,0.18 -44.34,0.72 -95.93,29.65 -150.9,81.02 -55.14,-51.09 -116.1,-81.29 -150.96,-80.41 -17.51,0.5 -24.22,2.88 -34.14,8.65 -42.51,24.44 -51.98,100.75 -30.09,196.57 -94.21,28.98 -155.17,75.42 -155.17,124.36 0,48.93 61.51,95.65 155.78,124.52 -21.78,96.1 -12.08,172.52 30.54,197.01 9.9,5.56 21.07,8.49 32.43,8.49 0.51,0 1.05,-0.01 1.55,-0.02 41.56,0 95.93,-29.65 150.96,-81.02 54.98,51.1 109.4,80.41 150.96,80.41 0.47,0.01 0.97,0.01 1.45,0.01 11.44,0 22.7,-2.93 32.68,-8.5 42.45,-24.5 51.98,-100.81 30.04,-196.57 93.71,-28.87 154.89,-75.42 154.89,-124.35zm-220.12 -296.43l0 0c0.33,-0.01 0.68,-0.02 1.02,-0.02 5.62,0 11.17,1.36 16.16,3.95 20.56,11.8 29.48,56.69 22.56,114.38 -1.66,14.19 -4.38,29.15 -7.7,44.34 -31.52,-7.58 -63.64,-13.34 -95.95,-16.67 -19.21,-26.4 -40.41,-51.83 -62.87,-75.45 49.2,-45.43 95.36,-70.47 126.78,-70.53zm-284.4 373.79c7.09,12.08 14.35,23.87 21.78,35.36 -21.45,-3.16 -42.17,-7.09 -61.96,-11.92 5.54,-19.51 12.53,-39.62 20.39,-59.69 6.2,12.08 12.69,24.16 19.78,36.25zm-40.62 -178.17c19.78,-4.66 40.62,-8.76 62.23,-11.92 -7.37,11.64 -14.8,23.55 -21.72,35.8 -6.93,12.25 -13.47,24.16 -19.67,36.24 -7.95,-19.63 -14.94,-39.75 -20.84,-60.1l0.01 -0.03zm38.51 101.25c9.36,-20.23 19.95,-40.51 31.31,-60.3 11.36,-19.78 23.83,-39.74 36.41,-57.69 22.5,-2 45.33,-3.05 68.28,-3.05 22.94,0 45.61,1.05 68,2.88 12.53,17.96 24.77,37.19 36.58,57.41 11.8,20.23 22.17,39.9 31.42,60.13 -9.53,20.28 -19.95,40.51 -31.31,60.3 -11.36,19.78 -23.83,39.74 -36.41,57.75 -22.5,1.94 -45.33,2.99 -68.28,2.99 -22.94,0 -45.61,-1.05 -68,-2.88 -12.53,-17.96 -24.77,-37.13 -36.58,-57.41 -11.8,-20.28 -21.89,-39.9 -31.42,-60.13zm269.89 76.48c6.93,-12.08 13.41,-24.33 19.62,-36.41 7.89,19.64 14.96,39.84 20.87,60.18 -19.78,4.82 -40.62,8.92 -62.23,12.08 7.4,-11.69 14.77,-23.61 21.75,-35.86zm0 -154.28c-6.93,-12.08 -14.35,-23.89 -21.78,-35.36 21.5,3.14 42.15,7.11 61.96,11.91 -5.54,19.51 -12.53,39.62 -20.39,59.69 -6.37,-12.08 -12.86,-24.16 -19.95,-36.24l0.17 0zm-92.33 -76.03c-13.63,-0.56 -27.71,-1.05 -41.56,-1.05 -13.86,0 -28.26,0.33 -42.01,1.05 12.97,-16.78 26.92,-33.01 41.58,-48.32 14.8,15.32 28.8,31.49 41.96,48.29l0.03 0.03zm-210.2 -138.55c4.88,-2.61 10.34,-3.97 15.87,-3.97 0.51,0 1.03,0.02 1.54,0.04l0 0c31.26,0 77.59,24.94 126.91,70.44 -22.4,23.54 -43.42,48.93 -62.42,75.37 -32.3,3.27 -64.53,8.94 -96.05,16.63 -3.49,-15.07 -6.04,-29.76 -7.87,-43.78 -7.13,-57.75 1.63,-102.64 22.02,-114.56l0 -0.17zm-38.07 383.66c-14.96,-4.71 -29.15,-9.87 -42.28,-15.41 -53.53,-22.83 -88.12,-52.76 -88.12,-76.48 0,-23.72 34.58,-53.81 88.12,-76.48 12.97,-5.54 27.16,-10.59 41.84,-15.24 9.22,31.22 20.73,62.29 34.01,92.03 -13.25,29.7 -24.57,60.56 -33.59,91.77l0.02 -0.2zm56.08 204.55c-0.18,-0 -0.38,0 -0.57,0 -5.74,0 -11.42,-1.39 -16.5,-4.05 -20.56,-11.8 -29.48,-56.69 -22.56,-114.38 1.66,-14.24 4.38,-29.15 7.7,-44.34 31.45,7.63 63.8,13.22 95.96,16.6 19.25,26.52 40.31,51.95 62.88,75.59 -49.28,45.69 -95.5,70.74 -126.92,70.74l0 -0.17zm150.9 -94.71c-14.72,-15.38 -28.9,-31.66 -42.01,-48.41 13.63,0.61 27.71,1.05 41.56,1.05 13.86,0 28.26,-0.28 42.01,-1.05 -12.89,16.83 -26.86,33.24 -41.55,48.58l-0.01 -0.17zm168.36 90.05c-4.88,2.6 -10.33,3.97 -15.87,3.97 -0.51,0 -1.03,-0.02 -1.54,-0.04 -31.26,0 -77.59,-24.94 -126.91,-70.44 22.4,-23.54 43.42,-48.93 62.42,-75.37 32.3,-3.27 64.53,-8.94 96.05,-16.63 3.39,14.5 6.1,29.24 7.89,43.97 7.1,57.9 -1.65,102.73 -22.04,114.7l0 -0.17zm80.24 -215.3c-13.02,5.54 -27.21,10.53 -41.9,15.24 -9.15,-31.3 -20.72,-62.35 -33.98,-92.07 13.14,-29.67 24.4,-60.39 33.3,-91.55 14.96,4.71 29.15,9.81 42.45,15.41 53.53,22.83 88.12,52.76 88.12,76.48 0,23.72 -34.51,54 -87.99,76.67l0 -0.17z"/>
   <circle class="fil9" cx="1859.6" cy="4521.91" r="69.05"/>
   <path class="fil10" d="M1454.55 4764.64c164.43,-0 310.76,-104.82 363.66,-260.48 -70.54,120.69 -199.9,194.91 -339.69,194.91 -124.13,0 -241.1,-58.65 -315.31,-158.09l-0.27 81.63c70.6,86.62 171.19,142.03 291.61,142.03z"/>
   <path class="fil10" d="M2264.98 4764.64c-164.43,-0 -310.76,-104.82 -363.66,-260.48 70.54,120.69 199.9,194.91 339.69,194.91 124.13,0 241.1,-58.65 315.31,-158.09l0 81.58c-70.33,86.67 -170.92,142.09 -291.34,142.09z"/>
   <g>
    <path class="fil6" d="M1344.38 4665.89c-150.23,-56.05 -249.86,-199.59 -249.86,-359.96 0,-96.91 36.68,-190.3 102.58,-261.32l147.28 621.28zm0 0l0 0 0 0z"/>
   </g>
   <path class="fil0" d="M1344.38 4665.89c-65.47,-10.67 -126.05,-41.75 -172.94,-88.69l-8.98 -8.87c-2.94,-2.99 -5.54,-6.26 -8.48,-9.36 -2.94,-3.1 -5.54,-6.37 -8.2,-9.59 -2.82,-3.14 -5.48,-6.49 -7.94,-9.91 -4.99,-6.82 -10.03,-13.63 -14.85,-20.62l-13.13 -21.78c-16.56,-29.76 -29.11,-61.78 -37.19,-94.93 -6.41,-28.27 -9.65,-57.33 -9.65,-86.34 0,-5.01 0.1,-10.11 0.29,-15.08 1.47,-33.83 7.89,-67.35 18.86,-99.35 1.44,-3.94 2.71,-7.93 4.21,-11.86l4.88 -11.64c3.05,-7.76 6.98,-15.19 10.59,-22.66 7.64,-14.67 16.52,-28.95 26.27,-42.31 4.71,-6.7 10.09,-13.02 15.24,-19.34 5.15,-6.32 10.75,-12.36 16.63,-17.9 11.43,-11.4 23.97,-21.85 37.28,-30.97 -32.09,55.42 -54.86,111.89 -64.62,169.97 -4.4,24.94 -6.68,50.35 -6.68,75.72 0,3.59 0.1,7.24 0.16,10.78 1.03,28.7 4.75,57.44 11.05,85.44 6.8,27.78 16.42,55.12 28.4,81.14 12.26,26.31 27.31,51.42 44.74,74.67 17.67,24.01 37.82,46.3 59.95,66.24 23.14,20.75 48.11,40.05 74.1,57.24l0.03 -0.01z"/>
   <g>
    <path class="fil6" d="M2375.43 4665.89c150.12,-56.11 249.66,-199.6 249.66,-359.88 0,-96.96 -36.68,-190.4 -102.63,-261.41l-147.03 621.29zm0 0l0 0 0 0z"/>
   </g>
   <path class="fil0" d="M2375.43 4665.89c25.94,-17.08 50.76,-36.3 73.95,-56.99 22.15,-19.95 42.3,-42.24 59.94,-66.24 17.46,-23.26 32.51,-48.37 44.78,-74.66 11.97,-26.04 21.59,-53.38 28.37,-81.21 6.32,-27.95 10.04,-56.69 11.07,-85.38 0.13,-3.92 0.18,-7.94 0.18,-11.9 0,-25.1 -2.22,-50.24 -6.55,-74.92 -9.75,-58.08 -32.53,-114.38 -64.62,-169.97 13.33,9.1 25.87,19.54 37.31,30.96 5.99,5.54 11.08,11.86 16.63,17.9 5.54,6.04 10.53,12.64 15.24,19.34 9.73,13.35 18.62,27.63 26.27,42.31 3.6,7.48 7.54,14.91 10.59,22.66l4.88 11.64c1.5,3.94 2.77,7.93 4.21,11.86 10.96,31.99 17.37,65.51 18.85,99.33 0.19,4.97 0.29,10.08 0.29,15.09 0,29.01 -3.24,58.06 -9.64,86.36 -8.09,33.13 -20.65,65.15 -37.22,94.93l-13.12 21.76c-4.82,6.98 -9.87,13.8 -14.85,20.62 -2.46,3.41 -5.12,6.76 -7.92,9.92 -2.71,3.22 -5.54,6.43 -8.2,9.59 -2.66,3.16 -5.54,6.37 -8.48,9.36l-8.98 8.87c-46.89,46.97 -107.47,78.05 -172.96,88.76l-0 0.02z"/>
   <circle class="fil0" cx="978.95" cy="2589.21" r="116.15"/>
   <path class="fil0" d="M978.23 2682.98c9.92,-0.56 21,-1.44 31.59,-2.55 10.58,-1.11 21.39,-2.44 32.09,-4.1 10.69,-1.66 21.45,-3.6 32.2,-5.54 10.75,-1.94 21.72,-3.77 33.25,-4.6 -9.04,6.95 -18.95,12.79 -29.43,17.29 -10.4,4.33 -21.14,8.06 -32.02,11.07 -10.89,3.17 -22.06,5.74 -33.25,7.55 -11.35,1.98 -22.96,2.98 -34.49,2.98 -0.03,0 -0.07,0 -0.1,0l0.17 -22.11z"/>
   <circle class="fil0" cx="2756.26" cy="2589.21" r="116.15"/>
   <path class="fil0" d="M2756.26 2682.98c9.98,-0.56 21,-1.44 31.59,-2.55 10.58,-1.11 21.45,-2.44 32.14,-4.1 10.7,-1.66 21.45,-3.6 32.2,-5.54 10.75,-1.94 21.72,-3.77 33.25,-4.6 -9.04,6.95 -18.96,12.76 -29.43,17.28 -10.4,4.34 -21.14,8.08 -32.02,11.09 -10.88,3.16 -22.07,5.71 -33.27,7.54 -11.37,1.99 -22.96,2.99 -34.53,2.99 0,0 -0.05,0 -0.05,0l0.11 -22.11z"/>
   <path class="fil0" d="M1544.66 2881.71c0,-104.74 630.21,-89 630.21,0 0,174 -141.11,315.1 -315.11,315.1 -174,0 -315.1,-141.11 -315.1,-315.11l-0 0z"/>
   <path class="fil11" d="M1832.06 2998.86c-93.93,-5.54 -175.84,37.41 -203.11,100.97 59.46,62.86 142.29,98.49 228.84,98.49 45.62,0 90.75,-9.93 132.14,-29.04 12.4,-5.69 24.54,-12.36 36.08,-19.67 -5.1,-78.21 -88.33,-144.21 -193.96,-150.75z"/>
   <path class="fil3 str5" d="M1544.66 2881.71c0,-104.74 630.21,-89 630.21,0 0,174 -141.11,315.1 -315.11,315.1 -174,0 -315.1,-141.11 -315.1,-315.11l-0 0z"/>
   <path class="fil0" d="M1738.51 2940.45c2.49,-0.61 3.49,-0.89 5.1,-1.16l4.16 -0.77c2.71,-0.5 5.54,-0.77 8.09,-1 4.01,-0.42 8.09,-0.62 12.13,-0.62 1.28,0 2.62,0.03 3.89,0.06 10.81,0.22 21.62,1.75 32.09,4.49 21.94,5.56 41.86,17.31 57.35,33.82 14.56,15.67 24.35,35.23 28.15,56.3 0.98,5.53 1.49,11.17 1.49,16.79 0,14.01 -3.09,27.89 -9.02,40.57 -11.47,-16.24 -20.28,-30.81 -29.48,-43 -4.12,-5.84 -8.7,-11.43 -13.58,-16.64 -4.46,-4.57 -9.49,-8.6 -14.95,-11.96 -10.34,-6.19 -21.9,-10.15 -33.87,-11.58 -6.27,-0.8 -12.64,-1.26 -18.94,-1.32 -3.27,0 -6.54,0 -9.75,0.28l-4.71 0.33 -2.16 0c-0.56,0 -1.66,0 -1.28,0l-14.69 -64.57z"/>
   <rect class="fil5" x="697.26" y="1729.9" width="2434.18" height="355.51"/>
   <path class="fil1" d="M3023.54 3135.52c-17.4,21.5 -35.34,42.5 -53.81,63.01 -13.86,15.35 14.3,-6.21 53.81,-63.01zm83.13 -1754.25c-169.02,-301.53 -462.74,-509.12 -802.34,-604.67l-35.19 -9.48c-125.8,-34.8 -258.36,-38.79 -395.24,-38.79 -147.91,0 -290.72,15.19 -425.44,55.42l-23.61 7.04c-179.15,60.79 -346.17,153.88 -492.32,273.98 -16.19,13.23 -32.04,26.76 -47.56,40.57 -157.05,131.29 -278.97,297.54 -362.82,487.12 -8.13,18.18 -15.81,36.52 -23.05,55.03 -21.61,55.09 -39.13,111.97 -52.2,169.57 -177.62,701.54 98.86,1131.92 344.25,1395.71 24.22,26.05 -321.04,-564.43 -96.54,-1197.03 42.84,-1.61 112.17,-2.83 200.56,-3.71l85.9 -280.47 96.65 279.2c151.85,-0.72 331.84,-0.83 520.26,-0.67l68.28 -290.17 77.14 290.28c412.14,0.77 839.25,2.88 1082.2,4.27l73.15 -289.11 83.13 290 45.5 0.28c277.59,589.76 98.7,972.86 -3.82,1119.89 212.36,-261.98 328.63,-589.59 328.63,-927.09 0,-0.54 0,-1.44 0,-1.98 0,-478.99 -245.5,-825.19 -245.5,-825.19z"/>
   <path class="fil3 str1" d="M3023.54 3135.52c-17.4,21.5 -35.34,42.5 -53.81,63.01 -13.86,15.35 14.3,-6.21 53.81,-63.01zm83.13 -1754.25c-169.02,-301.53 -462.74,-509.12 -802.34,-604.67l-35.19 -9.48c-125.8,-34.8 -258.36,-38.79 -395.24,-38.79 -147.91,0 -290.72,15.19 -425.44,55.42l-23.61 7.04c-179.15,60.79 -346.17,153.88 -492.32,273.98 -16.19,13.23 -32.04,26.76 -47.56,40.57 -157.05,131.29 -278.97,297.54 -362.82,487.12 -8.13,18.18 -15.81,36.52 -23.05,55.03 -21.61,55.09 -39.13,111.97 -52.2,169.57 -177.62,701.54 98.86,1131.92 344.25,1395.71 24.22,26.05 -321.04,-564.43 -96.54,-1197.03 42.84,-1.61 112.17,-2.83 200.56,-3.71l85.9 -280.47 96.65 279.2c151.85,-0.72 331.84,-0.83 520.26,-0.67l68.28 -290.17 77.14 290.28c412.14,0.77 839.25,2.88 1082.2,4.27l73.15 -289.11 83.13 290 45.5 0.28c277.59,589.76 98.7,972.86 -3.82,1119.89 212.36,-261.98 328.63,-589.59 328.63,-927.09 0,-0.54 0,-1.44 0,-1.98 0,-478.99 -245.5,-825.19 -245.5,-825.19z"/>
   <path class="fil1" d="M2326.11 699.02l-35.86 -9.64c-139.71,-38.79 -282.24,-41.84 -416.35,-41.84 -169.52,0 -316.27,19.34 -448.39,58.97l-23.61 7.04 -2.71 0.83c-188.26,64.21 -363.97,162.01 -517.76,288.21 -16.63,13.63 -33.25,27.71 -48.99,41.84 -164.2,137.55 -293.33,310.95 -383.71,515.39 -8.65,19.34 -16.63,39.07 -24.5,58.58 -23.17,59.24 -117.99,331.23 -131.62,391.53l401.95 5.54c42.84,-1.61 112.17,-2.83 200.56,-3.71l85.9 -280.47 96.65 279.2c151.85,-0.72 331.84,-0.83 520.26,-0.67l68.28 -290.17 77.19 290.58c412.14,0.77 839.25,2.88 1082.2,4.27l73.15 -289.11 83.13 290 45.5 0.28 405.16 190.75c0,-477.65 -228.88,-825.73 -257.58,-867.85 -173.57,-307.01 -474.88,-534.23 -848.84,-639.52zm920.82 1769.22c-17.57,-143.64 -61.9,-306.24 -146.91,-486.79l-21.56 -45.83 -35.97 0 -148.41 -518.88 -131.01 517.05c-224.05,-1.22 -593.3,-2.99 -957.95,-3.82l-143.81 -540.71 -127.13 540.33c-151.85,0 -285.68,0 -399.51,0.5l-158.28 -457.81 -140.87 459.97c-63.45,0.83 -111.72,1.89 -144.09,3.1l-54.48 2.11 -18.23 51.32c-79.47,224.39 -100.53,467.01 -62.62,721.93 -88.12,-221.67 -124.47,-506.46 -31.31,-873.55l0.5 -2.11c12.16,-53.59 28.74,-106.83 48.81,-158.06 6.65,-17.12 13.91,-34.47 21.67,-51.82 80.58,-182.1 195.29,-336.22 340.88,-457.92l1.83 -1.61c14.68,-13.02 29.87,-25.99 45.11,-38.52 138.22,-113.62 296.11,-201.8 465.52,-259.8l22.45 -6.65c117.04,-35.14 248.66,-52.26 402.34,-52.26 123.14,0 253.43,2.83 373.79,36.13l35.36 9.48c333.84,94.21 601.45,295.21 753.68,566.54l2.05 3.66 2.44 3.49c2.33,3.27 230.59,330.46 230.59,778.62 -0.05,87.88 -8.58,175.71 -24.95,261.84l0.07 0.07z"/>
   <path class="fil3 str1" d="M3023.54 3135.52c-17.4,21.5 -35.34,42.5 -53.81,63.01 -13.86,15.35 14.3,-6.21 53.81,-63.01zm-2232.4 77.25c24.22,26.05 -321.04,-564.43 -96.54,-1197.03 42.84,-1.61 112.17,-2.83 200.56,-3.71l85.9 -280.47 96.65 279.2c151.85,-0.72 331.84,-0.83 520.26,-0.67l68.28 -290.17 77.14 290.28c412.14,0.77 839.25,2.88 1082.2,4.27l73.15 -289.11 83.13 290 45.5 0.28c277.59,589.76 98.7,972.86 -3.82,1119.89"/>
   <path class="fil0" d="M665.4 2000.51c1,-4.16 1.83,-7.32 2.94,-10.75 1.11,-3.44 2.22,-6.65 3.44,-9.87 2.55,-6.48 5.54,-12.8 8.37,-18.95 6.17,-12.37 13.35,-24.28 21.36,-35.56 7.88,-11.47 16.97,-22.2 27.02,-31.87 10.96,-10.38 24.28,-18.01 38.8,-22.17 -0,0.67 0.02,1.41 0.02,2.1 0,13.63 -1.61,27.22 -4.82,40.46 -1.55,6.32 -3.27,12.47 -5.15,18.4l-5.54 18.01c-3.7,11.94 -7.4,23.75 -11.09,35.42 -1.83,5.88 -3.77,11.58 -5.54,17.34 -0.94,2.83 -2.05,5.54 -3.1,8.48 -1.05,2.94 -2.16,5.54 -3.1,7.76l-63.56 -18.79z"/>
   <path class="fil0" d="M3027.31 1982.39c5.13,-0.4 10.27,-0.61 15.4,-0.61 6.37,0 12.81,0.33 19.13,0.95 11.53,1 23.2,2.6 34.58,4.78 5.54,1.11 11.53,2.22 17.29,3.55 5.8,1.2 11.6,2.82 17.23,4.75 12.69,4.28 24.46,11.04 34.58,19.84 -10.12,8.78 -21.89,15.56 -34.58,19.89 -5.63,1.93 -11.42,3.51 -17.24,4.71 -5.54,1.38 -11.53,2.49 -17.29,3.6 -11.52,2.14 -23.05,3.73 -34.58,4.77 -6.24,0.58 -12.54,0.92 -18.81,0.92 -5.23,0 -10.51,-0.24 -15.72,-0.64l0.01 -66.5z"/>
   <path class="fil6" d="M1554.08 1940.77c1.31,-26.38 4.14,-52.84 8.24,-78.94 3.99,-26.05 8.87,-51.93 14.46,-77.59 5.6,-25.66 11.92,-51.26 19.06,-76.64 7.07,-25.49 15.82,-50.87 25.65,-75.35 -1.25,26.37 -4.19,52.85 -8.38,78.97 -3.97,26.05 -8.78,51.92 -14.44,77.59 -5.65,25.68 -12.01,51.22 -19.06,76.64 -7.14,25.45 -15.85,50.76 -25.58,75.32l0.04 -0.01z"/>
   <path class="fil6" d="M2790.79 1940.77c1.31,-26.38 4.14,-52.84 8.24,-78.94 4.04,-26.07 8.86,-51.94 14.48,-77.61 5.62,-25.68 11.88,-51.21 18.79,-76.59 7.1,-25.5 15.59,-50.7 25.34,-75.28 -1.24,26.45 -4.18,52.83 -8.29,78.95 -4.05,26.07 -8.87,51.95 -14.44,77.63 -5.54,25.71 -11.97,51.26 -19.12,76.64 -6.94,25.34 -15.41,50.73 -24.96,75.2l-0.04 -0z"/>
   <g>
    <path class="fil1" d="M405.32 2030.49c11.09,-72.72 32.57,-143.74 63.34,-210.59l-63.34 210.59zm0 0l0 0 0 0z"/>
   </g>
   <path class="fil0" d="M372.35 2026.33c0.5,-5.54 1,-10.25 1.77,-15.13 0.78,-4.88 1.61,-9.53 2.55,-14.3 1.94,-9.42 4.16,-18.73 6.82,-27.71 5.21,-18.39 11.69,-36.5 19.23,-54.02 7.31,-17.67 16.07,-34.84 26.04,-51.11 10.45,-16.91 23.99,-31.8 39.84,-43.82 0.3,5.31 0.48,10.74 0.48,16.1 0,13.93 -1.09,27.93 -3.14,41.69 -1.38,9.03 -2.83,18.01 -4.6,26.82 -1.77,8.81 -3.22,17.68 -4.6,26.49l-9.03 52.59 -4.6 25.94c-0.67,4.32 -1.55,8.65 -2.33,12.86 -0.77,4.21 -1.66,8.7 -2.44,12.14l-65.99 -8.53z"/>
   <g>
    <path class="fil1" d="M3352.34 2184.22c0,0 -2.55,-115.16 -46.39,-263.96l46.39 263.96zm0 0l0 0 0 0z"/>
   </g>
   <path class="fil0" d="M3319.09 2184.88l-1.33 -15.3c-0.44,-5.54 -0.89,-10.69 -1.22,-16.01l-2.49 -32.36 -5.04 -65.39c-1.66,-21.89 -3.94,-43.84 -5.54,-66.11 -0.44,-11.08 -0.89,-22.5 -0.56,-34.03 0.08,-11.86 1.08,-23.74 2.79,-35.45 15.07,18.15 27.4,38.55 36.46,60.35 4.47,10.51 8.55,21.44 12,32.37 3.71,11.08 6.87,22.17 10.03,33.25 6.22,22.05 11.29,44.68 14.93,67.4 1.83,11.36 3.49,22.83 4.49,34.42 0.59,5.78 1.03,11.61 1.33,17.49 0.33,5.93 0.44,11.47 0.39,18.18l-66.23 1.22z"/>
   <path class="fil6" d="M1896.9 740.58c-78.77,4.6 -157.55,13.85 -235.32,27.35 -19.29,3.77 -38.79,7.87 -57.86,11.42 -19.06,3.55 -38.24,8.92 -57.36,13.35l-56.86 15.07c-18.84,5.54 -37.52,11.53 -56.25,17.29 -74.76,23.93 -148.04,53.33 -218.56,87.2 -71.07,34.41 -140.33,73.51 -206.52,116.38 58.92,-53.89 124.57,-100.92 194.43,-139.39 69.96,-39.13 144.12,-71.47 220.36,-96.09 19.29,-5.54 38.46,-11.58 57.75,-16.9 19.29,-5.32 38.79,-10.09 58.47,-14.41 19.67,-4.32 39.35,-7.76 59.02,-11.08 19.67,-3.33 39.68,-5.93 59.52,-8.42 42.11,-5.14 85.04,-7.71 127.59,-7.71 37.15,0 74.68,2.06 111.58,5.91l0.01 0.02z"/>
   <path class="fil0" d="M1345.99 2066.95l-668.56 0c-30.81,0 -61.63,-0.44 -92.44,0l-1.33 0c-28.98,0 -56.75,25.49 -55.42,55.42 0.5,30.39 25.03,54.92 55.42,55.42l668.56 0c30.76,0 61.63,0.44 92.44,0l1.33 0c28.98,0 56.75,-25.49 55.42,-55.42 -0.53,-30.39 -25.03,-54.89 -55.41,-55.42l-0.01 0z"/>
   <path class="fil0" d="M3113.99 2066.95l-668.56 0c-30.81,0 -61.63,-0.44 -92.44,0l-1.33 0c-28.98,0 -56.75,25.49 -55.42,55.42 0.5,30.39 25.02,54.92 55.42,55.42l668.57 0c30.81,0 61.63,0.44 92.44,0l1.33 0c28.98,0 56.75,-25.49 55.42,-55.42 -0.53,-30.39 -25.03,-54.89 -55.41,-55.42l-0 0z"/>
   <g>
    <circle class="fil12" cx="1786.05" cy="336.41" r="294.7"/>
    <path class="fil13" d="M1786.05 631.11c0.02,0 0.1,0 0.13,0 162.7,0 294.64,-131.94 294.64,-294.64 0,-20.5 -2.16,-41.04 -6.4,-61.08 -191.04,-29.61 -389.17,-12.41 -582.01,37.24 -0.62,7.82 -1.06,15.7 -1.06,23.71 0.01,-0 0.01,0.07 0.01,0.07 0,162.73 131.97,294.7 294.7,294.7 0,0 0,0 0,0l-0 0z"/>
    <circle class="fil3 str6" cx="1786.05" cy="336.41" r="294.7"/>
    <path class="fil12" d="M227.03 1987.36c0,-0.2 0,-0.77 0,-0.97 0,-119.65 13.7,-239.29 40.53,-355.85 5.38,-23.01 11.22,-45.8 17.51,-68.35 18,-200.48 124.14,-365.83 266.02,-513.49 29.54,-23.65 35.44,-76.78 64.99,-106.32 100.43,-88.57 189,-177.2 301.22,-248.27 460.67,-295.32 1069,-454.77 1559.21,-183.1 100.36,53.13 212.58,82.68 295.26,153.56 159.52,135.81 271.67,295.32 431.19,425.23 141.7,117.93 165.35,307.11 215.62,472.15 6.33,22.51 12.14,45.27 17.44,68.28 26.89,116.63 40.59,236.28 40.59,355.92 0,0.19 0,0.77 0,0.96l-3249.57 0.25z"/>
    <path class="fil13" d="M267.62 1630.47c-26.89,116.63 -40.59,236.28 -40.59,355.92 0,0.19 0,0.77 0,0.96l515.16 0c-9.68,-500.64 -138.16,-918.73 513.55,-1428.37 -467.5,177.45 -893.47,567.18 -988.12,1071.48z"/>
    <path class="fil13" d="M338.25 1354.2c-28.6,66.02 -46.67,136.33 -53.22,207.96 -6.27,22.53 -12.08,45.3 -17.41,68.31 -26.89,116.63 -40.59,236.28 -40.59,355.92 0,0.19 0,0.77 0,0.96l1241.67 0c130.83,-10.28 264.34,-15.29 395.96,-15.29 131.63,0 265.13,5.01 396.14,15.04l1215.8 0.25c-0,-0.2 -0,-0.77 -0,-0.97 0,-119.65 -13.7,-239.29 -40.53,-355.85 -5.38,-23.01 -11.22,-45.8 -17.51,-68.35 -21.48,-70.57 -38.17,-145.49 -61.2,-217.24 -1004.82,-371.79 -2020.94,-363.9 -3019.12,9.25z"/>
    <path class="fil3 str0" d="M227.03 1987.36c0,-0.2 0,-0.77 0,-0.97 0,-119.65 13.7,-239.29 40.53,-355.85 5.38,-23.01 11.22,-45.8 17.51,-68.35 18,-200.48 124.14,-365.83 266.02,-513.49 29.54,-23.65 35.44,-76.78 64.99,-106.32 100.43,-88.57 189,-177.2 301.22,-248.27 460.67,-295.32 1069,-454.77 1559.21,-183.1 100.36,53.13 212.58,82.68 295.26,153.56 159.52,135.81 271.67,295.32 431.19,425.23 141.7,117.93 165.35,307.11 215.62,472.15 6.33,22.51 12.14,45.27 17.44,68.28 26.89,116.63 40.59,236.28 40.59,355.92 0,0.19 0,0.77 0,0.96l-3249.57 0.25z"/>
    <path class="fil12" d="M134.48 1573.36c1138.45,-484.13 2303.59,-490.71 3450.61,0 108.8,46.55 108.18,868.15 0,830.53 -1120.14,-389.97 -2304.77,-394.13 -3450.61,0 -136.3,46.86 -123.02,-778.21 0,-830.53z"/>
    <path class="fil0" d="M3399.14 2115.09c5.13,20.07 7.97,40.74 8.37,61.45 0.56,20.3 -0.68,40.47 -1.61,60.7l-2.23 30.23c-0.99,10.06 -1.99,20.11 -3.23,30.1 -2.48,20.05 -5.52,39.97 -9.87,59.65l-48.85 -8.75c2.73,-19.68 6.21,-39.17 10.18,-58.66l6.21 -29.23 6.21 -29.17c4.59,-19.43 8.5,-38.92 13.78,-58.34 5.21,-19.93 12.32,-39.38 21.07,-57.98l-0.01 0.01z"/>
    <path class="fil0" d="M3390.33 1486.72c9.51,38.74 17.21,78.33 22.53,117.92 2.67,19.8 4.84,39.66 6.77,59.52 1.92,19.86 3.04,39.85 4.1,59.77 1.61,39.85 2.3,79.69 0.37,119.48 -1.68,39.74 -6.88,79.69 -15.19,118.59 -6.21,-39.66 -10.37,-78.83 -14.4,-117.93 -4.03,-39.1 -7.51,-77.9 -12.72,-116.56 -2.42,-19.37 -5.15,-38.61 -8.07,-57.85 -2.92,-19.24 -6.21,-38.42 -9.43,-57.54 -6.64,-38.3 -14.28,-76.28 -22.28,-114.27l48.34 -11.15z"/>
    <path class="fil3 str7" d="M2886.77 1359.66c46.92,266.09 41.65,555.45 0,861.07"/>
    <path class="fil3 str7" d="M2448.63 1270.35c31.96,266.27 28.36,555.82 0,861.69"/>
    <path class="fil0" d="M2049.28 1573.61c7.49,42.44 12.47,85.38 14.69,128.31 2.48,42.83 3.23,85.65 4.03,128.54l0 64.3c0,21.41 0,42.83 -0.75,64.24 -0.93,42.83 -2.48,85.65 -5.4,128.42l-49.66 -2.48c1.37,-42.64 3.54,-85.22 5.84,-127.8l7.51 -127.67c2.85,-42.58 5.09,-85.22 8.38,-127.86 3.29,-42.64 8.15,-85.24 15.35,-128z"/>
    <path class="fil0" d="M2062.2 1222.37c1.13,11.78 1.76,23.8 1.76,35.69 0,1.2 0,2.53 0,3.73 0,6.58 -0.31,13.16 -0.5,19.74l-0.83 19.8c-1.06,13.16 -1.99,26.38 -4.22,39.6 -2.25,13.84 -6.64,27.26 -12.9,39.78 -7.44,-11.95 -13.1,-24.95 -16.77,-38.54 -3.54,-12.91 -5.77,-25.82 -8.13,-38.79l-3.04 -19.37c-0.81,-6.52 -1.74,-12.97 -2.42,-19.43 -1.42,-12.73 -2.17,-25.61 -2.17,-38.45 0,-0.17 0,-0.42 0,-0.58l49.22 -3.17z"/>
    <path class="fil3 str7" d="M1639.08 1220.94c2.17,266.89 1.92,556.56 0,862.75"/>
    <path class="fil3 str7" d="M1239.48 1261.47c-12.79,266.89 -11.36,556.94 0,863.43"/>
    <path class="fil0" d="M804.94 1791.97c7.31,34.25 13.18,69.33 16.85,104.16 3.91,34.7 6.77,69.33 10.24,103.96l9.37 103.84c2.92,34.57 5.77,69.21 7.76,103.9l-49.66 3.97c-3.6,-34.82 -5.77,-69.76 -7.32,-104.71 -0.81,-17.5 -1.24,-35.01 -1.74,-52.51l-0.62 -52.51c0,-35.01 0.31,-70.07 2.17,-105.08 1.64,-35.2 6.18,-70.47 12.95,-105.02l-0 -0.01z"/>
    <path class="fil0" d="M849.07 1348.37c-1.55,22.65 -3.97,45.19 -6.52,67.72l-4.1 33.83 -4.47 33.83c-3.35,22.59 -5.9,45.19 -9.93,67.84 -3.86,23 -9.73,45.77 -17.39,67.78 -6.43,-22.54 -10.6,-45.76 -12.38,-69.14 -1.86,-23.09 -1.99,-46.05 -2.36,-69.14l0 -34.51c0.37,-11.55 0.68,-23.03 1.24,-34.51 1.24,-23.03 3.04,-45.99 6.21,-68.83l49.69 5.15z"/>
    <path class="fil3 str7" d="M379.72 1474.18c-42.58,266.89 -37.8,557.68 0,864.61"/>
    <path class="fil0" d="M3409.94 2058.43c12.85,0 23.27,-10.42 23.27,-23.27 0,-12.85 -10.42,-23.28 -23.28,-23.28 -12.85,0 -23.27,10.42 -23.27,23.28 0.17,12.78 10.49,23.11 23.27,23.27l0 0z"/>
    <path class="fil3 str8" d="M3442.28 1479.95c62.07,265.9 54.93,555.07 0,860.51"/>
    <path class="fil3 str8" d="M2962.62 1347.25c46.92,266.09 41.65,555.45 0,861.13"/>
    <path class="fil3 str8" d="M2524.29 1256.94c31.96,266.27 28.36,555.82 0,861.69"/>
    <path class="fil3 str8" d="M2112.66 1209.58c17.01,266.4 15.15,556.19 0,862.25"/>
    <path class="fil3 str8" d="M1713.81 1205.49c2.11,266.58 1.92,556.56 0,862.75"/>
    <path class="fil3 str8" d="M1313.72 1245.02c-12.79,266.89 -11.36,556.94 0,863.43"/>
    <path class="fil3 str8" d="M898.29 1328.63c-27.68,266.89 -24.83,557.31 0,864.05"/>
    <path class="fil3 str8" d="M453.45 1456.74c-42.58,266.89 -37.8,557.68 0,864.61"/>
    <path class="fil3 str0" d="M134.48 1573.36c1138.45,-484.13 2303.59,-490.71 3450.61,0 108.8,46.55 108.18,868.15 0,830.53 -1120.14,-389.97 -2304.77,-394.13 -3450.61,0 -136.3,46.86 -123.02,-778.21 0,-830.53z"/>
    <path class="fil0" d="M1384.6 1122.07c79.03,-16.43 159.51,-28.64 239.73,-35.62 20.17,-1.74 40.28,-3.47 60.45,-4.84l60.52 -3.47c20.23,-0.87 40.41,-1.24 60.64,-1.86l60.64 -0.81c80.69,0 161.69,3.91 242.07,11.42 80.15,7.15 160.78,19.44 239.44,36.16 -80.69,-1.8 -161.38,-4.9 -241.32,-7.01 -79.94,-2.11 -160.38,-3.04 -240.51,-3.23l-60.03 -0.04c-20.05,0 -40.1,0.75 -60.14,0.68l-60.08 0.87c-20.05,0.68 -40.1,0.99 -60.21,1.24 -80.07,2.05 -160.38,4.9 -241.2,6.52z"/>
    <path class="fil6" d="M891.47 812.41c43.74,-34.88 90.52,-67.04 138.96,-95.15 48.29,-28.68 98.13,-54.87 148.96,-78.58 12.41,-6.21 25.64,-11.55 38.48,-17.25 12.85,-5.71 25.64,-11.55 38.73,-16.57 26.19,-10.24 52.14,-20.98 78.83,-29.79 52.7,-18.81 107.13,-34.6 161.72,-46.6 -12.85,5.65 -25.82,11.05 -38.79,16.32 -12.97,5.28 -26.01,10.18 -38.79,15.89 -25.76,10.8 -51.58,21.23 -77.15,32.4l-19.18 8.25c-6.21,2.67 -12.91,5.28 -19.24,8.19l-38.17 16.94c-12.79,5.46 -25.39,11.36 -38.11,17.07 -12.72,5.71 -25.39,11.42 -37.86,17.56l-37.86 17.56c-12.41,6.21 -24.83,12.41 -37.55,18.62 -24.83,12.04 -49.66,24.83 -74.79,37.24 -49.62,25.01 -99.02,50.89 -148.18,77.89z"/>
   </g>
  </g>
  <g id="_2325157828336">
   <g>
    <g>
     <path class="fil14 str9" d="M2212.32 2382.76c-61.2,-22.98 -121.48,30.5 -109.39,142.21 13.93,128.73 51.17,469.64 81.89,623.94 25.75,129.33 73.41,279.69 471.44,236.62 426.46,-46.14 435.26,-363.5 522.46,-487.98 55.34,-79 88.4,-149.79 82.19,-199.53 -2.77,-30.12 -37.05,-56.56 -71.04,-69.2 -63.33,-20.31 -137.68,63.13 -144.87,96.23 -9.6,44.19 -14.58,131.01 -102.96,111.81 -11.05,-2.4 -20.75,-11.03 -29.29,-24.5 0.64,0.04 1.28,0.08 1.92,0.11 -29.53,-42.73 -45.6,-142.14 -55.53,-245.33 -8.94,-94.28 -9.84,-188.66 -20.05,-283.06 -12.4,-114.58 -138.9,-158.62 -183.78,-36.19 -2.2,-0.92 -4.67,-1.32 -7.21,-1.04 -0.47,0.05 -0.94,0.13 -1.4,0.22 -3.15,-14.75 -6.91,-28.02 -11.18,-39.9 -32.07,-94.22 -95.12,-85.97 -94.35,-84.95 0.01,0.02 0.03,0.04 0.05,0.06 -50.37,2.38 -97.47,57.33 -94.79,125.35 -32.07,-61.63 -87.62,-59.39 -83.97,-54.78 -66.19,-2.68 -137.29,67.98 -91.21,224.21 -0.08,0 -0.15,0.01 -0.23,0.02 -3.23,0.35 -6.1,1.73 -8.32,3.76 -0.02,-0.03 -0.04,-0.05 -0.06,-0.08 -11.75,-19.69 -28.05,-34.74 -50.33,-38.02z"/>
     <path class="fil14 str9" d="M3260.89 2697.86c-0.26,-1.99 -0.58,-3.94 -0.96,-5.85 -5.79,-24.93 -32.43,-46.76 -60.9,-59.43l-1.64 -0.47m-284.63 180.28c-27.9,-44.03 -43.38,-139.85 -53.07,-239.61l-0.3 -3.06 -0.25 -2.55 -0.15 -1.6m-19.67 -279.18c-6.42,-56.83 -43.66,-99.42 -84.4,-109.04m-99.6 70.58c-1.91,5.19 -3.69,10.69 -5.33,16.52 -1.01,-6 -2.11,-11.78 -3.3,-17.35m-11.12 -39.72c-22.54,-62.82 -59.25,-86.71 -94.36,-85.04m-94.78 125.36c0.31,7.87 1.28,15.91 3,24.07 -10.56,-50.19 -47.94,-77.3 -87.01,-78.87m-91.17 224.2c2.94,9.99 6.36,20.34 10.3,31.04 -5.94,-10.24 -12.27,-19.31 -18.86,-27.26m-0.06 -0.07c-15.79,-19.02 -33.11,-31.56 -50.35,-38.03"/>
     <path class="fil15" d="M2656.26 3385.54c426.46,-46.14 435.26,-363.5 522.47,-487.98 87.2,-124.49 119.08,-228.61 29.17,-262.03 -89.9,-33.42 -153.29,45.35 -162.89,89.53 -9.6,44.18 -14.59,131.01 -102.96,111.81 -88.37,-19.2 -90.33,-436.06 -102.63,-549.78 -12.31,-113.72 -147.93,-170.96 -189.41,-22.65 -40.37,-240.13 -230.15,-133.3 -200.56,7.32 -29.59,-140.62 -269.72,-100.25 -167.88,176.37 -70.7,-121.79 -195.56,-79.51 -178.64,76.85 13.93,128.73 51.17,469.64 81.89,623.94 25.75,129.33 73.41,279.69 471.44,236.62z"/>
     <path class="fil16" d="M2319.88 2764.29c-48.92,-143.53 -68.18,-655.7 3.28,5.14 17.15,-5.4 34.2,-11.59 52.21,-17.69 31.99,-10.83 79.52,-24.3 114.36,-29.4 -9.77,-68.8 -46.38,-466.37 -91.74,-520.48 44.73,25 43.28,40.53 57.15,84.25 7.77,-0.5 58.53,395.18 64.61,432.66 50.87,-4.78 112.43,-10.31 157.47,-7.53 -11.29,-81.36 -29.72,-502.07 -75.49,-562.5 49.49,64.42 48.03,97.83 49.67,112.97l50.51 452.74c-55.36,-12.25 -231.11,4.09 -291.77,24.59 -26.84,9.21 -69.72,28.09 -90.26,25.25zm594.79 48.2c-5.82,-0.3 -11.93,-0.95 -18.67,-2.42 -88.36,-19.2 -90.33,-436.06 -102.63,-549.79 -3.92,-36.21 -20.36,-66.64 -42.26,-86.58 42.25,7.97 81.62,51.59 87.98,110.4 10.9,100.7 13.73,438.88 75.58,528.39zm-304.46 546.24c426.46,-46.14 435.27,-363.5 522.47,-487.98 74.19,-105.92 108.03,-196.91 61.19,-242.34 4.51,1.15 9.05,2.4 13.71,4.13 89.91,33.42 58.02,137.54 -29.18,262.03 -87.2,124.48 -96,441.84 -522.46,487.98 -151.18,16.36 -293.33,-3.09 -364.61,-46.84 68.17,29.92 197.25,36.18 318.89,23.02z"/>
     <polygon class="fil17" points="2843.79,3388.3 2496.22,3427.65 2592.88,4360.67 2940.46,4321.32 "/>
     <polygon class="fil18" points="2799.49,3392.18 2551.37,3423.75 2637.19,4356.79 2885.31,4325.22 "/>
    </g>
    <rect class="fil18" transform="matrix(-0.892495 -0.457679 -0.457679 0.892495 2540.87 2892.41)" width="130.64" height="108.12"/>
    <rect class="fil18" transform="matrix(-1.30243 0.265696 0.445299 1.07798 2352.09 2905.01)" width="130.64" height="108.12"/>
   </g>
   <g>
    <g>
     <path class="fil14 str9" d="M1489.39 2382.76c61.2,-22.98 121.48,30.5 109.39,142.21 -13.93,128.73 -51.17,469.64 -81.89,623.94 -25.75,129.33 -73.41,279.69 -471.44,236.62 -426.46,-46.14 -435.26,-363.5 -522.46,-487.98 -55.34,-79 -88.4,-149.79 -82.19,-199.53 2.77,-30.12 37.05,-56.56 71.04,-69.2 63.33,-20.31 137.68,63.13 144.87,96.23 9.6,44.19 14.58,131.01 102.96,111.81 11.05,-2.4 20.75,-11.03 29.29,-24.5 -0.64,0.04 -1.28,0.08 -1.92,0.11 29.53,-42.73 45.6,-142.14 55.53,-245.33 8.94,-94.28 9.84,-188.66 20.05,-283.06 12.4,-114.58 138.9,-158.62 183.78,-36.19 2.2,-0.92 4.67,-1.32 7.21,-1.04 0.47,0.05 0.94,0.13 1.4,0.22 3.15,-14.75 6.91,-28.02 11.18,-39.9 32.07,-94.22 95.12,-85.97 94.35,-84.95 -0.01,0.02 -0.03,0.04 -0.05,0.06 50.37,2.38 97.47,57.33 94.79,125.35 32.07,-61.63 87.62,-59.39 83.97,-54.78 66.19,-2.68 137.29,67.98 91.21,224.21 0.08,0 0.15,0.01 0.23,0.02 3.23,0.35 6.1,1.73 8.32,3.76 0.02,-0.03 0.04,-0.05 0.06,-0.08 11.75,-19.69 28.05,-34.74 50.33,-38.02z"/>
     <path class="fil14 str9" d="M440.82 2697.86c0.26,-1.99 0.58,-3.94 0.96,-5.85 5.79,-24.93 32.43,-46.76 60.9,-59.43l1.64 -0.47m284.63 180.28c27.9,-44.03 43.38,-139.85 53.07,-239.61l0.3 -3.06 0.25 -2.55 0.15 -1.6m19.67 -279.18c6.42,-56.83 43.66,-99.42 84.4,-109.04m99.6 70.58c1.91,5.19 3.69,10.69 5.33,16.52 1.01,-6 2.11,-11.78 3.3,-17.35m11.12 -39.72c22.54,-62.82 59.25,-86.71 94.36,-85.04m94.78 125.36c-0.31,7.87 -1.28,15.91 -3,24.07 10.56,-50.19 47.94,-77.3 87.01,-78.87m91.17 224.2c-2.94,9.99 -6.36,20.34 -10.3,31.04 5.94,-10.24 12.27,-19.31 18.86,-27.26m0.06 -0.07c15.79,-19.02 33.11,-31.56 50.35,-38.03"/>
     <path class="fil15" d="M1045.45 3385.54c-426.46,-46.14 -435.26,-363.5 -522.47,-487.98 -87.2,-124.49 -119.08,-228.61 -29.17,-262.03 89.9,-33.42 153.29,45.35 162.89,89.53 9.6,44.18 14.59,131.01 102.96,111.81 88.37,-19.2 90.33,-436.06 102.63,-549.78 12.31,-113.72 147.93,-170.96 189.41,-22.65 40.37,-240.13 230.15,-133.3 200.56,7.32 29.59,-140.62 269.72,-100.25 167.88,176.37 70.7,-121.79 195.56,-79.51 178.64,76.85 -13.93,128.73 -51.17,469.64 -81.89,623.94 -25.75,129.33 -73.41,279.69 -471.44,236.62z"/>
     <path class="fil16" d="M1381.83 2764.29c48.92,-143.53 68.18,-655.7 -3.28,5.14 -17.15,-5.4 -34.2,-11.59 -52.21,-17.69 -31.99,-10.83 -79.52,-24.3 -114.36,-29.4 9.77,-68.8 46.38,-466.37 91.74,-520.48 -44.73,25 -43.28,40.53 -57.15,84.25 -7.77,-0.5 -58.53,395.18 -64.61,432.66 -50.87,-4.78 -112.43,-10.31 -157.47,-7.53 11.29,-81.36 29.72,-502.07 75.49,-562.5 -49.49,64.42 -48.03,97.83 -49.67,112.97l-50.51 452.74c55.36,-12.25 231.11,4.09 291.77,24.59 26.84,9.21 69.72,28.09 90.26,25.25zm-594.79 48.2c5.82,-0.3 11.93,-0.95 18.67,-2.42 88.36,-19.2 90.33,-436.06 102.63,-549.79 3.92,-36.21 20.36,-66.64 42.26,-86.58 -42.25,7.97 -81.62,51.59 -87.98,110.4 -10.9,100.7 -13.73,438.88 -75.58,528.39zm304.46 546.24c-426.46,-46.14 -435.27,-363.5 -522.47,-487.98 -74.19,-105.92 -108.03,-196.91 -61.19,-242.34 -4.51,1.15 -9.05,2.4 -13.71,4.13 -89.91,33.42 -58.02,137.54 29.18,262.03 87.2,124.48 96,441.84 522.46,487.98 151.18,16.36 293.33,-3.09 364.61,-46.84 -68.17,29.92 -197.25,36.18 -318.89,23.02z"/>
     <polygon class="fil17" points="857.92,3388.3 1205.49,3427.65 1108.83,4360.67 761.25,4321.32 "/>
     <polygon class="fil18" points="902.22,3392.18 1150.34,3423.75 1064.52,4356.79 816.4,4325.22 "/>
    </g>
    <rect class="fil18" transform="matrix(0.892495 -0.457679 0.457679 0.892495 1160.84 2892.41)" width="130.64" height="108.12"/>
    <rect class="fil18" transform="matrix(1.30243 0.265696 -0.445299 1.07798 1349.62 2905.01)" width="130.64" height="108.12"/>
   </g>
   <path class="fil19" d="M2887.42 4327.32l-34.17 -350.73c-171.73,-39.46 -245.83,56.51 -245.83,56.51l26.81 320.73c2.26,27.03 255.93,1.65 253.19,-26.51z"/>
   <path class="fil19" d="M814.29 4327.32l34.17 -350.73c171.73,-39.46 245.83,56.51 245.83,56.51l-26.81 320.73c-2.26,27.03 -255.93,1.65 -253.19,-26.51z"/>
   <path class="fil20" d="M2776.83 3967.09c28.01,3.59 76.3,6.76 76.58,9.68l34 349.64c1.95,20.09 -73.46,32.92 -110.31,33.27 -8.95,0.08 -4.14,-178.05 -0.27,-392.59z"/>
   <path class="fil21" d="M2777.04 3967.12c-3.12,-2.43 1.17,-419.53 2.52,-572.4l19.93 -2.54 53.84 584.39c-26.86,-5.11 -74.5,-8.07 -76.28,-9.45z"/>
   <path class="fil21" d="M924.67 3967.12c3.12,-2.43 -1.17,-419.53 -2.52,-572.4l-19.93 -2.54 -53.84 584.39c26.86,-5.11 74.5,-8.07 76.28,-9.45z"/>
   <path class="fil20" d="M924.88 3967.09c-28.01,3.59 -76.3,6.76 -76.58,9.68l-34 349.64c-1.95,20.09 73.46,32.92 110.31,33.27 8.95,0.08 4.14,-178.05 0.27,-392.59z"/>
  </g>
  <g id="_2325075128304">
   <g>
    <g>
     <path class="fil14 str9" d="M2212.32 2382.76c-61.2,-22.98 -121.48,30.5 -109.39,142.21 13.93,128.73 51.17,469.64 81.89,623.94 25.75,129.33 73.41,279.69 471.44,236.62 426.46,-46.14 435.26,-363.5 522.46,-487.98 55.34,-79 88.4,-149.79 82.19,-199.53 -2.77,-30.12 -37.05,-56.56 -71.04,-69.2 -63.33,-20.31 -137.68,63.13 -144.87,96.23 -9.6,44.19 -14.58,131.01 -102.96,111.81 -11.05,-2.4 -20.75,-11.03 -29.29,-24.5 0.64,0.04 1.28,0.08 1.92,0.11 -29.53,-42.73 -45.6,-142.14 -55.53,-245.33 -8.94,-94.28 -9.84,-188.66 -20.05,-283.06 -12.4,-114.58 -138.9,-158.62 -183.78,-36.19 -2.2,-0.92 -4.67,-1.32 -7.21,-1.04 -0.47,0.05 -0.94,0.13 -1.4,0.22 -3.15,-14.75 -6.91,-28.02 -11.18,-39.9 -32.07,-94.22 -95.12,-85.97 -94.35,-84.95 0.01,0.02 0.03,0.04 0.05,0.06 -50.37,2.38 -97.47,57.33 -94.79,125.35 -32.07,-61.63 -87.62,-59.39 -83.97,-54.78 -66.19,-2.68 -137.29,67.98 -91.21,224.21 -0.08,0 -0.15,0.01 -0.23,0.02 -3.23,0.35 -6.1,1.73 -8.32,3.76 -0.02,-0.03 -0.04,-0.05 -0.06,-0.08 -11.75,-19.69 -28.05,-34.74 -50.33,-38.02z"/>
     <path class="fil14 str9" d="M3260.89 2697.86c-0.26,-1.99 -0.58,-3.94 -0.96,-5.85 -5.79,-24.93 -32.43,-46.76 -60.9,-59.43l-1.64 -0.47m-284.63 180.28c-27.9,-44.03 -43.38,-139.85 -53.07,-239.61l-0.3 -3.06 -0.25 -2.55 -0.15 -1.6m-19.67 -279.18c-6.42,-56.83 -43.66,-99.42 -84.4,-109.04m-99.6 70.58c-1.91,5.19 -3.69,10.69 -5.33,16.52 -1.01,-6 -2.11,-11.78 -3.3,-17.35m-11.12 -39.72c-22.54,-62.82 -59.25,-86.71 -94.36,-85.04m-94.78 125.36c0.31,7.87 1.28,15.91 3,24.07 -10.56,-50.19 -47.94,-77.3 -87.01,-78.87m-91.17 224.2c2.94,9.99 6.36,20.34 10.3,31.04 -5.94,-10.24 -12.27,-19.31 -18.86,-27.26m-0.06 -0.07c-15.79,-19.02 -33.11,-31.56 -50.35,-38.03"/>
     <path class="fil15" d="M2656.26 3385.54c426.46,-46.14 435.26,-363.5 522.47,-487.98 87.2,-124.49 119.08,-228.61 29.17,-262.03 -89.9,-33.42 -153.29,45.35 -162.89,89.53 -9.6,44.18 -14.59,131.01 -102.96,111.81 -88.37,-19.2 -90.33,-436.06 -102.63,-549.78 -12.31,-113.72 -147.93,-170.96 -189.41,-22.65 -40.37,-240.13 -230.15,-133.3 -200.56,7.32 -29.59,-140.62 -269.72,-100.25 -167.88,176.37 -70.7,-121.79 -195.56,-79.51 -178.64,76.85 13.93,128.73 51.17,469.64 81.89,623.94 25.75,129.33 73.41,279.69 471.44,236.62z"/>
     <path class="fil16" d="M2319.88 2764.29c-48.92,-143.53 -68.18,-655.7 3.28,5.14 17.15,-5.4 34.2,-11.59 52.21,-17.69 31.99,-10.83 79.52,-24.3 114.36,-29.4 -9.77,-68.8 -46.38,-466.37 -91.74,-520.48 44.73,25 43.28,40.53 57.15,84.25 7.77,-0.5 58.53,395.18 64.61,432.66 50.87,-4.78 112.43,-10.31 157.47,-7.53 -11.29,-81.36 -29.72,-502.07 -75.49,-562.5 49.49,64.42 48.03,97.83 49.67,112.97l50.51 452.74c-55.36,-12.25 -231.11,4.09 -291.77,24.59 -26.84,9.21 -69.72,28.09 -90.26,25.25zm594.79 48.2c-5.82,-0.3 -11.93,-0.95 -18.67,-2.42 -88.36,-19.2 -90.33,-436.06 -102.63,-549.79 -3.92,-36.21 -20.36,-66.64 -42.26,-86.58 42.25,7.97 81.62,51.59 87.98,110.4 10.9,100.7 13.73,438.88 75.58,528.39zm-304.46 546.24c426.46,-46.14 435.27,-363.5 522.47,-487.98 74.19,-105.92 108.03,-196.91 61.19,-242.34 4.51,1.15 9.05,2.4 13.71,4.13 89.91,33.42 58.02,137.54 -29.18,262.03 -87.2,124.48 -96,441.84 -522.46,487.98 -151.18,16.36 -293.33,-3.09 -364.61,-46.84 68.17,29.92 197.25,36.18 318.89,23.02z"/>
     <polygon class="fil17" points="2843.79,3388.3 2496.22,3427.65 2592.88,4360.67 2940.46,4321.32 "/>
     <polygon class="fil18" points="2799.49,3392.18 2551.37,3423.75 2637.19,4356.79 2885.31,4325.22 "/>
    </g>
    <rect class="fil18" transform="matrix(-0.892495 -0.457679 -0.457679 0.892495 2540.87 2892.41)" width="130.64" height="108.12"/>
    <rect class="fil18" transform="matrix(-1.30243 0.265696 0.445299 1.07798 2352.09 2905.01)" width="130.64" height="108.12"/>
   </g>
   <g>
    <g>
     <path class="fil14 str9" d="M1489.39 2382.76c61.2,-22.98 121.48,30.5 109.39,142.21 -13.93,128.73 -51.17,469.64 -81.89,623.94 -25.75,129.33 -73.41,279.69 -471.44,236.62 -426.46,-46.14 -435.26,-363.5 -522.46,-487.98 -55.34,-79 -88.4,-149.79 -82.19,-199.53 2.77,-30.12 37.05,-56.56 71.04,-69.2 63.33,-20.31 137.68,63.13 144.87,96.23 9.6,44.19 14.58,131.01 102.96,111.81 11.05,-2.4 20.75,-11.03 29.29,-24.5 -0.64,0.04 -1.28,0.08 -1.92,0.11 29.53,-42.73 45.6,-142.14 55.53,-245.33 8.94,-94.28 9.84,-188.66 20.05,-283.06 12.4,-114.58 138.9,-158.62 183.78,-36.19 2.2,-0.92 4.67,-1.32 7.21,-1.04 0.47,0.05 0.94,0.13 1.4,0.22 3.15,-14.75 6.91,-28.02 11.18,-39.9 32.07,-94.22 95.12,-85.97 94.35,-84.95 -0.01,0.02 -0.03,0.04 -0.05,0.06 50.37,2.38 97.47,57.33 94.79,125.35 32.07,-61.63 87.62,-59.39 83.97,-54.78 66.19,-2.68 137.29,67.98 91.21,224.21 0.08,0 0.15,0.01 0.23,0.02 3.23,0.35 6.1,1.73 8.32,3.76 0.02,-0.03 0.04,-0.05 0.06,-0.08 11.75,-19.69 28.05,-34.74 50.33,-38.02z"/>
     <path class="fil14 str9" d="M440.82 2697.86c0.26,-1.99 0.58,-3.94 0.96,-5.85 5.79,-24.93 32.43,-46.76 60.9,-59.43l1.64 -0.47m284.63 180.28c27.9,-44.03 43.38,-139.85 53.07,-239.61l0.3 -3.06 0.25 -2.55 0.15 -1.6m19.67 -279.18c6.42,-56.83 43.66,-99.42 84.4,-109.04m99.6 70.58c1.91,5.19 3.69,10.69 5.33,16.52 1.01,-6 2.11,-11.78 3.3,-17.35m11.12 -39.72c22.54,-62.82 59.25,-86.71 94.36,-85.04m94.78 125.36c-0.31,7.87 -1.28,15.91 -3,24.07 10.56,-50.19 47.94,-77.3 87.01,-78.87m91.17 224.2c-2.94,9.99 -6.36,20.34 -10.3,31.04 5.94,-10.24 12.27,-19.31 18.86,-27.26m0.06 -0.07c15.79,-19.02 33.11,-31.56 50.35,-38.03"/>
     <path class="fil15" d="M1045.45 3385.54c-426.46,-46.14 -435.26,-363.5 -522.47,-487.98 -87.2,-124.49 -119.08,-228.61 -29.17,-262.03 89.9,-33.42 153.29,45.35 162.89,89.53 9.6,44.18 14.59,131.01 102.96,111.81 88.37,-19.2 90.33,-436.06 102.63,-549.78 12.31,-113.72 147.93,-170.96 189.41,-22.65 40.37,-240.13 230.15,-133.3 200.56,7.32 29.59,-140.62 269.72,-100.25 167.88,176.37 70.7,-121.79 195.56,-79.51 178.64,76.85 -13.93,128.73 -51.17,469.64 -81.89,623.94 -25.75,129.33 -73.41,279.69 -471.44,236.62z"/>
     <path class="fil16" d="M1381.83 2764.29c48.92,-143.53 68.18,-655.7 -3.28,5.14 -17.15,-5.4 -34.2,-11.59 -52.21,-17.69 -31.99,-10.83 -79.52,-24.3 -114.36,-29.4 9.77,-68.8 46.38,-466.37 91.74,-520.48 -44.73,25 -43.28,40.53 -57.15,84.25 -7.77,-0.5 -58.53,395.18 -64.61,432.66 -50.87,-4.78 -112.43,-10.31 -157.47,-7.53 11.29,-81.36 29.72,-502.07 75.49,-562.5 -49.49,64.42 -48.03,97.83 -49.67,112.97l-50.51 452.74c55.36,-12.25 231.11,4.09 291.77,24.59 26.84,9.21 69.72,28.09 90.26,25.25zm-594.79 48.2c5.82,-0.3 11.93,-0.95 18.67,-2.42 88.36,-19.2 90.33,-436.06 102.63,-549.79 3.92,-36.21 20.36,-66.64 42.26,-86.58 -42.25,7.97 -81.62,51.59 -87.98,110.4 -10.9,100.7 -13.73,438.88 -75.58,528.39zm304.46 546.24c-426.46,-46.14 -435.27,-363.5 -522.47,-487.98 -74.19,-105.92 -108.03,-196.91 -61.19,-242.34 -4.51,1.15 -9.05,2.4 -13.71,4.13 -89.91,33.42 -58.02,137.54 29.18,262.03 87.2,124.48 96,441.84 522.46,487.98 151.18,16.36 293.33,-3.09 364.61,-46.84 -68.17,29.92 -197.25,36.18 -318.89,23.02z"/>
     <polygon class="fil17" points="857.92,3388.3 1205.49,3427.65 1108.83,4360.67 761.25,4321.32 "/>
     <polygon class="fil18" points="902.22,3392.18 1150.34,3423.75 1064.52,4356.79 816.4,4325.22 "/>
    </g>
    <rect class="fil18" transform="matrix(0.892495 -0.457679 0.457679 0.892495 1160.84 2892.41)" width="130.64" height="108.12"/>
    <rect class="fil18" transform="matrix(1.30243 0.265696 -0.445299 1.07798 1349.62 2905.01)" width="130.64" height="108.12"/>
   </g>
   <path class="fil19" d="M2887.42 4327.32l-34.17 -350.73c-171.73,-39.46 -245.83,56.51 -245.83,56.51l26.81 320.73c2.26,27.03 255.93,1.65 253.19,-26.51z"/>
   <path class="fil19" d="M814.29 4327.32l34.17 -350.73c171.73,-39.46 245.83,56.51 245.83,56.51l-26.81 320.73c-2.26,27.03 -255.93,1.65 -253.19,-26.51z"/>
   <path class="fil20" d="M2776.83 3967.09c28.01,3.59 76.3,6.76 76.58,9.68l34 349.64c1.95,20.09 -73.46,32.92 -110.31,33.27 -8.95,0.08 -4.14,-178.05 -0.27,-392.59z"/>
   <path class="fil21" d="M2777.04 3967.12c-3.12,-2.43 1.17,-419.53 2.52,-572.4l19.93 -2.54 53.84 584.39c-26.86,-5.11 -74.5,-8.07 -76.28,-9.45z"/>
   <path class="fil21" d="M924.67 3967.12c3.12,-2.43 -1.17,-419.53 -2.52,-572.4l-19.93 -2.54 -53.84 584.39c26.86,-5.11 74.5,-8.07 76.28,-9.45z"/>
   <path class="fil20" d="M924.88 3967.09c-28.01,3.59 -76.3,6.76 -76.58,9.68l-34 349.64c-1.95,20.09 73.46,32.92 110.31,33.27 8.95,0.08 4.14,-178.05 0.27,-392.59z"/>
  </g>
 </g>
</svg>
