<?xml version="1.0" encoding="UTF-8"?>
<!DOCTYPE svg PUBLIC "-//W3C//DTD SVG 1.1//EN" "http://www.w3.org/Graphics/SVG/1.1/DTD/svg11.dtd">
<!-- Creator: CorelDRAW -->
<svg xmlns="http://www.w3.org/2000/svg" xml:space="preserve" width="176.827mm" height="257.74mm" version="1.1" style="shape-rendering:geometricPrecision; text-rendering:geometricPrecision; image-rendering:optimizeQuality; fill-rule:evenodd; clip-rule:evenodd"
viewBox="0 0 2504.86 3651.04"
 xmlns:xlink="http://www.w3.org/1999/xlink"
 xmlns:xodm="http://www.corel.com/coreldraw/odm/2003">
 <defs>
  <style type="text/css">
   <![CDATA[
    .str4 {stroke:#592D3D;stroke-width:22.49;stroke-miterlimit:22.9256}
    .str0 {stroke:#592D3D;stroke-width:44.98;stroke-miterlimit:22.9256}
    .str3 {stroke:white;stroke-width:89.95;stroke-miterlimit:22.9256}
    .str2 {stroke:white;stroke-width:59.97;stroke-miterlimit:22.9256}
    .str5 {stroke:#592D3D;stroke-width:56.42;stroke-miterlimit:22.9256}
    .str7 {stroke:#592D3D;stroke-width:33.58;stroke-miterlimit:22.9256}
    .str8 {stroke:#C46565;stroke-width:33.58;stroke-miterlimit:22.9256}
    .str9 {stroke:#592D3D;stroke-width:74.96;stroke-miterlimit:22.9256}
    .str6 {stroke:#592D3D;stroke-width:50.37;stroke-miterlimit:22.9256}
    .str1 {stroke:#592D3D;stroke-width:44.98;stroke-linecap:square;stroke-miterlimit:22.9256}
    .fil14 {fill:none}
    .fil2 {fill:none;fill-rule:nonzero}
    .fil17 {fill:#592D3D}
    .fil20 {fill:#E2E2E2}
    .fil21 {fill:#F3AB98}
    .fil18 {fill:#FDD2B2}
    .fil19 {fill:white}
    .fil8 {fill:black;fill-rule:nonzero}
    .fil5 {fill:#592D3D;fill-rule:nonzero}
    .fil9 {fill:#61DAFB;fill-rule:nonzero}
    .fil1 {fill:#67B7D6;fill-rule:nonzero}
    .fil0 {fill:#85C5E5;fill-rule:nonzero}
    .fil13 {fill:#C46565;fill-rule:nonzero}
    .fil12 {fill:#D67070;fill-rule:nonzero}
    .fil7 {fill:#E2E2E2;fill-rule:nonzero}
    .fil11 {fill:#F28195;fill-rule:nonzero}
    .fil4 {fill:#F3AB98;fill-rule:nonzero}
    .fil16 {fill:#F3AB98;fill-rule:nonzero}
    .fil3 {fill:#FDD2B2;fill-rule:nonzero}
    .fil15 {fill:#FDD2B2;fill-rule:nonzero}
    .fil6 {fill:white;fill-rule:nonzero}
    .fil10 {fill:black;fill-rule:nonzero;fill-opacity:0.101961}
   ]]>
  </style>
 </defs>
 <g id="Capa_x0020_1">
  <metadata id="CorelCorpID_0Corel-Layer"/>
  <path class="fil0" d="M1264.19 403.49c-622.69,0 -1127.51,504.78 -1127.51,1127.51l0 612.53c35.53,39.43 95.09,73.35 172.41,101.91l49.92 -149.06 54.2 181.63c572.54,152.32 1749.22,94.75 1978.48,-134.48l-0 -612.53c0,-622.73 -504.82,-1127.51 -1127.51,-1127.51z"/>
  <path class="fil1" d="M294.07 2239.74c4.95,1.91 9.93,3.75 14.99,5.7l49.96 -149.06 54.2 181.63c169.48,44.98 391.85,71.77 626.96,81.07l102.24 -98.27 -874.82 -658.3c0,0 -23.01,380.23 26.46,637.23z"/>
  <path class="fil1" d="M1697.05 1690.02l94.86 640.01c130.43,-16.27 249.69,-38.49 348.98,-66.45l-0 0c0,0 124.02,-138.26 110.64,-661.07 -13.38,-522.81 -554.48,87.52 -554.48,87.52z"/>
  <path class="fil2 str0" d="M1264.19 403.49c-622.69,0 -1127.51,504.78 -1127.51,1127.51l0 612.53c35.53,39.43 95.09,73.35 172.41,101.91l49.92 -149.06 54.2 181.63c572.54,152.32 1749.22,94.75 1978.48,-134.48l-0 -612.53c0,-622.73 -504.82,-1127.51 -1127.51,-1127.51z"/>
  <path class="fil3" d="M258.01 1492.21c0,-552.15 447.62,-999.77 999.77,-999.77 552.15,0 999.77,447.62 999.77,999.77 0,0.22 0,0.71 0,0.95 0,300.88 -135.95,586.05 -369.71,775.35 -20.53,16.68 -41.71,32.52 -63.52,47.54 -225.48,143.13 -510.32,143.13 -767.47,120.23 -24.96,-3.75 -49.85,-8.47 -74.55,-13.9 -98.68,-21.74 -194.22,-55.28 -282.48,-104.19 -21.81,-13.44 -42.96,-27.96 -63.45,-43.55 -20.54,-15.61 -40.36,-32.51 -59.17,-50.13 -17.87,-16.58 -35.12,-33.8 -51.73,-51.66 -171.72,-184.33 -267.45,-427.26 -267.45,-679.32 0,-0.37 0,-0.97 0,-1.34l-0 0.03z"/>
  <path class="fil4" d="M394.29 1996.23c2.62,4.5 5.21,9 7.91,13.42 1.61,2.7 3.3,5.32 4.98,8.02 2.47,4.01 4.95,8.02 7.5,11.96 1.8,2.85 3.75,5.62 5.47,8.4 2.47,3.75 4.95,7.5 7.5,11.24 1.91,2.85 3.75,5.7 5.85,8.55 2.47,3.75 4.95,7.2 7.5,10.79 2.02,2.89 4.12,5.73 6.18,8.62 2.06,2.89 5.02,6.93 7.5,10.38 2.47,3.45 4.31,5.73 6.48,8.58 2.17,2.85 5.14,6.75 7.76,10.12 2.62,3.37 4.46,5.66 6.71,8.47 2.25,2.81 5.29,6.6 7.95,9.86 2.66,3.26 4.61,5.58 6.93,8.36 2.32,2.77 5.4,6.45 8.13,9.63 2.74,3.19 4.76,5.51 7.16,8.25l8.32 9.37c2.44,2.74 4.91,5.4 7.5,8.1 3.22,3.52 6.48,7.01 9.74,10.46l4.53 4.8c4.83,5.02 9.71,10.04 14.65,14.99l0.97 1.01c4.83,4.8 9.74,9.56 14.65,14.28l5.92 5.62c3.56,3.34 7.12,6.67 10.72,9.97l4.35 3.97c3.75,3.52 7.83,6.97 11.77,10.42 12.24,10.67 24.73,20.9 37.48,30.69 20.46,15.59 41.62,30.11 63.45,43.55 88.26,48.72 183.65,82.46 282.48,104.19 24.7,5.43 49.59,10.12 74.55,13.9 157.79,14.06 326.08,19.41 484.54,-11.54 -251.98,-74.17 -1462.05,-509.91 -700.42,-1841.42l0 0c-10.19,4.68 -20.24,9.52 -30.21,14.54l-2.21 1.09c-4.57,2.29 -9.15,4.65 -13.68,7.05l-3.75 1.99c-14.09,7.5 -28.04,15.25 -41.71,23.35l-3.37 1.99c-4.35,2.59 -8.66,5.21 -12.97,7.87l-3.26 2.02c-13.39,8.37 -26.57,17.03 -39.54,25.97l-4.05 2.81c-4.09,2.85 -8.1,5.7 -12.11,8.58l-2.47 1.76c-8.17,5.97 -16.24,12.02 -24.21,18.14l-2.32 1.8c-3.75,2.92 -7.5,5.92 -11.24,8.96l-4.39 3.52c-3.75,3.04 -7.5,6.07 -11.24,9.18l0 0c-7.91,6.56 -15.7,13.31 -23.39,20.13l-4.27 3.75 -10.08 9.18 -4.87 4.42c-10.69,9.99 -21.15,20.2 -31.37,30.62l-5.17 5.29c-2.96,3.07 -5.92,6.15 -8.84,9.26 -1.72,1.84 -3.45,3.75 -5.14,5.55 -5.15,5.5 -10.22,11.07 -15.22,16.72 -1.69,1.91 -3.41,3.75 -5.1,5.77 -2.66,3.04 -5.29,6.11 -7.91,9.18l-5.66 6.71c-2.55,3.04 -5.1,6.07 -7.5,9.15 -2.02,2.47 -4.05,4.98 -6.03,7.5 -4.01,4.98 -7.95,9.97 -11.84,14.99 -2.02,2.62 -4.05,5.25 -6.03,7.91 -1.99,2.66 -4.5,5.96 -6.71,9 -2.21,3.04 -4.01,5.43 -5.96,8.17 -1.95,2.74 -4.24,5.81 -6.3,8.73 -3.55,5 -7.04,10.06 -10.49,15.18 -1.87,2.74 -3.75,5.55 -5.58,8.32 -1.84,2.77 -4.12,6.22 -6.15,9.37l-5.58 8.66 -6.3 10.16c-1.61,2.59 -3.22,5.17 -4.8,7.76 -3.34,5.47 -6.56,10.98 -9.78,16.49l-4.57 8.1c-2.02,3.56 -4.05,7.16 -6.03,10.76 -1.5,2.74 -3,5.47 -4.46,8.21 -2.4,4.46 -4.76,8.96 -7.12,13.46l-4.5 8.77c-2.4,4.8 -4.8,9.56 -7.16,14.39 -1.24,2.59 -2.51,5.21 -3.75,7.83 -1.95,4.09 -3.75,8.21 -5.73,12.33 -1.16,2.47 -2.29,4.95 -3.41,7.5 -2.77,6.17 -5.48,12.41 -8.13,18.74 -0.82,1.95 -1.61,3.94 -2.44,5.88 -1.99,4.76 -3.94,9.52 -5.85,14.32 -1.01,2.51 -1.99,5.02 -2.96,7.5 -1.87,4.72 -3.75,9.48 -5.43,14.24 -0.79,2.06 -1.57,4.12 -2.32,6.18 -2.35,6.57 -4.66,13.14 -6.93,19.71l-2.1 6.37c-1.65,5 -3.26,9.99 -4.83,14.99l-2.25 7.16c-1.76,5.77 -3.49,11.54 -5.14,17.35 -0.38,1.24 -0.75,2.47 -1.09,3.75 -1.95,6.9 -3.82,13.82 -5.62,20.76 -0.6,2.21 -1.12,4.46 -1.69,6.67 -1.31,5.21 -2.59,10.42 -3.75,15.67l-1.57 6.56c-1.61,7.12 -3.19,14.24 -4.65,21.4l-0.56 2.89c-1.27,6.37 -2.52,12.74 -3.75,19.12 -0.41,2.29 -0.79,4.53 -1.2,6.82 -0.97,5.58 -1.91,11.24 -2.77,16.87 -0.3,1.91 -0.64,3.75 -0.9,5.7 -1.12,7.31 -2.14,14.65 -3.11,22.04l-0.56 4.87c-0.75,5.96 -1.42,11.96 -2.06,17.95 -0.23,2.25 -0.49,4.5 -0.71,6.78 -0.6,6.3 -1.16,12.63 -1.69,18.96 0,1.31 -0.23,2.59 -0.3,3.75 -0.55,7.49 -1.03,15.05 -1.46,22.67 0,1.99 0,4.01 -0.26,6 -0.25,5.9 -0.48,11.78 -0.68,17.65 0,2.21 0,4.42 0,6.63 0,7.68 -0.3,15.4 -0.3,23.13 0,0 0,0.26 0,0.38 0,8.32 0,16.57 0.3,24.81 0,2.85 0.23,5.7 0.3,8.55 0.19,5.51 0.38,11.02 0.64,16.53 0,3.34 0.41,6.63 0.6,9.97 0.3,4.98 0.56,9.97 0.94,14.99 0.26,3.75 0.6,7.08 0.9,10.61 0.41,4.72 0.79,9.45 1.27,14.13 0.34,3.75 0.79,7.27 1.16,10.91 0.52,4.53 1.01,9.11 1.57,13.64 0.45,3.75 0.97,7.5 1.46,11.06 0.6,4.42 1.2,8.88 1.87,13.31 0.56,3.75 1.16,7.5 1.76,11.24 0.67,4.35 1.39,8.73 2.14,13.08 0.67,3.75 1.35,7.5 2.06,11.24 0.79,4.31 1.61,8.62 2.44,12.89 0.82,4.27 1.54,7.5 2.32,11.24 0.9,4.27 1.8,8.51 2.77,12.74 0.97,4.24 1.65,7.5 2.55,10.98 0.97,4.24 2.02,8.43 3.07,12.59 1.05,4.16 1.84,7.31 2.77,10.91 1.12,4.2 2.25,8.36 3.41,12.52 0.97,3.75 1.99,7.2 3.04,10.76 1.2,4.16 2.44,8.28 3.75,12.41 1.31,4.12 2.17,7.08 3.3,10.64 1.12,3.56 2.62,8.21 3.97,12.29 1.35,4.09 2.32,7.01 3.52,10.49 1.42,4.09 2.85,8.17 4.31,12.26 1.24,3.41 2.44,6.86 3.75,10.27l4.65 12.26c1.31,3.34 2.59,6.71 3.75,10.04 1.65,4.09 3.34,8.21 5.02,12.29 1.35,3.22 2.66,6.48 4.05,9.71 1.76,4.2 3.75,8.32 5.43,12.48 1.39,3.07 2.74,6.18 4.12,9.26 1.95,4.35 4.01,8.62 6,12.89l4.05 8.62c2.29,4.72 4.65,9.37 7.01,14.06 1.2,2.36 2.32,4.76 3.56,7.12 7.19,14.01 14.69,27.84 22.49,41.49 1.09,1.76 2.47,4.05 3.82,6.33z"/>
  <path class="fil2 str0" d="M258.01 1492.21c0,-552.15 447.62,-999.77 999.77,-999.77 552.15,0 999.77,447.62 999.77,999.77 0,0.22 0,0.71 0,0.95 0,300.88 -135.95,586.05 -369.71,775.35 -20.53,16.68 -41.71,32.52 -63.52,47.54 -225.48,143.13 -510.32,143.13 -767.47,120.23 -24.96,-3.75 -49.85,-8.47 -74.55,-13.9 -98.68,-21.74 -194.22,-55.28 -282.48,-104.19 -21.81,-13.44 -42.96,-27.96 -63.45,-43.55 -20.54,-15.61 -40.36,-32.51 -59.17,-50.13 -17.87,-16.58 -35.12,-33.8 -51.73,-51.66 -171.72,-184.33 -267.45,-427.26 -267.45,-679.32 0,-0.37 0,-0.97 0,-1.34l-0 0.03z"/>
  <path class="fil2" d="M845.5 2878.96l-42.69 487.24 -118.92 0c-3.04,-675.65 76.27,-630.15 76.27,-630.15"/>
  <path class="fil3" d="M1705.55 3628.55l-895.54 0c-27.47,-0.02 -49.73,-22.3 -49.73,-49.77 0,0 0,0 0,0l-0 -1067.12c0,-0 0,-0 0,-0 0,-27.47 22.26,-49.76 49.74,-49.77l874.14 0c49.06,0 71.21,28.71 71.21,74.51l0 1042.24c0,0.05 0,0.1 0,0.15 0,27.48 -22.29,49.77 -49.77,49.77 -0.01,0 -0.02,0 -0.04,0z"/>
  <path class="fil4" d="M1741.46 2491.49c-3.73,-4.58 -6.9,-9.64 -9.41,-14.99 -8.99,-7.05 -19.71,-11.6 -31.03,-13.16 -5.48,-0.85 -11.03,-1.27 -16.57,-1.27 -0.09,0 -0.21,0 -0.3,0l-874.14 0c-27.4,0.02 -49.63,22.18 -49.73,49.58 108.69,39.05 312.17,60.87 497.51,60.87 236.35,0 391.21,-35.04 483.68,-81.03z"/>
  <path class="fil2 str1" d="M1670.06 2461.88c137.57,28.42 175.12,43.39 209.68,107.46 30.85,57.19 65.61,150.49 67.15,375.06l-151.7 3.74"/>
  <line class="fil2 str0" x1="810.01" y1="2462.26" x2="1684.15" y2= "2461.88" />
  <path class="fil4" d="M810.01 3628.55l437.09 0c-409.09,0 -378.21,-866.46 -486.82,-866.46l0 816.53c0,0.05 0,0.1 0,0.15 0,27.47 22.26,49.76 49.74,49.77l-0 0z"/>
  <path class="fil5" d="M737.79 2844.66c-0.71,-13.75 -0.41,-27.51 0.19,-41.23 0.6,-13.72 1.76,-27.55 3.22,-41.23 0.75,-6.9 1.5,-13.75 2.44,-20.65 0.94,-6.9 1.84,-13.75 3.19,-20.65 2.64,-14.26 7.19,-28.15 13.46,-41.23 6.27,13.08 10.82,26.97 13.47,41.22 1.35,6.9 2.32,13.75 3.19,20.65 0.86,6.9 1.69,13.75 2.44,20.65 1.42,13.75 2.55,27.51 3.19,41.23 0.64,13.72 0.94,27.51 0.23,41.23l-44.99 0.01z"/>
  <path class="fil2 str0" d="M1755.29 2878.96l0 29.98c0.97,127.43 0.97,258.61 0,385.1 0,10.76 0,21.44 0,31.97l0 252.65c0,0.03 0,0.07 0,0.11 0,27.47 -22.26,49.76 -49.74,49.77l-895.54 0c-27.47,-0.02 -49.73,-22.3 -49.73,-49.77 0,0 0,0 0,0l-0 -218.13c0,-9.41 0,-19 0,-28.67 -0.94,-130.69 -0.94,-261.87 0,-394.66l0 -92.65"/>
  <path class="fil5" d="M1732.8 2878.96c-0.71,-15.63 -0.38,-31.3 0.23,-46.96 0.6,-15.67 1.76,-31.3 3.19,-46.96 0.75,-7.83 1.54,-15.67 2.44,-23.5 0.9,-7.83 1.84,-15.63 3.19,-23.46 2.59,-16.12 7.15,-31.92 13.45,-46.97 6.3,15.05 10.87,30.85 13.46,46.96 1.35,7.83 2.32,15.67 3.19,23.46 0.86,7.8 1.69,15.67 2.44,23.5 1.42,15.67 2.59,31.3 3.19,46.96 0.6,15.67 0.94,31.33 0.23,46.96l-44.98 0.01z"/>
  <path class="fil2 str0" d="M1265.54 2912.17c0,143.43 -116.33,259.72 -259.77,259.72 -143.45,0 -259.77,-116.33 -259.77,-259.77 0,-40.98 9.7,-81.41 28.29,-117.91"/>
  <g>
   <path class="fil3" d="M774.29 2794.22c14.2,-27.71 33.27,-52.71 56.23,-73.72l-56.23 73.72zm0 0l0 0 0 0z"/>
  </g>
  <path class="fil5" d="M754.24 2783.98c3.29,-7.8 7.55,-15.16 12.67,-21.89 5.05,-6.73 10.78,-13.03 16.97,-18.73 3.15,-2.85 6.33,-5.62 9.67,-8.21 3.31,-2.67 6.83,-5.1 10.53,-7.2 7.99,-4.61 17.01,-7.19 26.24,-7.49 -0.96,8.76 -3.19,17.38 -6.55,25.52 -1.46,3.75 -3.11,7.05 -4.83,10.38l-4.87 10.01c-3.19,6.6 -6.33,13.08 -9.56,19.45 -3.09,6.4 -6.58,12.71 -10.34,18.75l-39.92 -20.58z"/>
  <g>
   <path class="fil3" d="M1217.79 2762.1c31.05,43.73 47.75,96.08 47.75,149.72 0,0.06 0,0.13 0,0.19l-47.75 -149.91zm0 0l0 0 0 0z"/>
  </g>
  <path class="fil5" d="M1217.79 2762.1c12.8,6.92 23.92,16.59 32.57,28.29 4.3,5.68 8.19,11.7 11.61,17.95 3.49,6.26 6.63,12.71 9.56,19.3 5.74,13.21 10.12,27.11 12.97,41.23 2.41,11.87 3.66,24 3.66,36.12 0,2.35 -0.04,4.77 -0.13,7.09l-44.98 0c-0.71,-12.18 -1.35,-24.29 -2.62,-36.47 -1.27,-12.18 -2.89,-24.29 -5.25,-36.5l-1.87 -9.15 -2.17 -9.18c-1.57,-6.11 -3.26,-12.22 -4.83,-18.48 -3.51,-13.2 -6.42,-26.73 -8.52,-40.22l0.01 0.01z"/>
  <g>
   <path class="fil3" d="M1788.68 2912.17c0,-0.1 0,-0.2 0,-0.29 0,-71.78 -29.8,-140.34 -82.22,-189.34l82.22 189.64zm0 0l0 0 0 0z"/>
  </g>
  <path class="fil5" d="M1766.2 2912.17c-0.6,-16.11 -2.22,-32.27 -4.72,-48.18 -2.63,-16.11 -6.57,-32.08 -11.71,-47.52 -1.27,-3.75 -2.77,-7.76 -4.16,-11.66 -1.39,-3.9 -3.15,-7.68 -4.68,-11.58 -1.54,-3.9 -3.52,-7.5 -5.17,-11.43l-5.47 -11.24c-7.5,-15.37 -15.63,-30.7 -23.84,-47.79 17.37,7.41 32.99,18.42 45.8,32.28 3.11,3.52 6.37,6.97 9.26,10.68 2.89,3.71 5.77,7.5 8.43,11.24 2.66,3.75 5.36,7.83 7.76,11.92 2.4,4.09 4.91,8.17 7.05,12.44 8.92,16.92 15.75,34.96 20.25,53.57 4.09,16.57 6.16,33.69 6.16,50.78 0,2.15 -0.05,4.35 -0.1,6.48l-44.86 0z"/>
  <path class="fil2 str0" d="M1269.03 2912.17c0.01,0.99 -0.02,2.1 -0.02,3.12 0,143.45 116.33,259.77 259.77,259.77 143.45,0 259.77,-116.33 259.77,-259.77 0,-1.01 -0.03,-2.12 -0.03,-3.11"/>
  <g>
   <path class="fil3" d="M1316.89 2762.1c-31.01,43.68 -47.71,96.06 -47.71,149.67 0,0.06 0,0.19 0,0.25l47.71 -149.92zm0 0l0 0 0 0z"/>
  </g>
  <path class="fil5" d="M1316.89 2762.1c-2.12,13.52 -4.98,27.06 -8.5,40.31 -1.57,6.26 -3.26,12.37 -4.83,18.48l-2.14 9.18 -1.87 9.15c-2.36,12.22 -4.09,24.36 -5.29,36.5 -1.2,12.14 -1.87,24.29 -2.59,36.47l-45.13 -0.02c-0.09,-2.44 -0.15,-4.95 -0.15,-7.4 0,-12.02 1.25,-24.04 3.68,-35.81 2.84,-14.14 7.2,-28.02 12.96,-41.24 2.89,-6.6 6.03,-13.04 9.52,-19.3 3.44,-6.23 7.34,-12.26 11.62,-17.94 8.69,-11.73 19.89,-21.44 32.72,-28.38l0.01 -0z"/>
  <line class="fil2 str0" x1="820.92" y1="2757.34" x2="820.92" y2= "2461.88" />
  <line class="fil2 str0" x1="1694.27" y1="2757.34" x2="1694.27" y2= "2461.88" />
  <path class="fil6 str0" d="M1147.22 2983.08l202.02 0 0 73.84c-66.49,-22.67 -133.84,-22.11 -202.02,0l0 -73.84z"/>
  <path class="fil6 str0" d="M1775.38 2912.17c0,-0.09 0,-0.28 0,-0.37 0,-65.66 -25,-128.9 -69.84,-176.83 -15.82,-16.94 -165.92,23.2 -254.15,102.17 -86.62,77.55 -162.02,204.23 -151.23,220.19 48.28,71.64 129.05,114.62 215.44,114.62 143.45,0 259.77,-116.33 259.77,-259.77 0,0 0,0 0,0l0 -0z"/>
  <path class="fil6" d="M1625.5 2797.96c-22.94,13.75 -45.54,26.91 -67.46,41.23 -21.61,13.74 -42.44,29.18 -61.99,45.68 -19.3,16.72 -37.89,34.93 -56.22,53.45 -18.33,18.52 -36.32,37.48 -55.28,56.48 11.53,-24.15 25.58,-47.03 41.91,-68.13 16.27,-21.39 34.85,-41.29 55.14,-58.95 20.66,-17.49 43.59,-32.31 68.02,-43.97 24.04,-11.8 49.62,-20.51 75.9,-25.78l-0.02 -0.01z"/>
  <path class="fil6 str0" d="M740.19 2912.17c0,-0.09 0,-0.28 0,-0.37 0,-65.66 25,-128.9 69.84,-176.83 15.82,-16.94 165.92,23.2 254.15,102.17 86.62,77.55 162.02,204.23 151.23,220.19 -48.28,71.64 -129.05,114.62 -215.44,114.62 -143.45,0 -259.77,-116.33 -259.77,-259.77 0,0 0,0 0,0l-0 -0z"/>
  <path class="fil7" d="M1091.94 3137.27c-176.66,-0 -319.93,-143.27 -319.93,-319.93 0,-0.01 0,-0.01 0,-0.01 0,-10.87 0.59,-21.86 1.66,-32.65 -21.93,38.89 -33.45,82.84 -33.45,127.5 0,143.45 116.33,259.77 259.77,259.77 47.44,0 94.07,-13.04 134.63,-37.61 -14.11,1.91 -28.41,2.93 -42.68,2.93l-0.01 0z"/>
  <path class="fil2 str0" d="M740.19 2912.17c0,-0.09 0,-0.28 0,-0.37 0,-65.66 25,-128.9 69.84,-176.83 15.82,-16.94 165.92,23.2 254.15,102.17 86.62,77.55 162.02,204.23 151.23,220.19 -48.28,71.64 -129.05,114.62 -215.44,114.62 -143.45,0 -259.77,-116.33 -259.77,-259.77 0,0 0,0 0,0l-0 -0z"/>
  <path class="fil6" d="M890.07 2797.96c26.27,5.27 51.85,13.97 75.91,25.73 24.42,11.66 47.31,26.53 67.96,44.01 20.2,17.68 38.69,37.48 54.9,58.88 16.38,21.1 30.42,43.98 41.91,68.1 -18.96,-18.74 -36.88,-37.97 -55.28,-56.48 -18.4,-18.52 -36.88,-36.73 -56.22,-53.45 -19.5,-16.46 -40.33,-31.9 -61.93,-45.64 -21.86,-14.24 -44.35,-27.39 -67.25,-41.15z"/>
  <path class="fil6" d="M1684.15 2461.88l-203.18 0 0 0.38c0,-0.01 0,0.08 0,0.08 0,16.83 -1.84,33.67 -5.4,50.1 -1.71,8 -3.91,15.97 -6.51,23.72 -8.3,23.24 -21.06,44.71 -37.5,63.1 -5.25,5.87 -10.87,11.45 -16.85,16.59 -94.34,68.21 -244.26,71.96 -335.37,-2.17 -9.82,-8.54 -18.78,-18.12 -26.67,-28.47 -16.4,-21.56 -28.05,-46.39 -34.1,-72.76 -1.76,-8.14 -3.13,-16.42 -4.01,-24.7 -0.88,-8.3 -1.38,-16.76 -1.38,-25.13 0,-0.11 0,-0.22 0,-0.33l0 -0.38 -203.18 -0c-27.47,0.02 -49.73,22.3 -49.73,49.77 0,0 0,0 0,0l0 1066.98c0,0.05 0,0.1 0,0.15 0,27.47 22.26,49.76 49.74,49.77l895.54 0c27.47,-0.02 49.74,-22.3 49.74,-49.77 0,0 0,0 0,0l0 -1042.39c0,-45.8 -22.08,-74.51 -71.14,-74.51z"/>
  <path class="fil6" d="M1670.06 2461.88c238.15,0 275.1,209.89 276.98,499.12 -69.71,43.55 -183.31,4.91 -183.31,4.91l-93.66 -504.03z"/>
  <path class="fil7" d="M1755.29 2736.05l-85.23 142.91 42.65 487.24 43.51 0 0 -395.97 64.77 10.83c-21.25,-270.49 -65.7,-245.01 -65.7,-245.01z"/>
  <path class="fil6" d="M830.96 2461.88c-231.55,0 -284.21,201.64 -288.03,478.47 71.21,74.43 217.38,17.17 217.38,17.17l70.65 -495.63z"/>
  <path class="fil7" d="M760.16 2736.05l0 221.62 -64.88 16.15c21.25,-262.81 64.88,-237.77 64.88,-237.77z"/>
  <path class="fil2 str1" d="M1670.06 2461.88c305.3,-14.48 312.1,643.04 289.49,760.5 -4.01,20.83 -68.65,18.78 -184.17,14.22"/>
  <path class="fil2 str1" d="M797.94 2463.55c-254.71,0.37 -307.54,413.86 -254.96,473.56 52.57,59.71 217.15,20.55 217.15,20.55"/>
  <path class="fil7" d="M810.01 3628.55l437.09 0c-409.09,0 -378.21,-866.46 -486.82,-866.46l0 816.53c0,0.05 0,0.1 0,0.15 0,27.47 22.26,49.76 49.74,49.77l-0 0z"/>
  <path class="fil5" d="M737.79 2844.66c-0.71,-13.75 -0.41,-27.51 0.19,-41.23 0.6,-13.72 1.76,-27.55 3.22,-41.23 0.75,-6.9 1.5,-13.75 2.44,-20.65 0.94,-6.9 1.84,-13.75 3.19,-20.65 2.64,-14.26 7.19,-28.15 13.46,-41.23 6.26,13.06 10.8,26.95 13.43,41.22 1.39,6.9 2.36,13.75 3.22,20.65 0.86,6.9 1.69,13.75 2.44,20.65 1.42,13.75 2.55,27.51 3.19,41.23 0.64,13.72 0.94,27.51 0.23,41.23l-44.98 0.01z"/>
  <path class="fil2 str0" d="M1755.29 2878.96l0 29.98c0.97,127.43 0.97,258.61 0,385.1 0,10.76 0,21.44 0,31.97l0 252.65c0,0.03 0,0.07 0,0.11 0,27.47 -22.26,49.76 -49.74,49.77l-895.54 0c-27.47,-0.02 -49.73,-22.3 -49.73,-49.77 0,0 0,0 0,0l-0 -218.13c0,-9.41 0,-19 0,-28.67 -0.94,-130.69 -0.94,-261.87 0,-394.66l0 -92.65"/>
  <path class="fil5" d="M1732.8 2878.96c-0.71,-15.63 -0.38,-31.3 0.23,-46.96 0.6,-15.67 1.76,-31.3 3.19,-46.96 0.75,-7.83 1.54,-15.67 2.44,-23.5 0.9,-7.83 1.84,-15.63 3.22,-23.46 2.58,-16.09 7.09,-31.94 13.41,-46.97 6.31,15.05 10.87,30.85 13.47,46.96 1.35,7.83 2.32,15.67 3.19,23.46 0.86,7.8 1.69,15.67 2.44,23.5 1.42,15.67 2.59,31.3 3.19,46.96 0.6,15.67 0.94,31.33 0.23,46.96l-44.98 0.01z"/>
  <line class="fil2 str0" x1="810.01" y1="2462.26" x2="1684.15" y2= "2461.88" />
  <path class="fil2 str0" d="M1480.97 2462.26c0,-0.01 0,0.08 0,0.08 0,16.83 -1.84,33.67 -5.4,50.1 -1.71,8 -3.91,15.97 -6.51,23.72 -8.3,23.24 -21.06,44.71 -37.5,63.1 -5.25,5.87 -10.87,11.45 -16.85,16.59 -94.34,68.21 -244.26,71.96 -335.37,-2.17 -9.82,-8.54 -18.78,-18.12 -26.67,-28.47 -16.4,-21.56 -28.05,-46.39 -34.1,-72.76 -1.76,-8.14 -3.13,-16.42 -4.01,-24.7 -0.88,-8.3 -1.38,-16.76 -1.38,-25.13 0,-0.11 0,-0.22 0,-0.33"/>
  <path class="fil5" d="M1270.53 2723c-16.18,3.22 -32.7,4.9 -49.22,4.9 -6.55,0 -13.17,-0.3 -19.69,-0.79 -23.25,-1.61 -46.24,-6.37 -68.21,-14.06 -22.14,-7.59 -43,-18.53 -61.85,-32.39l-6.97 -5.29c-2.29,-1.8 -4.5,-3.75 -6.71,-5.7 -4.45,-3.78 -8.64,-7.91 -12.49,-12.29 -7.68,-8.66 -14.46,-18.1 -20.16,-28.15 7.99,8.04 16.46,15.67 25.26,22.83 2.17,1.8 4.39,3.56 6.56,5.25 2.17,1.69 4.61,3.07 6.9,4.65 2.29,1.57 4.57,3.15 6.93,4.61l7.16 4.35c19.09,11.27 39.4,20.7 60.35,27.95 20.98,7.35 42.71,12.99 64.64,16.69 22.33,3.62 44.91,6.16 67.48,7.43l0.02 0.02z"/>
  <path class="fil8 str2" d="M1508.45 3058.23c0,-33.21 -41.6,-64.69 -105.36,-84.22 14.73,-64.99 8.17,-116.67 -20.65,-133.24 -5.86,-3.9 -12.76,-5.97 -19.8,-5.97 -0.99,0 -1.99,0.04 -2.98,0.12 -29.98,0.49 -64.88,20.05 -102.06,54.8 -37.29,-34.55 -78.52,-54.98 -102.09,-54.38 -11.84,0.34 -16.38,1.95 -23.09,5.85 -28.75,16.53 -35.16,68.14 -20.35,132.94 -63.72,19.6 -104.94,51.01 -104.94,84.11 0,33.1 41.6,64.69 105.36,84.22 -14.73,64.99 -8.17,116.67 20.65,133.24 6.69,3.76 14.25,5.74 21.93,5.74 0.34,0 0.71,-0.01 1.05,-0.01 28.11,0 64.88,-20.05 102.1,-54.8 37.18,34.56 73.99,54.38 102.1,54.38 0.32,0 0.65,0.01 0.98,0.01 7.74,0 15.35,-1.98 22.1,-5.75 28.71,-16.57 35.16,-68.18 20.31,-132.94 63.38,-19.53 104.75,-51.01 104.75,-84.1zm-148.87 -200.48l0 0c0.23,-0.01 0.46,-0.01 0.69,-0.01 3.8,0 7.56,0.92 10.93,2.67 13.9,7.98 19.94,38.34 15.25,77.36 -1.12,9.59 -2.96,19.71 -5.21,29.98 -21.32,-5.13 -43.04,-9.02 -64.89,-11.27 -12.99,-17.86 -27.33,-35.05 -42.52,-51.03 33.27,-30.72 64.49,-47.66 85.74,-47.7zm-192.35 252.8c4.8,8.17 9.71,16.14 14.73,23.91 -14.5,-2.14 -28.52,-4.8 -41.9,-8.06 3.75,-13.19 8.47,-26.8 13.79,-40.37 4.2,8.17 8.58,16.34 13.38,24.51zm-27.47 -120.5c13.38,-3.15 27.47,-5.92 42.09,-8.06 -4.98,7.87 -10.01,15.93 -14.69,24.21 -4.69,8.28 -9.11,16.34 -13.31,24.51 -5.38,-13.28 -10.1,-26.88 -14.1,-40.65l0 -0.02zm26.05 68.48c6.33,-13.68 13.49,-27.4 21.18,-40.78 7.68,-13.38 16.12,-26.87 24.62,-39.02 15.22,-1.35 30.66,-2.06 46.18,-2.06 15.52,0 30.85,0.71 45.99,1.95 8.47,12.14 16.75,25.15 24.74,38.83 7.98,13.68 14.99,26.99 21.25,40.67 -6.45,13.72 -13.49,27.4 -21.18,40.78 -7.68,13.38 -16.12,26.87 -24.62,39.05 -15.22,1.31 -30.66,2.02 -46.18,2.02 -15.52,0 -30.85,-0.71 -45.99,-1.95 -8.47,-12.14 -16.75,-25.11 -24.74,-38.83 -7.98,-13.72 -14.8,-26.99 -21.25,-40.67zm182.53 51.72c4.68,-8.17 9.07,-16.45 13.27,-24.62 5.34,13.28 10.12,26.94 14.11,40.7 -13.38,3.26 -27.47,6.03 -42.09,8.17 5,-7.91 9.99,-15.97 14.71,-24.25zm0 -104.34c-4.68,-8.17 -9.71,-16.15 -14.73,-23.91 14.54,2.12 28.51,4.81 41.9,8.06 -3.75,13.19 -8.47,26.8 -13.79,40.37 -4.31,-8.17 -8.69,-16.34 -13.49,-24.51l0.11 0zm-62.44 -51.42c-9.22,-0.38 -18.74,-0.71 -28.11,-0.71 -9.37,0 -19.12,0.23 -28.41,0.71 8.77,-11.35 18.21,-22.33 28.12,-32.68 10.01,10.36 19.48,21.3 28.38,32.66l0.02 0.02zm-142.16 -93.7c3.3,-1.76 6.99,-2.69 10.73,-2.69 0.35,0 0.7,0.01 1.04,0.03l0 0c21.14,0 52.47,16.87 85.83,47.64 -15.15,15.92 -29.36,33.09 -42.21,50.98 -21.85,2.21 -43.64,6.05 -64.96,11.24 -2.36,-10.19 -4.09,-20.13 -5.32,-29.61 -4.82,-39.06 1.1,-69.42 14.89,-77.48l0 -0.11zm-25.75 259.47c-10.12,-3.19 -19.71,-6.67 -28.6,-10.42 -36.21,-15.44 -59.59,-35.68 -59.59,-51.72 0,-16.04 23.39,-36.39 59.59,-51.72 8.77,-3.75 18.37,-7.16 28.3,-10.31 6.24,21.11 14.02,42.13 23,62.24 -8.96,20.09 -16.62,40.96 -22.71,62.07l0.02 -0.13zm37.93 138.34c-0.12,-0 -0.26,0 -0.38,0 -3.88,0 -7.72,-0.94 -11.16,-2.74 -13.9,-7.98 -19.94,-38.34 -15.25,-77.36 1.12,-9.63 2.96,-19.71 5.21,-29.98 21.27,5.16 43.15,8.94 64.9,11.23 13.02,17.94 27.26,35.13 42.53,51.13 -33.33,30.9 -64.59,47.84 -85.84,47.84l0 -0.11zm102.06 -64.05c-9.95,-10.4 -19.55,-21.41 -28.41,-32.74 9.22,0.41 18.74,0.71 28.11,0.71 9.37,0 19.12,-0.19 28.41,-0.71 -8.72,11.38 -18.17,22.48 -28.1,32.85l-0.01 -0.11zm113.86 60.9c-3.3,1.76 -6.99,2.68 -10.73,2.68 -0.35,0 -0.7,-0.01 -1.04,-0.03 -21.14,0 -52.47,-16.87 -85.83,-47.64 15.15,-15.92 29.36,-33.09 42.21,-50.98 21.85,-2.21 43.64,-6.05 64.96,-11.25 2.29,9.81 4.13,19.77 5.34,29.74 4.8,39.16 -1.12,69.48 -14.91,77.58l0 -0.11zm54.27 -145.61c-8.81,3.75 -18.4,7.12 -28.34,10.31 -6.19,-21.17 -14.01,-42.17 -22.98,-62.27 8.88,-20.07 16.5,-40.85 22.52,-61.92 10.12,3.19 19.71,6.63 28.71,10.42 36.21,15.44 59.59,35.68 59.59,51.72 0,16.04 -23.34,36.52 -59.51,51.85l0 -0.11z"/>
  <circle class="fil8 str3" cx="1257.67" cy="3058.23" r="46.7"/>
  <path class="fil9" d="M1508.45 3058.23c0,-33.21 -41.6,-64.69 -105.36,-84.22 14.73,-64.99 8.17,-116.67 -20.65,-133.24 -5.86,-3.9 -12.76,-5.97 -19.8,-5.97 -0.99,0 -1.99,0.04 -2.98,0.12 -29.98,0.49 -64.88,20.05 -102.06,54.8 -37.29,-34.55 -78.52,-54.98 -102.09,-54.38 -11.84,0.34 -16.38,1.95 -23.09,5.85 -28.75,16.53 -35.16,68.14 -20.35,132.94 -63.72,19.6 -104.94,51.01 -104.94,84.11 0,33.1 41.6,64.69 105.36,84.22 -14.73,64.99 -8.17,116.67 20.65,133.24 6.69,3.76 14.25,5.74 21.93,5.74 0.34,0 0.71,-0.01 1.05,-0.01 28.11,0 64.88,-20.05 102.1,-54.8 37.18,34.56 73.99,54.38 102.1,54.38 0.32,0 0.65,0.01 0.98,0.01 7.74,0 15.35,-1.98 22.1,-5.75 28.71,-16.57 35.16,-68.18 20.31,-132.94 63.38,-19.53 104.75,-51.01 104.75,-84.1zm-148.87 -200.48l0 0c0.23,-0.01 0.46,-0.01 0.69,-0.01 3.8,0 7.56,0.92 10.93,2.67 13.9,7.98 19.94,38.34 15.25,77.36 -1.12,9.59 -2.96,19.71 -5.21,29.98 -21.32,-5.13 -43.04,-9.02 -64.89,-11.27 -12.99,-17.86 -27.33,-35.05 -42.52,-51.03 33.27,-30.72 64.49,-47.66 85.74,-47.7zm-192.35 252.8c4.8,8.17 9.71,16.14 14.73,23.91 -14.5,-2.14 -28.52,-4.8 -41.9,-8.06 3.75,-13.19 8.47,-26.8 13.79,-40.37 4.2,8.17 8.58,16.34 13.38,24.51zm-27.47 -120.5c13.38,-3.15 27.47,-5.92 42.09,-8.06 -4.98,7.87 -10.01,15.93 -14.69,24.21 -4.69,8.28 -9.11,16.34 -13.31,24.51 -5.38,-13.28 -10.1,-26.88 -14.1,-40.65l0 -0.02zm26.05 68.48c6.33,-13.68 13.49,-27.4 21.18,-40.78 7.68,-13.38 16.12,-26.87 24.62,-39.02 15.22,-1.35 30.66,-2.06 46.18,-2.06 15.52,0 30.85,0.71 45.99,1.95 8.47,12.14 16.75,25.15 24.74,38.83 7.98,13.68 14.99,26.99 21.25,40.67 -6.45,13.72 -13.49,27.4 -21.18,40.78 -7.68,13.38 -16.12,26.87 -24.62,39.05 -15.22,1.31 -30.66,2.02 -46.18,2.02 -15.52,0 -30.85,-0.71 -45.99,-1.95 -8.47,-12.14 -16.75,-25.11 -24.74,-38.83 -7.98,-13.72 -14.8,-26.99 -21.25,-40.67zm182.53 51.72c4.68,-8.17 9.07,-16.45 13.27,-24.62 5.34,13.28 10.12,26.94 14.11,40.7 -13.38,3.26 -27.47,6.03 -42.09,8.17 5,-7.91 9.99,-15.97 14.71,-24.25zm0 -104.34c-4.68,-8.17 -9.71,-16.15 -14.73,-23.91 14.54,2.12 28.51,4.81 41.9,8.06 -3.75,13.19 -8.47,26.8 -13.79,40.37 -4.31,-8.17 -8.69,-16.34 -13.49,-24.51l0.11 0zm-62.44 -51.42c-9.22,-0.38 -18.74,-0.71 -28.11,-0.71 -9.37,0 -19.12,0.23 -28.41,0.71 8.77,-11.35 18.21,-22.33 28.12,-32.68 10.01,10.36 19.48,21.3 28.38,32.66l0.02 0.02zm-142.16 -93.7c3.3,-1.76 6.99,-2.69 10.73,-2.69 0.35,0 0.7,0.01 1.04,0.03l0 0c21.14,0 52.47,16.87 85.83,47.64 -15.15,15.92 -29.36,33.09 -42.21,50.98 -21.85,2.21 -43.64,6.05 -64.96,11.24 -2.36,-10.19 -4.09,-20.13 -5.32,-29.61 -4.82,-39.06 1.1,-69.42 14.89,-77.48l0 -0.11zm-25.75 259.47c-10.12,-3.19 -19.71,-6.67 -28.6,-10.42 -36.21,-15.44 -59.59,-35.68 -59.59,-51.72 0,-16.04 23.39,-36.39 59.59,-51.72 8.77,-3.75 18.37,-7.16 28.3,-10.31 6.24,21.11 14.02,42.13 23,62.24 -8.96,20.09 -16.62,40.96 -22.71,62.07l0.02 -0.13zm37.93 138.34c-0.12,-0 -0.26,0 -0.38,0 -3.88,0 -7.72,-0.94 -11.16,-2.74 -13.9,-7.98 -19.94,-38.34 -15.25,-77.36 1.12,-9.63 2.96,-19.71 5.21,-29.98 21.27,5.16 43.15,8.94 64.9,11.23 13.02,17.94 27.26,35.13 42.53,51.13 -33.33,30.9 -64.59,47.84 -85.84,47.84l0 -0.11zm102.06 -64.05c-9.95,-10.4 -19.55,-21.41 -28.41,-32.74 9.22,0.41 18.74,0.71 28.11,0.71 9.37,0 19.12,-0.19 28.41,-0.71 -8.72,11.38 -18.17,22.48 -28.1,32.85l-0.01 -0.11zm113.86 60.9c-3.3,1.76 -6.99,2.68 -10.73,2.68 -0.35,0 -0.7,-0.01 -1.04,-0.03 -21.14,0 -52.47,-16.87 -85.83,-47.64 15.15,-15.92 29.36,-33.09 42.21,-50.98 21.85,-2.21 43.64,-6.05 64.96,-11.25 2.29,9.81 4.13,19.77 5.34,29.74 4.8,39.16 -1.12,69.48 -14.91,77.58l0 -0.11zm54.27 -145.61c-8.81,3.75 -18.4,7.12 -28.34,10.31 -6.19,-21.17 -14.01,-42.17 -22.98,-62.27 8.88,-20.07 16.5,-40.85 22.52,-61.92 10.12,3.19 19.71,6.63 28.71,10.42 36.21,15.44 59.59,35.68 59.59,51.72 0,16.04 -23.34,36.52 -59.51,51.85l0 -0.11z"/>
  <circle class="fil9" cx="1257.67" cy="3058.23" r="46.7"/>
  <path class="fil10" d="M983.73 3222.39c111.21,-0 210.17,-70.89 245.95,-176.17 -47.71,81.63 -135.2,131.82 -229.74,131.82 -83.95,0 -163.06,-39.67 -213.25,-106.92l-0.18 55.21c47.75,58.58 115.78,96.06 197.22,96.06z"/>
  <path class="fil10" d="M1531.84 3222.39c-111.21,-0 -210.17,-70.89 -245.95,-176.17 47.71,81.63 135.2,131.82 229.74,131.82 83.95,0 163.06,-39.67 213.25,-106.92l0 55.17c-47.57,58.62 -115.59,96.1 -197.04,96.1z"/>
  <g>
   <path class="fil6" d="M909.22 3155.6c-101.6,-37.91 -168.99,-134.98 -168.99,-243.45 0,-65.54 24.81,-128.7 69.38,-176.73l99.61 420.18zm0 0l0 0 0 0z"/>
  </g>
  <path class="fil5" d="M909.22 3155.6c-44.28,-7.22 -85.25,-28.24 -116.96,-59.98l-6.07 -6c-1.99,-2.02 -3.75,-4.24 -5.73,-6.33 -1.99,-2.1 -3.75,-4.31 -5.55,-6.48 -1.91,-2.12 -3.71,-4.39 -5.37,-6.7 -3.37,-4.61 -6.78,-9.22 -10.04,-13.94l-8.88 -14.73c-11.2,-20.13 -19.69,-41.78 -25.15,-64.2 -4.33,-19.12 -6.53,-38.77 -6.53,-58.39 0,-3.39 0.07,-6.84 0.19,-10.2 1,-22.88 5.34,-45.55 12.76,-67.19 0.97,-2.66 1.84,-5.36 2.85,-8.02l3.3 -7.87c2.06,-5.25 4.72,-10.27 7.16,-15.33 5.16,-9.92 11.17,-19.58 17.77,-28.62 3.19,-4.53 6.82,-8.81 10.31,-13.08 3.49,-4.27 7.27,-8.36 11.24,-12.11 7.73,-7.71 16.21,-14.77 25.21,-20.94 -21.7,37.48 -37.11,75.67 -43.7,114.95 -2.98,16.87 -4.52,34.06 -4.52,51.21 0,2.43 0.07,4.9 0.11,7.29 0.69,19.41 3.21,38.85 7.47,57.79 4.6,18.79 11.11,37.28 19.2,54.88 8.29,17.79 18.47,34.77 30.26,50.5 11.95,16.24 25.58,31.31 40.54,44.8 15.65,14.04 32.54,27.08 50.11,38.71l0.02 -0.01z"/>
  <g>
   <path class="fil6" d="M1606.53 3155.6c101.53,-37.95 168.85,-134.99 168.85,-243.39 0,-65.57 -24.81,-128.77 -69.41,-176.8l-99.44 420.19zm0 0l0 0 0 0z"/>
  </g>
  <path class="fil4" d="M1598.25 1733.81c-3.75,-106.29 67.46,-196.24 162.21,-238.22 9.9,-4.07 20.2,-7.46 30.59,-10.12 20.55,-5.08 41.75,-7.67 62.96,-7.67 32.58,0 64.93,6.09 95.26,17.91 11.45,4.39 22.7,9.64 33.46,15.57 110.68,59.56 160.38,199.58 117.54,312.81 -4.32,11.38 -9.6,22.53 -15.67,33.08 -14.94,31.12 -37.56,57.99 -65.63,78.06 -9.33,6.87 -19.22,13.21 -29.42,18.75 -102.62,48.72 -241.3,33.73 -324.01,-42.73 -8.27,-8.78 -15.94,-18.17 -22.88,-28 -7.94,-11.22 -14.97,-23.22 -20.88,-35.63 -12.57,-25.49 -19.82,-53.31 -21.25,-81.69 -1.34,-10.64 -2.11,-21.44 -2.25,-32.14l-0.01 0.01z"/>
  <path class="fil6 str0" d="M1598.3 1733.85c-3.75,-106.29 67.46,-196.24 162.21,-238.22 9.91,-4.04 20.16,-7.48 30.56,-10.13 20.63,-5.11 41.97,-7.73 63.26,-7.73 32.48,0 64.7,6.02 94.97,17.78 11.45,4.43 22.64,9.67 33.41,15.59 110.68,59.56 160.38,199.62 117.54,312.81 -4.27,11.41 -9.56,22.53 -15.64,33.06 -5.18,10.15 -11.11,19.96 -17.66,29.25 -6.47,9.2 -13.61,18.01 -21.29,26.22 -8.28,8.2 -17.28,15.85 -26.69,22.75 -9.36,6.88 -19.22,13.17 -29.42,18.74 -102.62,48.72 -241.3,33.73 -323.98,-42.69 -8.24,-8.76 -15.96,-18.19 -22.89,-28.03 -7.95,-11.21 -15,-23.2 -20.92,-35.6 -12.59,-25.38 -19.89,-53.13 -21.39,-81.44 -1.35,-10.7 -2.07,-21.56 -2.07,-32.36l0 0.01z"/>
  <path class="fil5" d="M1606.53 3155.6c17.54,-11.55 34.33,-24.55 50.01,-38.55 14.98,-13.5 28.61,-28.57 40.53,-44.8 11.81,-15.73 21.99,-32.71 30.29,-50.5 8.09,-17.61 14.6,-36.1 19.19,-54.92 4.27,-18.9 6.79,-38.34 7.49,-57.74 0.09,-2.65 0.12,-5.37 0.12,-8.05 0,-16.97 -1.5,-33.98 -4.43,-50.67 -6.6,-39.28 -22,-77.36 -43.7,-114.95 9.01,6.15 17.49,13.22 25.23,20.94 4.05,3.75 7.5,8.02 11.24,12.11 3.75,4.09 7.12,8.55 10.31,13.08 6.58,9.03 12.59,18.68 17.76,28.61 2.44,5.06 5.1,10.08 7.16,15.33l3.3 7.87c1.01,2.66 1.87,5.36 2.85,8.02 7.41,21.64 11.75,44.31 12.75,67.18 0.13,3.36 0.19,6.82 0.19,10.2 0,19.62 -2.19,39.27 -6.52,58.4 -5.47,22.4 -13.97,44.06 -25.17,64.21l-8.87 14.72c-3.26,4.72 -6.67,9.33 -10.04,13.94 -1.66,2.31 -3.46,4.57 -5.36,6.71 -1.84,2.17 -3.75,4.35 -5.55,6.48 -1.8,2.14 -3.75,4.31 -5.73,6.33l-6.07 6c-31.71,31.77 -72.68,52.79 -116.97,60.03l-0 0.01z"/>
  <circle class="fil5" cx="662.08" cy="1751.12" r="78.56"/>
  <path class="fil5" d="M661.59 1814.53c6.71,-0.38 14.21,-0.97 21.36,-1.72 7.16,-0.75 14.47,-1.65 21.7,-2.77 7.23,-1.12 14.5,-2.44 21.78,-3.75 7.27,-1.31 14.69,-2.55 22.49,-3.11 -6.11,4.7 -12.81,8.65 -19.9,11.7 -7.03,2.93 -14.3,5.45 -21.65,7.49 -7.37,2.14 -14.92,3.88 -22.49,5.11 -7.67,1.34 -15.53,2.02 -23.33,2.02 -0.02,0 -0.05,0 -0.07,0l0.11 -14.95z"/>
  <path class="fil5" d="M1044.67 1948.93c0,-70.84 426.22,-60.19 426.22,0 0,117.68 -95.43,213.11 -213.11,213.11 -117.68,0 -213.11,-95.43 -213.11,-213.11l-0 0z"/>
  <path class="fil11" d="M1239.04 2028.17c-63.53,-3.75 -118.92,25.3 -137.36,68.29 40.21,42.52 96.23,66.61 154.77,66.61 30.86,0 61.37,-6.71 89.37,-19.64 8.38,-3.85 16.6,-8.36 24.4,-13.3 -3.45,-52.89 -59.74,-97.53 -131.18,-101.95z"/>
  <path class="fil2 str4" d="M1044.67 1948.93c0,-70.84 426.22,-60.19 426.22,0 0,117.68 -95.43,213.11 -213.11,213.11 -117.68,0 -213.11,-95.43 -213.11,-213.11l-0 0z"/>
  <path class="fil5" d="M1175.78 1988.66c1.69,-0.41 2.36,-0.6 3.45,-0.79l2.81 -0.52c1.84,-0.34 3.75,-0.52 5.47,-0.67 2.71,-0.28 5.47,-0.42 8.2,-0.42 0.87,0 1.77,0.02 2.63,0.04 7.31,0.15 14.62,1.18 21.7,3.03 14.84,3.76 28.31,11.71 38.79,22.87 9.85,10.6 16.47,23.83 19.04,38.08 0.66,3.74 1,7.55 1,11.36 0,9.48 -2.09,18.86 -6.1,27.44 -7.76,-10.98 -13.72,-20.84 -19.94,-29.08 -2.79,-3.95 -5.88,-7.73 -9.18,-11.25 -3.02,-3.09 -6.42,-5.82 -10.11,-8.09 -6.99,-4.19 -14.81,-6.86 -22.9,-7.83 -4.24,-0.54 -8.55,-0.85 -12.81,-0.89 -2.21,0 -4.42,0 -6.6,0.19l-3.19 0.23 -1.46 0c-0.38,0 -1.12,0 -0.86,0l-9.94 -43.67z"/>
  <rect class="fil4" x="471.57" y="1169.95" width="1646.26" height="240.43"/>
  <path class="fil0" d="M2044.86 2120.59c-11.77,14.54 -23.9,28.75 -36.39,42.61 -9.37,10.38 9.67,-4.2 36.39,-42.61zm56.22 -1186.42c-114.31,-203.93 -312.96,-344.33 -542.63,-408.94l-23.8 -6.41c-85.08,-23.54 -174.73,-26.24 -267.31,-26.24 -100.03,0 -196.62,10.27 -287.73,37.48l-15.97 4.76c-121.16,41.11 -234.12,104.07 -332.96,185.3 -10.95,8.95 -21.67,18.1 -32.16,27.44 -106.22,88.79 -188.67,201.23 -245.38,329.45 -5.5,12.29 -10.69,24.7 -15.59,37.22 -14.61,37.26 -26.46,75.73 -35.3,114.68 -120.12,474.46 66.86,765.53 232.82,943.93 16.38,17.61 -217.12,-381.73 -65.29,-809.56 28.97,-1.09 75.86,-1.91 135.64,-2.51l58.09 -189.69 65.36 188.82c102.69,-0.49 224.43,-0.56 351.86,-0.45l46.18 -196.24 52.17 196.32c278.74,0.52 567.59,1.95 731.91,2.89l49.47 -195.53 56.22 196.13 30.77 0.19c187.74,398.86 66.75,657.96 -2.59,757.39 143.62,-177.18 222.26,-398.75 222.26,-627 0,-0.36 0,-0.97 0,-1.34 0,-323.95 -166.03,-558.08 -166.03,-558.08z"/>
  <path class="fil2 str0" d="M2044.86 2120.59c-11.77,14.54 -23.9,28.75 -36.39,42.61 -9.37,10.38 9.67,-4.2 36.39,-42.61zm56.22 -1186.42c-114.31,-203.93 -312.96,-344.33 -542.63,-408.94l-23.8 -6.41c-85.08,-23.54 -174.73,-26.24 -267.31,-26.24 -100.03,0 -196.62,10.27 -287.73,37.48l-15.97 4.76c-121.16,41.11 -234.12,104.07 -332.96,185.3 -10.95,8.95 -21.67,18.1 -32.16,27.44 -106.22,88.79 -188.67,201.23 -245.38,329.45 -5.5,12.29 -10.69,24.7 -15.59,37.22 -14.61,37.26 -26.46,75.73 -35.3,114.68 -120.12,474.46 66.86,765.53 232.82,943.93 16.38,17.61 -217.12,-381.73 -65.29,-809.56 28.97,-1.09 75.86,-1.91 135.64,-2.51l58.09 -189.69 65.36 188.82c102.69,-0.49 224.43,-0.56 351.86,-0.45l46.18 -196.24 52.17 196.32c278.74,0.52 567.59,1.95 731.91,2.89l49.47 -195.53 56.22 196.13 30.77 0.19c187.74,398.86 66.75,657.96 -2.59,757.39 143.62,-177.18 222.26,-398.75 222.26,-627 0,-0.36 0,-0.97 0,-1.34 0,-323.95 -166.03,-558.08 -166.03,-558.08z"/>
  <path class="fil0" d="M1573.18 472.75l-24.25 -6.52c-94.49,-26.24 -190.88,-28.3 -281.59,-28.3 -114.65,0 -213.9,13.08 -303.25,39.88l-15.97 4.76 -1.84 0.56c-127.32,43.43 -246.16,109.57 -350.17,194.92 -11.24,9.22 -22.49,18.74 -33.13,28.3 -111.05,93.03 -198.38,210.3 -259.51,348.56 -5.85,13.08 -11.24,26.42 -16.57,39.62 -15.67,40.07 -79.79,224.02 -89.02,264.79l271.84 3.75c28.97,-1.09 75.86,-1.91 135.64,-2.51l58.09 -189.69 65.36 188.82c102.69,-0.49 224.43,-0.56 351.86,-0.45l46.18 -196.24 52.21 196.52c278.74,0.52 567.59,1.95 731.91,2.89l49.47 -195.53 56.22 196.13 30.77 0.19 274.02 129.01c0,-323.04 -154.79,-558.45 -174.21,-586.93 -117.39,-207.64 -321.17,-361.3 -574.08,-432.52zm622.77 1196.54c-11.88,-97.15 -41.87,-207.11 -99.36,-329.22l-14.58 -31 -24.32 0 -100.37 -350.92 -88.6 349.69c-151.53,-0.82 -401.26,-2.02 -647.88,-2.59l-97.26 -365.69 -85.98 365.43c-102.69,0 -193.21,0 -270.19,0.34l-107.04 -309.62 -95.27 311.08c-42.91,0.56 -75.56,1.27 -97.45,2.1l-36.84 1.42 -12.33 34.71c-53.74,151.76 -67.99,315.84 -42.35,488.25 -59.59,-149.92 -84.18,-342.53 -21.18,-590.79l0.34 -1.42c8.22,-36.25 19.44,-72.25 33.01,-106.9 4.5,-11.58 9.41,-23.31 14.65,-35.04 54.5,-123.16 132.08,-227.39 230.54,-309.7l1.24 -1.09c9.93,-8.81 20.2,-17.58 30.51,-26.05 93.48,-76.84 200.26,-136.48 314.84,-175.7l15.18 -4.5c79.16,-23.76 168.17,-35.34 272.1,-35.34 83.28,0 171.4,1.91 252.8,24.44l23.91 6.41c225.78,63.72 406.77,199.66 509.72,383.16l1.39 2.47 1.65 2.36c1.57,2.21 155.95,223.49 155.95,526.59 -0.03,59.43 -5.8,118.84 -16.87,177.09l0.05 0.05z"/>
  <path class="fil5" d="M450.02 1352.97c0.67,-2.81 1.24,-4.95 1.99,-7.27 0.75,-2.32 1.5,-4.5 2.32,-6.67 1.72,-4.39 3.75,-8.66 5.66,-12.82 4.17,-8.37 9.03,-16.42 14.44,-24.05 5.33,-7.76 11.48,-15.02 18.27,-21.56 7.42,-7.02 16.42,-12.18 26.24,-15 -0,0.45 0.01,0.95 0.01,1.42 0,9.22 -1.09,18.41 -3.26,27.36 -1.05,4.27 -2.21,8.43 -3.49,12.44l-3.75 12.18c-2.5,8.07 -5,16.06 -7.5,23.96 -1.24,3.97 -2.55,7.83 -3.75,11.73 -0.64,1.91 -1.39,3.75 -2.1,5.73 -0.71,1.99 -1.46,3.75 -2.1,5.25l-42.99 -12.71z"/>
  <path class="fil5" d="M2047.41 1340.71c3.47,-0.27 6.94,-0.42 10.42,-0.42 4.31,0 8.66,0.22 12.94,0.64 7.8,0.68 15.69,1.76 23.39,3.23 3.75,0.75 7.8,1.5 11.69,2.4 3.92,0.81 7.84,1.91 11.65,3.22 8.58,2.9 16.54,7.47 23.39,13.42 -6.85,5.94 -14.8,10.53 -23.39,13.45 -3.81,1.31 -7.72,2.37 -11.66,3.19 -3.75,0.94 -7.8,1.69 -11.69,2.44 -7.79,1.45 -15.59,2.52 -23.38,3.22 -4.22,0.4 -8.48,0.62 -12.72,0.62 -3.54,0 -7.11,-0.16 -10.63,-0.43l0.01 -44.97z"/>
  <path class="fil6" d="M1051.04 1312.56c0.89,-17.84 2.8,-35.74 5.58,-53.39 2.7,-17.61 6,-35.12 9.78,-52.47 3.79,-17.35 8.06,-34.67 12.89,-51.83 4.78,-17.24 10.7,-34.4 17.35,-50.96 -0.84,17.84 -2.83,35.74 -5.67,53.41 -2.69,17.62 -5.94,35.11 -9.76,52.48 -3.82,17.37 -8.12,34.64 -12.89,51.83 -4.83,17.21 -10.72,34.33 -17.3,50.94l0.02 -0.01z"/>
  <path class="fil6" d="M1887.44 1312.56c0.88,-17.84 2.8,-35.74 5.57,-53.39 2.73,-17.63 5.99,-35.13 9.79,-52.49 3.8,-17.37 8.03,-34.63 12.71,-51.8 4.8,-17.25 10.55,-34.29 17.13,-50.91 -0.84,17.89 -2.83,35.73 -5.6,53.4 -2.74,17.63 -6,35.14 -9.77,52.5 -3.75,17.39 -8.1,34.67 -12.93,51.83 -4.7,17.14 -10.42,34.31 -16.88,50.86l-0.02 -0z"/>
  <g>
   <path class="fil0" d="M274.13 1373.24c7.5,-49.18 22.03,-97.21 42.84,-142.42l-42.84 142.42zm0 0l0 0 0 0z"/>
  </g>
  <path class="fil5" d="M251.82 1370.43c0.34,-3.75 0.67,-6.93 1.2,-10.23 0.53,-3.3 1.09,-6.45 1.72,-9.67 1.31,-6.37 2.81,-12.67 4.61,-18.74 3.53,-12.44 7.91,-24.68 13.01,-36.53 4.94,-11.95 10.87,-23.56 17.61,-34.57 7.07,-11.44 16.23,-21.51 26.95,-29.64 0.21,3.59 0.32,7.27 0.32,10.89 0,9.42 -0.74,18.89 -2.12,28.19 -0.94,6.11 -1.91,12.18 -3.11,18.14 -1.2,5.96 -2.17,11.96 -3.11,17.92l-6.11 35.57 -3.11 17.54c-0.45,2.92 -1.05,5.85 -1.57,8.69 -0.52,2.85 -1.12,5.88 -1.65,8.21l-44.63 -5.77z"/>
  <g>
   <path class="fil0" d="M2267.23 1477.21c0,0 -1.72,-77.88 -31.37,-178.52l31.37 178.52zm0 0l0 0 0 0z"/>
  </g>
  <path class="fil5" d="M2244.74 1477.66l-0.9 -10.35c-0.3,-3.75 -0.6,-7.23 -0.82,-10.83l-1.69 -21.89 -3.41 -44.23c-1.12,-14.8 -2.66,-29.65 -3.75,-44.71 -0.3,-7.5 -0.6,-15.22 -0.38,-23.01 0.06,-8.02 0.73,-16.05 1.89,-23.98 10.19,12.27 18.53,26.07 24.66,40.81 3.02,7.11 5.78,14.5 8.11,21.89 2.51,7.5 4.65,14.99 6.78,22.49 4.21,14.91 7.64,30.22 10.09,45.58 1.24,7.68 2.36,15.44 3.04,23.28 0.4,3.91 0.7,7.85 0.9,11.83 0.23,4.01 0.3,7.76 0.26,12.29l-44.79 0.82z"/>
  <path class="fil6" d="M1282.89 500.86c-53.28,3.11 -106.55,9.37 -159.15,18.5 -13.04,2.55 -26.24,5.32 -39.13,7.72 -12.89,2.4 -25.86,6.03 -38.79,9.03l-38.45 10.19c-12.74,3.75 -25.37,7.8 -38.04,11.69 -50.56,16.19 -100.12,36.07 -147.81,58.98 -48.07,23.27 -94.91,49.72 -139.67,78.71 39.85,-36.45 84.25,-68.26 131.49,-94.27 47.31,-26.46 97.47,-48.33 149.03,-64.98 13.04,-3.75 26.01,-7.83 39.05,-11.43 13.04,-3.6 26.24,-6.82 39.54,-9.74 13.31,-2.92 26.61,-5.25 39.92,-7.5 13.31,-2.25 26.84,-4.01 40.25,-5.7 28.48,-3.47 57.52,-5.21 86.29,-5.21 25.13,0 50.51,1.39 75.46,4l0.01 0.01z"/>
  <path class="fil5" d="M910.31 1397.91l-452.16 0c-20.84,0 -41.68,-0.3 -62.52,0l-0.9 0c-19.6,0 -38.38,17.24 -37.48,37.48 0.34,20.56 16.93,37.14 37.48,37.48l452.16 0c20.8,0 41.68,0.3 62.52,0l0.9 0c19.6,0 38.38,-17.24 37.48,-37.48 -0.36,-20.55 -16.93,-37.13 -37.48,-37.48l-0 0z"/>
  <path class="fil5" d="M2106.03 1397.91l-452.16 0c-20.84,0 -41.68,-0.3 -62.52,0l-0.9 0c-19.6,0 -38.38,17.24 -37.48,37.48 0.34,20.56 16.92,37.14 37.48,37.48l452.16 0c20.84,0 41.68,0.3 62.52,0l0.9 0c19.6,0 38.38,-17.24 37.48,-37.48 -0.36,-20.55 -16.93,-37.13 -37.48,-37.48l-0 0z"/>
  <g id="_2324787403904">
   <circle class="fil12" cx="1207.93" cy="227.52" r="199.31"/>
   <path class="fil13" d="M1207.93 426.83c0.02,0 0.07,0 0.09,0 110.03,0 199.27,-89.23 199.27,-199.27 0,-13.87 -1.46,-27.76 -4.33,-41.31 -129.21,-20.02 -263.2,-8.4 -393.62,25.19 -0.42,5.29 -0.71,10.62 -0.71,16.04 0.01,-0 0.01,0.05 0.01,0.05 0,110.06 89.25,199.31 199.31,199.31 0,0 0,0 0,0l-0 0z"/>
   <circle class="fil2 str5" cx="1207.93" cy="227.52" r="199.31"/>
   <path class="fil12" d="M153.54 1344.07c0,-0.13 0,-0.52 0,-0.65 0,-80.92 9.27,-161.84 27.41,-240.67 3.64,-15.57 7.59,-30.97 11.84,-46.23 12.17,-135.59 83.96,-247.41 179.91,-347.28 19.98,-15.99 23.97,-51.93 43.95,-71.91 67.92,-59.9 127.82,-119.85 203.72,-167.91 311.56,-199.73 722.98,-307.57 1054.51,-123.83 67.88,35.93 143.77,55.91 199.69,103.85 107.88,91.85 183.73,199.73 291.62,287.59 95.83,79.76 111.83,207.7 145.83,319.32 4.28,15.22 8.21,30.61 11.8,46.18 18.18,78.88 27.45,159.8 27.45,240.71 0,0.13 0,0.52 0,0.65l-2197.72 0.17z"/>
   <path class="fil13" d="M181 1102.7c-18.18,78.88 -27.45,159.8 -27.45,240.72 0,0.13 0,0.52 0,0.65l348.41 0c-6.55,-338.59 -93.44,-621.35 347.32,-966.03 -316.17,120.01 -604.26,383.59 -668.28,724.66z"/>
   <path class="fil13" d="M228.77 915.86c-19.34,44.65 -31.56,92.2 -35.99,140.64 -4.24,15.24 -8.17,30.64 -11.78,46.2 -18.18,78.88 -27.45,159.8 -27.45,240.72 0,0.13 0,0.52 0,0.65l839.76 0c88.48,-6.95 178.77,-10.34 267.79,-10.34 89.02,0 179.31,3.39 267.91,10.17l822.26 0.17c-0,-0.13 -0,-0.52 -0,-0.65 0,-80.92 -9.27,-161.84 -27.41,-240.67 -3.64,-15.57 -7.59,-30.97 -11.84,-46.23 -14.52,-47.73 -25.82,-98.4 -41.39,-146.92 -679.57,-251.44 -1366.78,-246.11 -2041.86,6.26z"/>
   <path class="fil2 str6" d="M153.54 1344.07c0,-0.13 0,-0.52 0,-0.65 0,-80.92 9.27,-161.84 27.41,-240.67 3.64,-15.57 7.59,-30.97 11.84,-46.23 12.17,-135.59 83.96,-247.41 179.91,-347.28 19.98,-15.99 23.97,-51.93 43.95,-71.91 67.92,-59.9 127.82,-119.85 203.72,-167.91 311.56,-199.73 722.98,-307.57 1054.51,-123.83 67.88,35.93 143.77,55.91 199.69,103.85 107.88,91.85 183.73,199.73 291.62,287.59 95.83,79.76 111.83,207.7 145.83,319.32 4.28,15.22 8.21,30.61 11.8,46.18 18.18,78.88 27.45,159.8 27.45,240.71 0,0.13 0,0.52 0,0.65l-2197.72 0.17z"/>
   <path class="fil12" d="M90.95 1064.08c769.95,-327.42 1557.95,-331.87 2333.69,0 73.59,31.48 73.17,587.14 0,561.7 -757.57,-263.74 -1558.75,-266.56 -2333.69,0 -92.18,31.69 -83.2,-526.31 0,-561.7z"/>
   <path class="fil5" d="M2298.88 1430.46c3.47,13.57 5.39,27.56 5.66,41.56 0.38,13.73 -0.46,27.37 -1.09,41.05l-1.51 20.44c-0.67,6.8 -1.34,13.6 -2.18,20.36 -1.68,13.56 -3.74,27.03 -6.67,40.34l-33.04 -5.92c1.85,-13.31 4.2,-26.49 6.88,-39.67l4.2 -19.77 4.2 -19.73c3.11,-13.14 5.75,-26.32 9.32,-39.46 3.52,-13.48 8.33,-26.63 14.25,-39.21l-0.01 0z"/>
   <path class="fil5" d="M2292.92 1005.48c6.43,26.2 11.64,52.98 15.24,79.75 1.8,13.39 3.27,26.82 4.58,40.26 1.3,13.43 2.06,26.95 2.77,40.42 1.09,26.95 1.55,53.9 0.25,80.81 -1.13,26.88 -4.65,53.89 -10.28,80.21 -4.2,-26.82 -7.01,-53.31 -9.74,-79.76 -2.73,-26.45 -5.08,-52.68 -8.61,-78.83 -1.64,-13.1 -3.48,-26.11 -5.46,-39.12 -1.97,-13.01 -4.2,-25.98 -6.38,-38.91 -4.49,-25.9 -9.66,-51.59 -15.07,-77.28l32.69 -7.54z"/>
   <path class="fil2 str7" d="M1952.36 919.56c31.74,179.96 28.17,375.66 0,582.35"/>
   <path class="fil2 str7" d="M1656.04 859.15c21.62,180.08 19.18,375.91 0,582.77"/>
   <path class="fil5" d="M1385.96 1064.25c5.07,28.7 8.43,57.74 9.93,86.78 1.68,28.96 2.18,57.93 2.73,86.94l0 43.49c0,14.48 0,28.96 -0.5,43.45 -0.63,28.96 -1.68,57.93 -3.65,86.85l-33.58 -1.68c0.92,-28.84 2.39,-57.64 3.95,-86.43l5.08 -86.35c1.93,-28.8 3.44,-57.64 5.67,-86.47 2.23,-28.84 5.51,-57.65 10.38,-86.57z"/>
   <path class="fil5" d="M1394.69 826.7c0.77,7.97 1.19,16.1 1.19,24.14 0,0.81 0,1.71 0,2.52 0,4.45 -0.21,8.9 -0.34,13.35l-0.56 13.39c-0.71,8.9 -1.34,17.84 -2.85,26.78 -1.52,9.36 -4.49,18.44 -8.73,26.9 -5.03,-8.08 -8.86,-16.88 -11.34,-26.06 -2.39,-8.73 -3.9,-17.46 -5.5,-26.24l-2.06 -13.1c-0.55,-4.41 -1.18,-8.77 -1.64,-13.14 -0.96,-8.61 -1.47,-17.32 -1.47,-26.01 0,-0.11 0,-0.28 0,-0.4l33.29 -2.14z"/>
   <path class="fil2 str7" d="M1108.53 825.74c1.47,180.5 1.3,376.41 0,583.49"/>
   <path class="fil2 str7" d="M838.28 853.15c-8.65,180.5 -7.68,376.66 0,583.95"/>
   <path class="fil5" d="M544.39 1211.93c4.95,23.16 8.91,46.89 11.39,70.45 2.64,23.47 4.58,46.89 6.93,70.31l6.34 70.23c1.97,23.38 3.9,46.8 5.25,70.27l-33.58 2.69c-2.44,-23.55 -3.9,-47.18 -4.95,-70.82 -0.55,-11.84 -0.84,-23.67 -1.18,-35.51l-0.42 -35.51c0,-23.67 0.21,-47.39 1.47,-71.07 1.11,-23.81 4.18,-47.66 8.76,-71.03l-0 -0.01z"/>
   <path class="fil5" d="M574.24 911.92c-1.05,15.32 -2.69,30.56 -4.41,45.8l-2.77 22.88 -3.02 22.88c-2.27,15.28 -3.99,30.56 -6.72,45.88 -2.61,15.55 -6.58,30.96 -11.76,45.84 -4.35,-15.24 -7.17,-30.95 -8.37,-46.76 -1.26,-15.62 -1.34,-31.15 -1.6,-46.76l0 -23.34c0.25,-7.81 0.46,-15.57 0.84,-23.34 0.84,-15.57 2.06,-31.1 4.2,-46.55l33.61 3.48z"/>
   <path class="fil2 str7" d="M256.81 997c-28.8,180.5 -25.56,377.17 0,584.74"/>
   <path class="fil5" d="M2306.18 1392.14c8.69,0 15.74,-7.05 15.74,-15.74 0,-8.69 -7.05,-15.74 -15.74,-15.74 -8.69,0 -15.74,7.05 -15.74,15.74 0.11,8.64 7.1,15.63 15.74,15.74l0 0z"/>
   <path class="fil2 str8" d="M2328.06 1000.91c41.98,179.83 37.15,375.4 0,581.98"/>
   <path class="fil2 str8" d="M2003.65 911.16c31.74,179.96 28.17,375.66 0,582.39"/>
   <path class="fil2 str8" d="M1707.21 850.08c21.62,180.08 19.18,375.91 0,582.77"/>
   <path class="fil2 str8" d="M1428.81 818.05c11.5,180.17 10.24,376.16 0,583.15"/>
   <path class="fil2 str8" d="M1159.07 815.29c1.43,180.29 1.3,376.41 0,583.49"/>
   <path class="fil2 str8" d="M888.48 842.02c-8.65,180.5 -7.68,376.66 0,583.95"/>
   <path class="fil2 str8" d="M607.53 898.57c-18.72,180.5 -16.79,376.92 0,584.37"/>
   <path class="fil2 str8" d="M306.68 985.21c-28.8,180.5 -25.56,377.17 0,584.74"/>
   <path class="fil2 str6" d="M90.95 1064.08c769.95,-327.42 1557.95,-331.87 2333.69,0 73.59,31.48 73.17,587.14 0,561.7 -757.57,-263.74 -1558.75,-266.56 -2333.69,0 -92.18,31.69 -83.2,-526.31 0,-561.7z"/>
   <path class="fil5" d="M936.42 758.87c53.45,-11.11 107.88,-19.37 162.13,-24.09 13.64,-1.18 27.24,-2.35 40.89,-3.27l40.93 -2.35c13.68,-0.59 27.33,-0.84 41.01,-1.26l41.01 -0.55c54.57,0 109.35,2.64 163.71,7.72 54.2,4.84 108.74,13.15 161.94,24.45 -54.57,-1.22 -109.14,-3.32 -163.21,-4.74 -54.07,-1.43 -108.47,-2.06 -162.66,-2.18l-40.6 -0.03c-13.56,0 -27.12,0.5 -40.68,0.46l-40.63 0.59c-13.56,0.46 -27.12,0.67 -40.72,0.84 -54.15,1.39 -108.47,3.32 -163.13,4.41z"/>
   <path class="fil6" d="M602.91 549.44c29.58,-23.59 61.22,-45.34 93.98,-64.35 32.66,-19.39 66.37,-37.11 100.75,-53.14 8.4,-4.2 17.34,-7.81 26.03,-11.67 8.69,-3.86 17.34,-7.81 26.19,-11.21 17.71,-6.93 35.26,-14.19 53.31,-20.15 35.64,-12.72 72.45,-23.4 109.37,-31.52 -8.69,3.82 -17.46,7.47 -26.24,11.04 -8.77,3.57 -17.59,6.88 -26.24,10.75 -17.42,7.3 -34.88,14.36 -52.18,21.91l-12.97 5.58c-4.2,1.8 -8.73,3.57 -13.01,5.54l-25.82 11.46c-8.65,3.69 -17.17,7.68 -25.77,11.54 -8.61,3.86 -17.17,7.72 -25.61,11.88l-25.61 11.88c-8.4,4.2 -16.79,8.4 -25.4,12.59 -16.79,8.14 -33.58,16.79 -50.58,25.19 -33.56,16.91 -66.97,34.42 -100.22,52.68z"/>
  </g>
  <circle class="fil5" cx="1856.85" cy="1729.91" r="45.88"/>
  <g id="_2324787417008">
   <g>
    <g>
     <path class="fil14 str9" d="M1509.36 2005.26c-41.39,-15.54 -82.16,20.63 -73.98,96.18 9.42,87.06 34.61,317.62 55.38,421.98 17.42,87.47 49.65,189.16 318.84,160.03 288.42,-31.21 294.37,-245.84 353.35,-330.03 37.43,-53.43 59.78,-101.31 55.59,-134.94 -1.87,-20.37 -25.06,-38.25 -48.04,-46.8 -42.83,-13.74 -93.11,42.69 -97.98,65.08 -6.49,29.88 -9.86,88.6 -69.63,75.62 -7.48,-1.63 -14.04,-7.46 -19.81,-16.57 0.43,0.03 0.87,0.05 1.3,0.07 -19.97,-28.9 -30.84,-96.13 -37.55,-165.92 -6.04,-63.77 -6.65,-127.59 -13.56,-191.44 -8.38,-77.49 -93.94,-107.27 -124.29,-24.47 -1.49,-0.62 -3.16,-0.89 -4.88,-0.7 -0.32,0.04 -0.64,0.08 -0.94,0.15 -2.13,-9.98 -4.67,-18.95 -7.56,-26.98 -21.69,-63.72 -64.33,-58.14 -63.81,-57.45 0.01,0.02 0.02,0.03 0.03,0.04 -34.07,1.61 -65.92,38.77 -64.1,84.77 -21.69,-41.68 -59.26,-40.17 -56.79,-37.05 -44.77,-1.81 -92.85,45.98 -61.69,151.64 -0.05,0 -0.1,0.01 -0.15,0.01 -2.19,0.24 -4.13,1.17 -5.63,2.54 -0.01,-0.02 -0.03,-0.04 -0.04,-0.06 -7.94,-13.31 -18.97,-23.49 -34.04,-25.71z"/>
     <path class="fil14 str9" d="M2218.52 2218.37c-0.17,-1.34 -0.39,-2.66 -0.65,-3.96 -3.91,-16.86 -21.93,-31.62 -41.19,-40.19l-1.11 -0.32m-192.5 121.92c-18.87,-29.78 -29.34,-94.58 -35.89,-162.05l-0.2 -2.07 -0.17 -1.72 -0.1 -1.08m-13.3 -188.81c-4.34,-38.44 -29.53,-67.24 -57.08,-73.74m-67.36 47.74c-1.29,3.51 -2.5,7.23 -3.6,11.17 -0.68,-4.06 -1.43,-7.97 -2.23,-11.73m-7.52 -26.87c-15.24,-42.49 -40.07,-58.64 -63.82,-57.52m-64.1 84.78c0.21,5.32 0.87,10.76 2.03,16.28 -7.14,-33.94 -32.42,-52.28 -58.85,-53.34m-61.66 151.63c1.99,6.76 4.3,13.75 6.97,20.99 -4.02,-6.92 -8.3,-13.06 -12.75,-18.44m-0.04 -0.05c-10.68,-12.86 -22.39,-21.35 -34.05,-25.72"/>
     <path class="fil15" d="M1809.6 2683.45c288.42,-31.21 294.37,-245.84 353.35,-330.03 58.97,-84.19 80.54,-154.61 19.73,-177.21 -60.8,-22.6 -103.67,30.67 -110.16,60.55 -6.49,29.88 -9.86,88.6 -69.63,75.62 -59.77,-12.99 -61.09,-294.91 -69.41,-371.82 -8.32,-76.91 -100.05,-115.62 -128.1,-15.32 -27.3,-162.4 -155.65,-90.15 -135.64,4.95 -20.01,-95.1 -182.41,-67.8 -113.54,119.28 -47.82,-82.37 -132.26,-53.77 -120.82,51.98 9.42,87.06 34.61,317.62 55.38,421.98 17.42,87.47 49.65,189.16 318.84,160.03z"/>
     <path class="fil16" d="M1582.1 2263.29c-33.09,-97.07 -46.11,-443.46 2.22,3.47 11.6,-3.65 23.13,-7.84 35.31,-11.96 21.64,-7.32 53.78,-16.44 77.35,-19.88 -6.61,-46.53 -31.37,-315.41 -62.04,-352 30.25,16.91 29.27,27.41 38.65,56.98 5.26,-0.34 39.59,267.27 43.7,292.61 34.41,-3.23 76.04,-6.97 106.5,-5.09 -7.63,-55.02 -20.1,-339.56 -51.05,-380.42 33.47,43.57 32.48,66.16 33.59,76.4l34.16 306.2c-37.44,-8.28 -156.3,2.77 -197.33,16.63 -18.15,6.23 -47.15,18.99 -61.04,17.08zm402.26 32.6c-3.94,-0.2 -8.07,-0.64 -12.63,-1.64 -59.76,-12.99 -61.09,-294.91 -69.41,-371.83 -2.65,-24.49 -13.77,-45.07 -28.58,-58.56 28.58,5.39 55.2,34.89 59.5,74.67 7.37,68.11 9.29,296.82 51.12,357.36zm-205.91 369.43c288.42,-31.21 294.38,-245.84 353.35,-330.03 50.18,-71.63 73.06,-133.17 41.38,-163.9 3.05,0.78 6.12,1.62 9.27,2.8 60.81,22.6 39.24,93.02 -19.73,177.21 -58.98,84.19 -64.93,298.82 -353.35,330.03 -102.24,11.06 -198.38,-2.09 -246.59,-31.68 46.1,20.24 133.4,24.47 215.67,15.57z"/>
     <path class="fil17" d="M1915.37 2658.21l-214 53.72 60.08 542.44c73.29,-7.64 198.9,-17.41 206.36,-24.48 7.46,-7.07 -32.82,-390.97 -52.44,-571.69z"/>
     <polygon class="fil18" points="1906.47,2687.94 1738.66,2709.3 1783.56,3218.57 1949.82,3206.18 "/>
    </g>
    <rect class="fil18" transform="matrix(-0.892495 -0.457679 -0.457679 0.892495 1731.56 2349.94)" width="88.36" height="73.12"/>
    <rect class="fil18" transform="matrix(-1.30243 0.265696 0.445299 1.07798 1603.89 2358.47)" width="88.36" height="73.12"/>
   </g>
   <g>
    <g>
     <path class="fil14 str9" d="M1009.82 1618.74c41.39,-15.54 82.16,20.63 73.98,96.18 -9.42,87.06 -34.61,317.62 -55.38,421.98 -17.42,87.47 -49.65,189.16 -318.84,160.03 -288.42,-31.21 -294.37,-245.84 -353.35,-330.03 -37.43,-53.43 -59.78,-101.31 -55.59,-134.94 1.87,-20.37 25.06,-38.25 48.04,-46.8 42.83,-13.74 93.11,42.69 97.98,65.08 6.49,29.88 9.86,88.6 69.63,75.62 7.48,-1.63 14.04,-7.46 19.81,-16.57 -0.43,0.03 -0.87,0.05 -1.3,0.07 19.97,-28.9 30.84,-96.13 37.55,-165.92 6.04,-63.77 6.65,-127.59 13.56,-191.44 8.38,-77.49 93.94,-107.27 124.29,-24.47 1.49,-0.62 3.16,-0.89 4.88,-0.7 0.32,0.04 0.64,0.08 0.94,0.15 2.13,-9.98 4.67,-18.95 7.56,-26.98 21.69,-63.72 64.33,-58.14 63.81,-57.45 -0.01,0.02 -0.02,0.03 -0.03,0.04 34.07,1.61 65.92,38.77 64.1,84.77 21.69,-41.68 59.26,-40.17 56.79,-37.05 44.77,-1.81 92.85,45.98 61.69,151.64 0.05,0 0.1,0.01 0.15,0.01 2.19,0.24 4.13,1.17 5.63,2.54 0.01,-0.02 0.03,-0.04 0.04,-0.06 7.94,-13.31 18.97,-23.49 34.04,-25.71z"/>
     <path class="fil14 str9" d="M300.66 1831.84c0.17,-1.34 0.39,-2.66 0.65,-3.96 3.91,-16.86 21.93,-31.62 41.19,-40.19l1.11 -0.32m192.5 121.92c18.87,-29.78 29.34,-94.58 35.89,-162.05l0.2 -2.07 0.17 -1.72 0.1 -1.08m13.3 -188.81c4.34,-38.44 29.53,-67.24 57.08,-73.74m67.36 47.74c1.29,3.51 2.5,7.23 3.6,11.17 0.68,-4.06 1.43,-7.97 2.23,-11.73m7.52 -26.87c15.24,-42.49 40.07,-58.64 63.82,-57.52m64.1 84.78c-0.21,5.32 -0.87,10.76 -2.03,16.28 7.14,-33.94 32.42,-52.28 58.85,-53.34m61.66 151.63c-1.99,6.76 -4.3,13.75 -6.97,20.99 4.02,-6.92 8.3,-13.06 12.75,-18.44m0.04 -0.05c10.68,-12.86 22.39,-21.35 34.05,-25.72"/>
     <path class="fil15" d="M709.58 2296.93c-288.42,-31.21 -294.37,-245.84 -353.35,-330.03 -58.97,-84.19 -80.54,-154.61 -19.73,-177.21 60.8,-22.6 103.67,30.67 110.16,60.55 6.49,29.88 9.86,88.6 69.63,75.62 59.77,-12.99 61.09,-294.91 69.41,-371.82 8.32,-76.91 100.05,-115.62 128.1,-15.32 27.3,-162.4 155.65,-90.15 135.64,4.95 20.01,-95.1 182.41,-67.8 113.54,119.28 47.82,-82.37 132.26,-53.77 120.82,51.98 -9.42,87.06 -34.61,317.62 -55.38,421.98 -17.42,87.47 -49.65,189.16 -318.84,160.03z"/>
     <path class="fil16" d="M937.07 1876.77c33.09,-97.07 46.11,-443.46 -2.22,3.47 -11.6,-3.65 -23.13,-7.84 -35.31,-11.96 -21.64,-7.32 -53.78,-16.44 -77.35,-19.88 6.61,-46.53 31.37,-315.41 62.04,-352 -30.25,16.91 -29.27,27.41 -38.65,56.98 -5.26,-0.34 -39.59,267.27 -43.7,292.61 -34.41,-3.23 -76.04,-6.97 -106.5,-5.09 7.63,-55.02 20.1,-339.56 51.05,-380.42 -33.47,43.57 -32.48,66.16 -33.59,76.4l-34.16 306.2c37.44,-8.28 156.3,2.77 197.33,16.63 18.15,6.23 47.15,18.99 61.04,17.08zm-402.26 32.6c3.94,-0.2 8.07,-0.64 12.63,-1.64 59.76,-12.99 61.09,-294.91 69.41,-371.83 2.65,-24.49 13.77,-45.07 28.58,-58.56 -28.58,5.39 -55.2,34.89 -59.5,74.67 -7.37,68.11 -9.29,296.82 -51.12,357.36zm205.91 369.43c-288.42,-31.21 -294.38,-245.84 -353.35,-330.03 -50.18,-71.63 -73.06,-133.17 -41.38,-163.9 -3.05,0.78 -6.12,1.62 -9.27,2.8 -60.81,22.6 -39.24,93.02 19.73,177.21 58.98,84.19 64.93,298.82 353.35,330.03 102.24,11.06 198.38,-2.09 246.59,-31.68 -46.1,20.24 -133.4,24.47 -215.67,15.57z"/>
     <polygon class="fil17" points="582.75,2298.79 817.81,2325.4 752.44,2956.41 517.37,2929.8 "/>
     <polygon class="fil18" points="612.71,2301.42 780.52,2322.77 722.48,2953.79 554.67,2932.44 "/>
    </g>
    <rect class="fil18" transform="matrix(0.892495 -0.457679 0.457679 0.892495 787.615 1963.41)" width="88.36" height="73.12"/>
    <rect class="fil18" transform="matrix(1.30243 0.265696 -0.445299 1.07798 915.289 1971.94)" width="88.36" height="73.12"/>
   </g>
   <path class="fil19" d="M1954.17 3205.92l-24.59 -266.66c-115.09,-20.57 -168.14,17.73 -168.14,17.73l21.5 266.85c1.47,18.28 172.99,1.13 171.24,-17.93z"/>
   <path class="fil19" d="M553.24 2933.87l23.11 -237.2c116.14,-26.69 166.26,38.22 166.26,38.22l-18.13 216.91c-1.53,18.28 -173.09,1.12 -171.24,-17.93z"/>
   <path class="fil20" d="M1879.37 2933.19c18.95,2.43 51.63,4.57 51.8,6.55l23 266.18c1.18,13.6 -52.38,21.96 -77.31,22.2 -6.05,0.06 -0.11,-149.83 2.51,-294.92z"/>
   <path class="fil21" d="M1890.41 2934.21c-2.11,-1.64 1.66,-141.16 2.57,-244.55l13.48 -1.72 23.12 251.32c-18.17,-3.46 -37.97,-4.13 -39.17,-5.06z"/>
   <path class="fil21" d="M627.89 2690.25c2.11,-1.64 -0.79,-283.73 -1.7,-387.12l-13.48 -1.72 -36.41 395.23c18.17,-3.46 50.39,-5.46 51.59,-6.39z"/>
   <path class="fil20" d="M628.03 2690.24c-18.95,2.43 -51.6,4.57 -51.8,6.55l-22.99 236.47c-1.32,13.59 49.68,22.26 74.61,22.5 6.06,0.06 2.8,-120.42 0.18,-265.51z"/>
  </g>
 </g>
</svg>
