<?xml version="1.0" encoding="UTF-8"?>
<!DOCTYPE svg PUBLIC "-//W3C//DTD SVG 1.1//EN" "http://www.w3.org/Graphics/SVG/1.1/DTD/svg11.dtd">
<!-- Creator: CorelDRAW -->
<svg xmlns="http://www.w3.org/2000/svg" xml:space="preserve" width="176.827mm" height="255.832mm" version="1.1" style="shape-rendering:geometricPrecision; text-rendering:geometricPrecision; image-rendering:optimizeQuality; fill-rule:evenodd; clip-rule:evenodd"
viewBox="0 0 6381.4 9232.54"
 xmlns:xlink="http://www.w3.org/1999/xlink"
 xmlns:xodm="http://www.corel.com/coreldraw/odm/2003">
 <defs>
  <style type="text/css">
   <![CDATA[
    .str6 {stroke:#592D3D;stroke-width:57.29;stroke-miterlimit:22.9256}
    .str1 {stroke:#592D3D;stroke-width:114.58;stroke-miterlimit:22.9256}
    .str4 {stroke:white;stroke-width:229.16;stroke-miterlimit:22.9256}
    .str3 {stroke:white;stroke-width:152.77;stroke-miterlimit:22.9256}
    .str7 {stroke:#592D3D;stroke-width:143.73;stroke-miterlimit:22.9256}
    .str8 {stroke:#592D3D;stroke-width:85.55;stroke-miterlimit:22.9256}
    .str9 {stroke:#C46565;stroke-width:85.55;stroke-miterlimit:22.9256}
    .str0 {stroke:#592D3D;stroke-width:128.33;stroke-miterlimit:22.9256}
    .str5 {stroke:#592D3D;stroke-width:114.58;stroke-linecap:round;stroke-miterlimit:22.9256}
    .str2 {stroke:#592D3D;stroke-width:114.58;stroke-linecap:square;stroke-miterlimit:22.9256}
    .fil3 {fill:none;fill-rule:nonzero}
    .fil8 {fill:black;fill-rule:nonzero}
    .fil0 {fill:#592D3D;fill-rule:nonzero}
    .fil9 {fill:#61DAFB;fill-rule:nonzero}
    .fil2 {fill:#67B7D6;fill-rule:nonzero}
    .fil1 {fill:#85C5E5;fill-rule:nonzero}
    .fil13 {fill:#C46565;fill-rule:nonzero}
    .fil12 {fill:#D67070;fill-rule:nonzero}
    .fil7 {fill:#E2E2E2;fill-rule:nonzero}
    .fil11 {fill:#F28195;fill-rule:nonzero}
    .fil5 {fill:#F3AB98;fill-rule:nonzero}
    .fil4 {fill:#FDD2B2;fill-rule:nonzero}
    .fil6 {fill:white;fill-rule:nonzero}
    .fil10 {fill:black;fill-rule:nonzero;fill-opacity:0.101961}
   ]]>
  </style>
 </defs>
 <g id="Capa_x0020_1">
  <metadata id="CorelCorpID_0Corel-Layer"/>
  <g id="_2762716613344">
   <g>
    <path class="fil0 str0" d="M231.71 4224.84c1961.53,833.61 3969.04,845.48 5945.32,0 187.47,-80.21 186.4,-1495.79 0,-1430.99 -1929.98,671.91 -3971.07,679.08 -5945.32,0 -234.84,-81.17 -211.96,1340.41 0,1430.99z"/>
   </g>
   <path class="fil1" d="M3246.98 959.07c-1586.37,0 -2872.44,1285.98 -2872.44,2872.44l0 1560.49c90.52,100.45 242.24,186.86 439.22,259.62l127.19 -379.74 138.07 462.71c1458.61,388.05 4456.32,241.38 5040.4,-342.6l-0 -1560.49c0,-1586.46 -1286.07,-2872.44 -2872.44,-2872.44z"/>
   <path class="fil2" d="M775.48 5637.1c12.61,4.87 25.3,9.55 38.19,14.51l127.28 -379.74 138.07 462.71c431.78,114.58 998.28,182.85 1597.25,206.53l260.48 -250.36 -2228.69 -1677.08c0,0 -58.63,968.68 67.41,1623.42z"/>
   <path class="fil2" d="M4349.73 4236.64l241.67 1630.48c332.28,-41.44 636.11,-98.06 889.05,-169.29l-0 0c0,0 315.96,-352.24 281.87,-1684.14 -34.09,-1331.9 -1412.58,222.95 -1412.58,222.95z"/>
   <path class="fil3 str1" d="M3246.98 959.07c-1586.37,0 -2872.44,1285.98 -2872.44,2872.44l0 1560.49c90.52,100.45 242.24,186.86 439.22,259.62l127.19 -379.74 138.07 462.71c1458.61,388.05 4456.32,241.38 5040.4,-342.6l-0 -1560.49c0,-1586.46 -1286.07,-2872.44 -2872.44,-2872.44z"/>
   <path class="fil4" d="M4280.98 6203.03c866.61,0 687.48,1090.81 695.79,2303.83l-695.79 0 0 -2303.83z"/>
   <path class="fil5" d="M4498.11 6901.5l-217.13 364.08 108.66 1241.29 303.25 0c7.35,-1721.29 -194.79,-1605.37 -194.79,-1605.37z"/>
   <path class="fil4" d="M683.63 3732.68c0,-1406.67 1140.36,-2547.03 2547.03,-2547.03 1406.67,0 2547.03,1140.36 2547.03,2547.03 0,0.56 0,1.8 0,2.43 0,766.53 -346.34,1493.03 -941.87,1975.29 -52.31,42.48 -106.25,82.85 -161.83,121.11 -574.43,364.65 -1300.1,364.65 -1955.22,306.31 -63.59,-9.55 -126.99,-21.58 -189.92,-35.42 -251.41,-55.38 -494.8,-140.84 -719.66,-265.44 -55.57,-34.25 -109.46,-71.23 -161.65,-110.95 -52.33,-39.77 -102.82,-82.82 -150.75,-127.72 -45.53,-42.23 -89.46,-86.1 -131.79,-131.61 -437.47,-469.59 -681.37,-1088.49 -681.37,-1730.64 0,-0.93 0,-2.48 0,-3.41l-0 0.06z"/>
   <path class="fil5" d="M1030.81 5016.74c6.68,11.46 13.27,22.92 20.15,34.18 4.11,6.87 8.4,13.56 12.7,20.43 6.3,10.22 12.61,20.43 19.1,30.46 4.58,7.26 9.55,14.32 13.94,21.39 6.3,9.55 12.61,19.1 19.1,28.65 4.87,7.26 9.55,14.51 14.9,21.77 6.3,9.55 12.61,18.33 19.1,27.5 5.16,7.35 10.5,14.61 15.76,21.96 5.25,7.35 12.79,17.67 19.1,26.45 6.3,8.78 10.98,14.61 16.52,21.87 5.54,7.26 13.08,17.19 19.77,25.78 6.68,8.59 11.36,14.42 17.09,21.58 5.73,7.16 13.46,16.81 20.24,25.11 6.78,8.31 11.74,14.23 17.67,21.29 5.92,7.07 13.75,16.42 20.72,24.54 6.97,8.12 12.13,14.03 18.24,21.01l21.2 23.87c6.21,6.97 12.51,13.75 19.1,20.62 8.21,8.98 16.52,17.86 24.83,26.64l11.55 12.22c12.32,12.79 24.73,25.59 37.33,38.19l2.48 2.58c12.32,12.22 24.83,24.35 37.33,36.38l15.08 14.32c9.07,8.5 18.14,17 27.31,25.4l11.08 10.12c9.55,8.98 19.96,17.76 29.98,26.54 31.19,27.17 63.01,53.24 95.48,78.19 52.13,39.72 106.02,76.71 161.65,110.95 224.86,124.13 467.87,210.06 719.66,265.44 62.92,13.84 126.32,25.78 189.92,35.42 401.99,35.81 830.71,49.46 1234.41,-29.41 -641.94,-188.96 -3724.72,-1299.06 -1784.4,-4691.21l0 0c-25.97,11.93 -51.56,24.25 -76.96,37.05l-5.63 2.77c-11.65,5.82 -23.3,11.84 -34.85,17.95l-9.55 5.06c-35.9,19.1 -71.42,38.86 -106.27,59.49l-8.59 5.06c-11.08,6.59 -22.06,13.27 -33.04,20.05l-8.31 5.16c-34.12,21.32 -67.7,43.38 -100.74,66.17l-10.31 7.16c-10.41,7.26 -20.62,14.51 -30.84,21.87l-6.3 4.49c-20.82,15.21 -41.38,30.62 -61.68,46.21l-5.92 4.58c-9.55,7.45 -19.1,15.08 -28.65,22.82l-11.17 8.98c-9.55,7.73 -19.1,15.47 -28.65,23.39l0 0c-20.15,16.71 -40.01,33.9 -59.58,51.27l-10.88 9.55 -25.68 23.39 -12.41 11.27c-27.24,25.46 -53.88,51.47 -79.92,78.01l-13.18 13.46c-7.54,7.83 -15.08,15.66 -22.53,23.58 -4.39,4.68 -8.78,9.55 -13.08,14.13 -13.11,14 -26.04,28.2 -38.77,42.58 -4.3,4.87 -8.69,9.55 -12.98,14.71 -6.78,7.73 -13.46,15.56 -20.15,23.39l-14.42 17.09c-6.49,7.73 -12.98,15.47 -19.1,23.3 -5.16,6.3 -10.31,12.7 -15.37,19.1 -10.22,12.7 -20.24,25.4 -30.17,38.19 -5.16,6.68 -10.31,13.37 -15.37,20.15 -5.06,6.78 -11.46,15.18 -17.09,22.92 -5.63,7.73 -10.22,13.84 -15.18,20.82 -4.97,6.97 -10.79,14.8 -16.04,22.25 -9.04,12.73 -17.95,25.62 -26.73,38.67 -4.77,6.97 -9.55,14.13 -14.23,21.2 -4.68,7.07 -10.5,15.85 -15.66,23.87l-14.23 22.06 -16.04 25.88c-4.11,6.59 -8.21,13.18 -12.22,19.77 -8.5,13.94 -16.71,27.98 -24.92,42.01l-11.65 20.62c-5.16,9.07 -10.31,18.24 -15.37,27.41 -3.82,6.97 -7.64,13.94 -11.36,20.91 -6.11,11.36 -12.13,22.82 -18.14,34.28l-11.46 22.34c-6.11,12.22 -12.22,24.35 -18.24,36.67 -3.15,6.59 -6.4,13.27 -9.55,19.96 -4.97,10.41 -9.55,20.91 -14.61,31.41 -2.96,6.3 -5.82,12.61 -8.69,19.1 -7.06,15.72 -13.97,31.63 -20.71,47.73 -2.1,4.97 -4.11,10.03 -6.21,14.99 -5.06,12.13 -10.03,24.25 -14.9,36.47 -2.58,6.4 -5.06,12.79 -7.54,19.1 -4.77,12.03 -9.55,24.16 -13.84,36.28 -2.01,5.25 -4.01,10.5 -5.92,15.76 -5.98,16.74 -11.87,33.48 -17.67,50.22l-5.35 16.23c-4.2,12.73 -8.31,25.46 -12.32,38.19l-5.73 18.24c-4.49,14.71 -8.88,29.41 -13.08,44.21 -0.96,3.15 -1.91,6.3 -2.77,9.55 -4.97,17.57 -9.74,35.2 -14.32,52.89 -1.53,5.63 -2.87,11.36 -4.3,17 -3.34,13.27 -6.59,26.54 -9.55,39.91l-4.01 16.71c-4.11,18.14 -8.12,36.28 -11.84,54.52l-1.43 7.35c-3.24,16.23 -6.42,32.47 -9.55,48.7 -1.05,5.82 -2.01,11.55 -3.06,17.38 -2.48,14.23 -4.87,28.65 -7.07,42.97 -0.77,4.87 -1.62,9.55 -2.29,14.51 -2.87,18.62 -5.44,37.33 -7.92,56.15l-1.43 12.41c-1.91,15.18 -3.63,30.46 -5.25,45.74 -0.57,5.73 -1.24,11.46 -1.82,17.28 -1.53,16.04 -2.96,32.18 -4.3,48.32 0,3.34 -0.57,6.59 -0.77,9.55 -1.4,19.09 -2.63,38.35 -3.72,57.76 0,5.06 0,10.22 -0.67,15.28 -0.64,15.02 -1.21,30.02 -1.72,44.98 0,5.63 0,11.27 0,16.9 0,19.57 -0.77,39.24 -0.77,58.91 0,0 0,0.67 0,0.96 0,21.2 0,42.21 0.77,63.21 0,7.26 0.57,14.51 0.77,21.77 0.48,14.03 0.96,28.07 1.62,42.11 0,8.5 1.05,16.9 1.53,25.4 0.77,12.7 1.43,25.4 2.39,38.19 0.67,9.55 1.53,18.05 2.29,27.02 1.05,12.03 2.01,24.06 3.25,36 0.86,9.55 2.01,18.52 2.96,27.78 1.34,11.55 2.58,23.2 4.01,34.76 1.15,9.55 2.48,19.1 3.72,28.17 1.53,11.27 3.06,22.63 4.77,33.9 1.43,9.55 2.96,19.1 4.49,28.65 1.72,11.08 3.53,22.25 5.44,33.32 1.72,9.55 3.44,19.1 5.25,28.65 2.01,10.98 4.11,21.96 6.21,32.85 2.1,10.89 3.92,19.1 5.92,28.65 2.29,10.88 4.58,21.67 7.07,32.47 2.48,10.79 4.2,19.1 6.49,27.98 2.48,10.79 5.16,21.48 7.83,32.08 2.67,10.6 4.68,18.62 7.07,27.78 2.87,10.69 5.73,21.29 8.69,31.89 2.48,9.55 5.06,18.33 7.73,27.41 3.06,10.6 6.21,21.1 9.55,31.61 3.34,10.51 5.54,18.05 8.4,27.12 2.86,9.07 6.68,20.91 10.12,31.32 3.44,10.41 5.92,17.86 8.98,26.73 3.63,10.41 7.26,20.82 10.98,31.22 3.15,8.69 6.21,17.47 9.55,26.16l11.84 31.22c3.34,8.5 6.59,17.09 9.55,25.59 4.2,10.41 8.5,20.91 12.79,31.32 3.44,8.21 6.78,16.52 10.31,24.73 4.49,10.69 9.55,21.2 13.84,31.8 3.53,7.83 6.97,15.76 10.5,23.58 4.97,11.08 10.22,21.96 15.28,32.85l10.31 21.96c5.82,12.03 11.84,23.87 17.86,35.81 3.06,6.02 5.92,12.13 9.07,18.14 18.33,35.7 37.42,70.94 57.29,105.69 2.77,4.49 6.3,10.31 9.74,16.14z"/>
   <path class="fil3 str1" d="M683.63 3732.68c0,-1406.67 1140.36,-2547.03 2547.03,-2547.03 1406.67,0 2547.03,1140.36 2547.03,2547.03 0,0.56 0,1.8 0,2.43 0,766.53 -346.34,1493.03 -941.87,1975.29 -52.31,42.48 -106.25,82.85 -161.83,121.11 -574.43,364.65 -1300.1,364.65 -1955.22,306.31 -63.59,-9.55 -126.99,-21.58 -189.92,-35.42 -251.41,-55.38 -494.8,-140.84 -719.66,-265.44 -55.57,-34.25 -109.46,-71.23 -161.65,-110.95 -52.33,-39.77 -102.82,-82.82 -150.75,-127.72 -45.53,-42.23 -89.46,-86.1 -131.79,-131.61 -437.47,-469.59 -681.37,-1088.49 -681.37,-1730.64 0,-0.93 0,-2.48 0,-3.41l-0 0.06z"/>
   <path class="fil4" d="M2143.29 6203.03c-866.7,0 -687.48,1090.81 -695.79,2303.83l695.79 0 0 -2303.83z"/>
   <path class="fil5" d="M1962.92 6901.5l217.41 364.08 -108.76 1241.29 -302.97 0c-7.73,-1721.29 194.31,-1605.37 194.31,-1605.37z"/>
   <path class="fil4" d="M4371.4 9175.25l-2281.49 0c-69.98,-0.05 -126.7,-56.81 -126.7,-126.8 0,0 0,0 0,0l-0 -2718.61c0,-0 0,-0 0,-0 0,-69.99 56.72,-126.76 126.71,-126.8l2226.96 0c124.99,0 181.42,73.14 181.42,189.82l0 2655.21c0,0.12 0,0.26 0,0.38 0,70.02 -56.78,126.8 -126.8,126.8 -0.03,0 -0.06,0 -0.09,0z"/>
   <path class="fil5" d="M4462.87 6278.46c-9.5,-11.66 -17.59,-24.55 -23.97,-38.19 -22.91,-17.96 -50.21,-29.54 -79.05,-33.52 -13.96,-2.17 -28.1,-3.25 -42.21,-3.25 -0.23,0 -0.54,0 -0.78,0l-2226.96 0c-69.79,0.04 -126.44,56.52 -126.7,126.32 276.9,99.5 795.28,155.06 1267.45,155.06 602.12,0.01 996.66,-89.27 1232.21,-206.43z"/>
   <path class="fil3 str2" d="M4280.98 6203.03c866.61,0 687.48,1090.81 695.79,2303.83l-478.66 0"/>
   <path class="fil3 str2" d="M2143.29 6203.03c-866.7,0 -687.48,1090.81 -695.79,2303.83l478.09 0"/>
   <line class="fil3 str1" x1="2089.91" y1="6203.99" x2="4316.88" y2= "6203.03" />
   <path class="fil5" d="M2089.91 9175.25l1113.53 0c-1042.2,0 -963.53,-2207.39 -1240.24,-2207.39l0 2080.21c0,0.12 0,0.26 0,0.38 0,69.99 56.72,126.76 126.71,126.8l-0.01 0z"/>
   <path class="fil0" d="M1905.92 7178.21c-1.82,-35.04 -1.05,-70.08 0.48,-105.03 1.53,-34.95 4.49,-70.18 8.21,-105.03 1.91,-17.57 3.82,-35.04 6.21,-52.61 2.39,-17.57 4.68,-35.04 8.12,-52.61 6.73,-36.32 18.31,-71.7 34.28,-105.03 15.97,33.32 27.56,68.7 34.31,105.01 3.44,17.57 5.92,35.04 8.12,52.61 2.2,17.57 4.3,35.04 6.21,52.61 3.63,35.04 6.49,70.08 8.12,105.03 1.62,34.95 2.39,70.08 0.57,105.03l-114.61 0.01z"/>
   <path class="fil3 str1" d="M4498.11 7265.58l0 76.39c2.48,324.64 2.48,658.84 0,981.09 0,27.41 0,54.62 0,81.45l0 643.66c0,0.08 0,0.19 0,0.28 0,69.99 -56.72,126.76 -126.71,126.8l-2281.49 0c-69.98,-0.05 -126.7,-56.81 -126.7,-126.8 0,0 0,0 0,0l-0 -555.71c0,-23.97 0,-48.41 0,-73.05 -2.39,-332.95 -2.39,-667.14 0,-1005.44l0 -236.04"/>
   <path class="fil0" d="M4440.82 7265.58c-1.82,-39.82 -0.96,-79.73 0.57,-119.64 1.53,-39.91 4.49,-79.73 8.12,-119.64 1.91,-19.96 3.92,-39.91 6.21,-59.87 2.29,-19.95 4.68,-39.82 8.12,-59.77 6.6,-41.06 18.22,-81.33 34.28,-119.67 16.06,38.34 27.68,78.6 34.29,119.64 3.44,19.96 5.92,39.91 8.12,59.77 2.2,19.86 4.3,39.91 6.21,59.87 3.63,39.91 6.59,79.73 8.12,119.64 1.53,39.91 2.39,79.82 0.57,119.64l-114.6 0.03z"/>
   <path class="fil3 str1" d="M3250.42 7350.18c0,365.4 -296.35,661.68 -661.8,661.68 -365.44,0 -661.8,-296.36 -661.8,-661.8 0,-104.39 24.72,-207.4 72.07,-300.4"/>
   <g>
    <path class="fil4" d="M1998.91 7049.69c36.19,-70.6 84.76,-134.28 143.24,-187.81l-143.24 187.81zm0 0l0 0 0 0z"/>
   </g>
   <path class="fil0" d="M1947.83 7023.62c8.39,-19.86 19.25,-38.62 32.28,-55.78 12.87,-17.13 27.45,-33.19 43.24,-47.72 8.02,-7.26 16.14,-14.32 24.63,-20.91 8.43,-6.81 17.41,-12.99 26.83,-18.35 20.36,-11.74 43.34,-18.31 66.84,-19.08 -2.44,22.32 -8.13,44.27 -16.69,65.02 -3.72,9.55 -7.92,17.95 -12.32,26.45l-12.41 25.49c-8.12,16.81 -16.14,33.32 -24.35,49.56 -7.86,16.32 -16.76,32.39 -26.35,47.77l-101.7 -52.44z"/>
   <g>
    <path class="fil4" d="M3128.78 6967.86c79.1,111.41 121.65,244.77 121.65,381.43 0,0.16 0,0.32 0,0.48l-121.65 -381.92zm0 0l0 0 0 0z"/>
   </g>
   <path class="fil0" d="M3128.78 6967.86c32.6,17.64 60.95,42.27 82.99,72.08 10.95,14.48 20.86,29.82 29.59,45.74 8.88,15.95 16.9,32.37 24.35,49.17 14.61,33.65 25.79,69.06 33.05,105.04 6.13,30.25 9.32,61.13 9.32,92.02 0,5.99 -0.11,12.14 -0.34,18.07l-114.6 0.01c-1.82,-31.03 -3.44,-61.87 -6.68,-92.91 -3.24,-31.03 -7.35,-61.87 -13.37,-93l-4.77 -23.3 -5.54 -23.39c-4.01,-15.56 -8.31,-31.13 -12.32,-47.07 -8.95,-33.62 -16.36,-68.11 -21.7,-102.48l0.03 0.02z"/>
   <g>
    <path class="fil4" d="M4583.18 7350.18c0,-0.26 0,-0.51 0,-0.75 0,-182.87 -75.92,-357.53 -209.47,-482.37l209.47 483.12zm0 0l0 0 0 0z"/>
   </g>
   <path class="fil0" d="M4525.89 7350.18c-1.54,-41.04 -5.66,-82.2 -12.01,-122.74 -6.71,-41.04 -16.74,-81.72 -29.82,-121.07 -3.25,-9.55 -7.07,-19.77 -10.6,-29.7 -3.53,-9.93 -8.02,-19.57 -11.93,-29.51 -3.91,-9.93 -8.98,-19.1 -13.18,-29.12l-13.94 -28.65c-19.1,-39.15 -39.82,-78.2 -60.73,-121.74 44.24,18.87 84.05,46.93 116.69,82.24 7.92,8.98 16.23,17.76 23.58,27.21 7.35,9.46 14.71,19.1 21.48,28.65 6.78,9.55 13.66,19.96 19.77,30.36 6.11,10.41 12.51,20.82 17.95,31.7 22.72,43.1 40.13,89.07 51.58,136.48 10.43,42.21 15.71,85.82 15.71,129.37 0,5.47 -0.13,11.09 -0.26,16.5l-114.28 0.01z"/>
   <path class="fil3 str1" d="M3259.3 7350.18c0.03,2.53 -0.05,5.36 -0.05,7.94 0,365.44 296.36,661.8 661.8,661.8 365.44,0 661.8,-296.36 661.8,-661.8 0,-2.58 -0.08,-5.41 -0.08,-7.92"/>
   <g>
    <path class="fil4" d="M3381.23 6967.86c-79,111.28 -121.55,244.72 -121.55,381.3 0,0.16 0,0.48 0,0.64l121.55 -381.94zm0 0l0 0 0 0z"/>
   </g>
   <path class="fil0" d="M3381.23 6967.86c-5.39,34.45 -12.68,68.93 -21.66,102.69 -4.01,15.95 -8.31,31.51 -12.32,47.07l-5.44 23.39 -4.77 23.3c-6.02,31.13 -10.41,62.06 -13.46,93 -3.06,30.93 -4.77,61.87 -6.59,92.91l-114.97 -0.04c-0.22,-6.21 -0.39,-12.62 -0.39,-18.86 0,-30.63 3.18,-61.25 9.37,-91.22 7.23,-36.02 18.34,-71.39 33.01,-105.05 7.35,-16.81 15.37,-33.23 24.25,-49.17 8.77,-15.86 18.7,-31.25 29.61,-45.7 22.14,-29.87 50.66,-54.61 83.36,-72.3l0.01 -0.01z"/>
   <line class="fil3 str1" x1="2117.7" y1="6955.73" x2="2117.7" y2= "6203.03" />
   <line class="fil3 str1" x1="4342.66" y1="6955.73" x2="4342.66" y2= "6203.03" />
   <path class="fil6 str1" d="M2948.98 7530.83l514.66 0 0 188.1c-169.39,-57.77 -340.97,-56.33 -514.66,0l0 -188.1z"/>
   <path class="fil6 str1" d="M4549.29 7350.18c0,-0.22 0,-0.7 0,-0.95 0,-167.29 -63.68,-328.37 -177.92,-450.5 -40.29,-43.16 -422.71,59.11 -647.48,260.29 -220.66,197.55 -412.77,520.29 -385.28,560.97 122.99,182.52 328.78,292 548.87,292 365.44,0 661.8,-296.36 661.8,-661.8 0,0 0,0 0,0l0 -0.01z"/>
   <path class="fil6" d="M4167.45 7059.24c-58.44,35.04 -116.01,68.56 -171.87,105.03 -55.06,34.99 -108.11,74.33 -157.92,116.37 -49.17,42.58 -96.53,88.99 -143.23,136.16 -46.69,47.17 -92.52,95.48 -140.84,143.9 29.37,-61.53 65.16,-119.82 106.77,-173.56 41.44,-54.49 88.8,-105.18 140.48,-150.19 52.63,-44.56 111.04,-82.32 173.29,-112.02 61.25,-30.07 126.42,-52.25 193.35,-65.67l-0.04 -0.03z"/>
   <path class="fil6 str1" d="M1912.02 7350.18c0,-0.22 0,-0.7 0,-0.95 0,-167.29 63.68,-328.37 177.92,-450.5 40.29,-43.16 422.71,59.11 647.48,260.29 220.66,197.55 412.77,520.29 385.28,560.97 -122.99,182.52 -328.78,292 -548.87,292 -365.44,0 -661.8,-296.36 -661.8,-661.8 0,0 0,0 0,0l-0 -0.01z"/>
   <path class="fil7" d="M2808.14 7923.65c-450.06,-0 -815.04,-364.99 -815.04,-815.05 0,-0.03 0,-0.03 0,-0.03 0,-27.69 1.51,-55.68 4.23,-83.17 -55.88,99.07 -85.21,211.05 -85.21,324.81 0,365.44 296.36,661.8 661.8,661.8 120.87,0 239.64,-33.21 342.98,-95.83 -35.94,4.87 -72.39,7.46 -108.74,7.46l-0.01 0z"/>
   <path class="fil3 str1" d="M1912.02 7350.18c0,-0.22 0,-0.7 0,-0.95 0,-167.29 63.68,-328.37 177.92,-450.5 40.29,-43.16 422.71,59.11 647.48,260.29 220.66,197.55 412.77,520.29 385.28,560.97 -122.99,182.52 -328.78,292 -548.87,292 -365.44,0 -661.8,-296.36 -661.8,-661.8 0,0 0,0 0,0l-0 -0.01z"/>
   <path class="fil6" d="M2293.86 7059.24c66.93,13.42 132.1,35.6 193.39,65.56 62.21,29.72 120.53,67.58 173.14,112.12 51.47,45.04 98.58,95.48 139.87,150 41.72,53.76 77.51,112.05 106.77,173.48 -48.32,-47.74 -93.96,-96.72 -140.84,-143.9 -46.88,-47.17 -93.96,-93.57 -143.23,-136.16 -49.69,-41.94 -102.74,-81.28 -157.77,-116.28 -55.7,-36.27 -112.99,-69.79 -171.33,-104.83z"/>
   <path class="fil5" d="M4928.36 7612.66c2.01,-354.34 -11.55,-669.06 -73.81,-910.82 -96.15,-242.15 -269.07,-386.52 -573.57,-386.52l217.61 1284.45c0,0 215.03,97.77 429.77,12.89z"/>
   <path class="fil3 str2" d="M5010.57 7511.83c-10.86,8.98 -22.77,16.81 -35.32,23.2"/>
   <path class="fil5" d="M1570.29 6691.53c-65.22,244.15 -76.39,564.59 -73.91,926.19 190.01,81.54 481.43,-20.53 481.43,-20.53l165.47 -1262.68c-294.76,-0.29 -470.45,132.44 -573,357.01z"/>
   <path class="fil6" d="M4316.88 6203.03l-517.62 0 0 0.96c0,-0.03 0,0.19 0,0.19 0,42.89 -4.68,85.77 -13.76,127.63 -4.36,20.38 -9.97,40.69 -16.58,60.43 -21.15,59.21 -53.65,113.89 -95.53,160.75 -13.37,14.97 -27.7,29.18 -42.93,42.27 -240.33,173.78 -622.27,183.33 -854.39,-5.54 -25.01,-21.76 -47.83,-46.16 -67.93,-72.54 -41.78,-54.93 -71.47,-118.17 -86.88,-185.37 -4.47,-20.74 -7.96,-41.84 -10.22,-62.94 -2.23,-21.15 -3.52,-42.7 -3.52,-64.03 0,-0.29 0,-0.57 0,-0.85l0 -0.96 -517.62 -0.01c-69.98,0.04 -126.7,56.81 -126.7,126.8 0,0 0,0 0,0l0 2718.23c0,0.12 0,0.26 0,0.38 0,69.99 56.72,126.76 126.71,126.8l2281.48 0c69.99,-0.05 126.71,-56.81 126.71,-126.8 0,0 0,0 0,0l0 -2655.59c0,-116.68 -56.24,-189.82 -181.23,-189.82z"/>
   <path class="fil6" d="M4280.98 6203.03c606.7,0 700.85,534.71 705.62,1271.56 -177.6,110.95 -467.01,12.51 -467.01,12.51l-238.61 -1284.07z"/>
   <path class="fil7" d="M4498.11 6901.5l-217.13 364.08 108.66 1241.29 110.85 0 0 -1008.78 165 27.59c-54.14,-689.11 -167.38,-624.18 -167.38,-624.18z"/>
   <path class="fil6" d="M2143.29 6203.03c-589.9,0 -724.05,513.7 -733.79,1218.94 181.42,189.63 553.8,43.73 553.8,43.73l179.99 -1262.68z"/>
   <path class="fil7" d="M1962.92 6901.5l0 564.59 -165.28 41.16c54.14,-669.53 165.28,-605.75 165.28,-605.75z"/>
   <path class="fil3 str2" d="M4280.98 6203.03c643.66,0 749.07,537.48 753.37,1277.38 -250.17,118.69 -514.75,6.68 -514.75,6.68"/>
   <path class="fil3 str2" d="M2143.29 6203.03c-637.73,0 -764.63,522.3 -771.13,1248.16 197.08,141.13 590.66,14.9 590.66,14.9"/>
   <path class="fil7" d="M2089.91 9175.25l1113.53 0c-1042.2,0 -963.53,-2207.39 -1240.24,-2207.39l0 2080.21c0,0.12 0,0.26 0,0.38 0,69.99 56.72,126.76 126.71,126.8l-0.01 0z"/>
   <path class="fil0" d="M1905.92 7178.21c-1.82,-35.04 -1.05,-70.08 0.48,-105.03 1.53,-34.95 4.49,-70.18 8.21,-105.03 1.91,-17.57 3.82,-35.04 6.21,-52.61 2.39,-17.57 4.68,-35.04 8.12,-52.61 6.73,-36.32 18.31,-71.7 34.28,-105.03 15.95,33.27 27.52,68.65 34.2,105.01 3.53,17.57 6.02,35.04 8.21,52.61 2.19,17.57 4.3,35.04 6.21,52.61 3.63,35.04 6.49,70.08 8.12,105.03 1.62,34.95 2.39,70.08 0.57,105.03l-114.6 0.02z"/>
   <path class="fil3 str1" d="M4498.11 7265.58l0 76.39c2.48,324.64 2.48,658.84 0,981.09 0,27.41 0,54.62 0,81.45l0 643.66c0,0.08 0,0.19 0,0.28 0,69.99 -56.72,126.76 -126.71,126.8l-2281.49 0c-69.98,-0.05 -126.7,-56.81 -126.7,-126.8 0,0 0,0 0,0l-0 -555.71c0,-23.97 0,-48.41 0,-73.05 -2.39,-332.95 -2.39,-667.14 0,-1005.44l0 -236.04"/>
   <path class="fil0" d="M4440.82 7265.58c-1.82,-39.82 -0.96,-79.73 0.57,-119.64 1.53,-39.91 4.49,-79.73 8.12,-119.64 1.91,-19.96 3.92,-39.91 6.21,-59.87 2.29,-19.95 4.68,-39.82 8.21,-59.77 6.56,-41 18.07,-81.38 34.16,-119.66 16.08,38.33 27.7,78.59 34.32,119.63 3.44,19.96 5.92,39.91 8.12,59.77 2.2,19.86 4.3,39.91 6.21,59.87 3.63,39.91 6.59,79.73 8.12,119.64 1.53,39.91 2.39,79.82 0.57,119.64l-114.6 0.03z"/>
   <line class="fil3 str1" x1="2089.91" y1="6203.99" x2="4316.88" y2= "6203.03" />
   <path class="fil3 str1" d="M3799.26 6203.99c0,-0.03 0,0.19 0,0.19 0,42.89 -4.68,85.77 -13.76,127.63 -4.36,20.38 -9.97,40.69 -16.58,60.43 -21.15,59.21 -53.65,113.89 -95.53,160.75 -13.37,14.97 -27.7,29.18 -42.93,42.27 -240.33,173.78 -622.27,183.33 -854.39,-5.54 -25.01,-21.76 -47.83,-46.16 -67.93,-72.54 -41.78,-54.93 -71.47,-118.17 -86.88,-185.37 -4.47,-20.74 -7.96,-41.84 -10.22,-62.94 -2.23,-21.15 -3.52,-42.7 -3.52,-64.03 0,-0.29 0,-0.57 0,-0.85"/>
   <path class="fil0" d="M3263.12 6868.27c-41.23,8.21 -83.32,12.48 -125.4,12.48 -16.69,0 -33.54,-0.78 -50.16,-2.02 -59.22,-4.1 -117.8,-16.22 -173.77,-35.82 -56.4,-19.34 -109.56,-47.21 -157.56,-82.53l-17.76 -13.46c-5.82,-4.58 -11.46,-9.55 -17.09,-14.51 -11.35,-9.62 -22.02,-20.15 -31.83,-31.31 -19.57,-22.05 -36.84,-46.12 -51.35,-71.72 20.35,20.47 41.94,39.93 64.35,58.16 5.54,4.58 11.17,9.07 16.71,13.37 5.54,4.29 11.74,7.83 17.57,11.84 5.82,4.01 11.65,8.02 17.67,11.74l18.24 11.08c48.64,28.71 100.37,52.73 153.75,71.2 53.45,18.73 108.82,33.1 164.68,42.51 56.9,9.21 114.4,15.69 171.91,18.94l0.06 0.06z"/>
   <path class="fil3 str2" d="M1395.75 7480.41c10.86,9.86 22.65,18.79 35.15,26.46"/>
   <path class="fil0" d="M4898.76 7386.74c-19.87,11.87 -41.77,20.05 -64.55,24.06 -21.12,4.12 -42.6,6.23 -64.11,6.23 -1.54,0 -3.13,-0.04 -4.63,-0.04 -22.99,-0.43 -45.97,-3.01 -68.54,-7.55 -11.27,-2.01 -22.25,-5.35 -33.32,-8.31 -11.08,-2.96 -21.67,-7.35 -32.18,-11.84 11.55,0 22.72,1.72 33.99,2.67l33.61 2.77c11.17,0 22.25,1.91 33.42,2.01 11.17,0.1 22.15,1.05 33.23,1.15 22.27,0.39 44.54,-0.21 66.82,-1.8 22.24,-1.52 44.49,-4.68 66.28,-9.34l-0.01 -0.02z"/>
   <path class="fil8 str3" d="M3869.25 7722.28c0,-84.6 -105.99,-164.8 -268.4,-214.55 37.52,-165.57 20.82,-297.24 -52.61,-339.44 -14.94,-9.92 -32.51,-15.22 -50.46,-15.22 -2.53,0 -5.08,0.11 -7.6,0.31 -76.39,1.24 -165.28,51.08 -260,139.6 -95,-88.03 -200.04,-140.06 -260.1,-138.54 -30.17,0.86 -41.73,4.97 -58.82,14.9 -73.24,42.11 -89.56,173.59 -51.85,338.68 -162.32,49.94 -267.35,129.95 -267.35,214.27 0,84.31 105.99,164.8 268.4,214.55 -37.52,165.57 -20.82,297.24 52.61,339.44 17.06,9.59 36.3,14.63 55.87,14.63 0.88,0 1.81,-0.01 2.67,-0.03 71.61,0 165.28,-51.08 260.1,-139.6 94.72,88.04 188.49,138.55 260.1,138.55 0.8,0.01 1.66,0.03 2.5,0.03 19.71,0 39.11,-5.05 56.31,-14.64 73.14,-42.21 89.56,-173.69 51.75,-338.68 161.46,-49.74 266.87,-129.95 266.87,-214.26zm-379.26 -510.74l0 0c0.57,-0.02 1.18,-0.03 1.76,-0.03 9.69,0 19.25,2.34 27.84,6.81 35.42,20.34 50.8,97.68 38.86,197.08 -2.87,24.44 -7.54,50.22 -13.27,76.39 -54.31,-13.06 -109.65,-22.98 -165.31,-28.72 -33.1,-45.49 -69.63,-89.3 -108.32,-130 84.76,-78.27 164.3,-121.43 218.44,-121.52zm-490.02 644.04c12.22,20.82 24.73,41.12 37.52,60.92 -36.95,-5.44 -72.66,-12.22 -106.75,-20.53 9.55,-33.61 21.58,-68.27 35.14,-102.84 10.69,20.82 21.86,41.64 34.09,62.45zm-69.99 -306.98c34.09,-8.02 69.99,-15.08 107.23,-20.53 -12.7,20.05 -25.49,40.58 -37.43,61.68 -11.94,21.1 -23.2,41.63 -33.9,62.45 -13.7,-33.83 -25.74,-68.49 -35.91,-103.55l0.01 -0.05zm66.36 174.45c16.14,-34.85 34.37,-69.8 53.95,-103.89 19.57,-34.09 41.06,-68.46 62.73,-99.4 38.77,-3.44 78.11,-5.25 117.64,-5.25 39.53,0 78.58,1.82 117.16,4.97 21.58,30.94 42.68,64.07 63.02,98.92 20.34,34.85 38.19,68.75 54.14,103.6 -16.42,34.95 -34.37,69.8 -53.95,103.89 -19.57,34.09 -41.06,68.46 -62.73,99.5 -38.77,3.34 -78.11,5.16 -117.64,5.16 -39.53,0 -78.58,-1.82 -117.16,-4.97 -21.58,-30.94 -42.68,-63.97 -63.02,-98.92 -20.34,-34.95 -37.72,-68.75 -54.14,-103.6zm465.01 131.77c11.93,-20.82 23.11,-41.92 33.8,-62.73 13.6,33.84 25.78,68.64 35.95,103.7 -34.09,8.31 -69.99,15.37 -107.23,20.82 12.75,-20.15 25.45,-40.68 37.48,-61.78zm0 -265.83c-11.93,-20.82 -24.73,-41.16 -37.52,-60.92 37.05,5.41 72.63,12.25 106.75,20.53 -9.55,33.61 -21.58,68.27 -35.14,102.84 -10.98,-20.82 -22.15,-41.63 -34.37,-62.45l0.29 0zm-159.07 -131c-23.49,-0.96 -47.74,-1.82 -71.61,-1.82 -23.87,0 -48.7,0.57 -72.38,1.82 22.35,-28.91 46.38,-56.88 71.64,-83.25 25.49,26.4 49.62,54.26 72.29,83.19l0.06 0.06zm-362.17 -238.71c8.41,-4.49 17.81,-6.84 27.34,-6.84 0.88,0 1.77,0.03 2.65,0.06l0 0c53.85,0 133.68,42.97 218.66,121.36 -38.6,40.55 -74.81,84.31 -107.54,129.87 -55.66,5.63 -111.18,15.41 -165.49,28.65 -6.02,-25.97 -10.41,-51.27 -13.56,-75.43 -12.28,-99.51 2.81,-176.85 37.94,-197.38l0 -0.29zm-65.6 661.03c-25.78,-8.12 -50.22,-17 -72.86,-26.54 -92.24,-39.34 -151.82,-90.9 -151.82,-131.77 0,-40.87 59.58,-92.71 151.82,-131.77 22.34,-9.55 46.79,-18.24 72.09,-26.26 15.89,53.79 35.72,107.32 58.59,158.56 -22.83,51.18 -42.33,104.35 -57.87,158.12l0.04 -0.34zm96.63 352.43c-0.31,-0 -0.66,0 -0.98,0 -9.9,0 -19.67,-2.4 -28.43,-6.98 -35.42,-20.34 -50.8,-97.68 -38.86,-197.08 2.87,-24.54 7.54,-50.22 13.27,-76.39 54.19,13.14 109.92,22.79 165.34,28.6 33.17,45.7 69.45,89.51 108.34,130.25 -84.91,78.72 -164.54,121.88 -218.68,121.88l0 -0.29zm260 -163.18c-25.36,-26.5 -49.8,-54.55 -72.38,-83.41 23.49,1.05 47.74,1.82 71.61,1.82 23.87,0 48.7,-0.48 72.38,-1.82 -22.21,29 -46.28,57.28 -71.59,83.7l-0.02 -0.29zm290.08 155.16c-8.41,4.49 -17.81,6.84 -27.34,6.84 -0.88,0 -1.77,-0.03 -2.65,-0.06 -53.85,0 -133.68,-42.97 -218.66,-121.36 38.6,-40.55 74.81,-84.31 107.54,-129.87 55.66,-5.63 111.18,-15.41 165.49,-28.65 5.84,24.98 10.51,50.37 13.59,75.76 12.24,99.76 -2.85,177.01 -37.98,197.63l0 -0.29zm138.26 -370.95c-22.44,9.55 -46.88,18.14 -72.19,26.26 -15.77,-53.92 -35.69,-107.43 -58.54,-158.64 22.63,-51.13 42.03,-104.06 57.37,-157.74 25.78,8.12 50.22,16.9 73.14,26.54 92.24,39.34 151.82,90.9 151.82,131.77 0,40.87 -59.46,93.04 -151.61,132.09l0 -0.29z"/>
   <circle class="fil8 str4" cx="3230.37" cy="7722.28" r="118.97"/>
   <path class="fil9" d="M3869.25 7722.28c0,-84.6 -105.99,-164.8 -268.4,-214.55 37.52,-165.57 20.82,-297.24 -52.61,-339.44 -14.94,-9.92 -32.51,-15.22 -50.46,-15.22 -2.53,0 -5.08,0.11 -7.6,0.31 -76.39,1.24 -165.28,51.08 -260,139.6 -95,-88.03 -200.04,-140.06 -260.1,-138.54 -30.17,0.86 -41.73,4.97 -58.82,14.9 -73.24,42.11 -89.56,173.59 -51.85,338.68 -162.32,49.94 -267.35,129.95 -267.35,214.27 0,84.31 105.99,164.8 268.4,214.55 -37.52,165.57 -20.82,297.24 52.61,339.44 17.06,9.59 36.3,14.63 55.87,14.63 0.88,0 1.81,-0.01 2.67,-0.03 71.61,0 165.28,-51.08 260.1,-139.6 94.72,88.04 188.49,138.55 260.1,138.55 0.8,0.01 1.66,0.03 2.5,0.03 19.71,0 39.11,-5.05 56.31,-14.64 73.14,-42.21 89.56,-173.69 51.75,-338.68 161.46,-49.74 266.87,-129.95 266.87,-214.26zm-379.26 -510.74l0 0c0.57,-0.02 1.18,-0.03 1.76,-0.03 9.69,0 19.25,2.34 27.84,6.81 35.42,20.34 50.8,97.68 38.86,197.08 -2.87,24.44 -7.54,50.22 -13.27,76.39 -54.31,-13.06 -109.65,-22.98 -165.31,-28.72 -33.1,-45.49 -69.63,-89.3 -108.32,-130 84.76,-78.27 164.3,-121.43 218.44,-121.52zm-490.02 644.04c12.22,20.82 24.73,41.12 37.52,60.92 -36.95,-5.44 -72.66,-12.22 -106.75,-20.53 9.55,-33.61 21.58,-68.27 35.14,-102.84 10.69,20.82 21.86,41.64 34.09,62.45zm-69.99 -306.98c34.09,-8.02 69.99,-15.08 107.23,-20.53 -12.7,20.05 -25.49,40.58 -37.43,61.68 -11.94,21.1 -23.2,41.63 -33.9,62.45 -13.7,-33.83 -25.74,-68.49 -35.91,-103.55l0.01 -0.05zm66.36 174.45c16.14,-34.85 34.37,-69.8 53.95,-103.89 19.57,-34.09 41.06,-68.46 62.73,-99.4 38.77,-3.44 78.11,-5.25 117.64,-5.25 39.53,0 78.58,1.82 117.16,4.97 21.58,30.94 42.68,64.07 63.02,98.92 20.34,34.85 38.19,68.75 54.14,103.6 -16.42,34.95 -34.37,69.8 -53.95,103.89 -19.57,34.09 -41.06,68.46 -62.73,99.5 -38.77,3.34 -78.11,5.16 -117.64,5.16 -39.53,0 -78.58,-1.82 -117.16,-4.97 -21.58,-30.94 -42.68,-63.97 -63.02,-98.92 -20.34,-34.95 -37.72,-68.75 -54.14,-103.6zm465.01 131.77c11.93,-20.82 23.11,-41.92 33.8,-62.73 13.6,33.84 25.78,68.64 35.95,103.7 -34.09,8.31 -69.99,15.37 -107.23,20.82 12.75,-20.15 25.45,-40.68 37.48,-61.78zm0 -265.83c-11.93,-20.82 -24.73,-41.16 -37.52,-60.92 37.05,5.41 72.63,12.25 106.75,20.53 -9.55,33.61 -21.58,68.27 -35.14,102.84 -10.98,-20.82 -22.15,-41.63 -34.37,-62.45l0.29 0zm-159.07 -131c-23.49,-0.96 -47.74,-1.82 -71.61,-1.82 -23.87,0 -48.7,0.57 -72.38,1.82 22.35,-28.91 46.38,-56.88 71.64,-83.25 25.49,26.4 49.62,54.26 72.29,83.19l0.06 0.06zm-362.17 -238.71c8.41,-4.49 17.81,-6.84 27.34,-6.84 0.88,0 1.77,0.03 2.65,0.06l0 0c53.85,0 133.68,42.97 218.66,121.36 -38.6,40.55 -74.81,84.31 -107.54,129.87 -55.66,5.63 -111.18,15.41 -165.49,28.65 -6.02,-25.97 -10.41,-51.27 -13.56,-75.43 -12.28,-99.51 2.81,-176.85 37.94,-197.38l0 -0.29zm-65.6 661.03c-25.78,-8.12 -50.22,-17 -72.86,-26.54 -92.24,-39.34 -151.82,-90.9 -151.82,-131.77 0,-40.87 59.58,-92.71 151.82,-131.77 22.34,-9.55 46.79,-18.24 72.09,-26.26 15.89,53.79 35.72,107.32 58.59,158.56 -22.83,51.18 -42.33,104.35 -57.87,158.12l0.04 -0.34zm96.63 352.43c-0.31,-0 -0.66,0 -0.98,0 -9.9,0 -19.67,-2.4 -28.43,-6.98 -35.42,-20.34 -50.8,-97.68 -38.86,-197.08 2.87,-24.54 7.54,-50.22 13.27,-76.39 54.19,13.14 109.92,22.79 165.34,28.6 33.17,45.7 69.45,89.51 108.34,130.25 -84.91,78.72 -164.54,121.88 -218.68,121.88l0 -0.29zm260 -163.18c-25.36,-26.5 -49.8,-54.55 -72.38,-83.41 23.49,1.05 47.74,1.82 71.61,1.82 23.87,0 48.7,-0.48 72.38,-1.82 -22.21,29 -46.28,57.28 -71.59,83.7l-0.02 -0.29zm290.08 155.16c-8.41,4.49 -17.81,6.84 -27.34,6.84 -0.88,0 -1.77,-0.03 -2.65,-0.06 -53.85,0 -133.68,-42.97 -218.66,-121.36 38.6,-40.55 74.81,-84.31 107.54,-129.87 55.66,-5.63 111.18,-15.41 165.49,-28.65 5.84,24.98 10.51,50.37 13.59,75.76 12.24,99.76 -2.85,177.01 -37.98,197.63l0 -0.29zm138.26 -370.95c-22.44,9.55 -46.88,18.14 -72.19,26.26 -15.77,-53.92 -35.69,-107.43 -58.54,-158.64 22.63,-51.13 42.03,-104.06 57.37,-157.74 25.78,8.12 50.22,16.9 73.14,26.54 92.24,39.34 151.82,90.9 151.82,131.77 0,40.87 -59.46,93.04 -151.61,132.09l0 -0.29z"/>
   <circle class="fil9" cx="3230.37" cy="7722.28" r="118.97"/>
   <path class="fil10" d="M2532.48 8140.49c283.32,-0 535.44,-180.61 626.58,-448.81 -121.55,207.95 -344.43,335.82 -585.28,335.82 -213.87,0 -415.4,-101.06 -543.27,-272.38l-0.47 140.64c121.65,149.24 294.95,244.72 502.44,244.72z"/>
   <path class="fil10" d="M3928.83 8140.49c-283.31,-0 -535.43,-180.61 -626.58,-448.81 121.55,207.95 344.43,335.82 585.28,335.82 213.87,0 415.4,-101.06 543.27,-272.38l0 140.55c-121.18,149.33 -294.49,244.81 -501.97,244.81z"/>
   <g>
    <path class="fil6" d="M2342.66 7970.34c-258.85,-96.58 -430.51,-343.88 -430.51,-620.2 0,-166.97 63.2,-327.88 176.75,-450.25l253.76 1070.45zm0 0l0 0 0 0z"/>
   </g>
   <path class="fil0" d="M2342.66 7970.34c-112.8,-18.39 -217.18,-71.94 -297.97,-152.81l-15.47 -15.28c-5.06,-5.16 -9.55,-10.79 -14.61,-16.14 -5.06,-5.34 -9.55,-10.98 -14.13,-16.52 -4.85,-5.41 -9.44,-11.18 -13.68,-17.07 -8.59,-11.74 -17.28,-23.49 -25.59,-35.52l-22.63 -37.52c-28.52,-51.27 -50.16,-106.45 -64.08,-163.56 -11.04,-48.71 -16.63,-98.77 -16.63,-148.76 0,-8.63 0.17,-17.43 0.49,-25.98 2.54,-58.29 13.59,-116.05 32.5,-171.18 2.48,-6.78 4.68,-13.66 7.26,-20.43l8.4 -20.05c5.25,-13.37 12.03,-26.16 18.24,-39.05 13.16,-25.28 28.46,-49.87 45.26,-72.91 8.12,-11.55 17.38,-22.44 26.26,-33.32 8.88,-10.88 18.52,-21.29 28.65,-30.84 19.69,-19.64 41.3,-37.64 64.24,-53.36 -55.28,95.48 -94.53,192.78 -111.33,292.85 -7.59,42.97 -11.5,86.76 -11.5,130.46 0,6.19 0.18,12.47 0.27,18.57 1.77,49.45 8.18,98.98 19.03,147.22 11.71,47.86 28.29,94.97 48.92,139.81 21.13,45.33 47.06,88.59 77.09,128.65 30.45,41.37 65.17,79.77 103.29,114.12 39.86,35.76 82.89,69 127.67,98.63l0.05 -0.01z"/>
   <g>
    <path class="fil6" d="M4119.13 7970.34c258.66,-96.68 430.16,-343.91 430.16,-620.07 0,-167.05 -63.2,-328.05 -176.83,-450.4l-253.33 1070.47zm0 0l0 0 0 0z"/>
   </g>
   <path class="fil0" d="M4119.13 7970.34c44.7,-29.43 87.46,-62.54 127.41,-98.2 38.16,-34.38 72.88,-72.79 103.27,-114.13 30.08,-40.08 56.02,-83.34 77.16,-128.64 20.62,-44.87 37.2,-91.97 48.88,-139.92 10.88,-48.16 17.3,-97.68 19.07,-147.11 0.23,-6.76 0.32,-13.68 0.32,-20.51 0,-43.24 -3.82,-86.57 -11.29,-129.08 -16.81,-100.07 -56.05,-197.08 -111.33,-292.85 22.96,15.68 44.57,33.67 64.28,53.34 10.31,9.55 19.1,20.43 28.65,30.84 9.55,10.41 18.14,21.77 26.26,33.32 16.77,23.01 32.08,47.6 45.25,72.9 6.21,12.89 12.98,25.68 18.24,39.05l8.4 20.05c2.58,6.78 4.77,13.66 7.26,20.43 18.88,55.12 29.94,112.87 32.47,171.15 0.33,8.57 0.49,17.36 0.49,25.99 0,49.98 -5.59,100.04 -16.6,148.79 -13.94,57.07 -35.58,112.25 -64.13,163.57l-22.6 37.49c-8.31,12.03 -17,23.77 -25.59,35.52 -4.24,5.88 -8.83,11.65 -13.65,17.09 -4.68,5.54 -9.55,11.08 -14.13,16.52 -4.58,5.44 -9.55,10.98 -14.61,16.14l-15.47 15.28c-80.79,80.93 -185.17,134.48 -298,152.94l-0.01 0.03z"/>
   <path class="fil3 str5" d="M1287.47 4425.98l0 -123.46c-5.19,-28.26 -7.85,-57.12 -7.85,-85.91 0,-53.02 8.96,-105.87 26.37,-155.88 8.92,-25.21 20.18,-49.82 33.53,-73.04 31.98,-83.14 117.92,-149.98 203.85,-178.63 133.68,-38.19 296,-19.1 401.03,85.94 133.68,143.23 114.58,353.29 118.88,531.08"/>
   <path class="fil3 str5" d="M4408.07 4429.71c-22.34,-254.18 15.85,-607.47 344.98,-641.37 12.85,-1.18 25.86,-1.76 38.77,-1.76 12.91,0 25.92,0.58 38.77,1.73 77.67,6.76 151.96,35.17 214.29,81.96 171.87,143.23 133.68,372.39 133.2,559.82"/>
   <path class="fil0" d="M2687.74 4896.24c0,-180.46 1085.84,-153.35 1085.84,0 0,299.79 -243.12,542.92 -542.92,542.92 -299.79,0 -542.92,-243.12 -542.92,-542.92l-0 0z"/>
   <path class="fil11" d="M3182.92 5098.09c-161.85,-9.55 -302.97,64.45 -349.95,173.97 102.45,108.31 245.16,169.69 394.29,169.69 78.61,0 156.36,-17.1 227.68,-50.04 21.36,-9.8 42.28,-21.29 62.17,-33.88 -8.78,-134.75 -152.2,-248.47 -334.19,-259.73z"/>
   <path class="fil3 str6" d="M2687.74 4896.24c0,-180.46 1085.84,-153.35 1085.84,0 0,299.79 -243.12,542.92 -542.92,542.92 -299.79,0 -542.92,-243.12 -542.92,-542.92l-0 0z"/>
   <path class="fil0" d="M3021.74 4997.45c4.3,-1.05 6.02,-1.53 8.78,-2.01l7.16 -1.34c4.68,-0.86 9.55,-1.34 13.94,-1.72 6.91,-0.72 13.94,-1.07 20.9,-1.07 2.21,0 4.52,0.05 6.71,0.1 18.63,0.39 37.25,3.01 55.29,7.73 37.81,9.57 72.13,29.83 98.82,58.27 25.09,27 41.95,60.71 48.5,97.01 1.69,9.52 2.56,19.25 2.56,28.93 0,24.14 -5.32,48.06 -15.54,69.9 -19.77,-27.98 -34.95,-53.09 -50.8,-74.1 -7.11,-10.05 -14.99,-19.69 -23.4,-28.66 -7.69,-7.88 -16.36,-14.83 -25.77,-20.61 -17.82,-10.67 -37.74,-17.49 -58.35,-19.96 -10.8,-1.37 -21.77,-2.17 -32.64,-2.27 -5.63,0 -11.27,0 -16.81,0.48l-8.12 0.57 -3.72 0c-0.96,0 -2.87,0 -2.2,0l-25.32 -111.25z"/>
   <rect class="fil5" x="1227.69" y="2911.71" width="4194.03" height="612.53"/>
   <path class="fil1" d="M5235.81 5333.56c-29.98,37.05 -60.89,73.23 -92.71,108.56 -23.87,26.45 24.63,-10.7 92.71,-108.56zm143.23 -3022.54c-291.23,-519.53 -797.29,-877.21 -1382.41,-1041.82l-60.63 -16.33c-216.75,-59.96 -445.15,-66.84 -680.99,-66.84 -254.84,0 -500.91,26.16 -733.03,95.48l-40.68 12.13c-308.67,104.74 -596.45,265.13 -848.26,472.06 -27.89,22.8 -55.21,46.1 -81.94,69.91 -270.6,226.2 -480.66,512.65 -625.13,839.3 -14,31.32 -27.24,62.92 -39.72,94.81 -37.23,94.92 -67.42,192.92 -89.94,292.17 -306.03,1208.74 170.34,1950.27 593.14,2404.77 41.73,44.88 -553.14,-972.5 -166.33,-2062.45 73.81,-2.77 193.26,-4.87 345.56,-6.4l148 -483.24 166.52 481.05c261.63,-1.24 571.76,-1.43 896.4,-1.15l117.64 -499.95 132.91 500.15c710.11,1.34 1446.01,4.97 1864.6,7.35l126.04 -498.14 143.23 499.66 78.39 0.48c478.28,1016.14 170.06,1676.22 -6.59,1929.54 365.89,-451.39 566.22,-1015.86 566.22,-1597.36 0,-0.93 0,-2.48 0,-3.41 0,-825.29 -422.99,-1421.78 -422.99,-1421.78z"/>
   <path class="fil3 str1" d="M5235.81 5333.56c-29.98,37.05 -60.89,73.23 -92.71,108.56 -23.87,26.45 24.63,-10.7 92.71,-108.56zm143.23 -3022.54c-291.23,-519.53 -797.29,-877.21 -1382.41,-1041.82l-60.63 -16.33c-216.75,-59.96 -445.15,-66.84 -680.99,-66.84 -254.84,0 -500.91,26.16 -733.03,95.48l-40.68 12.13c-308.67,104.74 -596.45,265.13 -848.26,472.06 -27.89,22.8 -55.21,46.1 -81.94,69.91 -270.6,226.2 -480.66,512.65 -625.13,839.3 -14,31.32 -27.24,62.92 -39.72,94.81 -37.23,94.92 -67.42,192.92 -89.94,292.17 -306.03,1208.74 170.34,1950.27 593.14,2404.77 41.73,44.88 -553.14,-972.5 -166.33,-2062.45 73.81,-2.77 193.26,-4.87 345.56,-6.4l148 -483.24 166.52 481.05c261.63,-1.24 571.76,-1.43 896.4,-1.15l117.64 -499.95 132.91 500.15c710.11,1.34 1446.01,4.97 1864.6,7.35l126.04 -498.14 143.23 499.66 78.39 0.48c478.28,1016.14 170.06,1676.22 -6.59,1929.54 365.89,-451.39 566.22,-1015.86 566.22,-1597.36 0,-0.93 0,-2.48 0,-3.41 0,-825.29 -422.99,-1421.78 -422.99,-1421.78z"/>
   <path class="fil1" d="M4034.15 1135.52l-61.78 -16.62c-240.71,-66.84 -486.3,-72.09 -717.37,-72.09 -292.08,0 -544.93,33.32 -772.56,101.6l-40.68 12.13 -4.68 1.43c-324.37,110.64 -627.11,279.14 -892.1,496.58 -28.65,23.49 -57.29,47.74 -84.41,72.09 -282.92,236.99 -505.4,535.76 -661.13,888 -14.9,33.32 -28.65,67.32 -42.21,100.92 -39.91,102.07 -203.29,570.7 -226.78,674.59l692.54 9.55c73.81,-2.77 193.26,-4.87 345.56,-6.4l148 -483.24 166.52 481.05c261.63,-1.24 571.76,-1.43 896.4,-1.15l117.64 -499.95 133 500.66c710.11,1.34 1446.01,4.97 1864.6,7.35l126.04 -498.14 143.23 499.66 78.39 0.48 698.09 328.66c0,-822.97 -394.35,-1422.71 -443.81,-1495.28 -299.06,-528.98 -818.2,-920.46 -1462.53,-1101.88zm1586.56 3048.32c-30.27,-247.49 -106.66,-527.64 -253.13,-838.73l-37.14 -78.96 -61.97 0 -255.7 -894.01 -225.73 890.86c-386.04,-2.1 -1022.25,-5.16 -1650.53,-6.59l-247.78 -931.63 -219.04 930.97c-261.63,0 -492.22,0 -688.34,0.86l-272.71 -788.79 -242.72 792.51c-109.33,1.43 -192.5,3.25 -248.26,5.35l-93.86 3.63 -31.41 88.42c-136.92,386.61 -173.2,804.64 -107.89,1243.87 -151.82,-381.93 -214.45,-872.63 -53.95,-1505.11l0.86 -3.63c20.95,-92.34 49.52,-184.06 84.09,-272.33 11.46,-29.51 23.97,-59.39 37.33,-89.28 138.83,-313.76 336.48,-579.3 587.32,-788.98l3.15 -2.77c25.3,-22.44 51.47,-44.78 77.72,-66.36 238.16,-195.76 510.19,-347.7 802.08,-447.62l38.67 -11.46c201.66,-60.54 428.44,-90.04 693.21,-90.04 212.16,0 436.65,4.87 644.04,62.26l60.92 16.33c575.19,162.32 1036.28,508.64 1298.58,976.13l3.53 6.3 4.2 6.02c4.01,5.63 397.31,569.37 397.31,1341.55 -0.08,151.41 -14.77,302.75 -42.98,451.14l0.13 0.12z"/>
   <path class="fil3 str1" d="M5235.81 5333.56c-29.98,37.05 -60.89,73.23 -92.71,108.56 -23.87,26.45 24.63,-10.7 92.71,-108.56zm-3846.37 133.1c41.73,44.88 -553.14,-972.5 -166.33,-2062.45 73.81,-2.77 193.26,-4.87 345.56,-6.4l148 -483.24 166.52 481.05c261.63,-1.24 571.76,-1.43 896.4,-1.15l117.64 -499.95 132.91 500.15c710.11,1.34 1446.01,4.97 1864.6,7.35l126.04 -498.14 143.23 499.66 78.39 0.48c478.28,1016.14 170.06,1676.22 -6.59,1929.54"/>
   <path class="fil0" d="M1172.79 3377.95c1.72,-7.16 3.15,-12.61 5.06,-18.52 1.91,-5.92 3.82,-11.46 5.92,-17 4.39,-11.17 9.55,-22.06 14.42,-32.66 10.63,-21.32 23.01,-41.83 36.8,-61.27 13.58,-19.76 29.24,-38.26 46.55,-54.92 18.89,-17.89 41.84,-31.03 66.85,-38.21 -0.01,1.16 0.03,2.43 0.03,3.62 0,23.49 -2.78,46.91 -8.31,69.71 -2.67,10.88 -5.63,21.48 -8.88,31.7l-9.55 31.03c-6.38,20.57 -12.75,40.91 -19.12,61.03 -3.15,10.12 -6.49,19.96 -9.55,29.88 -1.62,4.87 -3.53,9.55 -5.35,14.61 -1.82,5.06 -3.72,9.55 -5.35,13.37l-109.52 -32.37z"/>
   <path class="fil0" d="M5242.31 3346.73c8.83,-0.69 17.69,-1.06 26.54,-1.06 10.97,0 22.07,0.57 32.97,1.63 19.87,1.73 39.98,4.49 59.59,8.24 9.55,1.91 19.86,3.82 29.79,6.11 10,2.07 19.99,4.86 29.68,8.19 21.86,7.38 42.15,19.02 59.58,34.18 -17.45,15.13 -37.72,26.81 -59.59,34.27 -9.71,3.33 -19.68,6.05 -29.7,8.12 -9.55,2.39 -19.86,4.3 -29.79,6.21 -19.86,3.7 -39.72,6.43 -59.57,8.21 -10.75,1.01 -21.6,1.58 -32.41,1.58 -9.02,0 -18.12,-0.41 -27.09,-1.1l0.02 -114.58z"/>
   <path class="fil6" d="M2703.97 3275.02c2.26,-45.45 7.13,-91.05 14.2,-136.01 6.87,-44.88 15.28,-89.47 24.92,-133.68 9.65,-44.21 20.53,-88.32 32.85,-132.05 12.18,-43.91 27.26,-87.64 44.2,-129.83 -2.15,45.44 -7.22,91.06 -14.44,136.07 -6.84,44.89 -15.13,89.45 -24.87,133.69 -9.74,44.24 -20.69,88.26 -32.85,132.05 -12.3,43.85 -27.31,87.45 -44.08,129.78l0.06 -0.01z"/>
   <path class="fil6" d="M4834.78 3275.02c2.25,-45.45 7.13,-91.05 14.2,-136.01 6.96,-44.91 15.27,-89.48 24.95,-133.73 9.68,-44.24 20.47,-88.23 32.37,-131.96 12.24,-43.94 26.87,-87.36 43.65,-129.71 -2.14,45.57 -7.21,91.03 -14.28,136.03 -6.98,44.93 -15.28,89.51 -24.89,133.75 -9.55,44.31 -20.62,88.32 -32.94,132.05 -11.96,43.67 -26.54,87.41 -43,129.58l-0.06 -0.01z"/>
   <g>
    <path class="fil1" d="M724.69 3429.61c19.11,-125.3 56.12,-247.65 109.13,-362.84l-109.13 362.84zm0 0l0 0 0 0z"/>
   </g>
   <path class="fil0" d="M667.87 3422.45c0.86,-9.55 1.72,-17.67 3.06,-26.07 1.34,-8.4 2.77,-16.42 4.39,-24.63 3.34,-16.23 7.16,-32.27 11.74,-47.74 8.98,-31.69 20.14,-62.89 33.13,-93.08 12.59,-30.44 27.69,-60.02 44.87,-88.06 18,-29.14 41.34,-54.79 68.65,-75.5 0.52,9.16 0.82,18.51 0.82,27.74 0,24 -1.88,48.12 -5.41,71.82 -2.39,15.56 -4.87,31.03 -7.92,46.21 -3.06,15.18 -5.54,30.46 -7.92,45.64l-15.56 90.61 -7.92 44.69c-1.15,7.45 -2.67,14.9 -4.01,22.15 -1.34,7.25 -2.87,14.99 -4.2,20.91l-113.7 -14.7z"/>
   <g>
    <path class="fil1" d="M5802.32 3694.49c0,0 -4.39,-198.41 -79.92,-454.79l79.92 454.79zm0 0l0 0 0 0z"/>
   </g>
   <path class="fil0" d="M5745.03 3695.63l-2.29 -26.36c-0.77,-9.55 -1.53,-18.43 -2.1,-27.59l-4.3 -55.76 -8.69 -112.67c-2.87,-37.72 -6.78,-75.53 -9.55,-113.91 -0.77,-19.1 -1.53,-38.77 -0.96,-58.63 0.14,-20.43 1.87,-40.9 4.8,-61.08 25.97,31.27 47.22,66.42 62.83,103.97 7.7,18.12 14.73,36.95 20.67,55.78 6.4,19.1 11.84,38.19 17.28,57.29 10.71,37.99 19.46,76.99 25.72,116.12 3.15,19.57 6.02,39.34 7.73,59.3 1.02,9.96 1.78,20 2.29,30.13 0.57,10.22 0.77,19.77 0.67,31.32l-114.1 2.1z"/>
   <path class="fil6" d="M3294.63 1207.13c-135.72,7.92 -271.45,23.87 -405.45,47.13 -33.23,6.49 -66.84,13.56 -99.69,19.67 -32.85,6.11 -65.88,15.37 -98.82,23.01l-97.97 25.97c-32.47,9.55 -64.64,19.86 -96.92,29.79 -128.81,41.23 -255.07,91.89 -376.57,150.25 -122.46,59.29 -241.78,126.66 -355.83,200.53 101.52,-92.86 214.62,-173.89 335,-240.17 120.53,-67.42 248.31,-123.13 379.67,-165.56 33.23,-9.55 66.27,-19.96 99.5,-29.12 33.23,-9.17 66.84,-17.38 100.74,-24.83 33.9,-7.45 67.79,-13.37 101.69,-19.1 33.9,-5.73 68.37,-10.22 102.55,-14.51 72.55,-8.85 146.53,-13.28 219.84,-13.28 64.01,0 128.68,3.54 192.25,10.19l0.02 0.03z"/>
   <path class="fil0" d="M4215.09 3277.12c105.18,-26.39 212.12,-48.45 319.8,-63.78l-24.75 3.72c68.35,-9.74 137.74,-15 206.95,-15 57.65,0 115.47,3.5 172.59,10.34l-25.4 -3.44c31.32,4.3 62.45,9.55 93.76,13.46l-25.4 -3.34c94.6,13.04 189.54,32.75 281.62,58.43 47.74,13.37 106.08,-16.42 117.45,-66.84 1.88,-7.98 2.9,-16.08 2.9,-24.2 0,-43.17 -28.46,-81.19 -69.87,-93.35 -108.09,-29.54 -218.85,-51.3 -330.17,-64.69l25.3 3.44c-78.42,-13.89 -158.72,-21.05 -238.53,-21.05 -26.82,0 -53.98,0.83 -80.64,2.33 -105.84,7.05 -212.33,21.67 -316.07,43.46 -53.57,10.88 -106.85,23.3 -160.03,36.38 -48.51,11.93 -82.21,69.32 -66.84,117.45 12.23,41.34 50.29,69.77 93.47,69.77 8.07,0 16.14,-1.01 23.96,-2.99l-0.09 -0.1z"/>
   <path class="fil0" d="M951.08 3753.88l134.92 -14.13 321.49 -33.61 390.91 -40.96 335.91 -35.23c54.62,-5.63 109.23,-11.17 163.85,-17.09l2.29 0c26.07,-2.67 48.41,-8.78 67.51,-27.98 17.89,-17.9 27.96,-42.2 27.96,-67.51 0,-25.31 -10.07,-49.61 -27.95,-67.51 -17.47,-16.14 -42.78,-30.56 -67.51,-27.98l-134.92 14.13 -321.49 33.71 -391.48 40.96 -335.91 35.14c-54.62,5.73 -109.23,11.27 -163.85,17.19l-2.29 0c-26.07,2.77 -48.41,8.88 -67.51,27.98 -17.92,17.89 -28,42.22 -28,67.55 0,25.33 10.08,49.65 28,67.55 17.47,16.04 42.78,30.56 67.51,27.88l0.57 -0.09z"/>
   <g>
    <circle class="fil12" cx="3077.33" cy="579.63" r="507.76"/>
    <path class="fil13" d="M3077.33 1087.38c0.04,0 0.17,0 0.22,0 280.32,0 507.65,-227.33 507.65,-507.65 0,-35.33 -3.72,-70.72 -11.03,-105.24 -329.17,-51.01 -670.52,-21.39 -1002.79,64.17 -1.07,13.48 -1.82,27.06 -1.82,40.85 0.01,-0.01 0.01,0.12 0.01,0.12 0,280.38 227.38,507.76 507.76,507.76 0,0 0,0 0,0l-0 0z"/>
    <circle class="fil3 str7" cx="3077.33" cy="579.63" r="507.76"/>
    <path class="fil12" d="M391.17 3424.17c0,-0.34 0,-1.34 0,-1.67 0,-206.15 23.61,-412.3 69.82,-613.12 9.27,-39.65 19.33,-78.91 30.16,-117.76 31.01,-345.42 213.88,-630.32 458.35,-884.73 50.9,-40.74 61.07,-132.29 111.97,-183.19 173.03,-152.61 325.64,-305.32 518.99,-427.77 793.72,-508.83 1841.86,-783.56 2686.48,-315.48 172.92,91.54 366.27,142.45 508.72,264.57 274.84,233.99 468.08,508.83 742.93,732.66 244.15,203.19 284.89,529.15 371.51,813.51 10.91,38.78 20.92,77.99 30.05,117.64 46.33,200.95 69.94,407.1 69.94,613.25 0,0.33 0,1.33 0,1.66l-5598.93 0.44z"/>
    <path class="fil13" d="M461.1 2809.25c-46.33,200.95 -69.94,407.1 -69.94,613.25 0,0.33 0,1.33 0,1.66l887.61 0.01c-16.68,-862.59 -238.05,-1582.95 884.84,-2461.05 -805.49,305.75 -1539.43,977.23 -1702.51,1846.13z"/>
    <path class="fil13" d="M582.8 2333.26c-49.27,113.75 -80.41,234.89 -91.7,358.31 -10.8,38.82 -20.81,78.05 -30,117.69 -46.33,200.95 -69.94,407.1 -69.94,613.25 0,0.33 0,1.33 0,1.66l2139.37 0.01c225.41,-17.71 455.45,-26.35 682.23,-26.35 226.79,0 456.82,8.64 682.53,25.92l2094.8 0.43c-0,-0.34 -0,-1.34 -0,-1.67 0,-206.15 -23.61,-412.3 -69.82,-613.12 -9.27,-39.65 -19.33,-78.91 -30.16,-117.76 -37,-121.59 -65.77,-250.67 -105.44,-374.3 -1731.28,-640.58 -3482.03,-627 -5201.86,15.94z"/>
    <path class="fil3 str0" d="M391.17 3424.17c0,-0.34 0,-1.34 0,-1.67 0,-206.15 23.61,-412.3 69.82,-613.12 9.27,-39.65 19.33,-78.91 30.16,-117.76 31.01,-345.42 213.88,-630.32 458.35,-884.73 50.9,-40.74 61.07,-132.29 111.97,-183.19 173.03,-152.61 325.64,-305.32 518.99,-427.77 793.72,-508.83 1841.86,-783.56 2686.48,-315.48 172.92,91.54 366.27,142.45 508.72,264.57 274.84,233.99 468.08,508.83 742.93,732.66 244.15,203.19 284.89,529.15 371.51,813.51 10.91,38.78 20.92,77.99 30.05,117.64 46.33,200.95 69.94,407.1 69.94,613.25 0,0.33 0,1.33 0,1.66l-5598.93 0.44z"/>
    <path class="fil12" d="M231.71 2710.87c1961.53,-834.15 3969.04,-845.48 5945.32,0 187.47,80.21 186.4,1495.79 0,1430.99 -1929.98,-671.91 -3971.07,-679.08 -5945.32,0 -234.84,80.74 -211.96,-1340.84 0,-1430.99z"/>
    <path class="fil0" d="M5856.64 3644.25c8.84,34.58 13.74,70.2 14.42,105.88 0.96,34.97 -1.18,69.73 -2.78,104.59l-3.85 52.08c-1.71,17.33 -3.42,34.65 -5.56,51.87 -4.28,34.54 -9.52,68.87 -17,102.77l-84.16 -15.08c4.71,-33.9 10.69,-67.48 17.54,-101.06l10.69 -50.37 10.69 -50.26c7.91,-33.47 14.65,-67.05 23.74,-100.52 8.97,-34.33 21.23,-67.85 36.3,-99.9l-0.03 0.01z"/>
    <path class="fil0" d="M5841.45 2561.58c16.38,66.76 29.66,134.97 38.81,203.18 4.6,34.11 8.34,68.34 11.66,102.56 3.32,34.22 5.24,68.66 7.06,102.99 2.78,68.66 3.96,137.31 0.64,205.86 -2.89,68.47 -11.85,137.3 -26.18,204.33 -10.69,-68.34 -17.86,-135.81 -24.81,-203.19 -6.95,-67.37 -12.94,-134.21 -21.92,-200.84 -4.17,-33.37 -8.88,-66.52 -13.9,-99.67 -5.02,-33.15 -10.69,-66.2 -16.25,-99.13 -11.44,-65.98 -24.6,-131.43 -38.39,-196.88l83.29 -19.21z"/>
    <path class="fil3 str8" d="M4973.83 2342.67c80.85,458.46 71.76,957.02 0,1483.6"/>
    <path class="fil3 str8" d="M4218.93 2188.78c55.07,458.78 48.87,957.67 0,1484.67"/>
    <path class="fil0" d="M3530.87 2711.29c12.91,73.12 21.48,147.1 25.31,221.08 4.28,73.79 5.56,147.58 6.95,221.48l0 110.79c0,36.9 0,73.79 -1.28,110.69 -1.61,73.79 -4.28,147.58 -9.3,221.26l-85.55 -4.28c2.35,-73.47 6.1,-146.83 10.05,-220.19l12.94 -219.98c4.92,-73.36 8.77,-146.83 14.44,-220.3 5.67,-73.47 14.04,-146.86 26.45,-220.54z"/>
    <path class="fil0" d="M3553.11 2106.11c1.95,20.3 3.02,41.01 3.02,61.49 0,2.06 0,4.36 0,6.42 0,11.34 -0.53,22.67 -0.86,34.01l-1.42 34.11c-1.82,22.67 -3.42,45.45 -7.27,68.23 -3.88,23.84 -11.43,46.97 -22.23,68.54 -12.81,-20.58 -22.58,-42.99 -28.9,-66.4 -6.1,-22.24 -9.95,-44.49 -14.01,-66.84l-5.24 -33.37c-1.39,-11.23 -3,-22.35 -4.17,-33.47 -2.44,-21.94 -3.74,-44.13 -3.74,-66.25 0,-0.29 0,-0.72 0,-1.01l84.81 -5.46z"/>
    <path class="fil3 str8" d="M2824.09 2103.65c3.74,459.85 3.32,958.95 0,1486.49"/>
    <path class="fil3 str8" d="M2135.6 2173.48c-22.03,459.85 -19.57,959.59 0,1487.67"/>
    <path class="fil0" d="M1386.9 3087.52c12.6,59 22.71,119.45 29.03,179.47 6.74,59.78 11.66,119.45 17.65,179.13l16.15 178.92c5.03,59.57 9.95,119.24 13.37,179.02l-85.55 6.85c-6.2,-59.99 -9.95,-120.2 -12.62,-180.41 -1.39,-30.16 -2.14,-60.31 -3,-90.47l-1.07 -90.47c0,-60.31 0.53,-120.74 3.74,-181.05 2.82,-60.65 10.65,-121.41 22.31,-180.95l-0 -0.03z"/>
    <path class="fil0" d="M1462.93 2323.2c-2.67,39.03 -6.85,77.85 -11.23,116.67l-7.06 58.28 -7.7 58.28c-5.77,38.93 -10.16,77.85 -17.11,116.89 -6.65,39.62 -16.76,78.86 -29.96,116.79 -11.07,-38.83 -18.27,-78.84 -21.33,-119.13 -3.21,-39.78 -3.42,-79.35 -4.06,-119.13l0 -59.46c0.64,-19.89 1.18,-39.68 2.14,-59.46 2.14,-39.68 5.24,-79.24 10.69,-118.6l85.62 8.87z"/>
    <path class="fil3 str8" d="M654.24 2539.97c-73.36,459.85 -65.13,960.87 0,1489.7"/>
    <path class="fil0" d="M5875.25 3546.62c22.14,0 40.1,-17.95 40.1,-40.1 0,-22.14 -17.96,-40.1 -40.1,-40.1 -22.14,0 -40.1,17.96 -40.1,40.1 0.29,22.02 18.08,39.81 40.1,40.1l0 0z"/>
    <path class="fil3 str9" d="M5930.96 2549.92c106.94,458.14 94.65,956.38 0,1482.64"/>
    <path class="fil3 str9" d="M5104.51 2321.28c80.85,458.46 71.76,957.02 0,1483.71"/>
    <path class="fil3 str9" d="M4349.29 2165.68c55.07,458.78 48.87,957.67 0,1484.67"/>
    <path class="fil3 str9" d="M3640.05 2084.08c29.3,458.99 26.1,958.3 0,1485.63"/>
    <path class="fil3 str9" d="M2952.85 2077.02c3.64,459.31 3.32,958.95 0,1486.49"/>
    <path class="fil3 str9" d="M2263.5 2145.14c-22.03,459.85 -19.57,959.59 0,1487.67"/>
    <path class="fil3 str9" d="M1547.74 2289.19c-47.69,459.85 -42.78,960.23 0,1488.74"/>
    <path class="fil3 str9" d="M781.29 2509.92c-73.36,459.85 -65.13,960.87 0,1489.7"/>
    <path class="fil3 str0" d="M231.71 2710.87c1961.53,-834.15 3969.04,-845.48 5945.32,0 187.47,80.21 186.4,1495.79 0,1430.99 -1929.98,-671.91 -3971.07,-679.08 -5945.32,0 -234.84,80.74 -211.96,-1340.84 0,-1430.99z"/>
    <path class="fil0" d="M2385.63 1933.29c136.17,-28.31 274.82,-49.35 413.05,-61.37 34.76,-3 69.41,-5.99 104.16,-8.34l104.27 -5.99c34.86,-1.5 69.62,-2.14 104.48,-3.21l104.48 -1.39c139.02,0 278.58,6.74 417.07,19.68 138.09,12.32 277.01,33.5 412.55,62.3 -139.02,-3.1 -278.05,-8.45 -415.79,-12.09 -137.74,-3.64 -276.34,-5.24 -414.4,-5.56l-103.43 -0.08c-34.54,0 -69.08,1.28 -103.63,1.18l-103.52 1.5c-34.54,1.18 -69.08,1.71 -103.73,2.14 -137.95,3.53 -276.34,8.45 -415.58,11.23z"/>
    <path class="fil6" d="M1535.98 1399.76c75.37,-60.09 155.96,-115.5 239.42,-163.95 83.2,-49.41 169.07,-94.54 256.66,-135.39 21.39,-10.69 44.17,-19.89 66.31,-29.73 22.14,-9.84 44.17,-19.89 66.73,-28.55 45.13,-17.65 89.83,-36.15 135.81,-51.33 90.81,-32.41 184.58,-59.61 278.64,-80.3 -22.14,9.73 -44.49,19.04 -66.84,28.13 -22.35,9.09 -44.81,17.54 -66.84,27.38 -44.38,18.61 -88.87,36.58 -132.93,55.83l-33.05 14.22c-10.69,4.6 -22.24,9.09 -33.15,14.12l-65.77 29.2c-22.03,9.41 -43.74,19.57 -65.66,29.41 -21.92,9.84 -43.74,19.68 -65.23,30.26l-65.23 30.26c-21.39,10.69 -42.78,21.39 -64.7,32.08 -42.78,20.75 -85.55,42.78 -128.86,64.17 -85.49,43.09 -170.61,87.68 -255.31,134.2z"/>
   </g>
  </g>
 </g>
</svg>
