<?xml version="1.0" encoding="UTF-8"?>
<!DOCTYPE svg PUBLIC "-//W3C//DTD SVG 1.1//EN" "http://www.w3.org/Graphics/SVG/1.1/DTD/svg11.dtd">
<!-- Creator: CorelDRAW -->
<svg xmlns="http://www.w3.org/2000/svg" xml:space="preserve" width="176.827mm" height="261.863mm" version="1.1" style="shape-rendering:geometricPrecision; text-rendering:geometricPrecision; image-rendering:optimizeQuality; fill-rule:evenodd; clip-rule:evenodd"
viewBox="0 0 921.49 1364.63"
 xmlns:xlink="http://www.w3.org/1999/xlink"
 xmlns:xodm="http://www.corel.com/coreldraw/odm/2003">
 <defs>
  <style type="text/css">
   <![CDATA[
    .str2 {stroke:#592D3D;stroke-width:8.27;stroke-miterlimit:22.9256}
    .str1 {stroke:#592D3D;stroke-width:16.55;stroke-miterlimit:22.9256}
    .str8 {stroke:white;stroke-width:33.09;stroke-miterlimit:22.9256}
    .str7 {stroke:white;stroke-width:22.06;stroke-miterlimit:22.9256}
    .str3 {stroke:#592D3D;stroke-width:20.75;stroke-miterlimit:22.9256}
    .str4 {stroke:#592D3D;stroke-width:12.35;stroke-miterlimit:22.9256}
    .str5 {stroke:#C46565;stroke-width:12.35;stroke-miterlimit:22.9256}
    .str9 {stroke:#592D3D;stroke-width:27.58;stroke-miterlimit:22.9256}
    .str0 {stroke:#592D3D;stroke-width:18.53;stroke-miterlimit:22.9256}
    .str6 {stroke:#592D3D;stroke-width:16.55;stroke-linecap:square;stroke-miterlimit:22.9256}
    .fil15 {fill:none}
    .fil3 {fill:none;fill-rule:nonzero}
    .fil7 {fill:#592D3D}
    .fil18 {fill:#592D3D}
    .fil21 {fill:#E2E2E2}
    .fil22 {fill:#F3AB98}
    .fil19 {fill:#FDD2B2}
    .fil20 {fill:white}
    .fil12 {fill:black;fill-rule:nonzero}
    .fil0 {fill:#592D3D;fill-rule:nonzero}
    .fil13 {fill:#61DAFB;fill-rule:nonzero}
    .fil2 {fill:#67B7D6;fill-rule:nonzero}
    .fil1 {fill:#85C5E5;fill-rule:nonzero}
    .fil10 {fill:#C46565;fill-rule:nonzero}
    .fil9 {fill:#D67070;fill-rule:nonzero}
    .fil11 {fill:#E2E2E2;fill-rule:nonzero}
    .fil8 {fill:#F28195;fill-rule:nonzero}
    .fil5 {fill:#F3AB98;fill-rule:nonzero}
    .fil17 {fill:#F3AB98;fill-rule:nonzero}
    .fil4 {fill:#FDD2B2;fill-rule:nonzero}
    .fil16 {fill:#FDD2B2;fill-rule:nonzero}
    .fil6 {fill:white;fill-rule:nonzero}
    .fil14 {fill:black;fill-rule:nonzero;fill-opacity:0.101961}
   ]]>
  </style>
 </defs>
 <g id="Capa_x0020_1">
  <metadata id="CorelCorpID_0Corel-Layer"/>
  <g id="_2325077439136">
   <g>
    <path class="fil0 str0" d="M33.46 610.08c283.25,120.38 573.14,122.09 858.52,0 27.07,-11.58 26.92,-216 0,-206.64 -278.69,97.03 -573.43,98.06 -858.52,0 -33.91,-11.72 -30.61,193.56 0,206.64z"/>
   </g>
   <path class="fil1" d="M464.06 157.91c-229.07,0 -414.79,185.7 -414.79,414.79l0 225.34c13.07,14.5 34.98,26.98 63.42,37.49l18.37 -54.83 19.94 66.82c210.63,56.03 643.5,34.86 727.84,-49.47l-0 -225.34c0,-229.09 -185.71,-414.79 -414.79,-414.79z"/>
   <path class="fil2" d="M107.17 833.43c1.82,0.7 3.65,1.38 5.52,2.1l18.38 -54.84 19.94 66.82c62.35,16.55 144.15,26.4 230.65,29.82l37.61 -36.15 -321.83 -242.17c0,0 -8.47,139.88 9.73,234.42z"/>
   <path class="fil2" d="M623.3 631.2l34.9 235.45c47.98,-5.98 91.86,-14.16 128.38,-24.45l-0 0c0,0 45.62,-50.86 40.7,-243.19 -4.92,-192.33 -203.98,32.2 -203.98,32.2z"/>
   <path class="fil3 str1" d="M464.06 157.91c-229.07,0 -414.79,185.7 -414.79,414.79l0 225.34c13.07,14.5 34.98,26.98 63.42,37.49l18.37 -54.83 19.94 66.82c210.63,56.03 643.5,34.86 727.84,-49.47l-0 -225.34c0,-229.09 -185.71,-414.79 -414.79,-414.79z"/>
   <path class="fil4" d="M93.9 558.43c0,-203.13 164.67,-367.8 367.8,-367.8 203.13,0 367.8,164.67 367.8,367.8 0,0.08 0,0.26 0,0.35 0,110.69 -50.01,215.6 -136.01,285.24 -7.55,6.13 -15.34,11.96 -23.37,17.49 -82.95,52.66 -187.74,52.66 -282.34,44.23 -9.18,-1.38 -18.34,-3.12 -27.42,-5.12 -36.3,-8 -71.45,-20.34 -103.92,-38.33 -8.02,-4.95 -15.81,-10.29 -23.34,-16.02 -7.56,-5.74 -14.85,-11.96 -21.77,-18.44 -6.57,-6.1 -12.92,-12.43 -19.03,-19 -63.17,-67.81 -98.39,-157.18 -98.39,-249.91 0,-0.13 0,-0.36 0,-0.49l-0 0.01z"/>
   <path class="fil5" d="M144.04 743.85c0.97,1.65 1.92,3.31 2.91,4.94 0.59,0.99 1.21,1.96 1.83,2.95 0.91,1.48 1.82,2.95 2.76,4.4 0.66,1.05 1.38,2.07 2.01,3.09 0.91,1.38 1.82,2.76 2.76,4.14 0.7,1.05 1.38,2.1 2.15,3.14 0.91,1.38 1.82,2.65 2.76,3.97 0.74,1.06 1.52,2.11 2.28,3.17 0.76,1.06 1.85,2.55 2.76,3.82 0.91,1.27 1.59,2.11 2.39,3.16 0.8,1.05 1.89,2.48 2.85,3.72 0.97,1.24 1.64,2.08 2.47,3.12 0.83,1.03 1.94,2.43 2.92,3.63 0.98,1.2 1.7,2.05 2.55,3.07 0.86,1.02 1.99,2.37 2.99,3.54 1.01,1.17 1.75,2.03 2.63,3.03l3.06 3.45c0.9,1.01 1.81,1.99 2.76,2.98 1.19,1.3 2.39,2.58 3.58,3.85l1.67 1.77c1.78,1.85 3.57,3.7 5.39,5.52l0.36 0.37c1.78,1.77 3.58,3.52 5.39,5.25l2.18 2.07c1.31,1.23 2.62,2.45 3.94,3.67l1.6 1.46c1.38,1.3 2.88,2.56 4.33,3.83 4.5,3.92 9.1,7.69 13.79,11.29 7.53,5.74 15.31,11.08 23.34,16.02 32.47,17.92 67.56,30.33 103.92,38.33 9.09,2 18.24,3.72 27.42,5.12 58.05,5.17 119.96,7.14 178.25,-4.25 -92.7,-27.29 -537.86,-187.59 -257.67,-677.42l0 0c-3.75,1.72 -7.45,3.5 -11.11,5.35l-0.81 0.4c-1.68,0.84 -3.36,1.71 -5.03,2.59l-1.38 0.73c-5.18,2.76 -10.31,5.61 -15.35,8.59l-1.24 0.73c-1.6,0.95 -3.19,1.92 -4.77,2.9l-1.2 0.74c-4.93,3.08 -9.78,6.26 -14.55,9.56l-1.49 1.03c-1.5,1.05 -2.98,2.1 -4.45,3.16l-0.91 0.65c-3.01,2.2 -5.97,4.42 -8.91,6.67l-0.85 0.66c-1.38,1.08 -2.76,2.18 -4.14,3.3l-1.61 1.3c-1.38,1.12 -2.76,2.23 -4.14,3.38l0 0c-2.91,2.41 -5.78,4.89 -8.6,7.4l-1.57 1.38 -3.71 3.38 -1.79 1.63c-3.93,3.68 -7.78,7.43 -11.54,11.26l-1.9 1.94c-1.09,1.13 -2.18,2.26 -3.25,3.41 -0.63,0.68 -1.27,1.38 -1.89,2.04 -1.89,2.02 -3.76,4.07 -5.6,6.15 -0.62,0.7 -1.25,1.38 -1.88,2.12 -0.98,1.12 -1.94,2.25 -2.91,3.38l-2.08 2.47c-0.94,1.12 -1.88,2.23 -2.76,3.36 -0.74,0.91 -1.49,1.83 -2.22,2.76 -1.48,1.83 -2.92,3.67 -4.36,5.52 -0.74,0.97 -1.49,1.93 -2.22,2.91 -0.73,0.98 -1.65,2.19 -2.47,3.31 -0.81,1.12 -1.48,2 -2.19,3.01 -0.72,1.01 -1.56,2.14 -2.32,3.21 -1.3,1.84 -2.59,3.7 -3.86,5.58 -0.69,1.01 -1.38,2.04 -2.05,3.06 -0.68,1.02 -1.52,2.29 -2.26,3.45l-2.05 3.19 -2.32 3.74c-0.59,0.95 -1.19,1.9 -1.77,2.85 -1.23,2.01 -2.41,4.04 -3.6,6.07l-1.68 2.98c-0.74,1.31 -1.49,2.63 -2.22,3.96 -0.55,1.01 -1.1,2.01 -1.64,3.02 -0.88,1.64 -1.75,3.3 -2.62,4.95l-1.65 3.23c-0.88,1.77 -1.77,3.52 -2.63,5.29 -0.45,0.95 -0.92,1.92 -1.38,2.88 -0.72,1.5 -1.38,3.02 -2.11,4.54 -0.43,0.91 -0.84,1.82 -1.25,2.76 -1.02,2.27 -2.02,4.57 -2.99,6.89 -0.3,0.72 -0.59,1.45 -0.9,2.16 -0.73,1.75 -1.45,3.5 -2.15,5.27 -0.37,0.92 -0.73,1.85 -1.09,2.76 -0.69,1.74 -1.38,3.49 -2,5.24 -0.29,0.76 -0.58,1.52 -0.85,2.28 -0.86,2.42 -1.71,4.83 -2.55,7.25l-0.77 2.34c-0.61,1.84 -1.2,3.68 -1.78,5.52l-0.83 2.63c-0.65,2.12 -1.28,4.25 -1.89,6.38 -0.14,0.45 -0.28,0.91 -0.4,1.38 -0.72,2.54 -1.41,5.08 -2.07,7.64 -0.22,0.81 -0.41,1.64 -0.62,2.45 -0.48,1.92 -0.95,3.83 -1.38,5.76l-0.58 2.41c-0.59,2.62 -1.17,5.24 -1.71,7.87l-0.21 1.06c-0.47,2.34 -0.93,4.69 -1.38,7.03 -0.15,0.84 -0.29,1.67 -0.44,2.51 -0.36,2.05 -0.7,4.14 -1.02,6.2 -0.11,0.7 -0.23,1.38 -0.33,2.1 -0.41,2.69 -0.79,5.39 -1.14,8.11l-0.21 1.79c-0.28,2.19 -0.52,4.4 -0.76,6.6 -0.08,0.83 -0.18,1.65 -0.26,2.5 -0.22,2.32 -0.43,4.65 -0.62,6.98 0,0.48 -0.08,0.95 -0.11,1.38 -0.2,2.76 -0.38,5.54 -0.54,8.34 0,0.73 0,1.48 -0.1,2.21 -0.09,2.17 -0.18,4.33 -0.25,6.49 0,0.81 0,1.63 0,2.44 0,2.83 -0.11,5.67 -0.11,8.51 0,0 0,0.1 0,0.14 0,3.06 0,6.09 0.11,9.13 0,1.05 0.08,2.1 0.11,3.14 0.07,2.03 0.14,4.05 0.23,6.08 0,1.23 0.15,2.44 0.22,3.67 0.11,1.83 0.21,3.67 0.34,5.52 0.1,1.38 0.22,2.61 0.33,3.9 0.15,1.74 0.29,3.47 0.47,5.2 0.12,1.38 0.29,2.67 0.43,4.01 0.19,1.67 0.37,3.35 0.58,5.02 0.17,1.38 0.36,2.76 0.54,4.07 0.22,1.63 0.44,3.27 0.69,4.89 0.21,1.38 0.43,2.76 0.65,4.14 0.25,1.6 0.51,3.21 0.79,4.81 0.25,1.38 0.5,2.76 0.76,4.14 0.29,1.59 0.59,3.17 0.9,4.74 0.3,1.57 0.57,2.76 0.85,4.14 0.33,1.57 0.66,3.13 1.02,4.69 0.36,1.56 0.61,2.76 0.94,4.04 0.36,1.56 0.74,3.1 1.13,4.63 0.39,1.53 0.68,2.69 1.02,4.01 0.41,1.54 0.83,3.07 1.25,4.61 0.36,1.38 0.73,2.65 1.12,3.96 0.44,1.53 0.9,3.05 1.38,4.56 0.48,1.52 0.8,2.61 1.21,3.92 0.41,1.31 0.97,3.02 1.46,4.52 0.5,1.5 0.85,2.58 1.3,3.86 0.52,1.5 1.05,3.01 1.59,4.51 0.45,1.25 0.9,2.52 1.38,3.78l1.71 4.51c0.48,1.23 0.95,2.47 1.38,3.7 0.61,1.5 1.23,3.02 1.85,4.52 0.5,1.19 0.98,2.39 1.49,3.57 0.65,1.54 1.38,3.06 2,4.59 0.51,1.13 1.01,2.28 1.52,3.41 0.72,1.6 1.48,3.17 2.21,4.74l1.49 3.17c0.84,1.74 1.71,3.45 2.58,5.17 0.44,0.87 0.85,1.75 1.31,2.62 2.65,5.16 5.4,10.24 8.27,15.26 0.4,0.65 0.91,1.49 1.41,2.33z"/>
   <path class="fil3 str1" d="M93.9 558.43c0,-203.13 164.67,-367.8 367.8,-367.8 203.13,0 367.8,164.67 367.8,367.8 0,0.08 0,0.26 0,0.35 0,110.69 -50.01,215.6 -136.01,285.24 -7.55,6.13 -15.34,11.96 -23.37,17.49 -82.95,52.66 -187.74,52.66 -282.34,44.23 -9.18,-1.38 -18.34,-3.12 -27.42,-5.12 -36.3,-8 -71.45,-20.34 -103.92,-38.33 -8.02,-4.95 -15.81,-10.29 -23.34,-16.02 -7.56,-5.74 -14.85,-11.96 -21.77,-18.44 -6.57,-6.1 -12.92,-12.43 -19.03,-19 -63.17,-67.81 -98.39,-157.18 -98.39,-249.91 0,-0.13 0,-0.36 0,-0.49l-0 0.01z"/>
   <path class="fil5" d="M146.5 652.92c-1.38,-39.1 24.82,-72.19 59.67,-87.64 3.64,-1.5 7.43,-2.75 11.25,-3.72 7.56,-1.87 15.36,-2.82 23.16,-2.82 11.98,0 23.88,2.24 35.04,6.59 4.21,1.61 8.35,3.54 12.31,5.73 40.72,21.91 59,73.42 43.24,115.08 -1.59,4.19 -3.53,8.29 -5.76,12.17 -5.5,11.45 -13.82,21.33 -24.14,28.72 -3.43,2.53 -7.07,4.86 -10.82,6.9 -37.75,17.92 -88.77,12.41 -119.2,-15.72 -3.04,-3.23 -5.86,-6.68 -8.42,-10.3 -2.92,-4.13 -5.51,-8.54 -7.68,-13.11 -4.62,-9.38 -7.29,-19.61 -7.82,-30.05 -0.49,-3.91 -0.77,-7.89 -0.83,-11.82l-0 0z"/>
   <path class="fil6" d="M144.26 627.62c-1.38,-39.1 24.82,-72.19 59.67,-87.64 3.65,-1.49 7.42,-2.75 11.24,-3.73 7.59,-1.88 15.44,-2.84 23.27,-2.84 11.95,0 23.8,2.22 34.94,6.54 4.21,1.63 8.33,3.56 12.29,5.74 40.72,21.91 59,73.44 43.24,115.08 -1.57,4.2 -3.52,8.29 -5.75,12.16 -1.91,3.73 -4.09,7.34 -6.5,10.76 -2.38,3.39 -5.01,6.63 -7.83,9.65 -3.04,3.02 -6.36,5.83 -9.82,8.37 -3.44,2.53 -7.07,4.85 -10.82,6.89 -37.75,17.92 -88.77,12.41 -119.18,-15.7 -3.03,-3.22 -5.87,-6.69 -8.42,-10.31 -2.93,-4.13 -5.52,-8.53 -7.7,-13.1 -4.63,-9.34 -7.32,-19.54 -7.87,-29.96 -0.5,-3.94 -0.76,-7.93 -0.76,-11.9l0 0z"/>
   <circle class="fil0" cx="239.04" cy="616.05" r="16.88"/>
   <path class="fil4 str2" d="M323.16 672.87c2.24,-3.87 4.19,-7.97 5.76,-12.16 1.46,-3.88 2.66,-7.87 3.55,-11.91 -94.2,-10.69 -175.11,28.69 -175.11,28.69l1.52 2.41c0.57,0.85 1.13,1.71 1.72,2.54 2.55,3.62 5.39,7.09 8.43,10.31 30.42,28.07 81.43,33.59 119.18,15.7 3.75,-2.04 7.37,-4.36 10.82,-6.89 3.46,-2.54 6.78,-5.35 9.83,-8.37 2.82,-3.02 5.45,-6.26 7.83,-9.65 2.4,-3.39 4.59,-6.98 6.48,-10.67l0 0z"/>
   <path class="fil3 str1" d="M144.26 627.62c-1.38,-39.1 24.82,-72.19 59.67,-87.64 3.65,-1.49 7.42,-2.75 11.24,-3.73 7.59,-1.88 15.44,-2.84 23.27,-2.84 11.95,0 23.8,2.22 34.94,6.54 4.21,1.63 8.33,3.56 12.29,5.74 40.72,21.91 59,73.44 43.24,115.08 -1.57,4.2 -3.52,8.29 -5.75,12.16 -1.91,3.73 -4.09,7.34 -6.5,10.76 -2.38,3.39 -5.01,6.63 -7.83,9.65 -3.04,3.02 -6.36,5.83 -9.82,8.37 -3.44,2.53 -7.07,4.85 -10.82,6.89 -37.75,17.92 -88.77,12.41 -119.18,-15.7 -3.03,-3.22 -5.87,-6.69 -8.42,-10.31 -2.93,-4.13 -5.52,-8.53 -7.7,-13.1 -4.63,-9.34 -7.32,-19.54 -7.87,-29.96 -0.5,-3.94 -0.76,-7.93 -0.76,-11.9l0 0z"/>
   <path class="fil4" d="M577.37 641.8c0.59,-20.86 9.2,-41.49 20.82,-56.99 2.97,-4.16 6.26,-8.11 9.81,-11.76 18.13,-18.89 43.2,-29.59 69.39,-29.59 19.64,0 38.84,6.02 54.94,17.24 3.12,2.18 6.15,4.56 9,7.08 37.23,29.58 41.53,87.06 21.12,128.55 -1.98,3.28 -4.2,6.47 -6.59,9.46 -3.18,3.99 -6.7,7.76 -10.44,11.21 -27.95,24.58 -71.44,30.51 -106.73,17.12 -5.03,-1.89 -9.92,-4.22 -14.55,-6.89 -24.68,-14.86 -41.87,-42.87 -46.09,-72.02 -0.46,-3.67 -0.71,-7.36 -0.71,-11.06 0,-0.78 0.01,-1.58 0.03,-2.35l0 -0z"/>
   <path class="fil6 str1" d="M584.94 625.99c0.58,-19.51 8.85,-38.81 20.02,-53.3 2.86,-3.9 6.05,-7.59 9.46,-11.03 17.71,-17.69 41.75,-27.65 66.79,-27.65 18.82,0 37.24,5.64 52.84,16.15 3,2.03 5.91,4.25 8.66,6.6 35.85,27.67 39.99,81.45 20.32,120.26 -1.91,3.09 -4.03,6.05 -6.34,8.84 -3.07,3.74 -6.46,7.26 -10.05,10.48 -26.9,23 -68.75,28.55 -102.71,16.02 -4.84,-1.8 -9.54,-3.99 -14.02,-6.55 -23.74,-13.9 -40.29,-40.1 -44.36,-67.35 -0.44,-3.34 -0.66,-6.72 -0.66,-10.09 0,-0.8 0.02,-1.6 0.04,-2.39l-0 -0z"/>
   <circle class="fil0" cx="681.22" cy="628.46" r="16.88"/>
   <path class="fil0" d="M763.47 721.28c-14.11,6.89 -28.02,13.17 -43.21,17.5 -7.4,2.15 -15.02,3.69 -22.69,4.55 -5.14,0.41 -10.34,0.62 -15.49,0.62 -2.95,0 -5.99,-0.09 -8.91,-0.21 -9.36,-0.18 -18.83,-1.1 -28.08,-2.63 -2.66,-0.43 -5.69,0.7 -6.37,3.61 -0.57,2.5 0.76,5.9 3.61,6.37 8.91,1.5 18.07,2.47 27.11,2.88 4.4,0.18 8.78,0.08 13.18,0.22 1.22,0.05 2.51,0.07 3.74,0.07 2.91,0 5.85,-0.13 8.75,-0.36 16.55,-1.38 32.57,-5.9 47.93,-12.08 8.71,-3.52 17.26,-7.45 25.69,-11.61 1.57,-0.93 2.54,-2.63 2.54,-4.47 0,-0.91 -0.24,-1.81 -0.7,-2.6 -0.96,-1.57 -2.67,-2.53 -4.51,-2.53 -0.9,0 -1.78,0.23 -2.57,0.67l-0.03 0z"/>
   <path class="fil0" d="M275.99 734.12c-15.68,2.98 -30.89,5.24 -46.96,5.28 -0.4,0.01 -0.84,0.01 -1.24,0.01 -7.42,0 -14.88,-0.64 -22.19,-1.88 -16.86,-3.52 -33.37,-8.93 -49.04,-16.04 -0.78,-0.44 -1.66,-0.66 -2.55,-0.66 -1.84,0 -3.55,0.95 -4.52,2.52 -1.31,2.23 -0.69,5.89 1.85,7.07 8.01,3.7 16.28,7.02 24.64,9.79 4.01,1.38 8.09,2.34 12.11,3.58 4.02,1.28 8.16,2.39 12.29,3.25 16.48,3.34 33.39,3.27 50.06,1.38 9.49,-1.05 18.9,-2.59 28.28,-4.37 2.76,-0.51 4.3,-3.82 3.61,-6.36 -0.67,-2.25 -2.73,-3.78 -5.07,-3.78 -0.44,0 -0.88,0.06 -1.31,0.16l0.04 0.06z"/>
   <g>
    <path class="fil7" d="M108.57 536.55c7.78,21.83 28.82,33.17 46.05,37.15 18.01,-27.91 78.11,-39.88 123.22,-24.05 38.33,6.89 -14.9,-35.26 -99.92,-12.41 -3.19,1.17 -20.08,4.07 -41.75,-12.67 -3.02,-2.33 6.45,18.9 17.24,27.58 -15.65,-0.32 -18.21,-0.3 -44.84,-15.59z"/>
    <path class="fil7" d="M766.71 552.13c10.78,-8.62 20.25,-29.85 17.24,-27.58 -21.68,16.74 -38.61,13.79 -41.75,12.67 -85.02,-22.89 -138.27,19.3 -99.94,12.41 45.13,-15.83 105.23,-3.86 123.24,24.05 17.24,-3.97 38.28,-15.32 46.05,-37.15 -26.63,15.3 -29.19,15.29 -44.84,15.59z"/>
   </g>
   <path class="fil0 str1" d="M515.07 786.95c-21.44,0 -34.64,-17.59 -50.3,-17.59 -15.66,0 -35.74,17.59 -56.85,17.59 -21.11,0 -32.72,-15.32 -32.72,-36.55 0,-22.96 23.1,-63.51 86.33,-63.51 63.23,0 90.16,38.25 90.16,62.68 -0.05,22.57 -15.17,37.38 -36.62,37.38z"/>
   <path class="fil8" d="M477.06 772.49c-6.29,-16.89 -27.77,-27.92 -52.19,-25.76 -20.39,1.85 -37.13,12.53 -43.9,26.33 5.41,8.63 14.49,13.88 26.9,13.88 21.16,0 41.23,-17.59 56.9,-17.59 4.27,0.15 8.47,1.22 12.29,3.13l-0 -0z"/>
   <path class="fil0" d="M399.74 735.83l1.2 -0.48 1.01 -0.34c0.65,-0.22 1.3,-0.39 1.94,-0.55 1.29,-0.33 2.61,-0.58 3.93,-0.73 1.46,-0.19 2.95,-0.29 4.42,-0.29 1.21,0 2.42,0.07 3.63,0.2 5.61,0.53 10.96,2.69 15.37,6.18 4.18,3.3 7.31,7.74 9.03,12.78 0.83,2.46 1.25,5.04 1.25,7.63 0,2.29 -0.33,4.57 -0.98,6.76 -3.45,-3.56 -6.15,-6.81 -8.87,-9.49 -1.23,-1.27 -2.57,-2.47 -3.97,-3.56 -1.27,-0.96 -2.67,-1.76 -4.14,-2.37 -2.54,-1.05 -5.27,-1.6 -8.02,-1.6 -0.24,0 -0.49,0.01 -0.73,0.01 -1.57,0.04 -3.17,0.18 -4.73,0.42 -0.79,0.14 -1.6,0.26 -2.37,0.43l-1.16 0.26 -0.54 0.11c-0.12,0 -0.4,0.11 -0.3,0l-5.98 -15.36z"/>
   <rect class="fil5" x="172.47" y="439.88" width="605.63" height="88.45"/>
   <path class="fil1" d="M751.25 789.6c-4.33,5.35 -8.79,10.58 -13.39,15.68 -3.45,3.82 3.56,-1.54 13.39,-15.68zm20.68 -436.46c-42.05,-75.02 -115.13,-126.67 -199.62,-150.44l-8.76 -2.36c-31.3,-8.66 -64.28,-9.65 -98.34,-9.65 -36.8,0 -72.33,3.78 -105.85,13.79l-5.87 1.75c-44.57,15.13 -86.13,38.29 -122.49,68.17 -4.03,3.29 -7.97,6.66 -11.83,10.09 -39.08,32.66 -69.41,74.03 -90.27,121.2 -2.02,4.52 -3.93,9.09 -5.74,13.69 -5.38,13.71 -9.74,27.86 -12.99,42.19 -44.19,174.54 24.6,281.62 85.65,347.25 6.03,6.48 -79.87,-140.43 -24.02,-297.82 10.66,-0.4 27.91,-0.7 49.9,-0.92l21.37 -69.78 24.05 69.46c37.78,-0.18 82.56,-0.21 129.44,-0.17l16.99 -72.19 19.19 72.22c102.54,0.19 208.81,0.72 269.25,1.06l18.2 -71.93 20.68 72.15 11.32 0.07c69.06,146.73 24.56,242.05 -0.95,278.63 52.83,-65.18 81.76,-146.69 81.76,-230.66 0,-0.13 0,-0.36 0,-0.49 0,-119.17 -61.08,-205.31 -61.08,-205.31z"/>
   <path class="fil3 str1" d="M751.25 789.6c-4.33,5.35 -8.79,10.58 -13.39,15.68 -3.45,3.82 3.56,-1.54 13.39,-15.68zm20.68 -436.46c-42.05,-75.02 -115.13,-126.67 -199.62,-150.44l-8.76 -2.36c-31.3,-8.66 -64.28,-9.65 -98.34,-9.65 -36.8,0 -72.33,3.78 -105.85,13.79l-5.87 1.75c-44.57,15.13 -86.13,38.29 -122.49,68.17 -4.03,3.29 -7.97,6.66 -11.83,10.09 -39.08,32.66 -69.41,74.03 -90.27,121.2 -2.02,4.52 -3.93,9.09 -5.74,13.69 -5.38,13.71 -9.74,27.86 -12.99,42.19 -44.19,174.54 24.6,281.62 85.65,347.25 6.03,6.48 -79.87,-140.43 -24.02,-297.82 10.66,-0.4 27.91,-0.7 49.9,-0.92l21.37 -69.78 24.05 69.46c37.78,-0.18 82.56,-0.21 129.44,-0.17l16.99 -72.19 19.19 72.22c102.54,0.19 208.81,0.72 269.25,1.06l18.2 -71.93 20.68 72.15 11.32 0.07c69.06,146.73 24.56,242.05 -0.95,278.63 52.83,-65.18 81.76,-146.69 81.76,-230.66 0,-0.13 0,-0.36 0,-0.49 0,-119.17 -61.08,-205.31 -61.08,-205.31z"/>
   <path class="fil1" d="M577.73 183.39l-8.92 -2.4c-34.76,-9.65 -70.22,-10.41 -103.59,-10.41 -42.18,0 -78.69,4.81 -111.56,14.67l-5.87 1.75 -0.68 0.21c-46.84,15.98 -90.56,40.31 -128.82,71.71 -4.14,3.39 -8.27,6.89 -12.19,10.41 -40.85,34.22 -72.98,77.36 -95.47,128.23 -2.15,4.81 -4.14,9.72 -6.09,14.57 -5.76,14.74 -29.35,82.41 -32.75,97.41l100 1.38c10.66,-0.4 27.91,-0.7 49.9,-0.92l21.37 -69.78 24.05 69.46c37.78,-0.18 82.56,-0.21 129.44,-0.17l16.99 -72.19 19.21 72.3c102.54,0.19 208.81,0.72 269.25,1.06l18.2 -71.93 20.68 72.15 11.32 0.07 100.81 47.46c0,-118.84 -56.94,-205.44 -64.09,-215.92 -43.18,-76.39 -118.15,-132.92 -211.19,-159.11zm229.1 440.18c-4.37,-35.74 -15.4,-76.19 -36.55,-121.11l-5.36 -11.4 -8.95 0 -36.92 -129.1 -32.6 128.64c-55.75,-0.3 -147.62,-0.74 -238.34,-0.95l-35.78 -134.53 -31.63 134.43c-37.78,0 -71.08,0 -99.4,0.12l-39.38 -113.9 -35.05 114.44c-15.79,0.21 -27.8,0.47 -35.85,0.77l-13.55 0.52 -4.54 12.77c-19.77,55.83 -25.01,116.19 -15.58,179.62 -21.92,-55.15 -30.97,-126.01 -7.79,-217.34l0.12 -0.52c3.02,-13.33 7.15,-26.58 12.14,-39.33 1.65,-4.26 3.46,-8.58 5.39,-12.89 20.05,-45.31 48.59,-83.65 84.81,-113.93l0.45 -0.4c3.65,-3.24 7.43,-6.47 11.22,-9.58 34.39,-28.27 73.67,-50.21 115.82,-64.64l5.58 -1.65c29.12,-8.74 61.87,-13 100.1,-13 30.64,0 63.05,0.7 93,8.99l8.8 2.36c83.06,23.44 149.64,73.45 187.52,140.96l0.51 0.91 0.61 0.87c0.58,0.81 57.37,82.22 57.37,193.72 -0.01,21.86 -2.13,43.72 -6.21,65.15l0.02 0.02z"/>
   <path class="fil3 str1" d="M751.25 789.6c-4.33,5.35 -8.79,10.58 -13.39,15.68 -3.45,3.82 3.56,-1.54 13.39,-15.68zm-555.42 19.22c6.03,6.48 -79.87,-140.43 -24.02,-297.82 10.66,-0.4 27.91,-0.7 49.9,-0.92l21.37 -69.78 24.05 69.46c37.78,-0.18 82.56,-0.21 129.44,-0.17l16.99 -72.19 19.19 72.22c102.54,0.19 208.81,0.72 269.25,1.06l18.2 -71.93 20.68 72.15 11.32 0.07c69.06,146.73 24.56,242.05 -0.95,278.63"/>
   <path class="fil0" d="M164.54 507.21c0.25,-1.03 0.45,-1.82 0.73,-2.67 0.28,-0.85 0.55,-1.65 0.85,-2.45 0.63,-1.61 1.38,-3.19 2.08,-4.72 1.54,-3.08 3.32,-6.04 5.31,-8.85 1.96,-2.85 4.22,-5.52 6.72,-7.93 2.73,-2.58 6.04,-4.48 9.65,-5.52 -0,0.17 0,0.35 0,0.52 0,3.39 -0.4,6.77 -1.2,10.07 -0.39,1.57 -0.81,3.1 -1.28,4.58l-1.38 4.48c-0.92,2.97 -1.84,5.91 -2.76,8.81 -0.45,1.46 -0.94,2.88 -1.38,4.32 -0.23,0.7 -0.51,1.38 -0.77,2.11 -0.26,0.73 -0.54,1.38 -0.77,1.93l-15.81 -4.67z"/>
   <path class="fil0" d="M752.19 502.7c1.28,-0.1 2.55,-0.15 3.83,-0.15 1.58,0 3.19,0.08 4.76,0.24 2.87,0.25 5.77,0.65 8.6,1.19 1.38,0.28 2.87,0.55 4.3,0.88 1.44,0.3 2.89,0.7 4.29,1.18 3.16,1.07 6.09,2.75 8.6,4.94 -2.52,2.18 -5.45,3.87 -8.6,4.95 -1.4,0.48 -2.84,0.87 -4.29,1.17 -1.38,0.34 -2.87,0.62 -4.3,0.9 -2.87,0.53 -5.73,0.93 -8.6,1.19 -1.55,0.15 -3.12,0.23 -4.68,0.23 -1.3,0 -2.62,-0.06 -3.91,-0.16l0 -16.55z"/>
   <path class="fil6" d="M385.64 492.34c0.33,-6.56 1.03,-13.15 2.05,-19.64 0.99,-6.48 2.21,-12.92 3.6,-19.3 1.39,-6.38 2.96,-12.75 4.74,-19.07 1.76,-6.34 3.94,-12.66 6.38,-18.75 -0.31,6.56 -1.04,13.15 -2.09,19.65 -0.99,6.48 -2.19,12.92 -3.59,19.31 -1.41,6.39 -2.99,12.74 -4.74,19.07 -1.78,6.33 -3.94,12.63 -6.37,18.74l0.01 -0z"/>
   <path class="fil6" d="M693.34 492.34c0.33,-6.56 1.03,-13.15 2.05,-19.64 1,-6.49 2.21,-12.92 3.6,-19.31 1.4,-6.39 2.96,-12.74 4.67,-19.06 1.77,-6.35 3.88,-12.62 6.3,-18.73 -0.31,6.58 -1.04,13.14 -2.06,19.64 -1.01,6.49 -2.21,12.93 -3.59,19.31 -1.38,6.4 -2.98,12.75 -4.76,19.07 -1.73,6.31 -3.83,12.62 -6.21,18.71l-0.01 -0z"/>
   <g>
    <path class="fil1" d="M99.83 514.66c2.76,-18.09 8.1,-35.76 15.76,-52.39l-15.76 52.39zm0 0l0 0 0 0z"/>
   </g>
   <path class="fil0" d="M91.63 513.63c0.12,-1.38 0.25,-2.55 0.44,-3.76 0.19,-1.21 0.4,-2.37 0.63,-3.56 0.48,-2.34 1.03,-4.66 1.7,-6.89 1.3,-4.58 2.91,-9.08 4.78,-13.44 1.82,-4.4 4,-8.67 6.48,-12.72 2.6,-4.21 5.97,-7.91 9.91,-10.9 0.08,1.32 0.12,2.67 0.12,4.01 0,3.47 -0.27,6.95 -0.78,10.37 -0.34,2.25 -0.7,4.48 -1.14,6.67 -0.44,2.19 -0.8,4.4 -1.14,6.59l-2.25 13.08 -1.14 6.45c-0.17,1.08 -0.39,2.15 -0.58,3.2 -0.19,1.05 -0.41,2.16 -0.61,3.02l-16.42 -2.12z"/>
   <g>
    <path class="fil1" d="M833.05 552.91c0,0 -0.63,-28.65 -11.54,-65.67l11.54 65.67zm0 0l0 0 0 0z"/>
   </g>
   <path class="fil0" d="M824.78 553.08l-0.33 -3.81c-0.11,-1.38 -0.22,-2.66 -0.3,-3.98l-0.62 -8.05 -1.25 -16.27c-0.41,-5.45 -0.98,-10.91 -1.38,-16.45 -0.11,-2.76 -0.22,-5.6 -0.14,-8.47 0.02,-2.95 0.27,-5.91 0.69,-8.82 3.75,4.52 6.82,9.59 9.07,15.01 1.11,2.62 2.13,5.34 2.98,8.05 0.92,2.76 1.71,5.52 2.5,8.27 1.55,5.49 2.81,11.12 3.71,16.77 0.45,2.83 0.87,5.68 1.12,8.56 0.15,1.44 0.26,2.89 0.33,4.35 0.08,1.48 0.11,2.85 0.1,4.52l-16.48 0.3z"/>
   <path class="fil6" d="M470.94 193.73c-19.6,1.14 -39.2,3.45 -58.55,6.81 -4.8,0.94 -9.65,1.96 -14.39,2.84 -4.74,0.88 -9.51,2.22 -14.27,3.32l-14.15 3.75c-4.69,1.38 -9.33,2.87 -13.99,4.3 -18.6,5.95 -36.83,13.27 -54.38,21.7 -17.68,8.56 -34.91,18.29 -51.38,28.96 14.66,-13.41 30.99,-25.11 48.37,-34.68 17.41,-9.74 35.86,-17.78 54.82,-23.91 4.8,-1.38 9.57,-2.88 14.37,-4.21 4.8,-1.32 9.65,-2.51 14.55,-3.58 4.89,-1.08 9.79,-1.93 14.68,-2.76 4.89,-0.83 9.87,-1.48 14.81,-2.1 10.48,-1.28 21.16,-1.92 31.75,-1.92 9.24,0 18.58,0.51 27.76,1.47l0 0z"/>
   <path class="fil0" d="M361.45 559.99l-17.92 -6.05 -43.02 -14.53 -51.84 -17.52 -44.8 -15.17c-7.27,-2.45 -14.49,-5.07 -21.8,-7.36l-0.3 -0.11c-1.19,-0.33 -2.43,-0.5 -3.67,-0.5 -7.62,0 -13.8,6.18 -13.8,13.8 0,6.21 4.15,11.65 10.13,13.3l17.92 6.05 43.02 14.53 51.84 17.51 44.8 15.17c7.25,2.45 14.48,5.06 21.8,7.36l0.3 0.11c1.19,0.33 2.43,0.5 3.67,0.5 7.62,0 13.8,-6.18 13.8,-13.8 0,-6.21 -4.15,-11.65 -10.13,-13.3l-0 0.01z"/>
   <path class="fil0" d="M733.57 494.87l-17.54 7.03 -42.11 16.97 -50.75 20.46 -43.86 17.72c-7.11,2.87 -14.23,5.74 -21.33,8.6l-0.3 0.11c-3.46,1.38 -6.29,2.99 -8.27,6.34 -1.22,2.12 -1.86,4.53 -1.86,6.98 0,1.23 0.16,2.46 0.48,3.65 0.96,3.48 3.24,6.45 6.34,8.27 3.06,1.63 7.25,2.76 10.62,1.38l17.55 -7.07 42.11 -16.97 50.77 -20.49 43.86 -17.68c7.1,-2.87 14.23,-5.72 21.33,-8.6l0.3 -0.12c3.46,-1.38 6.29,-2.99 8.27,-6.33 1.24,-2.11 1.89,-4.52 1.89,-6.97 0,-4.9 -2.61,-9.44 -6.84,-11.91 -3.06,-1.61 -7.27,-2.76 -10.63,-1.38l-0.03 0z"/>
   <g>
    <circle class="fil9" cx="444.37" cy="83.7" r="73.32"/>
    <path class="fil10" d="M444.37 157.02c0.01,0 0.02,0 0.03,0 40.48,0 73.31,-32.83 73.31,-73.31 0,-5.1 -0.54,-10.21 -1.59,-15.2 -47.53,-7.37 -96.83,-3.09 -144.81,9.27 -0.15,1.95 -0.26,3.91 -0.26,5.9 0,-0 0,0.02 0,0.02 0,40.49 32.83,73.32 73.32,73.32 0,0 0,0 0,0l-0 0z"/>
    <circle class="fil3 str3" cx="444.37" cy="83.7" r="73.32"/>
    <path class="fil9" d="M56.49 494.46c0,-0.05 0,-0.19 0,-0.24 0,-29.77 3.41,-59.54 10.08,-88.54 1.34,-5.73 2.79,-11.39 4.36,-17.01 4.48,-49.88 30.89,-91.02 66.19,-127.76 7.35,-5.88 8.82,-19.1 16.17,-26.45 24.99,-22.04 47.02,-44.09 74.94,-61.77 114.62,-73.48 265.97,-113.15 387.93,-45.56 24.97,13.22 52.89,20.57 73.46,38.21 39.69,33.79 67.59,73.48 107.28,105.8 35.26,29.34 41.14,76.41 53.65,117.47 1.57,5.6 3.02,11.26 4.34,16.99 6.69,29.02 10.1,58.79 10.1,88.55 0,0.05 0,0.19 0,0.24l-808.5 0.06z"/>
    <path class="fil10" d="M66.58 405.66c-6.69,29.02 -10.1,58.79 -10.1,88.55 0,0.05 0,0.19 0,0.24l128.17 0c-2.41,-124.56 -34.37,-228.58 127.77,-355.38 -116.31,44.15 -222.3,141.11 -245.85,266.59z"/>
    <path class="fil10" d="M84.16 336.93c-7.11,16.43 -11.61,33.92 -13.24,51.74 -1.56,5.61 -3,11.27 -4.33,16.99 -6.69,29.02 -10.1,58.79 -10.1,88.55 0,0.05 0,0.19 0,0.24l308.93 0c32.55,-2.56 65.77,-3.8 98.52,-3.8 32.75,0 65.97,1.25 98.56,3.74l302.49 0.06c-0,-0.05 -0,-0.19 -0,-0.24 0,-29.77 -3.41,-59.54 -10.08,-88.54 -1.34,-5.73 -2.79,-11.39 -4.36,-17.01 -5.34,-17.56 -9.5,-36.2 -15.23,-54.05 -250,-92.5 -502.81,-90.54 -751.16,2.3z"/>
    <path class="fil3 str0" d="M56.49 494.46c0,-0.05 0,-0.19 0,-0.24 0,-29.77 3.41,-59.54 10.08,-88.54 1.34,-5.73 2.79,-11.39 4.36,-17.01 4.48,-49.88 30.89,-91.02 66.19,-127.76 7.35,-5.88 8.82,-19.1 16.17,-26.45 24.99,-22.04 47.02,-44.09 74.94,-61.77 114.62,-73.48 265.97,-113.15 387.93,-45.56 24.97,13.22 52.89,20.57 73.46,38.21 39.69,33.79 67.59,73.48 107.28,105.8 35.26,29.34 41.14,76.41 53.65,117.47 1.57,5.6 3.02,11.26 4.34,16.99 6.69,29.02 10.1,58.79 10.1,88.55 0,0.05 0,0.19 0,0.24l-808.5 0.06z"/>
    <path class="fil9" d="M33.46 391.45c283.25,-120.45 573.14,-122.09 858.52,0 27.07,11.58 26.92,216 0,206.64 -278.69,-97.03 -573.43,-98.06 -858.52,0 -33.91,11.66 -30.61,-193.62 0,-206.64z"/>
    <path class="fil0" d="M845.71 526.24c1.28,4.99 1.98,10.14 2.08,15.29 0.14,5.05 -0.17,10.07 -0.4,15.1l-0.56 7.52c-0.25,2.5 -0.49,5 -0.8,7.49 -0.62,4.99 -1.37,9.95 -2.46,14.84l-12.15 -2.18c0.68,-4.9 1.54,-9.74 2.53,-14.59l1.54 -7.27 1.54 -7.26c1.14,-4.83 2.12,-9.68 3.43,-14.52 1.3,-4.96 3.07,-9.8 5.24,-14.43l-0 0z"/>
    <path class="fil0" d="M843.52 369.9c2.37,9.64 4.28,19.49 5.6,29.34 0.66,4.93 1.2,9.87 1.68,14.81 0.48,4.94 0.76,9.91 1.02,14.87 0.4,9.91 0.57,19.83 0.09,29.73 -0.42,9.89 -1.71,19.83 -3.78,29.51 -1.54,-9.87 -2.58,-19.61 -3.58,-29.34 -1,-9.73 -1.87,-19.38 -3.17,-29 -0.6,-4.82 -1.28,-9.61 -2.01,-14.39 -0.73,-4.79 -1.54,-9.56 -2.35,-14.32 -1.65,-9.53 -3.55,-18.98 -5.54,-28.43l12.03 -2.77z"/>
    <path class="fil3 str4" d="M718.23 338.29c11.67,66.2 10.36,138.2 0,214.24"/>
    <path class="fil3 str4" d="M609.22 316.06c7.95,66.25 7.06,138.29 0,214.39"/>
    <path class="fil0" d="M509.87 391.52c1.86,10.56 3.1,21.24 3.65,31.92 0.62,10.66 0.8,21.31 1,31.98l0 16c0,5.33 0,10.66 -0.19,15.98 -0.23,10.66 -0.62,21.31 -1.34,31.95l-12.35 -0.62c0.34,-10.61 0.88,-21.2 1.45,-31.8l1.87 -31.77c0.71,-10.59 1.27,-21.2 2.09,-31.81 0.82,-10.61 2.03,-21.21 3.82,-31.85z"/>
    <path class="fil0" d="M513.08 304.13c0.28,2.93 0.44,5.92 0.44,8.88 0,0.3 0,0.63 0,0.93 0,1.64 -0.08,3.27 -0.12,4.91l-0.21 4.93c-0.26,3.27 -0.49,6.56 -1.05,9.85 -0.56,3.44 -1.65,6.78 -3.21,9.9 -1.85,-2.97 -3.26,-6.21 -4.17,-9.59 -0.88,-3.21 -1.44,-6.42 -2.02,-9.65l-0.76 -4.82c-0.2,-1.62 -0.43,-3.23 -0.6,-4.83 -0.35,-3.17 -0.54,-6.37 -0.54,-9.57 0,-0.04 0,-0.1 0,-0.15l12.25 -0.79z"/>
    <path class="fil3 str4" d="M407.8 303.77c0.54,66.4 0.48,138.47 0,214.65"/>
    <path class="fil3 str4" d="M308.39 313.86c-3.18,66.4 -2.83,138.57 0,214.82"/>
    <path class="fil0" d="M200.27 445.84c1.82,8.52 3.28,17.25 4.19,25.92 0.97,8.63 1.68,17.25 2.55,25.87l2.33 25.84c0.73,8.6 1.44,17.22 1.93,25.85l-12.35 0.99c-0.9,-8.66 -1.44,-17.36 -1.82,-26.05 -0.2,-4.36 -0.31,-8.71 -0.43,-13.06l-0.15 -13.06c0,-8.71 0.08,-17.43 0.54,-26.14 0.41,-8.76 1.54,-17.53 3.22,-26.13l-0 -0z"/>
    <path class="fil0" d="M211.25 335.48c-0.39,5.64 -0.99,11.24 -1.62,16.85l-1.02 8.42 -1.11 8.42c-0.83,5.62 -1.47,11.24 -2.47,16.88 -0.96,5.72 -2.42,11.39 -4.33,16.86 -1.6,-5.61 -2.64,-11.38 -3.08,-17.2 -0.46,-5.74 -0.49,-11.46 -0.59,-17.2l0 -8.59c0.09,-2.87 0.17,-5.73 0.31,-8.59 0.31,-5.73 0.76,-11.44 1.54,-17.13l12.36 1.28z"/>
    <path class="fil3 str4" d="M94.47 366.78c-10.59,66.4 -9.4,138.75 0,215.12"/>
    <path class="fil0" d="M848.4 512.14c3.2,0 5.79,-2.59 5.79,-5.79 0,-3.2 -2.59,-5.79 -5.79,-5.79 -3.2,0 -5.79,2.59 -5.79,5.79 0.04,3.18 2.61,5.75 5.79,5.79l0 0z"/>
    <path class="fil3 str5" d="M856.44 368.21c15.44,66.16 13.67,138.1 0,214.1"/>
    <path class="fil3 str5" d="M737.1 335.2c11.67,66.2 10.36,138.2 0,214.25"/>
    <path class="fil3 str5" d="M628.05 312.73c7.95,66.25 7.06,138.29 0,214.39"/>
    <path class="fil3 str5" d="M525.63 300.95c4.23,66.28 3.77,138.38 0,214.53"/>
    <path class="fil3 str5" d="M426.4 299.93c0.53,66.33 0.48,138.47 0,214.65"/>
    <path class="fil3 str5" d="M326.85 309.76c-3.18,66.4 -2.83,138.57 0,214.82"/>
    <path class="fil3 str5" d="M223.5 330.56c-6.89,66.4 -6.18,138.66 0,214.98"/>
    <path class="fil3 str5" d="M112.82 362.44c-10.59,66.4 -9.4,138.75 0,215.12"/>
    <path class="fil3 str0" d="M33.46 391.45c283.25,-120.45 573.14,-122.09 858.52,0 27.07,11.58 26.92,216 0,206.64 -278.69,-97.03 -573.43,-98.06 -858.52,0 -33.91,11.66 -30.61,-193.62 0,-206.64z"/>
    <path class="fil0" d="M344.49 279.17c19.66,-4.09 39.69,-7.13 59.65,-8.86 5.02,-0.43 10.02,-0.86 15.04,-1.2l15.06 -0.86c5.03,-0.22 10.05,-0.31 15.09,-0.46l15.09 -0.2c20.08,0 40.23,0.97 60.23,2.84 19.94,1.78 40,4.84 59.57,9 -20.08,-0.45 -40.15,-1.22 -60.04,-1.75 -19.89,-0.53 -39.9,-0.76 -59.84,-0.8l-14.93 -0.01c-4.99,0 -9.98,0.19 -14.96,0.17l-14.95 0.22c-4.99,0.17 -9.98,0.25 -14.98,0.31 -19.92,0.51 -39.9,1.22 -60.01,1.62z"/>
    <path class="fil6" d="M221.8 202.13c10.88,-8.68 22.52,-16.68 34.57,-23.67 12.01,-7.13 24.41,-13.65 37.06,-19.55 3.09,-1.54 6.38,-2.87 9.57,-4.29 3.2,-1.42 6.38,-2.87 9.64,-4.12 6.52,-2.55 12.97,-5.22 19.61,-7.41 13.11,-4.68 26.65,-8.61 40.24,-11.59 -3.2,1.41 -6.42,2.75 -9.65,4.06 -3.23,1.31 -6.47,2.53 -9.65,3.95 -6.41,2.69 -12.83,5.28 -19.2,8.06l-4.77 2.05c-1.54,0.66 -3.21,1.31 -4.79,2.04l-9.5 4.22c-3.18,1.36 -6.32,2.83 -9.48,4.25 -3.17,1.42 -6.32,2.84 -9.42,4.37l-9.42 4.37c-3.09,1.54 -6.18,3.09 -9.34,4.63 -6.18,3 -12.35,6.18 -18.61,9.27 -12.34,6.22 -24.64,12.66 -36.87,19.38z"/>
   </g>
  </g>
  <path class="fil3" d="M320.91 1080.6l-15.7 179.24 -43.75 0c-1.12,-248.56 28.06,-231.82 28.06,-231.82"/>
  <path class="fil4" d="M637.31 1356.36l-329.45 0c-10.11,-0.01 -18.3,-8.2 -18.3,-18.31 0,0 0,0 0,0l-0 -392.57c0,-0 0,-0 0,-0 0,-10.11 8.19,-18.3 18.3,-18.31l321.58 0c18.05,0 26.2,10.56 26.2,27.41l0 383.42c0,0.02 0,0.04 0,0.06 0,10.11 -8.2,18.31 -18.31,18.31 -0,0 -0.01,0 -0.01,0z"/>
  <path class="fil5" d="M650.52 938.05c-1.37,-1.68 -2.54,-3.55 -3.46,-5.51 -3.31,-2.59 -7.25,-4.27 -11.42,-4.84 -2.02,-0.31 -4.06,-0.47 -6.09,-0.47 -0.03,0 -0.08,0 -0.11,0l-321.58 0c-10.08,0.01 -18.26,8.16 -18.3,18.24 39.99,14.37 114.84,22.39 183.02,22.39 86.95,0 143.92,-12.89 177.93,-29.81z"/>
  <path class="fil3 str6" d="M624.25 927.16c50.61,10.45 64.42,15.96 77.14,39.53 11.35,21.04 24.14,55.36 24.7,137.98l-55.81 1.38"/>
  <line class="fil3 str1" x1="307.86" y1="927.3" x2="629.43" y2= "927.16" />
  <path class="fil5" d="M307.86 1356.36l160.8 0c-150.5,0 -139.14,-318.75 -179.09,-318.75l0 300.39c0,0.02 0,0.04 0,0.06 0,10.11 8.19,18.3 18.3,18.31l-0 0z"/>
  <path class="fil0" d="M281.29 1067.98c-0.26,-5.06 -0.15,-10.12 0.07,-15.17 0.22,-5.05 0.65,-10.13 1.19,-15.17 0.28,-2.54 0.55,-5.06 0.9,-7.6 0.34,-2.54 0.68,-5.06 1.17,-7.6 0.97,-5.25 2.64,-10.35 4.95,-15.17 2.31,4.81 3.98,9.92 4.95,15.16 0.5,2.54 0.85,5.06 1.17,7.6 0.32,2.54 0.62,5.06 0.9,7.6 0.52,5.06 0.94,10.12 1.17,15.17 0.23,5.05 0.34,10.12 0.08,15.17l-16.55 0z"/>
  <path class="fil3 str1" d="M655.6 1080.6l0 11.03c0.36,46.88 0.36,95.14 0,141.67 0,3.96 0,7.89 0,11.76l0 92.95c0,0.01 0,0.03 0,0.04 0,10.11 -8.19,18.3 -18.3,18.31l-329.45 0c-10.11,-0.01 -18.3,-8.2 -18.3,-18.31 0,0 0,0 0,0l-0 -80.25c0,-3.46 0,-6.99 0,-10.55 -0.34,-48.08 -0.34,-96.34 0,-145.19l0 -34.08"/>
  <path class="fil0" d="M647.33 1080.6c-0.26,-5.75 -0.14,-11.51 0.08,-17.28 0.22,-5.76 0.65,-11.51 1.17,-17.28 0.28,-2.88 0.57,-5.76 0.9,-8.64 0.33,-2.88 0.68,-5.75 1.17,-8.63 0.95,-5.93 2.63,-11.74 4.95,-17.28 2.32,5.54 4,11.35 4.95,17.28 0.5,2.88 0.85,5.76 1.17,8.63 0.32,2.87 0.62,5.76 0.9,8.64 0.52,5.76 0.95,11.51 1.17,17.28 0.22,5.76 0.34,11.53 0.08,17.28l-16.55 0z"/>
  <path class="fil3 str1" d="M475.44 1092.81c0,52.76 -42.79,95.55 -95.56,95.55 -52.77,0 -95.57,-42.79 -95.57,-95.57 0,-15.07 3.57,-29.95 10.41,-43.38"/>
  <g>
   <path class="fil4" d="M294.72 1049.42c5.23,-10.19 12.24,-19.39 20.68,-27.12l-20.68 27.12zm0 0l0 0 0 0z"/>
  </g>
  <path class="fil0" d="M287.34 1045.66c1.21,-2.87 2.78,-5.58 4.66,-8.05 1.86,-2.47 3.96,-4.79 6.24,-6.89 1.16,-1.05 2.33,-2.07 3.56,-3.02 1.22,-0.98 2.51,-1.88 3.87,-2.65 2.94,-1.69 6.26,-2.64 9.65,-2.76 -0.35,3.22 -1.17,6.39 -2.41,9.39 -0.54,1.38 -1.14,2.59 -1.78,3.82l-1.79 3.68c-1.17,2.43 -2.33,4.81 -3.52,7.16 -1.14,2.36 -2.42,4.68 -3.81,6.9l-14.69 -7.57z"/>
  <g>
   <path class="fil4" d="M457.87 1037.6c11.42,16.09 17.57,35.35 17.57,55.08 0,0.02 0,0.05 0,0.07l-17.57 -55.15zm0 0l0 0 0 0z"/>
  </g>
  <path class="fil0" d="M457.87 1037.6c4.71,2.55 8.8,6.1 11.98,10.41 1.58,2.09 3.01,4.31 4.27,6.6 1.28,2.3 2.44,4.67 3.52,7.1 2.11,4.86 3.72,9.97 4.77,15.17 0.89,4.37 1.35,8.83 1.35,13.29 0,0.86 -0.02,1.75 -0.05,2.61l-16.55 0c-0.26,-4.48 -0.5,-8.93 -0.97,-13.42 -0.47,-4.48 -1.06,-8.93 -1.93,-13.43l-0.69 -3.36 -0.8 -3.38c-0.58,-2.25 -1.2,-4.49 -1.78,-6.8 -1.29,-4.86 -2.36,-9.84 -3.13,-14.8l0 0z"/>
  <g>
   <path class="fil4" d="M667.89 1092.81c0,-0.04 0,-0.07 0,-0.11 0,-26.41 -10.96,-51.63 -30.25,-69.66l30.25 69.76zm0 0l0 0 0 0z"/>
  </g>
  <path class="fil0" d="M659.62 1092.81c-0.22,-5.93 -0.82,-11.87 -1.73,-17.72 -0.97,-5.93 -2.42,-11.8 -4.31,-17.48 -0.47,-1.38 -1.02,-2.85 -1.53,-4.29 -0.51,-1.43 -1.16,-2.83 -1.72,-4.26 -0.56,-1.43 -1.3,-2.76 -1.9,-4.21l-2.01 -4.14c-2.76,-5.65 -5.75,-11.29 -8.77,-17.58 6.39,2.73 12.14,6.78 16.85,11.88 1.14,1.3 2.34,2.56 3.41,3.93 1.06,1.37 2.12,2.76 3.1,4.14 0.98,1.38 1.97,2.88 2.85,4.38 0.88,1.5 1.81,3.01 2.59,4.58 3.28,6.22 5.79,12.86 7.45,19.71 1.51,6.1 2.27,12.39 2.27,18.68 0,0.79 -0.02,1.6 -0.04,2.38l-16.5 0z"/>
  <path class="fil3 str1" d="M476.72 1092.81c0,0.37 -0.01,0.77 -0.01,1.15 0,52.77 42.79,95.57 95.57,95.57 52.77,0 95.57,-42.79 95.57,-95.57 0,-0.37 -0.01,-0.78 -0.01,-1.14"/>
  <g>
   <path class="fil4" d="M494.33 1037.6c-11.41,16.07 -17.55,35.34 -17.55,55.06 0,0.02 0,0.07 0,0.09l17.55 -55.15zm0 0l0 0 0 0z"/>
  </g>
  <path class="fil0" d="M494.33 1037.6c-0.78,4.97 -1.83,9.95 -3.13,14.83 -0.58,2.3 -1.2,4.55 -1.78,6.8l-0.79 3.38 -0.69 3.36c-0.87,4.49 -1.5,8.96 -1.94,13.43 -0.44,4.47 -0.69,8.93 -0.95,13.42l-16.6 -0.01c-0.03,-0.9 -0.06,-1.82 -0.06,-2.72 0,-4.42 0.46,-8.85 1.35,-13.17 1.04,-5.2 2.65,-10.31 4.77,-15.17 1.06,-2.43 2.22,-4.8 3.5,-7.1 1.27,-2.29 2.7,-4.51 4.28,-6.6 3.2,-4.31 7.32,-7.89 12.04,-10.44l0 -0z"/>
  <line class="fil3 str1" x1="311.87" y1="1035.85" x2="311.87" y2= "927.16" />
  <line class="fil3 str1" x1="633.16" y1="1035.85" x2="633.16" y2= "927.16" />
  <path class="fil6 str1" d="M431.91 1118.9l74.32 0 0 27.16c-24.46,-8.34 -49.24,-8.13 -74.32,0l0 -27.16z"/>
  <path class="fil6 str1" d="M662.99 1092.81c0,-0.03 0,-0.1 0,-0.14 0,-24.16 -9.2,-47.42 -25.69,-65.05 -5.82,-6.23 -61.04,8.53 -93.5,37.59 -31.86,28.53 -59.61,75.13 -55.63,81.01 17.76,26.36 47.48,42.17 79.26,42.17 52.77,0 95.57,-42.79 95.57,-95.57 0,0 0,0 0,0l0 -0z"/>
  <path class="fil6" d="M607.86 1050.8c-8.44,5.06 -16.75,9.9 -24.82,15.17 -7.95,5.05 -15.61,10.73 -22.8,16.8 -7.1,6.15 -13.94,12.85 -20.68,19.66 -6.74,6.81 -13.36,13.79 -20.34,20.78 4.24,-8.89 9.41,-17.3 15.42,-25.06 5.98,-7.87 12.82,-15.19 20.29,-21.69 7.6,-6.43 16.03,-11.89 25.02,-16.18 8.84,-4.34 18.26,-7.54 27.92,-9.48l-0.01 -0z"/>
  <path class="fil6 str1" d="M282.17 1092.81c0,-0.03 0,-0.1 0,-0.14 0,-24.16 9.2,-47.42 25.69,-65.05 5.82,-6.23 61.04,8.53 93.5,37.59 31.86,28.53 59.61,75.13 55.63,81.01 -17.76,26.36 -47.48,42.17 -79.26,42.17 -52.77,0 -95.57,-42.79 -95.57,-95.57 0,0 0,0 0,0l-0 -0z"/>
  <path class="fil11" d="M411.57 1175.62c-64.99,-0 -117.69,-52.71 -117.69,-117.7 0,-0 0,-0 0,-0 0,-4 0.22,-8.04 0.61,-12.01 -8.07,14.31 -12.3,30.48 -12.3,46.9 0,52.77 42.79,95.57 95.57,95.57 17.45,0 34.6,-4.8 49.53,-13.84 -5.19,0.7 -10.45,1.08 -15.7,1.08l-0 0z"/>
  <path class="fil3 str1" d="M282.17 1092.81c0,-0.03 0,-0.1 0,-0.14 0,-24.16 9.2,-47.42 25.69,-65.05 5.82,-6.23 61.04,8.53 93.5,37.59 31.86,28.53 59.61,75.13 55.63,81.01 -17.76,26.36 -47.48,42.17 -79.26,42.17 -52.77,0 -95.57,-42.79 -95.57,-95.57 0,0 0,0 0,0l-0 -0z"/>
  <path class="fil6" d="M337.31 1050.8c9.66,1.94 19.08,5.14 27.93,9.47 8.98,4.29 17.4,9.76 25,16.19 7.43,6.5 14.24,13.79 20.2,21.66 6.02,7.76 11.19,16.18 15.42,25.05 -6.98,-6.89 -13.57,-13.97 -20.34,-20.78 -6.77,-6.81 -13.57,-13.51 -20.68,-19.66 -7.18,-6.06 -14.84,-11.74 -22.78,-16.79 -8.04,-5.24 -16.32,-10.08 -24.74,-15.14z"/>
  <path class="fil6" d="M629.43 927.16l-74.75 0 0 0.14c0,-0 0,0.03 0,0.03 0,6.19 -0.68,12.39 -1.99,18.43 -0.63,2.94 -1.44,5.88 -2.39,8.73 -3.05,8.55 -7.75,16.45 -13.79,23.21 -1.93,2.16 -4,4.21 -6.2,6.1 -34.7,25.09 -89.86,26.47 -123.38,-0.8 -3.61,-3.14 -6.91,-6.67 -9.81,-10.48 -6.03,-7.93 -10.32,-17.06 -12.55,-26.77 -0.65,-3 -1.15,-6.04 -1.48,-9.09 -0.32,-3.05 -0.51,-6.17 -0.51,-9.25 0,-0.04 0,-0.08 0,-0.12l0 -0.14 -74.75 -0c-10.11,0.01 -18.3,8.2 -18.3,18.31 0,0 0,0 0,0l0 392.52c0,0.02 0,0.04 0,0.06 0,10.11 8.19,18.3 18.3,18.31l329.45 0c10.11,-0.01 18.3,-8.2 18.3,-18.31 0,0 0,0 0,0l0 -383.47c0,-16.85 -8.12,-27.41 -26.17,-27.41z"/>
  <path class="fil6" d="M624.25 927.16c87.61,0 101.2,77.21 101.89,183.62 -25.65,16.02 -67.44,1.81 -67.44,1.81l-34.46 -185.42z"/>
  <path class="fil11" d="M655.6 1028.02l-31.35 52.57 15.69 179.24 16.01 0 0 -145.67 23.83 3.98c-7.82,-99.51 -24.17,-90.13 -24.17,-90.13z"/>
  <path class="fil6" d="M315.56 927.16c-85.18,0 -104.56,74.18 -105.96,176.02 26.2,27.38 79.97,6.31 79.97,6.31l25.99 -182.33z"/>
  <path class="fil11" d="M289.52 1028.02l0 81.53 -23.87 5.94c7.82,-96.68 23.87,-87.47 23.87,-87.47z"/>
  <path class="fil3 str6" d="M624.25 927.16c88.37,0 123.55,130.77 101.84,177.51 -3.29,7.08 -27.86,7.41 -70.36,5.74"/>
  <path class="fil3 str6" d="M303.41 927.78c-93.7,0.14 -113.14,152.25 -93.79,174.21 19.34,21.96 79.88,7.56 79.88,7.56"/>
  <path class="fil11" d="M307.86 1356.36l160.8 0c-150.5,0 -139.14,-318.75 -179.09,-318.75l0 300.39c0,0.02 0,0.04 0,0.06 0,10.11 8.19,18.3 18.3,18.31l-0 0z"/>
  <path class="fil0" d="M281.29 1067.98c-0.26,-5.06 -0.15,-10.12 0.07,-15.17 0.22,-5.05 0.65,-10.13 1.19,-15.17 0.28,-2.54 0.55,-5.06 0.9,-7.6 0.34,-2.54 0.68,-5.06 1.17,-7.6 0.97,-5.25 2.64,-10.35 4.95,-15.17 2.3,4.8 3.97,9.91 4.94,15.16 0.51,2.54 0.87,5.06 1.19,7.6 0.32,2.54 0.62,5.06 0.9,7.6 0.52,5.06 0.94,10.12 1.17,15.17 0.23,5.05 0.34,10.12 0.08,15.17l-16.55 0z"/>
  <path class="fil3 str1" d="M655.6 1080.6l0 11.03c0.36,46.88 0.36,95.14 0,141.67 0,3.96 0,7.89 0,11.76l0 92.95c0,0.01 0,0.03 0,0.04 0,10.11 -8.19,18.3 -18.3,18.31l-329.45 0c-10.11,-0.01 -18.3,-8.2 -18.3,-18.31 0,0 0,0 0,0l-0 -80.25c0,-3.46 0,-6.99 0,-10.55 -0.34,-48.08 -0.34,-96.34 0,-145.19l0 -34.08"/>
  <path class="fil0" d="M647.33 1080.6c-0.26,-5.75 -0.14,-11.51 0.08,-17.28 0.22,-5.76 0.65,-11.51 1.17,-17.28 0.28,-2.88 0.57,-5.76 0.9,-8.64 0.33,-2.88 0.68,-5.75 1.19,-8.63 0.95,-5.92 2.61,-11.75 4.93,-17.28 2.32,5.53 4,11.35 4.96,17.27 0.5,2.88 0.85,5.76 1.17,8.63 0.32,2.87 0.62,5.76 0.9,8.64 0.52,5.76 0.95,11.51 1.17,17.28 0.22,5.76 0.34,11.53 0.08,17.28l-16.55 0z"/>
  <line class="fil3 str1" x1="307.86" y1="927.3" x2="629.43" y2= "927.16" />
  <path class="fil3 str1" d="M554.69 927.3c0,-0 0,0.03 0,0.03 0,6.19 -0.68,12.39 -1.99,18.43 -0.63,2.94 -1.44,5.88 -2.39,8.73 -3.05,8.55 -7.75,16.45 -13.79,23.21 -1.93,2.16 -4,4.21 -6.2,6.1 -34.7,25.09 -89.86,26.47 -123.38,-0.8 -3.61,-3.14 -6.91,-6.67 -9.81,-10.48 -6.03,-7.93 -10.32,-17.06 -12.55,-26.77 -0.65,-3 -1.15,-6.04 -1.48,-9.09 -0.32,-3.05 -0.51,-6.17 -0.51,-9.25 0,-0.04 0,-0.08 0,-0.12"/>
  <path class="fil0" d="M477.27 1023.22c-5.95,1.19 -12.03,1.8 -18.11,1.8 -2.41,0 -4.84,-0.11 -7.24,-0.29 -8.55,-0.59 -17.01,-2.34 -25.09,-5.17 -8.14,-2.79 -15.82,-6.82 -22.75,-11.92l-2.56 -1.94c-0.84,-0.66 -1.65,-1.38 -2.47,-2.1 -1.64,-1.39 -3.18,-2.91 -4.6,-4.52 -2.83,-3.18 -5.32,-6.66 -7.42,-10.36 2.94,2.96 6.06,5.77 9.29,8.4 0.8,0.66 1.61,1.31 2.41,1.93 0.8,0.62 1.7,1.13 2.54,1.71 0.84,0.58 1.68,1.16 2.55,1.7l2.63 1.6c7.02,4.15 14.49,7.61 22.2,10.28 7.72,2.7 15.71,4.78 23.78,6.14 8.22,1.33 16.52,2.27 24.82,2.73l0.01 0.01z"/>
  <path class="fil12 str7" d="M564.8 1146.54c0,-12.22 -15.3,-23.8 -38.76,-30.98 5.42,-23.91 3.01,-42.92 -7.6,-49.02 -2.16,-1.43 -4.69,-2.2 -7.29,-2.2 -0.37,0 -0.73,0.02 -1.1,0.04 -11.03,0.18 -23.87,7.38 -37.54,20.16 -13.72,-12.71 -28.89,-20.23 -37.56,-20 -4.36,0.12 -6.03,0.72 -8.49,2.15 -10.58,6.08 -12.93,25.07 -7.49,48.91 -23.44,7.21 -38.61,18.77 -38.61,30.94 0,12.18 15.3,23.8 38.76,30.98 -5.42,23.91 -3.01,42.92 7.6,49.02 2.46,1.38 5.24,2.11 8.07,2.11 0.13,0 0.26,-0 0.39,-0 10.34,0 23.87,-7.38 37.56,-20.16 13.68,12.71 27.22,20.01 37.56,20.01 0.12,0 0.24,0 0.36,0 2.85,0 5.65,-0.73 8.13,-2.11 10.56,-6.09 12.93,-25.08 7.47,-48.91 23.32,-7.18 38.54,-18.77 38.54,-30.94zm-54.77 -73.75l0 0c0.08,-0 0.17,-0 0.25,-0 1.4,0 2.78,0.34 4.02,0.98 5.12,2.94 7.34,14.11 5.61,28.46 -0.41,3.53 -1.09,7.25 -1.92,11.03 -7.84,-1.89 -15.83,-3.32 -23.87,-4.15 -4.78,-6.57 -10.05,-12.89 -15.64,-18.77 12.24,-11.3 23.73,-17.53 31.54,-17.55zm-70.76 93c1.76,3.01 3.57,5.94 5.42,8.8 -5.34,-0.79 -10.49,-1.77 -15.41,-2.96 1.38,-4.85 3.12,-9.86 5.07,-14.85 1.54,3.01 3.16,6.01 4.92,9.02zm-10.11 -44.33c4.92,-1.16 10.11,-2.18 15.48,-2.96 -1.83,2.9 -3.68,5.86 -5.41,8.91 -1.72,3.05 -3.35,6.01 -4.89,9.02 -1.98,-4.89 -3.72,-9.89 -5.19,-14.95l0 -0.01zm9.58 25.19c2.33,-5.03 4.96,-10.08 7.79,-15 2.83,-4.92 5.93,-9.89 9.06,-14.35 5.6,-0.5 11.28,-0.76 16.99,-0.76 5.71,0 11.35,0.26 16.92,0.72 3.12,4.47 6.16,9.25 9.1,14.28 2.94,5.03 5.52,9.93 7.82,14.96 -2.37,5.05 -4.96,10.08 -7.79,15 -2.83,4.92 -5.93,9.89 -9.06,14.37 -5.6,0.48 -11.28,0.74 -16.99,0.74 -5.71,0 -11.35,-0.26 -16.92,-0.72 -3.12,-4.47 -6.16,-9.24 -9.1,-14.28 -2.94,-5.05 -5.45,-9.93 -7.82,-14.96zm67.15 19.03c1.72,-3.01 3.34,-6.05 4.88,-9.06 1.96,4.89 3.72,9.91 5.19,14.97 -4.92,1.2 -10.11,2.22 -15.48,3.01 1.84,-2.91 3.67,-5.87 5.41,-8.92zm0 -38.39c-1.72,-3.01 -3.57,-5.94 -5.42,-8.8 5.35,0.78 10.49,1.77 15.42,2.96 -1.38,4.85 -3.12,9.86 -5.07,14.85 -1.59,-3.01 -3.2,-6.01 -4.96,-9.02l0.04 0zm-22.97 -18.92c-3.39,-0.14 -6.89,-0.26 -10.34,-0.26 -3.45,0 -7.03,0.08 -10.45,0.26 3.23,-4.17 6.7,-8.21 10.35,-12.02 3.68,3.81 7.17,7.84 10.44,12.01l0.01 0.01zm-52.3 -34.47c1.21,-0.65 2.57,-0.99 3.95,-0.99 0.13,0 0.26,0 0.38,0.01l0 0c7.78,0 19.3,6.2 31.57,17.52 -5.57,5.86 -10.8,12.17 -15.53,18.75 -8.04,0.81 -16.05,2.22 -23.9,4.14 -0.87,-3.75 -1.5,-7.4 -1.96,-10.89 -1.77,-14.37 0.41,-25.54 5.48,-28.5l0 -0.04zm-9.47 95.45c-3.72,-1.17 -7.25,-2.45 -10.52,-3.83 -13.32,-5.68 -21.92,-13.13 -21.92,-19.03 0,-5.9 8.6,-13.39 21.92,-19.03 3.23,-1.38 6.76,-2.63 10.41,-3.79 2.29,7.77 5.16,15.5 8.46,22.9 -3.3,7.39 -6.11,15.07 -8.36,22.83l0.01 -0.05zm13.95 50.89c-0.04,-0 -0.09,0 -0.14,0 -1.43,0 -2.84,-0.35 -4.11,-1.01 -5.12,-2.94 -7.34,-14.11 -5.61,-28.46 0.41,-3.54 1.09,-7.25 1.92,-11.03 7.83,1.9 15.87,3.29 23.87,4.13 4.79,6.6 10.03,12.93 15.64,18.81 -12.26,11.37 -23.76,17.6 -31.58,17.6l0 -0.04zm37.54 -23.56c-3.66,-3.83 -7.19,-7.88 -10.45,-12.04 3.39,0.15 6.89,0.26 10.34,0.26 3.45,0 7.03,-0.07 10.45,-0.26 -3.21,4.19 -6.68,8.27 -10.34,12.09l-0 -0.04zm41.89 22.41c-1.21,0.65 -2.57,0.99 -3.95,0.99 -0.13,0 -0.26,-0 -0.38,-0.01 -7.78,0 -19.3,-6.2 -31.57,-17.52 5.57,-5.86 10.8,-12.17 15.53,-18.75 8.04,-0.81 16.05,-2.23 23.9,-4.14 0.84,3.61 1.52,7.27 1.96,10.94 1.77,14.41 -0.41,25.56 -5.48,28.54l0 -0.04zm19.96 -53.57c-3.24,1.38 -6.77,2.62 -10.42,3.79 -2.28,-7.79 -5.15,-15.51 -8.45,-22.91 3.27,-7.38 6.07,-15.03 8.28,-22.78 3.72,1.17 7.25,2.44 10.56,3.83 13.32,5.68 21.92,13.13 21.92,19.03 0,5.9 -8.59,13.44 -21.89,19.07l0 -0.04z"/>
  <circle class="fil12 str8" cx="472.54" cy="1146.54" r="17.18"/>
  <path class="fil13" d="M564.8 1146.54c0,-12.22 -15.3,-23.8 -38.76,-30.98 5.42,-23.91 3.01,-42.92 -7.6,-49.02 -2.16,-1.43 -4.69,-2.2 -7.29,-2.2 -0.37,0 -0.73,0.02 -1.1,0.04 -11.03,0.18 -23.87,7.38 -37.54,20.16 -13.72,-12.71 -28.89,-20.23 -37.56,-20 -4.36,0.12 -6.03,0.72 -8.49,2.15 -10.58,6.08 -12.93,25.07 -7.49,48.91 -23.44,7.21 -38.61,18.77 -38.61,30.94 0,12.18 15.3,23.8 38.76,30.98 -5.42,23.91 -3.01,42.92 7.6,49.02 2.46,1.38 5.24,2.11 8.07,2.11 0.13,0 0.26,-0 0.39,-0 10.34,0 23.87,-7.38 37.56,-20.16 13.68,12.71 27.22,20.01 37.56,20.01 0.12,0 0.24,0 0.36,0 2.85,0 5.65,-0.73 8.13,-2.11 10.56,-6.09 12.93,-25.08 7.47,-48.91 23.32,-7.18 38.54,-18.77 38.54,-30.94zm-54.77 -73.75l0 0c0.08,-0 0.17,-0 0.25,-0 1.4,0 2.78,0.34 4.02,0.98 5.12,2.94 7.34,14.11 5.61,28.46 -0.41,3.53 -1.09,7.25 -1.92,11.03 -7.84,-1.89 -15.83,-3.32 -23.87,-4.15 -4.78,-6.57 -10.05,-12.89 -15.64,-18.77 12.24,-11.3 23.73,-17.53 31.54,-17.55zm-70.76 93c1.76,3.01 3.57,5.94 5.42,8.8 -5.34,-0.79 -10.49,-1.77 -15.41,-2.96 1.38,-4.85 3.12,-9.86 5.07,-14.85 1.54,3.01 3.16,6.01 4.92,9.02zm-10.11 -44.33c4.92,-1.16 10.11,-2.18 15.48,-2.96 -1.83,2.9 -3.68,5.86 -5.41,8.91 -1.72,3.05 -3.35,6.01 -4.89,9.02 -1.98,-4.89 -3.72,-9.89 -5.19,-14.95l0 -0.01zm9.58 25.19c2.33,-5.03 4.96,-10.08 7.79,-15 2.83,-4.92 5.93,-9.89 9.06,-14.35 5.6,-0.5 11.28,-0.76 16.99,-0.76 5.71,0 11.35,0.26 16.92,0.72 3.12,4.47 6.16,9.25 9.1,14.28 2.94,5.03 5.52,9.93 7.82,14.96 -2.37,5.05 -4.96,10.08 -7.79,15 -2.83,4.92 -5.93,9.89 -9.06,14.37 -5.6,0.48 -11.28,0.74 -16.99,0.74 -5.71,0 -11.35,-0.26 -16.92,-0.72 -3.12,-4.47 -6.16,-9.24 -9.1,-14.28 -2.94,-5.05 -5.45,-9.93 -7.82,-14.96zm67.15 19.03c1.72,-3.01 3.34,-6.05 4.88,-9.06 1.96,4.89 3.72,9.91 5.19,14.97 -4.92,1.2 -10.11,2.22 -15.48,3.01 1.84,-2.91 3.67,-5.87 5.41,-8.92zm0 -38.39c-1.72,-3.01 -3.57,-5.94 -5.42,-8.8 5.35,0.78 10.49,1.77 15.42,2.96 -1.38,4.85 -3.12,9.86 -5.07,14.85 -1.59,-3.01 -3.2,-6.01 -4.96,-9.02l0.04 0zm-22.97 -18.92c-3.39,-0.14 -6.89,-0.26 -10.34,-0.26 -3.45,0 -7.03,0.08 -10.45,0.26 3.23,-4.17 6.7,-8.21 10.35,-12.02 3.68,3.81 7.17,7.84 10.44,12.01l0.01 0.01zm-52.3 -34.47c1.21,-0.65 2.57,-0.99 3.95,-0.99 0.13,0 0.26,0 0.38,0.01l0 0c7.78,0 19.3,6.2 31.57,17.52 -5.57,5.86 -10.8,12.17 -15.53,18.75 -8.04,0.81 -16.05,2.22 -23.9,4.14 -0.87,-3.75 -1.5,-7.4 -1.96,-10.89 -1.77,-14.37 0.41,-25.54 5.48,-28.5l0 -0.04zm-9.47 95.45c-3.72,-1.17 -7.25,-2.45 -10.52,-3.83 -13.32,-5.68 -21.92,-13.13 -21.92,-19.03 0,-5.9 8.6,-13.39 21.92,-19.03 3.23,-1.38 6.76,-2.63 10.41,-3.79 2.29,7.77 5.16,15.5 8.46,22.9 -3.3,7.39 -6.11,15.07 -8.36,22.83l0.01 -0.05zm13.95 50.89c-0.04,-0 -0.09,0 -0.14,0 -1.43,0 -2.84,-0.35 -4.11,-1.01 -5.12,-2.94 -7.34,-14.11 -5.61,-28.46 0.41,-3.54 1.09,-7.25 1.92,-11.03 7.83,1.9 15.87,3.29 23.87,4.13 4.79,6.6 10.03,12.93 15.64,18.81 -12.26,11.37 -23.76,17.6 -31.58,17.6l0 -0.04zm37.54 -23.56c-3.66,-3.83 -7.19,-7.88 -10.45,-12.04 3.39,0.15 6.89,0.26 10.34,0.26 3.45,0 7.03,-0.07 10.45,-0.26 -3.21,4.19 -6.68,8.27 -10.34,12.09l-0 -0.04zm41.89 22.41c-1.21,0.65 -2.57,0.99 -3.95,0.99 -0.13,0 -0.26,-0 -0.38,-0.01 -7.78,0 -19.3,-6.2 -31.57,-17.52 5.57,-5.86 10.8,-12.17 15.53,-18.75 8.04,-0.81 16.05,-2.23 23.9,-4.14 0.84,3.61 1.52,7.27 1.96,10.94 1.77,14.41 -0.41,25.56 -5.48,28.54l0 -0.04zm19.96 -53.57c-3.24,1.38 -6.77,2.62 -10.42,3.79 -2.28,-7.79 -5.15,-15.51 -8.45,-22.91 3.27,-7.38 6.07,-15.03 8.28,-22.78 3.72,1.17 7.25,2.44 10.56,3.83 13.32,5.68 21.92,13.13 21.92,19.03 0,5.9 -8.59,13.44 -21.89,19.07l0 -0.04z"/>
  <circle class="fil13" cx="472.54" cy="1146.54" r="17.18"/>
  <path class="fil14" d="M371.76 1206.94c40.91,-0 77.32,-26.08 90.48,-64.81 -17.55,30.03 -49.74,48.49 -84.52,48.49 -30.88,0 -59.98,-14.59 -78.45,-39.33l-0.07 20.31c17.57,21.55 42.59,35.34 72.55,35.34z"/>
  <path class="fil14" d="M573.4 1206.94c-40.91,-0 -77.32,-26.08 -90.48,-64.81 17.55,30.03 49.74,48.49 84.52,48.49 30.88,0 59.98,-14.59 78.45,-39.33l0 20.3c-17.5,21.56 -42.52,35.35 -72.49,35.35z"/>
  <g>
   <path class="fil6" d="M344.35 1182.36c-37.38,-13.95 -62.17,-49.66 -62.17,-89.56 0,-24.11 9.13,-47.35 25.52,-65.02l36.64 154.58zm0 0l0 0 0 0z"/>
  </g>
  <path class="fil0" d="M344.35 1182.36c-16.29,-2.66 -31.36,-10.39 -43.03,-22.07l-2.23 -2.21c-0.73,-0.74 -1.38,-1.56 -2.11,-2.33 -0.73,-0.77 -1.38,-1.59 -2.04,-2.39 -0.7,-0.78 -1.36,-1.61 -1.98,-2.47 -1.24,-1.7 -2.5,-3.39 -3.7,-5.13l-3.27 -5.42c-4.12,-7.4 -7.24,-15.37 -9.25,-23.62 -1.59,-7.03 -2.4,-14.26 -2.4,-21.48 0,-1.25 0.02,-2.52 0.07,-3.75 0.37,-8.42 1.96,-16.76 4.69,-24.72 0.36,-0.98 0.68,-1.97 1.05,-2.95l1.21 -2.9c0.76,-1.93 1.74,-3.78 2.63,-5.64 1.9,-3.65 4.11,-7.2 6.54,-10.53 1.17,-1.67 2.51,-3.24 3.79,-4.81 1.28,-1.57 2.67,-3.07 4.14,-4.45 2.84,-2.84 5.96,-5.44 9.28,-7.7 -7.98,13.79 -13.65,27.84 -16.08,42.29 -1.1,6.21 -1.66,12.53 -1.66,18.84 0,0.89 0.03,1.8 0.04,2.68 0.26,7.14 1.18,14.29 2.75,21.26 1.69,6.91 4.09,13.71 7.06,20.19 3.05,6.55 6.8,12.79 11.13,18.58 4.4,5.97 9.41,11.52 14.92,16.48 5.76,5.16 11.97,9.96 18.44,14.24l0.01 -0z"/>
  <g>
   <path class="fil6" d="M600.88 1182.36c37.35,-13.96 62.12,-49.66 62.12,-89.54 0,-24.12 -9.13,-47.37 -25.54,-65.04l-36.58 154.58zm0 0l0 0 0 0z"/>
  </g>
  <path class="fil0" d="M600.88 1182.36c6.45,-4.25 12.63,-9.03 18.4,-14.18 5.51,-4.96 10.52,-10.51 14.91,-16.48 4.34,-5.79 8.09,-12.03 11.14,-18.58 2.98,-6.48 5.37,-13.28 7.06,-20.2 1.57,-6.95 2.5,-14.11 2.75,-21.24 0.03,-0.98 0.05,-1.98 0.05,-2.96 0,-6.24 -0.55,-12.5 -1.63,-18.64 -2.43,-14.45 -8.09,-28.46 -16.08,-42.29 3.32,2.26 6.44,4.86 9.28,7.7 1.49,1.38 2.76,2.95 4.14,4.45 1.38,1.5 2.62,3.14 3.79,4.81 2.42,3.32 4.63,6.87 6.53,10.53 0.9,1.86 1.88,3.71 2.63,5.64l1.21 2.9c0.37,0.98 0.69,1.97 1.05,2.95 2.73,7.96 4.32,16.3 4.69,24.71 0.05,1.24 0.07,2.51 0.07,3.75 0,7.22 -0.81,14.45 -2.4,21.49 -2.01,8.24 -5.14,16.21 -9.26,23.62l-3.26 5.41c-1.2,1.74 -2.45,3.43 -3.7,5.13 -0.61,0.85 -1.27,1.68 -1.97,2.47 -0.68,0.8 -1.38,1.6 -2.04,2.39 -0.66,0.79 -1.38,1.59 -2.11,2.33l-2.23 2.21c-11.67,11.69 -26.74,19.42 -43.03,22.08l-0 0z"/>
  <g id="_2325072300864">
   <g>
    <g>
     <path class="fil15 str9" d="M558.58 603.71c-15.23,-5.72 -30.22,7.59 -27.22,35.38 3.47,32.03 12.73,116.85 20.37,155.24 6.41,32.18 18.26,69.59 117.3,58.87 106.1,-11.48 108.29,-90.44 129.99,-121.41 13.77,-19.65 21.99,-37.27 20.45,-49.64 -0.69,-7.49 -9.22,-14.07 -17.67,-17.22 -15.76,-5.05 -34.26,15.71 -36.04,23.94 -2.39,10.99 -3.63,32.59 -25.62,27.82 -2.75,-0.6 -5.16,-2.74 -7.29,-6.1 0.16,0.01 0.32,0.02 0.48,0.03 -7.35,-10.63 -11.35,-35.37 -13.82,-61.04 -2.22,-23.46 -2.45,-46.94 -4.99,-70.43 -3.08,-28.51 -34.56,-39.46 -45.72,-9 -0.55,-0.23 -1.16,-0.33 -1.79,-0.26 -0.12,0.01 -0.23,0.03 -0.35,0.05 -0.78,-3.67 -1.72,-6.97 -2.78,-9.93 -7.98,-23.44 -23.67,-21.39 -23.47,-21.13 0,0.01 0.01,0.01 0.01,0.02 -12.53,0.59 -24.25,14.26 -23.58,31.19 -7.98,-15.33 -21.8,-14.78 -20.89,-13.63 -16.47,-0.67 -34.16,16.91 -22.69,55.78 -0.02,0 -0.04,0 -0.06,0.01 -0.8,0.09 -1.52,0.43 -2.07,0.93 -0.01,-0.01 -0.01,-0.01 -0.02,-0.02 -2.92,-4.9 -6.98,-8.64 -12.52,-9.46z"/>
     <path class="fil15 str9" d="M819.46 682.11c-0.06,-0.49 -0.14,-0.98 -0.24,-1.46 -1.44,-6.2 -8.07,-11.63 -15.15,-14.79l-0.41 -0.12m-70.82 44.85c-6.94,-10.95 -10.79,-34.79 -13.2,-59.61l-0.07 -0.76 -0.06 -0.63 -0.04 -0.4m-4.89 -69.46c-1.6,-14.14 -10.86,-24.74 -21,-27.13m-24.78 17.56c-0.48,1.29 -0.92,2.66 -1.33,4.11 -0.25,-1.49 -0.53,-2.93 -0.82,-4.32m-2.77 -9.88c-5.61,-15.63 -14.74,-21.57 -23.48,-21.16m-23.58 31.19c0.08,1.96 0.32,3.96 0.75,5.99 -2.63,-12.49 -11.93,-19.23 -21.65,-19.62m-22.68 55.78c0.73,2.49 1.58,5.06 2.56,7.72 -1.48,-2.55 -3.05,-4.8 -4.69,-6.78m-0.01 -0.02c-3.93,-4.73 -8.24,-7.85 -12.53,-9.46"/>
     <path class="fil16" d="M669.03 853.21c106.1,-11.48 108.29,-90.44 129.99,-121.41 21.69,-30.97 29.63,-56.88 7.26,-65.19 -22.37,-8.32 -38.14,11.28 -40.53,22.28 -2.39,10.99 -3.63,32.6 -25.62,27.82 -21.99,-4.78 -22.47,-108.49 -25.54,-136.79 -3.06,-28.29 -36.81,-42.53 -47.13,-5.64 -10.04,-59.74 -57.26,-33.17 -49.9,1.82 -7.36,-34.99 -67.11,-24.94 -41.77,43.88 -17.59,-30.3 -48.66,-19.78 -44.45,19.12 3.47,32.03 12.73,116.85 20.37,155.24 6.41,32.18 18.26,69.59 117.3,58.87z"/>
     <path class="fil17" d="M585.34 698.64c-12.17,-35.71 -16.96,-163.14 0.82,1.28 4.27,-1.34 8.51,-2.88 12.99,-4.4 7.96,-2.69 19.79,-6.05 28.45,-7.32 -2.43,-17.12 -11.54,-116.03 -22.82,-129.5 11.13,6.22 10.77,10.08 14.22,20.96 1.93,-0.12 14.56,98.32 16.07,107.65 12.66,-1.19 27.97,-2.56 39.18,-1.87 -2.81,-20.24 -7.39,-124.92 -18.78,-139.95 12.31,16.03 11.95,24.34 12.36,28.11l12.57 112.64c-13.77,-3.05 -57.5,1.02 -72.59,6.12 -6.68,2.29 -17.35,6.99 -22.46,6.28zm147.98 11.99c-1.45,-0.07 -2.97,-0.24 -4.65,-0.6 -21.99,-4.78 -22.47,-108.49 -25.54,-136.79 -0.97,-9.01 -5.07,-16.58 -10.51,-21.54 10.51,1.98 20.31,12.83 21.89,27.47 2.71,25.05 3.42,109.2 18.8,131.46zm-75.75 135.91c106.1,-11.48 108.3,-90.44 129.99,-121.41 18.46,-26.35 26.88,-48.99 15.22,-60.29 1.12,0.29 2.25,0.6 3.41,1.03 22.37,8.31 14.44,34.22 -7.26,65.19 -21.7,30.97 -23.89,109.93 -129.99,121.41 -37.61,4.07 -72.98,-0.77 -90.72,-11.65 16.96,7.44 49.08,9 79.34,5.73z"/>
     <polygon class="fil18" points="715.69,853.89 629.21,863.68 653.26,1095.82 739.74,1086.03 "/>
     <polygon class="fil19" points="704.67,854.86 642.93,862.71 664.29,1094.86 726.02,1087 "/>
    </g>
    <rect class="fil19" transform="matrix(-0.892495 -0.457679 -0.457679 0.892495 640.323 730.514)" width="32.5" height="26.9"/>
    <rect class="fil19" transform="matrix(-1.30243 0.265696 0.445299 1.07798 593.354 733.651)" width="32.5" height="26.9"/>
   </g>
   <g>
    <g>
     <path class="fil15 str9" d="M378.71 603.71c15.23,-5.72 30.22,7.59 27.22,35.38 -3.47,32.03 -12.73,116.85 -20.37,155.24 -6.41,32.18 -18.26,69.59 -117.3,58.87 -106.1,-11.48 -108.29,-90.44 -129.99,-121.41 -13.77,-19.65 -21.99,-37.27 -20.45,-49.64 0.69,-7.49 9.22,-14.07 17.67,-17.22 15.76,-5.05 34.26,15.71 36.04,23.94 2.39,10.99 3.63,32.59 25.62,27.82 2.75,-0.6 5.16,-2.74 7.29,-6.1 -0.16,0.01 -0.32,0.02 -0.48,0.03 7.35,-10.63 11.35,-35.37 13.82,-61.04 2.22,-23.46 2.45,-46.94 4.99,-70.43 3.08,-28.51 34.56,-39.46 45.72,-9 0.55,-0.23 1.16,-0.33 1.79,-0.26 0.12,0.01 0.23,0.03 0.35,0.05 0.78,-3.67 1.72,-6.97 2.78,-9.93 7.98,-23.44 23.67,-21.39 23.47,-21.13 -0,0.01 -0.01,0.01 -0.01,0.02 12.53,0.59 24.25,14.26 23.58,31.19 7.98,-15.33 21.8,-14.78 20.89,-13.63 16.47,-0.67 34.16,16.91 22.69,55.78 0.02,0 0.04,0 0.06,0.01 0.8,0.09 1.52,0.43 2.07,0.93 0.01,-0.01 0.01,-0.01 0.02,-0.02 2.92,-4.9 6.98,-8.64 12.52,-9.46z"/>
     <path class="fil15 str9" d="M117.83 682.11c0.06,-0.49 0.14,-0.98 0.24,-1.46 1.44,-6.2 8.07,-11.63 15.15,-14.79l0.41 -0.12m70.82 44.85c6.94,-10.95 10.79,-34.79 13.2,-59.61l0.07 -0.76 0.06 -0.63 0.04 -0.4m4.89 -69.46c1.6,-14.14 10.86,-24.74 21,-27.13m24.78 17.56c0.48,1.29 0.92,2.66 1.33,4.11 0.25,-1.49 0.53,-2.93 0.82,-4.32m2.77 -9.88c5.61,-15.63 14.74,-21.57 23.48,-21.16m23.58 31.19c-0.08,1.96 -0.32,3.96 -0.75,5.99 2.63,-12.49 11.93,-19.23 21.65,-19.62m22.68 55.78c-0.73,2.49 -1.58,5.06 -2.56,7.72 1.48,-2.55 3.05,-4.8 4.69,-6.78m0.01 -0.02c3.93,-4.73 8.24,-7.85 12.53,-9.46"/>
     <path class="fil16" d="M268.26 853.21c-106.1,-11.48 -108.29,-90.44 -129.99,-121.41 -21.69,-30.97 -29.63,-56.88 -7.26,-65.19 22.37,-8.32 38.14,11.28 40.53,22.28 2.39,10.99 3.63,32.6 25.62,27.82 21.99,-4.78 22.47,-108.49 25.54,-136.79 3.06,-28.29 36.81,-42.53 47.13,-5.64 10.04,-59.74 57.26,-33.17 49.9,1.82 7.36,-34.99 67.11,-24.94 41.77,43.88 17.59,-30.3 48.66,-19.78 44.45,19.12 -3.47,32.03 -12.73,116.85 -20.37,155.24 -6.41,32.18 -18.26,69.59 -117.3,58.87z"/>
     <path class="fil17" d="M351.95 698.64c12.17,-35.71 16.96,-163.14 -0.82,1.28 -4.27,-1.34 -8.51,-2.88 -12.99,-4.4 -7.96,-2.69 -19.79,-6.05 -28.45,-7.32 2.43,-17.12 11.54,-116.03 22.82,-129.5 -11.13,6.22 -10.77,10.08 -14.22,20.96 -1.93,-0.12 -14.56,98.32 -16.07,107.65 -12.66,-1.19 -27.97,-2.56 -39.18,-1.87 2.81,-20.24 7.39,-124.92 18.78,-139.95 -12.31,16.03 -11.95,24.34 -12.36,28.11l-12.57 112.64c13.77,-3.05 57.5,1.02 72.59,6.12 6.68,2.29 17.35,6.99 22.46,6.28zm-147.98 11.99c1.45,-0.07 2.97,-0.24 4.65,-0.6 21.99,-4.78 22.47,-108.49 25.54,-136.79 0.97,-9.01 5.07,-16.58 10.51,-21.54 -10.51,1.98 -20.31,12.83 -21.89,27.47 -2.71,25.05 -3.42,109.2 -18.8,131.46zm75.75 135.91c-106.1,-11.48 -108.3,-90.44 -129.99,-121.41 -18.46,-26.35 -26.88,-48.99 -15.22,-60.29 -1.12,0.29 -2.25,0.6 -3.41,1.03 -22.37,8.31 -14.44,34.22 7.26,65.19 21.7,30.97 23.89,109.93 129.99,121.41 37.61,4.07 72.98,-0.77 90.72,-11.65 -16.96,7.44 -49.08,9 -79.34,5.73z"/>
     <polygon class="fil18" points="221.6,853.89 308.08,863.68 284.03,1095.82 197.55,1086.03 "/>
     <polygon class="fil19" points="232.62,854.86 294.36,862.71 273.01,1094.86 211.27,1087 "/>
    </g>
    <rect class="fil19" transform="matrix(0.892495 -0.457679 0.457679 0.892495 296.968 730.514)" width="32.5" height="26.9"/>
    <rect class="fil19" transform="matrix(1.30243 0.265696 -0.445299 1.07798 343.937 733.651)" width="32.5" height="26.9"/>
   </g>
   <path class="fil20" d="M726.54 1087.52l-8.5 -87.26c-42.73,-9.82 -61.16,14.06 -61.16,14.06l6.67 79.8c0.56,6.73 63.68,0.41 62.99,-6.6z"/>
   <path class="fil20" d="M210.75 1087.52l8.5 -87.26c42.73,-9.82 61.16,14.06 61.16,14.06l-6.67 79.8c-0.56,6.73 -63.68,0.41 -62.99,-6.6z"/>
   <path class="fil21" d="M699.03 997.9c6.97,0.89 18.98,1.68 19.05,2.41l8.46 86.99c0.49,5 -18.28,8.19 -27.45,8.28 -2.23,0.02 -1.03,-44.3 -0.07,-97.68z"/>
   <path class="fil22" d="M699.08 997.9c-0.78,-0.61 0.29,-104.38 0.63,-142.41l4.96 -0.63 13.39 145.4c-6.68,-1.27 -18.54,-2.01 -18.98,-2.35z"/>
   <path class="fil22" d="M238.21 997.9c0.78,-0.61 -0.29,-104.38 -0.63,-142.41l-4.96 -0.63 -13.39 145.4c6.68,-1.27 18.54,-2.01 18.98,-2.35z"/>
   <path class="fil21" d="M238.26 997.9c-6.97,0.89 -18.98,1.68 -19.05,2.41l-8.46 86.99c-0.49,5 18.28,8.19 27.45,8.28 2.23,0.02 1.03,-44.3 0.07,-97.68z"/>
  </g>
 </g>
</svg>
