<?xml version="1.0" encoding="UTF-8"?>
<!DOCTYPE svg PUBLIC "-//W3C//DTD SVG 1.1//EN" "http://www.w3.org/Graphics/SVG/1.1/DTD/svg11.dtd">
<!-- Creator: CorelDRAW -->
<svg xmlns="http://www.w3.org/2000/svg" xml:space="preserve" width="176.827mm" height="258.895mm" version="1.1" style="shape-rendering:geometricPrecision; text-rendering:geometricPrecision; image-rendering:optimizeQuality; fill-rule:evenodd; clip-rule:evenodd"
viewBox="0 0 1046.86 1532.72"
 xmlns:xlink="http://www.w3.org/1999/xlink"
 xmlns:xodm="http://www.corel.com/coreldraw/odm/2003">
 <defs>
  <style type="text/css">
   <![CDATA[
    .str2 {stroke:#592D3D;stroke-width:9.4;stroke-miterlimit:22.9256}
    .str1 {stroke:#592D3D;stroke-width:18.8;stroke-miterlimit:22.9256}
    .str8 {stroke:white;stroke-width:37.59;stroke-miterlimit:22.9256}
    .str7 {stroke:white;stroke-width:25.06;stroke-miterlimit:22.9256}
    .str3 {stroke:#592D3D;stroke-width:23.58;stroke-miterlimit:22.9256}
    .str4 {stroke:#592D3D;stroke-width:14.04;stroke-miterlimit:22.9256}
    .str5 {stroke:#C46565;stroke-width:14.04;stroke-miterlimit:22.9256}
    .str9 {stroke:#592D3D;stroke-width:31.33;stroke-miterlimit:22.9256}
    .str0 {stroke:#592D3D;stroke-width:21.05;stroke-miterlimit:22.9256}
    .str6 {stroke:#592D3D;stroke-width:18.8;stroke-linecap:square;stroke-miterlimit:22.9256}
    .fil15 {fill:none}
    .fil3 {fill:none;fill-rule:nonzero}
    .fil7 {fill:#592D3D}
    .fil18 {fill:#592D3D}
    .fil21 {fill:#E2E2E2}
    .fil22 {fill:#F3AB98}
    .fil19 {fill:#FDD2B2}
    .fil20 {fill:white}
    .fil12 {fill:black;fill-rule:nonzero}
    .fil0 {fill:#592D3D;fill-rule:nonzero}
    .fil13 {fill:#61DAFB;fill-rule:nonzero}
    .fil2 {fill:#67B7D6;fill-rule:nonzero}
    .fil1 {fill:#85C5E5;fill-rule:nonzero}
    .fil10 {fill:#C46565;fill-rule:nonzero}
    .fil9 {fill:#D67070;fill-rule:nonzero}
    .fil11 {fill:#E2E2E2;fill-rule:nonzero}
    .fil8 {fill:#F28195;fill-rule:nonzero}
    .fil5 {fill:#F3AB98;fill-rule:nonzero}
    .fil17 {fill:#F3AB98;fill-rule:nonzero}
    .fil4 {fill:#FDD2B2;fill-rule:nonzero}
    .fil16 {fill:#FDD2B2;fill-rule:nonzero}
    .fil6 {fill:white;fill-rule:nonzero}
    .fil14 {fill:black;fill-rule:nonzero;fill-opacity:0.101961}
   ]]>
  </style>
 </defs>
 <g id="Capa_x0020_1">
  <metadata id="CorelCorpID_0Corel-Layer"/>
  <g id="_2325072769520">
   <g>
    <path class="fil0 str0" d="M38.01 693.08c321.78,136.75 651.11,138.7 975.32,0 30.75,-13.16 30.58,-245.38 0,-234.75 -316.61,110.23 -651.45,111.4 -975.32,0 -38.53,-13.32 -34.77,219.89 0,234.75z"/>
   </g>
   <path class="fil1" d="M527.19 179.4c-260.24,0 -471.22,210.96 -471.22,471.22l0 256c14.85,16.48 39.74,30.65 72.05,42.59l20.86 -62.29 22.65 75.91c239.28,63.66 731.05,39.6 826.87,-56.2l-0 -256c0,-260.26 -210.98,-471.22 -471.22,-471.22z"/>
   <path class="fil2" d="M121.75 946.82c2.07,0.8 4.15,1.57 6.27,2.38l20.88 -62.3 22.65 75.91c70.83,18.8 163.77,30 262.03,33.88l42.73 -41.07 -365.61 -275.12c0,0 -9.62,158.91 11.06,266.32z"/>
   <path class="fil2" d="M708.1 717.08l39.65 267.48c54.51,-6.8 104.35,-16.09 145.85,-27.77l-0 0c0,0 51.83,-57.78 46.24,-276.28 -5.59,-218.5 -231.73,36.58 -231.73,36.58z"/>
   <path class="fil3 str1" d="M527.19 179.4c-260.24,0 -471.22,210.96 -471.22,471.22l0 256c14.85,16.48 39.74,30.65 72.05,42.59l20.86 -62.29 22.65 75.91c239.28,63.66 731.05,39.6 826.87,-56.2l-0 -256c0,-260.26 -210.98,-471.22 -471.22,-471.22z"/>
   <path class="fil4" d="M106.68 634.4c0,-230.76 187.07,-417.84 417.84,-417.84 230.76,0 417.84,187.07 417.84,417.84 0,0.09 0,0.3 0,0.4 0,125.75 -56.82,244.93 -154.51,324.04 -8.58,6.97 -17.43,13.59 -26.55,19.87 -94.23,59.82 -213.28,59.82 -320.75,50.25 -10.43,-1.57 -20.83,-3.54 -31.16,-5.81 -41.24,-9.09 -81.17,-23.1 -118.06,-43.55 -9.12,-5.62 -17.96,-11.69 -26.52,-18.2 -8.58,-6.52 -16.87,-13.59 -24.73,-20.95 -7.47,-6.93 -14.68,-14.12 -21.62,-21.59 -71.77,-77.04 -111.78,-178.57 -111.78,-283.91 0,-0.15 0,-0.41 0,-0.56l-0 0.01z"/>
   <path class="fil5" d="M163.63 845.05c1.1,1.88 2.18,3.76 3.31,5.61 0.67,1.13 1.38,2.22 2.08,3.35 1.03,1.68 2.07,3.35 3.13,5 0.75,1.19 1.57,2.35 2.29,3.51 1.03,1.57 2.07,3.13 3.13,4.7 0.8,1.19 1.57,2.38 2.44,3.57 1.03,1.57 2.07,3.01 3.13,4.51 0.85,1.21 1.72,2.4 2.58,3.6 0.86,1.21 2.1,2.9 3.13,4.34 1.03,1.44 1.8,2.4 2.71,3.59 0.91,1.19 2.15,2.82 3.24,4.23 1.1,1.41 1.86,2.37 2.8,3.54 0.94,1.18 2.21,2.76 3.32,4.12 1.11,1.36 1.93,2.33 2.9,3.49 0.97,1.16 2.26,2.69 3.4,4.03 1.14,1.33 1.99,2.3 2.99,3.45l3.48 3.92c1.02,1.14 2.05,2.26 3.13,3.38 1.35,1.47 2.71,2.93 4.07,4.37l1.9 2.01c2.02,2.1 4.06,4.2 6.12,6.27l0.41 0.42c2.02,2.01 4.07,3.99 6.12,5.97l2.47 2.35c1.49,1.39 2.98,2.79 4.48,4.17l1.82 1.66c1.57,1.47 3.27,2.91 4.92,4.35 5.12,4.46 10.34,8.73 15.66,12.83 8.55,6.52 17.39,12.58 26.52,18.2 36.89,20.36 76.75,34.46 118.06,43.55 10.32,2.27 20.72,4.23 31.16,5.81 65.95,5.87 136.28,8.11 202.5,-4.82 -105.31,-31 -611.03,-213.11 -292.73,-769.58l0 0c-4.26,1.96 -8.46,3.98 -12.62,6.08l-0.92 0.45c-1.91,0.96 -3.82,1.94 -5.72,2.94l-1.57 0.83c-5.89,3.13 -11.72,6.38 -17.43,9.76l-1.41 0.83c-1.82,1.08 -3.62,2.18 -5.42,3.29l-1.36 0.85c-5.6,3.5 -11.11,7.12 -16.53,10.86l-1.69 1.17c-1.71,1.19 -3.38,2.38 -5.06,3.59l-1.03 0.74c-3.41,2.5 -6.79,5.02 -10.12,7.58l-0.97 0.75c-1.57,1.22 -3.13,2.47 -4.7,3.74l-1.83 1.47c-1.57,1.27 -3.13,2.54 -4.7,3.84l0 0c-3.31,2.74 -6.56,5.56 -9.77,8.41l-1.79 1.57 -4.21 3.84 -2.04 1.85c-4.47,4.18 -8.84,8.44 -13.11,12.8l-2.16 2.21c-1.24,1.28 -2.47,2.57 -3.7,3.87 -0.72,0.77 -1.44,1.57 -2.15,2.32 -2.15,2.3 -4.27,4.63 -6.36,6.99 -0.71,0.8 -1.43,1.57 -2.13,2.41 -1.11,1.27 -2.21,2.55 -3.31,3.84l-2.37 2.8c-1.07,1.27 -2.13,2.54 -3.13,3.82 -0.85,1.03 -1.69,2.08 -2.52,3.13 -1.68,2.08 -3.32,4.17 -4.95,6.27 -0.85,1.1 -1.69,2.19 -2.52,3.31 -0.83,1.11 -1.88,2.49 -2.8,3.76 -0.92,1.27 -1.68,2.27 -2.49,3.41 -0.81,1.14 -1.77,2.43 -2.63,3.65 -1.48,2.09 -2.94,4.2 -4.39,6.34 -0.78,1.14 -1.57,2.32 -2.33,3.48 -0.77,1.16 -1.72,2.6 -2.57,3.92l-2.33 3.62 -2.63 4.24c-0.67,1.08 -1.35,2.16 -2.01,3.24 -1.39,2.29 -2.74,4.59 -4.09,6.89l-1.91 3.38c-0.85,1.49 -1.69,2.99 -2.52,4.5 -0.63,1.14 -1.25,2.29 -1.86,3.43 -1,1.86 -1.99,3.74 -2.98,5.62l-1.88 3.67c-1,2.01 -2.01,3.99 -2.99,6.01 -0.52,1.08 -1.05,2.18 -1.57,3.27 -0.81,1.71 -1.57,3.43 -2.4,5.15 -0.49,1.03 -0.96,2.07 -1.43,3.13 -1.16,2.58 -2.29,5.19 -3.4,7.83 -0.34,0.81 -0.67,1.64 -1.02,2.46 -0.83,1.99 -1.64,3.98 -2.44,5.98 -0.42,1.05 -0.83,2.1 -1.24,3.13 -0.78,1.97 -1.57,3.96 -2.27,5.95 -0.33,0.86 -0.66,1.72 -0.97,2.58 -0.98,2.75 -1.95,5.49 -2.9,8.24l-0.88 2.66c-0.69,2.09 -1.36,4.18 -2.02,6.27l-0.94 2.99c-0.74,2.41 -1.46,4.82 -2.15,7.25 -0.16,0.52 -0.31,1.03 -0.45,1.57 -0.81,2.88 -1.6,5.77 -2.35,8.68 -0.25,0.92 -0.47,1.86 -0.71,2.79 -0.55,2.18 -1.08,4.35 -1.57,6.55l-0.66 2.74c-0.67,2.98 -1.33,5.95 -1.94,8.94l-0.24 1.21c-0.53,2.66 -1.05,5.33 -1.57,7.99 -0.17,0.96 -0.33,1.9 -0.5,2.85 -0.41,2.33 -0.8,4.7 -1.16,7.05 -0.13,0.8 -0.27,1.57 -0.38,2.38 -0.47,3.05 -0.89,6.12 -1.3,9.21l-0.24 2.04c-0.31,2.49 -0.59,5 -0.86,7.5 -0.09,0.94 -0.2,1.88 -0.3,2.84 -0.25,2.63 -0.49,5.28 -0.71,7.93 0,0.55 -0.09,1.08 -0.13,1.57 -0.23,3.13 -0.43,6.29 -0.61,9.48 0,0.83 0,1.68 -0.11,2.51 -0.1,2.46 -0.2,4.92 -0.28,7.38 0,0.92 0,1.85 0,2.77 0,3.21 -0.13,6.44 -0.13,9.66 0,0 0,0.11 0,0.16 0,3.48 0,6.92 0.13,10.37 0,1.19 0.09,2.38 0.13,3.57 0.08,2.3 0.16,4.61 0.27,6.91 0,1.39 0.17,2.77 0.25,4.17 0.13,2.08 0.24,4.17 0.39,6.27 0.11,1.57 0.25,2.96 0.38,4.43 0.17,1.97 0.33,3.95 0.53,5.91 0.14,1.57 0.33,3.04 0.49,4.56 0.22,1.9 0.42,3.81 0.66,5.7 0.19,1.57 0.41,3.13 0.61,4.62 0.25,1.85 0.5,3.71 0.78,5.56 0.24,1.57 0.49,3.13 0.74,4.7 0.28,1.82 0.58,3.65 0.89,5.47 0.28,1.57 0.56,3.13 0.86,4.7 0.33,1.8 0.67,3.6 1.02,5.39 0.34,1.79 0.64,3.13 0.97,4.7 0.38,1.79 0.75,3.56 1.16,5.33 0.41,1.77 0.69,3.13 1.07,4.59 0.41,1.77 0.85,3.52 1.28,5.26 0.44,1.74 0.77,3.05 1.16,4.56 0.47,1.75 0.94,3.49 1.43,5.23 0.41,1.57 0.83,3.01 1.27,4.5 0.5,1.74 1.02,3.46 1.57,5.18 0.55,1.72 0.91,2.96 1.38,4.45 0.47,1.49 1.1,3.43 1.66,5.14 0.56,1.71 0.97,2.93 1.47,4.39 0.59,1.71 1.19,3.41 1.8,5.12 0.52,1.43 1.02,2.87 1.57,4.29l1.94 5.12c0.55,1.39 1.08,2.8 1.57,4.2 0.69,1.71 1.39,3.43 2.1,5.14 0.56,1.35 1.11,2.71 1.69,4.06 0.74,1.75 1.57,3.48 2.27,5.22 0.58,1.28 1.14,2.58 1.72,3.87 0.81,1.82 1.68,3.6 2.51,5.39l1.69 3.6c0.96,1.97 1.94,3.92 2.93,5.87 0.5,0.99 0.97,1.99 1.49,2.98 3.01,5.86 6.14,11.64 9.4,17.34 0.45,0.74 1.03,1.69 1.6,2.65z"/>
   <path class="fil3 str1" d="M106.68 634.4c0,-230.76 187.07,-417.84 417.84,-417.84 230.76,0 417.84,187.07 417.84,417.84 0,0.09 0,0.3 0,0.4 0,125.75 -56.82,244.93 -154.51,324.04 -8.58,6.97 -17.43,13.59 -26.55,19.87 -94.23,59.82 -213.28,59.82 -320.75,50.25 -10.43,-1.57 -20.83,-3.54 -31.16,-5.81 -41.24,-9.09 -81.17,-23.1 -118.06,-43.55 -9.12,-5.62 -17.96,-11.69 -26.52,-18.2 -8.58,-6.52 -16.87,-13.59 -24.73,-20.95 -7.47,-6.93 -14.68,-14.12 -21.62,-21.59 -71.77,-77.04 -111.78,-178.57 -111.78,-283.91 0,-0.15 0,-0.41 0,-0.56l-0 0.01z"/>
   <path class="fil5" d="M166.44 741.75c-1.57,-44.42 28.2,-82.02 67.79,-99.56 4.14,-1.7 8.44,-3.12 12.78,-4.23 8.59,-2.12 17.45,-3.21 26.31,-3.21 13.61,0 27.13,2.54 39.81,7.48 4.79,1.83 9.49,4.03 13.98,6.51 46.26,24.89 67.03,83.41 49.12,130.73 -1.81,4.76 -4.01,9.41 -6.55,13.83 -6.24,13.01 -15.7,24.24 -27.43,32.62 -3.9,2.87 -8.03,5.52 -12.3,7.84 -42.89,20.36 -100.84,14.1 -135.41,-17.86 -3.46,-3.67 -6.66,-7.59 -9.56,-11.7 -3.32,-4.69 -6.26,-9.7 -8.73,-14.89 -5.25,-10.65 -8.28,-22.28 -8.88,-34.14 -0.56,-4.45 -0.88,-8.96 -0.94,-13.43l-0.01 0.01z"/>
   <path class="fil6" d="M163.88 713c-1.57,-44.42 28.2,-82.02 67.79,-99.56 4.14,-1.69 8.43,-3.13 12.77,-4.23 8.62,-2.13 17.54,-3.23 26.44,-3.23 13.57,0 27.04,2.52 39.69,7.43 4.78,1.85 9.46,4.04 13.96,6.52 46.26,24.89 67.03,83.43 49.12,130.73 -1.78,4.77 -4,9.42 -6.54,13.82 -2.17,4.24 -4.64,8.34 -7.38,12.23 -2.7,3.85 -5.69,7.53 -8.9,10.96 -3.46,3.43 -7.22,6.62 -11.15,9.51 -3.91,2.88 -8.03,5.51 -12.29,7.83 -42.89,20.36 -100.84,14.1 -135.4,-17.84 -3.44,-3.66 -6.67,-7.6 -9.57,-11.72 -3.32,-4.69 -6.27,-9.7 -8.74,-14.88 -5.26,-10.61 -8.31,-22.2 -8.94,-34.04 -0.56,-4.47 -0.86,-9.01 -0.86,-13.52l0 0z"/>
   <circle class="fil0" cx="271.56" cy="699.86" r="19.17"/>
   <path class="fil4 str2" d="M367.12 764.41c2.55,-4.4 4.76,-9.05 6.55,-13.82 1.66,-4.4 3.02,-8.94 4.03,-13.53 -107.02,-12.14 -198.93,32.6 -198.93,32.6l1.72 2.74c0.64,0.97 1.28,1.94 1.96,2.88 2.9,4.11 6.13,8.06 9.57,11.71 34.55,31.89 92.51,38.16 135.4,17.84 4.26,-2.32 8.38,-4.95 12.29,-7.83 3.94,-2.88 7.7,-6.08 11.16,-9.51 3.2,-3.43 6.19,-7.11 8.89,-10.97 2.72,-3.85 5.21,-7.93 7.36,-12.13l0 0z"/>
   <path class="fil3 str1" d="M163.88 713c-1.57,-44.42 28.2,-82.02 67.79,-99.56 4.14,-1.69 8.43,-3.13 12.77,-4.23 8.62,-2.13 17.54,-3.23 26.44,-3.23 13.57,0 27.04,2.52 39.69,7.43 4.78,1.85 9.46,4.04 13.96,6.52 46.26,24.89 67.03,83.43 49.12,130.73 -1.78,4.77 -4,9.42 -6.54,13.82 -2.17,4.24 -4.64,8.34 -7.38,12.23 -2.7,3.85 -5.69,7.53 -8.9,10.96 -3.46,3.43 -7.22,6.62 -11.15,9.51 -3.91,2.88 -8.03,5.51 -12.29,7.83 -42.89,20.36 -100.84,14.1 -135.4,-17.84 -3.44,-3.66 -6.67,-7.6 -9.57,-11.72 -3.32,-4.69 -6.27,-9.7 -8.74,-14.88 -5.26,-10.61 -8.31,-22.2 -8.94,-34.04 -0.56,-4.47 -0.86,-9.01 -0.86,-13.52l0 0z"/>
   <path class="fil4" d="M655.92 729.12c0.67,-23.7 10.45,-47.13 23.65,-64.74 3.38,-4.72 7.11,-9.21 11.15,-13.36 20.6,-21.46 49.08,-33.62 78.83,-33.62 22.31,0 44.12,6.84 62.42,19.59 3.55,2.48 6.99,5.18 10.23,8.04 42.29,33.6 47.18,98.9 24,146.03 -2.25,3.73 -4.77,7.35 -7.49,10.74 -3.61,4.53 -7.61,8.82 -11.87,12.74 -31.75,27.93 -81.16,34.66 -121.25,19.45 -5.71,-2.14 -11.27,-4.79 -16.53,-7.83 -28.04,-16.89 -47.57,-48.7 -52.36,-81.81 -0.52,-4.16 -0.8,-8.37 -0.8,-12.57 0,-0.89 0.01,-1.79 0.04,-2.67l0 -0z"/>
   <path class="fil6 str1" d="M664.52 711.16c0.66,-22.16 10.06,-44.09 22.74,-60.56 3.25,-4.43 6.88,-8.63 10.75,-12.53 20.12,-20.1 47.44,-31.42 75.88,-31.42 21.38,0 42.3,6.41 60.03,18.35 3.4,2.31 6.72,4.83 9.84,7.5 40.73,31.44 45.43,92.53 23.09,136.62 -2.17,3.51 -4.58,6.87 -7.2,10.05 -3.49,4.25 -7.34,8.24 -11.42,11.91 -30.56,26.13 -78.1,32.44 -116.68,18.2 -5.5,-2.04 -10.84,-4.53 -15.93,-7.44 -26.97,-15.79 -45.77,-45.55 -50.39,-76.52 -0.5,-3.8 -0.75,-7.63 -0.75,-11.46 0,-0.91 0.02,-1.82 0.04,-2.72l-0 -0z"/>
   <circle class="fil0" cx="773.9" cy="713.96" r="19.17"/>
   <path class="fil0" d="M867.33 819.41c-16.02,7.83 -31.83,14.96 -49.09,19.88 -8.41,2.45 -17.06,4.2 -25.78,5.17 -5.84,0.46 -11.75,0.7 -17.6,0.7 -3.35,0 -6.8,-0.11 -10.12,-0.24 -10.64,-0.2 -21.39,-1.25 -31.9,-2.99 -3.02,-0.49 -6.47,0.8 -7.24,4.1 -0.64,2.84 0.86,6.7 4.1,7.24 10.13,1.7 20.52,2.8 30.8,3.27 5,0.2 9.98,0.09 14.97,0.25 1.38,0.05 2.85,0.08 4.25,0.08 3.31,0 6.64,-0.15 9.94,-0.4 18.8,-1.57 37,-6.7 54.45,-13.72 9.9,-3.99 19.61,-8.46 29.18,-13.19 1.79,-1.06 2.89,-2.99 2.89,-5.08 0,-1.04 -0.27,-2.06 -0.79,-2.96 -1.09,-1.78 -3.03,-2.87 -5.12,-2.87 -1.02,0 -2.03,0.26 -2.92,0.76l-0.03 0z"/>
   <path class="fil0" d="M313.54 833.99c-17.81,3.38 -35.09,5.95 -53.35,6 -0.46,0.01 -0.95,0.01 -1.41,0.01 -8.44,0 -16.91,-0.73 -25.21,-2.14 -19.15,-4 -37.91,-10.14 -55.71,-18.22 -0.88,-0.5 -1.88,-0.75 -2.9,-0.75 -2.09,0 -4.03,1.08 -5.13,2.86 -1.49,2.54 -0.78,6.69 2.1,8.04 9.1,4.2 18.5,7.98 28,11.12 4.56,1.57 9.19,2.66 13.75,4.07 4.57,1.46 9.26,2.71 13.96,3.69 18.72,3.79 37.94,3.71 56.88,1.57 10.78,-1.19 21.48,-2.94 32.13,-4.97 3.13,-0.58 4.89,-4.34 4.1,-7.22 -0.76,-2.55 -3.1,-4.3 -5.76,-4.3 -0.5,0 -1,0.06 -1.49,0.19l0.05 0.06z"/>
   <g>
    <path class="fil7" d="M123.35 609.54c8.83,24.8 32.74,37.69 52.32,42.2 20.46,-31.7 88.74,-45.3 139.99,-27.32 43.55,7.83 -16.93,-40.05 -113.52,-14.1 -3.62,1.33 -22.81,4.62 -47.43,-14.4 -3.43,-2.65 7.33,21.48 19.58,31.33 -17.78,-0.36 -20.69,-0.35 -50.94,-17.72z"/>
    <path class="fil7" d="M871.02 627.24c12.25,-9.79 23.01,-33.91 19.58,-31.33 -24.62,19.02 -43.86,15.66 -47.43,14.4 -96.58,-26 -157.08,21.93 -113.53,14.1 51.27,-17.98 119.55,-4.39 140,27.32 19.58,-4.51 43.48,-17.4 52.32,-42.2 -30.25,17.39 -33.16,17.37 -50.94,17.72z"/>
   </g>
   <path class="fil0 str1" d="M585.15 894.02c-24.36,0 -39.35,-19.99 -57.14,-19.99 -17.79,0 -40.6,19.99 -64.58,19.99 -23.98,0 -37.17,-17.4 -37.17,-41.53 0,-26.08 26.24,-72.15 98.07,-72.15 71.83,0 102.43,43.45 102.43,71.21 -0.06,25.64 -17.23,42.46 -41.6,42.46z"/>
   <path class="fil8" d="M541.96 877.58c-7.14,-19.19 -31.55,-31.72 -59.29,-29.26 -23.17,2.1 -42.18,14.24 -49.87,29.92 6.14,9.81 16.46,15.77 30.56,15.77 24.04,0 46.83,-19.99 64.65,-19.99 4.85,0.17 9.62,1.38 13.96,3.56l-0 -0z"/>
   <path class="fil0" d="M454.12 835.93l1.36 -0.55 1.14 -0.39c0.74,-0.25 1.47,-0.44 2.21,-0.63 1.47,-0.38 2.96,-0.66 4.46,-0.83 1.66,-0.22 3.35,-0.33 5.03,-0.33 1.38,0 2.75,0.07 4.12,0.22 6.37,0.61 12.45,3.05 17.47,7.02 4.74,3.75 8.31,8.8 10.26,14.52 0.94,2.79 1.42,5.73 1.42,8.67 0,2.6 -0.38,5.19 -1.11,7.68 -3.92,-4.04 -6.99,-7.74 -10.07,-10.78 -1.4,-1.44 -2.92,-2.8 -4.51,-4.04 -1.44,-1.09 -3.03,-2 -4.7,-2.7 -2.88,-1.19 -5.99,-1.82 -9.11,-1.82 -0.28,0 -0.56,0.01 -0.83,0.01 -1.79,0.05 -3.6,0.21 -5.37,0.47 -0.89,0.16 -1.82,0.3 -2.69,0.49l-1.32 0.3 -0.61 0.13c-0.14,0 -0.45,0.13 -0.34,0l-6.8 -17.45z"/>
   <rect class="fil5" x="195.93" y="499.72" width="688.02" height="100.48"/>
   <path class="fil1" d="M853.46 897.02c-4.92,6.08 -9.99,12.01 -15.21,17.81 -3.92,4.34 4.04,-1.75 15.21,-17.81zm23.5 -495.84c-47.78,-85.23 -130.79,-143.9 -226.78,-170.91l-9.95 -2.68c-35.56,-9.84 -73.03,-10.96 -111.72,-10.96 -41.81,0 -82.17,4.29 -120.25,15.66l-6.67 1.99c-50.64,17.18 -97.85,43.49 -139.16,77.44 -4.58,3.74 -9.06,7.56 -13.44,11.47 -44.39,37.11 -78.85,84.1 -102.55,137.69 -2.3,5.14 -4.47,10.32 -6.52,15.55 -6.11,15.57 -11.06,31.65 -14.75,47.93 -50.2,198.29 27.94,319.94 97.3,394.5 6.84,7.36 -90.74,-159.54 -27.29,-338.34 12.11,-0.45 31.7,-0.8 56.69,-1.05l24.28 -79.28 27.32 78.91c42.92,-0.2 93.8,-0.24 147.05,-0.19l19.3 -82.02 21.8 82.05c116.49,0.22 237.21,0.81 305.88,1.21l20.68 -81.72 23.5 81.97 12.86 0.08c78.46,166.7 27.9,274.98 -1.08,316.54 60.02,-74.05 92.89,-166.65 92.89,-262.04 0,-0.15 0,-0.41 0,-0.56 0,-135.39 -69.39,-233.24 -69.39,-233.24z"/>
   <path class="fil3 str1" d="M853.46 897.02c-4.92,6.08 -9.99,12.01 -15.21,17.81 -3.92,4.34 4.04,-1.75 15.21,-17.81zm23.5 -495.84c-47.78,-85.23 -130.79,-143.9 -226.78,-170.91l-9.95 -2.68c-35.56,-9.84 -73.03,-10.96 -111.72,-10.96 -41.81,0 -82.17,4.29 -120.25,15.66l-6.67 1.99c-50.64,17.18 -97.85,43.49 -139.16,77.44 -4.58,3.74 -9.06,7.56 -13.44,11.47 -44.39,37.11 -78.85,84.1 -102.55,137.69 -2.3,5.14 -4.47,10.32 -6.52,15.55 -6.11,15.57 -11.06,31.65 -14.75,47.93 -50.2,198.29 27.94,319.94 97.3,394.5 6.84,7.36 -90.74,-159.54 -27.29,-338.34 12.11,-0.45 31.7,-0.8 56.69,-1.05l24.28 -79.28 27.32 78.91c42.92,-0.2 93.8,-0.24 147.05,-0.19l19.3 -82.02 21.8 82.05c116.49,0.22 237.21,0.81 305.88,1.21l20.68 -81.72 23.5 81.97 12.86 0.08c78.46,166.7 27.9,274.98 -1.08,316.54 60.02,-74.05 92.89,-166.65 92.89,-262.04 0,-0.15 0,-0.41 0,-0.56 0,-135.39 -69.39,-233.24 -69.39,-233.24z"/>
   <path class="fil1" d="M656.33 208.34l-10.13 -2.73c-39.49,-10.96 -79.78,-11.83 -117.68,-11.83 -47.92,0 -89.39,5.47 -126.74,16.67l-6.67 1.99 -0.77 0.24c-53.21,18.15 -102.88,45.79 -146.35,81.46 -4.7,3.85 -9.4,7.83 -13.85,11.83 -46.41,38.88 -82.91,87.89 -108.46,145.67 -2.44,5.47 -4.7,11.04 -6.92,16.56 -6.55,16.74 -33.35,93.62 -37.2,110.67l113.61 1.57c12.11,-0.45 31.7,-0.8 56.69,-1.05l24.28 -79.28 27.32 78.91c42.92,-0.2 93.8,-0.24 147.05,-0.19l19.3 -82.02 21.82 82.13c116.49,0.22 237.21,0.81 305.88,1.21l20.68 -81.72 23.5 81.97 12.86 0.08 114.52 53.92c0,-135.01 -64.69,-233.39 -72.81,-245.3 -49.06,-86.78 -134.22,-151 -239.92,-180.76zm260.27 500.07c-4.97,-40.6 -17.5,-86.56 -41.53,-137.59l-6.09 -12.95 -10.17 0 -41.95 -146.66 -37.03 146.14c-63.33,-0.34 -167.7,-0.85 -270.77,-1.08l-40.65 -152.83 -35.93 152.72c-42.92,0 -80.75,0 -112.92,0.14l-44.74 -129.4 -39.82 130.01c-17.94,0.24 -31.58,0.53 -40.73,0.88l-15.4 0.59 -5.15 14.5c-22.46,63.42 -28.41,132 -17.7,204.05 -24.91,-62.66 -35.18,-143.15 -8.85,-246.91l0.14 -0.59c3.44,-15.15 8.12,-30.2 13.8,-44.68 1.88,-4.84 3.93,-9.74 6.12,-14.65 22.78,-51.47 55.2,-95.03 96.35,-129.43l0.52 -0.45c4.15,-3.68 8.44,-7.35 12.75,-10.89 39.07,-32.11 83.7,-57.04 131.58,-73.43l6.34 -1.88c33.08,-9.93 70.28,-14.77 113.72,-14.77 34.8,0 71.63,0.8 105.65,10.21l9.99 2.68c94.36,26.63 170,83.44 213.03,160.13l0.58 1.03 0.69 0.99c0.66,0.92 65.18,93.4 65.18,220.08 -0.01,24.84 -2.42,49.67 -7.05,74.01l0.02 0.02z"/>
   <path class="fil3 str1" d="M853.46 897.02c-4.92,6.08 -9.99,12.01 -15.21,17.81 -3.92,4.34 4.04,-1.75 15.21,-17.81zm-630.99 21.84c6.84,7.36 -90.74,-159.54 -27.29,-338.34 12.11,-0.45 31.7,-0.8 56.69,-1.05l24.28 -79.28 27.32 78.91c42.92,-0.2 93.8,-0.24 147.05,-0.19l19.3 -82.02 21.8 82.05c116.49,0.22 237.21,0.81 305.88,1.21l20.68 -81.72 23.5 81.97 12.86 0.08c78.46,166.7 27.9,274.98 -1.08,316.54"/>
   <path class="fil0" d="M186.93 576.21c0.28,-1.17 0.52,-2.07 0.83,-3.04 0.31,-0.97 0.63,-1.88 0.97,-2.79 0.72,-1.83 1.57,-3.62 2.37,-5.36 1.74,-3.5 3.77,-6.86 6.04,-10.05 2.23,-3.24 4.8,-6.28 7.64,-9.01 3.1,-2.94 6.86,-5.09 10.97,-6.27 -0,0.19 0,0.4 0,0.59 0,3.85 -0.46,7.7 -1.36,11.44 -0.44,1.79 -0.92,3.52 -1.46,5.2l-1.57 5.09c-1.05,3.37 -2.09,6.71 -3.14,10.01 -0.52,1.66 -1.07,3.27 -1.57,4.9 -0.27,0.8 -0.58,1.57 -0.88,2.4 -0.3,0.83 -0.61,1.57 -0.88,2.19l-17.97 -5.31z"/>
   <path class="fil0" d="M854.52 571.09c1.45,-0.11 2.9,-0.17 4.35,-0.17 1.8,0 3.62,0.09 5.41,0.27 3.26,0.28 6.56,0.74 9.78,1.35 1.57,0.31 3.26,0.63 4.89,1 1.64,0.34 3.28,0.8 4.87,1.34 3.59,1.21 6.91,3.12 9.77,5.61 -2.86,2.48 -6.19,4.4 -9.77,5.62 -1.59,0.55 -3.23,0.99 -4.87,1.33 -1.57,0.39 -3.26,0.71 -4.89,1.02 -3.26,0.61 -6.52,1.05 -9.77,1.35 -1.76,0.17 -3.54,0.26 -5.32,0.26 -1.48,0 -2.97,-0.07 -4.44,-0.18l0 -18.8z"/>
   <path class="fil6" d="M438.11 559.32c0.37,-7.46 1.17,-14.94 2.33,-22.31 1.13,-7.36 2.51,-14.68 4.09,-21.93 1.58,-7.25 3.37,-14.49 5.39,-21.66 2,-7.2 4.47,-14.38 7.25,-21.3 -0.35,7.45 -1.18,14.94 -2.37,22.32 -1.12,7.36 -2.48,14.67 -4.08,21.93 -1.6,7.26 -3.39,14.48 -5.39,21.66 -2.02,7.19 -4.48,14.35 -7.23,21.29l0.01 -0z"/>
   <path class="fil6" d="M787.67 559.32c0.37,-7.46 1.17,-14.94 2.33,-22.31 1.14,-7.37 2.51,-14.68 4.09,-21.94 1.59,-7.26 3.36,-14.47 5.31,-21.65 2.01,-7.21 4.41,-14.33 7.16,-21.28 -0.35,7.47 -1.18,14.93 -2.34,22.32 -1.14,7.37 -2.51,14.68 -4.08,21.94 -1.57,7.27 -3.38,14.49 -5.4,21.66 -1.96,7.16 -4.35,14.34 -7.05,21.26l-0.01 -0z"/>
   <g>
    <path class="fil1" d="M113.41 584.68c3.14,-20.55 9.21,-40.63 17.9,-59.52l-17.9 59.52zm0 0l0 0 0 0z"/>
   </g>
   <path class="fil0" d="M104.09 583.51c0.14,-1.57 0.28,-2.9 0.5,-4.28 0.22,-1.38 0.45,-2.69 0.72,-4.04 0.55,-2.66 1.17,-5.29 1.93,-7.83 1.47,-5.2 3.3,-10.32 5.44,-15.27 2.07,-4.99 4.54,-9.85 7.36,-14.45 2.95,-4.78 6.78,-8.99 11.26,-12.39 0.09,1.5 0.13,3.04 0.13,4.55 0,3.94 -0.31,7.89 -0.89,11.78 -0.39,2.55 -0.8,5.09 -1.3,7.58 -0.5,2.49 -0.91,5 -1.3,7.49l-2.55 14.87 -1.3 7.33c-0.19,1.22 -0.44,2.44 -0.66,3.63 -0.22,1.19 -0.47,2.46 -0.69,3.43l-18.65 -2.41z"/>
   <g>
    <path class="fil1" d="M946.39 628.14c0,0 -0.72,-32.55 -13.11,-74.61l13.11 74.61zm0 0l0 0 0 0z"/>
   </g>
   <path class="fil0" d="M936.99 628.32l-0.38 -4.32c-0.13,-1.57 -0.25,-3.02 -0.34,-4.53l-0.71 -9.15 -1.43 -18.48c-0.47,-6.19 -1.11,-12.39 -1.57,-18.69 -0.13,-3.13 -0.25,-6.36 -0.16,-9.62 0.02,-3.35 0.31,-6.71 0.79,-10.02 4.26,5.13 7.75,10.9 10.31,17.06 1.26,2.97 2.42,6.06 3.39,9.15 1.05,3.13 1.94,6.27 2.84,9.4 1.76,6.23 3.19,12.63 4.22,19.05 0.52,3.21 0.99,6.45 1.27,9.73 0.17,1.63 0.29,3.28 0.38,4.94 0.09,1.68 0.13,3.24 0.11,5.14l-18.72 0.34z"/>
   <path class="fil6" d="M535.01 220.09c-22.27,1.3 -44.53,3.92 -66.51,7.73 -5.45,1.07 -10.96,2.22 -16.35,3.23 -5.39,1 -10.81,2.52 -16.21,3.77l-16.07 4.26c-5.33,1.57 -10.6,3.26 -15.9,4.89 -21.13,6.76 -41.84,15.07 -61.78,24.65 -20.09,9.73 -39.66,20.78 -58.37,32.9 16.65,-15.23 35.21,-28.53 54.96,-39.4 19.77,-11.06 40.73,-20.2 62.28,-27.16 5.45,-1.57 10.87,-3.27 16.32,-4.78 5.45,-1.5 10.96,-2.85 16.53,-4.07 5.56,-1.22 11.12,-2.19 16.68,-3.13 5.56,-0.94 11.22,-1.68 16.82,-2.38 11.9,-1.45 24.04,-2.18 36.06,-2.18 10.5,0 21.11,0.58 31.54,1.67l0 0z"/>
   <path class="fil0" d="M410.62 636.17l-20.36 -6.88 -48.87 -16.51 -58.9 -19.91 -50.89 -17.23c-8.26,-2.79 -16.46,-5.76 -24.76,-8.36l-0.34 -0.13c-1.35,-0.37 -2.76,-0.56 -4.17,-0.56 -8.65,0 -15.67,7.02 -15.67,15.67 0,7.05 4.71,13.23 11.5,15.11l20.36 6.88 48.87 16.51 58.9 19.89 50.89 17.23c8.24,2.79 16.45,5.75 24.76,8.36l0.34 0.13c1.35,0.37 2.76,0.56 4.17,0.56 8.65,0 15.67,-7.02 15.67,-15.67 0,-7.05 -4.71,-13.23 -11.5,-15.11l-0 0.02z"/>
   <path class="fil0" d="M833.38 562.19l-19.92 7.99 -47.84 19.28 -57.66 23.25 -49.83 20.13c-8.08,3.26 -16.16,6.52 -24.23,9.77l-0.34 0.13c-3.93,1.57 -7.14,3.4 -9.4,7.21 -1.38,2.41 -2.11,5.15 -2.11,7.93 0,1.4 0.18,2.79 0.55,4.14 1.09,3.95 3.68,7.32 7.21,9.4 3.48,1.85 8.24,3.13 12.06,1.57l19.94 -8.04 47.84 -19.28 57.67 -23.28 49.83 -20.08c8.07,-3.26 16.17,-6.5 24.23,-9.77l0.34 -0.14c3.93,-1.57 7.14,-3.4 9.4,-7.19 1.4,-2.4 2.15,-5.13 2.15,-7.91 0,-5.57 -2.96,-10.72 -7.77,-13.53 -3.48,-1.83 -8.26,-3.13 -12.08,-1.57l-0.03 0z"/>
   <g>
    <circle class="fil9" cx="504.83" cy="95.09" r="83.3"/>
    <path class="fil10" d="M504.83 178.38c0.01,0 0.03,0 0.04,0 45.99,0 83.28,-37.29 83.28,-83.28 0,-5.8 -0.61,-11.6 -1.81,-17.26 -54,-8.37 -110,-3.51 -164.51,10.53 -0.18,2.21 -0.3,4.44 -0.3,6.7 0,-0 0,0.02 0,0.02 0,46 37.3,83.3 83.3,83.3 0,0 0,0 0,0l-0 0z"/>
    <circle class="fil3 str3" cx="504.83" cy="95.09" r="83.3"/>
    <path class="fil9" d="M64.17 561.73c0,-0.06 0,-0.22 0,-0.27 0,-33.82 3.87,-67.64 11.45,-100.58 1.52,-6.51 3.17,-12.94 4.95,-19.32 5.09,-56.67 35.09,-103.4 75.19,-145.14 8.35,-6.68 10.02,-21.7 18.37,-30.05 28.39,-25.03 53.42,-50.09 85.14,-70.17 130.21,-83.47 302.15,-128.54 440.71,-51.75 28.37,15.02 60.09,23.37 83.46,43.4 45.09,38.39 76.79,83.47 121.88,120.19 40.05,33.33 46.74,86.81 60.95,133.45 1.79,6.36 3.43,12.79 4.93,19.3 7.6,32.96 11.47,66.78 11.47,100.6 0,0.05 0,0.22 0,0.27l-918.49 0.07z"/>
    <path class="fil10" d="M75.64 460.85c-7.6,32.97 -11.47,66.78 -11.47,100.6 0,0.05 0,0.22 0,0.27l145.61 0c-2.74,-141.51 -39.05,-259.68 145.16,-403.73 -132.14,50.16 -252.54,160.31 -279.29,302.85z"/>
    <path class="fil10" d="M95.61 382.77c-8.08,18.66 -13.19,38.53 -15.04,58.78 -1.77,6.37 -3.41,12.8 -4.92,19.31 -7.6,32.97 -11.47,66.78 -11.47,100.6 0,0.05 0,0.22 0,0.27l350.96 0c36.98,-2.91 74.72,-4.32 111.92,-4.32 37.2,0 74.94,1.42 111.97,4.25l343.65 0.07c-0,-0.06 -0,-0.22 -0,-0.27 0,-33.82 -3.87,-67.64 -11.45,-100.58 -1.52,-6.51 -3.17,-12.94 -4.95,-19.32 -6.07,-19.95 -10.79,-41.12 -17.3,-61.4 -284.01,-105.09 -571.22,-102.86 -853.36,2.61z"/>
    <path class="fil3 str0" d="M64.17 561.73c0,-0.06 0,-0.22 0,-0.27 0,-33.82 3.87,-67.64 11.45,-100.58 1.52,-6.51 3.17,-12.94 4.95,-19.32 5.09,-56.67 35.09,-103.4 75.19,-145.14 8.35,-6.68 10.02,-21.7 18.37,-30.05 28.39,-25.03 53.42,-50.09 85.14,-70.17 130.21,-83.47 302.15,-128.54 440.71,-51.75 28.37,15.02 60.09,23.37 83.46,43.4 45.09,38.39 76.79,83.47 121.88,120.19 40.05,33.33 46.74,86.81 60.95,133.45 1.79,6.36 3.43,12.79 4.93,19.3 7.6,32.96 11.47,66.78 11.47,100.6 0,0.05 0,0.22 0,0.27l-918.49 0.07z"/>
    <path class="fil9" d="M38.01 444.71c321.78,-136.84 651.11,-138.7 975.32,0 30.75,13.16 30.58,245.38 0,234.75 -316.61,-110.23 -651.45,-111.4 -975.32,0 -38.53,13.25 -34.77,-219.96 0,-234.75z"/>
    <path class="fil0" d="M960.77 597.83c1.45,5.67 2.25,11.52 2.37,17.37 0.16,5.74 -0.19,11.44 -0.46,17.16l-0.63 8.54c-0.28,2.84 -0.56,5.68 -0.91,8.51 -0.7,5.67 -1.56,11.3 -2.79,16.86l-13.81 -2.47c0.77,-5.56 1.75,-11.07 2.88,-16.58l1.75 -8.26 1.75 -8.25c1.3,-5.49 2.4,-11 3.89,-16.49 1.47,-5.63 3.48,-11.13 5.95,-16.39l-0 0z"/>
    <path class="fil0" d="M958.28 420.22c2.69,10.95 4.87,22.14 6.37,33.33 0.75,5.6 1.37,11.21 1.91,16.82 0.54,5.61 0.86,11.26 1.16,16.89 0.46,11.26 0.65,22.53 0.11,33.77 -0.47,11.23 -1.94,22.52 -4.29,33.52 -1.75,-11.21 -2.93,-22.28 -4.07,-33.33 -1.14,-11.05 -2.12,-22.02 -3.6,-32.95 -0.68,-5.47 -1.46,-10.91 -2.28,-16.35 -0.82,-5.44 -1.75,-10.86 -2.67,-16.26 -1.88,-10.82 -4.04,-21.56 -6.3,-32.3l13.66 -3.15z"/>
    <path class="fil3 str4" d="M815.95 384.31c13.26,75.21 11.77,157 0,243.38"/>
    <path class="fil3 str4" d="M692.11 359.06c9.03,75.26 8.02,157.1 0,243.56"/>
    <path class="fil0" d="M579.23 444.78c2.12,12 3.52,24.13 4.15,36.27 0.7,12.11 0.91,24.21 1.14,36.33l0 18.18c0,6.05 0,12.11 -0.21,18.16 -0.26,12.11 -0.7,24.21 -1.53,36.3l-14.04 -0.7c0.39,-12.05 1,-24.09 1.65,-36.12l2.12 -36.09c0.81,-12.03 1.44,-24.09 2.37,-36.14 0.93,-12.05 2.3,-24.09 4.34,-36.18z"/>
    <path class="fil0" d="M582.88 345.5c0.32,3.33 0.5,6.73 0.5,10.09 0,0.34 0,0.71 0,1.05 0,1.86 -0.09,3.72 -0.14,5.58l-0.23 5.6c-0.3,3.72 -0.56,7.46 -1.19,11.19 -0.64,3.91 -1.88,7.7 -3.65,11.24 -2.1,-3.38 -3.7,-7.05 -4.74,-10.89 -1,-3.65 -1.63,-7.3 -2.3,-10.96l-0.86 -5.47c-0.23,-1.84 -0.49,-3.67 -0.68,-5.49 -0.4,-3.6 -0.61,-7.24 -0.61,-10.87 0,-0.05 0,-0.12 0,-0.17l13.91 -0.9z"/>
    <path class="fil3 str4" d="M463.29 345.1c0.61,75.44 0.54,157.31 0,243.86"/>
    <path class="fil3 str4" d="M350.34 356.56c-3.61,75.44 -3.21,157.42 0,244.05"/>
    <path class="fil0" d="M227.52 506.5c2.07,9.68 3.73,19.6 4.76,29.44 1.11,9.81 1.91,19.6 2.89,29.39l2.65 29.35c0.82,9.77 1.63,19.56 2.19,29.37l-14.04 1.12c-1.02,-9.84 -1.63,-19.72 -2.07,-29.6 -0.23,-4.95 -0.35,-9.89 -0.49,-14.84l-0.18 -14.84c0,-9.89 0.09,-19.81 0.61,-29.7 0.46,-9.95 1.75,-19.92 3.66,-29.68l-0 -0z"/>
    <path class="fil0" d="M239.99 381.12c-0.44,6.4 -1.12,12.77 -1.84,19.14l-1.16 9.56 -1.26 9.56c-0.95,6.39 -1.67,12.77 -2.81,19.18 -1.09,6.5 -2.75,12.94 -4.92,19.16 -1.82,-6.37 -3,-12.93 -3.5,-19.54 -0.53,-6.53 -0.56,-13.02 -0.67,-19.54l0 -9.75c0.11,-3.26 0.19,-6.51 0.35,-9.75 0.35,-6.51 0.86,-13 1.75,-19.46l14.05 1.46z"/>
    <path class="fil3 str4" d="M107.33 416.68c-12.03,75.44 -10.68,157.63 0,244.38"/>
    <path class="fil0" d="M963.82 581.82c3.63,0 6.58,-2.95 6.58,-6.58 0,-3.63 -2.95,-6.58 -6.58,-6.58 -3.63,0 -6.58,2.95 -6.58,6.58 0.05,3.61 2.97,6.53 6.58,6.58l0 0z"/>
    <path class="fil3 str5" d="M972.96 418.31c17.54,75.16 15.53,156.89 0,243.22"/>
    <path class="fil3 str5" d="M837.39 380.8c13.26,75.21 11.77,157 0,243.4"/>
    <path class="fil3 str5" d="M713.49 355.28c9.03,75.26 8.02,157.1 0,243.56"/>
    <path class="fil3 str5" d="M597.14 341.89c4.81,75.3 4.28,157.21 0,243.72"/>
    <path class="fil3 str5" d="M484.41 340.73c0.6,75.35 0.54,157.31 0,243.86"/>
    <path class="fil3 str5" d="M371.32 351.91c-3.61,75.44 -3.21,157.42 0,244.05"/>
    <path class="fil3 str5" d="M253.9 375.54c-7.82,75.44 -7.02,157.52 0,244.22"/>
    <path class="fil3 str5" d="M128.17 411.75c-12.03,75.44 -10.68,157.63 0,244.38"/>
    <path class="fil3 str0" d="M38.01 444.71c321.78,-136.84 651.11,-138.7 975.32,0 30.75,13.16 30.58,245.38 0,234.75 -316.61,-110.23 -651.45,-111.4 -975.32,0 -38.53,13.25 -34.77,-219.96 0,-234.75z"/>
    <path class="fil0" d="M391.36 317.15c22.34,-4.65 45.08,-8.1 67.76,-10.07 5.7,-0.49 11.39,-0.98 17.09,-1.37l17.11 -0.98c5.72,-0.25 11.42,-0.35 17.14,-0.53l17.14 -0.23c22.81,0 45.7,1.11 68.42,3.23 22.65,2.02 45.44,5.5 67.68,10.22 -22.81,-0.51 -45.61,-1.39 -68.21,-1.98 -22.6,-0.6 -45.33,-0.86 -67.98,-0.91l-16.97 -0.01c-5.67,0 -11.33,0.21 -17,0.19l-16.98 0.25c-5.67,0.19 -11.33,0.28 -17.02,0.35 -22.63,0.58 -45.33,1.39 -68.17,1.84z"/>
    <path class="fil6" d="M251.97 229.63c12.36,-9.86 25.58,-18.95 39.28,-26.9 13.65,-8.11 27.74,-15.51 42.1,-22.21 3.51,-1.75 7.25,-3.26 10.88,-4.88 3.63,-1.61 7.25,-3.26 10.95,-4.68 7.4,-2.89 14.74,-5.93 22.28,-8.42 14.9,-5.32 30.28,-9.78 45.71,-13.17 -3.63,1.6 -7.3,3.12 -10.96,4.61 -3.67,1.49 -7.35,2.88 -10.96,4.49 -7.28,3.05 -14.58,6 -21.81,9.16l-5.42 2.33c-1.75,0.75 -3.65,1.49 -5.44,2.32l-10.79 4.79c-3.61,1.54 -7.18,3.21 -10.77,4.82 -3.6,1.61 -7.18,3.23 -10.7,4.96l-10.7 4.96c-3.51,1.75 -7.02,3.51 -10.61,5.26 -7.02,3.4 -14.04,7.02 -21.14,10.53 -14.02,7.07 -27.99,14.38 -41.88,22.02z"/>
   </g>
  </g>
  <path class="fil3" d="M362.32 1210.04l-17.84 203.63 -49.7 0c-1.27,-282.37 31.88,-263.36 31.88,-263.36"/>
  <path class="fil4" d="M721.76 1523.32l-374.27 0c-11.48,-0.01 -20.79,-9.32 -20.79,-20.8 0,0 0,0 0,0l-0 -445.98c0,-0 0,-0 0,-0 0,-11.48 9.3,-20.79 20.79,-20.8l365.33 0c20.5,0 29.76,12 29.76,31.14l0 435.58c0,0.02 0,0.04 0,0.06 0,11.49 -9.32,20.8 -20.8,20.8 -0.01,0 -0.01,0 -0.02,0z"/>
  <path class="fil5" d="M736.77 1048.11c-1.56,-1.91 -2.89,-4.03 -3.93,-6.26 -3.76,-2.95 -8.24,-4.85 -12.97,-5.5 -2.29,-0.36 -4.61,-0.53 -6.92,-0.53 -0.04,0 -0.09,0 -0.13,0l-365.33 0c-11.45,0.01 -20.74,9.27 -20.79,20.72 45.43,16.32 130.46,25.44 207.92,25.44 98.78,0 163.5,-14.64 202.14,-33.86z"/>
  <path class="fil3 str6" d="M706.93 1035.73c57.5,11.88 73.19,18.14 87.63,44.91 12.89,23.9 27.42,62.89 28.06,156.75l-63.4 1.56"/>
  <line class="fil3 str1" x1="347.49" y1="1035.89" x2="712.82" y2= "1035.73" />
  <path class="fil5" d="M347.49 1523.32l182.67 0c-170.97,0 -158.06,-362.12 -203.46,-362.12l0 341.25c0,0.02 0,0.04 0,0.06 0,11.48 9.3,20.79 20.79,20.8l-0 0z"/>
  <path class="fil0" d="M317.31 1195.71c-0.3,-5.75 -0.17,-11.5 0.08,-17.23 0.25,-5.73 0.74,-11.51 1.35,-17.23 0.31,-2.88 0.63,-5.75 1.02,-8.63 0.39,-2.88 0.77,-5.75 1.33,-8.63 1.1,-5.96 3,-11.76 5.62,-17.23 2.62,5.47 4.52,11.27 5.63,17.23 0.56,2.88 0.97,5.75 1.33,8.63 0.36,2.88 0.71,5.75 1.02,8.63 0.59,5.75 1.07,11.5 1.33,17.23 0.27,5.73 0.39,11.5 0.09,17.23l-18.8 0z"/>
  <path class="fil3 str1" d="M742.55 1210.04l0 12.53c0.41,53.26 0.41,108.08 0,160.95 0,4.5 0,8.96 0,13.36l0 105.59c0,0.01 0,0.03 0,0.05 0,11.48 -9.3,20.79 -20.79,20.8l-374.27 0c-11.48,-0.01 -20.79,-9.32 -20.79,-20.8 0,0 0,0 0,0l-0 -91.16c0,-3.93 0,-7.94 0,-11.98 -0.39,-54.62 -0.39,-109.44 0,-164.94l0 -38.72"/>
  <path class="fil0" d="M733.15 1210.04c-0.3,-6.53 -0.16,-13.08 0.09,-19.63 0.25,-6.55 0.74,-13.08 1.33,-19.63 0.31,-3.27 0.64,-6.55 1.02,-9.82 0.38,-3.27 0.77,-6.53 1.33,-9.81 1.08,-6.74 2.99,-13.34 5.62,-19.63 2.63,6.29 4.54,12.89 5.63,19.63 0.56,3.27 0.97,6.55 1.33,9.81 0.36,3.26 0.71,6.55 1.02,9.82 0.59,6.55 1.08,13.08 1.33,19.63 0.25,6.55 0.39,13.09 0.09,19.63l-18.8 0z"/>
  <path class="fil3 str1" d="M537.87 1223.92c0,59.94 -48.62,108.55 -108.57,108.55 -59.95,0 -108.57,-48.62 -108.57,-108.57 0,-17.12 4.06,-34.02 11.82,-49.28"/>
  <g>
   <path class="fil4" d="M332.56 1174.63c5.94,-11.58 13.9,-22.03 23.5,-30.81l-23.5 30.81zm0 0l0 0 0 0z"/>
  </g>
  <path class="fil0" d="M324.18 1170.35c1.38,-3.26 3.16,-6.34 5.3,-9.15 2.11,-2.81 4.5,-5.44 7.09,-7.83 1.32,-1.19 2.65,-2.35 4.04,-3.43 1.38,-1.12 2.86,-2.13 4.4,-3.01 3.34,-1.93 7.11,-3 10.97,-3.13 -0.4,3.66 -1.33,7.26 -2.74,10.67 -0.61,1.57 -1.3,2.94 -2.02,4.34l-2.04 4.18c-1.33,2.76 -2.65,5.47 -3.99,8.13 -1.29,2.68 -2.75,5.31 -4.32,7.84l-16.68 -8.6z"/>
  <g>
   <path class="fil4" d="M517.91 1161.2c12.98,18.28 19.96,40.15 19.96,62.57 0,0.03 0,0.05 0,0.08l-19.96 -62.65zm0 0l0 0 0 0z"/>
  </g>
  <path class="fil0" d="M517.91 1161.2c5.35,2.89 10,6.93 13.61,11.82 1.8,2.38 3.42,4.89 4.85,7.5 1.46,2.62 2.77,5.31 3.99,8.07 2.4,5.52 4.23,11.33 5.42,17.23 1.01,4.96 1.53,10.03 1.53,15.1 0,0.98 -0.02,1.99 -0.06,2.96l-18.8 0c-0.3,-5.09 -0.56,-10.15 -1.1,-15.24 -0.53,-5.09 -1.21,-10.15 -2.19,-15.26l-0.78 -3.82 -0.91 -3.84c-0.66,-2.55 -1.36,-5.11 -2.02,-7.72 -1.47,-5.52 -2.68,-11.17 -3.56,-16.81l0 0z"/>
  <g>
   <path class="fil4" d="M756.51 1223.92c0,-0.04 0,-0.08 0,-0.12 0,-30 -12.45,-58.65 -34.36,-79.13l34.36 79.26zm0 0l0 0 0 0z"/>
  </g>
  <path class="fil0" d="M747.11 1223.92c-0.25,-6.73 -0.93,-13.49 -1.97,-20.13 -1.1,-6.73 -2.75,-13.41 -4.89,-19.86 -0.53,-1.57 -1.16,-3.24 -1.74,-4.87 -0.58,-1.63 -1.32,-3.21 -1.96,-4.84 -0.64,-1.63 -1.47,-3.13 -2.16,-4.78l-2.29 -4.7c-3.13,-6.42 -6.53,-12.83 -9.96,-19.97 7.26,3.1 13.79,7.7 19.14,13.49 1.3,1.47 2.66,2.91 3.87,4.46 1.21,1.55 2.41,3.13 3.52,4.7 1.11,1.57 2.24,3.27 3.24,4.98 1,1.71 2.05,3.41 2.94,5.2 3.73,7.07 6.58,14.61 8.46,22.39 1.71,6.92 2.58,14.08 2.58,21.22 0,0.9 -0.02,1.82 -0.04,2.71l-18.75 0z"/>
  <path class="fil3 str1" d="M539.33 1223.92c0,0.42 -0.01,0.88 -0.01,1.3 0,59.95 48.62,108.57 108.57,108.57 59.95,0 108.57,-48.62 108.57,-108.57 0,-0.42 -0.01,-0.89 -0.01,-1.3"/>
  <g>
   <path class="fil4" d="M559.33 1161.2c-12.96,18.26 -19.94,40.15 -19.94,62.55 0,0.03 0,0.08 0,0.11l19.94 -62.66zm0 0l0 0 0 0z"/>
  </g>
  <path class="fil0" d="M559.33 1161.2c-0.88,5.65 -2.08,11.31 -3.55,16.85 -0.66,2.62 -1.36,5.17 -2.02,7.72l-0.89 3.84 -0.78 3.82c-0.99,5.11 -1.71,10.18 -2.21,15.26 -0.5,5.07 -0.78,10.15 -1.08,15.24l-18.86 -0.01c-0.04,-1.02 -0.06,-2.07 -0.06,-3.09 0,-5.02 0.52,-10.05 1.54,-14.97 1.19,-5.91 3.01,-11.71 5.42,-17.23 1.21,-2.76 2.52,-5.45 3.98,-8.07 1.44,-2.6 3.07,-5.13 4.86,-7.5 3.63,-4.9 8.31,-8.96 13.68,-11.86l0 -0z"/>
  <line class="fil3 str1" x1="352.05" y1="1159.21" x2="352.05" y2= "1035.73" />
  <line class="fil3 str1" x1="717.05" y1="1159.21" x2="717.05" y2= "1035.73" />
  <path class="fil6 str1" d="M488.42 1253.56l84.43 0 0 30.86c-27.79,-9.48 -55.94,-9.24 -84.43,0l0 -30.86z"/>
  <path class="fil6 str1" d="M750.95 1223.92c0,-0.04 0,-0.12 0,-0.16 0,-27.44 -10.45,-53.87 -29.19,-73.9 -6.61,-7.08 -69.34,9.7 -106.22,42.7 -36.2,32.41 -67.71,85.35 -63.2,92.03 20.18,29.94 53.94,47.9 90.04,47.9 59.95,0 108.57,-48.62 108.57,-108.57 0,0 0,0 0,0l0 -0z"/>
  <path class="fil6" d="M688.31 1176.19c-9.59,5.75 -19.03,11.25 -28.2,17.23 -9.03,5.74 -17.74,12.19 -25.91,19.09 -8.07,6.99 -15.84,14.6 -23.5,22.34 -7.66,7.74 -15.18,15.66 -23.1,23.61 4.82,-10.09 10.69,-19.66 17.52,-28.47 6.8,-8.94 14.57,-17.26 23.05,-24.64 8.63,-7.31 18.22,-13.5 28.43,-18.38 10.05,-4.93 20.74,-8.57 31.72,-10.77l-0.01 -0z"/>
  <path class="fil6 str1" d="M318.31 1223.92c0,-0.04 0,-0.12 0,-0.16 0,-27.44 10.45,-53.87 29.19,-73.9 6.61,-7.08 69.34,9.7 106.22,42.7 36.2,32.41 67.71,85.35 63.2,92.03 -20.18,29.94 -53.94,47.9 -90.04,47.9 -59.95,0 -108.57,-48.62 -108.57,-108.57 0,0 0,0 0,0l-0 -0z"/>
  <path class="fil11" d="M465.31 1318c-73.83,-0 -133.71,-59.88 -133.71,-133.71 0,-0 0,-0 0,-0 0,-4.54 0.25,-9.13 0.69,-13.64 -9.17,16.25 -13.98,34.62 -13.98,53.28 0,59.95 48.62,108.57 108.57,108.57 19.83,0 39.31,-5.45 56.27,-15.72 -5.9,0.8 -11.88,1.22 -17.84,1.22l-0 0z"/>
  <path class="fil3 str1" d="M318.31 1223.92c0,-0.04 0,-0.12 0,-0.16 0,-27.44 10.45,-53.87 29.19,-73.9 6.61,-7.08 69.34,9.7 106.22,42.7 36.2,32.41 67.71,85.35 63.2,92.03 -20.18,29.94 -53.94,47.9 -90.04,47.9 -59.95,0 -108.57,-48.62 -108.57,-108.57 0,0 0,0 0,0l-0 -0z"/>
  <path class="fil6" d="M380.95 1176.19c10.98,2.2 21.67,5.84 31.73,10.76 10.21,4.87 19.77,11.09 28.4,18.39 8.44,7.39 16.17,15.66 22.95,24.61 6.84,8.82 12.72,18.38 17.52,28.46 -7.93,-7.83 -15.41,-15.87 -23.1,-23.61 -7.69,-7.74 -15.41,-15.35 -23.5,-22.34 -8.15,-6.88 -16.85,-13.33 -25.88,-19.08 -9.14,-5.95 -18.54,-11.45 -28.11,-17.2z"/>
  <path class="fil6" d="M712.82 1035.73l-84.91 0 0 0.16c0,-0 0,0.03 0,0.03 0,7.04 -0.77,14.07 -2.26,20.94 -0.72,3.34 -1.64,6.68 -2.72,9.91 -3.47,9.71 -8.8,18.68 -15.67,26.37 -2.19,2.46 -4.54,4.79 -7.04,6.93 -39.43,28.51 -102.08,30.07 -140.16,-0.91 -4.1,-3.57 -7.85,-7.57 -11.14,-11.9 -6.85,-9.01 -11.72,-19.39 -14.25,-30.41 -0.73,-3.4 -1.31,-6.86 -1.68,-10.32 -0.37,-3.47 -0.58,-7 -0.58,-10.5 0,-0.05 0,-0.09 0,-0.14l0 -0.16 -84.91 -0c-11.48,0.01 -20.79,9.32 -20.79,20.8 0,0 0,0 0,0l0 445.92c0,0.02 0,0.04 0,0.06 0,11.48 9.3,20.79 20.79,20.8l374.27 0c11.48,-0.01 20.79,-9.32 20.79,-20.8 0,0 0,0 0,0l0 -435.65c0,-19.14 -9.23,-31.14 -29.73,-31.14z"/>
  <path class="fil6" d="M706.93 1035.73c99.53,0 114.97,87.72 115.76,208.6 -29.14,18.2 -76.61,2.05 -76.61,2.05l-39.14 -210.65z"/>
  <path class="fil11" d="M742.55 1150.32l-35.62 59.73 17.83 203.63 18.19 0 0 -165.49 27.07 4.53c-8.88,-113.05 -27.46,-102.4 -27.46,-102.4z"/>
  <path class="fil6" d="M356.25 1035.73c-96.77,0 -118.78,84.27 -120.38,199.97 29.76,31.11 90.85,7.17 90.85,7.17l29.53 -207.14z"/>
  <path class="fil11" d="M326.66 1150.32l0 92.62 -27.11 6.75c8.88,-109.84 27.11,-99.37 27.11,-99.37z"/>
  <path class="fil3 str6" d="M706.93 1035.73c127.59,-6.05 130.44,268.75 120.99,317.84 -1.68,8.7 -28.69,7.85 -76.97,5.94"/>
  <path class="fil3 str6" d="M342.44 1036.43c-106.45,0.16 -128.53,172.96 -106.56,197.92 21.97,24.95 90.75,8.59 90.75,8.59"/>
  <path class="fil11" d="M347.49 1523.32l182.67 0c-170.97,0 -158.06,-362.12 -203.46,-362.12l0 341.25c0,0.02 0,0.04 0,0.06 0,11.48 9.3,20.79 20.79,20.8l-0 0z"/>
  <path class="fil0" d="M317.31 1195.71c-0.3,-5.75 -0.17,-11.5 0.08,-17.23 0.25,-5.73 0.74,-11.51 1.35,-17.23 0.31,-2.88 0.63,-5.75 1.02,-8.63 0.39,-2.88 0.77,-5.75 1.33,-8.63 1.1,-5.96 3,-11.76 5.62,-17.23 2.62,5.46 4.52,11.26 5.61,17.23 0.58,2.88 0.99,5.75 1.35,8.63 0.36,2.88 0.71,5.75 1.02,8.63 0.59,5.75 1.07,11.5 1.33,17.23 0.27,5.73 0.39,11.5 0.09,17.23l-18.8 0z"/>
  <path class="fil3 str1" d="M742.55 1210.04l0 12.53c0.41,53.26 0.41,108.08 0,160.95 0,4.5 0,8.96 0,13.36l0 105.59c0,0.01 0,0.03 0,0.05 0,11.48 -9.3,20.79 -20.79,20.8l-374.27 0c-11.48,-0.01 -20.79,-9.32 -20.79,-20.8 0,0 0,0 0,0l-0 -91.16c0,-3.93 0,-7.94 0,-11.98 -0.39,-54.62 -0.39,-109.44 0,-164.94l0 -38.72"/>
  <path class="fil0" d="M733.15 1210.04c-0.3,-6.53 -0.16,-13.08 0.09,-19.63 0.25,-6.55 0.74,-13.08 1.33,-19.63 0.31,-3.27 0.64,-6.55 1.02,-9.82 0.38,-3.27 0.77,-6.53 1.35,-9.81 1.08,-6.73 2.96,-13.35 5.6,-19.63 2.64,6.29 4.54,12.89 5.63,19.62 0.56,3.27 0.97,6.55 1.33,9.81 0.36,3.26 0.71,6.55 1.02,9.82 0.59,6.55 1.08,13.08 1.33,19.63 0.25,6.55 0.39,13.09 0.09,19.63l-18.8 0z"/>
  <line class="fil3 str1" x1="347.49" y1="1035.89" x2="712.82" y2= "1035.73" />
  <path class="fil3 str1" d="M627.9 1035.89c0,-0 0,0.03 0,0.03 0,7.04 -0.77,14.07 -2.26,20.94 -0.72,3.34 -1.64,6.68 -2.72,9.91 -3.47,9.71 -8.8,18.68 -15.67,26.37 -2.19,2.46 -4.54,4.79 -7.04,6.93 -39.43,28.51 -102.08,30.07 -140.16,-0.91 -4.1,-3.57 -7.85,-7.57 -11.14,-11.9 -6.85,-9.01 -11.72,-19.39 -14.25,-30.41 -0.73,-3.4 -1.31,-6.86 -1.68,-10.32 -0.37,-3.47 -0.58,-7 -0.58,-10.5 0,-0.05 0,-0.09 0,-0.14"/>
  <path class="fil0" d="M539.95 1144.86c-6.76,1.35 -13.67,2.05 -20.57,2.05 -2.74,0 -5.5,-0.13 -8.23,-0.33 -9.72,-0.67 -19.32,-2.66 -28.51,-5.88 -9.25,-3.17 -17.97,-7.74 -25.85,-13.54l-2.91 -2.21c-0.96,-0.75 -1.88,-1.57 -2.8,-2.38 -1.86,-1.58 -3.61,-3.31 -5.22,-5.14 -3.21,-3.62 -6.04,-7.57 -8.42,-11.77 3.34,3.36 6.88,6.55 10.56,9.54 0.91,0.75 1.83,1.49 2.74,2.19 0.91,0.7 1.93,1.28 2.88,1.94 0.96,0.66 1.91,1.32 2.9,1.93l2.99 1.82c7.98,4.71 16.47,8.65 25.22,11.68 8.77,3.07 17.85,5.43 27.02,6.97 9.33,1.51 18.77,2.57 28.2,3.11l0.01 0.01z"/>
  <path class="fil12 str7" d="M639.39 1284.96c0,-13.88 -17.39,-27.04 -44.03,-35.2 6.16,-27.16 3.41,-48.76 -8.63,-55.69 -2.45,-1.63 -5.33,-2.5 -8.28,-2.5 -0.42,0 -0.83,0.02 -1.25,0.05 -12.53,0.2 -27.11,8.38 -42.65,22.9 -15.58,-14.44 -32.82,-22.98 -42.67,-22.73 -4.95,0.14 -6.84,0.81 -9.65,2.44 -12.01,6.91 -14.69,28.48 -8.51,55.56 -26.63,8.19 -43.86,21.32 -43.86,35.15 0,13.83 17.39,27.04 44.03,35.2 -6.16,27.16 -3.41,48.76 8.63,55.69 2.8,1.57 5.96,2.4 9.17,2.4 0.14,0 0.3,-0 0.44,-0 11.75,0 27.11,-8.38 42.67,-22.9 15.54,14.44 30.92,22.73 42.67,22.73 0.13,0 0.27,0 0.41,0 3.23,0 6.42,-0.83 9.24,-2.4 12,-6.92 14.69,-28.49 8.49,-55.56 26.49,-8.16 43.78,-21.32 43.78,-35.15zm-62.22 -83.79l0 0c0.09,-0 0.19,-0 0.29,-0 1.59,0 3.16,0.38 4.57,1.12 5.81,3.34 8.33,16.02 6.38,32.33 -0.47,4.01 -1.24,8.24 -2.18,12.53 -8.91,-2.14 -17.99,-3.77 -27.12,-4.71 -5.43,-7.46 -11.42,-14.65 -17.77,-21.33 13.91,-12.84 26.95,-19.92 35.84,-19.94zm-80.39 105.65c2,3.41 4.06,6.75 6.16,9.99 -6.06,-0.89 -11.92,-2.01 -17.51,-3.37 1.57,-5.51 3.54,-11.2 5.76,-16.87 1.75,3.42 3.59,6.83 5.59,10.24zm-11.48 -50.36c5.59,-1.32 11.48,-2.47 17.59,-3.37 -2.08,3.29 -4.18,6.66 -6.14,10.12 -1.96,3.46 -3.81,6.83 -5.56,10.24 -2.25,-5.55 -4.22,-11.24 -5.89,-16.99l0 -0.01zm10.89 28.62c2.65,-5.72 5.64,-11.45 8.85,-17.04 3.21,-5.59 6.74,-11.23 10.29,-16.31 6.36,-0.56 12.81,-0.86 19.3,-0.86 6.49,0 12.89,0.3 19.22,0.81 3.54,5.08 7,10.51 10.34,16.23 3.34,5.72 6.27,11.28 8.88,17 -2.69,5.73 -5.64,11.45 -8.85,17.04 -3.21,5.59 -6.74,11.23 -10.29,16.32 -6.36,0.55 -12.81,0.85 -19.3,0.85 -6.49,0 -12.89,-0.3 -19.22,-0.81 -3.54,-5.08 -7,-10.49 -10.34,-16.23 -3.34,-5.73 -6.19,-11.28 -8.88,-17zm76.28 21.62c1.96,-3.41 3.79,-6.88 5.54,-10.29 2.23,5.55 4.23,11.26 5.9,17.01 -5.59,1.36 -11.48,2.52 -17.59,3.41 2.09,-3.31 4.17,-6.67 6.15,-10.13zm0 -43.61c-1.96,-3.41 -4.06,-6.75 -6.16,-9.99 6.08,0.89 11.92,2.01 17.51,3.37 -1.57,5.51 -3.54,11.2 -5.76,16.87 -1.8,-3.41 -3.63,-6.83 -5.64,-10.24l0.05 0zm-26.1 -21.49c-3.85,-0.16 -7.83,-0.3 -11.75,-0.3 -3.92,0 -7.99,0.09 -11.87,0.3 3.67,-4.74 7.61,-9.33 11.75,-13.66 4.18,4.33 8.14,8.9 11.86,13.65l0.01 0.01zm-59.41 -39.16c1.38,-0.74 2.92,-1.12 4.49,-1.12 0.14,0 0.29,0 0.43,0.01l0 0c8.83,0 21.93,7.05 35.87,19.91 -6.33,6.65 -12.27,13.83 -17.64,21.3 -9.13,0.92 -18.24,2.53 -27.15,4.7 -0.99,-4.26 -1.71,-8.41 -2.22,-12.37 -2.01,-16.32 0.46,-29.01 6.22,-32.38l0 -0.05zm-10.76 108.44c-4.23,-1.33 -8.24,-2.79 -11.95,-4.35 -15.13,-6.45 -24.91,-14.91 -24.91,-21.62 0,-6.7 9.77,-15.21 24.91,-21.62 3.67,-1.57 7.68,-2.99 11.83,-4.31 2.61,8.82 5.86,17.61 9.61,26.01 -3.75,8.4 -6.94,17.12 -9.49,25.94l0.01 -0.06zm15.85 57.82c-0.05,-0 -0.11,0 -0.16,0 -1.62,0 -3.23,-0.39 -4.66,-1.14 -5.81,-3.34 -8.33,-16.02 -6.38,-32.33 0.47,-4.03 1.24,-8.24 2.18,-12.53 8.89,2.16 18.03,3.74 27.12,4.69 5.44,7.5 11.39,14.68 17.77,21.37 -13.93,12.91 -26.99,19.99 -35.87,19.99l0 -0.05zm42.65 -26.77c-4.16,-4.35 -8.17,-8.95 -11.87,-13.68 3.85,0.17 7.83,0.3 11.75,0.3 3.92,0 7.99,-0.08 11.87,-0.3 -3.64,4.76 -7.59,9.4 -11.74,13.73l-0 -0.05zm47.59 25.45c-1.38,0.74 -2.92,1.12 -4.49,1.12 -0.14,0 -0.29,-0 -0.43,-0.01 -8.83,0 -21.93,-7.05 -35.87,-19.91 6.33,-6.65 12.27,-13.83 17.64,-21.3 9.13,-0.92 18.24,-2.53 27.15,-4.7 0.96,4.1 1.72,8.26 2.23,12.43 2.01,16.37 -0.47,29.04 -6.23,32.42l0 -0.05zm22.68 -60.85c-3.68,1.57 -7.69,2.98 -11.84,4.31 -2.59,-8.85 -5.86,-17.62 -9.6,-26.02 3.71,-8.39 6.9,-17.07 9.41,-25.88 4.23,1.33 8.24,2.77 12,4.35 15.13,6.45 24.91,14.91 24.91,21.62 0,6.7 -9.75,15.26 -24.87,21.67l0 -0.05z"/>
  <circle class="fil12 str8" cx="534.58" cy="1284.96" r="19.52"/>
  <path class="fil13" d="M639.39 1284.96c0,-13.88 -17.39,-27.04 -44.03,-35.2 6.16,-27.16 3.41,-48.76 -8.63,-55.69 -2.45,-1.63 -5.33,-2.5 -8.28,-2.5 -0.42,0 -0.83,0.02 -1.25,0.05 -12.53,0.2 -27.11,8.38 -42.65,22.9 -15.58,-14.44 -32.82,-22.98 -42.67,-22.73 -4.95,0.14 -6.84,0.81 -9.65,2.44 -12.01,6.91 -14.69,28.48 -8.51,55.56 -26.63,8.19 -43.86,21.32 -43.86,35.15 0,13.83 17.39,27.04 44.03,35.2 -6.16,27.16 -3.41,48.76 8.63,55.69 2.8,1.57 5.96,2.4 9.17,2.4 0.14,0 0.3,-0 0.44,-0 11.75,0 27.11,-8.38 42.67,-22.9 15.54,14.44 30.92,22.73 42.67,22.73 0.13,0 0.27,0 0.41,0 3.23,0 6.42,-0.83 9.24,-2.4 12,-6.92 14.69,-28.49 8.49,-55.56 26.49,-8.16 43.78,-21.32 43.78,-35.15zm-62.22 -83.79l0 0c0.09,-0 0.19,-0 0.29,-0 1.59,0 3.16,0.38 4.57,1.12 5.81,3.34 8.33,16.02 6.38,32.33 -0.47,4.01 -1.24,8.24 -2.18,12.53 -8.91,-2.14 -17.99,-3.77 -27.12,-4.71 -5.43,-7.46 -11.42,-14.65 -17.77,-21.33 13.91,-12.84 26.95,-19.92 35.84,-19.94zm-80.39 105.65c2,3.41 4.06,6.75 6.16,9.99 -6.06,-0.89 -11.92,-2.01 -17.51,-3.37 1.57,-5.51 3.54,-11.2 5.76,-16.87 1.75,3.42 3.59,6.83 5.59,10.24zm-11.48 -50.36c5.59,-1.32 11.48,-2.47 17.59,-3.37 -2.08,3.29 -4.18,6.66 -6.14,10.12 -1.96,3.46 -3.81,6.83 -5.56,10.24 -2.25,-5.55 -4.22,-11.24 -5.89,-16.99l0 -0.01zm10.89 28.62c2.65,-5.72 5.64,-11.45 8.85,-17.04 3.21,-5.59 6.74,-11.23 10.29,-16.31 6.36,-0.56 12.81,-0.86 19.3,-0.86 6.49,0 12.89,0.3 19.22,0.81 3.54,5.08 7,10.51 10.34,16.23 3.34,5.72 6.27,11.28 8.88,17 -2.69,5.73 -5.64,11.45 -8.85,17.04 -3.21,5.59 -6.74,11.23 -10.29,16.32 -6.36,0.55 -12.81,0.85 -19.3,0.85 -6.49,0 -12.89,-0.3 -19.22,-0.81 -3.54,-5.08 -7,-10.49 -10.34,-16.23 -3.34,-5.73 -6.19,-11.28 -8.88,-17zm76.28 21.62c1.96,-3.41 3.79,-6.88 5.54,-10.29 2.23,5.55 4.23,11.26 5.9,17.01 -5.59,1.36 -11.48,2.52 -17.59,3.41 2.09,-3.31 4.17,-6.67 6.15,-10.13zm0 -43.61c-1.96,-3.41 -4.06,-6.75 -6.16,-9.99 6.08,0.89 11.92,2.01 17.51,3.37 -1.57,5.51 -3.54,11.2 -5.76,16.87 -1.8,-3.41 -3.63,-6.83 -5.64,-10.24l0.05 0zm-26.1 -21.49c-3.85,-0.16 -7.83,-0.3 -11.75,-0.3 -3.92,0 -7.99,0.09 -11.87,0.3 3.67,-4.74 7.61,-9.33 11.75,-13.66 4.18,4.33 8.14,8.9 11.86,13.65l0.01 0.01zm-59.41 -39.16c1.38,-0.74 2.92,-1.12 4.49,-1.12 0.14,0 0.29,0 0.43,0.01l0 0c8.83,0 21.93,7.05 35.87,19.91 -6.33,6.65 -12.27,13.83 -17.64,21.3 -9.13,0.92 -18.24,2.53 -27.15,4.7 -0.99,-4.26 -1.71,-8.41 -2.22,-12.37 -2.01,-16.32 0.46,-29.01 6.22,-32.38l0 -0.05zm-10.76 108.44c-4.23,-1.33 -8.24,-2.79 -11.95,-4.35 -15.13,-6.45 -24.91,-14.91 -24.91,-21.62 0,-6.7 9.77,-15.21 24.91,-21.62 3.67,-1.57 7.68,-2.99 11.83,-4.31 2.61,8.82 5.86,17.61 9.61,26.01 -3.75,8.4 -6.94,17.12 -9.49,25.94l0.01 -0.06zm15.85 57.82c-0.05,-0 -0.11,0 -0.16,0 -1.62,0 -3.23,-0.39 -4.66,-1.14 -5.81,-3.34 -8.33,-16.02 -6.38,-32.33 0.47,-4.03 1.24,-8.24 2.18,-12.53 8.89,2.16 18.03,3.74 27.12,4.69 5.44,7.5 11.39,14.68 17.77,21.37 -13.93,12.91 -26.99,19.99 -35.87,19.99l0 -0.05zm42.65 -26.77c-4.16,-4.35 -8.17,-8.95 -11.87,-13.68 3.85,0.17 7.83,0.3 11.75,0.3 3.92,0 7.99,-0.08 11.87,-0.3 -3.64,4.76 -7.59,9.4 -11.74,13.73l-0 -0.05zm47.59 25.45c-1.38,0.74 -2.92,1.12 -4.49,1.12 -0.14,0 -0.29,-0 -0.43,-0.01 -8.83,0 -21.93,-7.05 -35.87,-19.91 6.33,-6.65 12.27,-13.83 17.64,-21.3 9.13,-0.92 18.24,-2.53 27.15,-4.7 0.96,4.1 1.72,8.26 2.23,12.43 2.01,16.37 -0.47,29.04 -6.23,32.42l0 -0.05zm22.68 -60.85c-3.68,1.57 -7.69,2.98 -11.84,4.31 -2.59,-8.85 -5.86,-17.62 -9.6,-26.02 3.71,-8.39 6.9,-17.07 9.41,-25.88 4.23,1.33 8.24,2.77 12,4.35 15.13,6.45 24.91,14.91 24.91,21.62 0,6.7 -9.75,15.26 -24.87,21.67l0 -0.05z"/>
  <circle class="fil13" cx="534.58" cy="1284.96" r="19.52"/>
  <path class="fil14" d="M420.09 1353.57c46.48,-0 87.84,-29.63 102.79,-73.63 -19.94,34.11 -56.5,55.09 -96.01,55.09 -35.08,0 -68.15,-16.58 -89.12,-44.68l-0.08 23.07c19.96,24.48 48.39,40.15 82.42,40.15z"/>
  <path class="fil14" d="M649.16 1353.57c-46.48,-0 -87.84,-29.63 -102.79,-73.63 19.94,34.11 56.5,55.09 96.01,55.09 35.08,0 68.15,-16.58 89.12,-44.68l0 23.06c-19.88,24.5 -48.31,40.16 -82.35,40.16z"/>
  <g>
   <path class="fil6" d="M388.95 1325.66c-42.46,-15.84 -70.62,-56.41 -70.62,-101.74 0,-27.39 10.37,-53.79 29,-73.86l41.63 175.61zm0 0l0 0 0 0z"/>
  </g>
  <path class="fil0" d="M388.95 1325.66c-18.5,-3.02 -35.63,-11.8 -48.88,-25.07l-2.54 -2.51c-0.83,-0.85 -1.57,-1.77 -2.4,-2.65 -0.83,-0.88 -1.57,-1.8 -2.32,-2.71 -0.8,-0.89 -1.55,-1.83 -2.24,-2.8 -1.41,-1.93 -2.84,-3.85 -4.2,-5.83l-3.71 -6.16c-4.68,-8.41 -8.23,-17.46 -10.51,-26.83 -1.81,-7.99 -2.73,-16.2 -2.73,-24.4 0,-1.42 0.03,-2.86 0.08,-4.26 0.42,-9.56 2.23,-19.04 5.33,-28.08 0.41,-1.11 0.77,-2.24 1.19,-3.35l1.38 -3.29c0.86,-2.19 1.97,-4.29 2.99,-6.41 2.16,-4.15 4.67,-8.18 7.42,-11.96 1.33,-1.9 2.85,-3.68 4.31,-5.47 1.46,-1.79 3.04,-3.49 4.7,-5.06 3.23,-3.22 6.77,-6.17 10.54,-8.75 -9.07,15.66 -15.51,31.63 -18.26,48.04 -1.25,7.05 -1.89,14.23 -1.89,21.4 0,1.02 0.03,2.05 0.04,3.05 0.29,8.11 1.34,16.24 3.12,24.15 1.92,7.85 4.64,15.58 8.03,22.93 3.47,7.44 7.72,14.53 12.65,21.11 4.99,6.79 10.69,13.09 16.94,18.72 6.54,5.87 13.6,11.32 20.94,16.18l0.01 -0z"/>
  <g>
   <path class="fil6" d="M680.38 1325.66c42.43,-15.86 70.57,-56.42 70.57,-101.72 0,-27.4 -10.37,-53.82 -29.01,-73.89l-41.56 175.61zm0 0l0 0 0 0z"/>
  </g>
  <path class="fil0" d="M680.38 1325.66c7.33,-4.83 14.35,-10.26 20.9,-16.11 6.26,-5.64 11.96,-11.94 16.94,-18.72 4.93,-6.58 9.19,-13.67 12.66,-21.1 3.38,-7.36 6.1,-15.09 8.02,-22.95 1.79,-7.9 2.84,-16.02 3.13,-24.13 0.04,-1.11 0.05,-2.24 0.05,-3.36 0,-7.09 -0.63,-14.2 -1.85,-21.18 -2.76,-16.42 -9.19,-32.33 -18.26,-48.04 3.77,2.57 7.31,5.52 10.55,8.75 1.69,1.57 3.13,3.35 4.7,5.06 1.57,1.71 2.98,3.57 4.31,5.47 2.75,3.77 5.26,7.81 7.42,11.96 1.02,2.11 2.13,4.21 2.99,6.41l1.38 3.29c0.42,1.11 0.78,2.24 1.19,3.35 3.1,9.04 4.91,18.52 5.33,28.08 0.05,1.41 0.08,2.85 0.08,4.26 0,8.2 -0.92,16.41 -2.72,24.41 -2.29,9.36 -5.84,18.41 -10.52,26.83l-3.71 6.15c-1.36,1.97 -2.79,3.9 -4.2,5.83 -0.7,0.96 -1.45,1.91 -2.24,2.8 -0.77,0.91 -1.57,1.82 -2.32,2.71 -0.75,0.89 -1.57,1.8 -2.4,2.65l-2.54 2.51c-13.25,13.28 -30.38,22.06 -48.89,25.09l-0 0.01z"/>
  <g id="_2325076020464">
   <g>
    <g>
     <path class="fil15 str9" d="M639.77 844.9c-17.3,-6.5 -34.34,8.62 -30.92,40.2 3.94,36.39 14.46,132.74 23.15,176.36 7.28,36.55 20.75,79.05 133.25,66.88 120.54,-13.04 123.03,-102.74 147.67,-137.93 15.64,-22.33 24.99,-42.34 23.23,-56.4 -0.78,-8.51 -10.47,-15.99 -20.08,-19.56 -17.9,-5.74 -38.92,17.84 -40.95,27.2 -2.71,12.49 -4.12,37.03 -29.1,31.6 -3.12,-0.68 -5.87,-3.12 -8.28,-6.92 0.18,0.01 0.36,0.02 0.54,0.03 -8.35,-12.08 -12.89,-40.18 -15.7,-69.34 -2.53,-26.65 -2.78,-53.33 -5.67,-80.01 -3.5,-32.39 -39.26,-44.83 -51.95,-10.23 -0.62,-0.26 -1.32,-0.37 -2.04,-0.29 -0.13,0.01 -0.27,0.04 -0.39,0.06 -0.89,-4.17 -1.95,-7.92 -3.16,-11.28 -9.06,-26.63 -26.89,-24.3 -26.67,-24.01 0,0.01 0.01,0.01 0.01,0.02 -14.24,0.67 -27.55,16.2 -26.79,35.43 -9.06,-17.42 -24.77,-16.79 -23.73,-15.48 -18.71,-0.76 -38.8,19.22 -25.78,63.37 -0.02,0 -0.04,0 -0.06,0.01 -0.91,0.1 -1.73,0.49 -2.35,1.06 -0.01,-0.01 -0.01,-0.02 -0.02,-0.02 -3.32,-5.56 -7.93,-9.82 -14.23,-10.75z"/>
     <path class="fil15 str9" d="M936.15 933.96c-0.07,-0.56 -0.16,-1.11 -0.27,-1.65 -1.64,-7.05 -9.17,-13.22 -17.21,-16.8l-0.46 -0.13m-80.45 50.96c-7.89,-12.44 -12.26,-39.53 -15,-67.72l-0.08 -0.87 -0.07 -0.72 -0.04 -0.45m-5.56 -78.91c-1.82,-16.06 -12.34,-28.1 -23.86,-30.82m-28.15 19.95c-0.54,1.47 -1.04,3.02 -1.51,4.67 -0.29,-1.7 -0.6,-3.33 -0.93,-4.9m-3.14 -11.23c-6.37,-17.76 -16.75,-24.51 -26.67,-24.04m-26.79 35.43c0.09,2.22 0.36,4.5 0.85,6.8 -2.98,-14.18 -13.55,-21.85 -24.59,-22.29m-25.77 63.37c0.83,2.82 1.8,5.75 2.91,8.77 -1.68,-2.89 -3.47,-5.46 -5.33,-7.7m-0.02 -0.02c-4.46,-5.38 -9.36,-8.92 -14.23,-10.75"/>
     <path class="fil16" d="M765.25 1128.33c120.54,-13.04 123.03,-102.74 147.68,-137.93 24.65,-35.19 33.66,-64.62 8.25,-74.06 -25.41,-9.45 -43.33,12.82 -46.04,25.31 -2.71,12.49 -4.12,37.03 -29.1,31.6 -24.98,-5.43 -25.53,-123.25 -29.01,-155.4 -3.48,-32.14 -41.81,-48.32 -53.54,-6.4 -11.41,-67.87 -65.05,-37.68 -56.69,2.07 -8.36,-39.75 -76.24,-28.34 -47.45,49.85 -19.98,-34.42 -55.28,-22.47 -50.49,21.72 3.94,36.39 14.46,132.74 23.15,176.36 7.28,36.56 20.75,79.05 133.25,66.88z"/>
     <path class="fil17" d="M670.17 952.74c-13.83,-40.57 -19.27,-185.33 0.93,1.45 4.85,-1.53 9.67,-3.28 14.76,-5 9.04,-3.06 22.48,-6.87 32.33,-8.31 -2.76,-19.45 -13.11,-131.82 -25.93,-147.11 12.64,7.07 12.23,11.46 16.15,23.81 2.2,-0.14 16.54,111.7 18.26,122.29 14.38,-1.35 31.78,-2.91 44.51,-2.13 -3.19,-23 -8.4,-141.91 -21.34,-158.99 13.99,18.21 13.58,27.65 14.04,31.93l14.28 127.97c-15.65,-3.46 -65.32,1.16 -82.47,6.95 -7.59,2.6 -19.71,7.94 -25.51,7.14zm168.12 13.62c-1.64,-0.08 -3.37,-0.27 -5.28,-0.68 -24.98,-5.43 -25.53,-123.25 -29.01,-155.4 -1.11,-10.23 -5.76,-18.84 -11.94,-24.47 11.94,2.25 23.07,14.58 24.87,31.21 3.08,28.46 3.88,124.05 21.36,149.35zm-86.06 154.4c120.54,-13.04 123.03,-102.74 147.68,-137.93 20.97,-29.94 30.53,-55.66 17.29,-68.5 1.27,0.32 2.56,0.68 3.87,1.17 25.41,9.45 16.4,38.87 -8.25,74.06 -24.65,35.19 -27.14,124.89 -147.67,137.93 -42.73,4.62 -82.91,-0.87 -103.06,-13.24 19.27,8.46 55.75,10.23 90.13,6.51z"/>
     <path class="fil18" d="M809.45 1117.78l-89.44 22.45 25.11 226.7c30.63,-3.19 83.12,-7.28 86.24,-10.23 3.12,-2.96 -13.72,-163.4 -21.91,-238.92z"/>
     <polygon class="fil19" points="805.73,1130.21 735.6,1139.14 754.37,1351.97 823.85,1346.8 "/>
    </g>
    <rect class="fil19" transform="matrix(-0.892495 -0.457679 -0.457679 0.892495 732.632 988.95)" width="36.93" height="30.56"/>
    <rect class="fil19" transform="matrix(-1.30243 0.265696 0.445299 1.07798 679.273 992.513)" width="36.93" height="30.56"/>
   </g>
   <g>
    <g>
     <path class="fil15 str9" d="M431 683.36c17.3,-6.5 34.34,8.62 30.92,40.2 -3.94,36.39 -14.46,132.74 -23.15,176.36 -7.28,36.55 -20.75,79.05 -133.25,66.88 -120.54,-13.04 -123.03,-102.74 -147.67,-137.93 -15.64,-22.33 -24.99,-42.34 -23.23,-56.4 0.78,-8.51 10.47,-15.99 20.08,-19.56 17.9,-5.74 38.92,17.84 40.95,27.2 2.71,12.49 4.12,37.03 29.1,31.6 3.12,-0.68 5.87,-3.12 8.28,-6.92 -0.18,0.01 -0.36,0.02 -0.54,0.03 8.35,-12.08 12.89,-40.18 15.7,-69.34 2.53,-26.65 2.78,-53.33 5.67,-80.01 3.5,-32.39 39.26,-44.83 51.95,-10.23 0.62,-0.26 1.32,-0.37 2.04,-0.29 0.13,0.01 0.27,0.04 0.39,0.06 0.89,-4.17 1.95,-7.92 3.16,-11.28 9.06,-26.63 26.89,-24.3 26.67,-24.01 -0,0.01 -0.01,0.01 -0.01,0.02 14.24,0.67 27.55,16.2 26.79,35.43 9.06,-17.42 24.77,-16.79 23.73,-15.48 18.71,-0.76 38.8,19.22 25.78,63.37 0.02,0 0.04,0 0.06,0.01 0.91,0.1 1.73,0.49 2.35,1.06 0.01,-0.01 0.01,-0.02 0.02,-0.02 3.32,-5.56 7.93,-9.82 14.23,-10.75z"/>
     <path class="fil15 str9" d="M134.62 772.42c0.07,-0.56 0.16,-1.11 0.27,-1.65 1.64,-7.05 9.17,-13.22 17.21,-16.8l0.46 -0.13m80.45 50.96c7.89,-12.44 12.26,-39.53 15,-67.72l0.08 -0.87 0.07 -0.72 0.04 -0.45m5.56 -78.91c1.82,-16.06 12.34,-28.1 23.86,-30.82m28.15 19.95c0.54,1.47 1.04,3.02 1.51,4.67 0.29,-1.7 0.6,-3.33 0.93,-4.9m3.14 -11.23c6.37,-17.76 16.75,-24.51 26.67,-24.04m26.79 35.43c-0.09,2.22 -0.36,4.5 -0.85,6.8 2.98,-14.18 13.55,-21.85 24.59,-22.29m25.77 63.37c-0.83,2.82 -1.8,5.75 -2.91,8.77 1.68,-2.89 3.47,-5.46 5.33,-7.7m0.02 -0.02c4.46,-5.38 9.36,-8.92 14.23,-10.75"/>
     <path class="fil16" d="M305.52 966.79c-120.54,-13.04 -123.03,-102.74 -147.68,-137.93 -24.65,-35.19 -33.66,-64.62 -8.25,-74.06 25.41,-9.45 43.33,12.82 46.04,25.31 2.71,12.49 4.12,37.03 29.1,31.6 24.98,-5.43 25.53,-123.25 29.01,-155.4 3.48,-32.14 41.81,-48.32 53.54,-6.4 11.41,-67.87 65.05,-37.68 56.69,2.07 8.36,-39.75 76.24,-28.34 47.45,49.85 19.98,-34.42 55.28,-22.47 50.49,21.72 -3.94,36.39 -14.46,132.74 -23.15,176.36 -7.28,36.56 -20.75,79.05 -133.25,66.88z"/>
     <path class="fil17" d="M400.59 791.2c13.83,-40.57 19.27,-185.33 -0.93,1.45 -4.85,-1.53 -9.67,-3.28 -14.76,-5 -9.04,-3.06 -22.48,-6.87 -32.33,-8.31 2.76,-19.45 13.11,-131.82 25.93,-147.11 -12.64,7.07 -12.23,11.46 -16.15,23.81 -2.2,-0.14 -16.54,111.7 -18.26,122.29 -14.38,-1.35 -31.78,-2.91 -44.51,-2.13 3.19,-23 8.4,-141.91 21.34,-158.99 -13.99,18.21 -13.58,27.65 -14.04,31.93l-14.28 127.97c15.65,-3.46 65.32,1.16 82.47,6.95 7.59,2.6 19.71,7.94 25.51,7.14zm-168.12 13.62c1.64,-0.08 3.37,-0.27 5.28,-0.68 24.98,-5.43 25.53,-123.25 29.01,-155.4 1.11,-10.23 5.76,-18.84 11.94,-24.47 -11.94,2.25 -23.07,14.58 -24.87,31.21 -3.08,28.46 -3.88,124.05 -21.36,149.35zm86.06 154.4c-120.54,-13.04 -123.03,-102.74 -147.68,-137.93 -20.97,-29.94 -30.53,-55.66 -17.29,-68.5 -1.27,0.32 -2.56,0.68 -3.87,1.17 -25.41,9.45 -16.4,38.87 8.25,74.06 24.65,35.19 27.14,124.89 147.67,137.93 42.73,4.62 82.91,-0.87 103.06,-13.24 -19.27,8.46 -55.75,10.23 -90.13,6.51z"/>
     <polygon class="fil18" points="252.51,967.57 350.75,978.69 323.43,1242.41 225.19,1231.29 "/>
     <polygon class="fil19" points="265.03,968.67 335.16,977.59 310.91,1241.32 240.77,1232.39 "/>
    </g>
    <rect class="fil19" transform="matrix(0.892495 -0.457679 0.457679 0.892495 338.129 827.408)" width="36.93" height="30.56"/>
    <rect class="fil19" transform="matrix(1.30243 0.265696 -0.445299 1.07798 391.488 830.971)" width="36.93" height="30.56"/>
   </g>
   <path class="fil20" d="M825.67 1346.69l-10.28 -111.44c-48.1,-8.6 -70.27,7.41 -70.27,7.41l8.98 111.53c0.62,7.64 72.3,0.47 71.56,-7.49z"/>
   <path class="fil20" d="M240.18 1232.99l9.66 -99.13c48.54,-11.15 69.48,15.97 69.48,15.97l-7.58 90.65c-0.64,7.64 -72.34,0.47 -71.56,-7.49z"/>
   <path class="fil21" d="M794.41 1232.71c7.92,1.02 21.58,1.91 21.65,2.74l9.61 111.25c0.49,5.68 -21.89,9.18 -32.31,9.28 -2.53,0.02 -0.04,-62.62 1.05,-123.26z"/>
   <path class="fil22" d="M799.02 1233.13c-0.88,-0.68 0.7,-58.99 1.08,-102.2l5.63 -0.72 9.66 105.04c-7.59,-1.45 -15.87,-1.73 -16.37,-2.12z"/>
   <path class="fil22" d="M271.38 1131.18c0.88,-0.69 -0.33,-118.58 -0.71,-161.79l-5.63 -0.72 -15.22 165.18c7.59,-1.45 21.06,-2.28 21.56,-2.67z"/>
   <path class="fil21" d="M271.43 1131.17c-7.92,1.02 -21.57,1.91 -21.65,2.74l-9.61 98.83c-0.55,5.68 20.76,9.3 31.18,9.4 2.53,0.02 1.17,-50.33 0.08,-110.97z"/>
  </g>
 </g>
</svg>
