<?xml version="1.0" encoding="UTF-8"?>
<!DOCTYPE svg PUBLIC "-//W3C//DTD SVG 1.1//EN" "http://www.w3.org/Graphics/SVG/1.1/DTD/svg11.dtd">
<!-- Creator: CorelDRAW -->
<svg xmlns="http://www.w3.org/2000/svg" xml:space="preserve" width="176.827mm" height="257.787mm" version="1.1" style="shape-rendering:geometricPrecision; text-rendering:geometricPrecision; image-rendering:optimizeQuality; fill-rule:evenodd; clip-rule:evenodd"
viewBox="0 0 51651.51 75300.11"
 xmlns:xlink="http://www.w3.org/1999/xlink"
 xmlns:xodm="http://www.corel.com/coreldraw/odm/2003">
 <defs>
  <style type="text/css">
   <![CDATA[
    .str1 {stroke:#592D3D;stroke-width:927.42;stroke-miterlimit:22.9256}
    .str4 {stroke:white;stroke-width:1854.85;stroke-miterlimit:22.9256}
    .str3 {stroke:white;stroke-width:1236.55;stroke-miterlimit:22.9256}
    .str7 {stroke:#592D3D;stroke-width:1163.35;stroke-miterlimit:22.9256}
    .str8 {stroke:#592D3D;stroke-width:692.49;stroke-miterlimit:22.9256}
    .str9 {stroke:#C46565;stroke-width:692.49;stroke-miterlimit:22.9256}
    .str5 {stroke:#592D3D;stroke-width:618.29;stroke-miterlimit:22.9256}
    .str0 {stroke:#592D3D;stroke-width:1038.71;stroke-miterlimit:22.9256}
    .str6 {stroke:#592D3D;stroke-width:927.42;stroke-linecap:round;stroke-miterlimit:22.9256}
    .str2 {stroke:#592D3D;stroke-width:927.42;stroke-linecap:square;stroke-miterlimit:22.9256}
    .fil12 {fill:none}
    .fil3 {fill:none;fill-rule:nonzero}
    .fil11 {fill:#592D3D}
    .fil8 {fill:black;fill-rule:nonzero}
    .fil0 {fill:#592D3D;fill-rule:nonzero}
    .fil9 {fill:#61DAFB;fill-rule:nonzero}
    .fil2 {fill:#67B7D6;fill-rule:nonzero}
    .fil1 {fill:#85C5E5;fill-rule:nonzero}
    .fil14 {fill:#C46565;fill-rule:nonzero}
    .fil13 {fill:#D67070;fill-rule:nonzero}
    .fil7 {fill:#E2E2E2;fill-rule:nonzero}
    .fil5 {fill:#F3AB98;fill-rule:nonzero}
    .fil4 {fill:#FDD2B2;fill-rule:nonzero}
    .fil6 {fill:white;fill-rule:nonzero}
    .fil10 {fill:black;fill-rule:nonzero;fill-opacity:0.101961}
   ]]>
  </style>
 </defs>
 <g id="Capa_x0020_1">
  <metadata id="CorelCorpID_0Corel-Layer"/>
  <g id="_2762860005488">
   <g>
    <path class="fil0 str0" d="M1875.5 34196.19c15876.74,6747.31 32125.68,6843.39 48121.87,0 1517.38,-649.2 1508.73,-12107.06 0,-11582.53 -15621.39,5438.52 -32142.13,5496.53 -48121.87,0 -1900.82,-656.99 -1715.6,10849.35 0,11582.53z"/>
   </g>
   <path class="fil1" d="M26498.7 8334.04c-12840.17,0 -23249.71,10408.78 -23249.71,23249.71l0 12630.71c732.68,813.04 1960.73,1512.47 3555.11,2101.38l1029.45 -3073.61 1117.55 3745.24c11806.1,3140.88 36069.78,1953.78 40797.33,-2773.01l-0.03 -12630.71c0,-12840.96 -10409.54,-23249.71 -23249.71,-23249.71z"/>
   <path class="fil2" d="M6494.21 46198.38c102.03,39.4 204.79,77.29 309.13,117.48l1030.21 -3073.64 1117.55 3745.24c3494.85,927.42 8080.17,1480.02 12928.27,1671.67l2108.33 -2026.43 -18039.14 -13574.37c0,0 -474.52,7840.59 545.65,13140.04z"/>
   <path class="fil2" d="M35424.39 34862.94l1956.09 13197.24c2689.53,-335.42 5148.73,-793.73 7196.04,-1370.28l-0.03 0c0,0 2557.38,-2851.06 2281.46,-13631.56 -275.92,-10780.51 -11433.56,1804.6 -11433.56,1804.6z"/>
   <path class="fil3 str1" d="M26498.7 8334.04c-12840.17,0 -23249.71,10408.78 -23249.71,23249.71l0 12630.71c732.68,813.04 1960.73,1512.47 3555.11,2101.38l1029.45 -3073.61 1117.55 3745.24c11806.1,3140.88 36069.78,1953.78 40797.33,-2773.01l-0.03 -12630.71c0,-12840.96 -10409.54,-23249.71 -23249.71,-23249.71z"/>
   <path class="fil4" d="M34867.93 50779.06c7014.41,0 5564.54,8829.06 5631.78,18647.39l-5631.78 0 0 -18647.39z"/>
   <path class="fil5" d="M36625.39 56432.48l-1757.46 2946.9 879.52 10047.07 2454.56 0c59.5,-13932.22 -1576.62,-12993.96 -1576.62,-12993.96z"/>
   <path class="fil4" d="M5750.72 30783.83c0,-11385.65 9230.18,-20615.83 20615.83,-20615.83 11385.65,0 20615.83,9230.18 20615.83,20615.83 0.03,4.56 0.03,14.61 0.03,19.63 0,6204.35 -2803.27,12084.68 -7623.59,15988.18 -423.43,343.86 -860.03,670.61 -1309.84,980.26 -4649.47,2951.51 -10523.13,2951.51 -15825.68,2479.3 -514.71,-77.29 -1027.91,-174.68 -1537.21,-286.73 -2034.93,-448.26 -4004.92,-1139.96 -5824.97,-2148.52 -449.81,-277.2 -885.94,-576.55 -1308.44,-898.07 -423.58,-321.93 -832.23,-670.31 -1220.17,-1033.78 -368.52,-341.79 -724.09,-696.9 -1066.7,-1065.27 -3540.88,-3800.88 -5515.05,-8810.34 -5515.05,-14007.94 0,-7.54 0,-20.07 0,-27.6l-0.03 0.53z"/>
   <path class="fil5" d="M8560.8 41177.15c54.1,92.74 107.43,185.48 163.08,276.68 33.24,55.65 68,109.74 102.79,165.39 51,82.69 102.03,165.39 154.58,246.53 37.1,58.74 77.29,115.94 112.84,173.13 51,77.29 102.03,154.58 154.58,231.87 39.4,58.74 77.29,117.48 120.58,176.22 51,77.29 102.03,148.39 154.58,222.58 41.74,59.5 85,118.24 127.53,177.74 42.53,59.5 103.55,142.98 154.58,214.08 51.03,71.1 88.89,118.24 133.69,176.98 44.81,58.74 105.89,139.13 159.98,208.68 54.1,69.55 91.98,116.69 138.34,174.68 46.36,57.98 108.98,136.03 163.84,203.27 54.86,67.24 95.05,115.15 142.98,172.34 47.93,57.19 111.29,132.94 167.7,198.63 56.4,65.69 98.15,113.6 147.63,170.03l171.58 193.23c50.24,56.4 101.24,111.29 154.58,166.94 66.45,72.65 133.69,144.53 200.94,215.63l93.5 98.93c99.69,103.55 200.18,207.13 302.18,309.13l20.1 20.86c99.69,98.93 200.94,197.08 302.18,294.47l122.1 115.94c73.43,68.79 146.84,137.58 221.03,205.58l89.65 81.93c77.29,72.65 161.53,143.74 242.68,214.84 252.43,219.95 510.04,430.91 772.81,632.87 421.97,321.52 858.14,620.86 1308.44,898.07 1820.06,1004.71 3786.98,1700.26 5824.97,2148.52 509.31,112.05 1022.47,208.68 1537.21,286.73 3253.72,289.82 6723.83,400.33 9991.42,-238.03 -5195.87,-1529.47 -30148.16,-10514.66 -14443.05,-37970.99l0 0c-210.23,96.6 -417.35,196.29 -622.91,299.87l-45.6 22.4c-94.29,47.15 -188.58,95.84 -282.08,145.29l-77.29 40.95c-290.58,154.58 -578.1,314.56 -860.18,481.5l-69.55 40.95c-89.65,53.34 -178.53,107.43 -267.42,162.29l-67.24 41.74c-276.15,172.6 -547.95,351.14 -815.37,535.6l-83.48 57.95c-84.24,58.74 -166.94,117.48 -249.63,176.98l-51 36.34c-168.48,123.12 -334.89,247.82 -499.23,374.04l-47.9 37.1c-77.29,60.29 -154.58,122.1 -231.87,184.73l-90.43 72.65c-77.29,62.6 -154.58,125.19 -231.87,189.34l0 0c-163.08,135.24 -323.82,274.37 -482.26,415.02l-88.1 77.29 -207.89 189.34 -100.48 91.22c-220.51,206.08 -436.14,416.57 -646.86,631.41l-106.65 108.98c-61.05,63.39 -122.1,126.74 -182.39,190.89 -35.55,37.86 -71.1,77.29 -105.89,114.39 -106.15,113.34 -210.75,228.25 -313.8,344.68 -34.79,39.4 -70.34,77.29 -105.1,119.03 -54.89,62.6 -108.98,125.98 -163.08,189.34l-116.69 138.34c-52.55,62.6 -105.1,125.19 -154.58,188.58 -41.74,51 -83.48,102.79 -124.44,154.58 -82.69,102.79 -163.84,205.58 -244.23,309.13 -41.74,54.1 -83.48,108.19 -124.44,163.08 -40.95,54.89 -92.74,122.89 -138.34,185.48 -45.6,62.6 -82.69,112.05 -122.89,168.48 -40.19,56.43 -87.34,119.79 -129.84,180.08 -73.14,103.02 -145.26,207.36 -216.36,312.99 -38.65,56.4 -77.29,114.39 -115.15,171.58 -37.86,57.19 -85,128.29 -126.74,193.23l-115.15 178.53 -129.84 209.44c-33.24,53.34 -66.45,106.65 -98.93,159.98 -68.79,112.84 -135.24,226.44 -201.73,340.06l-94.29 166.94c-41.74,73.43 -83.48,147.63 -124.44,221.82 -30.9,56.4 -61.84,112.84 -91.98,169.24 -49.45,91.98 -98.15,184.73 -146.84,277.47l-92.74 180.84c-49.45,98.93 -98.93,197.08 -147.63,296.78 -25.5,53.34 -51.79,107.43 -77.29,161.53 -40.19,84.24 -77.29,169.24 -118.24,254.27 -23.95,51 -47.15,102.03 -70.34,154.58 -57.16,127.21 -113.04,256 -167.67,386.36 -17,40.19 -33.24,81.15 -50.24,121.34 -40.95,98.15 -81.15,196.29 -120.58,295.23 -20.86,51.79 -40.95,103.55 -61.05,154.58 -38.65,97.39 -77.29,195.53 -112.05,293.68 -16.24,42.5 -32.45,85 -47.9,127.53 -48.43,135.51 -96.1,271.01 -142.98,406.52l-43.29 131.39c-34,103.02 -67.24,206.08 -99.69,309.13l-46.39 147.63c-36.34,119.03 -71.89,238.03 -105.89,357.82 -7.74,25.5 -15.45,51 -22.4,77.29 -40.19,142.2 -78.84,284.92 -115.94,428.13 -12.36,45.6 -23.19,91.98 -34.79,137.58 -27.05,107.43 -53.34,214.84 -77.29,323.06l-32.45 135.24c-33.24,146.84 -65.69,293.68 -95.84,441.31l-11.6 59.5c-26.26,131.39 -51.99,262.77 -77.26,394.16 -8.5,47.15 -16.24,93.5 -24.74,140.65 -20.1,115.15 -39.4,231.87 -57.19,347.78 -6.19,39.4 -13.14,77.29 -18.55,117.48 -23.19,150.7 -44.05,302.18 -64.15,454.45l-11.6 100.48c-15.45,122.89 -29.36,246.53 -42.5,370.21 -4.64,46.39 -10.05,92.74 -14.69,139.89 -12.36,129.84 -23.95,260.44 -34.79,391.07 0,27.05 -4.64,53.34 -6.19,77.29 -11.3,154.52 -21.32,310.39 -30.09,467.51 0,40.95 0,82.69 -5.4,123.65 -5.17,121.6 -9.81,242.97 -13.93,364.05 0,45.6 0,91.19 0,136.79 0,158.44 -6.19,317.63 -6.19,476.86 0,0 0,5.4 0,7.74 0,171.58 0,341.61 6.19,511.62 0,58.74 4.64,117.48 6.19,176.22 3.86,113.6 7.74,227.23 13.14,340.82 0,68.79 8.5,136.79 12.36,205.58 6.19,102.79 11.6,205.58 19.31,309.13 5.4,77.29 12.36,146.08 18.55,218.73 8.5,97.39 16.24,194.77 26.29,291.37 6.95,77.29 16.24,149.94 23.95,224.89 10.81,93.5 20.86,187.79 32.45,281.32 9.29,77.29 20.1,154.58 30.14,227.99 12.36,91.19 24.74,183.18 38.65,274.37 11.6,77.29 23.95,154.58 36.34,231.87 13.9,89.65 28.6,180.08 44.05,269.73 13.9,77.29 27.84,154.58 42.5,231.87 16.24,88.89 33.24,177.74 50.24,265.87 17,88.13 31.69,154.58 47.9,231.87 18.55,88.1 37.1,175.44 57.19,262.77 20.1,87.34 34,154.58 52.55,226.44 20.1,87.34 41.74,173.89 63.39,259.68 21.64,85.79 37.86,150.7 57.19,224.89 23.19,86.55 46.39,172.34 70.34,258.13 20.1,77.29 40.95,148.39 62.6,221.82 24.74,85.79 50.24,170.79 77.29,255.82 27.05,85.03 44.84,146.08 68,219.49 23.16,73.41 54.1,169.24 81.93,253.49 27.84,84.24 47.9,144.53 72.65,216.39 29.36,84.24 58.74,168.48 88.89,252.73 25.5,70.34 50.24,141.44 77.29,211.77l95.84 252.73c27.05,68.79 53.34,138.34 77.29,207.13 34,84.24 68.79,169.24 103.55,253.49 27.84,66.45 54.89,133.69 83.48,200.18 36.34,86.55 77.29,171.58 112.05,257.37 28.6,63.39 56.4,127.53 85,190.89 40.19,89.65 82.69,177.74 123.65,265.87l83.48 177.74c47.15,97.39 95.84,193.23 144.53,289.82 24.74,48.69 47.9,98.15 73.43,146.84 148.36,288.98 302.91,574.15 463.68,855.45 22.4,36.34 51,83.48 78.81,130.63z"/>
   <path class="fil3 str1" d="M5750.72 30783.83c0,-11385.65 9230.18,-20615.83 20615.83,-20615.83 11385.65,0 20615.83,9230.18 20615.83,20615.83 0.03,4.56 0.03,14.61 0.03,19.63 0,6204.35 -2803.27,12084.68 -7623.59,15988.18 -423.43,343.86 -860.03,670.61 -1309.84,980.26 -4649.47,2951.51 -10523.13,2951.51 -15825.68,2479.3 -514.71,-77.29 -1027.91,-174.68 -1537.21,-286.73 -2034.93,-448.26 -4004.92,-1139.96 -5824.97,-2148.52 -449.81,-277.2 -885.94,-576.55 -1308.44,-898.07 -423.58,-321.93 -832.23,-670.31 -1220.17,-1033.78 -368.52,-341.79 -724.09,-696.9 -1066.7,-1065.27 -3540.88,-3800.88 -5515.05,-8810.34 -5515.05,-14007.94 0,-7.54 0,-20.07 0,-27.6l-0.03 0.53z"/>
   <path class="fil4" d="M17565.3 50779.06c-7015.17,0 -5564.54,8829.06 -5631.78,18647.39l5631.78 0 0 -18647.39z"/>
   <path class="fil5" d="M16105.4 56432.48l1759.77 2946.9 -880.28 10047.07 -2452.25 0c-62.6,-13932.22 1572.76,-12993.96 1572.76,-12993.96z"/>
   <path class="fil4" d="M35599.82 74836.4l-18466.55 0c-566.44,-0.38 -1025.54,-459.86 -1025.54,-1026.36 0,0 0,0 0,0l-0.03 -22004.63c0.03,-0.03 0.03,-0.03 0.03,-0.03 0,-566.5 459.1,-1025.98 1025.6,-1026.36l18025.18 0.03c1011.66,0 1468.42,592 1468.42,1536.43l0 21491.46c0,0.96 0,2.1 0,3.1 0,566.74 -459.62,1026.36 -1026.36,1026.36 -0.26,0 -0.5,0 -0.76,0z"/>
   <path class="fil5" d="M36340.21 51389.61c-76.91,-94.41 -142.37,-198.75 -193.98,-309.1 -185.4,-145.35 -406.43,-239.11 -639.85,-271.33 -112.98,-17.56 -227.43,-26.29 -341.61,-26.29 -1.9,0 -4.35,0 -6.28,0l-18025.21 0.03c-564.92,0.35 -1023.41,457.46 -1025.54,1022.44 2241.27,805.32 6437.07,1255.1 10258.84,1255.1 4873.57,0.06 8067,-722.54 9973.63,-1670.85z"/>
   <path class="fil3 str2" d="M34867.93 50779.06c7014.41,0 5564.54,8829.06 5631.78,18647.39l-3874.32 0"/>
   <path class="fil3 str2" d="M17565.3 50779.06c-7015.17,0 -5564.54,8829.06 -5631.78,18647.39l3869.67 0"/>
   <line class="fil3 str1" x1="17133.28" y1="50786.8" x2="35158.52" y2= "50779.06" />
   <path class="fil5" d="M17133.28 74836.4l9013 0c-8435.66,0 -7798.85,-17866.8 -10038.57,-17866.8l0 16837.35c0.03,0.96 0.03,2.1 0.03,3.1 0,566.5 459.1,1025.98 1025.6,1026.36l-0.06 0z"/>
   <path class="fil0" d="M15644 58672.2c-14.69,-283.63 -8.5,-567.26 3.86,-850.13 12.36,-282.87 36.34,-568.05 66.45,-850.13 15.45,-142.2 30.9,-283.63 50.24,-425.85 19.34,-142.22 37.86,-283.63 65.69,-425.85 54.45,-294 148.24,-580.38 277.47,-850.1 129.28,269.73 223.08,556.1 277.7,849.99 27.84,142.2 47.9,283.63 65.69,425.85 17.79,142.22 34.79,283.63 50.24,425.85 29.36,283.63 52.55,567.26 65.69,850.13 13.14,282.87 19.31,567.26 4.64,850.13l-927.69 0.12z"/>
   <path class="fil3 str1" d="M36625.39 59379.37l0 618.29c20.1,2627.69 20.1,5332.69 0,7941.04 0,221.82 0,442.07 0,659.24l0 5209.81c0,0.64 0,1.52 0,2.28 0,566.5 -459.1,1025.98 -1025.6,1026.36l-18466.52 0c-566.44,-0.38 -1025.54,-459.86 -1025.54,-1026.36 0,0 0,0 0,0l-0.03 -4497.98c0,-193.98 0,-391.83 0,-591.24 -19.31,-2694.93 -19.31,-5399.91 0,-8138.13l0 -1910.49"/>
   <path class="fil0" d="M36161.68 59379.37c-14.69,-322.28 -7.74,-645.34 4.64,-968.38 12.39,-323.04 36.34,-645.34 65.69,-968.38 15.45,-161.53 31.69,-323.06 50.24,-484.57 18.55,-161.5 37.86,-322.28 65.69,-483.81 53.4,-332.38 147.48,-658.28 277.44,-968.61 129.96,310.33 224.04,636.23 277.58,968.38 27.84,161.53 47.9,323.06 65.69,483.81 17.79,160.74 34.79,323.06 50.24,484.57 29.36,323.06 53.34,645.34 65.69,968.38 12.36,323.04 19.31,646.1 4.64,968.38l-927.57 0.23z"/>
   <path class="fil3 str1" d="M26526.53 60064.12c0,2957.56 -2398.71,5355.65 -5356.62,5355.65 -2957.91,0 -5356.65,-2398.74 -5356.65,-5356.65 0,-844.93 200.12,-1678.74 583.33,-2431.45"/>
   <g>
    <path class="fil4" d="M16396.74 57631.93c292.89,-571.44 686.06,-1086.88 1159.41,-1520.16l-1159.41 1520.16zm0 0l0 0 0 0z"/>
   </g>
   <path class="fil0" d="M15983.27 57420.95c67.88,-160.77 155.78,-312.61 261.26,-451.47 104.19,-138.69 222.2,-268.62 350.03,-386.28 64.93,-58.74 130.6,-115.94 199.39,-169.24 68.26,-55.15 140.91,-105.13 217.18,-148.53 164.83,-94.99 350.81,-148.21 541.03,-154.43 -19.78,180.69 -65.78,358.32 -135.13,526.25 -30.14,77.29 -64.15,145.29 -99.69,214.08l-100.48 206.34c-65.69,136.03 -130.6,269.73 -197.08,401.11 -63.62,132.06 -135.62,262.16 -213.29,386.63l-823.2 -424.45z"/>
   <g>
    <path class="fil4" d="M25541.92 56969.59c640.26,901.78 984.62,1981.21 984.62,3087.34 0,1.31 0,2.6 0,3.91l-984.62 -3091.25zm0 0l0 0 0 0z"/>
   </g>
   <path class="fil0" d="M25541.92 56969.59c263.86,142.75 493.33,342.14 671.69,583.39 88.65,117.22 168.81,241.33 239.46,370.21 71.89,129.08 136.79,261.99 197.08,398.02 118.27,272.38 208.77,558.94 267.54,850.19 49.63,244.84 75.45,494.82 75.45,744.83 0,48.46 -0.91,98.29 -2.72,146.28l-927.6 0.06c-14.69,-251.18 -27.84,-500.81 -54.1,-751.99 -26.26,-251.18 -59.5,-500.81 -108.19,-752.75l-38.65 -188.58 -44.84 -189.34c-32.45,-125.98 -67.24,-251.94 -99.69,-381.02 -72.44,-272.15 -132.38,-551.28 -175.64,-829.45l0.2 0.15z"/>
   <g>
    <path class="fil4" d="M37313.99 60064.12c0,-2.13 0,-4.09 0,-6.05 0,-1480.2 -614.52,-2893.88 -1695.5,-3904.38l1695.5 3910.42zm0 0l0 0 0 0z"/>
   </g>
   <path class="fil0" d="M36850.28 60064.12c-12.44,-332.18 -45.77,-665.35 -97.24,-993.44 -54.33,-332.18 -135.48,-661.43 -241.36,-979.91 -26.29,-77.29 -57.19,-159.98 -85.79,-240.37 -28.6,-80.39 -64.93,-158.44 -96.6,-238.82 -31.66,-80.39 -72.65,-154.58 -106.65,-235.73l-112.84 -231.87c-154.58,-316.87 -322.28,-632.95 -491.55,-985.38 358.09,152.77 680.3,379.85 944.51,665.64 64.15,72.65 131.39,143.74 190.89,220.27 59.5,76.53 119.03,154.58 173.89,231.87 54.86,77.29 110.53,161.53 159.98,245.77 49.45,84.24 101.24,168.48 145.29,256.58 183.94,348.89 324.79,720.91 417.5,1104.67 84.39,341.67 127.12,694.65 127.12,1047.13 0,44.31 -1.08,89.73 -2.13,133.52l-925.03 0.06z"/>
   <path class="fil3 str1" d="M26598.42 60064.12c0.23,20.48 -0.41,43.38 -0.41,64.29 0,2957.91 2398.74,5356.65 5356.65,5356.65 2957.91,0 5356.65,-2398.74 5356.65,-5356.65 0,-20.91 -0.64,-43.82 -0.64,-64.09"/>
   <g>
    <path class="fil4" d="M27585.34 56969.59c-639.47,900.7 -983.86,1980.8 -983.86,3086.26 0,1.31 0,3.91 0,5.2l983.86 -3091.46zm0 0l0 0 0 0z"/>
   </g>
   <path class="fil0" d="M27585.34 56969.59c-43.64,278.81 -102.62,557.94 -175.35,831.2 -32.45,129.08 -67.24,255.03 -99.69,381.02l-44.05 189.34 -38.65 188.58c-48.69,251.94 -84.24,502.36 -108.98,752.75 -24.74,250.39 -38.65,500.81 -53.34,751.99l-930.61 -0.35c-1.81,-50.24 -3.15,-102.12 -3.15,-152.68 0,-247.91 25.73,-495.78 75.83,-738.37 58.51,-291.55 148.48,-577.86 267.19,-850.31 59.5,-136.03 124.44,-268.97 196.29,-398.02 70.98,-128.38 151.37,-252.9 239.67,-369.92 179.18,-241.8 410.08,-442.04 674.73,-585.17l0.12 -0.06z"/>
   <line class="fil3 str1" x1="17358.2" y1="56871.45" x2="17358.2" y2= "50779.06" />
   <line class="fil3 str1" x1="35367.19" y1="56871.45" x2="35367.19" y2= "50779.06" />
   <path class="fil6 str1" d="M24086.64 61526.35l4165.66 0 0 1522.52c-1371.04,-467.57 -2759.86,-455.97 -4165.66,0l0 -1522.52z"/>
   <path class="fil6 str1" d="M37039.65 60064.12c0,-1.78 0,-5.7 0,-7.65 0,-1354.04 -515.41,-2657.89 -1440.06,-3646.39 -326.13,-349.32 -3421.42,478.4 -5240.71,2106.78 -1786.06,1599.02 -3341.03,4211.26 -3118.45,4540.51 995.51,1477.33 2661.16,2363.45 4442.57,2363.45 2957.91,0 5356.65,-2398.74 5356.65,-5356.65 0,0 0,0 0,0l0 -0.06z"/>
   <path class="fil6" d="M33949.01 57709.22c-473,283.63 -939.02,554.91 -1391.13,850.13 -445.69,283.25 -875.08,601.64 -1278.18,941.94 -398.02,344.68 -781.34,720.29 -1159.29,1102.1 -377.95,381.81 -748.89,772.84 -1139.96,1164.7 237.74,-498.06 527.42,-969.84 864.24,-1404.8 335.45,-441.04 718.72,-851.36 1137.03,-1215.61 425.97,-360.66 898.77,-666.31 1402.61,-906.68 495.75,-243.38 1023.29,-422.9 1565.02,-531.57l-0.35 -0.2z"/>
   <path class="fil6 str1" d="M15693.45 60064.12c0.03,-1.78 0.03,-5.7 0.03,-7.65 0,-1354.04 515.41,-2657.89 1440.06,-3646.39 326.13,-349.32 3421.42,478.4 5240.71,2106.78 1786.06,1599.02 3341.03,4211.26 3118.45,4540.51 -995.51,1477.33 -2661.16,2363.45 -4442.57,2363.45 -2957.91,0 -5356.65,-2398.74 -5356.65,-5356.65 0,0 0,0 0,0l-0.03 -0.06z"/>
   <path class="fil7" d="M22946.68 64705.85c-3642.8,-0.03 -6597.03,-2954.26 -6597.03,-6597.09 0,-0.2 0,-0.2 0,-0.2 0,-224.13 12.24,-450.71 34.23,-673.21 -452.29,801.88 -689.68,1708.27 -689.68,2629.06 0,2957.91 2398.74,5356.65 5356.65,5356.65 978.34,0 1939.67,-268.79 2776.1,-775.62 -290.87,39.4 -585.93,60.41 -880.16,60.41l-0.12 0z"/>
   <path class="fil3 str1" d="M15693.45 60064.12c0.03,-1.78 0.03,-5.7 0.03,-7.65 0,-1354.04 515.41,-2657.89 1440.06,-3646.39 326.13,-349.32 3421.42,478.4 5240.71,2106.78 1786.06,1599.02 3341.03,4211.26 3118.45,4540.51 -995.51,1477.33 -2661.16,2363.45 -4442.57,2363.45 -2957.91,0 -5356.65,-2398.74 -5356.65,-5356.65 0,0 0,0 0,0l-0.03 -0.06z"/>
   <path class="fil6" d="M18784.09 57709.22c541.7,108.63 1069.27,288.16 1565.31,530.66 503.55,240.52 975.56,546.96 1401.39,907.53 416.62,364.54 797.9,772.84 1132.13,1214.15 337.7,435.14 627.38,906.92 864.21,1404.16 -391.07,-386.42 -760.49,-782.89 -1139.96,-1164.7 -379.47,-381.81 -760.49,-757.39 -1159.29,-1102.1 -402.19,-339.48 -831.58,-657.87 -1277.04,-941.21 -450.83,-293.59 -914.54,-564.87 -1386.75,-848.5z"/>
   <path class="fil5" d="M40107.86 62188.69c16.24,-2868.06 -93.5,-5415.39 -597.41,-7372.24 -778.28,-1959.97 -2177.91,-3128.52 -4642.52,-3128.52l1761.31 10396.42c0,0 1740.46,791.39 3478.61,104.34z"/>
   <path class="fil3 str2" d="M40773.29 61372.56c-87.92,72.67 -184.32,136.09 -285.88,187.82"/>
   <path class="fil5" d="M12927.42 54732.97c-527.86,1976.18 -618.29,4569.87 -598.19,7496.67 1537.97,660 3896.72,-166.18 3896.72,-166.18l1339.34 -10220.2c-2385.77,-2.31 -3807.84,1071.95 -4637.87,2889.7z"/>
   <path class="fil6" d="M35158.52 50779.06l-4189.64 0 0 7.74c0,-0.2 0,1.58 0,1.58 0,347.13 -37.91,694.24 -111.35,1033.08 -35.32,164.95 -80.71,329.34 -134.19,489.15 -171.2,479.25 -434.27,921.87 -773.22,1301.14 -108.25,121.13 -224.22,236.19 -347.48,342.17 -1945.28,1406.59 -5036.68,1483.88 -6915.48,-44.84 -202.43,-176.17 -387.15,-373.6 -549.85,-587.15 -338.14,-444.64 -578.45,-956.49 -703.18,-1500.44 -36.19,-167.9 -64.47,-338.66 -82.72,-509.43 -18.08,-171.2 -28.45,-345.61 -28.45,-518.28 0,-2.31 0,-4.62 0,-6.89l0 -7.74 -4189.67 -0.09c-566.44,0.35 -1025.54,459.83 -1025.54,1026.33 0,0 0,0 0,0l0 22001.56c0,0.96 0,2.1 0,3.1 0,566.5 459.1,1025.98 1025.6,1026.36l18466.49 0c566.47,-0.38 1025.57,-459.86 1025.57,-1026.36 0,0 0,0 0,0l0 -21494.56c0,-944.42 -455.21,-1536.43 -1466.88,-1536.43z"/>
   <path class="fil6" d="M34867.93 50779.06c4910.7,0 5672.73,4327.98 5711.37,10292.08 -1437.52,898.07 -3780.03,101.24 -3780.03,101.24l-1931.35 -10393.32z"/>
   <path class="fil7" d="M36625.39 56432.48l-1757.46 2946.9 879.52 10047.07 897.25 0 0 -8165.17 1335.49 223.34c-438.18,-5577.68 -1354.8,-5052.13 -1354.8,-5052.13z"/>
   <path class="fil6" d="M17565.3 50779.06c-4774.69,0 -5860.55,4157.95 -5939.36,9866.23 1468.42,1534.88 4482.53,353.97 4482.53,353.97l1456.83 -10220.2z"/>
   <path class="fil7" d="M16105.4 56432.48l0 4569.87 -1337.8 333.11c438.18,-5419.24 1337.8,-4902.98 1337.8,-4902.98z"/>
   <path class="fil3 str2" d="M34867.93 50779.06c5209.81,0 6063.04,4350.39 6097.8,10339.23 -2024.88,960.66 -4166.45,54.1 -4166.45,54.1"/>
   <path class="fil3 str2" d="M17565.3 50779.06c-5161.87,0 -6188.99,4227.5 -6241.57,10102.71 1595.2,1142.29 4780.89,120.58 4780.89,120.58"/>
   <path class="fil7" d="M17133.28 74836.4l9013 0c-8435.66,0 -7798.85,-17866.8 -10038.57,-17866.8l0 16837.35c0.03,0.96 0.03,2.1 0.03,3.1 0,566.5 459.1,1025.98 1025.6,1026.36l-0.06 0z"/>
   <path class="fil0" d="M15644 58672.2c-14.69,-283.63 -8.5,-567.26 3.86,-850.13 12.36,-282.87 36.34,-568.05 66.45,-850.13 15.45,-142.2 30.9,-283.63 50.24,-425.85 19.34,-142.22 37.86,-283.63 65.69,-425.85 54.45,-294 148.24,-580.38 277.47,-850.1 129.08,269.29 222.79,555.69 276.85,849.96 28.6,142.2 48.69,283.63 66.45,425.85 17.76,142.22 34.79,283.63 50.24,425.85 29.36,283.63 52.55,567.26 65.69,850.13 13.14,282.87 19.31,567.26 4.64,850.13l-927.6 0.15z"/>
   <path class="fil3 str1" d="M36625.39 59379.37l0 618.29c20.1,2627.69 20.1,5332.69 0,7941.04 0,221.82 0,442.07 0,659.24l0 5209.81c0,0.64 0,1.52 0,2.28 0,566.5 -459.1,1025.98 -1025.6,1026.36l-18466.52 0c-566.44,-0.38 -1025.54,-459.86 -1025.54,-1026.36 0,0 0,0 0,0l-0.03 -4497.98c0,-193.98 0,-391.83 0,-591.24 -19.31,-2694.93 -19.31,-5399.91 0,-8138.13l0 -1910.49"/>
   <path class="fil0" d="M36161.68 59379.37c-14.69,-322.28 -7.74,-645.34 4.64,-968.38 12.39,-323.04 36.34,-645.34 65.69,-968.38 15.45,-161.53 31.69,-323.06 50.24,-484.57 18.55,-161.5 37.86,-322.28 66.45,-483.81 53.13,-331.86 146.28,-658.69 276.5,-968.52 130.13,310.24 224.22,636.14 277.76,968.29 27.84,161.53 47.9,323.06 65.69,483.81 17.79,160.74 34.79,323.06 50.24,484.57 29.36,323.06 53.34,645.34 65.69,968.38 12.36,323.04 19.31,646.1 4.64,968.38l-927.57 0.23z"/>
   <line class="fil3 str1" x1="17133.28" y1="50786.8" x2="35158.52" y2= "50779.06" />
   <path class="fil3 str1" d="M30968.87 50786.8c0,-0.2 0,1.58 0,1.58 0,347.13 -37.91,694.24 -111.35,1033.08 -35.32,164.95 -80.71,329.34 -134.19,489.15 -171.2,479.25 -434.27,921.87 -773.22,1301.14 -108.25,121.13 -224.22,236.19 -347.48,342.17 -1945.28,1406.59 -5036.68,1483.88 -6915.48,-44.84 -202.43,-176.17 -387.15,-373.6 -549.85,-587.15 -338.14,-444.64 -578.45,-956.49 -703.18,-1500.44 -36.19,-167.9 -64.47,-338.66 -82.72,-509.43 -18.08,-171.2 -28.45,-345.61 -28.45,-518.28 0,-2.31 0,-4.62 0,-6.89"/>
   <path class="fil0" d="M26629.32 56163.51c-333.73,66.48 -674.37,101.04 -1015.02,101.04 -135.13,0 -271.51,-6.28 -405.99,-16.33 -479.37,-33.18 -953.48,-131.3 -1406.53,-289.97 -456.5,-156.51 -886.76,-382.1 -1275.32,-667.98l-143.74 -108.98c-47.15,-37.1 -92.74,-77.29 -138.34,-117.48 -91.84,-77.9 -178.21,-163.08 -257.6,-253.43 -158.38,-178.5 -298.18,-373.31 -415.63,-580.49 164.72,165.71 339.48,323.18 520.85,470.75 44.84,37.1 90.43,73.43 135.24,108.19 44.81,34.76 95.05,63.39 142.2,95.84 47.15,32.45 94.29,64.93 142.98,95.05l147.63 89.65c393.69,232.37 812.42,426.79 1244.44,576.32 432.6,151.57 880.77,267.89 1332.95,344.07 460.53,74.57 925.99,127.03 1391.43,153.27l0.47 0.5z"/>
   <path class="fil3 str2" d="M11514.64 61118.28c87.89,79.83 183.29,152.07 284.48,214.14"/>
   <path class="fil0" d="M39868.27 60360.11c-160.8,96.1 -338.08,162.32 -522.45,194.77 -170.94,33.36 -344.77,50.45 -518.95,50.45 -12.5,0 -25.3,-0.32 -37.48,-0.32 -186.07,-3.51 -372.11,-24.33 -554.76,-61.08 -91.19,-16.24 -180.08,-43.29 -269.73,-67.24 -89.65,-23.95 -175.44,-59.5 -260.44,-95.84 93.5,0 183.94,13.9 275.13,21.64l272.03 22.4c90.43,0 180.08,15.45 270.49,16.24 90.41,0.79 179.29,8.5 268.97,9.29 180.23,3.15 360.48,-1.69 540.83,-14.58 180.05,-12.33 360.1,-37.91 536.44,-75.6l-0.09 -0.15z"/>
   <path class="fil8 str3" d="M31535.37 63075.92c0,-684.74 -857.87,-1333.94 -2172.48,-1736.6 303.73,-1340.13 168.48,-2405.89 -425.85,-2747.48 -120.9,-80.33 -263.15,-123.18 -408.39,-123.18 -20.48,0 -41.13,0.91 -61.52,2.51 -618.29,10.05 -1337.8,413.47 -2104.48,1129.91 -768.96,-712.49 -1619.12,-1133.68 -2105.23,-1121.32 -244.23,6.95 -337.73,40.19 -476.07,120.58 -592.79,340.82 -724.94,1405.04 -419.66,2741.31 -1313.84,404.21 -2163.98,1051.86 -2163.98,1734.29 0,682.44 857.87,1333.94 2172.48,1736.6 -303.73,1340.13 -168.48,2405.89 425.85,2747.48 138.05,77.58 293.82,118.45 452.2,118.45 7.1,0 14.63,-0.12 21.62,-0.23 579.65,0 1337.8,-413.47 2105.26,-1129.91 766.68,712.58 1525.62,1121.41 2105.26,1121.41 6.51,0.09 13.47,0.2 20.21,0.2 159.52,0 316.52,-40.89 455.8,-118.48 592,-341.61 724.94,-1405.83 418.87,-2741.31 1306.86,-402.63 2160.09,-1051.83 2160.09,-1734.24zm-3069.75 -4134l0 0c4.64,-0.18 9.55,-0.23 14.25,-0.23 78.43,0 155.81,18.96 225.36,55.09 286.73,164.63 411.16,790.63 314.56,1595.17 -23.19,197.84 -61.05,406.52 -107.43,618.29 -439.55,-105.68 -887.55,-185.98 -1338.06,-232.43 -267.92,-368.22 -563.58,-722.78 -876.77,-1052.27 686.09,-633.51 1329.88,-982.83 1768.09,-983.62zm-3966.27 5212.9c98.91,168.48 200.15,332.82 303.73,493.07 -299.08,-44.05 -588.15,-98.93 -864.04,-166.18 77.29,-272.03 174.68,-552.6 284.42,-832.37 86.52,168.51 176.96,337 275.89,505.48zm-566.5 -2484.73c275.92,-64.93 566.5,-122.1 867.92,-166.18 -102.79,162.29 -206.34,328.47 -302.97,499.26 -96.63,170.79 -187.79,336.97 -274.37,505.45 -110.85,-273.82 -208.36,-554.35 -290.67,-838.16l0.09 -0.38zm537.12 1411.99c130.6,-282.08 278.23,-564.95 436.66,-840.87 158.44,-275.92 332.32,-554.15 507.76,-804.54 313.78,-27.84 632.2,-42.5 952.16,-42.5 319.97,0 636.05,14.69 948.28,40.19 174.68,250.42 345.47,518.6 510.1,800.68 164.63,282.08 309.13,556.45 438.21,838.54 -132.94,282.87 -278.23,564.95 -436.66,840.87 -158.44,275.92 -332.32,554.15 -507.76,805.32 -313.78,27.05 -632.2,41.74 -952.16,41.74 -319.97,0 -636.05,-14.69 -948.28,-40.19 -174.68,-250.42 -345.47,-517.81 -510.1,-800.68 -164.63,-282.87 -305.28,-556.45 -438.21,-838.57zm3763.79 1066.55c96.6,-168.48 187.03,-339.28 273.58,-507.76 110.09,273.9 208.68,555.55 290.99,839.32 -275.92,67.24 -566.5,124.44 -867.92,168.48 103.2,-163.08 205.99,-329.26 303.35,-500.05zm0 -2151.62c-96.6,-168.48 -200.18,-333.11 -303.73,-493.07 299.87,43.79 587.88,99.17 864.07,166.15 -77.29,272.03 -174.68,552.6 -284.42,832.37 -88.89,-168.48 -179.29,-336.97 -278.23,-505.45l2.31 0zm-1287.55 -1060.36c-190.13,-7.74 -386.42,-14.69 -579.65,-14.69 -193.23,0 -394.16,4.64 -585.81,14.69 180.93,-233.97 375.41,-460.38 579.88,-673.85 206.34,213.67 401.64,439.2 585.11,673.38l0.47 0.47zm-2931.44 -1932.14c68.09,-36.34 144.15,-55.38 221.33,-55.38 7.13,0 14.34,0.23 21.41,0.53l0 0c435.9,0 1082,347.78 1769.84,982.31 -312.43,328.23 -605.5,682.38 -870.46,1051.16 -450.48,45.54 -899.88,124.7 -1339.49,231.87 -48.69,-210.23 -84.24,-415.02 -109.74,-610.55 -99.4,-805.44 22.73,-1431.44 307.12,-1597.59l0 -2.34zm-530.95 5350.45c-208.68,-65.69 -406.52,-137.58 -589.69,-214.84 -746.58,-318.42 -1228.84,-735.75 -1228.84,-1066.55 0,-330.81 482.26,-750.44 1228.84,-1066.55 180.84,-77.29 378.71,-147.63 583.5,-212.53 128.61,435.35 289.09,868.65 474.26,1283.41 -184.78,414.26 -342.64,844.58 -468.38,1279.84l0.32 -2.77zm782.13 2852.61c-2.51,-0.03 -5.32,0.03 -7.92,0.03 -80.09,0 -159.2,-19.42 -230.12,-56.49 -286.73,-164.63 -411.16,-790.63 -314.56,-1595.17 23.19,-198.63 61.05,-406.52 107.43,-618.29 438.62,106.35 889.68,184.43 1338.23,231.52 268.47,369.89 562.12,724.5 876.92,1054.22 -687.23,637.16 -1331.78,986.49 -1769.99,986.49l0 -2.31zm2104.48 -1320.8c-205.23,-214.52 -403.07,-441.57 -585.81,-675.13 190.13,8.5 386.42,14.69 579.65,14.69 193.23,0 394.16,-3.86 585.81,-14.69 -179.76,234.76 -374.62,463.59 -579.47,677.44l-0.18 -2.31zm2347.94 1255.86c-68.06,36.31 -144.12,55.35 -221.3,55.35 -7.13,0 -14.34,-0.23 -21.41,-0.53 -435.9,0 -1082,-347.78 -1769.84,-982.31 312.43,-328.23 605.5,-682.38 870.46,-1051.16 450.48,-45.57 899.88,-124.73 1339.49,-231.9 47.23,202.22 85.06,407.72 110.03,613.24 99.08,807.46 -23.05,1432.7 -307.44,1599.64l0 -2.34zm1119.07 -3002.51c-181.63,77.29 -379.47,146.84 -584.29,212.53 -127.62,-436.46 -288.92,-869.56 -473.82,-1284.02 183.21,-413.82 340.21,-842.25 464.38,-1276.78 208.68,65.69 406.52,136.79 592,214.84 746.58,318.42 1228.84,735.75 1228.84,1066.55 0,330.81 -481.3,753.1 -1227.12,1069.18l0 -2.31z"/>
   <circle class="fil8 str4" cx="26364.24" cy="63075.92" r="962.97"/>
   <path class="fil9" d="M31535.37 63075.92c0,-684.74 -857.87,-1333.94 -2172.48,-1736.6 303.73,-1340.13 168.48,-2405.89 -425.85,-2747.48 -120.9,-80.33 -263.15,-123.18 -408.39,-123.18 -20.48,0 -41.13,0.91 -61.52,2.51 -618.29,10.05 -1337.8,413.47 -2104.48,1129.91 -768.96,-712.49 -1619.12,-1133.68 -2105.23,-1121.32 -244.23,6.95 -337.73,40.19 -476.07,120.58 -592.79,340.82 -724.94,1405.04 -419.66,2741.31 -1313.84,404.21 -2163.98,1051.86 -2163.98,1734.29 0,682.44 857.87,1333.94 2172.48,1736.6 -303.73,1340.13 -168.48,2405.89 425.85,2747.48 138.05,77.58 293.82,118.45 452.2,118.45 7.1,0 14.63,-0.12 21.62,-0.23 579.65,0 1337.8,-413.47 2105.26,-1129.91 766.68,712.58 1525.62,1121.41 2105.26,1121.41 6.51,0.09 13.47,0.2 20.21,0.2 159.52,0 316.52,-40.89 455.8,-118.48 592,-341.61 724.94,-1405.83 418.87,-2741.31 1306.86,-402.63 2160.09,-1051.83 2160.09,-1734.24zm-3069.75 -4134l0 0c4.64,-0.18 9.55,-0.23 14.25,-0.23 78.43,0 155.81,18.96 225.36,55.09 286.73,164.63 411.16,790.63 314.56,1595.17 -23.19,197.84 -61.05,406.52 -107.43,618.29 -439.55,-105.68 -887.55,-185.98 -1338.06,-232.43 -267.92,-368.22 -563.58,-722.78 -876.77,-1052.27 686.09,-633.51 1329.88,-982.83 1768.09,-983.62zm-3966.27 5212.9c98.91,168.48 200.15,332.82 303.73,493.07 -299.08,-44.05 -588.15,-98.93 -864.04,-166.18 77.29,-272.03 174.68,-552.6 284.42,-832.37 86.52,168.51 176.96,337 275.89,505.48zm-566.5 -2484.73c275.92,-64.93 566.5,-122.1 867.92,-166.18 -102.79,162.29 -206.34,328.47 -302.97,499.26 -96.63,170.79 -187.79,336.97 -274.37,505.45 -110.85,-273.82 -208.36,-554.35 -290.67,-838.16l0.09 -0.38zm537.12 1411.99c130.6,-282.08 278.23,-564.95 436.66,-840.87 158.44,-275.92 332.32,-554.15 507.76,-804.54 313.78,-27.84 632.2,-42.5 952.16,-42.5 319.97,0 636.05,14.69 948.28,40.19 174.68,250.42 345.47,518.6 510.1,800.68 164.63,282.08 309.13,556.45 438.21,838.54 -132.94,282.87 -278.23,564.95 -436.66,840.87 -158.44,275.92 -332.32,554.15 -507.76,805.32 -313.78,27.05 -632.2,41.74 -952.16,41.74 -319.97,0 -636.05,-14.69 -948.28,-40.19 -174.68,-250.42 -345.47,-517.81 -510.1,-800.68 -164.63,-282.87 -305.28,-556.45 -438.21,-838.57zm3763.79 1066.55c96.6,-168.48 187.03,-339.28 273.58,-507.76 110.09,273.9 208.68,555.55 290.99,839.32 -275.92,67.24 -566.5,124.44 -867.92,168.48 103.2,-163.08 205.99,-329.26 303.35,-500.05zm0 -2151.62c-96.6,-168.48 -200.18,-333.11 -303.73,-493.07 299.87,43.79 587.88,99.17 864.07,166.15 -77.29,272.03 -174.68,552.6 -284.42,832.37 -88.89,-168.48 -179.29,-336.97 -278.23,-505.45l2.31 0zm-1287.55 -1060.36c-190.13,-7.74 -386.42,-14.69 -579.65,-14.69 -193.23,0 -394.16,4.64 -585.81,14.69 180.93,-233.97 375.41,-460.38 579.88,-673.85 206.34,213.67 401.64,439.2 585.11,673.38l0.47 0.47zm-2931.44 -1932.14c68.09,-36.34 144.15,-55.38 221.33,-55.38 7.13,0 14.34,0.23 21.41,0.53l0 0c435.9,0 1082,347.78 1769.84,982.31 -312.43,328.23 -605.5,682.38 -870.46,1051.16 -450.48,45.54 -899.88,124.7 -1339.49,231.87 -48.69,-210.23 -84.24,-415.02 -109.74,-610.55 -99.4,-805.44 22.73,-1431.44 307.12,-1597.59l0 -2.34zm-530.95 5350.45c-208.68,-65.69 -406.52,-137.58 -589.69,-214.84 -746.58,-318.42 -1228.84,-735.75 -1228.84,-1066.55 0,-330.81 482.26,-750.44 1228.84,-1066.55 180.84,-77.29 378.71,-147.63 583.5,-212.53 128.61,435.35 289.09,868.65 474.26,1283.41 -184.78,414.26 -342.64,844.58 -468.38,1279.84l0.32 -2.77zm782.13 2852.61c-2.51,-0.03 -5.32,0.03 -7.92,0.03 -80.09,0 -159.2,-19.42 -230.12,-56.49 -286.73,-164.63 -411.16,-790.63 -314.56,-1595.17 23.19,-198.63 61.05,-406.52 107.43,-618.29 438.62,106.35 889.68,184.43 1338.23,231.52 268.47,369.89 562.12,724.5 876.92,1054.22 -687.23,637.16 -1331.78,986.49 -1769.99,986.49l0 -2.31zm2104.48 -1320.8c-205.23,-214.52 -403.07,-441.57 -585.81,-675.13 190.13,8.5 386.42,14.69 579.65,14.69 193.23,0 394.16,-3.86 585.81,-14.69 -179.76,234.76 -374.62,463.59 -579.47,677.44l-0.18 -2.31zm2347.94 1255.86c-68.06,36.31 -144.12,55.35 -221.3,55.35 -7.13,0 -14.34,-0.23 -21.41,-0.53 -435.9,0 -1082,-347.78 -1769.84,-982.31 312.43,-328.23 605.5,-682.38 870.46,-1051.16 450.48,-45.57 899.88,-124.73 1339.49,-231.9 47.23,202.22 85.06,407.72 110.03,613.24 99.08,807.46 -23.05,1432.7 -307.44,1599.64l0 -2.34zm1119.07 -3002.51c-181.63,77.29 -379.47,146.84 -584.29,212.53 -127.62,-436.46 -288.92,-869.56 -473.82,-1284.02 183.21,-413.82 340.21,-842.25 464.38,-1276.78 208.68,65.69 406.52,136.79 592,214.84 746.58,318.42 1228.84,735.75 1228.84,1066.55 0,330.81 -481.3,753.1 -1227.12,1069.18l0 -2.31z"/>
   <circle class="fil9" cx="26364.24" cy="63075.92" r="962.97"/>
   <path class="fil10" d="M20715.46 66461c2293.17,-0.03 4333.85,-1461.85 5071.61,-3632.66 -983.8,1683.15 -2787.85,2718.15 -4737.3,2718.15 -1731.05,0 -3362.29,-817.97 -4397.3,-2204.67l-3.77 1138.38c984.62,1207.96 2387.35,1980.8 4066.76,1980.8z"/>
   <path class="fil10" d="M32017.63 66461c-2293.14,-0.03 -4333.82,-1461.85 -5071.58,-3632.66 983.8,1683.15 2787.85,2718.15 4737.3,2718.15 1731.05,0 3362.29,-817.97 4397.3,-2204.67l0 1137.65c-980.88,1208.69 -2383.61,1981.53 -4063.02,1981.53z"/>
   <g>
    <path class="fil6" d="M19179.01 65083.77c-2095.13,-781.69 -3484.57,-2783.41 -3484.57,-5019.97 0,-1351.5 511.56,-2653.92 1430.63,-3644.32l2053.94 8664.29zm0 0l0 0 0 0z"/>
   </g>
   <path class="fil0" d="M19179.01 65083.77c-913.02,-148.83 -1757.84,-582.3 -2411.82,-1236.82l-125.19 -123.65c-40.95,-41.74 -77.29,-87.34 -118.24,-130.6 -40.95,-43.26 -77.29,-88.89 -114.39,-133.69 -39.29,-43.76 -76.44,-90.46 -110.71,-138.19 -69.55,-95.05 -139.89,-190.13 -207.13,-287.52l-183.18 -303.73c-230.88,-414.99 -406.02,-861.61 -518.66,-1323.86 -89.35,-394.28 -134.6,-799.48 -134.6,-1204.04 0,-69.87 1.34,-141.06 4,-210.25 20.53,-471.83 110.03,-939.28 263.04,-1385.55 20.1,-54.89 37.86,-110.53 58.74,-165.39l68 -162.29c42.5,-108.19 97.39,-211.77 147.63,-316.08 106.5,-204.65 230.38,-403.68 366.32,-590.1 65.69,-93.5 140.65,-181.63 212.53,-269.73 71.89,-88.1 149.94,-172.34 231.87,-249.63 159.37,-158.99 334.25,-304.66 519.94,-431.87 -447.47,772.84 -765.13,1560.38 -901.13,2370.35 -61.43,347.83 -93.12,702.24 -93.12,1055.92 0,50.1 1.46,100.95 2.22,150.32 14.31,400.27 66.22,801.12 154.05,1191.6 94.82,387.41 229.01,768.67 396,1131.6 171,366.91 380.93,717.05 623.96,1041.31 246.45,334.84 527.48,645.69 836.05,923.71 322.66,289.41 670.96,558.5 1033.37,798.31l0.44 -0.12z"/>
   <g>
    <path class="fil6" d="M33557.94 65083.77c2093.61,-782.57 3481.73,-2783.64 3481.73,-5018.89 0,-1352.14 -511.56,-2655.23 -1431.3,-3645.6l-2050.44 8664.49zm0 0l0 0 0 0z"/>
   </g>
   <path class="fil0" d="M33557.94 65083.77c361.77,-238.18 707.91,-506.21 1031.26,-794.84 308.84,-278.29 589.87,-589.14 835.85,-923.8 243.47,-324.44 453.4,-674.58 624.51,-1041.25 166.91,-363.17 301.1,-744.42 395.65,-1132.51 88.1,-389.81 140,-790.66 154.38,-1190.72 1.84,-54.71 2.57,-110.71 2.57,-165.97 0,-350 -30.93,-700.69 -91.37,-1044.79 -136.03,-809.94 -453.66,-1595.17 -901.13,-2370.35 185.84,126.89 360.72,272.56 520.32,431.73 83.48,77.29 154.58,165.39 231.87,249.63 77.29,84.24 146.84,176.22 212.53,269.73 135.74,186.24 259.62,385.28 366.3,590.05 50.24,104.34 105.1,207.89 147.63,316.08l68 162.29c20.86,54.89 38.65,110.53 58.74,165.39 152.8,446.16 242.3,913.61 262.83,1385.29 2.66,69.34 4,140.53 4,210.4 0,404.56 -45.25,809.76 -134.4,1204.33 -112.84,461.96 -287.98,908.58 -519.09,1323.95l-182.91 303.46c-67.24,97.39 -137.58,192.44 -207.13,287.52 -34.29,47.61 -71.45,94.32 -110.47,138.31 -37.86,44.84 -77.29,89.65 -114.39,133.69 -37.1,44.05 -77.29,88.89 -118.24,130.6l-125.19 123.65c-653.93,655.04 -1498.77,1088.52 -2412.06,1237.87l-0.06 0.26z"/>
   <path class="fil5" d="M8699.14 36720.88c-77.29,-2191.81 1391.13,-4046.66 3344.91,-4912.24 204.09,-83.83 416.54,-153.88 630.73,-208.59 425.83,-105.54 865.06,-159.69 1304.26,-159.69 669.06,0 1334.17,124.84 1957.64,366.56 237.71,90.7 469.64,199.56 692.13,321.98 2282.22,1227.29 3307.03,4115.45 2423.65,6450.22 -89.32,234.06 -198.13,463.94 -323.27,681.59 -308.11,641.69 -774.51,1195.81 -1353.39,1609.57 -192.38,141.61 -396.24,272.3 -606.64,386.63 -2116.07,1004.71 -4975.63,695.58 -6681.3,-881.07 -170,-180.4 -328.99,-374.77 -472.3,-577.6 -163.28,-231.05 -308.37,-478.4 -430.24,-734.31 -258.48,-524.23 -409.53,-1096.84 -440.05,-1680.52 -27.31,-219.4 -43.03,-442.15 -45.89,-662.78l-0.26 0.26z"/>
   <path class="fil6" d="M8573.18 35302.7c-77.29,-2191.81 1391.13,-4046.66 3344.91,-4912.24 204.44,-83.25 415.81,-154.32 630.12,-208.91 425.48,-105.3 865.35,-159.46 1304.55,-159.46 669.73,0 1334.17,124.17 1958.31,366.56 236.02,91.34 466.87,199.33 688.95,321.52 2282.22,1228.05 3307.03,4115.45 2423.65,6450.22 -88.07,235.26 -197.17,464.7 -322.57,681.77 -106.85,209.2 -229.12,411.63 -364.08,603.22 -133.43,189.81 -280.74,371.35 -439.06,540.65 -170.65,169.1 -356.33,326.83 -550.38,469.09 -193.08,141.96 -396.27,271.63 -606.58,386.45 -2116.07,1004.71 -4975.63,695.58 -6680.54,-881.07 -170.85,-179.79 -329.46,-373.92 -472.21,-576.93 -163.9,-231.58 -309.25,-478.73 -431.29,-734.49 -260.26,-525.55 -411.31,-1101.46 -441.22,-1687.32 -27.14,-217.82 -41.95,-439.17 -42.62,-659.16l0.03 0.12z"/>
   <circle class="fil0" cx="13885.75" cy="35349.84" r="945.97"/>
   <path class="fil4 str5" d="M13939.09 30020.24c-2.04,0 -4.62,0 -6.54,0 -1402.5,0 -2747.62,558.79 -3737.64,1551.35 -192.12,191.47 -370.56,399.57 -530.57,618.17 -331.77,432.34 -600.82,911.82 -796.09,1420.99l10072.74 0.18c-260.85,-917.05 -805.91,-1729.15 -1554.97,-2318.47 -154.58,-132.06 -316.93,-256.44 -485.12,-370.33 -870.29,-587.18 -1898.72,-901.89 -2949.06,-901.89 -3.86,0 -9,0 -12.88,0l0.15 0z"/>
   <path class="fil4 str5" d="M8907.05 37078.7c425.07,1062.67 1182.46,2003.99 2157.81,2575.14 250.68,141.79 514.13,264.18 784.67,363.37 1903.54,702.53 4250.69,391.83 5756.97,-897.28 201.61,-181.51 390.92,-378.71 563.06,-588.44 129.87,-156.48 249.02,-322.83 355.55,-496.02 154.17,-306.44 282.67,-628.37 381.95,-956.87l-10000.01 0.09z"/>
   <path class="fil3 str1" d="M8573.18 35302.7c-77.29,-2191.81 1391.13,-4046.66 3344.91,-4912.24 204.44,-83.25 415.81,-154.32 630.12,-208.91 425.48,-105.3 865.35,-159.46 1304.55,-159.46 669.73,0 1334.17,124.17 1958.31,366.56 236.02,91.34 466.87,199.33 688.95,321.52 2282.22,1228.05 3307.03,4115.45 2423.65,6450.22 -88.07,235.26 -197.17,464.7 -322.57,681.77 -106.85,209.2 -229.12,411.63 -364.08,603.22 -133.43,189.81 -280.74,371.35 -439.06,540.65 -170.65,169.1 -356.33,326.83 -550.38,469.09 -193.08,141.96 -396.27,271.63 -606.58,386.45 -2116.07,1004.71 -4975.63,695.58 -6680.54,-881.07 -170.85,-179.79 -329.46,-373.92 -472.21,-576.93 -163.9,-231.58 -309.25,-478.73 -431.29,-734.49 -260.26,-525.55 -411.31,-1101.46 -441.22,-1687.32 -27.14,-217.82 -41.95,-439.17 -42.62,-659.16l0.03 0.12z"/>
   <path class="fil5" d="M32850.01 36097.97c33.24,-1169.31 515.5,-2325.51 1167,-3194.19 166.53,-233.13 350.67,-454.36 549.91,-659.13 1015.96,-1057.55 2420.65,-1656.27 3887.17,-1656.27 1102.04,0 2178.41,338.84 3081.73,968.46 175.17,121.81 345.23,255.24 504.96,396.27 2086.72,1657.76 2327.85,4879.79 1184,7205.3 -110.82,183.88 -235.46,362.59 -369.51,530.16 -178.04,223.66 -375.29,435.2 -585.46,628.4 -1566.57,1377.99 -4004.16,1710.31 -5982.65,959.88 -281.97,-105.71 -555.93,-236.31 -815.75,-386.39 -1383.39,-833.13 -2347.15,-2402.8 -2583.64,-4036.61 -25.97,-205.58 -39.64,-413.41 -39.64,-620.63 0,-44.55 0.58,-91.43 1.78,-135.39l0.09 0.15z"/>
   <path class="fil6" d="M33274.31 35209.19c32.45,-1093.6 496.16,-2175.57 1122.2,-2987.85 160.28,-218.64 339.36,-425.68 530.43,-618.09 992.59,-992.59 2341.16,-1551.38 3745.36,-1551.38 1054.28,0 2086.57,315.64 2960.39,904.2 167.9,114.24 331.24,238.73 485.39,370.47 2009.43,1551.12 2241.27,4565.23 1139.2,6740.83 -106.88,173.22 -225.77,339.01 -355.28,495.75 -172.05,209.67 -361.91,406.69 -563.46,587.45 -1508.03,1293.89 -3853.64,1603.05 -5757.18,899.76 -270.46,-99.55 -534.63,-222.2 -785.81,-364.34 -1330.84,-779.03 -2258.27,-2247.46 -2486.25,-3775.38 -24.86,-186.92 -37.1,-376.69 -37.1,-565.42 0,-45.19 1.05,-91.43 2.13,-136.09l0 0.09z"/>
   <circle class="fil0" cx="38671.12" cy="35349.84" r="945.97"/>
   <path class="fil4 str5" d="M38671.12 30053.49c-2.07,0 -4.64,0 -6.57,0 -1402.5,0 -2747.62,558.79 -3737.64,1551.35 -191.03,192.38 -370.12,399.42 -530.57,617.79 -331.94,431.55 -601,912.23 -796.04,1420.58l10072.71 0.18c-261.31,-916.73 -806.2,-1728.83 -1555.24,-2318.53 -153.85,-131.59 -317.19,-256.09 -485.18,-370.03 -870.78,-587.27 -1897.29,-901.34 -2947.63,-901.34 -4.5,0 -9.64,0 -14.17,0l0.32 0z"/>
   <path class="fil4 str5" d="M33639.09 37111.19c425.85,1063.45 1182.46,2004.78 2157.81,2575.14 250.33,142.11 514.48,264.79 784.5,364.1 1903.54,702.53 4250.69,391.07 5756.97,-898.07 201.7,-181.02 391.56,-378.04 563.2,-587.39 129.93,-157.06 248.81,-322.86 355.43,-496.11 154.96,-306.39 283.63,-629.16 382.13,-957.68l-10000.04 0z"/>
   <path class="fil3 str1" d="M33274.31 35209.19c32.45,-1093.6 496.16,-2175.57 1122.2,-2987.85 160.28,-218.64 339.36,-425.68 530.43,-618.09 992.59,-992.59 2341.16,-1551.38 3745.36,-1551.38 1054.28,0 2086.57,315.64 2960.39,904.2 167.9,114.24 331.24,238.73 485.39,370.47 2009.43,1551.12 2241.27,4565.23 1139.2,6740.83 -106.88,173.22 -225.77,339.01 -355.28,495.75 -172.05,209.67 -361.91,406.69 -563.46,587.45 -1508.03,1293.89 -3853.64,1603.05 -5757.18,899.76 -270.46,-99.55 -534.63,-222.2 -785.81,-364.34 -1330.84,-779.03 -2258.27,-2247.46 -2486.25,-3775.38 -24.86,-186.92 -37.1,-376.69 -37.1,-565.42 0,-45.19 1.05,-91.43 2.13,-136.09l0 0.09z"/>
   <path class="fil11" d="M6573.05 29943.74c435.9,1223.44 1615.26,1859.49 2581.33,2082.07 1009.36,-1564.26 4378.19,-2235.1 6906.98,-1347.84 2148.52,386.42 -835.44,-1976.18 -5600.87,-695.58 -178.53,65.69 -1125.26,227.99 -2340.2,-710.25 -169.24,-130.6 361.71,1059.57 966.07,1545.71 -877.18,-17.79 -1020.92,-17.03 -2513.3,-874.11z"/>
   <path class="fil11" d="M43462.82 30817.07c604.36,-483.02 1135.31,-1673.22 966.07,-1545.71 -1214.94,938.23 -2163.98,772.84 -2340.2,710.25 -4765.4,-1282.94 -7750.16,1082 -5601.63,695.58 2529.54,-887.23 5898.41,-216.39 6907.76,1347.84 966.07,-222.58 2145.43,-858.63 2581.33,-2082.07 -1492.41,857.87 -1636.15,857.11 -2513.33,874.11z"/>
   <line class="fil12 str6" x1="22244.15" y1="38977.6" x2="29653.48" y2= "38977.6" />
   <rect class="fil5" x="10154.42" y="24138.84" width="33946.76" height="4957.84"/>
   <path class="fil1" d="M42596.44 43741.48c-242.68,299.87 -492.83,592.76 -750.44,878.73 -193.23,214.08 199.39,-86.58 750.44,-878.73zm1159.29 -24464.65c-2357.2,-4205.09 -6453.34,-7100.2 -11189.36,-8432.59l-490.76 -132.15c-1754.36,-485.36 -3603.04,-541 -5511.99,-541 -2062.73,0 -4054.37,211.77 -5933.2,772.84l-329.23 98.15c-2498.37,847.8 -4827.71,2146.01 -6865.88,3820.89 -225.77,184.52 -446.86,373.13 -663.25,565.83 -2190.27,1830.89 -3890.53,4149.45 -5059.87,6793.38 -113.34,253.49 -220.51,509.31 -321.49,767.44 -301.3,768.26 -545.7,1561.52 -728,2364.83 -2477.02,9783.62 1378.72,15785.61 4800.92,19464.39 337.73,363.23 -4477.13,-7871.5 -1346.3,-16693.61 597.41,-22.4 1564.26,-39.4 2796.96,-51.79l1197.91 -3911.42 1347.84 3893.63c2117.62,-10.05 4627.85,-11.6 7255.54,-9.29l952.16 -4046.66 1075.78 4048.24c5747.71,10.81 11704.07,40.19 15092.25,59.5l1020.16 -4031.97 1159.29 4044.32 634.5 3.86c3871.22,8224.7 1376.47,13567.45 -53.31,15617.82 2961.5,-3653.58 4583.02,-8222.43 4583.02,-12929.12 0,-7.51 0,-20.04 0,-27.57 0,-6679.95 -3423.72,-11507.96 -3423.72,-11507.96z"/>
   <path class="fil3 str1" d="M42596.44 43741.48c-242.68,299.87 -492.83,592.76 -750.44,878.73 -193.23,214.08 199.39,-86.58 750.44,-878.73zm1159.29 -24464.65c-2357.2,-4205.09 -6453.34,-7100.2 -11189.36,-8432.59l-490.76 -132.15c-1754.36,-485.36 -3603.04,-541 -5511.99,-541 -2062.73,0 -4054.37,211.77 -5933.2,772.84l-329.23 98.15c-2498.37,847.8 -4827.71,2146.01 -6865.88,3820.89 -225.77,184.52 -446.86,373.13 -663.25,565.83 -2190.27,1830.89 -3890.53,4149.45 -5059.87,6793.38 -113.34,253.49 -220.51,509.31 -321.49,767.44 -301.3,768.26 -545.7,1561.52 -728,2364.83 -2477.02,9783.62 1378.72,15785.61 4800.92,19464.39 337.73,363.23 -4477.13,-7871.5 -1346.3,-16693.61 597.41,-22.4 1564.26,-39.4 2796.96,-51.79l1197.91 -3911.42 1347.84 3893.63c2117.62,-10.05 4627.85,-11.6 7255.54,-9.29l952.16 -4046.66 1075.78 4048.24c5747.71,10.81 11704.07,40.19 15092.25,59.5l1020.16 -4031.97 1159.29 4044.32 634.5 3.86c3871.22,8224.7 1376.47,13567.45 -53.31,15617.82 2961.5,-3653.58 4583.02,-8222.43 4583.02,-12929.12 0,-7.51 0,-20.04 0,-27.57 0,-6679.95 -3423.72,-11507.96 -3423.72,-11507.96z"/>
   <path class="fil1" d="M32870.1 9762.24l-500.05 -134.48c-1948.35,-541 -3936.13,-583.5 -5806.42,-583.5 -2364.15,0 -4410.68,269.73 -6253.14,822.32l-329.23 98.15 -37.86 11.6c-2625.44,895.53 -5075.85,2259.38 -7220.69,4019.38 -231.87,190.13 -463.71,386.42 -683.2,583.5 -2289.96,1918.23 -4090.71,4336.48 -5351.24,7187.54 -120.58,269.73 -231.87,544.86 -341.61,816.89 -323.06,826.18 -1645.41,4619.32 -1835.54,5460.2l5605.49 77.29c597.41,-22.4 1564.26,-39.4 2796.96,-51.79l1197.91 -3911.42 1347.84 3893.63c2117.62,-10.05 4627.85,-11.6 7255.54,-9.29l952.16 -4046.66 1076.51 4052.35c5747.71,10.81 11704.07,40.19 15092.25,59.5l1020.16 -4031.97 1159.29 4044.32 634.5 3.86 5650.35 2660.17c0,-6661.2 -3191.88,-11515.49 -3592.21,-12102.88 -2420.59,-4281.6 -6622.59,-7450.28 -11837.8,-8918.71zm12841.72 24673.32c-244.99,-2003.23 -863.28,-4270.79 -2048.83,-6788.73l-300.63 -639.15 -501.57 0 -2069.69 -7236.2 -1827.07 7210.7c-3124.64,-17 -8274.16,-41.74 -13359.53,-53.34l-2005.54 -7540.72 -1772.91 7535.32c-2117.62,0 -3984.06,0 -5571.49,6.95l-2207.29 -6384.52 -1964.59 6414.67c-884.92,11.6 -1558.07,26.29 -2009.43,43.29l-759.73 29.36 -254.27 715.65c-1108.23,3129.28 -1401.91,6512.84 -873.3,10067.95 -1228.84,-3091.4 -1735.81,-7063.1 -436.66,-12182.48l6.95 -29.36c169.54,-747.43 400.82,-1489.83 680.66,-2204.29 92.74,-238.82 193.98,-480.71 302.18,-722.63 1123.71,-2539.59 2723.53,-4688.9 4753.81,-6386.07l25.5 -22.4c204.79,-181.63 416.57,-362.47 629.1,-537.15 1927.67,-1584.48 4129.53,-2814.28 6492.13,-3623.08l313.02 -92.74c1632.26,-490 3467.8,-728.79 5610.92,-728.79 1717.27,0 3534.25,39.4 5212.87,503.9l493.07 132.15c4655.66,1313.84 8387.76,4117 10510.78,7900.88l28.6 51 34 48.69c32.45,45.6 3215.83,4608.52 3215.83,10858.58 -0.67,1225.54 -119.59,2450.47 -347.92,3651.59l1.02 0.96z"/>
   <path class="fil3 str1" d="M42596.44 43741.48c-242.68,299.87 -492.83,592.76 -750.44,878.73 -193.23,214.08 199.39,-86.58 750.44,-878.73zm-31132.8 1077.36c337.73,363.23 -4477.13,-7871.5 -1346.3,-16693.61 597.41,-22.4 1564.26,-39.4 2796.96,-51.79l1197.91 -3911.42 1347.84 3893.63c2117.62,-10.05 4627.85,-11.6 7255.54,-9.29l952.16 -4046.66 1075.78 4048.24c5747.71,10.81 11704.07,40.19 15092.25,59.5l1020.16 -4031.97 1159.29 4044.32 634.5 3.86c3871.22,8224.7 1376.47,13567.45 -53.31,15617.82"/>
   <path class="fil0" d="M9710.04 27912.67c13.9,-57.95 25.5,-102.03 40.95,-149.94 15.45,-47.9 30.9,-92.74 47.9,-137.58 35.55,-90.43 77.29,-178.53 116.69,-264.32 86.05,-172.57 186.21,-338.6 297.83,-495.96 109.92,-159.95 236.63,-309.66 376.78,-444.52 152.92,-144.82 338.66,-251.18 541.09,-309.25 -0.06,9.38 0.23,19.63 0.23,29.27 0,190.13 -22.52,379.67 -67.27,564.22 -21.64,88.1 -45.6,173.89 -71.89,256.58l-77.29 251.18c-51.64,166.5 -103.2,331.16 -154.73,493.97 -25.5,81.93 -52.55,161.53 -77.29,241.89 -13.14,39.4 -28.6,77.29 -43.29,118.24 -14.69,40.95 -30.14,77.29 -43.29,108.19l-886.44 -261.99z"/>
   <path class="fil0" d="M42648.99 27659.98c71.48,-5.58 143.16,-8.56 214.81,-8.56 88.83,0 178.65,4.62 266.83,13.2 160.86,13.96 323.59,36.31 482.32,66.69 77.29,15.45 160.74,30.9 241.13,49.45 80.91,16.77 161.77,39.35 240.22,66.31 176.96,59.71 341.15,153.94 482.23,276.68 -141.2,122.45 -305.28,217.03 -482.29,277.35 -78.58,26.93 -159.28,48.96 -240.43,65.69 -77.29,19.31 -160.74,34.79 -241.13,50.24 -160.71,29.91 -321.46,52.05 -482.2,66.48 -87.02,8.15 -174.85,12.76 -262.37,12.76 -73,0 -146.63,-3.3 -219.28,-8.91l0.15 -927.39z"/>
   <path class="fil6" d="M22103.5 27079.54c18.26,-367.87 57.72,-736.94 114.97,-1100.9 55.65,-363.23 123.65,-724.15 201.73,-1082 78.08,-357.85 166.18,-714.89 265.87,-1068.86 98.56,-355.43 220.68,-709.37 357.77,-1050.86 -17.41,367.81 -58.42,737.06 -116.87,1101.37 -55.38,363.32 -122.48,724.03 -201.32,1082.12 -78.84,358.09 -167.46,714.36 -265.87,1068.83 -99.52,354.96 -221.03,707.85 -356.77,1050.43l0.5 -0.12z"/>
   <path class="fil6" d="M39350.47 27079.54c18.23,-367.87 57.69,-736.94 114.94,-1100.9 56.32,-363.52 123.62,-724.3 201.93,-1082.38 78.31,-358.09 165.65,-714.13 261.99,-1068.1 99.08,-355.66 217.47,-707.12 353.33,-1049.87 -17.32,368.81 -58.36,736.8 -115.56,1101.05 -56.49,363.64 -123.65,724.53 -201.43,1082.62 -77.29,358.61 -166.94,714.89 -266.63,1068.86 -96.83,353.44 -214.84,707.47 -348.07,1048.79l-0.5 -0.06z"/>
   <g>
    <path class="fil1" d="M6083.04 28330.79c154.7,-1014.15 454.25,-2004.52 883.32,-2936.85l-883.32 2936.85zm0 0l0 0 0 0z"/>
   </g>
   <path class="fil0" d="M5623.19 28272.83c6.95,-77.29 13.9,-142.98 24.74,-210.98 10.84,-68 22.4,-132.94 35.55,-199.39 27.05,-131.39 57.95,-261.23 95.05,-386.42 72.7,-256.49 163.05,-509.02 268.18,-753.36 101.91,-246.36 224.16,-485.82 363.2,-712.79 145.7,-235.87 334.57,-443.47 555.64,-611.13 4.24,74.11 6.63,149.82 6.63,224.57 0,194.25 -15.25,389.46 -43.82,581.34 -19.31,125.98 -39.4,251.18 -64.15,374.07 -24.74,122.89 -44.84,246.53 -64.15,369.42l-125.98 733.44 -64.15 361.71c-9.29,60.29 -21.64,120.58 -32.45,179.29 -10.81,58.71 -23.19,121.34 -34,169.24l-920.3 -119z"/>
   <g>
    <path class="fil1" d="M47181.77 30474.7c0,0 -35.55,-1605.97 -646.89,-3681.09l646.89 3681.09zm0 0l0 0 0 0z"/>
   </g>
   <path class="fil0" d="M46718.06 30483.96l-18.55 -213.32c-6.19,-77.29 -12.36,-149.15 -17,-223.34l-34.79 -451.36 -70.34 -911.97c-23.19,-305.28 -54.89,-611.34 -77.29,-922.02 -6.19,-154.58 -12.36,-313.78 -7.74,-474.52 1.17,-165.36 15.1,-331.01 38.88,-494.41 210.23,253.08 382.19,537.64 508.52,841.57 62.33,146.63 119.21,299.05 167.29,451.47 51.79,154.58 95.84,309.13 139.89,463.71 86.72,307.52 157.47,623.17 208.15,939.9 25.5,158.44 48.69,318.42 62.6,479.95 8.24,80.65 14.43,161.91 18.55,243.85 4.64,82.69 6.19,159.98 5.4,253.49l-923.57 17z"/>
   <path class="fil6" d="M26884.36 10341.89c-1098.56,64.15 -2197.13,193.17 -3281.73,381.48 -268.97,52.55 -541,109.74 -806.87,159.2 -265.87,49.45 -533.26,124.44 -799.89,186.24l-792.94 210.23c-262.77,77.29 -523.21,160.74 -784.44,241.13 -1042.6,333.76 -2064.57,743.75 -3047.96,1216.11 -991.19,479.86 -1957.02,1025.22 -2880.15,1623.09 821.74,-751.61 1737.19,-1407.46 2711.49,-1943.94 975.59,-545.7 2009.83,-996.65 3073.05,-1340.02 268.97,-77.29 536.36,-161.53 805.32,-235.73 268.97,-74.19 541,-140.65 815.37,-200.94 274.37,-60.29 548.71,-108.19 823.08,-154.58 274.37,-46.39 553.36,-82.69 830.04,-117.48 587.24,-71.65 1185.99,-107.49 1779.4,-107.49 518.1,0 1041.55,28.68 1556.05,82.46l0.18 0.23z"/>
   <path class="fil0" d="M20747.13 30871.17l-1004.71 -339.28 -2411.3 -814.58 -2905.91 -982.31 -2510.99 -850.13c-407.31,-137.58 -812.28,-284.42 -1221.89,-412.71l-17 -6.19c-66.75,-18.37 -136.15,-27.81 -205.52,-27.81 -426.99,0 -773.25,346.26 -773.25,773.25 0,347.86 232.34,652.99 567.64,745.41l1004.71 339.28 2411.3 814.58 2905.91 981.52 2510.99 850.13c406.52,137.58 811.49,283.63 1221.89,412.71l17 6.19c66.83,18.37 136.24,27.81 205.61,27.81 426.99,0 773.25,-346.26 773.25,-773.25 0,-347.86 -232.34,-652.99 -567.64,-745.41l-0.09 0.79z"/>
   <path class="fil0" d="M41605.64 27220.98l-983.07 394.16 -2360.3 951.37 -2844.86 1146.91 -2458.41 993.12c-398.81,160.77 -797.35,321.52 -1195.6,482.26l-17 6.19c-193.98,77.29 -352.42,167.7 -463.71,355.52 -68.32,119 -104.34,254.07 -104.34,391.42 0,68.97 9.11,137.84 26.99,204.41 53.63,194.8 181.4,361.39 355.58,463.71 171.58,91.19 406.52,154.58 595.1,77.29l983.83 -396.47 2360.3 -951.37 2845.62 -1148.43 2458.44 -990.81c398.02,-160.74 797.58,-320.73 1195.6,-482.26l17 -6.95c193.98,-77.29 352.42,-167.7 463.71,-354.73 69.32,-118.3 105.92,-253.31 105.92,-390.51 0,-274.75 -146.05,-529.14 -383.35,-667.54 -171.58,-90.43 -407.31,-154.58 -595.86,-77.29l-1.58 0z"/>
   <g>
    <circle class="fil13" cx="24908.12" cy="4691.53" r="4109.84"/>
    <path class="fil14" d="M24908.12 8801.37c0.32,0 1.34,0 1.81,0 2268.93,0 4108.96,-1840.04 4108.96,-4108.96 0,-285.94 -30.09,-572.4 -89.27,-851.83 -2664.29,-412.89 -5427.28,-173.13 -8116.69,519.36 -8.65,109.07 -14.72,218.99 -14.72,330.66 0.12,-0.06 0.12,0.93 0.12,0.93 0,2269.42 1840.42,4109.84 4109.81,4109.84 0,0 0,0 0,0l-0.03 0z"/>
    <circle class="fil3 str7" cx="24908.12" cy="4691.53" r="4109.84"/>
    <path class="fil13" d="M3166.12 27715.47c0.03,-2.75 0.03,-10.81 0.03,-13.5 0,-1668.6 191.09,-3337.17 565.16,-4962.66 75.04,-320.96 156.42,-638.68 244.14,-953.19 251.03,-2795.88 1731.2,-5101.82 3709.92,-7161.07 412.01,-329.78 494.27,-1070.73 906.27,-1482.77 1400.54,-1235.21 2635.75,-2471.27 4200.74,-3462.37 6424.45,-4118.49 14908.13,-6342.2 21744.6,-2553.49 1399.66,740.94 2964.66,1152.98 4117.64,2141.48 2224.59,1893.93 3788.7,4118.49 6013.29,5930.19 1976.15,1644.62 2305.94,4282.97 3007.07,6584.58 88.27,313.92 169.36,631.29 243.23,952.16 374.97,1626.48 566.06,3295.08 566.06,4963.65 0,2.69 0,10.75 0,13.44l-45318.16 3.53z"/>
    <path class="fil14" d="M3732.21 22738.3c-374.97,1626.51 -566.06,3295.08 -566.06,4963.68 0,2.69 0,10.75 0,13.44l7184.38 0.06c-135.01,-6981.9 -1926.79,-12812.54 7161.95,-19919.93 -6519.68,2474.74 -12460.24,7909.79 -13780.27,14942.75z"/>
    <path class="fil14" d="M4717.27 18885.54c-398.81,920.73 -650.86,1901.2 -742.2,2900.16 -87.46,314.21 -168.43,631.76 -242.85,952.6 -374.97,1626.51 -566.06,3295.08 -566.06,4963.68 0,2.69 0,10.75 0,13.44l17316.19 0.06c1824.52,-143.36 3686.41,-213.26 5522.03,-213.26 1835.65,0 3697.51,69.9 5524.46,209.76l16955.47 3.51c-0.03,-2.75 -0.03,-10.81 -0.03,-13.5 0,-1668.6 -191.09,-3337.17 -565.16,-4962.66 -75.04,-320.96 -156.42,-638.68 -244.14,-953.19 -299.49,-984.18 -532.36,-2028.97 -853.46,-3029.59 -14013.14,-5184.89 -28183.77,-5074.94 -42104.25,128.99z"/>
    <path class="fil3 str0" d="M3166.12 27715.47c0.03,-2.75 0.03,-10.81 0.03,-13.5 0,-1668.6 191.09,-3337.17 565.16,-4962.66 75.04,-320.96 156.42,-638.68 244.14,-953.19 251.03,-2795.88 1731.2,-5101.82 3709.92,-7161.07 412.01,-329.78 494.27,-1070.73 906.27,-1482.77 1400.54,-1235.21 2635.75,-2471.27 4200.74,-3462.37 6424.45,-4118.49 14908.13,-6342.2 21744.6,-2553.49 1399.66,740.94 2964.66,1152.98 4117.64,2141.48 2224.59,1893.93 3788.7,4118.49 6013.29,5930.19 1976.15,1644.62 2305.94,4282.97 3007.07,6584.58 88.27,313.92 169.36,631.29 243.23,952.16 374.97,1626.48 566.06,3295.08 566.06,4963.65 0,2.69 0,10.75 0,13.44l-45318.16 3.53z"/>
    <path class="fil13" d="M1875.5 21941.94c15876.74,-6751.64 32125.68,-6843.39 48121.87,0 1517.38,649.2 1508.73,12107.06 0,11582.53 -15621.39,-5438.52 -32142.13,-5496.53 -48121.87,0 -1900.82,653.52 -1715.6,-10852.83 0,-11582.53z"/>
    <path class="fil0" d="M47404.06 29496.86c71.54,279.89 111.17,568.23 116.69,856.97 7.8,283.05 -9.52,564.37 -22.49,846.54l-31.17 421.53c-13.85,140.24 -27.69,280.45 -45.01,419.81 -34.61,279.6 -77.03,557.45 -137.64,831.85l-681.21 -122.04c38.09,-274.4 86.55,-546.2 141.96,-818l86.55 -407.69 86.55 -406.84c64.06,-270.92 118.59,-542.72 192.17,-813.65 72.62,-277.88 171.81,-549.18 293.8,-808.57l-0.2 0.09z"/>
    <path class="fil0" d="M47281.14 20733.58c132.58,540.33 240.08,1092.43 314.16,1644.53 37.21,276.12 67.5,553.12 94.35,830.09 26.84,276.97 42.41,555.72 57.14,833.57 22.49,555.72 32.01,1111.42 5.2,1666.26 -23.4,554.23 -95.9,1111.3 -211.89,1653.88 -86.55,-553.12 -144.56,-1099.3 -200.82,-1644.62 -56.26,-545.32 -104.75,-1086.33 -177.45,-1625.57 -33.77,-270.08 -71.86,-538.4 -112.52,-806.73 -40.66,-268.32 -86.55,-535.8 -131.56,-802.4 -92.63,-534.08 -199.1,-1063.8 -310.74,-1593.56l674.14 -155.46z"/>
    <path class="fil3 str8" d="M40258.55 18961.72c654.4,3710.8 580.81,7746.21 0,12008.38"/>
    <path class="fil3 str8" d="M34148.34 17716.11c445.78,3713.4 395.56,7751.41 0,12017.06"/>
    <path class="fil0" d="M28579.1 21945.42c104.46,591.86 173.86,1190.64 204.85,1789.41 34.61,597.26 45.01,1194.52 56.26,1792.66l0 896.75c0,298.64 0,597.26 -10.4,895.9 -13,597.26 -34.61,1194.52 -75.3,1790.9l-692.49 -34.61c19.05,-594.66 49.34,-1188.47 81.38,-1782.26l104.75 -1780.53c39.81,-593.78 70.98,-1188.47 116.87,-1783.13 45.89,-594.66 113.66,-1188.71 214.08,-1785.09z"/>
    <path class="fil0" d="M28759.15 17047.02c15.8,164.28 24.48,331.92 24.48,497.71 0,16.71 0,35.26 0,51.96 0,91.75 -4.32,183.5 -6.92,275.25l-11.51 276.12c-14.72,183.5 -27.69,367.87 -58.86,552.25 -31.37,192.96 -92.54,380.14 -179.93,554.73 -103.73,-166.59 -182.74,-347.98 -233.89,-537.47 -49.34,-180.05 -80.5,-360.07 -113.39,-541l-42.41 -270.08c-11.25,-90.9 -24.24,-180.9 -33.77,-270.92 -19.78,-177.6 -30.26,-357.21 -30.26,-536.24 0,-2.31 0,-5.81 0,-8.15l686.47 -44.17z"/>
    <path class="fil3 str8" d="M22858.38 17027.1c30.29,3722.05 26.84,7761.78 0,12031.75"/>
    <path class="fil3 str8" d="M17285.7 17592.34c-178.3,3722.05 -158.41,7766.98 0,12041.27"/>
    <path class="fil0" d="M11225.67 24990.58c102,477.59 183.82,966.83 234.94,1452.65 54.54,483.87 94.35,966.86 142.84,1449.88l130.72 1448.15c40.69,482.14 80.5,965.13 108.19,1449l-692.49 55.41c-50.21,-485.59 -80.5,-972.93 -102.15,-1460.25 -11.25,-244.11 -17.32,-488.19 -24.24,-732.3l-8.65 -732.3c0,-488.19 4.32,-977.26 30.29,-1465.44 22.84,-490.91 86.17,-982.72 180.58,-1464.6l-0.03 -0.2z"/>
    <path class="fil0" d="M11841.1 18804.19c-21.64,315.94 -55.41,630.15 -90.9,944.36l-57.14 471.74 -62.33 471.74c-46.74,315.09 -82.23,630.15 -138.49,946.09 -53.81,320.7 -135.68,638.33 -242.53,945.27 -89.62,-314.33 -147.89,-638.15 -172.63,-964.29 -25.97,-322.01 -27.69,-642.27 -32.89,-964.29l0 -481.27c5.2,-161.01 9.52,-321.14 17.32,-481.27 17.32,-321.14 42.41,-641.4 86.55,-959.93l693.04 71.83z"/>
    <path class="fil3 str8" d="M5295.48 20558.72c-593.78,3722.05 -527.16,7777.38 0,12057.72"/>
    <path class="fil0" d="M47554.66 28706.58c179.23,0.03 324.58,-145.32 324.58,-324.58 0,-179.23 -145.35,-324.61 -324.61,-324.61 -179.23,0 -324.58,145.38 -324.58,324.61 2.31,178.24 146.31,322.25 324.58,324.58l0.03 0z"/>
    <path class="fil3 str9" d="M48005.64 20639.23c865.58,3708.2 766.07,7741.01 0,12000.61"/>
    <path class="fil3 str9" d="M41316.31 18788.59c654.4,3710.8 580.81,7746.21 0,12009.26"/>
    <path class="fil3 str9" d="M35203.5 17529.16c445.78,3713.4 395.56,7751.41 0,12017.06"/>
    <path class="fil3 str9" d="M29462.86 16868.69c237.19,3715.12 211.22,7756.58 0,12024.83"/>
    <path class="fil3 str9" d="M23900.57 16811.59c29.44,3717.72 26.84,7761.78 0,12031.75"/>
    <path class="fil3 str9" d="M18320.93 17362.96c-178.3,3722.05 -158.41,7766.98 0,12041.27"/>
    <path class="fil3 str9" d="M12527.51 18528.91c-386.04,3722.05 -346.23,7772.18 0,12049.95"/>
    <path class="fil3 str9" d="M6323.79 20315.49c-593.78,3722.05 -527.16,7777.38 0,12057.72"/>
    <path class="fil3 str0" d="M1875.5 21941.94c15876.74,-6751.64 32125.68,-6843.39 48121.87,0 1517.38,649.2 1508.73,12107.06 0,11582.53 -15621.39,-5438.52 -32142.13,-5496.53 -48121.87,0 -1900.82,653.52 -1715.6,-10852.83 0,-11582.53z"/>
    <path class="fil0" d="M19309.43 15648.2c1102.16,-229.18 2224.44,-399.45 3343.28,-496.75 281.32,-24.24 561.77,-48.46 843.09,-67.5l843.97 -48.46c282.17,-12.12 563.49,-17.32 845.69,-25.97l845.69 -11.25c1125.26,0 2254.88,54.54 3375.82,159.28 1117.73,99.75 2242.17,271.13 3339.19,504.25 -1125.26,-25.09 -2250.56,-68.38 -3365.42,-97.82 -1114.86,-29.44 -2236.71,-42.41 -3354.17,-45.01l-837.13 -0.61c-279.6,0 -559.17,10.4 -838.77,9.52l-837.89 12.12c-279.6,9.52 -559.17,13.85 -839.62,17.32 -1116.62,28.57 -2236.71,68.38 -3363.73,90.87z"/>
    <path class="fil6" d="M12432.31 11329.77c610.02,-486.41 1262.32,-934.87 1937.92,-1327.02 673.44,-399.92 1368.5,-765.19 2077.43,-1095.85 173.13,-86.55 357.5,-161.01 536.68,-240.63 179.18,-79.63 357.5,-161.01 540.13,-231.11 365.27,-142.84 727.1,-292.57 1099.3,-415.49 735.02,-262.37 1494.04,-482.52 2255.35,-649.93 -179.18,78.78 -360.07,154.08 -541,227.66 -180.93,73.58 -362.67,141.96 -541,221.59 -359.23,150.61 -719.3,296.04 -1075.93,451.85l-267.48 115.12c-86.55,37.21 -180.05,73.58 -268.32,114.27l-532.36 236.31c-178.3,76.18 -354.03,158.41 -531.48,238.03 -177.45,79.63 -354.03,159.28 -528,244.96l-528 244.96c-173.13,86.55 -346.23,173.13 -523.68,259.68 -346.23,167.93 -692.49,346.23 -1043.04,519.36 -691.96,348.74 -1380.97,709.69 -2066.5,1086.24z"/>
   </g>
  </g>
 </g>
</svg>
